<svg version="1.1" id="Layer_1" xmlns="http://www.w3.org/2000/svg" xmlns:xlink="http://www.w3.org/1999/xlink" x="0px" y="0px"
	 width="100%" viewBox="0 0 224 208" enable-background="new 0 0 224 208" xml:space="preserve">
<path fill="#000000" opacity="1.000000" stroke="none" 
	d="
M124.306885,148.514038 
	C126.799965,150.107101 127.184601,153.812256 130.527451,153.581573 
	C137.085144,153.129044 143.943024,155.325333 150.141632,151.811798 
	C153.018463,150.181152 154.651138,147.428574 154.656189,143.943192 
	C154.661499,140.277176 154.767502,136.608383 154.660446,132.945724 
	C154.418076,124.654282 157.088150,117.926582 164.594299,113.632126 
	C165.264954,113.248428 165.766830,112.569702 166.311981,112.060768 
	C165.524002,109.889809 163.597702,109.334801 162.223175,108.238480 
	C157.337723,104.341827 154.868332,99.286880 154.706650,93.111427 
	C154.593277,88.781639 154.756821,84.444565 154.641617,80.114868 
	C154.479965,74.038696 151.136200,70.586739 145.130463,70.103958 
	C144.300903,70.037277 143.462387,70.077919 142.633743,70.004471 
	C136.618042,69.471245 135.010040,66.567589 138.175430,61.262112 
	C142.869049,53.395168 147.836334,45.691360 152.697495,37.924603 
	C154.376816,35.241508 156.075363,32.570263 157.785721,29.906832 
	C161.385040,24.301867 164.623596,24.293167 168.217270,29.958601 
	C176.156876,42.475330 184.056656,55.017349 191.959091,67.557602 
	C200.041138,80.382843 208.011169,93.280205 216.238266,106.011566 
	C218.708801,109.834709 218.984375,112.972290 216.435638,116.974182 
	C200.418259,142.123810 184.561737,167.376556 168.791855,192.682327 
	C166.715439,196.014359 164.391220,197.507278 160.357574,197.475296 
	C138.862656,197.304810 117.365631,197.417786 95.869392,197.389191 
	C88.905396,197.379929 87.404243,194.724640 91.025055,188.780655 
	C94.491486,183.090103 98.209404,177.550842 101.601967,171.817963 
	C103.371689,168.827408 104.914314,168.519531 107.921524,170.475098 
	C111.083420,172.531250 110.829422,174.171829 108.982361,176.869308 
	C106.653038,180.271103 104.117134,183.606445 102.732445,187.535339 
	C104.046227,189.349625 105.869583,188.750717 107.423363,188.756256 
	C123.586998,188.813904 139.751526,188.722839 155.914246,188.858505 
	C159.278931,188.886749 161.437820,187.854309 163.257980,184.929504 
	C177.780701,161.592941 192.418289,138.327637 207.095535,115.087791 
	C208.479645,112.896194 208.964279,111.134720 207.445847,108.731621 
	C193.119232,86.058098 178.892654,63.321377 164.620712,40.613266 
	C164.277985,40.067955 163.743973,39.642864 162.766449,38.585430 
	C158.359467,45.442142 153.835953,51.840439 150.538101,58.692326 
	C151.309906,60.116383 152.245224,60.439304 153.174881,60.841820 
	C161.291199,64.355942 164.696121,70.993217 165.277039,79.403229 
	C165.448898,81.891312 165.531403,84.422180 165.282471,86.895973 
	C164.481796,94.852493 166.676300,100.740906 175.372147,102.522362 
	C177.286240,102.914490 178.146500,104.222832 178.149292,106.127686 
	C178.154678,109.793190 178.103241,113.459412 178.160919,117.123985 
	C178.201248,119.686699 176.403564,120.416885 174.489914,121.205330 
	C165.991409,124.706810 165.343445,125.707054 165.324646,134.940826 
	C165.319214,137.607010 165.343796,140.273636 165.304657,142.939316 
	C165.119629,155.539459 157.454773,163.548874 144.894806,164.174774 
	C141.736328,164.332169 138.561874,164.284241 135.398407,164.197388 
	C131.035522,164.077621 127.178459,164.426102 123.407761,167.590546 
	C118.619095,171.609360 111.764931,170.292740 107.688454,165.671326 
	C103.705574,161.156006 103.710564,154.403046 107.700310,149.621155 
	C111.488998,145.080246 117.395851,144.591385 124.306885,148.514038 
M115.049583,153.585724 
	C112.318878,154.919067 111.563354,157.114594 112.861214,159.723083 
	C113.784538,161.578857 115.520729,162.816986 117.756531,162.148117 
	C120.058701,161.459396 121.458618,159.590012 121.140976,157.281906 
	C120.748985,154.433624 118.665268,153.160004 115.049583,153.585724 
z"/>
<path fill="#000000" opacity="1.000000" stroke="none" 
	d="
M38.938431,70.994118 
	C47.292671,57.715858 55.580093,44.821445 63.550453,31.733934 
	C66.162186,27.445406 69.182564,25.517046 74.403229,25.587902 
	C95.228806,25.870541 116.060448,25.700851 136.889832,25.717657 
	C139.190979,25.719515 141.693314,25.341948 143.099625,27.880556 
	C144.567902,30.531034 143.113876,32.693569 141.776031,34.819710 
	C137.625488,41.415943 133.444489,47.993011 129.326477,54.496670 
	C121.445312,51.245571 121.396667,50.990498 125.405563,44.270309 
	C127.147621,41.350067 129.580536,38.746506 130.293594,35.407887 
	C128.707840,33.927422 127.128937,34.379162 125.693710,34.375877 
	C109.530190,34.338871 93.365486,34.451073 77.203819,34.274029 
	C73.759888,34.236298 71.604568,35.408115 69.846306,38.225628 
	C55.208069,61.682564 40.523098,85.110405 25.798719,108.513367 
	C24.525938,110.536316 24.084396,112.227844 25.486471,114.446259 
	C39.725952,136.976517 53.883892,159.558319 68.085777,182.112381 
	C68.516777,182.796829 69.177483,183.336670 70.322205,184.592316 
	C75.265633,178.283447 78.995079,171.565887 82.993820,165.311874 
	C82.656456,164.593307 82.588890,164.119980 82.374466,164.039917 
	C70.746231,159.697449 66.871948,150.811401 67.650543,139.127670 
	C67.794258,136.971130 67.567833,134.791183 67.684364,132.631332 
	C67.978546,127.178307 65.491508,123.465729 60.315517,122.229324 
	C55.517548,121.083221 54.277508,118.274506 54.778210,113.884064 
	C54.965813,112.239044 54.971851,110.535629 54.777496,108.892334 
	C54.328472,105.095734 55.951263,103.257072 59.593063,102.075607 
	C66.155518,99.946602 67.525688,97.496117 67.697372,90.643646 
	C67.834435,85.172943 67.001122,79.653152 68.570160,74.241463 
	C71.140793,65.375237 78.060356,59.920067 87.237648,59.701977 
	C90.235428,59.630737 93.240005,59.589268 96.234802,59.705696 
	C101.279228,59.901798 105.750397,59.554390 110.006882,55.721256 
	C114.643600,51.545692 122.240204,53.268764 125.983757,58.210491 
	C129.644302,63.042618 129.004807,70.664825 124.605782,74.634575 
	C120.040764,78.754150 111.608109,78.618996 107.423225,73.664421 
	C105.020004,70.819199 102.550438,70.112442 99.217384,70.266342 
	C95.725327,70.427582 92.219124,70.251244 88.721298,70.325546 
	C81.862373,70.471230 78.460388,73.978775 78.333763,80.951744 
	C78.303520,82.617607 78.319839,84.284363 78.319496,85.950706 
	C78.316376,101.240860 77.910889,102.150352 66.844742,111.666061 
	C66.656609,112.647751 67.219597,113.231094 67.972099,113.654976 
	C75.627655,117.967308 78.625076,124.705956 78.332191,133.245834 
	C78.212326,136.740723 78.241890,140.246490 78.355415,143.742386 
	C78.557648,149.970062 82.136330,153.452484 88.430511,153.704498 
	C97.103401,154.051743 98.525726,156.610962 93.972679,164.109406 
	C88.007675,173.933197 81.943413,183.697708 75.829651,193.429810 
	C72.312698,199.028229 68.339622,199.016571 64.748711,193.329254 
	C48.476055,167.556549 32.307629,141.717987 16.007433,115.962769 
	C13.911075,112.650406 14.255527,109.933899 16.294788,106.770340 
	C23.875645,95.009956 31.278524,83.134850 38.938431,70.994118 
M113.255714,68.600792 
	C115.559357,70.458580 117.879120,70.445274 119.801697,68.205902 
	C121.246719,66.522789 121.156570,64.493103 119.690559,62.770458 
	C118.217957,61.040054 116.250755,60.678947 114.342186,61.834332 
	C111.889992,63.318813 110.981461,65.415222 113.255714,68.600792 
z"/>
<path fill="#000000" opacity="1.000000" stroke="none" 
	d="
M107.226608,95.904068 
	C115.242813,92.030296 122.662209,92.779213 128.950256,98.284828 
	C134.569382,103.204788 136.618759,109.802238 134.495636,117.270187 
	C132.270630,125.096558 126.970078,129.562439 119.067192,131.010712 
	C111.014320,132.486435 102.261795,127.398293 99.059296,119.464836 
	C95.484848,110.609970 98.359932,102.022781 107.226608,95.904068 
z"/>
</svg>