<svg xmlns="http://www.w3.org/2000/svg" viewBox="0 0 720 720">
  <circle cx="360" cy="360" r="360" fill="none"/>
  <path d="M360 130c-126 0-230 104-230 230s104 230 230 230 230-104 230-230S486 130 360 130zm0 424c-107 0-194-87-194-194s87-194 194-194 194 87 194 194-87 194-194 194z" fill="#000"/>
  <path d="M452 260h-58l-15 36h-37l17-36h-65l-28 66c-6 14 1 29 15 35l4 2-31 73h38l31-73 15-36h37l-15 36-31 73h38l72-167c10-21 15-25 22-25z" fill="#000"/>
  <path d="M463 346c0-57-46-103-103-103s-103 46-103 103 46 103 103 103 103-46 103-103zm-103 59c-33 0-59-26-59-59s26-59 59-59 59 26 59 59-26 59-59 59z" fill="#000"/>
</svg>