<svg xmlns="http://www.w3.org/2000/svg" viewBox="0 0 16 16" fill="#000000" id="Compass-Rose-Fill--Streamline-Phosphor-Fill" height="16" width="16">
  <desc>
    Compass Rose Fill Streamline Icon: https://streamlinehq.com
  </desc>
  <path d="m15.62125 7.515 -1.690625 -0.4225a5.99125 5.99125 0 0 0 -5.023125 -5.023125l-0.4225 -1.6875a0.5 0.5 0 0 0 -0.97 0l-0.4225 1.690625a5.99125 5.99125 0 0 0 -5.023125 5.023125l-1.6875 0.4225a0.5 0.5 0 0 0 0 0.97l1.690625 0.4225a5.99125 5.99125 0 0 0 5.023125 5.023125l0.4225 1.690625a0.5 0.5 0 0 0 0.97 0l0.4225 -1.690625a5.99125 5.99125 0 0 0 5.023125 -5.023125l1.690625 -0.4225a0.5 0.5 0 0 0 0 -0.97Zm-2.760625 -0.6875L9.9125 6.0875l-0.7375 -2.948125a4.9925 4.9925 0 0 1 3.685625 3.685625Zm-6.035625 -3.6875L6.0875 6.0875l-2.948125 0.7375a4.9925 4.9925 0 0 1 3.685625 -3.685625Zm-3.6875 6.035625 2.95 0.736875 0.7375 2.948125a4.9925 4.9925 0 0 1 -3.685625 -3.685625Zm6.035625 3.6875 0.7375 -2.948125 2.948125 -0.7375a4.9925 4.9925 0 0 1 -3.68375 3.683125Z" stroke-width="0.0625"></path>
</svg>