<?xml version="1.0" standalone="no"?>
<!DOCTYPE svg PUBLIC "-//W3C//DTD SVG 20010904//EN"
 "http://www.w3.org/TR/2001/REC-SVG-20010904/DTD/svg10.dtd">
<svg version="1.0" xmlns="http://www.w3.org/2000/svg"
 width="876.000000pt" height="876.000000pt" viewBox="0 0 876.000000 876.000000"
 preserveAspectRatio="xMidYMid meet">
<metadata>
Created by potrace 1.16, written by Peter Selinger 2001-2019
</metadata>
<g transform="translate(0.000000,876.000000) scale(0.100000,-0.100000)"
fill="#000000" stroke="none">
<path d="M3181 8273 c-5 -21 -21 -94 -36 -163 -14 -69 -28 -132 -31 -141 -3
-11 -57 -31 -174 -64 -94 -27 -170 -52 -170 -56 0 -4 66 -35 148 -70 l148 -63
-33 -220 c-18 -120 -31 -222 -28 -224 3 -3 11 2 18 10 58 75 252 298 259 298
4 0 63 -27 129 -61 67 -33 124 -58 127 -55 3 3 -24 75 -60 159 l-64 153 132
149 c73 83 127 151 121 153 -7 1 -87 -13 -178 -31 l-166 -34 -58 144 c-32 79
-62 146 -66 149 -5 2 -12 -12 -18 -33z"/>
<path d="M4591 7949 c-6 -30 -19 -94 -29 -144 l-18 -89 -116 -37 c-64 -20
-125 -40 -135 -44 -14 -6 11 -22 107 -69 l126 -61 -32 -160 c-18 -88 -30 -162
-27 -165 2 -3 10 2 16 11 7 8 54 63 106 122 l94 106 98 -50 c55 -27 99 -45 99
-39 0 5 -18 58 -40 116 -22 59 -40 112 -40 119 0 7 43 62 95 123 52 62 95 115
95 120 0 5 -57 -2 -127 -15 -71 -13 -134 -22 -141 -21 -8 2 -34 50 -59 108
-25 58 -49 109 -53 114 -5 4 -13 -16 -19 -45z"/>
<path d="M1916 7370 c-3 -8 -23 -93 -45 -189 -22 -95 -43 -177 -48 -181 -4 -4
-90 -31 -190 -60 -101 -29 -183 -56 -183 -60 0 -4 72 -38 160 -75 89 -38 163
-71 165 -74 1 -3 -10 -98 -26 -211 -16 -113 -28 -216 -27 -228 3 -20 28 5 143
141 l140 164 148 -74 c81 -40 147 -69 147 -65 0 4 -24 66 -53 138 -29 71 -61
148 -70 171 l-16 41 134 168 c74 93 133 170 131 172 -2 2 -79 -15 -171 -37
-92 -23 -175 -41 -184 -41 -13 0 -33 38 -76 143 -73 179 -72 176 -79 157z"/>
<path d="M5440 7158 c0 -6 -39 -229 -45 -253 -3 -15 -18 -24 -52 -33 -126 -34
-214 -65 -207 -72 5 -5 56 -30 114 -55 58 -26 106 -48 107 -48 1 -1 -9 -71
-21 -155 -13 -83 -20 -152 -16 -152 4 0 49 47 99 105 l92 104 94 -46 c52 -26
97 -44 100 -41 4 3 -12 56 -34 117 -23 61 -41 116 -41 121 0 6 41 58 90 117
50 58 89 107 87 109 -2 3 -51 -5 -108 -16 -57 -11 -114 -21 -127 -22 -20 -3
-28 10 -71 104 -42 96 -61 131 -61 116z"/>
<path d="M5747 5953 c-3 -10 -15 -61 -28 -114 l-22 -97 -111 -33 c-61 -18
-115 -36 -119 -39 -5 -4 35 -25 88 -46 54 -21 99 -44 102 -51 3 -7 -3 -67 -12
-134 -10 -66 -15 -122 -13 -125 3 -2 22 15 43 38 21 24 58 65 83 91 l45 49 88
-40 c49 -23 89 -38 89 -35 0 4 -16 53 -36 109 l-36 102 77 96 c43 53 75 99 71
103 -3 3 -52 -7 -109 -24 l-103 -29 -39 94 c-42 100 -51 113 -58 85z"/>
<path d="M865 5749 c-27 -139 -44 -203 -55 -209 -8 -4 -95 -29 -192 -56 -98
-26 -178 -50 -178 -54 0 -4 74 -40 165 -80 153 -68 165 -75 165 -99 0 -14 -14
-116 -30 -226 -16 -110 -26 -202 -24 -205 3 -3 11 2 17 11 7 8 67 81 135 161
l123 146 150 -71 c82 -39 151 -68 154 -65 3 2 -26 81 -64 175 l-69 171 135
168 c83 104 130 170 121 172 -7 1 -90 -15 -183 -37 -93 -22 -172 -37 -176 -33
-3 4 -37 80 -75 169 -38 90 -71 163 -74 163 -3 0 -24 -90 -45 -201z"/>
<path d="M3475 5005 c-136 -30 -248 -90 -342 -183 -75 -73 -115 -131 -163
-235 -58 -126 -74 -201 -74 -352 -1 -189 30 -281 131 -386 58 -61 141 -107
233 -130 81 -20 314 -17 420 5 83 18 207 59 223 75 7 7 -9 238 -18 268 -3 8
-22 5 -65 -13 -128 -52 -306 -69 -404 -40 -63 19 -114 60 -137 110 -37 82 -38
82 124 89 365 17 555 98 632 270 25 53 28 75 28 152 0 109 -24 181 -84 249
-47 53 -156 111 -238 126 -73 14 -193 11 -266 -5z m169 -279 c61 -26 81 -78
51 -136 -29 -56 -117 -84 -299 -96 l-106 -7 15 43 c53 150 219 246 339 196z"/>
<path d="M4973 5006 c-86 -22 -163 -66 -237 -137 l-72 -68 7 57 c4 31 8 74 8
95 l1 37 -165 0 c-163 0 -165 0 -169 -22 -3 -13 -13 -72 -22 -133 -13 -94
-184 -1016 -199 -1082 l-5 -23 189 0 c172 0 190 2 195 18 3 9 28 142 56 295
57 310 76 381 128 480 61 118 146 187 229 187 75 0 113 -51 113 -154 0 -38
-29 -220 -70 -439 -38 -206 -70 -377 -70 -381 0 -3 86 -6 190 -6 105 0 190 3
190 6 0 3 31 170 70 372 78 412 94 530 84 617 -14 129 -76 225 -172 267 -59
26 -204 34 -279 14z"/>
<path d="M6742 5009 c-255 -43 -412 -206 -412 -429 0 -133 85 -242 260 -335
112 -60 155 -102 155 -155 0 -67 -60 -110 -152 -110 -62 0 -195 32 -268 65
-32 14 -59 24 -60 23 -1 -2 -22 -63 -48 -136 l-46 -132 23 -15 c65 -43 254
-85 380 -85 352 0 577 183 564 458 -6 147 -78 233 -283 341 -90 47 -145 99
-145 135 0 37 43 82 94 96 57 16 161 6 250 -24 37 -13 68 -20 70 -17 2 3 22
64 46 135 48 144 49 136 -36 161 -114 34 -272 44 -392 24z"/>
<path d="M8014 5005 c-394 -70 -659 -357 -704 -763 -24 -219 34 -388 163 -476
163 -109 382 -81 533 68 33 34 70 75 82 91 l22 30 -6 -112 -7 -113 177 0 176
0 0 103 c0 157 25 339 101 736 38 199 69 369 69 376 0 50 -426 92 -606 60z
m162 -281 c20 -5 20 -6 -12 -184 -18 -99 -40 -203 -49 -232 -59 -178 -168
-298 -272 -298 -151 0 -189 223 -79 455 55 117 144 207 243 245 47 19 127 25
169 14z"/>
<path d="M5781 4938 c-6 -29 -58 -303 -116 -608 -58 -305 -107 -565 -110 -577
l-5 -23 189 0 c172 0 190 2 195 18 3 9 55 285 116 612 61 327 113 603 116 613
5 16 -8 17 -185 17 l-190 0 -10 -52z"/>
<path d="M502 4153 c-6 -26 -25 -120 -42 -208 l-32 -160 -161 -44 c-89 -24
-177 -48 -194 -53 -18 -5 -33 -12 -33 -16 0 -4 79 -38 175 -76 170 -68 176
-71 171 -95 -25 -122 -76 -444 -72 -449 3 -3 7 -3 9 -1 28 37 279 339 283 339
2 0 68 -32 145 -71 78 -38 144 -68 147 -65 3 3 -25 83 -62 177 -56 144 -64
174 -54 188 7 9 69 83 136 164 68 82 121 151 118 154 -3 4 -88 -15 -187 -41
-100 -26 -182 -45 -183 -44 -1 2 -33 77 -71 168 -37 91 -71 169 -76 173 -4 5
-12 -13 -17 -40z"/>
<path d="M8348 2603 c12 -2 30 -2 40 0 9 3 -1 5 -23 4 -22 0 -30 -2 -17 -4z"/>
<path d="M895 2508 c-2 -7 -18 -85 -35 -173 -17 -88 -33 -167 -36 -176 -3 -12
-54 -31 -179 -65 -96 -27 -175 -51 -175 -54 0 -3 67 -34 149 -70 141 -61 149
-66 145 -90 -11 -70 -45 -383 -42 -396 2 -12 167 179 244 284 9 12 32 4 147
-51 75 -36 137 -63 137 -59 0 4 -27 76 -60 161 l-59 153 121 150 c66 82 118
151 115 154 -4 5 -232 -39 -323 -62 -19 -5 -27 9 -79 150 -32 86 -59 156 -62
156 -2 0 -6 -6 -8 -12z"/>
<path d="M4545 2288 c-2 -7 -16 -67 -30 -133 -14 -66 -27 -120 -28 -121 -1 -1
-54 -16 -117 -34 -63 -19 -119 -37 -124 -42 -5 -4 39 -30 100 -59 60 -28 110
-52 112 -54 1 -1 -7 -59 -18 -128 -31 -195 -32 -194 48 -96 37 46 78 96 92
112 l25 28 100 -44 c55 -25 102 -43 103 -42 2 2 -17 52 -42 112 l-46 108 28
37 c15 20 55 73 90 117 37 48 57 81 49 81 -8 0 -63 -11 -123 -25 -60 -13 -112
-21 -115 -17 -3 4 -25 53 -49 110 -24 56 -45 102 -47 102 -2 0 -5 -6 -8 -12z"/>
<path d="M3451 1524 c-6 -22 -20 -82 -32 -134 -12 -52 -26 -100 -33 -106 -6
-6 -64 -26 -128 -44 -65 -18 -118 -36 -118 -40 0 -3 50 -28 110 -55 76 -33
110 -53 110 -64 -1 -9 -9 -82 -19 -163 -9 -82 -14 -148 -11 -148 6 0 172 193
191 222 3 5 52 -13 108 -41 61 -31 101 -46 101 -39 0 7 -20 62 -45 122 l-45
109 96 114 c53 62 95 115 93 117 -2 2 -60 -7 -128 -20 -68 -13 -127 -22 -130
-19 -4 2 -27 50 -51 107 -24 57 -47 107 -51 112 -4 5 -12 -9 -18 -30z"/>
<path d="M1992 1453 c-6 -27 -23 -109 -38 -183 -15 -74 -29 -137 -30 -138 -1
-2 -80 -26 -174 -52 -95 -27 -175 -51 -178 -54 -5 -5 80 -46 228 -111 36 -16
69 -32 73 -36 5 -3 -6 -98 -23 -209 -27 -172 -31 -229 -17 -209 3 4 223 256
242 278 11 11 35 3 141 -48 70 -34 131 -60 135 -59 4 2 -21 73 -55 159 l-63
156 125 157 c68 86 122 159 119 162 -2 3 -77 -13 -165 -36 -89 -22 -165 -40
-170 -40 -5 0 -35 68 -67 150 -32 83 -61 153 -66 155 -4 3 -12 -16 -17 -42z"/>
</g>
</svg>
