<?xml version="1.0" standalone="no"?>
<!DOCTYPE svg PUBLIC "-//W3C//DTD SVG 20010904//EN"
 "http://www.w3.org/TR/2001/REC-SVG-20010904/DTD/svg10.dtd">
<svg version="1.0" xmlns="http://www.w3.org/2000/svg"
 width="512.000000pt" height="512.000000pt" viewBox="0 0 512.000000 512.000000"
 preserveAspectRatio="xMidYMid meet">
<metadata>
Created by potrace 1.16, written by Peter Selinger 2001-2019
</metadata>
<g transform="translate(0.000000,512.000000) scale(0.100000,-0.100000)"
fill="#000000" stroke="none">
<path d="M2515 4744 c-38 -29 -187 -107 -327 -170 -319 -145 -734 -287 -1038
-354 -70 -16 -80 -24 -80 -70 0 -57 -36 -187 -74 -265 -66 -136 -185 -255
-320 -320 -40 -19 -78 -35 -83 -35 -22 0 -22 -34 -2 -113 36 -142 97 -349 129
-437 18 -47 40 -107 50 -135 94 -264 283 -646 463 -934 172 -278 396 -577 647
-866 173 -199 652 -675 680 -675 16 0 99 77 294 273 284 284 348 354 529 571
215 257 453 593 602 851 124 215 302 586 370 775 84 235 195 611 195 663 0 11
-26 28 -77 52 -165 76 -297 208 -362 362 -26 60 -61 198 -61 239 0 39 -11 48
-80 64 -225 51 -527 147 -801 254 -162 63 -447 196 -525 245 -70 44 -97 49
-129 25z m177 -288 c152 -74 313 -143 443 -191 50 -19 115 -43 145 -55 105
-39 306 -104 497 -160 71 -20 72 -21 83 -63 57 -216 167 -381 348 -519 54 -42
92 -78 92 -88 0 -52 -118 -407 -215 -645 -66 -162 -249 -515 -337 -648 -21
-32 -38 -61 -38 -64 0 -7 -128 -198 -238 -354 -101 -144 -256 -338 -398 -499
-156 -177 -494 -520 -513 -520 -41 0 -559 561 -793 859 -120 153 -295 409
-393 576 -33 55 -67 114 -77 130 -53 88 -263 527 -303 630 -79 208 -175 504
-175 541 0 7 23 27 52 45 193 124 331 321 388 556 11 45 7 43 165 88 333 94
751 254 1034 396 53 27 97 49 98 49 2 0 62 -29 135 -64z"/>
<path d="M2479 4394 c-212 -112 -638 -278 -957 -373 -72 -22 -139 -44 -150
-50 -11 -6 -30 -42 -47 -93 -66 -195 -182 -360 -330 -466 -67 -48 -70 -55 -57
-122 18 -86 124 -393 188 -544 58 -136 165 -354 229 -466 21 -36 45 -79 55
-96 80 -140 290 -454 377 -565 226 -287 282 -352 535 -618 218 -232 232 -244
256 -237 44 14 464 465 652 700 175 219 284 371 411 576 232 372 403 744 535
1163 43 138 43 149 -3 184 -70 53 -185 168 -228 228 -56 78 -97 162 -131 265
-31 93 -34 95 -169 131 -70 18 -428 137 -475 157 -14 6 -79 32 -145 57 -134
52 -136 53 -324 142 -74 35 -139 63 -145 63 -6 -1 -41 -17 -77 -36z m212
-1010 c94 -28 198 -111 246 -195 29 -51 53 -139 53 -192 0 -51 -18 -77 -54
-77 -41 0 -58 23 -63 81 -6 71 -18 103 -63 164 -26 36 -57 61 -101 85 -59 31
-71 34 -149 34 -72 0 -93 -4 -137 -27 -101 -52 -160 -135 -174 -246 -8 -69
-24 -91 -65 -91 -56 0 -69 66 -35 176 41 136 150 246 285 289 59 19 192 18
257 -1z m381 -601 c22 -20 23 -51 1 -75 -15 -17 -44 -18 -514 -18 l-498 0 -15
22 c-20 29 -20 47 1 70 15 17 44 18 511 18 447 0 497 -2 514 -17z m-4 -211
c27 -15 30 -57 5 -84 -15 -17 -44 -18 -510 -18 -480 0 -494 1 -513 20 -35 35
-18 80 35 93 11 3 232 4 490 4 362 -2 475 -5 493 -15z m2 -224 c24 -26 25 -46
4 -76 l-15 -22 -499 0 -499 0 -15 22 c-21 30 -20 50 4 76 l21 22 489 0 489 0
21 -22z"/>
</g>
</svg>
