<svg version="1.1" id="Layer_1" xmlns="http://www.w3.org/2000/svg" xmlns:xlink="http://www.w3.org/1999/xlink" x="0px" y="0px"
	 width="100%" viewBox="0 0 200 200" enable-background="new 0 0 200 200" xml:space="preserve">
<path fill="#FEFEFE" opacity="1.000000" stroke="none" 
	d="
M1.000000,76.000000 
	C1.000000,50.666672 1.000000,25.833345 1.000000,1.000013 
	C67.666649,1.000009 134.333298,1.000009 200.999954,1.000004 
	C200.999969,67.666634 200.999969,134.333267 200.999985,200.999908 
	C134.333389,200.999939 67.666771,200.999939 1.000080,200.999969 
	C1.000000,159.500000 1.000000,118.000000 1.000000,76.000000 
M74.554787,160.208694 
	C74.554787,160.208694 74.878296,160.270889 75.152191,160.826965 
	C75.331902,160.928940 75.511620,161.030899 75.917183,161.768204 
	C77.608559,163.520401 79.299942,165.272583 81.131401,167.502472 
	C81.313705,167.812088 81.583176,167.988739 82.063728,168.569183 
	C82.713028,168.849518 83.362328,169.129837 84.348686,170.039917 
	C86.544296,172.363342 88.739914,174.686783 90.923485,177.693161 
	C92.937874,179.480270 94.952263,181.267380 97.125420,183.543152 
	C97.421661,183.688416 97.717896,183.833679 98.321991,184.635910 
	C99.889328,184.647675 101.960350,185.307938 102.932266,184.553085 
	C106.223091,181.997147 109.124664,178.940033 112.720100,175.855988 
	C112.839989,175.301132 112.959877,174.746292 113.795631,174.178909 
	C124.244972,161.923645 134.694305,149.668396 145.767258,137.108795 
	C147.500320,134.401199 149.233383,131.693588 151.004150,128.997604 
	C151.004150,128.997604 150.983658,128.963715 151.563019,128.626389 
	C154.461182,123.480011 157.359344,118.333633 160.120300,113.089119 
	C160.120300,113.089119 160.206177,113.234306 160.761749,112.828819 
	C162.963028,108.101906 165.164291,103.374992 167.866608,98.117065 
	C170.509293,90.387543 173.151978,82.658012 175.971222,74.840729 
	C175.971222,74.840729 175.873642,74.669373 176.200165,74.416344 
	C176.193588,74.028198 176.187012,73.640045 176.662231,72.588219 
	C176.754272,72.053581 176.846298,71.518951 177.314529,70.365234 
	C177.913727,68.163048 178.512924,65.960861 179.188721,63.477093 
	C177.256180,62.802406 175.733307,62.270744 173.982056,61.863064 
	C173.982056,61.863064 174.223938,61.768616 173.839417,61.244221 
	C171.882614,59.946590 169.925827,58.648956 167.476990,56.845867 
	C164.866531,51.671375 162.293182,46.477638 159.625290,41.332932 
	C158.705505,39.559273 157.931976,37.064266 156.421066,36.380470 
	C153.503906,35.060238 150.109833,34.793797 146.533905,33.732243 
	C146.027039,33.646168 145.520187,33.560089 144.402573,33.104568 
	C143.930786,33.078800 143.459000,33.053036 142.438248,32.571957 
	C130.874573,27.898502 119.037849,23.782116 107.867302,18.306637 
	C102.615318,15.732270 99.190353,15.613735 94.046417,18.415705 
	C85.185486,23.242367 75.602402,26.743265 65.864059,30.621483 
	C65.514824,30.636683 65.227394,30.777765 64.221268,31.024164 
	C58.311268,32.668064 52.434654,34.449799 46.476017,35.892857 
	C43.828793,36.533958 42.940178,37.668880 42.522171,40.458740 
	C40.772751,52.134674 34.420544,59.975544 22.787031,62.557632 
	C24.285738,68.546890 25.763174,74.451134 27.214907,80.985138 
	C27.446709,81.320663 27.678513,81.656189 28.138866,82.330345 
	C28.138866,82.330345 28.103176,82.737312 28.138903,83.233902 
	C28.242161,83.570595 28.450548,83.819145 29.082970,84.582550 
	C29.450514,85.879784 29.818060,87.177017 30.187664,89.063080 
	C30.413214,89.371162 30.638763,89.679245 31.213892,90.628418 
	C32.175106,92.744972 33.136318,94.861519 34.126179,97.709732 
	C39.100353,107.429649 44.074528,117.149574 49.141075,127.324486 
	C49.268505,127.624916 49.481731,127.840485 50.080860,128.266678 
	C50.080860,128.266678 50.120998,128.685898 50.229275,129.241333 
	C50.506092,129.483429 50.782906,129.725525 51.601631,130.342484 
	C53.042141,132.290817 54.482651,134.239166 55.958759,136.636765 
	C56.099319,136.939392 56.335854,137.104660 56.848198,137.825439 
	C61.218075,145.000336 65.560768,152.196701 72.459839,157.485779 
	C72.459839,157.485779 72.467339,157.599045 72.647079,158.084549 
	C73.143654,158.531860 73.640228,158.979172 74.283455,159.848434 
	C74.283455,159.848434 74.691040,160.031204 74.554787,160.208694 
M49.099472,137.151535 
	C49.517269,139.302902 49.935066,141.454285 50.497856,144.352280 
	C51.948551,142.465317 53.591694,141.267914 53.482407,140.260666 
	C53.295620,138.539062 52.010639,136.936615 51.186890,135.284119 
	C50.560268,135.684021 49.933651,136.083923 49.099472,137.151535 
M53.319275,145.720261 
	C53.758190,149.166946 55.753593,149.488754 58.903946,148.367584 
	C57.693722,146.000732 57.700756,142.476730 53.319275,145.720261 
M25.270210,94.802208 
	C25.319546,95.262161 25.368883,95.722107 25.418221,96.182060 
	C25.798719,95.989639 26.179220,95.797226 26.559719,95.604805 
	C26.262066,95.207542 25.964413,94.810272 25.270210,94.802208 
z"/>
<path fill="#303770" opacity="1.000000" stroke="none" 
	d="
M145.143646,137.413147 
	C134.694305,149.668396 124.244972,161.923645 113.435486,173.852631 
	C113.055710,172.025131 113.036072,170.523941 113.273689,169.123901 
	C114.379097,168.588135 115.227242,167.951202 116.075386,167.314285 
	C115.562172,166.902832 115.048965,166.491394 114.535751,166.079941 
	C114.018333,167.047592 113.500908,168.015244 112.648506,169.020630 
	C110.997780,170.085709 109.682022,171.113037 108.196442,172.272964 
	C109.845123,173.848267 111.010063,174.961349 112.174995,176.074448 
	C109.124664,178.940033 106.223091,181.997147 102.932266,184.553085 
	C101.960350,185.307938 99.889328,184.647675 98.401047,184.039673 
	C99.975685,182.445450 101.471260,181.447449 102.966843,180.449448 
	C102.715309,179.970169 102.463768,179.490875 102.212234,179.011597 
	C100.479523,179.011597 98.746819,179.011597 97.147598,178.688354 
	C97.520226,177.243393 97.759354,176.121704 98.241653,174.999985 
	C98.484840,174.999969 98.971169,174.997299 99.276886,175.158844 
	C100.873306,174.839066 102.571808,174.726898 103.392609,173.820175 
	C113.245628,162.935654 123.763405,152.525955 132.506317,140.798508 
	C141.604218,128.594849 148.955322,115.088936 157.228943,102.082092 
	C157.387665,102.011734 157.715698,101.897850 158.081589,101.929077 
	C159.299103,102.310326 160.150711,102.660355 160.949829,103.417961 
	C160.666931,106.961800 160.436554,110.098053 160.206177,113.234306 
	C160.206177,113.234306 160.120300,113.089119 159.826721,113.120758 
	C156.683319,118.422844 153.833481,123.693275 150.983658,128.963715 
	C150.983658,128.963715 151.004150,128.997604 150.634247,129.034637 
	C147.183014,131.008408 144.551544,133.221329 145.143646,137.413147 
z"/>
<path fill="#353871" opacity="1.000000" stroke="none" 
	d="
M34.097534,96.978073 
	C33.136318,94.861519 32.175106,92.744972 31.065865,90.007828 
	C30.673761,89.082909 30.429684,88.778580 30.185604,88.474251 
	C29.818060,87.177017 29.450514,85.879784 28.938309,84.021622 
	C28.563490,83.219566 28.333334,82.978439 28.103176,82.737312 
	C28.103176,82.737312 28.138866,82.330345 28.047089,81.844589 
	C27.717075,81.024353 27.478842,80.689865 27.240608,80.355385 
	C25.763174,74.451134 24.285738,68.546890 22.787031,62.557632 
	C34.420544,59.975544 40.772751,52.134674 42.522171,40.458740 
	C42.940178,37.668880 43.828793,36.533958 46.476017,35.892857 
	C52.434654,34.449799 58.311268,32.668064 64.598969,31.422127 
	C64.438362,32.519001 64.030350,33.629539 63.339970,33.848072 
	C59.660332,35.012856 55.809559,35.698639 52.235043,37.102718 
	C50.860046,37.642818 50.058315,39.642349 48.751858,41.149689 
	C48.331470,41.879742 48.154606,42.437016 47.636356,43.050400 
	C46.430752,44.851784 44.414379,47.106297 44.918465,48.246803 
	C46.426956,51.659794 44.865894,53.583591 42.825516,55.683125 
	C40.148720,58.437523 38.475632,62.342693 33.694721,62.604961 
	C32.761345,62.656166 31.957302,65.065063 31.093605,66.386497 
	C32.057308,66.591728 33.021008,66.796959 33.929871,67.382973 
	C33.919132,69.986450 33.514023,72.335197 34.095398,74.407135 
	C35.570320,79.663544 37.487446,84.795868 38.823761,89.983017 
	C37.616585,89.987915 36.813152,89.987679 35.952312,89.850601 
	C35.807476,89.666000 35.720043,89.618225 35.632610,89.570457 
	C35.751057,89.716774 35.869507,89.863091 35.990112,90.385574 
	C35.989021,92.846306 35.985775,94.930870 35.668297,97.011024 
	C34.935226,96.997101 34.516376,96.987587 34.097534,96.978073 
z"/>
<path fill="#313672" opacity="1.000000" stroke="none" 
	d="
M48.995384,40.976906 
	C50.058315,39.642349 50.860046,37.642818 52.235043,37.102718 
	C55.809559,35.698639 59.660332,35.012856 63.339970,33.848072 
	C64.030350,33.629539 64.438362,32.519001 64.989227,31.432411 
	C65.227394,30.777765 65.514824,30.636683 66.552368,30.764942 
	C68.523232,30.756952 69.900810,30.856264 71.072510,30.412270 
	C77.409714,28.010899 83.695938,25.475019 90.249695,22.987946 
	C90.499641,22.990389 90.999466,22.980122 91.336426,22.934233 
	C93.447617,21.923910 95.221855,20.959478 97.175789,20.322853 
	C99.748558,22.193201 102.117332,23.489742 104.259720,19.995583 
	C104.506744,19.998045 105.000778,20.005230 105.109100,20.222691 
	C105.416588,20.712120 105.677963,20.895380 106.252579,20.994362 
	C106.670944,21.002613 106.838280,21.006430 107.171478,21.252611 
	C107.886589,21.663080 108.435829,21.831182 109.098183,22.217865 
	C109.414169,22.709324 109.677383,22.898085 110.014648,23.404537 
	C111.327301,27.817513 114.666985,25.296080 117.372299,25.993622 
	C119.829559,26.997618 121.918175,27.993380 123.787292,29.098877 
	C123.292908,29.406780 123.100731,29.666222 122.587296,29.990606 
	C117.599388,29.035389 113.015442,28.076500 108.130142,27.146009 
	C107.237640,27.050873 106.646484,26.927336 105.820312,26.564718 
	C103.486084,25.821047 101.006599,24.339094 99.353920,24.982132 
	C92.434258,27.674494 85.762497,31.003984 78.710587,34.099449 
	C77.943710,34.390358 77.466171,34.681870 76.619026,35.004467 
	C71.869003,36.414619 67.488571,37.793682 62.866379,38.865662 
	C58.081532,39.364689 53.538460,40.170799 48.995384,40.976906 
z"/>
<path fill="#363572" opacity="1.000000" stroke="none" 
	d="
M97.998474,175.000000 
	C97.759354,176.121704 97.520226,177.243393 97.134064,178.944275 
	C96.977318,179.694138 96.967613,179.864822 96.655884,179.873047 
	C94.547752,178.810471 92.741638,177.910339 90.935532,177.010223 
	C88.739914,174.686783 86.544296,172.363342 84.104202,169.458313 
	C83.219742,168.595291 82.579773,168.313858 81.939804,168.032425 
	C81.583176,167.988739 81.313705,167.812088 81.065765,166.872375 
	C81.228104,162.463623 78.872139,161.369736 75.691338,161.132874 
	C75.511620,161.030899 75.331902,160.928940 74.988289,160.507690 
	C74.824387,160.188431 74.691040,160.031204 74.691040,160.031204 
	C74.691040,160.031204 74.283455,159.848434 74.162811,159.331482 
	C73.517227,158.409378 72.992279,158.004211 72.467339,157.599045 
	C72.467339,157.599045 72.459839,157.485779 72.568565,157.123611 
	C67.981667,150.322449 63.304474,143.869720 58.543465,137.479431 
	C58.264969,137.105606 57.309044,137.236526 56.668365,137.132553 
	C56.335854,137.104660 56.099319,136.939392 55.971710,136.051300 
	C55.989807,134.983109 55.994961,134.500397 56.375038,134.012115 
	C57.499840,134.010666 58.249722,134.014801 59.221275,134.283310 
	C60.967171,135.879501 62.411316,137.321304 64.041237,138.507904 
	C65.317032,139.436722 66.823036,140.049332 68.231384,140.847809 
	C68.236023,140.893204 68.183212,140.818802 68.128372,141.201843 
	C68.367287,142.682861 68.377823,143.988068 69.003525,144.843155 
	C71.807518,148.675064 74.534462,152.619354 77.796616,156.039078 
	C79.770035,158.107819 82.671211,159.291550 85.093918,160.927658 
	C85.032288,160.982391 85.125824,160.846649 85.089081,161.234406 
	C85.236176,165.437103 87.418663,167.017990 91.266220,167.083115 
	C91.763786,167.378738 91.936096,167.643539 92.005554,168.348663 
	C92.309845,172.430695 94.747177,174.103638 97.998474,175.000000 
z"/>
<path fill="#343672" opacity="1.000000" stroke="none" 
	d="
M146.913467,34.090485 
	C150.109833,34.793797 153.503906,35.060238 156.421066,36.380470 
	C157.931976,37.064266 158.705505,39.559273 159.625290,41.332932 
	C162.293182,46.477638 164.866531,51.671375 167.734711,57.444664 
	C170.069595,59.285179 172.146759,60.526897 174.223938,61.768616 
	C174.223938,61.768616 173.982056,61.863064 174.040100,62.199226 
	C174.075638,63.335270 174.053116,64.135147 173.686005,64.921021 
	C170.679764,63.456535 169.685760,65.157440 168.599579,67.190102 
	C167.510178,66.489143 166.723450,65.854248 165.950882,64.840942 
	C163.578430,62.351463 161.191818,60.240406 158.832184,58.088520 
	C158.859131,58.047695 158.881775,58.142872 158.921143,57.744186 
	C157.208786,54.545017 155.457062,51.744537 153.560303,48.726051 
	C153.542999,48.212677 153.670746,47.917309 153.851929,47.226761 
	C153.315613,45.886681 152.725845,44.941780 152.030945,43.838867 
	C151.925797,43.680855 151.900787,43.302094 151.899689,42.911552 
	C150.266541,41.672493 148.634491,40.823975 147.001831,39.559311 
	C146.941589,37.489059 146.881943,35.834965 146.846710,34.159920 
	C146.871140,34.138973 146.913467,34.090485 146.913467,34.090485 
z"/>
<path fill="#353871" opacity="1.000000" stroke="none" 
	d="
M110.000923,23.002726 
	C109.677383,22.898085 109.414169,22.709324 108.935936,21.971848 
	C108.108925,21.341581 107.557266,21.175913 107.005608,21.010244 
	C106.838280,21.006430 106.670944,21.002613 106.143013,20.778059 
	C105.582893,20.286917 105.322342,20.102886 105.000778,20.005230 
	C105.000778,20.005230 104.506744,19.998045 104.183487,19.632086 
	C101.307922,17.020559 99.025215,17.313805 96.996094,19.995047 
	C95.221855,20.959478 93.447617,21.923910 91.246330,22.770859 
	C90.546104,22.764084 90.272919,22.874794 89.999741,22.985504 
	C83.695938,25.475019 77.409714,28.010899 71.072510,30.412270 
	C69.900810,30.856264 68.523232,30.756952 66.781525,30.854469 
	C75.602402,26.743265 85.185486,23.242367 94.046417,18.415705 
	C99.190353,15.613735 102.615318,15.732270 107.867302,18.306637 
	C119.037849,23.782116 130.874573,27.898502 142.453491,33.075035 
	C139.988586,33.188065 137.457825,32.992363 135.040024,32.362865 
	C131.321548,31.394728 127.680618,30.128752 124.006790,28.989140 
	C121.918175,27.993380 119.829559,26.997618 117.307281,25.636600 
	C114.582718,24.515137 112.291817,23.758930 110.000923,23.002726 
z"/>
<path fill="#434070" opacity="1.000000" stroke="none" 
	d="
M56.000114,134.017685 
	C55.994961,134.500397 55.989807,134.983109 55.953907,135.826660 
	C54.482651,134.239166 53.042141,132.290817 51.302036,129.866943 
	C50.708626,129.156219 50.414814,128.921066 50.120998,128.685898 
	C50.120998,128.685898 50.080860,128.266678 49.922401,127.876678 
	C49.622250,127.168877 49.383835,126.963150 49.048698,126.869492 
	C44.074528,117.149574 39.100353,107.429649 34.111855,97.343903 
	C34.516376,96.987587 34.935226,96.997101 35.913544,97.180161 
	C36.650139,97.910217 36.827267,98.466736 36.998421,99.358856 
	C37.319660,100.466690 37.646873,101.238907 38.119263,102.334435 
	C41.842392,108.438187 45.420345,114.218636 49.035095,120.363937 
	C51.048077,124.489548 53.024261,128.250320 55.105278,132.228149 
	C55.405197,132.714493 55.659580,132.904282 55.976707,133.265472 
	C55.986805,133.683441 55.993458,133.850555 56.000114,134.017685 
z"/>
<path fill="#2D2F75" opacity="1.000000" stroke="none" 
	d="
M168.902283,67.256165 
	C169.685760,65.157440 170.679764,63.456535 173.685837,64.939102 
	C174.030228,64.971191 174.049744,64.996681 174.141068,65.215622 
	C174.419479,65.706726 174.671478,65.889336 175.038666,66.328430 
	C175.398163,67.788765 175.707382,68.903046 175.847473,70.100891 
	C175.796417,70.449715 175.914505,70.714966 176.259033,70.985245 
	C176.485443,70.990288 176.938339,70.984322 176.938324,70.984322 
	C176.846298,71.518951 176.754272,72.053581 176.325958,73.077690 
	C175.951019,73.934563 175.912338,74.301971 175.873642,74.669373 
	C175.873642,74.669373 175.971222,74.840729 175.529022,74.959045 
	C174.044891,77.545090 173.083801,80.051338 171.933136,82.467293 
	C171.140228,84.132095 171.565887,87.301254 168.023483,85.613495 
	C168.006790,83.453918 168.003998,81.728027 168.149048,79.672935 
	C170.312561,76.392075 172.932251,73.526207 169.611435,69.554184 
	C169.349731,68.609680 169.126007,67.932922 168.902283,67.256165 
z"/>
<path fill="#343672" opacity="1.000000" stroke="none" 
	d="
M123.787292,29.098877 
	C127.680618,30.128752 131.321548,31.394728 135.040024,32.362865 
	C137.457825,32.992363 139.988586,33.188065 142.727966,33.302689 
	C143.459000,33.053036 143.930786,33.078800 144.733398,33.426727 
	C145.064209,33.748882 145.130707,34.020473 145.083282,34.391815 
	C144.358658,35.844810 143.681427,36.926468 142.670593,38.003517 
	C141.892212,37.990074 141.447449,37.981232 140.946884,37.631798 
	C139.931381,36.867348 138.971680,36.443485 137.674896,36.010437 
	C136.888382,35.990204 136.438919,35.979160 135.823212,35.730694 
	C135.112946,35.337292 134.568939,35.181313 133.662170,35.012810 
	C131.533279,34.329288 129.767151,33.658291 127.945175,32.644745 
	C126.263992,31.537949 124.638649,30.773705 123.007484,30.005173 
	C123.001663,30.000885 122.991264,29.986935 122.991264,29.986935 
	C123.100731,29.666222 123.292908,29.406780 123.787292,29.098877 
z"/>
<path fill="#414272" opacity="1.000000" stroke="none" 
	d="
M168.037369,86.047188 
	C171.565887,87.301254 171.140228,84.132095 171.933136,82.467293 
	C173.083801,80.051338 174.044891,77.545090 175.440735,75.002922 
	C173.151978,82.658012 170.509293,90.387543 167.502060,97.972702 
	C167.089981,97.549034 167.042465,97.269722 167.003113,96.555107 
	C167.353302,92.762260 167.695328,89.404724 168.037369,86.047188 
z"/>
<path fill="#434070" opacity="1.000000" stroke="none" 
	d="
M56.758282,137.479004 
	C57.309044,137.236526 58.264969,137.105606 58.543465,137.479431 
	C63.304474,143.869720 67.981667,150.322449 72.512955,157.112244 
	C65.560768,152.196701 61.218075,145.000336 56.758282,137.479004 
z"/>
<path fill="#373668" opacity="1.000000" stroke="none" 
	d="
M166.994949,96.990417 
	C167.042465,97.269722 167.089981,97.549034 167.251526,98.238205 
	C165.164291,103.374992 162.963028,108.101906 160.483963,113.031563 
	C160.436554,110.098053 160.666931,106.961800 161.305527,103.374512 
	C163.474152,100.945786 165.234543,98.968102 166.994949,96.990417 
z"/>
<path fill="#373668" opacity="1.000000" stroke="none" 
	d="
M151.273346,128.795044 
	C153.833481,123.693275 156.683319,118.422844 159.895325,113.169830 
	C157.359344,118.333633 154.461182,123.480011 151.273346,128.795044 
z"/>
<path fill="#474871" opacity="1.000000" stroke="none" 
	d="
M176.016602,70.017319 
	C175.707382,68.903046 175.398163,67.788765 174.947815,66.109375 
	C174.618851,65.272591 174.366547,65.090065 174.049744,64.996681 
	C174.049744,64.996681 174.030228,64.971191 174.030396,64.953110 
	C174.053116,64.135147 174.075638,63.335270 174.154297,62.137238 
	C175.733307,62.270744 177.256180,62.802406 179.188721,63.477093 
	C178.512924,65.960861 177.913727,68.163048 177.126434,70.674774 
	C176.938339,70.984322 176.485443,70.990288 176.259094,70.744553 
	C176.032730,70.498825 176.016617,70.017319 176.016602,70.017319 
z"/>
<path fill="#F6F6F7" opacity="1.000000" stroke="none" 
	d="
M49.203251,136.817688 
	C49.933651,136.083923 50.560268,135.684021 51.186890,135.284119 
	C52.010639,136.936615 53.295620,138.539062 53.482407,140.260666 
	C53.591694,141.267914 51.948551,142.465317 50.497856,144.352280 
	C49.935066,141.454285 49.517269,139.302902 49.203251,136.817688 
z"/>
<path fill="#333175" opacity="1.000000" stroke="none" 
	d="
M112.447548,175.965210 
	C111.010063,174.961349 109.845123,173.848267 108.196442,172.272964 
	C109.682022,171.113037 110.997780,170.085709 112.657295,169.029968 
	C113.001060,169.001556 113.016434,169.022736 113.016434,169.022736 
	C113.036072,170.523941 113.055710,172.025131 113.077553,173.858887 
	C112.959877,174.746292 112.839989,175.301132 112.447548,175.965210 
z"/>
<path fill="#F6F6F7" opacity="1.000000" stroke="none" 
	d="
M53.479492,145.393494 
	C57.700756,142.476730 57.693722,146.000732 58.903946,148.367584 
	C55.753593,149.488754 53.758190,149.166946 53.479492,145.393494 
z"/>
<path fill="#343778" opacity="1.000000" stroke="none" 
	d="
M96.957901,180.035507 
	C96.967613,179.864822 96.977318,179.694138 97.000565,179.267532 
	C98.746819,179.011597 100.479523,179.011597 102.212234,179.011597 
	C102.463768,179.490875 102.715309,179.970169 102.966843,180.449448 
	C101.471260,181.447449 99.975685,182.445450 98.247116,183.711212 
	C97.717896,183.833679 97.421661,183.688416 97.057434,182.921417 
	C96.978935,181.544952 96.968414,180.790222 96.957901,180.035507 
z"/>
<path fill="#373668" opacity="1.000000" stroke="none" 
	d="
M145.455444,137.260971 
	C144.551544,133.221329 147.183014,131.008408 150.615387,129.028824 
	C149.233383,131.693588 147.500320,134.401199 145.455444,137.260971 
z"/>
<path fill="#434070" opacity="1.000000" stroke="none" 
	d="
M96.655884,179.873047 
	C96.968414,180.790222 96.978935,181.544952 96.978050,182.677078 
	C94.952263,181.267380 92.937874,179.480270 90.929504,177.351685 
	C92.741638,177.910339 94.547752,178.810471 96.655884,179.873047 
z"/>
<path fill="#434070" opacity="1.000000" stroke="none" 
	d="
M75.804260,161.450531 
	C78.872139,161.369736 81.228104,162.463623 80.995728,166.633530 
	C79.299942,165.272583 77.608559,163.520401 75.804260,161.450531 
z"/>
<path fill="#474871" opacity="1.000000" stroke="none" 
	d="
M174.031677,61.506416 
	C172.146759,60.526897 170.069595,59.285179 167.980713,57.697395 
	C169.925827,58.648956 171.882614,59.946590 174.031677,61.506416 
z"/>
<path fill="#F1F4F8" opacity="1.000000" stroke="none" 
	d="
M25.468485,94.607605 
	C25.964413,94.810272 26.262066,95.207542 26.559719,95.604805 
	C26.179220,95.797226 25.798719,95.989639 25.418221,96.182060 
	C25.368883,95.722107 25.319546,95.262161 25.468485,94.607605 
z"/>
<path fill="#434070" opacity="1.000000" stroke="none" 
	d="
M82.001770,168.300812 
	C82.579773,168.313858 83.219742,168.595291 83.935669,169.143433 
	C83.362328,169.129837 82.713028,168.849518 82.001770,168.300812 
z"/>
<path fill="#434070" opacity="1.000000" stroke="none" 
	d="
M72.557205,157.841797 
	C72.992279,158.004211 73.517227,158.409378 74.089493,159.120514 
	C73.640228,158.979172 73.143654,158.531860 72.557205,157.841797 
z"/>
<path fill="#474871" opacity="1.000000" stroke="none" 
	d="
M176.036896,74.542862 
	C175.912338,74.301971 175.951019,73.934563 176.085068,73.409531 
	C176.187012,73.640045 176.193588,74.028198 176.036896,74.542862 
z"/>
<path fill="#353871" opacity="1.000000" stroke="none" 
	d="
M145.130707,34.020473 
	C145.130707,34.020473 145.064209,33.748882 145.038757,33.611450 
	C145.520187,33.560089 146.027039,33.646168 146.723694,33.911362 
	C146.913467,34.090485 146.871140,34.138973 146.568344,34.104042 
	C145.887268,34.052898 145.508987,34.036686 145.130707,34.020473 
z"/>
<path fill="#F1F4F8" opacity="1.000000" stroke="none" 
	d="
M30.186634,88.768661 
	C30.429684,88.778580 30.673761,89.082909 30.891075,89.687286 
	C30.638763,89.679245 30.413214,89.371162 30.186634,88.768661 
z"/>
<path fill="#F1F4F8" opacity="1.000000" stroke="none" 
	d="
M28.121040,82.985611 
	C28.333334,82.978439 28.563490,83.219566 28.778856,83.720123 
	C28.450548,83.819145 28.242161,83.570595 28.121040,82.985611 
z"/>
<path fill="#F1F4F8" opacity="1.000000" stroke="none" 
	d="
M27.227757,80.670258 
	C27.478842,80.689865 27.717075,81.024353 27.932812,81.675278 
	C27.678513,81.656189 27.446709,81.320663 27.227757,80.670258 
z"/>
<path fill="#434070" opacity="1.000000" stroke="none" 
	d="
M74.622910,160.119949 
	C74.691040,160.031204 74.824387,160.188431 74.851341,160.229660 
	C74.878296,160.270889 74.554787,160.208694 74.622910,160.119949 
z"/>
<path fill="#F6F6F7" opacity="1.000000" stroke="none" 
	d="
M50.175137,128.963623 
	C50.414814,128.921066 50.708626,129.156219 51.031082,129.679504 
	C50.782906,129.725525 50.506092,129.483429 50.175137,128.963623 
z"/>
<path fill="#F6F6F7" opacity="1.000000" stroke="none" 
	d="
M49.094887,127.096985 
	C49.383835,126.963150 49.622250,127.168877 49.772354,127.728943 
	C49.481731,127.840485 49.268505,127.624916 49.094887,127.096985 
z"/>
<path fill="#96BFE2" opacity="1.000000" stroke="none" 
	d="
M168.599579,67.190102 
	C169.126007,67.932922 169.349731,68.609680 169.389008,69.838593 
	C168.192902,73.592758 167.181229,76.794769 166.078888,80.396698 
	C165.928833,81.773155 166.131714,82.862503 165.768005,83.708176 
	C163.148331,89.799103 160.413803,95.840645 157.715698,101.897850 
	C157.715698,101.897850 157.387665,102.011734 157.163101,101.733749 
	C156.240601,100.953102 155.542679,100.450432 154.878540,99.589561 
	C155.111725,98.538795 155.311096,97.846237 155.688461,96.940338 
	C156.010742,96.192940 156.155029,95.658859 156.533295,94.868187 
	C159.301956,87.579445 161.922699,80.575729 164.266190,73.480431 
	C164.571075,72.557327 163.447830,71.162529 162.738937,69.758736 
	C158.979568,65.020515 155.467316,60.509773 151.904648,55.634743 
	C151.189331,53.578281 150.678406,51.802361 149.816376,50.217396 
	C148.947403,48.619682 148.037170,46.374466 146.616333,45.852737 
	C135.156860,41.644863 123.572578,37.776894 111.771286,33.597683 
	C109.629829,32.413551 107.743500,31.436871 105.898148,30.004496 
	C105.977875,28.633801 106.016602,27.718800 106.055328,26.803797 
	C106.646484,26.927336 107.237640,27.050873 108.373871,27.441864 
	C118.959801,31.529875 129.000641,35.350433 139.211975,39.286469 
	C139.382477,39.401943 139.790161,39.467274 140.093689,39.653412 
	C144.231750,40.993729 148.066269,42.147911 151.900787,43.302094 
	C151.900787,43.302094 151.925797,43.680855 152.035492,44.189266 
	C152.696304,45.672432 153.247406,46.647182 153.798508,47.621937 
	C153.670746,47.917309 153.542999,48.212677 153.597519,49.104130 
	C155.480438,52.514435 157.181107,55.328655 158.881775,58.142876 
	C158.881775,58.142872 158.859131,58.047695 158.879929,58.429855 
	C161.246063,60.947792 163.591400,63.083572 165.936737,65.219353 
	C166.723450,65.854248 167.510178,66.489143 168.599579,67.190102 
z"/>
<path fill="#9EC8ED" opacity="1.000000" stroke="none" 
	d="
M154.844742,99.947769 
	C155.542679,100.450432 156.240601,100.953102 157.004379,101.804108 
	C148.955322,115.088936 141.604218,128.594849 132.506317,140.798508 
	C123.763405,152.525955 113.245628,162.935654 103.392609,173.820175 
	C102.571808,174.726898 100.873306,174.839066 99.108627,174.848129 
	C98.406845,173.266724 98.179024,172.157578 98.023254,171.002258 
	C98.095306,170.956085 98.212334,170.831177 98.525146,170.799164 
	C100.057182,170.700821 101.785172,171.131073 102.413177,170.487656 
	C106.534889,166.264908 110.419098,161.810349 114.385231,157.391876 
	C114.389626,157.352295 114.467476,157.369095 114.770386,157.277954 
	C118.710663,152.778778 122.348022,148.370712 126.297546,143.805786 
	C128.896942,140.787292 131.437088,138.089737 133.420776,135.031250 
	C138.114838,127.793861 142.544540,120.385002 147.045990,113.025330 
	C147.010834,113.005196 147.048859,113.076729 147.360168,112.928497 
	C150.062561,108.502762 152.453659,104.225266 154.844742,99.947769 
z"/>
<path fill="#283371" opacity="1.000000" stroke="none" 
	d="
M158.081589,101.929077 
	C160.413803,95.840645 163.148331,89.799103 165.768005,83.708176 
	C166.131714,82.862503 165.928833,81.773155 166.384125,80.397995 
	C167.187073,80.000298 167.594131,80.001221 168.001190,80.002136 
	C168.003998,81.728027 168.006790,83.453918 168.023483,85.613495 
	C167.695328,89.404724 167.353302,92.762260 167.003113,96.555107 
	C165.234543,98.968102 163.474152,100.945786 161.358032,102.966919 
	C160.150711,102.660355 159.299103,102.310326 158.081589,101.929077 
z"/>
<path fill="#284275" opacity="1.000000" stroke="none" 
	d="
M97.951210,171.048447 
	C98.179024,172.157578 98.406845,173.266724 98.802917,174.686584 
	C98.971169,174.997299 98.484840,174.999969 98.241653,174.999985 
	C94.747177,174.103638 92.309845,172.430695 92.314980,168.509552 
	C94.398689,169.215042 96.174950,170.131744 97.951210,171.048447 
z"/>
<path fill="#333175" opacity="1.000000" stroke="none" 
	d="
M112.992271,168.992218 
	C113.500908,168.015244 114.018333,167.047592 114.535751,166.079941 
	C115.048965,166.491394 115.562172,166.902832 116.075386,167.314285 
	C115.227242,167.951202 114.379097,168.588135 113.273689,169.123901 
	C113.016434,169.022736 113.001060,169.001556 112.992271,168.992218 
z"/>
<path fill="#97C2E3" opacity="1.000000" stroke="none" 
	d="
M98.023254,171.002258 
	C96.174950,170.131744 94.398689,169.215042 92.313004,168.137451 
	C91.936096,167.643539 91.763786,167.378738 91.112030,166.791458 
	C88.866898,164.549393 86.996361,162.698013 85.125824,160.846649 
	C85.125824,160.846649 85.032288,160.982391 84.973030,160.614471 
	C79.336922,153.770645 73.760071,147.294724 68.183212,140.818802 
	C68.183212,140.818802 68.236023,140.893204 68.134689,140.523392 
	C62.733360,132.316116 57.433376,124.478661 52.113674,116.462509 
	C52.093960,116.283829 51.862923,116.008354 51.832123,115.718750 
	C51.303349,114.872261 50.805370,114.315384 50.209686,113.818413 
	C50.111980,113.878326 50.331921,113.813736 50.323067,113.469757 
	C49.928947,112.571060 49.543682,112.016335 49.123989,111.124054 
	C47.396591,107.522583 45.703617,104.258652 43.977638,100.641380 
	C42.772869,97.801468 41.601105,95.314896 40.359104,92.524635 
	C39.935078,91.473251 39.581291,90.725571 39.227501,89.977882 
	C37.487446,84.795868 35.570320,79.663544 34.095398,74.407135 
	C33.514023,72.335197 33.919132,69.986450 34.276703,67.309280 
	C42.170822,61.391155 48.334995,55.028976 49.578911,44.935684 
	C51.553776,43.821228 53.291458,42.949108 55.223732,42.314438 
	C56.279282,42.106396 57.140240,41.660908 58.320724,41.069088 
	C60.129551,40.339420 61.618847,39.756084 63.108147,39.172745 
	C67.488571,37.793682 71.869003,36.414619 76.782227,35.233971 
	C77.876663,34.988270 78.438286,34.544155 78.999908,34.100044 
	C85.762497,31.003984 92.434258,27.674494 99.353920,24.982132 
	C101.006599,24.339094 103.486084,25.821047 105.820312,26.564718 
	C106.016602,27.718800 105.977875,28.633801 105.525375,29.876575 
	C102.258598,28.351889 99.477600,27.904318 96.490097,30.705019 
	C86.370117,34.752396 76.619171,38.722141 66.550163,42.734627 
	C65.833649,42.929096 65.435196,43.080822 64.746689,43.183395 
	C64.065102,43.124992 63.673561,43.115738 62.944771,43.099884 
	C62.071663,43.682713 61.535801,44.272141 60.672508,44.909370 
	C58.143478,45.809750 54.327065,46.260181 53.998581,47.579224 
	C51.609825,57.171360 45.013699,63.404587 38.054176,69.531029 
	C37.438015,70.073433 37.137852,71.687424 37.466801,72.482834 
	C41.686619,82.686386 45.624531,93.040062 50.498066,102.929840 
	C54.940502,111.944786 60.436569,120.440506 65.582626,129.509369 
	C70.941902,136.341141 76.186783,142.828644 81.452850,149.398285 
	C81.474052,149.480423 81.557358,149.628220 81.599548,149.939407 
	C86.720734,155.621826 91.799728,160.993057 96.886925,166.536926 
	C96.895126,166.709579 97.100403,166.987686 97.153015,167.282654 
	C97.541191,168.662140 97.876762,169.746658 98.212334,170.831177 
	C98.212334,170.831177 98.095306,170.956085 98.023254,171.002258 
z"/>
<path fill="#2B3375" opacity="1.000000" stroke="none" 
	d="
M51.862923,116.008354 
	C51.862923,116.008354 52.093960,116.283829 52.073143,116.882088 
	C52.037930,118.316780 52.023537,119.153221 51.632713,119.992325 
	C50.503620,119.996361 49.750961,119.997719 48.998299,119.999084 
	C45.420345,114.218636 41.842392,108.438187 38.125286,101.997108 
	C37.658886,100.565407 37.331638,99.794327 37.004395,99.023254 
	C36.827267,98.466736 36.650139,97.910217 36.227768,97.184570 
	C35.985775,94.930870 35.989021,92.846306 35.996162,90.380783 
	C36.000057,89.999832 36.009716,89.987434 36.009716,89.987434 
	C36.813152,89.987679 37.616585,89.987915 38.823761,89.983017 
	C39.581291,90.725571 39.935078,91.473251 40.046608,92.704071 
	C41.206451,95.789719 42.608551,98.392220 44.010647,100.994728 
	C45.703617,104.258652 47.396591,107.522583 49.099838,111.500443 
	C49.517380,112.747490 49.924652,113.280617 50.331921,113.813736 
	C50.331921,113.813736 50.111980,113.878326 50.138657,114.147614 
	C50.731197,114.947388 51.297058,115.477875 51.862923,116.008354 
z"/>
<path fill="#2A3973" opacity="1.000000" stroke="none" 
	d="
M49.341728,45.178024 
	C48.334995,55.028976 42.170822,61.391155 34.331539,66.928497 
	C33.021008,66.796959 32.057308,66.591728 31.093605,66.386497 
	C31.957302,65.065063 32.761345,62.656166 33.694721,62.604961 
	C38.475632,62.342693 40.148720,58.437523 42.825516,55.683125 
	C44.865894,53.583591 46.426956,51.659794 44.918465,48.246803 
	C44.414379,47.106297 46.430752,44.851784 47.681335,43.390919 
	C48.492374,44.176228 48.917053,44.677128 49.341728,45.178024 
z"/>
<path fill="#21346C" opacity="1.000000" stroke="none" 
	d="
M49.578911,44.935684 
	C48.917053,44.677128 48.492374,44.176228 48.022720,43.334808 
	C48.154606,42.437016 48.331470,41.879742 48.751862,41.149685 
	C53.538460,40.170799 58.081532,39.364689 62.866379,38.865662 
	C61.618847,39.756084 60.129551,40.339420 57.994740,41.022633 
	C56.575867,41.440670 55.802502,41.758827 55.029140,42.076988 
	C53.291458,42.949108 51.553776,43.821228 49.578911,44.935684 
z"/>
<path fill="#2B3375" opacity="1.000000" stroke="none" 
	d="
M35.994003,90.004623 
	C35.869507,89.863091 35.751057,89.716774 35.632610,89.570457 
	C35.720043,89.618225 35.807476,89.666000 35.952312,89.850601 
	C36.009716,89.987434 36.000057,89.999832 35.994003,90.004623 
z"/>
<path fill="#263B6F" opacity="1.000000" stroke="none" 
	d="
M139.041489,39.170990 
	C129.000641,35.350433 118.959801,31.529875 108.675224,27.413464 
	C113.015442,28.076500 117.599388,29.035389 122.587296,29.990606 
	C122.991264,29.986935 123.001663,30.000885 123.047447,30.370434 
	C124.729156,31.489084 126.365082,32.238190 128.001007,32.987293 
	C129.767151,33.658291 131.533279,34.329288 133.825089,35.252640 
	C134.896988,35.659370 135.443237,35.813744 135.989471,35.968117 
	C136.438919,35.979160 136.888382,35.990204 137.700470,36.342735 
	C138.389221,37.513149 138.715347,38.342072 139.041489,39.170990 
z"/>
<path fill="#343672" opacity="1.000000" stroke="none" 
	d="
M97.175789,20.322853 
	C99.025215,17.313805 101.307922,17.020559 103.936462,19.629623 
	C102.117332,23.489742 99.748558,22.193201 97.175789,20.322853 
z"/>
<path fill="#343672" opacity="1.000000" stroke="none" 
	d="
M110.014648,23.404537 
	C112.291817,23.758930 114.582718,24.515137 116.938629,25.628365 
	C114.666985,25.296080 111.327301,27.817513 110.014648,23.404537 
z"/>
<path fill="#96BFE2" opacity="1.000000" stroke="none" 
	d="
M78.710587,34.099449 
	C78.438286,34.544155 77.876663,34.988270 77.151825,35.202881 
	C77.466171,34.681870 77.943710,34.390358 78.710587,34.099449 
z"/>
<path fill="#343672" opacity="1.000000" stroke="none" 
	d="
M107.171478,21.252611 
	C107.557266,21.175913 108.108925,21.341581 108.822830,21.753265 
	C108.435829,21.831182 107.886589,21.663080 107.171478,21.252611 
z"/>
<path fill="#343672" opacity="1.000000" stroke="none" 
	d="
M105.109100,20.222691 
	C105.322342,20.102886 105.582893,20.286917 105.891983,20.773626 
	C105.677963,20.895380 105.416588,20.712120 105.109100,20.222691 
z"/>
<path fill="#343672" opacity="1.000000" stroke="none" 
	d="
M90.249695,22.987946 
	C90.272919,22.874794 90.546104,22.764084 90.909378,22.816746 
	C90.999466,22.980122 90.499641,22.990389 90.249695,22.987946 
z"/>
<path fill="#284275" opacity="1.000000" stroke="none" 
	d="
M52.009140,119.989655 
	C52.023537,119.153221 52.037930,118.316780 52.092857,117.060776 
	C57.433376,124.478661 62.733360,132.316116 68.130051,140.477997 
	C66.823036,140.049332 65.317032,139.436722 64.041237,138.507904 
	C62.411316,137.321304 60.967171,135.879501 59.223572,133.903778 
	C58.337097,131.503525 57.670002,129.747177 56.972794,127.662529 
	C55.963593,126.224335 54.984512,125.114449 53.746788,123.790863 
	C52.995140,122.381325 52.502140,121.185493 52.009140,119.989655 
z"/>
<path fill="#284275" opacity="1.000000" stroke="none" 
	d="
M68.128372,141.201843 
	C73.760071,147.294724 79.336922,153.770645 85.034660,160.559753 
	C82.671211,159.291550 79.770035,158.107819 77.796616,156.039078 
	C74.534462,152.619354 71.807518,148.675064 69.003525,144.843155 
	C68.377823,143.988068 68.367287,142.682861 68.128372,141.201843 
z"/>
<path fill="#2D2B74" opacity="1.000000" stroke="none" 
	d="
M51.632713,119.992325 
	C52.502140,121.185493 52.995140,122.381325 53.778160,124.136765 
	C55.046421,125.794533 56.024666,126.892685 57.002907,127.990845 
	C57.670002,129.747177 58.337097,131.503525 59.001896,133.639389 
	C58.249722,134.014801 57.499840,134.010666 56.375038,134.012115 
	C55.993458,133.850555 55.986805,133.683441 55.879673,133.042328 
	C55.585964,132.289871 55.326378,132.104111 55.000443,132.011078 
	C53.024261,128.250320 51.048077,124.489548 49.035095,120.363937 
	C49.750961,119.997719 50.503620,119.996361 51.632713,119.992325 
z"/>
<path fill="#284275" opacity="1.000000" stroke="none" 
	d="
M85.089081,161.234406 
	C86.996361,162.698013 88.866898,164.549393 90.891624,166.692413 
	C87.418663,167.017990 85.236176,165.437103 85.089081,161.234406 
z"/>
<path fill="#283B71" opacity="1.000000" stroke="none" 
	d="
M151.899689,42.911552 
	C148.066269,42.147911 144.231750,40.993729 140.225861,39.350002 
	C140.370560,38.564438 140.686615,38.268414 141.002670,37.972389 
	C141.447449,37.981232 141.892212,37.990074 142.860214,38.269436 
	C144.589767,39.018456 145.796112,39.496960 147.002441,39.975460 
	C148.634491,40.823975 150.266541,41.672493 151.899689,42.911552 
z"/>
<path fill="#22386B" opacity="1.000000" stroke="none" 
	d="
M165.950882,64.840942 
	C163.591400,63.083572 161.246063,60.947792 158.852966,58.470680 
	C161.191818,60.240406 163.578430,62.351463 165.950882,64.840942 
z"/>
<path fill="#22386B" opacity="1.000000" stroke="none" 
	d="
M158.921143,57.744186 
	C157.181107,55.328655 155.480438,52.514435 153.742554,49.322136 
	C155.457062,51.744537 157.208786,54.545017 158.921143,57.744186 
z"/>
<path fill="#313672" opacity="1.000000" stroke="none" 
	d="
M147.001831,39.559311 
	C145.796112,39.496960 144.589767,39.018456 143.193817,38.274040 
	C143.681427,36.926468 144.358658,35.844810 145.083282,34.391815 
	C145.508987,34.036686 145.887268,34.052898 146.543915,34.124989 
	C146.881943,35.834965 146.941589,37.489059 147.001831,39.559311 
z"/>
<path fill="#283B71" opacity="1.000000" stroke="none" 
	d="
M153.851929,47.226761 
	C153.247406,46.647182 152.696304,45.672432 152.140656,44.347275 
	C152.725845,44.941780 153.315613,45.886681 153.851929,47.226761 
z"/>
<path fill="#353871" opacity="1.000000" stroke="none" 
	d="
M36.998421,99.358856 
	C37.331638,99.794327 37.658886,100.565407 37.980106,101.673805 
	C37.646873,101.238907 37.319660,100.466690 36.998421,99.358856 
z"/>
<path fill="#363572" opacity="1.000000" stroke="none" 
	d="
M55.105278,132.228149 
	C55.326378,132.104111 55.585964,132.289871 55.876228,132.791473 
	C55.659580,132.904282 55.405197,132.714493 55.105278,132.228149 
z"/>
<path fill="#20386F" opacity="1.000000" stroke="none" 
	d="
M168.149048,79.672935 
	C167.594131,80.001221 167.187073,80.000298 166.474792,79.998077 
	C167.181229,76.794769 168.192902,73.592758 169.426987,70.106339 
	C172.932251,73.526207 170.312561,76.392075 168.149048,79.672935 
z"/>
<path fill="#343672" opacity="1.000000" stroke="none" 
	d="
M175.847473,70.100891 
	C176.016617,70.017319 176.032730,70.498825 176.032669,70.739517 
	C175.914505,70.714966 175.796417,70.449715 175.847473,70.100891 
z"/>
<path fill="#343672" opacity="1.000000" stroke="none" 
	d="
M174.141068,65.215622 
	C174.366547,65.090065 174.618851,65.272591 174.897522,65.763321 
	C174.671478,65.889336 174.419479,65.706726 174.141068,65.215622 
z"/>
<path fill="#313672" opacity="1.000000" stroke="none" 
	d="
M127.945175,32.644745 
	C126.365082,32.238190 124.729156,31.489084 123.053268,30.374722 
	C124.638649,30.773705 126.263992,31.537949 127.945175,32.644745 
z"/>
<path fill="#313672" opacity="1.000000" stroke="none" 
	d="
M140.946884,37.631798 
	C140.686615,38.268414 140.370560,38.564438 139.922333,39.163864 
	C139.790161,39.467274 139.382477,39.401943 139.211975,39.286469 
	C138.715347,38.342072 138.389221,37.513149 138.037537,36.351929 
	C138.971680,36.443485 139.931381,36.867348 140.946884,37.631798 
z"/>
<path fill="#313672" opacity="1.000000" stroke="none" 
	d="
M135.823212,35.730698 
	C135.443237,35.813744 134.896988,35.659370 134.187836,35.265167 
	C134.568939,35.181313 135.112946,35.337292 135.823212,35.730698 
z"/>
<path fill="#2C2D72" opacity="1.000000" stroke="none" 
	d="
M96.859138,30.627390 
	C99.477600,27.904318 102.258598,28.351889 105.484390,30.332268 
	C107.743500,31.436871 109.629829,32.413551 111.807457,33.968594 
	C115.460335,36.688160 118.580353,39.487465 122.235435,40.829090 
	C129.147751,43.366314 136.442993,44.847954 143.408630,47.260498 
	C145.250610,47.898464 146.457855,50.344791 147.979721,51.938652 
	C149.287674,53.308491 150.628677,54.646793 151.955063,55.999031 
	C155.467316,60.509773 158.979568,65.020515 162.742737,70.162781 
	C161.973206,74.061218 160.850739,77.300499 159.956482,80.601616 
	C158.651382,85.419365 157.510300,90.281548 156.299301,95.124786 
	C156.155029,95.658859 156.010742,96.192940 155.272858,96.904884 
	C154.045181,97.205238 153.012268,97.128830 152.837082,97.480156 
	C150.350876,102.465904 145.886642,106.741936 147.048859,113.076729 
	C147.048859,113.076729 147.010834,113.005196 146.686279,113.042358 
	C143.663925,116.251343 139.758316,119.016281 138.523758,122.681023 
	C136.072906,129.956314 130.229462,134.299545 125.613953,140.014465 
	C124.637154,140.255722 123.778183,140.313660 123.499916,140.745651 
	C121.354431,144.076294 118.611336,147.265320 117.504730,150.935776 
	C116.774384,153.358292 111.794334,153.657700 114.467476,157.369095 
	C114.467476,157.369095 114.389626,157.352295 114.000671,157.274628 
	C109.343292,158.840347 105.074875,160.483719 101.045807,162.034927 
	C101.758369,162.871338 102.746727,164.031448 103.735077,165.191574 
	C102.016586,165.793411 100.308113,166.426926 98.572762,166.975372 
	C98.125359,167.116776 97.593475,166.990829 97.100403,166.987686 
	C97.100403,166.987686 96.895126,166.709579 96.918655,166.142456 
	C92.756851,160.158188 88.611938,154.708298 84.304848,149.389740 
	C83.980995,148.989838 82.500290,149.526779 81.557358,149.628220 
	C81.557358,149.628220 81.474052,149.480423 81.640099,149.023865 
	C80.093140,145.016678 79.274895,139.860474 76.458015,138.290665 
	C72.202721,135.919266 71.483681,133.297272 72.321564,129.165085 
	C69.738876,129.165085 67.603554,129.165085 65.468239,129.165085 
	C60.436569,120.440506 54.940502,111.944786 50.498066,102.929840 
	C45.624531,93.040062 41.686619,82.686386 37.466801,72.482834 
	C37.137852,71.687424 37.438015,70.073433 38.054176,69.531029 
	C45.013699,63.404587 51.609825,57.171360 53.998581,47.579224 
	C54.327065,46.260181 58.143478,45.809750 60.997253,44.948471 
	C62.084972,44.926765 62.520527,44.913769 63.130341,45.144344 
	C63.881985,44.669464 64.459366,43.951008 65.036743,43.232552 
	C65.435196,43.080822 65.833649,42.929096 66.729645,43.024734 
	C67.519501,43.403320 67.876289,43.716831 68.094856,43.639526 
	C77.383568,40.354523 86.677269,37.080719 95.898605,33.614632 
	C96.507095,33.385918 96.552063,31.657982 96.859138,30.627390 
M112.609779,70.740677 
	C112.015633,70.552780 111.421486,70.364891 110.962616,70.204605 
	C110.962616,70.204605 110.824783,70.214539 110.857162,69.441269 
	C107.959618,65.715012 103.801910,64.968918 99.259476,67.731964 
	C98.509315,67.755577 97.759155,67.779182 96.880035,67.177353 
	C92.843475,66.570930 85.306190,70.308830 84.294571,74.642921 
	C83.060928,79.928253 83.308533,85.559319 82.352654,91.314171 
	C82.162872,91.400673 81.973083,91.487167 81.034897,91.728508 
	C80.678909,92.886574 80.322914,94.044632 79.629990,95.868469 
	C79.686600,98.288971 79.743210,100.709465 79.923576,103.452751 
	C80.077744,103.766380 80.231911,104.080002 80.213387,104.707169 
	C80.213387,104.707169 80.014305,105.004646 79.689232,105.175659 
	C79.624161,105.277489 79.480690,105.433517 79.507271,105.471977 
	C79.637993,105.661057 79.813873,105.818924 80.491074,106.346298 
	C80.672295,106.936646 80.853516,107.527000 80.824318,108.738388 
	C80.903206,110.309479 80.982101,111.880562 81.436569,114.250099 
	C91.757401,114.350761 102.078194,114.455948 112.399246,114.522087 
	C112.623657,114.523521 112.850929,114.077629 113.831604,113.627426 
	C116.385529,113.352089 118.939461,113.076744 122.264847,112.837532 
	C122.793694,112.037010 123.322533,111.236481 123.851387,110.435959 
	C122.974007,109.953140 122.096634,109.470322 121.006287,108.572212 
	C121.006287,108.572212 120.952827,108.108574 120.974762,107.404999 
	C120.989296,106.935753 121.003838,106.466499 121.756050,105.972595 
	C122.713654,104.515083 124.388596,103.101128 124.480278,101.591049 
	C124.674118,98.398476 124.040764,95.155685 123.874565,93.334511 
	C122.649590,89.556717 121.820930,86.966003 120.968994,84.382965 
	C119.967361,81.345985 119.135628,78.229317 117.820267,75.333405 
	C117.408951,74.427841 115.669678,74.125450 114.551529,73.450500 
	C114.551529,73.450500 114.588272,73.360321 114.776627,72.621078 
	C114.065567,72.224823 113.354507,71.828575 112.598328,71.296883 
	C112.598328,71.296883 112.691322,71.405197 112.609779,70.740677 
z"/>
<path fill="#284072" opacity="1.000000" stroke="none" 
	d="
M151.904648,55.634743 
	C150.628677,54.646793 149.287674,53.308491 147.979721,51.938652 
	C146.457855,50.344791 145.250610,47.898464 143.408630,47.260498 
	C136.442993,44.847954 129.147751,43.366314 122.235435,40.829090 
	C118.580353,39.487465 115.460335,36.688160 112.062576,34.176041 
	C123.572578,37.776894 135.156860,41.644863 146.616333,45.852737 
	C148.037170,46.374466 148.947403,48.619682 149.816376,50.217396 
	C150.678406,51.802361 151.189331,53.578281 151.904648,55.634743 
z"/>
<path fill="#253A6E" opacity="1.000000" stroke="none" 
	d="
M156.533295,94.868187 
	C157.510300,90.281548 158.651382,85.419365 159.956482,80.601616 
	C160.850739,77.300499 161.973206,74.061218 162.989868,70.390259 
	C163.447830,71.162529 164.571075,72.557327 164.266190,73.480431 
	C161.922699,80.575729 159.301956,87.579445 156.533295,94.868187 
z"/>
<path fill="#253A6E" opacity="1.000000" stroke="none" 
	d="
M147.360168,112.928497 
	C145.886642,106.741936 150.350876,102.465904 152.837082,97.480156 
	C153.012268,97.128830 154.045181,97.205238 155.094864,97.118210 
	C155.311096,97.846237 155.111725,98.538795 154.878540,99.589561 
	C152.453659,104.225266 150.062561,108.502762 147.360168,112.928497 
z"/>
<path fill="#253A6E" opacity="1.000000" stroke="none" 
	d="
M126.000755,140.004379 
	C130.229462,134.299545 136.072906,129.956314 138.523758,122.681023 
	C139.758316,119.016281 143.663925,116.251343 146.721420,113.062492 
	C142.544540,120.385002 138.114838,127.793861 133.420776,135.031250 
	C131.437088,138.089737 128.896942,140.787292 126.178078,143.523621 
	C125.831215,142.267014 125.915985,141.135696 126.000755,140.004379 
z"/>
<path fill="#26366E" opacity="1.000000" stroke="none" 
	d="
M97.153015,167.282654 
	C97.593475,166.990829 98.125359,167.116776 98.572762,166.975372 
	C100.308113,166.426926 102.016586,165.793411 103.735077,165.191574 
	C102.746727,164.031448 101.758369,162.871338 101.045807,162.034927 
	C105.074875,160.483719 109.343292,158.840347 113.996277,157.314209 
	C110.419098,161.810349 106.534889,166.264908 102.413177,170.487656 
	C101.785172,171.131073 100.057182,170.700821 98.525146,170.799164 
	C97.876762,169.746658 97.541191,168.662140 97.153015,167.282654 
z"/>
<path fill="#26366E" opacity="1.000000" stroke="none" 
	d="
M125.613953,140.014465 
	C125.915985,141.135696 125.831215,142.267014 125.865921,143.680496 
	C122.348022,148.370712 118.710663,152.778778 114.770386,157.277954 
	C111.794334,153.657700 116.774384,153.358292 117.504730,150.935776 
	C118.611336,147.265320 121.354431,144.076294 123.499916,140.745651 
	C123.778183,140.313660 124.637154,140.255722 125.613953,140.014465 
z"/>
<path fill="#294175" opacity="1.000000" stroke="none" 
	d="
M96.490097,30.705019 
	C96.552063,31.657982 96.507095,33.385918 95.898605,33.614632 
	C86.677269,37.080719 77.383568,40.354523 68.094856,43.639526 
	C67.876289,43.716831 67.519501,43.403320 67.047707,42.981995 
	C76.619171,38.722141 86.370117,34.752396 96.490097,30.705019 
z"/>
<path fill="#26366E" opacity="1.000000" stroke="none" 
	d="
M65.582626,129.509369 
	C67.603554,129.165085 69.738876,129.165085 72.321564,129.165085 
	C71.483681,133.297272 72.202721,135.919266 76.458015,138.290665 
	C79.274895,139.860474 80.093140,145.016678 81.618896,148.941711 
	C76.186783,142.828644 70.941902,136.341141 65.582626,129.509369 
z"/>
<path fill="#26366E" opacity="1.000000" stroke="none" 
	d="
M81.599548,149.939407 
	C82.500290,149.526779 83.980995,148.989838 84.304848,149.389740 
	C88.611938,154.708298 92.756851,160.158188 96.910461,165.969818 
	C91.799728,160.993057 86.720734,155.621826 81.599548,149.939407 
z"/>
<path fill="#353871" opacity="1.000000" stroke="none" 
	d="
M43.977638,100.641380 
	C42.608551,98.392220 41.206451,95.789719 40.116852,93.007767 
	C41.601105,95.314896 42.772869,97.801468 43.977638,100.641380 
z"/>
<path fill="#294175" opacity="1.000000" stroke="none" 
	d="
M64.746689,43.183399 
	C64.459366,43.951008 63.881985,44.669464 63.172848,44.842564 
	C63.121399,43.900299 63.201710,43.503391 63.282021,43.106483 
	C63.673561,43.115738 64.065102,43.124992 64.746689,43.183399 
z"/>
<path fill="#96BFE2" opacity="1.000000" stroke="none" 
	d="
M55.223732,42.314438 
	C55.802502,41.758827 56.575867,41.440670 57.675209,41.168964 
	C57.140240,41.660908 56.279282,42.106396 55.223732,42.314438 
z"/>
<path fill="#96BFE2" opacity="1.000000" stroke="none" 
	d="
M62.944771,43.099884 
	C63.201710,43.503391 63.121399,43.900299 62.998585,44.598988 
	C62.520527,44.913769 62.084972,44.926765 61.324680,44.900665 
	C61.535801,44.272141 62.071663,43.682713 62.944771,43.099884 
z"/>
<path fill="#284275" opacity="1.000000" stroke="none" 
	d="
M51.832123,115.718750 
	C51.297058,115.477875 50.731197,114.947388 50.236362,114.087708 
	C50.805370,114.315384 51.303349,114.872261 51.832123,115.718750 
z"/>
<path fill="#284275" opacity="1.000000" stroke="none" 
	d="
M50.323067,113.469757 
	C49.924652,113.280617 49.517380,112.747490 49.134262,111.837990 
	C49.543682,112.016335 49.928947,112.571060 50.323067,113.469757 
z"/>
<path fill="#2B3375" opacity="1.000000" stroke="none" 
	d="
M56.972794,127.662529 
	C56.024666,126.892685 55.046421,125.794533 54.036804,124.350471 
	C54.984512,125.114449 55.963593,126.224335 56.972794,127.662529 
z"/>
<path fill="#2E4375" opacity="1.000000" stroke="none" 
	d="
M114.538269,73.546967 
	C115.669678,74.125450 117.408951,74.427841 117.820267,75.333405 
	C119.135628,78.229317 119.967361,81.345985 120.968994,84.382965 
	C121.820930,86.966003 122.649590,89.556717 123.874565,93.334511 
	C124.040764,95.155685 124.674118,98.398476 124.480278,101.591049 
	C124.388596,103.101128 122.713654,104.515083 121.369553,105.704498 
	C120.977676,105.249138 120.972298,105.061882 121.126663,104.526291 
	C123.171669,100.952888 121.326614,99.818695 118.525383,99.791557 
	C106.928452,99.679176 95.327644,99.611565 83.735344,99.858978 
	C82.400841,99.887459 81.110596,101.989388 79.799828,103.129967 
	C79.743210,100.709465 79.686600,98.288971 80.058563,95.640976 
	C80.987373,95.621307 81.487602,95.829117 82.454712,96.091644 
	C86.750145,96.163345 90.578712,96.196327 94.407257,96.193985 
	C102.397537,96.189110 110.389786,96.248848 118.375908,96.058441 
	C119.551735,96.030403 120.698410,94.779793 121.858582,94.094833 
	C120.724052,93.202080 119.712418,91.916611 118.424629,91.513680 
	C116.726967,90.982498 114.812500,91.144218 112.996170,90.563652 
	C113.082367,88.932762 113.163643,87.746262 113.644394,86.693893 
	C117.066063,87.750992 118.711891,86.487671 118.018806,83.516930 
	C117.223602,80.108459 115.729034,76.863152 114.538269,73.546967 
z"/>
<path fill="#98C6E4" opacity="1.000000" stroke="none" 
	d="
M114.544899,73.498734 
	C115.729034,76.863152 117.223602,80.108459 118.018806,83.516930 
	C118.711891,86.487671 117.066063,87.750992 113.585960,86.333771 
	C112.785271,84.209885 112.442497,82.580254 112.058853,80.596016 
	C109.744408,74.916367 105.738815,72.532990 99.647591,73.115616 
	C98.538986,73.342621 97.751297,73.600838 96.608322,73.904602 
	C91.971306,75.608116 90.061363,78.973701 88.982834,83.255882 
	C88.616669,84.709686 86.878578,85.817955 85.767410,87.084122 
	C85.208008,85.415459 83.983727,83.653702 84.202110,82.093933 
	C85.253922,74.581757 90.312019,70.397842 97.008995,67.802795 
	C97.759155,67.779182 98.509315,67.755577 100.024689,67.730774 
	C104.134857,68.557899 107.479820,69.386223 110.824783,70.214539 
	C110.824783,70.214539 110.962616,70.204605 111.038986,70.452705 
	C111.640678,70.935600 112.166000,71.170395 112.691322,71.405197 
	C112.691322,71.405197 112.598328,71.296883 112.707336,71.642899 
	C113.406990,72.446045 113.997627,72.903183 114.588272,73.360321 
	C114.588272,73.360321 114.551529,73.450500 114.544899,73.498734 
z"/>
<path fill="#9CD1ED" opacity="1.000000" stroke="none" 
	d="
M121.493385,112.801407 
	C118.939461,113.076744 116.385529,113.352089 112.983635,113.655701 
	C101.777443,113.606537 91.419212,113.529099 81.060989,113.451653 
	C80.982101,111.880562 80.903206,110.309479 81.395393,108.410034 
	C94.961922,108.090645 107.957375,108.099609 120.952827,108.108574 
	C120.952827,108.108574 121.006287,108.572212 121.155304,109.115570 
	C121.367332,110.706429 121.430359,111.753914 121.493385,112.801407 
z"/>
<path fill="#8EC2E1" opacity="1.000000" stroke="none" 
	d="
M79.861702,103.291359 
	C81.110596,101.989388 82.400841,99.887459 83.735344,99.858978 
	C95.327644,99.611565 106.928452,99.679176 118.525383,99.791557 
	C121.326614,99.818695 123.171669,100.952888 120.661591,104.562607 
	C114.572014,104.978348 109.105713,105.105537 103.642876,105.017532 
	C95.889267,104.892624 88.138222,104.609276 80.386078,104.393631 
	C80.231911,104.080002 80.077744,103.766380 79.861702,103.291359 
z"/>
<path fill="#9ED1ED" opacity="1.000000" stroke="none" 
	d="
M112.991241,91.008041 
	C114.812500,91.144218 116.726967,90.982498 118.424629,91.513680 
	C119.712418,91.916611 120.724052,93.202080 121.858582,94.094833 
	C120.698410,94.779793 119.551735,96.030403 118.375908,96.058441 
	C110.389786,96.248848 102.397537,96.189110 94.407257,96.193985 
	C90.578712,96.196327 86.750145,96.163345 82.451004,95.746506 
	C81.980110,94.886734 81.979805,94.426819 82.450157,93.978058 
	C94.214767,93.989212 105.508720,93.989212 116.802666,93.989212 
	C116.799988,93.671532 116.797318,93.353859 116.794640,93.036179 
	C105.190056,93.036179 93.585464,93.036179 81.945717,92.668625 
	C81.868134,92.058601 81.825714,91.816124 81.783302,91.573654 
	C81.973083,91.487167 82.162872,91.400673 83.013672,91.334000 
	C85.787498,91.237831 87.900307,91.121841 90.475510,91.080307 
	C98.289024,91.105858 105.640137,91.056946 112.991241,91.008041 
z"/>
<path fill="#2E4375" opacity="1.000000" stroke="none" 
	d="
M90.013107,91.005852 
	C87.900307,91.121841 85.787498,91.237831 83.295090,91.197342 
	C83.308533,85.559319 83.060928,79.928253 84.294571,74.642921 
	C85.306190,70.308830 92.843475,66.570930 96.944519,67.490074 
	C90.312019,70.397842 85.253922,74.581757 84.202110,82.093933 
	C83.983727,83.653702 85.208008,85.415459 85.767410,87.084122 
	C86.878578,85.817955 88.616669,84.709686 88.982834,83.255882 
	C90.061363,78.973701 91.971306,75.608116 96.612091,74.287048 
	C96.552727,75.657959 96.431618,77.189232 95.667961,77.645805 
	C90.453773,80.763321 90.173355,85.831726 90.013107,91.005852 
z"/>
<path fill="#19305E" opacity="1.000000" stroke="none" 
	d="
M80.299728,104.550400 
	C88.138222,104.609276 95.889267,104.892624 103.642876,105.017532 
	C109.105713,105.105537 114.572014,104.978348 120.501846,104.910927 
	C120.972298,105.061882 120.977676,105.249138 121.000717,105.716827 
	C121.003838,106.466499 120.989296,106.935753 120.963791,107.756790 
	C107.957375,108.099609 94.961922,108.090645 81.500610,108.099518 
	C80.853516,107.527000 80.672295,106.936646 80.241486,105.921310 
	C79.991905,105.496330 80.014305,105.004646 80.014305,105.004646 
	C80.014305,105.004646 80.213387,104.707169 80.299728,104.550400 
z"/>
<path fill="#1B2A65" opacity="1.000000" stroke="none" 
	d="
M81.248779,113.850876 
	C91.419212,113.529099 101.777443,113.606537 112.606262,113.762192 
	C112.850929,114.077629 112.623657,114.523521 112.399246,114.522087 
	C102.078194,114.455948 91.757401,114.350761 81.248779,113.850876 
z"/>
<path fill="#2E4375" opacity="1.000000" stroke="none" 
	d="
M110.840973,69.827904 
	C107.479820,69.386223 104.134857,68.557899 100.381607,67.608871 
	C103.801910,64.968918 107.959618,65.715012 110.840973,69.827904 
z"/>
<path fill="#2E4375" opacity="1.000000" stroke="none" 
	d="
M121.879120,112.819473 
	C121.430359,111.753914 121.367332,110.706429 121.261780,109.323219 
	C122.096634,109.470322 122.974007,109.953140 123.851379,110.435959 
	C123.322533,111.236481 122.793694,112.037010 121.879120,112.819473 
z"/>
<path fill="#8AB9DE" opacity="1.000000" stroke="none" 
	d="
M81.979492,93.966904 
	C81.979805,94.426819 81.980110,94.886734 81.984131,95.691788 
	C81.487602,95.829117 80.987373,95.621307 80.227028,95.308090 
	C80.322914,94.044632 80.678909,92.886574 81.409103,91.651077 
	C81.825714,91.816124 81.868134,92.058601 81.946419,92.901085 
	C81.982285,93.501099 81.979500,93.966904 81.979492,93.966904 
z"/>
<path fill="#2E4375" opacity="1.000000" stroke="none" 
	d="
M114.682449,72.990700 
	C113.997627,72.903183 113.406990,72.446045 112.729897,71.710617 
	C113.354507,71.828575 114.065567,72.224823 114.682449,72.990700 
z"/>
<path fill="#2E4375" opacity="1.000000" stroke="none" 
	d="
M112.650551,71.072937 
	C112.166000,71.170395 111.640678,70.935600 110.971344,70.438904 
	C111.421486,70.364891 112.015633,70.552780 112.650551,71.072937 
z"/>
<path fill="#2E4375" opacity="1.000000" stroke="none" 
	d="
M79.851768,105.090149 
	C80.014305,105.004646 79.991905,105.496330 79.982857,105.742065 
	C79.813873,105.818924 79.637993,105.661057 79.507271,105.471977 
	C79.480690,105.433517 79.624161,105.277489 79.851768,105.090149 
z"/>
<path fill="#2B2D71" opacity="1.000000" stroke="none" 
	d="
M90.475510,91.080307 
	C90.173355,85.831726 90.453773,80.763321 95.667961,77.645805 
	C96.431618,77.189232 96.552727,75.657959 96.967377,74.241501 
	C97.751297,73.600838 98.538986,73.342621 99.723343,73.448776 
	C104.113243,76.192314 108.106476,78.571472 112.099716,80.950630 
	C112.442497,82.580254 112.785271,84.209885 113.186478,86.199631 
	C113.163643,87.746262 113.082367,88.932762 112.996170,90.563652 
	C105.640137,91.056946 98.289024,91.105858 90.475510,91.080307 
z"/>
<path fill="#2E4375" opacity="1.000000" stroke="none" 
	d="
M112.058853,80.596016 
	C108.106476,78.571472 104.113243,76.192314 100.044250,73.479988 
	C105.738815,72.532990 109.744408,74.916367 112.058853,80.596016 
z"/>
<path fill="#95C9E6" opacity="1.000000" stroke="none" 
	d="
M82.450165,93.978058 
	C81.979500,93.966904 81.982285,93.501099 81.981583,93.268639 
	C93.585464,93.036179 105.190056,93.036179 116.794640,93.036179 
	C116.797318,93.353859 116.799988,93.671532 116.802666,93.989212 
	C105.508720,93.989212 94.214767,93.989212 82.450165,93.978058 
z"/>
</svg>