<svg xmlns="http://www.w3.org/2000/svg" viewBox="0 0 16 16" id="Gitlab--Streamline-Font-Awesome" height="16" width="16">
  <desc>
    Gitlab Streamline Icon: https://streamlinehq.com
  </desc>
<!--! Font Awesome Free 6.5.2 by @fontawesome - https://fontawesome.com License - https://fontawesome.com/license/free (Icons: CC BY 4.0, Fonts: SIL OFL 1.1, Code: MIT License) Copyright 2024 Fonticons, Inc.-->
  <path d="m15.734375 6.39375 -0.021875 -0.05625 -2.178125 -5.680625c-0.04375 -0.1115625 -0.121875 -0.2059375 -0.225 -0.27 -0.075 -0.0484375 -0.159375 -0.07859375 -0.25 -0.0878125 -0.090625 -0.00921875 -0.178125 0.00259375 -0.2625 0.0346875 -0.084375 0.031875 -0.159375 0.083125 -0.221875 0.149375 -0.059375 0.06625 -0.103125 0.1459375 -0.128125 0.2325l-1.46875 4.5H5.025l-1.471875 -4.5c-0.025 -0.0865625 -0.06875 -0.1659375 -0.128125 -0.2321875 -0.0625 -0.06625 -0.1375 -0.1171875 -0.221875 -0.1490625 -0.0825 -0.03203125 -0.1725 -0.04390625 -0.261875 -0.03478125 -0.089375 0.00909375 -0.1753125 0.03884375 -0.25125 0.08728125 -0.10125 0.0640625 -0.1796875 0.1584375 -0.22375 0.27L0.28959375 6.3375l-0.022625 0.05625c-0.31334375 0.81875 -0.35196875 1.71875 -0.11 2.5625 0.24209375 0.840625 0.75146875 1.584375 1.45146875 2.1125l0.0084375 0.00625 0.0184375 0.0125 3.3115625 2.484375 1.64375 1.240625 1 0.75625c0.115625 0.059375 0.259375 0.134375 0.40625 0.134375 0.146875 0 0.290625 -0.075 0.40625 -0.134375l1 -0.75625 1.64375 -1.240625 3.334375 -2.496875 0.009375 -0.009375c0.7 -0.528125 1.209375 -1.26875 1.425 -2.109375 0.26875 -0.84375 0.23125 -1.74375 -0.08125 -2.5625z" fill="#000000" stroke-width="0.0313"></path>
</svg>