<svg xmlns="http://www.w3.org/2000/svg" viewBox="0 0 16 16" id="Square-Gitlab--Streamline-Font-Awesome" height="16" width="16">
  <desc>
    Square Gitlab Streamline Icon: https://streamlinehq.com
  </desc>
<!--! Font Awesome Free 6.5.2 by @fontawesome - https://fontawesome.com License - https://fontawesome.com/license/free (Icons: CC BY 4.0, Fonts: SIL OFL 1.1, Code: MIT License) Copyright 2024 Fonticons, Inc.-->
  <path d="M0.16 2.4v11.200000000000001c0 1.2355 1.0045 2.2399999999999998 2.2399999999999998 2.2399999999999998h11.200000000000001c1.2355 0 2.2399999999999998 -1.0045 2.2399999999999998 -2.2399999999999998V2.4c0 -1.2355 -1.0045 -2.2399999999999998 -2.2399999999999998 -2.2399999999999998H2.4C1.1645 0.16 0.16 1.1645 0.16 2.4Zm11.8125 0.4375 1.561 4.074 0.014 0.041999999999999996c0.196 0.588 0.252 1.232 0.0805 1.8375 -0.17500000000000002 0.602 -0.539 1.134 -1.043 1.5154999999999998l-0.007 0.0035 -2.3939999999999997 1.792 -1.8935 1.4315c-0.017499999999999998 0.007 -0.0385 0.017499999999999998 -0.0595 0.028 -0.06999999999999999 0.034999999999999996 -0.154 0.06999999999999999 -0.2345 0.06999999999999999 -0.105 0 -0.238 -0.063 -0.2905 -0.098l-1.8969999999999998 -1.4315 -2.3765 -1.7814999999999999 -0.014 -0.010499999999999999 -0.007 -0.0035c-0.5005 -0.37799999999999995 -0.8679999999999999 -0.9099999999999999 -1.0395 -1.5154999999999998s-0.147 -1.2494999999999998 0.077 -1.8375l0.017499999999999998 -0.041999999999999996L4.031 2.8375c0.0315 -0.0805 0.08750000000000001 -0.1505 0.1575 -0.196 0.056 -0.034999999999999996 0.119 -0.056 0.182 -0.063 0.0455 -0.0245 0.0735 -0.014 0.119 0.0035 0.020999999999999998 0.007 0.041999999999999996 0.017499999999999998 0.06999999999999999 0.0245 0.034999999999999996 0.014 0.056 0.0315 0.08399999999999999 0.0525 0.020999999999999998 0.014 0.041999999999999996 0.034999999999999996 0.0735 0.0525 0.041999999999999996 0.049 0.077 0.105 0.09449999999999999 0.16799999999999998l1.022 3.2269999999999994H10.134999999999998l1.057 -3.2269999999999994c0.017499999999999998 -0.063 0.049 -0.119 0.091 -0.16799999999999998s0.098 -0.08399999999999999 0.1575 -0.10849999999999999c0.0595 -0.020999999999999998 0.126 -0.0315 0.18899999999999997 -0.0245s0.126 0.028 0.182 0.063c0.06999999999999999 0.0455 0.12949999999999998 0.11549999999999999 0.161 0.196Z" fill="#000000" stroke-width="0.0357"></path>
</svg>