<svg xmlns="http://www.w3.org/2000/svg" xml:space="preserve" style="fill-rule:evenodd;clip-rule:evenodd;stroke-linejoin:round" viewBox="0 0 180 271"><path d="M31.758 46.916C32.498 23.429 24.586 9.582 1.841.435-4.624 23.049 22.066 43.9 31.758 46.916Z" style="fill:#d1d3d4;stroke:#000;stroke-width:4.79px" transform="translate(42.782 3.414)"/><path d="M117.441 86.72c.74-19.286-4.131-27.07-7.787-32.636-3.709-5.192-12.609-13.352-23.544-13.694-10.341-.324-12.828 5.392-22.368 5.737-1.564-17.372 11.547-26.905 11.547-26.905s-3.585-5.067-6.551-6.305c-4.266 3.791-16.008 16.436-13.291 32.708-8.778-1.678-14.974-6.702-24.195-4.888C18.69 43.209 8.335 50.804 2.433 67.47c-5.901 16.667 2.083 36.111 3.819 41.664 1.737 5.558 14.584 29.164 24.653 32.638 10.067 3.475 10.07 1.909 15.452-.173 5.383-2.083 13.54-5.902 25.522-1.561 11.975 4.339 13.537 5.379 21 .519 7.469-4.859 17.188-19.962 19.443-24.303 2.257-4.339 3.473-6.597 4.17-8.853 7.256-3.621.283-3.397.949-20.681Z" style="fill:#d1d3d4;stroke:#000;stroke-width:4.79px" transform="translate(18.782 3.414)"/><path d="M145.932 115.67a18 18 0 0 0 18.064-17.998c.002-18.273.002-46.51.002-64.833a18 18 0 0 0-18-18H131.16a4 4 0 0 1-4-4v-9.43H10.13l.295 138.213a4.001 4.001 0 0 0 1.85 3.365c5.212 3.018 21.921 8.75 57.004 8.75 35.825 0 51.839-7.674 56.424-11.139a3.979 3.979 0 0 0 1.438-3.062c.019-3.825.019-12.688.019-17.924a3.999 3.999 0 0 1 4.083-3.999c4.401.062 9.674.071 14.689.057ZM127.16 35.864c0-1.326.527-2.598 1.464-3.536a5.004 5.004 0 0 1 3.536-1.464h12.738c1.326 0 2.598.527 3.536 1.464a5.004 5.004 0 0 1 1.464 3.536v58.185a5.004 5.004 0 0 1-1.464 3.536 5.004 5.004 0 0 1-3.536 1.464H132.16a5.004 5.004 0 0 1-3.536-1.464 5.004 5.004 0 0 1-1.464-3.536V35.864Z" style="fill:#fff;fill-rule:nonzero;stroke:#000;stroke-width:4.79px" transform="translate(9.782 115.414)"/><path d="M21.667.249v123.986c0 1.431.764 2.753 2.003 3.467 5.061 2.412 19.743 8.169 45.484 8.169 25.912 0 40.158-6.995 44.928-9.878a3.987 3.987 0 0 0 1.827-3.351c.011-16.441.011-122.393.011-122.393H21.667Z" style="fill:#fbb040" transform="translate(9.782 115.414)"/><path d="M35.521.249v112.816" style="fill:none;stroke:#ffdb96;stroke-width:11.96px;stroke-linecap:round;stroke-linejoin:miter" transform="matrix(1 0 0 .84931 9.782 136.452)"/><path d="M94.773 139.692c0-2-1.177-4.388-3.11-5.587a16.734 16.734 0 0 1-6.942-8.3c-25.591.861-48.949-3.633-60.716-6.806a98.218 98.218 0 0 0-9.171-2.13c-7.043-1.397-12.396-7.582-12.396-15.018 0-8.185 6.494-14.836 14.608-15.127 1.565-8.657 9.121-15.229 18.229-15.229 10.242 0 18.544 8.304 18.544 18.545 0 2.155-.389 4.218-1.064 6.144l.055.009c2.287-7.153 8.983-12.336 16.896-12.336 7.862 0 14.522 5.122 16.848 12.208a18.673 18.673 0 0 1-.101-1.947c0-10.652 8.634-19.286 19.284-19.286 8.622 0 15.919 5.659 18.388 13.462l1.681-.438a15.083 15.083 0 0 1 7.432-1.955c8.369 0 15.154 6.785 15.151 15.152 0 7.666-5.691 14.001-13.079 15.012a22.339 22.339 0 0 0-4.891 1.27c-4.391 1.655-8.881 3.027-13.417 4.159a16.66 16.66 0 0 1-1.909 6.231 20.723 20.723 0 0 0-2.38 11.257c-.002.236.007 1.472.007 1.71 0 4.956-4.016 7.972-8.976 7.972a8.971 8.971 0 0 1-8.971-8.972Z" style="fill:#fff;stroke:#000;stroke-width:4.79px;stroke-linecap:round" transform="translate(3.782 1.414)"/></svg>