<?xml version="1.0" standalone="no"?>
<!DOCTYPE svg PUBLIC "-//W3C//DTD SVG 20010904//EN"
 "http://www.w3.org/TR/2001/REC-SVG-20010904/DTD/svg10.dtd">
<svg version="1.0" xmlns="http://www.w3.org/2000/svg"
 width="141.000000pt" height="129.000000pt" viewBox="0 0 141.000000 129.000000"
 preserveAspectRatio="xMidYMid meet">
<metadata>
Created by potrace 1.16, written by Peter Selinger 2001-2019
</metadata>
<g transform="translate(0.000000,129.000000) scale(0.100000,-0.100000)"
fill="#000000" stroke="none">
<path d="M684 1276 c-8 -8 -9 -32 -4 -72 l7 -59 2 48 c1 34 5 47 16 47 11 0
15 -12 16 -42 1 -43 2 -42 9 11 6 41 5 58 -5 68 -17 16 -27 16 -41 -1z m39
-23 c-7 -2 -21 -2 -30 0 -10 3 -4 5 12 5 17 0 24 -2 18 -5z"/>
<path d="M590 1122 c-15 -5 -12 -21 7 -40 12 -12 18 -13 21 -4 2 6 15 12 28
12 34 0 31 -28 -3 -33 l-28 -4 28 -2 c23 -1 27 -5 27 -30 0 -16 -6 -32 -12
-34 -7 -3 14 -5 47 -5 33 0 54 2 48 5 -7 2 -13 17 -13 33 0 24 5 29 28 33 l27
4 -27 2 c-18 0 -28 7 -28 16 0 18 46 21 52 3 3 -9 9 -8 21 4 18 17 22 37 10
39 -28 3 -225 3 -233 1z m158 -19 c-21 -2 -57 -2 -80 0 -24 2 -7 4 37 4 44 0
63 -2 43 -4z m-48 -63 c0 -27 -4 -50 -10 -50 -5 0 -10 23 -10 50 0 28 5 50 10
50 6 0 10 -22 10 -50z m30 0 c0 -27 -4 -50 -10 -50 -5 0 -10 23 -10 50 0 28 5
50 10 50 6 0 10 -22 10 -50z"/>
<path d="M523 1020 c-35 -16 -63 -32 -63 -36 0 -3 9 -19 21 -35 17 -25 19 -32
8 -45 -12 -14 -14 -14 -25 0 -10 14 -13 14 -28 -3 -10 -11 -24 -17 -31 -15
-15 6 -35 -26 -34 -53 0 -10 5 -3 10 16 15 49 23 31 24 -54 2 -63 0 -72 -11
-57 -7 9 -14 28 -15 42 -2 24 -2 24 -6 2 -2 -12 -9 -20 -14 -17 -5 4 -8 -11
-8 -32 2 -29 3 -32 6 -11 3 18 9 25 19 21 7 -3 12 -8 10 -12 -3 -4 4 -12 15
-19 17 -11 19 -9 19 19 0 84 61 179 139 214 23 10 39 20 37 22 -2 3 -23 -5
-46 -17 -23 -12 -45 -19 -48 -15 -4 3 -2 9 4 13 7 4 8 15 3 27 -7 19 -8 18 -8
-4 -1 -20 -3 -21 -16 -11 -22 18 -19 24 22 44 38 18 51 12 54 -24 0 -9 2 -11
5 -3 3 7 0 21 -6 32 -9 17 -8 21 5 21 8 0 14 -3 14 -7 -4 -23 2 -43 13 -43 6
0 8 3 5 7 -4 3 -2 12 4 19 9 11 7 15 -7 21 -16 6 -16 7 2 14 13 5 14 8 4 8 -8
1 -43 -12 -77 -29z m-63 -134 c0 -7 -7 -19 -15 -26 -8 -7 -15 -21 -15 -31 0
-11 -4 -19 -10 -19 -15 0 -12 27 5 60 16 31 35 40 35 16z"/>
<path d="M808 1043 c7 -3 16 -2 19 1 4 3 -2 6 -13 5 -11 0 -14 -3 -6 -6z"/>
<path d="M620 1021 c0 -11 4 -22 9 -25 4 -3 6 6 3 19 -5 30 -12 33 -12 6z"/>
<path d="M756 1025 c-9 -26 -7 -32 5 -12 6 10 9 21 6 23 -2 3 -7 -2 -11 -11z"/>
<path d="M850 1031 c13 -9 13 -11 -1 -11 -9 0 -20 -7 -23 -16 -10 -26 0 -28
25 -3 22 22 23 22 55 4 l33 -18 -17 -29 c-11 -19 -21 -26 -32 -22 -8 4 -26 6
-40 5 -14 -2 -38 -3 -55 -4 -16 -1 -33 -6 -36 -11 -4 -5 -17 -9 -30 -10 -12 0
-24 -7 -27 -15 -3 -8 0 -11 7 -7 6 4 11 2 11 -3 0 -6 -6 -11 -13 -11 -7 0 -20
-9 -29 -19 -15 -18 -14 -19 26 -17 22 0 44 5 48 11 4 5 6 0 5 -13 -1 -20 -6
-22 -51 -20 -44 3 -51 0 -62 -21 -16 -31 -1 -65 26 -58 30 8 44 -9 46 -55 2
-58 2 -58 19 -58 13 0 22 16 54 94 10 24 9 30 -6 42 -17 12 -16 13 5 7 24 -6
29 6 11 24 -9 9 -7 11 8 7 11 -3 26 -18 33 -32 11 -22 14 -24 17 -9 6 22 12
22 29 0 10 -15 12 -8 10 46 -1 46 -6 65 -18 72 -16 9 -14 49 2 49 5 0 26 -20
47 -44 41 -47 63 -101 63 -155 0 -28 2 -30 19 -19 11 7 18 15 15 19 -2 4 3 9
10 12 10 4 16 -3 19 -21 3 -21 4 -18 6 11 0 21 -3 36 -8 32 -5 -3 -12 5 -14
17 -4 22 -4 22 -6 -2 -1 -14 -8 -33 -15 -42 -11 -15 -13 -6 -11 57 1 85 9 103
24 54 5 -19 10 -26 10 -16 1 27 -19 59 -34 53 -7 -2 -21 4 -31 15 -15 17 -18
17 -28 3 -11 -14 -13 -14 -25 0 -11 13 -9 21 8 50 l21 34 -32 20 c-36 22 -95
41 -68 23z m135 -161 c17 -33 20 -60 5 -60 -5 0 -10 8 -10 19 0 10 -7 24 -15
31 -17 14 -20 40 -5 40 5 0 16 -13 25 -30z"/>
<path d="M782 1010 c0 -14 2 -19 5 -12 2 6 2 18 0 25 -3 6 -5 1 -5 -13z"/>
<path d="M532 980 c14 -22 24 -19 15 5 -4 8 -11 15 -17 15 -6 0 -6 -7 2 -20z"/>
<path d="M863 985 c-9 -24 1 -27 15 -5 8 13 8 20 2 20 -6 0 -13 -7 -17 -15z"/>
<path d="M900 978 c0 -9 -6 -19 -12 -21 -10 -4 -10 -6 0 -6 14 -1 28 26 18 36
-3 4 -6 -1 -6 -9z"/>
<path d="M618 973 c7 -3 16 -2 19 1 4 3 -2 6 -13 5 -11 0 -14 -3 -6 -6z"/>
<path d="M778 973 c7 -3 16 -2 19 1 4 3 -2 6 -13 5 -11 0 -14 -3 -6 -6z"/>
<path d="M820 960 c8 -5 20 -10 25 -10 6 0 3 5 -5 10 -8 5 -19 10 -25 10 -5 0
-3 -5 5 -10z"/>
<path d="M635 928 c-4 -14 -8 -18 -12 -10 -2 6 -21 12 -42 12 -33 0 -41 -5
-66 -42 -30 -46 -36 -91 -16 -111 10 -9 12 -9 11 3 -4 27 0 40 11 40 17 0 79
62 79 79 0 11 -4 10 -15 -5 -8 -10 -15 -14 -15 -8 0 20 22 33 41 23 14 -7 26
-5 44 7 30 19 32 34 6 34 -11 0 -22 -10 -26 -22z"/>
<path d="M515 728 c2 -18 10 -46 19 -63 9 -16 16 -38 16 -47 0 -9 5 -20 10
-23 6 -3 10 2 10 12 0 10 7 36 14 58 14 39 13 41 -12 68 -37 38 -61 36 -57 -5z"/>
<path d="M896 722 c-3 -5 1 -9 9 -9 8 0 15 4 15 9 0 4 -4 8 -9 8 -6 0 -12 -4
-15 -8z"/>
<path d="M366 671 c4 -16 3 -21 -5 -17 -16 10 -14 -20 4 -54 14 -27 14 -30 0
-30 -22 0 -19 -13 9 -39 23 -22 24 -24 10 -58 -9 -19 -13 -37 -11 -40 3 -2 10
12 17 31 12 38 17 41 39 27 11 -7 10 -10 -4 -18 -15 -9 -13 -12 14 -23 19 -8
31 -20 31 -31 0 -16 -8 -19 -49 -19 -30 0 -51 5 -54 13 -4 10 -6 9 -6 0 -1 -7
-10 -13 -21 -13 -32 0 -23 -25 15 -43 43 -21 60 -22 25 -2 -23 13 -14 14 98
15 67 0 122 -2 122 -5 0 -2 -21 -11 -47 -19 -27 -8 -40 -15 -30 -15 10 -1 41
9 68 20 49 22 66 49 29 49 -11 0 -20 4 -20 9 0 4 19 5 43 1 23 -5 44 -6 46 -4
2 2 0 4 -6 4 -6 0 -10 16 -9 35 1 19 -3 35 -7 35 -5 0 -7 -14 -5 -31 l5 -31
-42 5 c-22 4 -50 9 -60 12 -15 4 -14 3 3 -6 36 -20 25 -29 -34 -29 -47 0 -55
3 -52 17 2 10 10 18 18 19 44 3 46 4 30 14 -8 5 -23 7 -33 4 -10 -3 -30 -3
-44 1 -24 6 -25 7 -7 20 25 19 38 19 30 0 -3 -9 0 -15 10 -15 8 0 12 4 9 10
-3 5 2 23 11 39 l17 29 36 -19 c85 -44 202 -44 289 0 l39 20 17 -30 c9 -16 14
-34 11 -39 -3 -6 1 -10 9 -10 10 0 13 6 10 15 -8 19 5 19 30 0 18 -13 17 -14
-7 -20 -14 -4 -34 -4 -44 -1 -10 3 -25 1 -33 -4 -16 -10 -14 -11 30 -14 8 -1
16 -9 18 -19 3 -14 -5 -17 -52 -17 -56 0 -74 13 -35 25 40 13 13 13 -49 0 -67
-14 -100 -29 -41 -19 19 3 40 7 47 10 6 2 12 -1 12 -6 0 -6 -9 -10 -20 -10
-37 0 -20 -27 29 -49 27 -11 58 -21 68 -20 10 0 -3 7 -29 15 -27 8 -48 17 -48
19 0 3 55 5 123 5 111 -1 120 -2 97 -15 -35 -20 -18 -19 25 2 38 18 47 43 16
43 -11 0 -22 6 -24 13 -4 10 -6 10 -6 0 -1 -9 -18 -13 -51 -13 -42 0 -50 3
-50 19 0 11 12 23 31 31 27 11 29 14 14 23 -14 8 -15 11 -4 18 22 14 27 11 39
-27 7 -19 14 -33 17 -31 2 3 -2 21 -11 40 -14 34 -13 36 10 58 28 26 31 39 9
39 -14 0 -14 3 0 30 18 34 20 64 4 54 -8 -4 -9 1 -4 17 7 23 7 24 -9 4 -8 -11
-16 -16 -16 -11 0 5 -9 1 -21 -10 -20 -18 -20 -18 -14 11 5 26 4 25 -14 -10
-11 -22 -31 -52 -44 -66 -49 -53 -68 -60 -186 -63 -62 -2 -114 1 -117 5 -3 5
-14 4 -25 -2 -16 -8 -29 -5 -64 15 -45 27 -74 61 -101 118 -15 33 -15 33 -9 3
l6 -29 -21 19 c-18 16 -20 16 -14 2 10 -27 -4 -20 -21 11 -14 24 -15 24 -9 3z
m651 -25 c-4 -10 0 -12 14 -9 24 7 24 -2 -2 -43 -23 -38 -48 -44 -56 -13 -5
18 -7 18 -24 -10 -10 -17 -26 -31 -36 -31 -13 0 -9 8 17 35 18 18 38 33 44 32
6 -1 10 4 8 11 -1 8 2 11 7 8 5 -4 12 3 16 14 3 11 9 20 12 20 3 0 3 -6 0 -14z
m-607 -19 c0 -4 5 -5 10 -2 6 4 9 1 8 -7 -2 -7 2 -12 8 -11 6 1 26 -14 44 -32
26 -27 30 -35 17 -35 -10 0 -26 14 -36 31 -17 28 -19 28 -24 10 -8 -31 -33
-25 -56 13 -27 43 -26 46 4 44 14 -1 25 -6 25 -11z m53 -94 c27 -14 28 -15 11
-28 -13 -9 -25 -10 -44 -3 -29 11 -60 37 -60 50 0 12 55 0 93 -19z m577 19 c0
-13 -32 -39 -60 -50 -19 -7 -31 -6 -44 3 -17 13 -16 14 5 26 45 24 99 35 99
21z m-482 -169 c-43 -2 -113 -2 -155 0 -43 1 -8 3 77 3 85 0 120 -2 78 -3z
m450 0 c-43 -2 -113 -2 -155 0 -43 1 -8 3 77 3 85 0 120 -2 78 -3z"/>
<path d="M785 669 c-4 -6 -5 -12 -2 -15 2 -3 7 2 10 11 7 17 1 20 -8 4z"/>
<path d="M906 661 c-20 -22 -20 -28 -1 -47 12 -13 15 -12 25 5 22 42 5 74 -24
42z"/>
<path d="M520 491 c-6 -12 -7 -21 -1 -21 10 0 24 30 17 37 -2 3 -9 -5 -16 -16z"/>
<path d="M861 500 c-1 -8 4 -22 9 -30 8 -13 11 -13 22 0 7 8 9 11 4 7 -6 -4
-16 3 -23 15 -8 14 -12 17 -12 8z"/>
<path d="M555 491 c-3 -6 -1 -11 4 -11 6 0 11 -7 11 -15 0 -8 5 -15 10 -15 7
0 7 8 -1 23 -16 30 -16 30 -24 18z"/>
<path d="M800 471 c0 -11 4 -22 9 -25 4 -3 6 6 3 19 -5 30 -12 33 -12 6z"/>
<path d="M837 470 c3 -11 7 -20 9 -20 2 0 4 9 4 20 0 11 -4 20 -9 20 -5 0 -7
-9 -4 -20z"/>
<path d="M621 453 c1 -22 2 -23 6 -8 3 11 10 23 17 27 7 5 5 8 -6 8 -13 0 -18
-7 -17 -27z"/>
<path d="M750 461 c0 -26 16 -35 24 -15 10 25 7 34 -9 34 -8 0 -15 -9 -15 -19z"/>
<path d="M700 454 c0 -26 27 -28 33 -2 3 10 1 18 -4 18 -5 0 -9 -6 -9 -12 0
-9 -4 -8 -10 2 -8 12 -10 11 -10 -6z"/>
<path d="M700 360 l-3 -55 -7 45 -7 45 -1 -41 c-1 -25 4 -46 12 -53 21 -17 38
11 33 56 l-4 38 -3 -45 -3 -45 -7 55 -7 55 -3 -55z"/>
<path d="M418 333 c7 -3 16 -2 19 1 4 3 -2 6 -13 5 -11 0 -14 -3 -6 -6z"/>
<path d="M978 333 c7 -3 16 -2 19 1 4 3 -2 6 -13 5 -11 0 -14 -3 -6 -6z"/>
<path d="M463 323 c9 -2 23 -2 30 0 6 3 -1 5 -18 5 -16 0 -22 -2 -12 -5z"/>
<path d="M923 323 c9 -2 23 -2 30 0 6 3 -1 5 -18 5 -16 0 -22 -2 -12 -5z"/>
<path d="M0 112 c0 -90 3 -109 15 -109 12 0 15 19 15 109 0 89 -3 108 -15 108
-12 0 -15 -19 -15 -108z"/>
<path d="M100 186 c0 -18 -3 -68 -7 -111 -5 -58 -3 -76 5 -71 8 4 12 37 12 87
l0 80 59 -64 c33 -35 69 -74 80 -88 l20 -24 1 114 c0 63 -3 111 -7 107 -4 -4
-6 -42 -5 -84 l3 -77 -81 82 -80 82 0 -33z"/>
<path d="M310 210 c0 -5 16 -10 35 -10 l35 0 0 -95 c0 -73 3 -95 14 -95 10 0
12 19 8 95 l-5 95 37 0 c20 0 36 5 36 10 0 6 -33 10 -80 10 -47 0 -80 -4 -80
-10z"/>
<path d="M510 112 l0 -108 55 0 c30 0 55 4 55 8 0 4 -18 8 -40 8 l-40 0 0 45
c0 45 0 45 35 45 19 0 35 4 35 8 0 4 -16 6 -35 4 -35 -4 -35 -4 -35 37 l0 41
40 0 c22 0 40 5 40 10 0 6 -25 10 -55 10 l-55 0 0 -108z"/>
<path d="M670 115 c0 -91 2 -105 16 -105 14 0 16 7 11 45 -4 24 -3 47 2 49 5
3 28 -19 51 -50 29 -38 45 -53 52 -46 7 7 -1 24 -25 54 l-36 43 30 17 c61 35
24 98 -58 98 l-43 0 0 -105z m81 85 c21 -12 25 -50 7 -68 -7 -7 -25 -12 -41
-12 -26 0 -29 3 -23 23 3 12 6 32 6 45 0 24 19 29 51 12z"/>
<path d="M860 112 c0 -90 3 -109 15 -109 11 0 15 12 15 47 0 47 1 47 36 53 49
8 64 23 64 63 0 40 -24 54 -91 54 l-39 0 0 -108z m102 75 c4 -6 8 -18 8 -24 0
-20 -38 -53 -60 -53 -17 0 -20 7 -20 51 l0 52 32 -7 c18 -3 36 -12 40 -19z"/>
<path d="M1053 185 c-33 -33 -35 -39 -30 -81 7 -69 41 -99 113 -99 50 0 58 3
85 33 20 22 29 43 29 67 0 74 -43 115 -121 115 -34 0 -47 -6 -76 -35z m137 7
c26 -21 37 -90 21 -131 -13 -29 -47 -51 -82 -51 -35 0 -79 53 -79 95 0 39 22
90 42 98 28 12 77 6 98 -11z"/>
<path d="M1300 113 l0 -109 55 0 c30 0 55 4 55 8 0 4 -21 8 -46 8 l-46 0 3 97
c2 68 0 98 -9 101 -9 3 -12 -25 -12 -105z"/>
</g>
</svg>
