<svg viewBox="-0.5 -0.5 16 16" fill="none" xmlns="http://www.w3.org/2000/svg" id="Internet--Streamline-Iconoir" height="16" width="16">
  <desc>
    Internet Streamline Icon: https://streamlinehq.com
  </desc>
  <path d="M14.1853125 7.5c0 -3.735625 -3.0283749999999996 -6.764 -6.764 -6.764C3.685625 0.736 0.6573125000000001 3.764375 0.6573125000000001 7.5S3.685625 14.264 7.4213125 14.264" stroke="#000000" stroke-linecap="round" stroke-linejoin="round" stroke-width="1"></path>
  <path d="M8.097687500000001 0.769375s2.0291875 2.6721875 2.0291875 6.7305625000000004" stroke="#000000" stroke-linecap="round" stroke-linejoin="round" stroke-width="1"></path>
  <path d="M6.744875 14.2305625s-2.0291875 -2.67225 -2.0291875 -6.730625S6.744875 0.769375 6.744875 0.769375" stroke="#000000" stroke-linecap="round" stroke-linejoin="round" stroke-width="1"></path>
  <path d="M1.0831875 9.867375000000001h6.338125" stroke="#000000" stroke-linecap="round" stroke-linejoin="round" stroke-width="1"></path>
  <path d="M1.0831875 5.132624999999999h12.67625" stroke="#000000" stroke-linecap="round" stroke-linejoin="round" stroke-width="1"></path>
  <path fill-rule="evenodd" clip-rule="evenodd" d="M14.103375 11.5025c0.33399999999999996 0.2054375 0.3134375 0.7055 -0.0305625 0.7445625l-1.7360624999999998 0.19675 -0.7786875 1.564c-0.15425 0.3099375 -0.6311875 0.15825 -0.7100625 -0.225875l-0.8490625 -4.136875c-0.066625 -0.32468749999999996 0.2251875 -0.529 0.5074375 -0.35531250000000003l3.5970000000000004 2.2127499999999998Z" stroke="#000000" stroke-width="1"></path>
</svg>