<?xml version="1.0" standalone="no"?>
<!DOCTYPE svg PUBLIC "-//W3C//DTD SVG 20010904//EN"
 "http://www.w3.org/TR/2001/REC-SVG-20010904/DTD/svg10.dtd">
<svg version="1.0" xmlns="http://www.w3.org/2000/svg"
 width="400.000000pt" height="400.000000pt" viewBox="0 0 400.000000 400.000000"
 preserveAspectRatio="xMidYMid meet">
<metadata>
Created by potrace 1.16, written by Peter Selinger 2001-2019
</metadata>
<g transform="translate(0.000000,400.000000) scale(0.100000,-0.100000)"
fill="#000000" stroke="none">
<path d="M0 2000 l0 -2000 2000 0 2000 0 0 2000 0 2000 -2000 0 -2000 0 0
-2000z m2166 1766 c-5 -55 -3 -87 4 -91 18 -11 11 -26 -12 -23 -19 2 -24 10
-26 48 -6 75 7 150 25 150 14 0 15 -12 9 -84z m312 28 c24 -16 30 -54 9 -54
-7 0 -18 9 -25 20 -7 11 -23 20 -37 20 -38 0 -32 -32 12 -61 52 -34 61 -53 43
-87 -12 -21 -24 -28 -56 -30 -46 -3 -94 27 -94 59 0 27 25 24 44 -7 13 -18 24
-24 44 -22 44 5 38 33 -12 68 -36 24 -46 37 -46 58 0 16 5 33 12 40 17 17 79
15 106 -4z m-439 -8 c7 -8 11 -38 9 -71 l-3 -57 -49 -4 c-55 -4 -76 7 -76 42
0 26 11 35 53 43 17 4 32 12 35 19 6 20 -27 26 -47 8 -10 -9 -21 -16 -24 -16
-11 0 -8 25 5 38 17 17 83 15 97 -2z m-202 -26 c18 -35 17 -110 -1 -110 -8 0
-16 19 -22 53 -8 46 -12 52 -34 52 -24 0 -25 -3 -26 -58 -2 -100 -29 -90 -40
15 l-7 67 34 4 c63 8 83 3 96 -23z m-447 -25 c0 -8 -7 -15 -15 -15 -8 0 -15 7
-15 15 0 8 7 15 15 15 8 0 15 -7 15 -15z m220 5 c10 -5 24 -26 30 -46 17 -51
-10 -88 -68 -92 -49 -4 -72 22 -72 80 0 56 57 86 110 58z m-181 -96 c25 -65
26 -84 7 -84 -16 0 -61 114 -51 129 12 21 22 10 44 -45z m1248 20 c65 -65 -38
-171 -107 -109 -45 40 -9 135 51 135 19 0 40 -10 56 -26z m-1384 -4 c16 0 18
-5 13 -27 -9 -35 11 -83 35 -83 24 0 25 -26 2 -32 -29 -8 -42 2 -64 43 -11 22
-26 42 -34 46 -18 6 -18 13 -5 49 8 21 14 24 22 16 7 -7 21 -12 31 -12z m1577
-87 c11 -14 19 -31 17 -37 -7 -20 -24 -16 -35 9 -15 32 -47 32 -68 0 -24 -37
-10 -67 29 -63 23 2 32 -1 32 -12 0 -10 -12 -16 -32 -18 -64 -6 -96 67 -52
122 29 36 80 36 109 -1z m-1668 -38 c30 -43 36 -75 15 -75 -8 0 -22 -9 -32
-20 -22 -24 -70 -27 -79 -4 -11 29 -6 44 24 70 30 27 31 44 4 44 -8 0 -20 -11
-26 -25 -6 -14 -16 -24 -22 -22 -20 7 -17 27 8 52 37 37 73 31 108 -20z m1823
14 c10 -15 -1 -23 -20 -15 -9 3 -13 10 -10 16 8 13 22 13 30 -1z m-763 -48
c555 -96 1012 -493 1189 -1033 93 -285 93 -650 -1 -938 -42 -129 -125 -297
-202 -405 -81 -115 -258 -292 -373 -373 -175 -124 -398 -216 -613 -253 -154
-26 -370 -26 -524 0 -553 95 -1012 494 -1189 1033 -93 284 -93 652 0 936 177
539 630 933 1186 1033 142 25 379 25 527 0z m728 -8 c4 -14 -64 -113 -77 -113
-21 0 -15 23 23 78 32 48 47 57 54 35z m-1994 -31 c17 -12 64 -78 64 -90 0
-24 -28 -11 -51 23 -29 42 -44 49 -64 29 -20 -20 -19 -24 10 -64 28 -38 32
-60 11 -60 -20 0 -94 112 -78 118 7 2 25 15 39 28 26 24 49 30 69 16z m2128
-53 c29 -23 35 -69 11 -89 -11 -9 -21 -6 -50 16 -28 21 -39 24 -48 15 -17 -17
4 -45 39 -51 36 -6 38 -24 3 -28 -33 -4 -79 38 -79 73 0 31 49 85 78 85 11 0
31 -9 46 -21z m-2299 -79 c-5 -24 -1 -37 24 -67 34 -41 38 -53 18 -53 -14 0
-97 80 -97 94 0 11 43 56 53 56 5 0 6 -13 2 -30z m2452 -46 c2 -30 -1 -34 -16
-29 -26 8 -65 -27 -66 -61 -2 -37 -22 -42 -37 -10 -10 24 -8 30 20 59 18 18
32 43 32 54 0 16 7 23 28 25 35 4 36 3 39 -38z m-2539 -70 l23 -16 -31 -34
c-37 -43 -38 -56 -3 -52 22 2 29 9 33 33 6 36 24 40 28 5 4 -35 -31 -70 -70
-70 -71 0 -106 87 -52 129 32 25 43 26 72 5z m2583 -60 l-22 -47 33 8 c18 4
44 10 57 12 17 4 22 2 19 -8 -6 -19 -146 -71 -183 -67 -40 4 -49 38 -9 35 25
-2 33 6 68 66 27 47 42 65 50 57 7 -7 3 -24 -13 -56z m-2741 -83 c0 -28 49
-63 77 -56 25 6 32 -12 11 -33 -17 -17 -31 -15 -73 14 -21 14 -44 23 -52 20
-8 -4 -17 4 -23 20 -15 37 -13 42 18 47 15 2 30 5 35 6 4 0 7 -8 7 -18z m2954
-132 c67 -52 -5 -164 -82 -127 -52 25 -55 105 -4 132 37 21 55 20 86 -5z
m-2983 -16 c27 -14 49 -32 49 -40 0 -18 -14 -16 -60 7 -47 24 -66 25 -74 5 -9
-24 1 -38 44 -63 40 -22 48 -36 31 -47 -8 -4 -101 43 -120 61 -4 4 27 73 42
92 14 18 34 15 88 -15z m3137 -146 c22 -17 14 -38 -12 -31 -18 4 -25 1 -29
-17 -5 -19 -8 -20 -21 -9 -13 10 -25 9 -65 -9 -59 -25 -61 -25 -61 -6 0 8 20
25 45 37 25 12 47 30 50 39 5 14 13 16 43 12 20 -3 43 -10 50 -16z m-3273 -26
c80 -38 97 -52 76 -66 -12 -7 -181 70 -181 83 0 8 10 22 16 22 2 0 42 -18 89
-39z m-107 -490 c7 -48 -53 -70 -81 -30 -19 26 -11 58 17 69 27 10 60 -10 64
-39z m3473 12 c16 -44 -46 -84 -79 -51 -19 19 -14 55 9 72 26 18 59 8 70 -21z
m-3377 -460 c10 -62 7 -95 -6 -91 -7 3 -14 13 -16 24 -9 58 -13 65 -35 62 -18
-2 -23 -10 -25 -45 -4 -49 -19 -57 -28 -15 -11 50 -13 52 -53 52 -42 0 -64 16
-37 26 21 8 112 21 157 23 35 1 37 -1 43 -36z m3296 22 c0 -3 -7 -16 -16 -29
-10 -16 -12 -26 -5 -31 14 -8 31 2 31 19 0 21 37 48 62 44 43 -6 35 -118 -8
-118 -8 0 -14 7 -14 15 0 8 4 15 9 15 15 0 24 41 13 52 -7 7 -19 -3 -36 -31
-27 -41 -52 -51 -74 -29 -25 25 -7 98 23 98 8 0 15 -2 15 -5z m-40 -174 c0
-25 17 -38 63 -46 39 -8 55 -21 41 -35 -9 -8 -111 11 -133 25 -10 5 -6 46 6
68 8 14 23 7 23 -12z m-3296 -26 c57 -58 5 -147 -76 -130 -57 13 -71 105 -21
134 27 15 79 13 97 -4z m3300 -145 c0 -14 -4 -38 -9 -53 -7 -26 -6 -28 16 -25
20 2 24 9 25 38 2 52 3 54 19 40 19 -16 19 -60 -1 -88 -38 -54 -155 -7 -139
56 10 40 35 63 64 60 21 -2 26 -8 25 -28z m-3234 -59 c0 -11 5 -23 10 -26 6
-3 10 -10 10 -16 0 -14 -22 -11 -41 7 -17 15 -21 15 -59 0 -51 -20 -62 -20
-58 0 3 18 79 53 116 53 15 1 22 -5 22 -18z m3180 -126 c28 -14 50 -29 50 -34
0 -18 -14 -18 -58 0 -53 23 -72 19 -72 -14 0 -17 11 -28 45 -45 44 -21 54 -35
35 -47 -11 -7 -130 52 -130 65 0 5 5 12 10 15 6 3 10 14 10 23 0 24 28 62 46
62 8 0 37 -11 64 -25z m-3125 -10 c30 -30 32 -68 4 -96 -24 -24 -40 -16 -59
31 -13 33 -34 39 -44 14 -3 -9 4 -24 19 -38 29 -27 31 -36 8 -36 -30 0 -53 31
-53 72 0 33 5 41 33 58 42 26 63 25 92 -5z m2925 -130 c0 -8 -7 -15 -15 -15
-8 0 -15 7 -15 15 0 8 7 15 15 15 8 0 15 -7 15 -15z m-2833 -32 c3 -10 15 -28
26 -40 28 -31 16 -63 -36 -95 -24 -16 -49 -28 -56 -28 -24 0 -9 26 29 50 27
16 40 32 40 46 0 34 -28 37 -76 9 -41 -24 -72 -26 -58 -4 7 12 106 79 117 79
4 0 10 -8 14 -17z m2928 -18 c54 -34 69 -55 40 -55 -23 0 -115 60 -115 76 0
22 16 17 75 -21z m-52 -108 c33 -26 49 -57 29 -57 -4 0 -27 14 -50 31 -23 17
-49 28 -57 25 -15 -5 -22 -56 -7 -56 18 -1 63 -52 58 -66 -5 -13 -14 -10 -50
17 -26 18 -51 29 -60 26 -27 -11 -18 -45 19 -74 34 -27 46 -53 24 -53 -15 0
-109 69 -109 80 0 17 46 79 62 85 10 4 21 17 24 31 8 30 41 55 63 47 9 -4 33
-19 54 -36z m-2739 -68 c29 -34 30 -38 17 -58 -10 -15 -32 -6 -30 12 3 26 -2
37 -17 37 -12 0 -15 -6 -9 -22 16 -53 16 -66 0 -81 -22 -22 -28 -22 -65 9 -23
20 -30 34 -28 53 4 35 22 32 28 -4 3 -18 12 -31 23 -33 19 -4 22 14 7 53 -12
32 2 65 29 65 11 0 31 -14 45 -31z m146 -85 c0 -17 -22 -14 -28 4 -2 7 3 12
12 12 9 0 16 -7 16 -16z m-42 -40 c-4 -24 -94 -97 -108 -89 -8 5 4 24 36 56
49 49 78 63 72 33z m2424 -41 c21 -20 38 -41 38 -46 0 -5 -14 -24 -32 -43 -37
-39 -72 -44 -89 -13 -9 17 -6 27 15 57 16 22 22 40 17 45 -16 16 -41 -1 -41
-28 0 -16 -6 -25 -15 -25 -22 0 -18 40 7 67 30 32 56 29 100 -14z m-2305 -55
c26 -24 31 -68 8 -68 -8 0 -15 8 -15 19 0 46 -55 53 -79 10 -20 -36 -9 -59 29
-59 20 0 30 -5 30 -15 0 -22 -52 -19 -78 5 -28 26 -28 69 -1 104 26 33 73 35
106 4z m2123 -70 c0 -21 7 -29 36 -38 42 -14 40 -36 -4 -32 -28 3 -32 0 -32
-21 0 -14 -7 -30 -15 -37 -13 -11 -15 -8 -15 21 0 42 -8 55 -43 68 -38 15 -34
31 8 31 30 0 35 3 35 23 0 13 3 27 7 30 10 11 23 -14 23 -45z m-180 -21 c0 -7
-16 -21 -35 -31 -36 -20 -41 -31 -25 -56 8 -12 14 -12 46 3 51 25 67 6 20 -23
-40 -24 -42 -28 -23 -54 13 -18 15 -17 54 2 38 20 53 20 53 1 0 -9 -88 -59
-105 -59 -11 0 -105 148 -105 165 0 8 93 65 108 65 6 0 12 -6 12 -13z m-1652
-37 c32 -20 57 -63 46 -81 -10 -16 -34 -9 -34 10 0 28 -27 51 -60 51 -37 0
-70 -41 -70 -86 0 -42 26 -58 81 -49 45 8 52 -6 14 -31 -32 -21 -69 -12 -106
26 -35 34 -38 81 -10 124 38 57 85 69 139 36z m196 -160 c41 -39 5 -130 -51
-130 -61 0 -92 48 -68 106 23 54 76 65 119 24z m1210 -1 c-15 -17 -15 -24 -3
-66 14 -52 14 -56 -1 -61 -5 -2 -18 16 -29 40 -36 84 -36 86 1 101 41 17 55
11 32 -14z m-140 -50 c38 -30 33 -47 -19 -60 -34 -9 -45 -16 -43 -28 5 -25 45
-26 60 -2 7 12 18 21 25 21 22 0 14 -28 -13 -49 -49 -38 -97 -22 -115 38 -13
44 -1 77 34 91 33 13 42 12 71 -11z m-859 -10 c5 -5 23 -9 41 -9 51 0 64 -9
64 -45 0 -52 -12 -96 -27 -102 -22 -9 -24 1 -13 52 8 35 8 51 -1 61 -24 29
-53 4 -63 -55 -4 -28 -11 -41 -22 -41 -14 0 -15 9 -9 60 6 50 4 61 -9 66 -24
9 -42 -11 -55 -61 -7 -28 -17 -45 -26 -45 -17 0 -18 9 -4 70 16 72 14 70 66
64 26 -4 52 -11 58 -15z m654 0 c18 -15 21 -23 13 -31 -19 -19 -14 -66 8 -88
25 -25 25 -40 1 -40 -23 0 -51 36 -51 65 0 11 -7 30 -15 42 -11 16 -13 28 -5
47 11 31 17 32 49 5z m-343 -50 c20 -22 22 -75 5 -108 -9 -17 -21 -21 -56 -21
-41 0 -45 -2 -45 -25 0 -16 -6 -25 -15 -25 -12 0 -15 15 -15 78 0 114 2 118
60 120 36 1 52 -4 66 -19z m222 -59 c3 -71 2 -72 -20 -67 -13 3 -32 2 -43 -2
-24 -10 -52 -3 -58 13 -3 7 -8 39 -12 70 -7 53 -6 58 11 54 15 -2 20 -14 24
-53 5 -45 7 -50 32 -53 22 -3 29 2 34 22 3 14 3 37 0 51 -7 29 0 48 17 42 7
-2 13 -33 15 -77z"/>
<path d="M1967 3713 c-15 -15 -6 -33 17 -33 23 0 41 22 29 34 -8 8 -38 8 -46
-1z"/>
<path d="M1536 3704 c-10 -27 -7 -43 14 -64 39 -39 77 9 50 61 -13 23 -55 25
-64 3z"/>
<path d="M2596 3638 c-22 -31 -20 -55 5 -68 30 -17 61 13 57 54 -4 40 -39 48
-62 14z"/>
<path d="M1146 3491 c-19 -21 -14 -41 9 -41 22 0 37 36 21 49 -10 8 -17 6 -30
-8z"/>
<path d="M1810 3490 c-180 -25 -330 -73 -500 -161 -139 -72 -246 -150 -364
-266 -125 -125 -206 -236 -286 -398 -115 -230 -154 -405 -153 -685 0 -195 10
-263 69 -439 36 -108 138 -314 205 -412 50 -74 147 -179 165 -179 8 0 14 -6
14 -14 0 -18 83 -91 190 -167 158 -113 350 -194 570 -240 83 -17 140 -22 270
-22 180 -1 292 14 445 58 95 28 278 110 330 149 16 12 37 25 45 28 40 15 187
138 274 229 198 208 328 453 388 732 29 134 31 420 4 567 -109 597 -574 1072
-1174 1201 -111 23 -383 34 -492 19z m100 -163 c0 -36 -4 -56 -10 -52 -5 3
-10 36 -10 73 0 47 3 63 10 52 5 -8 10 -41 10 -73z m60 12 c0 -44 -4 -68 -10
-64 -5 3 -10 35 -10 71 0 36 4 64 10 64 6 0 10 -30 10 -71z m60 0 c0 -44 -4
-68 -10 -64 -17 10 -11 135 6 135 2 0 4 -32 4 -71z m-186 24 c9 -56 7 -109 -3
-97 -12 13 -24 134 -13 134 5 0 12 -17 16 -37z m253 -24 c-3 -33 -8 -63 -11
-66 -13 -14 -17 8 -10 66 9 81 29 81 21 0z m58 -26 c-3 -23 -11 -43 -17 -43
-10 0 -7 31 9 105 7 28 7 28 11 6 2 -13 1 -44 -3 -68z m-369 4 c8 -69 -10 -80
-20 -11 -9 67 -8 90 4 78 5 -5 12 -35 16 -67z m-52 -40 c5 -22 3 -28 -6 -25
-14 5 -38 107 -29 123 5 9 17 -25 35 -98z m481 27 c-3 -24 -11 -44 -17 -44 -5
0 -8 10 -5 23 3 12 9 40 13 62 10 52 18 17 9 -41z m-552 -4 c20 -70 20 -70 7
-70 -8 0 -16 22 -36 103 -13 54 13 25 29 -33z m612 1 c-4 -28 -11 -51 -17 -51
-6 0 -7 11 -4 26 4 15 10 39 13 56 9 47 16 24 8 -31z m-672 -14 c20 -62 20
-67 7 -67 -5 0 -16 23 -25 52 -17 59 -18 68 -7 68 5 0 16 -24 25 -53z m732 6
c-6 -34 -25 -70 -25 -49 0 15 23 86 28 86 2 0 1 -17 -3 -37z m-789 -36 c18
-54 18 -55 8 -59 -7 -3 -44 90 -44 110 0 27 19 0 36 -51z m844 -3 c-17 -50
-24 -35 -9 16 7 24 15 38 17 32 2 -7 -2 -28 -8 -48z m-905 -10 c27 -61 30 -74
16 -74 -9 0 -51 95 -51 116 0 26 10 14 35 -42z m965 1 c-7 -20 -14 -34 -17
-31 -3 2 0 21 7 41 7 20 14 34 17 31 3 -2 0 -21 -7 -41z m-1025 -26 c15 -28
24 -56 22 -62 -4 -12 -57 84 -57 103 0 21 10 9 35 -41z m1080 -3 c-9 -21 -18
-36 -21 -33 -3 2 3 24 12 48 10 23 19 38 21 33 2 -6 -4 -27 -12 -48z m-1136
-21 c32 -56 39 -81 21 -70 -12 7 -60 99 -60 115 0 19 8 10 39 -45z m1192 -2
c-11 -21 -20 -32 -21 -25 0 17 30 75 36 69 3 -3 -4 -22 -15 -44z m59 -23 c-12
-23 -24 -40 -26 -37 -3 3 4 24 16 47 12 23 24 40 26 37 3 -3 -4 -24 -16 -47z
m-1299 -18 c36 -61 21 -71 -16 -11 -34 53 -41 73 -26 68 7 -3 26 -28 42 -57z
m-37 -54 c9 -15 12 -29 7 -32 -10 -7 -71 83 -71 105 0 15 37 -27 64 -73z
m1386 41 c-12 -23 -24 -38 -27 -35 -5 5 35 76 43 76 2 0 -5 -18 -16 -41z
m-595 -9 c0 -8 -8 -16 -17 -18 -13 -2 -18 3 -18 18 0 15 5 20 18 18 9 -2 17
-10 17 -18z m745 7 c0 -8 -12 -24 -27 -38 -14 -13 -23 -19 -20 -13 4 6 11 23
16 38 11 27 31 36 31 13z m-1607 -47 c39 -52 43 -60 28 -60 -9 0 -81 92 -81
104 0 17 19 1 53 -44z m1500 5 c-3 -9 -8 -14 -10 -11 -3 3 -2 9 2 15 9 16 15
13 8 -4z m-1549 -42 c36 -46 43 -63 28 -63 -8 0 -82 93 -82 104 0 17 21 1 54
-41z m1606 13 c0 -2 -8 -10 -17 -17 -16 -13 -17 -12 -4 4 13 16 21 21 21 13z
m-1656 -50 c51 -63 44 -81 -9 -21 -25 27 -45 53 -45 57 0 19 20 5 54 -36z
m1016 19 c17 -20 4 -35 -30 -35 -32 0 -45 13 -36 35 7 19 50 19 66 0z m688 -5
c-7 -11 -17 -20 -22 -20 -5 0 -1 9 9 20 10 11 20 20 22 20 2 0 -2 -9 -9 -20z
m-1749 -55 c41 -45 52 -69 28 -59 -14 5 -87 88 -87 98 0 16 22 2 59 -39z m341
20 c18 -21 5 -45 -25 -45 -40 0 -34 54 6 59 4 1 12 -6 19 -14z m1460 1 c0 -2
-8 -10 -17 -17 -16 -13 -17 -12 -4 4 13 16 21 21 21 13z m-1842 -70 c26 -25
43 -48 39 -52 -4 -5 -31 15 -60 44 -63 63 -45 70 21 8z m-40 -51 c26 -24 41
-45 34 -45 -7 0 -34 20 -60 45 -26 24 -41 45 -34 45 7 0 34 -20 60 -45z m1972
41 c0 -2 -8 -10 -17 -17 -16 -13 -17 -12 -4 4 13 16 21 21 21 13z m38 -58
c-19 -28 -38 -35 -38 -14 0 9 10 21 23 26 31 12 31 12 15 -12z m-2057 -24 c43
-31 61 -54 43 -54 -10 0 -103 74 -104 83 0 13 12 7 61 -29z m1164 -31 c4 -15
2 -23 -5 -23 -7 0 -9 -8 -5 -20 5 -14 2 -20 -10 -20 -10 0 -15 7 -13 18 1 9 0
22 -4 27 -3 6 -2 21 3 34 10 26 22 20 34 -16z m-1202 -18 c66 -49 59 -65 -8
-18 -50 35 -67 53 -47 53 4 0 28 -16 55 -35z m2167 -20 c-7 -8 -18 -15 -24
-15 -6 0 -2 7 8 15 25 19 32 19 16 0z m-2191 -40 c23 -14 41 -30 41 -36 0 -12
-48 15 -88 49 -33 29 -8 22 47 -13z m1858 19 c9 -23 -13 -40 -32 -24 -8 7 -15
19 -15 26 0 19 39 18 47 -2z m-684 -44 c3 -11 17 -24 31 -30 35 -13 33 -41 -4
-62 -17 -9 -30 -24 -30 -33 0 -24 -36 -18 -54 10 -9 14 -23 25 -31 25 -7 0
-17 5 -20 10 -10 16 5 50 20 50 8 0 22 11 31 25 20 30 50 33 57 5z m-1217 -21
c30 -17 54 -35 54 -40 0 -12 -95 38 -111 58 -18 21 -1 16 57 -18z m719 21 c8
-12 -26 -59 -42 -60 -7 0 -13 7 -13 15 0 8 7 15 15 15 8 0 15 9 15 20 0 21 15
27 25 10z m1595 -25 c0 -2 -10 -9 -22 -15 -22 -11 -22 -10 -4 4 21 17 26 19
26 11z m-1370 -20 c0 -9 -9 -15 -25 -15 -16 0 -25 6 -25 15 0 9 9 15 25 15 16
0 25 -6 25 -15z m-400 -11 c0 -8 -4 -12 -10 -9 -5 3 -10 10 -10 16 0 5 5 9 10
9 6 0 10 -7 10 -16z m-570 -19 c28 -14 50 -30 50 -35 0 -6 -2 -10 -5 -10 -12
0 -104 50 -110 60 -10 17 13 11 65 -15z m540 -11 c0 -16 -16 -19 -25 -4 -8 13
4 32 16 25 5 -4 9 -13 9 -21z m1144 -5 c-6 -11 -35 -12 -59 -2 -14 5 -12 8 11
18 29 12 60 2 48 -16z m671 1 c-3 -5 -12 -10 -18 -10 -7 0 -6 4 3 10 19 12 23
12 15 0z m-2372 -47 c29 -14 46 -28 40 -30 -13 -5 -123 42 -123 51 0 13 34 4
83 -21z m1045 -11 c3 -21 1 -22 -17 -12 -26 13 -28 43 -3 38 9 -2 18 -14 20
-26z m842 9 c0 -10 -9 -21 -20 -24 -21 -5 -24 1 -14 27 9 22 34 20 34 -3z
m-185 -1 c-3 -5 -18 -9 -33 -9 l-27 1 30 8 c17 4 31 8 33 9 2 0 0 -3 -3 -9z
m714 6 c-2 -2 -15 -9 -29 -15 -24 -11 -24 -11 -6 3 16 13 49 24 35 12z m-1176
-143 c7 -11 16 -6 44 26 19 23 44 46 56 52 14 8 9 -2 -15 -28 -21 -21 -38 -47
-38 -58 0 -16 6 -13 38 16 62 58 91 78 54 37 -25 -26 -32 -41 -27 -57 5 -16 0
-24 -20 -33 -21 -9 -28 -9 -34 1 -6 9 -11 10 -15 2 -4 -6 0 -14 10 -18 15 -6
15 -7 -2 -20 -18 -13 -18 -15 -1 -24 13 -8 17 -24 17 -78 0 -37 3 -71 7 -74 3
-4 26 14 50 39 46 47 138 96 203 107 19 4 65 0 102 -7 76 -14 137 -52 174
-106 l25 -35 -23 -19 c-13 -10 -36 -23 -51 -29 -22 -7 -27 -14 -24 -29 4 -14
-9 -7 -43 24 -75 67 -77 68 -123 68 -29 0 -55 -8 -77 -22 -57 -39 -74 -71 -78
-148 -4 -58 -1 -75 19 -110 32 -57 73 -80 142 -80 59 0 71 10 55 45 -8 17 -7
17 11 -2 24 -28 27 -28 41 -3 9 17 4 27 -32 66 -28 31 -35 43 -21 35 13 -6 33
-25 45 -42 20 -26 28 -30 56 -26 18 3 32 1 32 -4 0 -6 16 -17 36 -25 29 -12
34 -18 28 -37 -10 -32 -66 -95 -85 -96 -9 -1 -22 -8 -29 -16 -7 -8 -20 -15
-30 -15 -9 0 -20 -3 -23 -7 -13 -12 -111 -6 -167 10 -80 23 -143 69 -189 137
-21 33 -41 65 -43 72 -4 10 -8 10 -19 2 -29 -23 -84 -24 -159 -4 -41 11 -89
20 -106 20 -27 0 -32 -4 -38 -31 -3 -17 -6 -62 -6 -99 0 -95 -3 -100 -60 -100
-32 0 -62 -7 -85 -21 l-35 -21 10 26 c9 25 8 26 -11 16 -20 -11 -20 -11 -3 15
19 30 12 44 -13 24 -9 -8 -5 4 10 26 51 75 25 76 -54 0 -35 -34 -67 -55 -81
-55 -13 0 -31 -7 -41 -14 -9 -7 -28 -11 -42 -8 -14 2 -32 -1 -39 -8 -11 -8
-20 -9 -36 0 -11 6 -25 8 -30 5 -5 -3 -23 1 -39 10 -17 8 -38 15 -48 15 -10 0
-38 17 -63 39 -49 42 -49 47 0 111 16 21 22 23 37 12 77 -54 176 -77 226 -51
74 40 32 93 -95 120 -65 14 -124 41 -161 72 -24 20 -30 34 -34 84 -5 53 -2 67
22 112 34 62 89 92 185 100 59 5 65 8 65 28 1 34 17 46 40 29 19 -14 19 -15 2
-33 -24 -27 -22 -30 25 -38 23 -4 60 -21 83 -39 22 -17 41 -31 43 -32 2 -1 -9
-14 -23 -30 -14 -15 -24 -33 -21 -40 3 -7 -1 -18 -9 -24 -11 -9 -21 -8 -42 3
-109 59 -164 70 -208 41 -31 -20 -33 -59 -5 -74 11 -6 44 -14 73 -17 29 -3 69
-14 89 -24 51 -26 65 -24 109 16 22 20 50 35 63 35 29 0 42 15 24 26 -7 4 -28
11 -48 15 l-35 7 36 1 c55 2 78 34 37 50 -22 9 -22 9 -3 18 24 10 30 30 14 49
-9 11 -8 14 5 14 9 0 16 5 16 10 0 6 -4 10 -10 10 -5 0 -10 5 -10 11 0 7 10 9
25 7 29 -6 71 32 62 56 -4 9 -2 16 3 16 6 0 10 -4 10 -10 0 -5 5 -10 10 -10 6
0 10 8 10 19 0 15 7 18 40 16 42 -2 51 9 28 35 -7 7 4 1 24 -14 50 -37 66 -25
31 22 -27 37 -27 37 -2 15 14 -13 30 -23 37 -23 19 0 24 20 10 37 -25 31 24
-2 61 -41 35 -36 55 -44 65 -27 3 5 -22 39 -57 77 l-62 69 70 -63 c39 -35 74
-70 78 -79z m297 90 c0 -14 -32 -18 -43 -6 -4 3 1 15 10 25 13 14 18 16 25 6
4 -7 8 -19 8 -25z m-1576 2 c31 -14 56 -30 56 -36 0 -6 -6 -8 -12 -5 -7 2 -31
10 -53 17 -44 14 -65 27 -65 40 0 14 13 11 74 -16z m1342 -2 c-10 -10 -19 5
-10 18 6 11 8 11 12 0 2 -7 1 -15 -2 -18z m-97 0 c0 -5 -3 -9 -9 -11 -5 -2
-10 4 -10 13 0 16 16 14 19 -2z m1213 -19 c-13 -9 -26 -13 -30 -9 -8 8 17 25
38 25 9 0 6 -6 -8 -16z m-1674 -17 c2 -10 -3 -17 -12 -17 -10 0 -16 9 -16 21
0 24 23 21 28 -4z m-800 -22 c28 -11 52 -23 52 -28 0 -12 -80 2 -107 19 -24
15 -32 39 -10 32 6 -3 36 -13 65 -23z m1493 -2 c-12 -14 -19 -34 -16 -43 4
-13 -1 -19 -20 -22 -42 -9 -40 12 6 53 52 46 57 48 30 12z m-860 -16 c-12 -12
-57 -5 -54 8 3 15 47 23 55 11 4 -6 3 -15 -1 -19z m1894 12 c-43 -20 -65 -24
-65 -11 0 5 17 13 38 19 58 16 71 13 27 -8z m-973 -34 c-3 -16 -11 -25 -23
-25 -11 0 -22 -1 -26 -2 -3 -2 -8 2 -10 7 -3 9 41 41 58 44 3 1 4 -10 1 -24z
m-677 5 c3 -5 -1 -10 -10 -10 -9 0 -13 5 -10 10 3 6 8 10 10 10 2 0 7 -4 10
-10z m1125 -6 c0 -8 -4 -12 -10 -9 -5 3 -10 10 -10 16 0 5 5 9 10 9 6 0 10 -7
10 -16z m50 6 c0 -5 -4 -10 -10 -10 -5 0 -10 5 -10 10 0 6 5 10 10 10 6 0 10
-4 10 -10z m-2072 -24 c28 -10 52 -22 52 -27 0 -12 -4 -12 -72 7 -37 11 -58
22 -58 31 0 9 6 13 13 11 6 -3 36 -13 65 -22z m2597 4 c-54 -25 -95 -34 -95
-22 0 9 91 40 120 40 8 0 -3 -8 -25 -18z m-2090 -1 c8 -12 -23 -49 -42 -49
-18 0 -16 16 4 40 20 23 29 25 38 9z m1095 -4 c0 -8 -4 -15 -10 -15 -5 0 -10
7 -10 15 0 8 5 15 10 15 6 0 10 -7 10 -15z m240 5 c0 -5 -4 -10 -10 -10 -5 0
-10 5 -10 10 0 6 5 10 10 10 6 0 10 -4 10 -10z m84 -48 c-9 -35 -22 -49 -29
-30 -8 20 12 71 25 63 6 -3 7 -18 4 -33z m147 -6 c1 -6 1 -19 0 -28 -2 -16 12
-17 168 -15 112 1 174 -2 181 -9 6 -6 12 -40 15 -75 2 -35 9 -79 16 -98 16
-45 5 -293 -16 -376 -9 -33 -20 -76 -24 -95 -11 -43 -83 -210 -105 -241 -9
-13 -16 -31 -16 -41 0 -17 -67 -87 -84 -88 -7 0 -59 40 -120 91 -5 4 15 44 44
89 45 72 110 207 110 231 0 5 -49 9 -109 9 -61 0 -112 4 -116 9 -3 6 -7 55 -8
110 -2 91 -5 103 -25 117 -25 18 -29 34 -7 34 25 0 33 40 33 161 -1 168 -1
168 25 179 19 9 19 10 2 8 -31 -4 -47 10 -36 31 7 13 18 16 40 13 17 -2 32 -9
32 -16z m-2092 -8 c47 -11 69 -23 59 -33 -7 -7 -129 15 -142 26 -13 11 4 31
21 25 9 -4 36 -11 62 -18z m2666 13 c-13 -11 -118 -42 -124 -36 -8 9 7 16 56
30 59 16 80 18 68 6z m-2195 -26 c0 -8 -4 -15 -9 -15 -13 0 -22 16 -14 24 11
11 23 6 23 -9z m-195 -325 l0 -295 -54 -3 c-30 -2 -58 1 -63 6 -11 11 -14 563
-4 581 5 8 28 11 64 9 l57 -3 0 -295z m2409 291 c6 -9 -124 -44 -133 -35 -13
13 29 28 121 43 4 0 9 -3 12 -8z m-2699 -12 c65 -17 69 -19 59 -29 -13 -13
-136 11 -142 28 -5 15 29 16 83 1z m2713 -51 c-5 -13 -29 -21 -95 -32 -33 -5
-43 -3 -43 8 0 9 20 17 58 24 80 13 84 13 80 0z m-2680 -19 c37 -14 15 -31
-32 -24 -83 12 -96 17 -96 32 0 12 9 14 53 8 28 -4 62 -11 75 -16z m-22 -55
c21 -3 34 -10 31 -17 -4 -14 -126 -11 -141 3 -17 16 6 31 40 25 19 -3 50 -8
70 -11z m2712 4 c-6 -17 -128 -32 -141 -19 -15 15 28 30 91 30 39 1 53 -2 50
-11z m-888 -115 c64 -65 64 -66 12 -22 -44 37 -91 89 -79 89 1 0 32 -30 67
-67z m900 53 c0 -18 -127 -33 -144 -16 -18 18 13 30 82 30 46 0 62 -4 62 -14z
m-2715 -6 c48 -18 18 -32 -54 -24 -73 7 -84 11 -76 25 8 12 97 12 130 -1z
m1825 -122 l54 -63 -49 45 c-28 25 -61 58 -74 74 -21 24 -22 27 -5 18 11 -6
44 -39 74 -74z m890 68 c0 -24 -132 -38 -146 -15 -11 19 18 29 84 29 46 0 62
-4 62 -14z m-2703 -9 c18 -19 -18 -28 -81 -22 -63 7 -81 17 -53 29 16 7 125 2
134 -7z m3 -67 c0 -19 -5 -21 -72 -18 -40 2 -73 8 -73 13 0 11 49 22 108 24
31 1 37 -2 37 -19z m2700 11 c0 -13 -26 -21 -70 -21 -44 0 -70 8 -70 21 0 5
32 9 70 9 39 0 70 -4 70 -9z m-31 -57 c39 -8 31 -24 -12 -24 -52 0 -107 12
-101 21 6 10 68 12 113 3z m-2669 -13 c0 -11 -50 -21 -101 -21 -40 0 -53 15
-21 23 32 8 122 7 122 -2z m2685 -62 c5 -5 -4 -9 -25 -9 -55 0 -110 12 -110
23 0 12 121 0 135 -14z m-2675 2 c0 -9 -58 -21 -107 -21 -45 0 -41 18 5 23 72
7 102 7 102 -2z m2657 -58 c32 -12 -1 -19 -54 -11 -81 13 -97 33 -19 23 33 -4
65 -9 73 -12z m-2653 -3 c-11 -11 -125 -32 -133 -25 -8 9 8 18 46 25 60 12 99
12 87 0z m2634 -61 c43 -16 17 -21 -47 -8 -75 14 -96 35 -26 24 27 -3 59 -11
73 -16z m-2618 2 c0 -9 -84 -31 -120 -31 -36 0 -21 19 23 28 56 13 97 14 97 3z
m10 -54 c0 -13 -37 -27 -109 -42 -56 -12 -32 17 30 36 68 21 79 22 79 6z
m2551 2 c19 -6 40 -13 48 -15 8 -3 11 -7 8 -10 -7 -8 -116 17 -123 28 -7 11
27 10 67 -3z m-2031 -12 c0 -13 -19 -36 -55 -66 -12 -9 -20 -10 -28 -2 -7 7
-6 12 6 17 9 3 17 12 17 20 0 8 7 14 15 14 8 0 15 7 15 15 0 8 7 15 15 15 8 0
15 -6 15 -13z m410 -47 c0 -11 -4 -20 -10 -20 -5 0 -10 9 -10 20 0 11 5 20 10
20 6 0 10 -9 10 -20z m1596 4 c93 -31 81 -47 -14 -19 -29 9 -50 20 -47 25 8
12 3 13 61 -6z m-2508 -6 c-5 -13 -89 -46 -121 -47 -35 -2 -11 23 39 40 60 21
87 23 82 7z m2032 2 c0 -5 -7 -10 -16 -10 -8 0 -12 5 -9 10 3 6 10 10 16 10 5
0 9 -4 9 -10z m-1182 -42 c19 -19 14 -37 -8 -31 -22 6 -29 -22 -7 -30 7 -4 8
-6 1 -6 -20 -2 -36 28 -30 54 7 27 25 32 44 13z m-833 -27 c-21 -19 -124 -50
-131 -40 -9 15 3 24 66 47 33 12 59 17 65 11 6 -6 6 -12 0 -18z m2498 5 c20
-9 37 -21 37 -27 0 -6 -6 -9 -14 -6 -8 3 -32 11 -55 18 -23 7 -47 19 -54 27
-10 13 -8 15 18 9 17 -3 47 -13 68 -21z m-1413 1 c0 -2 -17 -19 -37 -38 l-38
-34 34 38 c33 34 41 42 41 34z m43 -20 c-4 -8 -24 -27 -43 -43 l-35 -29 40 47
c38 44 56 56 38 25z m16 -51 l-32 -31 26 33 c15 19 28 43 28 55 2 20 2 20 6
-2 4 -17 -4 -32 -28 -55z m45 -15 c-16 -14 -21 -17 -11 -5 9 11 17 34 17 51 0
42 14 52 18 12 3 -25 -3 -38 -24 -58z m50 -20 c-15 -15 -15 -14 -5 7 7 13 12
33 11 45 -1 12 -1 31 1 42 1 11 4 -2 6 -29 3 -37 0 -53 -13 -65z m39 -12 c-4
-4 -7 15 -7 44 2 78 7 89 11 23 2 -32 0 -63 -4 -67z m65 -7 c13 -4 14 1 15 73
0 44 0 45 4 11 3 -27 13 -48 31 -64 l26 -25 -22 -8 c-12 -5 -22 -16 -22 -26 0
-13 -6 -11 -30 12 -28 27 -30 33 -28 94 l1 66 6 -64 c4 -38 11 -66 19 -69z
m650 111 c-4 -20 -18 -26 -37 -14 -18 12 -5 31 20 31 14 0 19 -6 17 -17z
m-586 -28 c3 -27 1 -32 -9 -23 -14 11 -17 40 -6 51 10 11 11 9 15 -28z m47
-10 c16 -20 16 -20 -6 -1 -13 11 -23 26 -22 35 0 14 1 14 6 1 3 -8 13 -24 22
-35z m-971 23 c-3 -7 -13 -15 -24 -17 -16 -3 -17 -1 -5 13 16 19 34 21 29 4z
m1976 -23 c31 -14 56 -29 56 -35 0 -14 -7 -13 -60 7 -50 18 -70 31 -70 44 0
14 13 11 74 -16z m-2434 1 c0 -12 -107 -66 -131 -66 -6 0 -9 8 -7 17 2 10 27
26 58 39 65 27 80 29 80 10z m745 -35 c0 -34 -32 -52 -50 -27 -19 25 -2 58 28
54 16 -2 22 -10 22 -27z m1169 -2 c-3 -5 -10 -7 -15 -3 -5 3 -7 10 -3 15 3 5
10 7 15 3 5 -3 7 -10 3 -15z m-1709 -19 c0 -31 -33 -40 -52 -14 -16 22 1 46
31 42 15 -2 21 -10 21 -28z m2225 -10 c41 -21 53 -40 25 -40 -16 0 -90 35
-112 52 -7 6 -10 14 -8 19 6 9 34 0 95 -31z m-2404 19 c3 -6 -6 -22 -22 -35
l-29 -24 38 6 c58 10 47 -16 -24 -55 -47 -26 -63 -31 -72 -21 -9 9 -7 16 11
30 30 25 28 31 -9 28 -56 -5 -45 20 23 52 72 33 74 34 84 19z m2359 -66 c48
-24 73 -53 45 -53 -21 0 -120 55 -120 67 0 19 13 16 75 -14z m-1113 -25 c-7
-7 -12 -8 -12 -2 0 6 3 14 7 17 3 4 9 5 12 2 2 -3 -1 -11 -7 -17z m1084 -29
c30 -17 54 -37 54 -45 0 -19 -4 -18 -71 17 -32 18 -59 38 -59 45 0 21 17 17
76 -17z m-2276 9 c-1 -13 -100 -78 -119 -78 -28 0 -6 32 42 58 58 33 77 38 77
20z m1226 -15 c-10 -10 -19 5 -10 18 6 11 8 11 12 0 2 -7 1 -15 -2 -18z m1019
-49 c53 -36 63 -48 47 -58 -12 -7 -122 64 -122 80 0 22 16 17 75 -22z m-2215
14 c0 -13 -92 -78 -110 -78 -23 0 -7 22 42 55 57 38 68 42 68 23z m1140 -18
c-11 -16 -25 -32 -30 -35 -6 -4 -10 -13 -10 -21 0 -8 5 -12 10 -9 6 3 10 -1
10 -9 0 -21 -19 -30 -26 -12 -3 9 -11 16 -18 16 -6 0 -20 10 -30 21 -16 20
-17 23 -2 38 13 12 19 13 24 4 6 -10 17 -6 42 12 47 32 56 31 30 -5z m374 -19
c23 -25 16 -35 -29 -38 -25 -1 -34 3 -38 18 -3 12 0 19 10 19 10 0 12 6 8 21
-6 18 -4 19 12 11 10 -6 27 -20 37 -31z m54 -3 c-3 -7 -8 -13 -13 -13 -5 0
-10 6 -12 13 -3 6 3 12 12 12 9 0 15 -6 13 -12z m612 -25 c47 -35 64 -63 38
-63 -19 0 -119 80 -113 91 10 15 23 11 75 -28z m-2146 18 c3 -5 -17 -25 -44
-45 -57 -41 -63 -44 -70 -33 -5 7 87 85 102 86 4 1 9 -3 12 -8z m1262 -64 c1
-26 -2 -47 -7 -47 -5 0 -12 -1 -16 -2 -12 -5 -22 54 -12 79 14 38 34 22 35
-30z m857 -11 c45 -35 53 -56 22 -56 -7 0 -36 18 -65 41 -42 33 -49 43 -39 55
13 15 11 16 82 -40z m-2083 25 c0 -5 -19 -24 -42 -43 -58 -46 -68 -52 -68 -36
0 8 21 30 48 51 48 37 62 44 62 28z m917 -13 c-3 -8 -6 -5 -6 6 -1 11 2 17 5
13 3 -3 4 -12 1 -19z m443 12 c0 -5 -4 -10 -10 -10 -5 0 -10 5 -10 10 0 6 5
10 10 10 6 0 10 -4 10 -10z m-936 -34 c135 -89 250 -132 451 -166 129 -23 130
-23 132 -50 2 -21 -3 -29 -20 -34 -21 -6 -22 -7 -3 -21 19 -14 19 -15 0 -36
-18 -20 -26 -21 -109 -16 -49 3 -126 15 -170 27 -100 26 -270 109 -269 131 1
11 -6 14 -25 12 -29 -4 -121 57 -121 80 0 14 68 107 78 107 3 0 28 -15 56 -34z
m1615 -34 c46 -41 51 -49 39 -60 -13 -10 -24 -5 -67 34 -49 44 -65 74 -38 74
6 0 36 -22 66 -48z m-2001 19 c-7 -18 -102 -93 -106 -83 -4 13 78 91 96 92 8
0 12 -4 10 -9z m1560 -18 c-2 -10 -10 -18 -18 -18 -8 0 -16 8 -18 18 -2 12 3
17 18 17 15 0 20 -5 18 -17z m405 -52 c37 -35 48 -61 24 -61 -7 0 -35 19 -62
43 -36 32 -47 48 -42 61 8 21 15 17 80 -43z m-1923 32 c0 -14 -84 -93 -99 -93
-9 0 5 21 34 50 46 47 65 59 65 43z m1867 -65 c38 -37 57 -78 36 -78 -13 0
-103 94 -103 107 0 24 24 13 67 -29z m-1827 22 c0 -13 -79 -100 -91 -100 -17
0 -9 15 32 63 39 46 59 58 59 37z m1779 -66 c39 -44 52 -74 32 -74 -15 0 -102
100 -96 110 11 18 22 11 64 -36z m-1770 -25 c-46 -55 -55 -63 -63 -51 -7 12
84 113 95 106 5 -3 -9 -28 -32 -55z m1725 -18 c38 -51 44 -71 24 -71 -16 0
-88 88 -88 106 0 29 30 12 64 -35z m-1644 27 c-1 -19 -86 -113 -93 -102 -6 11
70 114 84 114 5 0 9 -6 9 -12z m1594 -61 c38 -56 45 -77 22 -77 -18 0 -90 105
-82 119 12 19 23 12 60 -42z m-1544 32 c0 -14 -73 -119 -82 -119 -16 0 -7 26
29 77 35 51 53 65 53 42z m1495 -71 c38 -57 43 -78 21 -78 -13 0 -86 104 -86
122 0 25 34 1 65 -44z m-1445 32 c0 -18 -65 -110 -77 -110 -20 0 -16 11 22 68
33 49 55 65 55 42z m1389 -64 c33 -57 39 -80 19 -74 -17 6 -79 109 -72 119 11
18 23 7 53 -45z m-1339 32 c0 -18 -59 -118 -69 -118 -21 0 -18 17 12 71 29 54
57 77 57 47z m55 -18 c9 -14 -55 -130 -71 -130 -21 0 -17 16 17 81 32 59 42
68 54 49z m1230 -50 c26 -52 31 -70 16 -70 -11 0 -72 116 -64 123 10 11 22 -3
48 -53z m-1175 19 c0 -25 -54 -129 -66 -129 -21 0 -17 23 13 85 24 49 53 73
53 44z m1115 -45 c27 -60 30 -74 17 -74 -8 0 -62 104 -62 120 0 27 23 4 45
-46z m-1063 10 c-7 -40 -52 -125 -63 -119 -12 8 -7 35 21 100 20 46 49 59 42
19z m1012 -47 c27 -74 12 -79 -22 -8 -17 35 -29 68 -25 74 8 14 28 -13 47 -66z
m-964 -4 c-21 -64 -41 -96 -52 -85 -11 11 2 62 29 116 22 42 39 19 23 -31z
m901 -9 c20 -57 23 -74 10 -74 -7 0 -51 106 -51 124 0 4 5 6 12 4 6 -2 20 -26
29 -54z m-839 5 c-3 -38 -31 -109 -43 -109 -18 0 -18 22 2 85 21 70 46 85 41
24z m781 -29 c20 -70 20 -70 8 -70 -5 0 -17 24 -27 53 -9 28 -19 58 -22 65 -2
6 2 12 10 12 9 0 21 -22 31 -60z m-723 27 c0 -41 -30 -129 -43 -124 -17 5 -13
65 7 110 18 42 36 49 36 14z m659 -25 c24 -90 24 -95 10 -90 -13 4 -38 84 -39
121 0 29 19 9 29 -31z m-609 -46 c-9 -47 -17 -66 -27 -66 -13 0 -14 9 -9 50 9
71 24 106 38 92 8 -8 7 -29 -2 -76z m64 6 c-7 -65 -20 -95 -35 -86 -11 7 -3
91 12 132 16 42 31 13 23 -46z m485 24 c13 -54 15 -104 2 -90 -8 8 -31 101
-31 124 0 6 4 10 9 10 5 0 14 -20 20 -44z m-425 -48 c-7 -45 -13 -63 -24 -63
-11 0 -14 11 -11 49 4 64 18 103 32 89 7 -7 8 -32 3 -75z m310 -7 c6 -50 4
-62 -6 -59 -15 5 -33 110 -23 135 10 28 21 -1 29 -76z m49 76 c12 -32 19 -127
9 -127 -11 0 -17 21 -27 93 -5 29 -4 47 3 47 5 0 12 -6 15 -13z m-293 -64 c0
-82 18 -75 27 11 8 81 28 67 28 -20 l0 -69 -47 -1 -48 -1 0 42 c0 62 11 105
26 105 11 0 14 -17 14 -67z m118 -11 c2 -60 0 -72 -13 -72 -12 0 -15 14 -15
76 0 56 3 75 13 72 8 -3 13 -30 15 -76z m60 0 c3 -69 -9 -96 -22 -49 -11 43
-7 129 7 125 8 -3 13 -30 15 -76z"/>
<path d="M1504 2069 c-14 -17 -16 -23 -6 -26 7 -3 24 -15 38 -28 22 -20 23
-25 9 -32 -13 -8 -14 -16 -4 -61 12 -48 14 -51 30 -36 24 22 30 65 13 92 -13
20 -13 23 0 28 15 6 15 51 1 74 -11 18 -61 11 -81 -11z"/>
<path d="M1555 1847 c-10 -15 -16 -30 -13 -32 8 -9 40 33 36 47 -3 8 -11 2
-23 -15z"/>
<path d="M2865 2170 c-3 -6 -3 -20 1 -32 6 -19 7 -19 16 -4 14 24 28 10 28
-28 0 -31 3 -34 36 -41 42 -7 51 -1 56 39 3 25 8 29 37 33 59 6 56 25 -4 28
-20 1 -39 5 -42 9 -10 10 -121 7 -128 -4z"/>
<path d="M2890 1941 c-22 -6 -25 -13 -28 -64 l-3 -58 63 3 c35 2 63 8 64 13 0
6 3 17 6 25 14 36 16 65 6 77 -11 14 -66 16 -108 4z"/>
<path d="M3070 3389 c0 -12 29 -38 43 -39 14 0 7 38 -9 44 -23 9 -34 7 -34 -5z"/>
<path d="M683 3193 c-14 -5 -18 -43 -5 -43 12 0 32 23 32 37 0 13 -6 15 -27 6z"/>
<path d="M3458 2909 c-22 -13 -23 -58 -2 -66 9 -3 28 -2 43 3 20 7 26 16 26
39 0 25 -4 30 -25 32 -14 2 -33 -2 -42 -8z"/>
<path d="M290 1607 c-51 -26 -18 -81 37 -61 31 10 41 37 23 59 -15 18 -27 19
-60 2z"/>
<path d="M3610 1476 c-13 -17 -7 -46 9 -46 14 0 25 40 14 51 -6 6 -15 4 -23
-5z"/>
<path d="M440 1275 c0 -14 21 -45 31 -45 18 0 5 45 -13 48 -10 2 -18 1 -18 -3z"/>
<path d="M3197 733 c-4 -3 -7 -17 -7 -30 0 -35 34 -26 38 10 3 26 -14 37 -31
20z"/>
<path d="M1344 406 c-22 -35 -15 -70 15 -74 46 -7 71 66 32 88 -27 14 -28 13
-47 -14z"/>
<path d="M2423 355 c-3 -9 -3 -19 1 -22 9 -10 58 16 51 27 -10 16 -45 12 -52
-5z"/>
<path d="M1867 303 c-12 -12 -7 -70 7 -82 31 -25 64 16 52 65 -5 17 -13 24
-30 24 -12 0 -26 -3 -29 -7z"/>
</g>
</svg>
