<?xml version="1.0" standalone="no"?>
<!DOCTYPE svg PUBLIC "-//W3C//DTD SVG 20010904//EN"
 "http://www.w3.org/TR/2001/REC-SVG-20010904/DTD/svg10.dtd">
<svg version="1.0" xmlns="http://www.w3.org/2000/svg"
 width="600.000000pt" height="600.000000pt" viewBox="0 0 600.000000 600.000000"
 preserveAspectRatio="xMidYMid meet">
<metadata>
Created by potrace 1.16, written by Peter Selinger 2001-2019
</metadata>
<g transform="translate(0.000000,600.000000) scale(0.100000,-0.100000)"
fill="#000000" stroke="none">
<path d="M0 3000 l0 -3000 3000 0 3000 0 0 3000 0 3000 -3000 0 -3000 0 0
-3000z m3253 2700 c-2 -41 -5 -96 -8 -122 -5 -39 -2 -50 16 -67 12 -11 18 -24
14 -30 -10 -17 -52 -13 -71 6 -14 15 -16 32 -9 141 8 145 10 154 39 150 20 -3
21 -8 19 -78z m466 -9 c33 -24 50 -66 33 -83 -13 -13 -49 6 -57 32 -7 21 -41
34 -72 28 -12 -2 -18 -12 -18 -28 0 -19 13 -33 58 -63 32 -21 62 -48 66 -61
13 -32 3 -71 -25 -97 -48 -45 -171 -17 -202 47 -12 27 -13 36 -3 48 15 18 51
5 51 -18 0 -18 30 -42 62 -50 21 -5 33 -1 48 14 27 27 15 49 -42 83 -88 51
-107 108 -53 155 24 20 36 23 76 20 26 -3 60 -15 78 -27z m-657 -11 c16 -19
18 -38 16 -109 l-3 -86 -35 0 c-19 0 -49 -4 -66 -8 -63 -16 -106 25 -90 87 6
25 36 41 99 52 27 5 37 11 37 25 0 30 -46 36 -74 10 -12 -11 -30 -21 -39 -21
-27 0 -20 36 11 60 37 30 117 24 144 -10z m-318 -9 c17 -18 36 -108 36 -168 0
-28 -4 -33 -24 -33 -22 0 -25 5 -31 58 -4 31 -10 68 -14 82 -9 31 -45 38 -71
15 -17 -15 -18 -27 -13 -96 6 -75 5 -79 -15 -79 -11 0 -23 4 -26 9 -3 4 -11
52 -17 106 -10 80 -10 98 1 105 8 5 21 5 30 0 9 -5 25 -3 40 6 36 19 84 17
104 -5z m-656 -63 c-4 -30 -48 -39 -48 -10 0 24 8 32 32 32 14 0 19 -6 16 -22z
m322 9 c32 -16 60 -71 60 -118 0 -97 -131 -144 -193 -69 -52 62 -39 157 25
185 41 18 76 18 108 2z m-263 -157 c17 -47 32 -93 32 -103 1 -24 -29 -34 -43
-14 -21 27 -68 176 -62 193 14 36 41 8 73 -76z m1844 57 c69 -46 74 -124 13
-184 -36 -37 -76 -43 -124 -18 -78 41 -80 144 -4 204 35 27 73 27 115 -2z
m-2087 -12 c3 -9 18 -15 36 -15 33 0 38 -14 14 -41 -15 -16 -14 -22 9 -73 23
-50 29 -56 56 -56 36 0 42 -23 11 -40 -46 -25 -73 -9 -110 62 -23 45 -41 68
-53 68 -23 0 -33 26 -17 45 7 8 10 21 7 29 -6 15 11 36 29 36 6 0 14 -7 18
-15z m2360 -109 c41 -17 66 -51 66 -89 0 -24 -4 -28 -22 -25 -13 2 -24 11 -26
23 -5 28 -32 55 -53 55 -25 0 -69 -57 -69 -90 0 -40 21 -54 74 -46 51 8 67 -5
40 -35 -39 -43 -143 -9 -164 56 -22 65 41 161 108 164 7 1 28 -5 46 -13z
m-2507 -31 c24 -17 93 -135 93 -159 0 -9 -8 -16 -20 -16 -10 0 -33 -13 -50
-30 -36 -35 -70 -46 -100 -30 -54 29 -41 99 25 140 39 24 42 32 20 50 -24 20
-63 -2 -67 -37 -2 -20 -9 -29 -25 -31 -20 -3 -23 1 -23 27 0 35 26 66 73 86
41 18 48 18 74 0z m2781 -53 c3 -16 -2 -22 -17 -22 -24 0 -35 15 -27 36 9 23
40 13 44 -14z m-1308 -37 c1089 -115 1930 -956 2045 -2045 19 -171 19 -289 0
-460 -115 -1089 -956 -1930 -2045 -2045 -323 -35 -644 2 -966 109 -842 282
-1444 1039 -1539 1936 -35 323 2 644 109 966 335 1001 1346 1651 2396 1539z
m1259 -19 c15 -18 -92 -186 -119 -186 -36 0 -31 21 25 110 56 89 72 102 94 76z
m-2975 -79 c50 -54 89 -115 82 -132 -11 -28 -35 -15 -81 46 -39 50 -51 60 -73
57 -19 -2 -30 -11 -36 -30 -8 -24 -5 -34 22 -70 50 -65 59 -88 41 -99 -8 -5
-17 -9 -21 -9 -12 0 -128 158 -128 174 0 8 10 18 22 22 12 3 36 22 54 40 42
45 76 45 118 1z m3140 -41 c40 -17 76 -60 76 -93 0 -27 -26 -83 -39 -83 -5 0
-32 18 -60 41 -55 44 -81 46 -81 5 0 -27 41 -63 60 -51 15 10 50 -4 50 -20 0
-8 -9 -19 -20 -25 -50 -27 -140 40 -140 103 0 42 31 92 72 117 39 24 40 24 82
6z m-3409 -106 c3 -6 1 -26 -6 -44 -12 -33 -11 -37 27 -81 60 -72 61 -73 43
-91 -15 -15 -22 -10 -88 58 -39 40 -71 81 -71 91 0 10 11 22 24 27 13 5 27 18
31 29 7 22 29 28 40 11z m3672 -51 c9 -9 9 -16 0 -30 -9 -14 -9 -24 0 -37 7
-12 8 -24 2 -33 -7 -12 -12 -12 -30 -1 -20 13 -25 10 -68 -32 -41 -41 -44 -48
-33 -66 23 -37 -6 -54 -40 -23 -32 28 -23 69 27 122 32 34 44 56 43 72 -3 20
3 25 32 30 54 10 55 10 67 -2z m-3799 -155 c12 -8 22 -20 22 -25 0 -5 -20 -32
-45 -58 -52 -55 -55 -68 -20 -77 35 -9 63 19 67 65 2 28 7 36 23 36 16 0 21
-8 23 -38 3 -33 -2 -43 -36 -78 -55 -55 -99 -52 -164 9 -71 65 -24 182 72 182
20 0 46 -7 58 -16z m3891 -11 c7 -14 1 -33 -26 -81 -19 -35 -32 -66 -28 -70 3
-4 27 2 53 12 62 24 105 26 110 5 2 -13 -26 -27 -122 -63 -143 -52 -173 -56
-204 -23 -31 33 -15 55 27 37 41 -16 52 -6 98 84 60 120 73 133 92 99z m-4136
-210 c-3 -28 3 -36 43 -64 40 -28 49 -30 69 -19 23 12 45 7 45 -11 0 -15 -47
-59 -63 -59 -8 0 -40 18 -72 39 -46 31 -65 39 -87 34 -26 -5 -28 -3 -28 26 0
17 -5 31 -11 31 -6 0 -9 10 -7 23 2 18 9 22 35 20 18 -2 35 2 38 8 4 5 14 9
23 7 12 -3 16 -13 15 -35z m4432 -195 c64 -60 57 -133 -18 -178 -62 -38 -131
-21 -162 40 -31 60 -8 120 60 155 47 24 81 19 120 -17z m-4468 -26 c39 -23 63
-44 63 -55 0 -32 -28 -29 -90 7 -34 20 -67 36 -74 36 -20 0 -36 -22 -36 -52 0
-23 9 -34 46 -56 73 -42 86 -55 79 -75 -4 -9 -12 -17 -19 -17 -22 0 -186 102
-186 116 0 7 9 19 20 26 11 7 20 23 20 36 0 13 14 37 30 54 37 36 54 34 147
-20z m4599 -193 c3 -6 19 -9 34 -5 34 6 80 -25 80 -54 0 -27 -16 -33 -34 -14
-22 21 -50 10 -43 -17 7 -27 -18 -36 -42 -15 -17 16 -23 14 -91 -18 -55 -27
-77 -33 -87 -25 -26 22 -12 39 62 73 55 25 75 40 75 54 0 31 31 45 46 21z
m-4820 -59 c97 -45 130 -64 132 -80 2 -11 -3 -23 -11 -26 -18 -6 -268 106
-274 124 -4 10 13 42 22 42 1 0 60 -27 131 -60z m-171 -695 c15 -14 25 -36 25
-51 0 -37 -36 -74 -72 -74 -36 0 -78 40 -78 75 0 33 42 75 75 75 14 0 37 -11
50 -25z m5210 0 c14 -13 25 -36 25 -50 0 -35 -42 -75 -79 -75 -35 0 -71 39
-71 77 0 32 42 73 75 73 14 0 37 -11 50 -25z m-5056 -678 c5 -13 11 -57 13
-98 3 -68 2 -74 -17 -74 -17 0 -22 10 -30 62 -5 34 -13 65 -17 68 -4 4 -21 4
-38 0 -31 -7 -31 -7 -28 -68 3 -52 0 -62 -15 -65 -19 -4 -23 4 -32 71 l-6 48
-67 -3 c-66 -3 -67 -2 -67 22 0 24 3 25 115 41 165 24 179 24 189 -4z m4958
-3 c2 -6 -8 -23 -22 -38 -28 -30 -30 -59 -4 -64 11 -2 22 10 33 37 32 80 77
101 121 56 47 -46 18 -165 -40 -165 -32 0 -32 20 0 50 29 28 31 73 3 78 -12 2
-24 -11 -39 -40 -42 -84 -80 -101 -118 -52 -23 30 -26 59 -11 101 17 46 66 69
77 37z m-67 -255 c0 -41 18 -56 90 -74 75 -18 84 -24 74 -49 -8 -21 -25 -20
-125 4 -95 22 -109 32 -91 60 6 11 12 33 12 50 0 23 4 30 20 30 14 0 20 -7 20
-21z m-4962 -33 c36 -19 57 -58 57 -108 0 -32 -7 -46 -32 -68 -36 -32 -97 -46
-136 -31 -57 22 -86 119 -51 170 32 46 111 64 162 37z m4976 -221 c0 -16 -7
-51 -14 -77 -16 -56 -9 -68 28 -47 29 16 41 61 23 83 -14 16 -4 46 15 46 25 0
47 -47 39 -86 -12 -67 -52 -104 -111 -104 -33 0 -101 35 -114 59 -23 44 -2
127 37 150 10 6 36 10 58 8 37 -2 40 -4 39 -32z m-4854 -97 c0 -10 7 -29 15
-42 14 -21 14 -25 -1 -37 -14 -11 -19 -10 -36 14 -24 32 -37 33 -114 7 -64
-22 -84 -20 -84 8 0 15 21 27 98 54 100 37 122 36 122 -4z m4776 -192 c41 -19
74 -37 74 -40 0 -16 -14 -36 -25 -36 -7 0 -43 13 -79 30 -72 32 -93 31 -102
-6 -10 -38 1 -52 71 -86 44 -22 65 -38 65 -50 0 -34 -27 -30 -119 16 -89 45
-105 62 -77 85 7 6 16 28 19 47 14 82 59 92 173 40z m-4717 9 c28 -14 61 -68
61 -100 0 -28 -27 -70 -54 -85 -14 -7 -28 -11 -30 -9 -2 2 -18 32 -35 67 -33
65 -41 71 -60 48 -23 -27 -9 -70 27 -85 42 -19 44 -51 4 -51 -29 0 -59 25 -81
67 -27 52 0 115 62 144 51 23 69 23 106 4z m4405 -204 c10 -16 -5 -41 -24 -41
-23 0 -34 16 -26 35 6 16 42 20 50 6z m-4244 -76 c0 -6 14 -24 30 -40 54 -52
40 -93 -53 -154 -68 -44 -91 -50 -101 -26 -6 17 7 31 79 78 54 35 65 56 40 81
-26 25 -61 19 -121 -21 -51 -34 -56 -35 -72 -20 -15 16 -15 18 3 36 11 10 54
40 95 65 69 42 76 45 88 29 6 -9 12 -22 12 -28z m4392 -12 c52 -31 78 -53 78
-65 0 -42 -34 -29 -188 68 -19 12 -21 18 -11 35 13 25 18 23 121 -38z m-88
-155 c49 -37 66 -57 64 -71 -5 -34 -22 -30 -83 18 -60 46 -82 54 -103 33 -28
-28 -13 -62 44 -106 35 -28 54 -49 52 -60 -6 -30 -33 -24 -92 23 -32 25 -64
45 -70 45 -20 0 -36 -23 -36 -51 0 -22 12 -37 55 -71 30 -23 55 -51 55 -61 0
-37 -30 -28 -110 33 -80 62 -98 93 -62 104 9 3 25 24 34 46 12 28 26 44 46 51
22 7 31 19 36 42 8 42 43 77 76 77 18 0 52 -19 94 -52z m-4094 -108 c22 -31
27 -95 8 -106 -14 -9 -39 23 -32 41 7 18 -13 55 -31 55 -24 0 -25 -17 -4 -65
18 -40 19 -51 9 -76 -23 -55 -97 -50 -137 10 -24 35 -29 76 -14 100 14 22 44
-6 37 -34 -6 -25 18 -65 40 -65 24 0 27 26 9 74 -10 27 -15 56 -11 71 13 52
88 49 126 -5z m204 -105 c19 -19 10 -45 -15 -45 -25 0 -35 26 -19 45 15 18 15
18 34 0z m-54 -74 c0 -9 -33 -49 -73 -89 -68 -67 -74 -71 -92 -58 -19 14 -17
18 59 95 75 76 106 91 106 52z m3637 -74 c35 -35 63 -69 63 -75 0 -6 -13 -18
-30 -27 -16 -9 -30 -22 -30 -30 0 -20 -49 -55 -78 -55 -34 0 -62 27 -62 60 0
15 14 46 31 69 30 43 33 71 5 71 -24 0 -46 -29 -46 -61 0 -33 -26 -51 -41 -28
-18 29 -9 62 30 100 57 57 80 53 158 -24z m-3459 -80 c27 -26 32 -38 30 -67
-2 -27 -7 -35 -23 -35 -15 0 -21 8 -23 33 -4 43 -41 69 -74 52 -75 -39 -75
-134 1 -130 44 3 51 1 51 -20 0 -44 -84 -38 -131 10 -42 41 -40 96 3 146 18
20 41 40 52 45 34 14 78 1 114 -34z m3178 -84 l9 -58 55 -22 c63 -25 73 -49
20 -47 -19 1 -45 5 -57 9 -21 7 -23 4 -23 -33 0 -53 -8 -72 -31 -72 -16 0 -19
8 -19 49 0 69 -5 78 -61 96 -50 17 -64 39 -30 50 10 3 31 1 46 -5 36 -14 45
-6 45 39 0 21 3 41 7 44 18 18 31 2 39 -50z m-266 -52 c0 -13 -18 -30 -55 -50
-30 -17 -55 -34 -55 -37 0 -11 23 -49 34 -56 6 -4 34 6 62 23 44 25 53 27 64
14 16 -19 7 -31 -40 -55 -49 -25 -55 -35 -40 -71 15 -36 29 -36 91 -3 47 26
85 27 77 1 -2 -6 -40 -33 -83 -60 -63 -38 -81 -45 -91 -35 -19 20 -144 238
-144 251 0 15 138 97 163 97 10 0 17 -8 17 -19z m-2475 -56 c30 -17 47 -37 58
-63 15 -38 13 -82 -3 -82 -22 0 -40 14 -40 31 0 50 -41 89 -94 89 -51 0 -106
-72 -106 -139 0 -20 9 -37 31 -55 35 -30 65 -33 97 -11 16 12 26 13 42 5 27
-14 25 -24 -6 -49 -70 -55 -202 7 -220 105 -9 49 19 115 67 158 33 30 46 36
86 36 31 0 60 -8 88 -25z m252 -210 c33 -9 73 -62 73 -96 0 -39 -34 -105 -61
-120 -13 -6 -42 -9 -68 -6 -86 10 -125 87 -83 167 19 36 76 73 102 66 8 -3 25
-7 37 -11z m1876 1 c3 -8 -5 -24 -19 -37 -29 -27 -30 -44 -4 -104 11 -26 20
-55 20 -65 0 -19 -29 -36 -41 -23 -14 15 -79 195 -73 204 3 5 18 9 33 9 16 0
34 7 41 15 16 19 36 19 43 1z m-245 -90 c32 -17 57 -58 49 -80 -3 -8 -25 -20
-49 -26 -92 -23 -106 -38 -64 -65 19 -13 28 -14 50 -4 14 7 26 18 26 25 0 20
41 39 50 23 21 -34 -32 -87 -96 -96 -33 -4 -45 -1 -71 21 -38 32 -57 85 -49
130 13 67 92 104 154 72z m-1383 -5 c3 -5 20 -7 38 -5 23 4 41 -1 67 -18 29
-20 41 -23 64 -15 38 13 93 -13 102 -48 3 -13 -2 -60 -12 -102 -17 -68 -22
-78 -43 -81 -24 -4 -24 -3 -16 50 4 29 8 71 9 93 1 37 -1 40 -27 43 -36 4 -53
-10 -61 -50 -17 -84 -27 -108 -46 -108 -29 0 -32 14 -14 90 20 89 16 102 -33
98 l-38 -3 -19 -77 c-15 -63 -22 -78 -38 -78 -10 0 -21 7 -24 15 -5 12 14 124
32 188 6 18 48 24 59 8z m1073 -15 c6 -14 21 -26 33 -28 32 -4 35 -26 5 -38
-24 -9 -26 -13 -20 -52 10 -66 21 -86 46 -90 42 -6 27 -33 -20 -36 -40 -3 -43
-1 -56 30 -8 18 -17 54 -21 80 -5 34 -13 49 -26 53 -19 6 -27 45 -9 45 6 0 10
8 10 18 0 20 18 42 35 42 7 0 17 -11 23 -24z m-503 -78 c46 -36 45 -139 -2
-185 -22 -23 -30 -25 -79 -20 l-54 6 0 -33 c0 -38 -21 -61 -46 -52 -14 5 -16
19 -10 104 4 53 9 120 12 148 l6 51 74 0 c59 1 79 -3 99 -19z m339 -15 c3 -21
6 -70 6 -110 0 -74 -8 -89 -42 -71 -11 5 -25 5 -37 -2 -33 -17 -86 -12 -107
11 -15 17 -20 40 -22 110 -4 89 -4 89 21 89 23 0 25 -4 33 -81 10 -91 22 -107
67 -90 27 10 27 12 27 96 0 83 1 85 24 85 19 0 24 -6 30 -37z"/>
<path d="M2945 5566 c-20 -15 -15 -43 10 -52 21 -9 65 23 65 46 0 15 -7 20
-28 20 -16 0 -37 -6 -47 -14z"/>
<path d="M2329 5577 c-30 -15 -37 -63 -14 -106 32 -63 116 -24 99 45 -13 55
-47 79 -85 61z"/>
<path d="M3896 5468 c-41 -63 -27 -118 29 -118 28 0 37 6 50 30 18 35 20 81 3
98 -20 20 -66 14 -82 -10z"/>
<path d="M1722 5240 c-26 -24 -29 -58 -6 -67 24 -9 68 39 59 66 -8 26 -25 27
-53 1z"/>
<path d="M2835 5244 c-536 -44 -1010 -258 -1394 -629 -369 -357 -589 -785
-660 -1285 -53 -369 -28 -684 80 -1016 47 -143 203 -461 287 -585 104 -155
227 -294 267 -301 12 -2 21 -13 23 -26 4 -25 97 -109 237 -212 127 -94 186
-131 322 -199 154 -77 286 -125 452 -166 223 -55 332 -69 551 -68 305 1 571
50 832 155 138 54 314 147 338 177 8 10 26 21 40 25 39 9 225 152 334 257 585
559 822 1343 646 2139 -70 319 -246 671 -463 929 -423 504 -1019 792 -1667
805 -96 2 -197 2 -225 0z m27 -170 c4 -21 7 -69 7 -106 1 -53 -2 -68 -14 -68
-8 0 -16 13 -19 33 -8 54 -14 176 -8 182 13 13 27 -4 34 -41z m98 -64 c0 -87
-3 -110 -14 -110 -21 0 -26 23 -26 126 0 87 1 94 20 94 19 0 20 -7 20 -110z
m97 94 c9 -24 -11 -197 -23 -201 -19 -6 -23 21 -17 121 5 72 9 96 20 96 7 0
16 -7 20 -16z m93 -53 c0 -88 -11 -151 -26 -151 -7 0 -15 3 -17 8 -6 10 9 188
18 201 14 23 25 -2 25 -58z m-390 57 c16 -112 26 -205 23 -210 -9 -16 -31 -7
-36 15 -10 43 -19 175 -13 186 6 10 25 16 26 9z m479 -107 c-9 -94 -20 -124
-38 -105 -11 10 4 155 20 193 19 46 27 6 18 -88z m-563 24 c23 -119 24 -136 8
-142 -8 -3 -17 -3 -20 -1 -5 5 -33 171 -34 196 0 8 8 12 17 10 12 -2 21 -20
29 -63z m664 46 c0 -43 -22 -177 -31 -185 -6 -6 -13 -6 -19 0 -8 8 9 144 25
192 7 19 25 14 25 -7z m-750 -97 c16 -70 19 -99 11 -107 -7 -7 -14 -8 -21 -1
-12 12 -50 191 -42 199 19 19 32 -4 52 -91z m843 75 c-13 -129 -37 -199 -59
-176 -9 9 39 198 50 194 6 -2 10 -10 9 -18z m-937 -89 c29 -103 30 -123 7
-118 -12 2 -23 28 -40 93 -27 108 -28 117 -7 113 12 -2 24 -29 40 -88z m1034
79 c0 -6 -9 -51 -21 -100 -15 -65 -25 -89 -36 -89 -12 0 -14 7 -9 32 13 67 47
168 56 168 6 0 10 -5 10 -11z m-1120 -115 c28 -91 29 -104 5 -104 -9 0 -23 32
-39 84 -27 88 -30 108 -19 120 12 12 24 -11 53 -100z m1187 -18 c-22 -74 -47
-111 -47 -71 0 26 30 126 48 160 27 50 26 2 -1 -89z m-1279 -7 c32 -86 35
-125 11 -117 -10 3 -78 177 -79 201 0 4 8 7 18 7 12 0 26 -24 50 -91z m1367
-19 c-17 -50 -32 -80 -41 -80 -8 0 -14 4 -14 9 0 12 48 139 63 165 24 43 19
-13 -8 -94z m-1453 -15 c42 -98 46 -118 21 -113 -20 4 -96 175 -88 196 10 27
29 4 67 -83z m1538 -24 c-17 -45 -35 -81 -40 -81 -22 0 -17 25 21 107 51 106
63 89 19 -26z m-1625 -12 c44 -90 47 -109 21 -109 -16 0 -100 176 -91 190 14
22 28 6 70 -81z m1713 -16 c-31 -73 -58 -104 -58 -68 0 9 19 54 42 98 52 100
63 79 16 -30z m-1789 -43 c22 -42 38 -80 34 -84 -17 -17 -33 1 -78 85 -38 73
-45 93 -34 100 17 11 26 -1 78 -101z m1873 5 c-38 -79 -62 -106 -62 -69 0 15
36 84 73 137 36 52 30 18 -11 -68z m-1964 -33 c29 -49 52 -91 52 -94 0 -3 -7
-8 -15 -11 -18 -7 -120 156 -111 178 10 27 21 16 74 -73z m2051 -3 c-41 -76
-62 -100 -76 -86 -3 3 5 23 18 44 37 62 91 134 96 129 3 -3 -15 -42 -38 -87z
m-2134 -41 c30 -46 55 -88 55 -95 0 -34 -35 -5 -84 69 -42 62 -53 85 -44 95 6
7 12 13 14 13 2 0 28 -37 59 -82z m2221 5 c-45 -76 -72 -110 -82 -100 -4 4 19
46 51 94 65 95 86 100 31 6z m-1807 32 c3 -12 -13 -9 -17 4 -2 7 0 11 6 7 5
-3 10 -8 11 -11z m805 -28 c9 -15 7 -21 -9 -33 -22 -16 -34 -14 -49 8 -7 12
-6 21 4 33 16 19 39 16 54 -8z m1126 9 c0 -8 -15 -32 -34 -55 -19 -22 -44 -57
-56 -76 -12 -19 -26 -35 -31 -35 -16 0 -9 26 17 61 14 19 34 53 45 77 13 29
24 42 39 42 11 0 20 -6 20 -14z m-2418 -77 c60 -78 69 -99 41 -99 -22 1 -137
155 -128 170 12 19 29 5 87 -71z m-76 -54 c60 -76 68 -95 47 -102 -14 -5 -145
155 -137 168 13 21 35 5 90 -66z m2564 68 c0 -12 -110 -153 -120 -153 -20 0
-8 23 48 90 52 64 72 81 72 63z m-2636 -129 c68 -78 74 -88 54 -100 -10 -7
-94 77 -134 133 -15 21 -12 43 5 43 5 0 38 -34 75 -76z m2710 64 c-17 -30
-117 -148 -125 -148 -21 0 -5 29 52 93 33 37 65 67 70 67 6 0 7 -6 3 -12z
m-1183 -39 c11 -28 10 -33 -6 -45 -22 -17 -44 -18 -80 -4 -57 22 -32 80 35 80
33 0 39 -4 51 -31z m-1597 -88 c51 -52 67 -74 62 -87 -6 -15 -20 -5 -81 56
-41 41 -75 80 -75 87 0 27 28 10 94 -56z m2844 51 c-40 -57 -118 -133 -128
-127 -8 5 11 31 56 76 65 66 100 90 72 51z m-2322 -29 c4 -14 2 -33 -3 -42
-13 -20 -60 -26 -79 -10 -33 28 -4 79 47 79 23 0 30 -5 35 -27z m-582 -93 c55
-54 68 -72 59 -81 -10 -10 -29 3 -88 55 -41 37 -75 74 -75 82 0 30 35 11 104
-56z m2919 -2 c-40 -40 -76 -69 -80 -64 -9 9 121 136 140 136 6 0 -21 -32 -60
-72z m-2983 -67 c56 -52 72 -72 64 -81 -9 -9 -30 4 -85 51 -81 69 -90 79 -83
91 11 17 32 5 104 -61z m3043 -13 c-66 -66 -93 -78 -93 -43 0 8 12 22 28 32
15 10 49 35 76 56 27 21 51 35 54 32 4 -3 -26 -38 -65 -77z m121 -9 c-39 -44
-136 -119 -146 -113 -13 8 -1 19 82 83 69 53 96 65 64 30z m-3228 -45 c69 -53
86 -75 66 -88 -10 -6 -172 120 -172 134 0 23 37 7 106 -46z m1735 -5 c16 -8
18 -13 8 -25 -13 -16 -13 -16 16 -32 18 -9 17 -11 -15 -24 l-33 -14 31 -15 31
-15 -35 -13 c-43 -16 -66 -2 -48 27 9 14 6 22 -15 42 -22 21 -24 25 -8 28 9 2
17 11 17 21 0 32 17 39 51 20z m-1800 -64 c85 -61 96 -72 82 -86 -9 -9 -183
104 -183 120 0 8 11 21 18 21 2 0 39 -25 83 -55z m3369 50 c0 -7 -152 -125
-161 -125 -27 0 1 31 68 78 71 48 93 59 93 47z m-3397 -144 c66 -42 76 -54 57
-66 -10 -6 -151 78 -171 102 -18 21 0 36 24 20 12 -8 52 -33 90 -56z m3447 61
c0 -11 -145 -112 -160 -112 -26 0 0 26 71 71 76 49 89 55 89 41z m-678 -19
c19 -17 23 -40 10 -61 -12 -19 -60 2 -71 30 -16 43 25 64 61 31z m-711 -16
c-13 -13 -26 -3 -16 12 3 6 11 8 17 5 6 -4 6 -10 -1 -17z m-556 -27 c-5 -8
-11 -8 -17 -2 -6 6 -7 16 -3 22 5 8 11 8 17 2 6 -6 7 -16 3 -22z m255 -27 c0
-23 39 -63 62 -63 10 0 20 -10 24 -25 8 -33 -1 -55 -23 -55 -23 0 -63 -39 -63
-62 0 -14 -8 -18 -37 -18 -33 0 -40 5 -53 33 -8 17 -24 34 -35 36 -31 5 -45
21 -45 52 0 23 6 32 27 40 38 14 63 38 63 61 0 14 8 18 40 18 31 0 40 -4 40
-17z m1740 3 c-12 -15 -153 -106 -164 -106 -3 0 -6 6 -6 14 0 8 37 35 83 60
86 48 107 55 87 32z m-3563 -43 c76 -44 96 -64 75 -77 -13 -8 -182 94 -182
110 0 23 19 17 107 -33z m1083 18 c0 -11 -15 -37 -34 -57 -30 -32 -37 -36 -50
-25 -26 21 -20 51 9 51 20 0 25 5 25 25 0 20 5 25 25 25 18 0 25 -5 25 -19z
m-210 -11 c0 -5 -4 -10 -9 -10 -6 0 -13 5 -16 10 -3 6 1 10 9 10 9 0 16 -4 16
-10z m520 -12 c19 12 20 10 20 -51 0 -67 13 -91 55 -99 11 -2 27 -19 36 -38
16 -33 198 -210 216 -210 4 0 14 4 22 9 11 7 -17 42 -122 152 l-137 142 1 51
2 51 6 -45 c7 -42 19 -56 169 -206 89 -89 162 -154 162 -145 0 15 118 135 264
271 84 78 52 37 -96 -121 -125 -134 -128 -138 -127 -180 1 -39 2 -40 8 -14 4
22 45 67 154 170 233 218 231 205 -3 -38 -68 -70 -73 -79 -62 -97 15 -25 0
-60 -25 -60 -14 0 -14 -2 3 -15 19 -15 19 -15 0 -30 -11 -8 -26 -15 -33 -15
-23 0 -14 -15 16 -26 l29 -11 -6 -94 -5 -93 59 52 c32 29 88 67 124 84 36 16
77 36 92 44 14 8 39 14 55 14 16 0 34 5 40 11 8 8 23 7 55 -4 23 -8 75 -21
113 -27 39 -7 72 -16 75 -19 3 -3 30 -25 61 -48 31 -23 70 -62 87 -88 26 -39
29 -50 19 -66 -6 -10 -17 -19 -23 -19 -22 0 -114 -53 -114 -65 0 -13 183 -195
197 -195 5 0 18 6 29 14 18 13 19 30 21 247 3 247 3 249 52 249 13 0 21 3 17
8 -4 4 -24 7 -44 7 -44 0 -52 20 -26 73 16 34 17 35 25 14 8 -22 49 -32 49
-12 0 21 16 9 27 -21 12 -31 8 -59 -9 -59 -5 0 -6 -5 -3 -11 5 -7 92 -9 271
-7 215 2 266 0 273 -11 5 -7 12 -54 15 -105 4 -50 14 -110 23 -134 13 -36 15
-75 10 -250 -5 -201 -25 -346 -56 -425 -6 -16 -11 -39 -11 -52 0 -14 -9 -41
-19 -62 -11 -21 -36 -78 -56 -128 -20 -49 -53 -119 -72 -154 -20 -36 -36 -78
-37 -95 -1 -24 -6 -32 -23 -34 -11 -2 -33 -21 -48 -42 -15 -21 -33 -41 -40
-44 -7 -2 -53 27 -102 65 -48 38 -91 69 -95 69 -21 0 -2 43 63 142 90 138 181
339 160 353 -5 3 -76 5 -158 4 -81 0 -156 3 -165 6 -16 6 -18 23 -18 146 l0
139 -25 -6 c-19 -5 -25 -2 -25 11 0 11 7 15 22 13 29 -4 34 18 8 32 -12 7 -94
82 -181 168 -88 87 -169 160 -182 164 -12 4 -35 10 -52 14 -18 4 -24 8 -15 11
44 13 45 15 24 23 -12 5 -49 6 -84 3 -179 -17 -279 -219 -198 -403 39 -90 102
-134 210 -143 56 -5 71 -3 89 12 22 18 23 19 5 45 -9 15 -36 45 -58 67 -23 22
-38 42 -35 45 9 9 118 -87 128 -113 10 -26 34 -22 50 8 8 16 -2 31 -62 96 -40
43 -83 82 -95 86 -24 9 -33 27 -14 27 24 0 69 -32 130 -94 53 -55 70 -66 97
-66 18 0 33 3 33 8 0 4 -49 56 -109 116 -96 96 -112 108 -135 102 -20 -5 -24
-3 -20 9 4 9 19 15 38 15 28 0 48 -16 144 -113 72 -74 112 -122 112 -135 0
-24 43 -58 60 -47 5 3 10 21 10 38 0 28 -19 50 -157 185 -125 122 -163 152
-180 149 -12 -2 -20 0 -17 4 3 5 21 9 40 9 32 0 48 -13 177 -146 l142 -146 8
-61 c9 -76 9 -68 1 -150 -6 -61 -5 -71 16 -100 l23 -32 -26 24 c-21 19 -27 34
-27 68 0 24 -4 43 -9 43 -5 0 -23 -16 -40 -35 -40 -46 -40 -81 -1 -130 40 -50
38 -57 -5 -15 -23 23 -35 43 -35 61 0 36 -15 44 -45 25 -21 -14 -25 -24 -25
-67 0 -46 5 -56 47 -107 l47 -57 -57 55 c-52 49 -57 58 -57 97 0 48 -6 54 -37
42 -21 -8 -23 -15 -23 -89 l0 -81 46 -49 c59 -63 49 -65 -16 -4 l-50 47 0 79
c0 89 -8 98 -67 80 -27 -8 -45 -8 -77 3 -22 7 -58 17 -80 21 -55 10 -161 71
-215 126 -26 26 -64 76 -85 113 -35 58 -41 64 -55 52 -48 -41 -156 -47 -308
-18 -54 11 -113 19 -131 19 -37 -1 -37 0 -49 -178 l-8 -115 -80 -3 c-63 -2
-83 -7 -98 -22 -10 -11 -23 -20 -28 -20 -6 0 -60 -47 -119 -105 -59 -58 -111
-105 -115 -105 -3 0 38 47 92 105 53 58 101 114 105 125 4 11 12 20 18 20 5 0
10 5 10 10 0 20 -41 -11 -125 -91 -45 -43 -85 -79 -89 -79 -4 0 37 47 91 105
54 58 100 110 101 115 10 29 -31 0 -127 -87 -114 -105 -111 -96 10 33 42 45
85 94 95 110 9 16 24 34 31 40 11 9 10 13 -7 17 -17 4 -45 -17 -128 -96 -59
-55 -132 -124 -162 -151 -55 -51 -54 -50 8 14 34 36 62 71 62 77 0 30 -57 -12
-186 -139 -77 -76 -146 -138 -153 -138 -6 0 39 52 101 116 62 63 115 120 117
126 6 16 -72 -1 -82 -18 -9 -16 -37 -19 -37 -4 0 17 -43 28 -61 17 -12 -7 -23
-4 -45 11 -36 26 -80 37 -88 23 -12 -18 -36 -12 -36 9 0 12 -15 29 -37 44 -68
43 -85 64 -72 88 26 48 82 118 94 118 7 0 26 -10 42 -23 81 -65 193 -96 279
-77 27 6 57 17 67 24 19 15 37 63 30 83 -7 20 -124 71 -193 83 -93 17 -167 48
-231 97 -54 42 -56 46 -69 112 -15 83 -3 150 40 209 15 21 31 48 34 60 5 15
15 22 33 22 15 0 35 8 45 17 10 9 28 18 41 20 12 1 65 8 117 15 l95 13 1 30
c2 49 3 53 20 59 15 6 74 -22 74 -35 0 -11 -52 -59 -64 -59 -6 0 -3 -5 7 -11
9 -5 22 -7 28 -4 6 4 19 -1 30 -11 17 -15 35 -16 158 -11 139 5 191 15 141 27
-32 8 -42 50 -11 50 11 0 23 -4 26 -10 22 -36 84 26 85 83 0 45 23 47 28 4 5
-44 25 -31 20 13 -2 22 -2 40 0 40 1 0 13 -7 26 -16 24 -15 44 -5 31 16 -10
16 11 12 25 -5 14 -17 50 -20 50 -5 0 6 -39 51 -87 100 -49 50 -83 90 -78 90
6 0 58 -45 117 -100 98 -92 138 -118 138 -89 0 6 -43 58 -95 115 -74 81 -95
110 -94 132 l1 27 9 -30 c8 -30 186 -205 207 -205 15 0 23 30 12 49 -11 22
-87 91 -99 91 -14 0 -61 89 -61 115 0 12 -7 29 -16 36 -14 11 -19 10 -35 -10
l-19 -23 0 51 c0 49 1 51 20 39 16 -10 24 -10 40 0z m1039 -7 c20 -13 -2 -22
-39 -15 -22 5 -28 9 -18 15 17 11 39 11 57 0z m-2465 -78 c116 -64 97 -89 -22
-29 -84 43 -107 60 -98 74 8 14 28 6 120 -45z m863 22 l21 -34 -39 21 c-40 21
-53 48 -21 48 9 -1 27 -16 39 -35z m2789 28 c-25 -25 -172 -101 -180 -93 -12
12 -15 11 79 58 73 37 120 53 101 35z m-2846 -49 c15 -38 13 -43 -17 -35 -31
8 -43 39 -21 52 21 14 28 11 38 -17z m1718 0 c5 -35 -21 -48 -75 -35 -117 26
-113 24 -49 33 33 4 64 12 70 18 17 17 51 7 54 -16z m242 8 c0 -5 -47 -52
-104 -105 l-104 -97 -123 0 -123 0 -52 -54 c-32 -33 -54 -65 -56 -82 -3 -25
-7 -28 -43 -28 -53 -1 -61 27 -13 47 18 8 58 40 88 71 l54 56 135 0 135 0 94
100 c88 93 112 113 112 92z m-1063 -103 c12 -15 36 -32 53 -39 18 -8 30 -20
30 -31 0 -26 -37 -25 -45 1 -3 11 -12 26 -18 32 -7 7 -39 42 -72 78 -45 49
-49 55 -16 25 25 -22 55 -52 68 -66z m867 36 c-20 -25 -48 -48 -61 -51 -13 -4
-64 -3 -113 0 -111 9 -134 3 -125 -31 8 -34 -11 -56 -37 -42 -18 10 -28 3 -80
-48 -53 -52 -58 -61 -53 -90 6 -35 -8 -51 -30 -33 -9 7 -15 8 -20 0 -11 -18
-35 -11 -35 10 0 13 27 45 67 83 37 34 91 85 120 113 l52 51 126 6 c124 7 126
7 172 42 25 19 48 35 50 35 2 0 -12 -20 -33 -45z m-2626 -16 c85 -39 118 -69
74 -69 -32 0 -182 78 -182 95 0 21 4 20 108 -26z m3752 36 c0 -12 -180 -94
-186 -84 -8 14 -9 13 77 53 68 32 109 43 109 31z m-1727 -57 c-17 -18 -34 -43
-38 -55 -8 -29 -45 -31 -45 -3 0 12 9 22 24 26 13 3 36 19 52 35 15 16 30 29
33 29 3 0 -9 -15 -26 -32z m835 7 c2 -14 -9 -26 -37 -42 -22 -13 -42 -23 -44
-23 -6 0 15 60 27 78 12 20 51 10 54 -13z m932 -34 c0 -14 -172 -92 -188 -86
-25 9 -2 23 94 60 105 40 94 37 94 26z m-3827 -37 c93 -40 99 -45 89 -61 -6
-9 -26 -6 -82 13 -101 34 -120 44 -120 66 0 26 21 23 113 -18z m1097 -25 c0
-5 -7 -9 -15 -9 -15 0 -20 12 -9 23 8 8 24 -1 24 -14z m82 -29 c5 -31 -11 -45
-42 -35 -12 4 -15 13 -12 35 3 23 9 30 27 30 18 0 24 -7 27 -30z m-248 -65
c-8 -19 -77 -20 -92 -2 -7 8 -7 19 2 36 9 15 16 20 20 12 12 -18 34 -13 42 11
6 20 7 19 20 -11 7 -17 11 -38 8 -46z m2934 63 c-6 -16 -175 -81 -193 -74 -8
3 -15 15 -15 26 0 16 5 19 23 15 12 -3 56 5 97 19 87 29 93 30 88 14z m-3903
-29 c79 -29 108 -50 91 -66 -3 -4 -30 1 -59 9 -28 9 -63 19 -77 22 -35 8 -74
41 -66 55 10 16 15 15 111 -20z m1129 15 c18 -7 12 -24 -10 -24 -8 0 -14 7
-14 15 0 17 2 18 24 9z m204 -77 c2 -11 -3 -17 -16 -17 -26 0 -34 11 -20 27
14 17 32 12 36 -10z m1690 1 c-2 -13 -10 -23 -18 -23 -8 0 -16 10 -18 23 -3
17 2 22 18 22 16 0 21 -5 18 -22z m70 0 c-2 -13 -10 -23 -18 -23 -8 0 -16 10
-18 23 -3 17 2 22 18 22 16 0 21 -5 18 -22z m248 -42 c22 -48 24 -86 5 -86
-10 0 -61 104 -61 123 0 36 32 15 56 -37z m599 39 c0 -13 -185 -77 -204 -70
-25 10 4 28 92 57 84 27 112 30 112 13z m-3976 -21 c92 -29 122 -47 105 -64
-7 -7 -42 -1 -108 19 -54 16 -100 32 -103 35 -7 6 4 36 13 36 3 0 45 -12 93
-26z m787 -22 c13 -32 13 -32 -11 -26 -22 5 -25 3 -25 -20 0 -30 0 -29 -34
-16 -31 11 -34 35 -6 52 11 7 20 18 20 25 0 12 19 23 33 19 5 -1 15 -16 23
-34z m1641 8 c-13 -36 -37 -40 -37 -7 0 28 7 37 31 37 15 0 16 -4 6 -30z m358
6 c0 -22 -14 -29 -34 -17 -19 12 -6 43 16 39 10 -2 18 -12 18 -22z m135 -36
c0 -10 -6 -23 -14 -29 -7 -6 -11 -22 -8 -36 4 -22 1 -25 -22 -25 -21 0 -26 5
-26 25 0 14 5 25 11 25 6 0 9 9 6 20 -6 24 18 51 38 44 8 -4 15 -14 15 -24z
m388 8 c-3 -7 -11 -13 -18 -13 -7 0 -15 6 -17 13 -3 7 4 12 17 12 13 0 20 -5
18 -12z m690 -35 c-2 -13 -29 -25 -98 -44 -97 -27 -110 -28 -110 -5 0 9 36 23
98 39 120 31 114 31 110 10z m-4005 -24 c68 -18 87 -27 87 -41 0 -22 -11 -22
-103 -3 -40 9 -82 18 -94 21 -14 2 -23 12 -23 23 0 23 11 33 30 28 8 -3 54
-15 103 -28z m708 -26 c7 -18 5 -23 -9 -23 -28 0 -45 16 -38 35 8 22 37 15 47
-12z m-296 -483 l0 -445 -95 0 -95 0 -3 434 c-2 318 1 437 9 448 9 10 34 13
98 11 l86 -3 0 -445z m3625 435 c0 -8 -12 -17 -27 -21 -16 -3 -53 -12 -84 -20
-79 -19 -111 -18 -107 3 2 13 24 22 83 34 105 22 135 23 135 4z m-4061 -14
c90 -21 105 -29 92 -50 -7 -11 -26 -10 -112 5 -93 17 -104 22 -107 42 -4 28
13 28 127 3z m601 9 c0 -5 -4 -10 -10 -10 -5 0 -10 5 -10 10 0 6 5 10 10 10 6
0 10 -4 10 -10z m3476 -81 c11 -19 -12 -30 -87 -45 -89 -17 -126 -18 -135 -3
-11 19 9 28 96 43 108 18 117 18 126 5z m-4115 -15 c110 -20 119 -23 119 -39
0 -24 -18 -27 -98 -15 -123 17 -132 20 -132 39 0 36 2 36 111 15z m4129 -79
c19 -23 3 -34 -66 -45 -117 -19 -187 -9 -155 23 6 6 53 17 104 23 50 6 95 12
98 13 4 0 12 -6 19 -14z m-4067 -22 c40 -6 58 -26 40 -44 -13 -13 -215 8 -224
23 -4 6 -5 18 -2 26 5 12 20 13 77 8 39 -4 88 -9 109 -13z m4084 -79 c11 -28
-15 -37 -121 -42 -92 -4 -106 -2 -112 12 -9 24 0 30 59 37 104 13 167 10 174
-7z m-4093 -10 c36 -5 46 -11 46 -26 0 -27 -14 -29 -125 -21 -93 7 -100 9
-103 31 -3 21 0 22 66 22 38 0 90 -3 116 -6z m4096 -93 c0 -27 -18 -31 -130
-31 -74 0 -99 3 -103 14 -11 28 17 36 125 36 99 0 108 -2 108 -19z m-4121 2
c64 -6 89 -25 60 -44 -19 -13 -212 0 -221 14 -21 34 34 44 161 30z m4114 -92
c22 -22 -8 -31 -108 -31 -105 0 -123 6 -111 37 6 14 20 15 108 10 56 -4 106
-11 111 -16z m-4059 3 c24 -9 20 -43 -6 -49 -13 -3 -63 -5 -113 -3 -82 3 -90
5 -90 23 0 17 9 21 55 26 82 9 136 10 154 3z m4004 -90 c43 -5 53 -9 50 -22
-3 -15 -16 -17 -103 -14 -103 4 -122 10 -112 36 6 16 9 16 165 0z m-3990 -21
c-4 -21 -53 -32 -150 -32 -61 -1 -90 10 -73 27 8 8 93 19 168 21 51 1 58 -1
55 -16z m4008 -79 c13 -4 24 -13 24 -21 0 -14 -13 -15 -87 -9 -111 9 -133 14
-133 34 0 13 12 14 86 8 48 -3 97 -9 110 -12z m-4001 -14 c0 -17 -48 -27 -151
-32 -56 -2 -69 0 -69 12 0 11 20 18 75 27 97 15 145 12 145 -7z m2955 -64 c0
-21 -21 -31 -30 -15 -5 7 -6 17 -4 21 9 14 34 9 34 -6z m961 -7 c87 -13 109
-23 93 -39 -7 -7 -39 -6 -108 4 -54 8 -100 17 -103 20 -12 12 8 37 24 32 10
-2 52 -10 94 -17z m-3903 -16 c-3 -14 -24 -22 -98 -35 -52 -9 -101 -15 -107
-13 -26 9 -13 34 20 40 17 3 52 10 77 14 80 15 112 13 108 -6z m3911 -82 c66
-16 94 -41 48 -41 -36 0 -180 30 -191 40 -4 5 -5 13 -1 19 7 13 38 9 144 -18z
m-3891 -4 c3 -17 -18 -25 -140 -50 -54 -12 -70 -12 -78 -2 -16 20 6 31 105 53
100 22 109 22 113 -1z m3846 -82 c97 -27 105 -30 89 -46 -7 -7 -40 -2 -107 15
-105 26 -111 29 -101 45 9 15 18 14 119 -14z m-3827 -1 c8 -21 -6 -29 -103
-53 -103 -26 -114 -26 -114 -2 0 20 5 22 140 59 52 15 70 14 77 -4z m708 -44
c9 0 15 10 15 26 0 22 3 25 23 20 12 -3 25 -6 30 -6 4 0 7 -7 7 -15 0 -16 -61
-85 -74 -85 -4 0 -16 -10 -26 -22 -20 -25 -33 -19 -44 18 -6 19 -3 21 19 16
20 -3 25 0 25 17 0 12 -11 31 -25 43 -13 11 -22 25 -18 31 3 5 16 -3 30 -17
13 -14 30 -26 38 -26z m-87 -18 c2 -7 -3 -12 -12 -12 -9 0 -16 7 -16 16 0 17
22 14 28 -4z m763 6 c1 -7 2 -22 3 -32 2 -28 25 -31 35 -4 9 21 10 21 10 3 2
-44 -43 -59 -74 -25 -15 17 -16 24 -7 45 12 26 31 34 33 13z m2422 -34 c50
-16 87 -34 87 -41 0 -7 -8 -13 -17 -13 -20 0 -183 47 -191 54 -9 10 8 38 21
33 6 -2 51 -17 100 -33z m-3783 11 c6 -8 9 -19 5 -24 -8 -15 -203 -73 -216
-66 -5 4 -9 14 -7 23 2 11 35 27 98 49 115 38 105 36 120 18z m3056 -6 c12
-20 -11 -28 -69 -22 -67 7 -75 20 -14 26 23 2 50 4 59 5 9 1 20 -3 24 -9z
m-1149 -133 l6 -106 -113 -108 c-62 -59 -117 -109 -124 -111 -6 -2 38 47 97
109 l107 114 2 90 c0 50 0 102 -1 116 -2 19 0 22 9 13 7 -6 14 -56 17 -117z
m97 87 c3 -21 6 -79 6 -129 0 -71 4 -94 16 -105 26 -21 31 3 26 116 -3 74 -1
105 7 105 7 0 11 -26 11 -76 l0 -76 72 -77 c133 -139 146 -158 65 -87 -64 56
-82 67 -102 62 -14 -4 -25 -11 -25 -17 0 -6 24 -36 53 -67 95 -103 93 -108 -8
-15 -150 137 -137 112 -139 268 -2 133 5 172 18 98z m513 -101 l68 -77 -75 66
c-67 59 -75 70 -77 105 -2 36 -1 37 7 11 5 -16 39 -63 77 -105z m-1238 72 c37
-47 22 -94 -29 -94 -47 0 -62 37 -40 94 12 34 43 33 69 0z m387 -7 c-5 -20
-237 -249 -276 -272 -8 -5 37 46 100 114 63 67 129 137 145 155 34 37 40 37
31 3z m63 -22 c1 -19 -91 -115 -239 -250 -70 -64 -43 -31 97 119 84 90 113
128 118 155 6 31 9 33 15 16 5 -11 9 -29 9 -40z m60 -23 c1 -42 -2 -46 -106
-146 -60 -57 -124 -116 -143 -132 -38 -30 -12 0 143 162 70 74 77 85 77 122 0
22 3 48 7 58 6 16 7 16 14 -2 4 -10 8 -38 8 -62z m55 41 c15 -91 11 -100 -71
-185 -43 -44 -105 -103 -138 -131 l-60 -51 50 55 c28 30 83 88 123 130 l72 77
0 71 c0 76 13 95 24 34z m108 -10 c2 -27 2 -81 0 -121 l-5 -72 -128 -121 c-71
-67 -129 -118 -129 -115 0 4 54 63 121 132 l121 126 -3 66 c-4 98 0 152 10
152 5 0 11 -21 13 -47z m177 -39 l1 -52 138 -139 c75 -77 163 -161 195 -187
55 -45 72 -79 45 -89 -7 -2 -21 0 -31 5 -12 6 -22 4 -33 -6 -18 -19 -41 -11
-50 17 -4 12 -25 44 -48 72 l-41 49 53 -42 c53 -41 72 -50 72 -33 0 19 -76
104 -199 222 l-131 126 0 49 c0 27 3 60 7 73 6 23 7 23 14 5 4 -10 8 -42 8
-70z m-568 48 c-11 -16 -77 -82 -148 -147 -145 -135 -132 -115 37 58 112 114
152 146 111 89z m619 -25 c0 -22 20 -50 86 -120 48 -51 103 -107 123 -126 199
-189 202 -193 191 -206 -15 -18 -40 -8 -40 15 0 10 -88 106 -196 214 -165 165
-195 200 -190 219 3 12 6 31 6 42 0 33 20 -4 20 -38z m1569 22 c83 -32 100
-44 84 -60 -15 -15 -197 53 -201 74 -5 25 24 22 117 -14z m-3714 11 c12 -20
-15 -38 -105 -70 -91 -33 -124 -34 -118 -3 2 11 33 28 93 49 97 36 120 40 130
24z m2345 -34 c0 -27 13 -47 67 -107 70 -77 55 -70 -34 15 -48 46 -53 54 -53
94 0 26 4 41 10 37 6 -3 10 -21 10 -39z m634 2 c8 -14 7 -21 -6 -34 -15 -16
-19 -16 -51 0 -19 9 -48 16 -64 17 -27 1 -27 1 7 11 19 5 44 14 55 18 28 12
46 8 59 -12z m-2265 -25 c-15 -41 -59 -61 -59 -28 0 12 53 55 67 55 1 0 -2
-12 -8 -27z m2963 -39 c94 -40 107 -49 91 -65 -13 -13 -54 -2 -150 42 -47 21
-61 32 -57 43 9 23 22 20 116 -20z m-3647 1 c0 -15 -22 -29 -100 -63 -93 -41
-100 -43 -112 -26 -19 25 -4 37 97 79 93 38 115 40 115 10z m1111 -30 c35 -54
-20 -115 -72 -80 -30 19 -31 58 -4 85 27 27 56 25 76 -5z m1762 -18 c2 -11 -3
-17 -17 -17 -25 0 -38 19 -20 31 19 12 33 6 37 -14z m-2585 4 c43 -16 41 -68
-3 -91 -34 -18 -80 14 -80 56 0 40 33 54 83 35z m3329 -43 c64 -30 88 -46 88
-60 0 -27 -27 -23 -124 22 -66 31 -86 44 -86 60 0 29 24 25 122 -22z m-3577
15 c4 -12 0 -22 -11 -28 -35 -21 -69 -54 -62 -61 4 -4 27 0 50 9 34 14 45 15
55 5 17 -18 7 -29 -62 -70 -106 -63 -125 -71 -141 -57 -23 19 -16 38 21 60 36
22 51 58 18 44 -70 -29 -74 -30 -83 -15 -22 35 -3 51 130 106 67 28 76 29 85
7z m2763 -61 c2 -7 -6 -12 -17 -12 -21 0 -27 11 -14 24 9 9 26 2 31 -12z m772
-37 c68 -34 90 -50 90 -65 0 -32 -33 -25 -126 26 -60 33 -84 51 -84 65 0 28
21 24 120 -26z m-1650 -24 c0 -11 -9 -22 -20 -26 -19 -6 -130 -123 -130 -137
0 -14 104 63 141 105 21 22 42 37 48 33 19 -12 12 -36 -13 -47 -13 -6 -57 -51
-97 -100 -40 -49 -79 -89 -86 -89 -7 0 -19 11 -25 25 -6 14 -17 25 -25 25 -32
0 -7 40 66 105 43 39 86 82 95 98 20 31 46 36 46 8z m-1080 -6 c0 -8 -9 -15
-20 -15 -11 0 -20 7 -20 15 0 8 9 15 20 15 11 0 20 -7 20 -15z m293 -2 c-18
-2 -48 -2 -65 0 -18 2 -4 4 32 4 36 0 50 -2 33 -4z m2378 -39 c102 -59 116
-72 96 -92 -13 -13 -24 -10 -90 27 -107 59 -125 75 -108 95 7 9 15 16 18 16 2
0 40 -21 84 -46z m-3397 9 c4 -9 1 -20 -6 -25 -7 -5 -51 -32 -97 -60 -80 -49
-85 -50 -98 -33 -17 25 -10 31 92 89 90 50 100 53 109 29z m2471 -13 c0 -22
-29 -18 -33 3 -3 14 1 18 15 15 10 -2 18 -10 18 -18z m-1665 -40 c0 -5 -5 -12
-11 -16 -14 -8 -33 11 -25 25 7 11 36 4 36 -9z m1090 0 c0 -11 -2 -20 -4 -20
-2 0 -11 -3 -20 -6 -19 -7 -22 16 -4 34 18 18 28 15 28 -8z m1465 -45 c60 -39
85 -61 85 -75 0 -31 -25 -25 -105 26 -83 51 -100 67 -91 89 8 23 19 19 111
-40z m-3315 18 c0 -26 -170 -136 -187 -121 -7 6 -13 14 -13 18 0 11 170 120
186 120 8 0 14 -8 14 -17z m1896 -32 c-8 -13 -36 -15 -36 -3 0 4 5 13 12 20
14 14 34 0 24 -17z m-1266 -1 c0 -5 -4 -10 -10 -10 -5 0 -10 5 -10 10 0 6 5
10 10 10 6 0 10 -4 10 -10z m2642 -68 c76 -56 93 -83 55 -90 -23 -5 -177 106
-177 128 0 44 18 38 122 -38z m-2398 49 c3 -5 0 -13 -7 -19 -15 -13 -42 1 -33
17 9 13 33 15 40 2z m-826 -23 c3 -18 -163 -142 -178 -133 -23 14 -6 36 73 93
83 62 100 68 105 40z m1897 -28 c4 -6 2 -17 -4 -24 -8 -10 -7 -17 4 -26 14
-11 14 -15 0 -30 -12 -13 -12 -19 -2 -29 9 -10 8 -15 -7 -27 -22 -16 -26 -17
-43 -6 -11 7 -18 60 -15 120 2 28 5 32 31 32 17 0 33 -5 36 -10z m1263 -65
c81 -64 100 -96 66 -109 -18 -7 -184 118 -184 138 0 12 19 36 30 36 3 0 43
-29 88 -65z m-1533 9 c-9 -14 -22 -23 -28 -21 -21 7 -13 41 13 54 31 16 38 1
15 -33z m-1571 3 c-10 -23 -156 -129 -170 -123 -25 10 -15 23 68 90 60 47 85
62 94 55 7 -6 11 -16 8 -22z m2030 27 c9 -3 16 -15 16 -26 0 -27 -30 -20 -41
10 -9 23 -3 27 25 16z m-1421 -43 c79 -59 221 -136 325 -176 198 -76 471 -122
655 -110 l108 7 -3 -43 -3 -44 -63 -3 c-49 -2 -64 -7 -68 -20 -3 -9 -11 -27
-16 -39 -9 -17 -7 -28 7 -49 22 -34 12 -41 -80 -49 -108 -10 -291 13 -455 57
-181 49 -467 197 -609 315 -12 9 123 193 141 193 5 0 32 -18 61 -39z m775 17
c-4 -27 -23 -34 -32 -13 -8 21 1 35 20 35 10 0 14 -8 12 -22z m1649 -76 c84
-73 97 -88 89 -107 -11 -29 -42 -14 -121 59 -71 65 -78 75 -66 90 7 9 17 16
22 16 5 0 39 -26 76 -58z m-1417 28 c-12 -22 -25 -26 -35 -10 -9 15 4 30 26
30 17 0 18 -3 9 -20z m555 0 c0 -22 -29 -18 -33 3 -3 14 1 18 15 15 10 -2 18
-10 18 -18z m-2115 -14 c0 -7 -28 -37 -62 -67 -96 -83 -94 -81 -107 -65 -10
11 3 27 69 85 75 67 100 78 100 47z m2324 -2 c21 -8 21 -53 0 -61 -18 -7 -45
6 -51 24 -2 6 3 18 12 27 19 18 18 18 39 10z m-656 -32 c2 -7 -6 -12 -17 -12
-21 0 -27 11 -14 24 9 9 26 2 31 -12z m1265 -66 c56 -53 76 -77 71 -89 -12
-32 -45 -17 -120 56 -57 54 -74 76 -69 90 12 31 38 18 118 -57z m-2870 48 c12
-12 -12 -41 -83 -104 -54 -48 -74 -60 -83 -51 -8 8 7 29 63 86 71 71 89 83
103 69z m2800 -113 c53 -55 75 -84 71 -95 -3 -9 -14 -16 -23 -16 -18 0 -161
140 -161 157 0 10 21 33 30 33 4 0 41 -36 83 -79z m-2736 42 c4 -11 -134 -163
-148 -163 -5 0 -12 7 -16 16 -4 11 17 39 68 90 70 70 88 81 96 57z m2733 -194
c0 -19 -21 -31 -37 -21 -5 4 -38 38 -71 77 -61 68 -74 98 -49 108 15 7 157
-142 157 -164z m-2667 138 c7 -20 -130 -177 -149 -170 -23 9 -15 25 56 107 64
75 83 88 93 63z m2530 -111 c66 -83 77 -116 38 -116 -14 0 -98 93 -131 146
-15 24 -8 54 13 54 8 0 44 -38 80 -84z m-2459 55 c6 -10 -120 -181 -133 -181
-5 0 -14 6 -20 14 -9 10 3 31 55 95 62 76 85 93 98 72z m2165 -18 c0 -5 -3 -9
-9 -11 -5 -2 -10 4 -10 13 0 16 16 14 19 -2z m222 -96 c61 -81 70 -112 34
-112 -22 0 -121 123 -131 164 -7 24 11 45 29 34 5 -3 36 -41 68 -86z m-2314
58 c3 -10 -112 -178 -126 -183 -4 -1 -13 4 -20 12 -10 11 0 30 51 100 57 79
85 100 95 71z m2236 -110 c32 -47 57 -89 57 -94 0 -5 -7 -15 -16 -22 -14 -11
-19 -10 -35 10 -41 50 -110 171 -104 181 17 27 45 6 98 -75z m-2166 60 c7 -20
-101 -185 -121 -185 -31 0 -25 22 31 109 57 89 78 107 90 76z m2088 -114 c48
-82 54 -105 30 -114 -16 -7 -32 14 -88 111 -39 67 -45 88 -24 95 19 7 32 -9
82 -92z m-2005 63 c0 -13 -56 -115 -92 -166 -20 -28 -48 -29 -48 0 0 17 88
173 103 184 14 9 37 -2 37 -18z m1914 -98 c47 -86 57 -126 31 -126 -22 0 -117
181 -103 197 6 7 14 13 18 13 5 0 29 -38 54 -84z m-1838 62 c11 -17 -87 -198
-108 -198 -34 0 -30 25 18 117 47 90 71 112 90 81z m45 -140 c-44 -96 -55
-110 -78 -101 -20 8 -16 26 27 120 44 95 58 110 79 88 12 -12 8 -27 -28 -107z
m1715 18 c41 -86 44 -116 12 -103 -19 7 -92 173 -84 192 10 27 26 7 72 -89z
m-1599 39 c1 -11 -14 -58 -35 -105 -29 -66 -42 -86 -60 -88 -15 -2 -22 2 -22
12 0 15 52 152 71 188 13 24 43 19 46 -7z m1514 -75 c20 -52 35 -98 32 -102
-9 -16 -34 -7 -42 15 -5 12 -23 53 -41 90 -32 69 -34 101 -3 95 11 -2 30 -36
54 -98z m-1434 39 c3 -28 -57 -191 -72 -196 -5 -1 -16 1 -24 6 -11 7 -9 23 14
92 31 95 51 132 68 126 7 -2 13 -14 14 -28z m1340 -60 c18 -46 32 -94 32 -106
1 -27 -24 -31 -34 -5 -40 100 -65 178 -60 190 11 28 31 3 62 -79z m-1253 52
c7 -11 -18 -127 -38 -174 -18 -41 -43 -58 -56 -37 -8 12 19 124 46 188 12 30
37 42 48 23z m1165 -84 c36 -106 38 -130 14 -125 -11 2 -26 32 -45 88 -31 94
-35 130 -14 130 9 0 26 -34 45 -93z m-1083 13 c-4 -28 -16 -80 -27 -116 -15
-50 -24 -64 -37 -62 -26 5 -34 113 -10 135 9 8 20 29 24 47 9 42 12 46 36 46
19 0 20 -4 14 -50z m998 -52 c19 -73 23 -105 15 -112 -17 -17 -34 16 -58 109
-26 102 -26 105 -3 105 15 0 24 -19 46 -102z m-904 68 c0 -27 -32 -181 -41
-198 -11 -20 -34 -24 -44 -8 -6 10 20 156 36 197 9 25 49 32 49 9z m795 -8 c2
-13 11 -54 20 -91 20 -90 19 -109 -2 -105 -14 2 -23 27 -40 102 -12 55 -20
103 -17 108 10 16 34 7 39 -14z m-710 3 c7 -13 -23 -213 -35 -225 -16 -16 -40
2 -40 31 0 32 27 180 36 194 7 12 31 12 39 0z m639 -112 c20 -119 20 -111 -6
-107 -21 3 -24 13 -39 105 -10 70 -12 106 -5 113 19 19 34 -13 50 -111z m-557
99 c10 -12 1 -150 -12 -205 -6 -24 -40 -32 -47 -11 -5 15 17 202 26 217 9 14
21 14 33 -1z m91 -89 c3 -103 7 -116 27 -99 11 9 15 32 15 80 0 81 6 100 31
100 18 0 19 -9 19 -115 0 -113 0 -115 -23 -115 -13 0 -28 5 -35 12 -9 9 -17 9
-36 -2 -49 -26 -57 -11 -50 97 7 102 17 137 37 130 8 -2 13 -34 15 -88z m267
79 c3 -7 9 -56 14 -108 6 -75 5 -98 -5 -110 -10 -11 -17 -11 -25 -3 -13 13
-25 192 -16 217 8 19 26 21 32 4z m102 -73 c16 -108 16 -132 -2 -139 -23 -9
-33 22 -41 128 -7 93 -6 98 12 94 16 -3 21 -18 31 -83z m-182 -29 c8 -110 5
-126 -24 -126 -16 0 -19 12 -23 103 -6 114 -4 127 22 127 16 0 19 -13 25 -104z"/>
<path d="M2702 3590 c0 -14 2 -19 5 -12 2 6 2 18 0 25 -3 6 -5 1 -5 -13z"/>
<path d="M2805 3590 c-3 -5 -1 -10 4 -10 6 0 11 5 11 10 0 6 -2 10 -4 10 -3 0
-8 -4 -11 -10z"/>
<path d="M2210 3411 c0 -6 20 -24 45 -41 36 -25 54 -31 88 -28 29 2 41 7 39
17 -1 7 2 19 9 27 15 18 5 21 -98 28 -52 4 -83 3 -83 -3z"/>
<path d="M2269 3288 c-36 -38 -54 -68 -40 -68 5 0 13 5 16 10 3 6 28 10 55 10
58 0 80 7 80 26 0 8 5 14 10 14 22 0 8 19 -21 29 -50 17 -69 13 -100 -21z"/>
<path d="M1860 3265 c-7 -8 -19 -15 -26 -15 -18 0 -30 -48 -17 -69 22 -37 84
-55 201 -59 113 -4 114 -4 143 24 16 15 29 30 29 33 0 13 -71 51 -95 51 -14 0
-25 5 -25 11 0 34 -184 55 -210 24z"/>
<path d="M4293 3254 c-3 -8 -1 -29 4 -47 9 -29 11 -30 18 -12 10 23 26 36 37
29 4 -3 10 -31 14 -64 l7 -60 63 0 64 0 0 66 c0 100 -4 104 -111 104 -72 0
-91 -3 -96 -16z"/>
<path d="M4527 3254 c-3 -4 -2 -15 4 -25 13 -25 79 -27 79 -3 0 10 -6 13 -19
9 -10 -3 -24 1 -31 10 -13 16 -23 19 -33 9z"/>
<path d="M2210 3165 c-61 -56 -65 -58 -112 -55 -41 2 -34 -15 12 -34 60 -24
71 -21 125 34 40 41 56 50 85 50 19 1 46 7 59 14 l24 13 -24 17 c-13 9 -43 16
-66 16 -38 0 -50 -6 -103 -55z"/>
<path d="M2256 3097 c-31 -41 -33 -50 -6 -42 15 5 28 -2 49 -24 33 -35 46 -37
87 -16 23 12 25 15 11 21 -22 8 -22 23 1 40 15 12 15 13 1 14 -9 0 -19 9 -22
20 -4 16 -14 20 -51 20 -39 0 -48 -4 -70 -33z"/>
<path d="M2298 2964 c-3 -3 0 -29 8 -57 8 -29 14 -62 14 -74 0 -13 4 -23 9
-23 17 0 59 63 53 78 -3 8 2 20 12 27 14 11 15 13 1 19 -8 3 -15 12 -15 21 0
11 -11 15 -38 15 -21 0 -41 -3 -44 -6z"/>
<path d="M4323 2913 c-27 -5 -36 -42 -31 -123 l3 -55 89 0 c63 0 91 4 94 13 2
6 -3 12 -12 12 -9 0 -16 5 -16 10 0 6 9 10 20 10 12 0 21 8 24 23 12 60 13 96
3 106 -11 11 -126 13 -174 4z"/>
<path d="M2331 2765 c-45 -51 -41 -81 4 -33 19 21 35 45 35 53 0 21 -4 19 -39
-20z"/>
<path d="M2410 2310 c-18 -11 -4 -42 17 -38 10 2 19 10 21 19 4 19 -19 31 -38
19z"/>
<path d="M2286 2183 c-11 -11 -6 -23 9 -23 8 0 15 4 15 9 0 13 -16 22 -24 14z"/>
<path d="M4604 5088 c-8 -13 39 -58 62 -58 20 0 18 34 -4 53 -22 20 -48 22
-58 5z"/>
<path d="M1022 4784 c-24 -17 -31 -64 -9 -64 21 0 60 47 54 64 -8 20 -17 20
-45 0z"/>
<path d="M5199 4367 c-56 -38 -50 -107 10 -107 26 0 68 23 83 44 15 21 8 55
-14 70 -30 21 -39 20 -79 -7z"/>
<path d="M423 2408 c-28 -14 -36 -47 -17 -76 14 -21 22 -24 60 -19 24 2 51 10
59 17 18 15 20 61 3 78 -15 15 -75 15 -105 0z"/>
<path d="M5416 2214 c-24 -23 -18 -74 9 -74 13 0 35 49 35 76 0 19 -25 18 -44
-2z"/>
<path d="M664 1916 c-7 -19 24 -78 39 -73 19 6 20 53 2 71 -20 20 -34 20 -41
2z"/>
<path d="M4797 1092 c-21 -23 -22 -61 -2 -69 24 -8 56 27 53 56 -4 32 -29 38
-51 13z"/>
<path d="M2027 622 c-46 -51 -42 -115 8 -128 31 -8 53 9 72 53 17 43 17 49 -7
73 -25 25 -52 26 -73 2z"/>
<path d="M3653 550 c-14 -6 -23 -18 -23 -31 0 -19 4 -21 38 -14 50 9 62 22 38
41 -22 16 -23 16 -53 4z"/>
<path d="M2807 452 c-25 -27 -25 -101 -2 -118 44 -32 85 -2 85 64 0 64 -47 94
-83 54z"/>
</g>
</svg>
