<?xml version="1.0" standalone="no"?>
<!DOCTYPE svg PUBLIC "-//W3C//DTD SVG 20010904//EN"
 "http://www.w3.org/TR/2001/REC-SVG-20010904/DTD/svg10.dtd">
<svg version="1.0" xmlns="http://www.w3.org/2000/svg"
 width="700.000000pt" height="700.000000pt" viewBox="0 0 700.000000 700.000000"
 preserveAspectRatio="xMidYMid meet">
<metadata>
Created by potrace 1.16, written by Peter Selinger 2001-2019
</metadata>
<g transform="translate(0.000000,700.000000) scale(0.100000,-0.100000)"
fill="#000000" stroke="none">
<path d="M0 3500 l0 -3500 3500 0 3500 0 0 3500 0 3500 -3500 0 -3500 0 0
-3500z m3805 3240 c3 -6 1 -74 -6 -151 l-13 -141 23 -17 c27 -20 25 -54 -2
-59 -30 -6 -73 17 -86 45 -9 19 -9 58 0 156 15 181 14 177 49 177 16 0 32 -5
35 -10z m518 -85 c39 -18 67 -58 67 -94 0 -45 -65 -38 -82 9 -16 47 -100 57
-106 13 -3 -17 11 -31 67 -66 75 -49 91 -69 91 -116 0 -95 -100 -140 -205 -92
-55 25 -77 53 -79 98 -1 32 2 38 22 41 28 4 52 -14 52 -39 0 -36 67 -61 114
-43 9 3 16 17 16 30 0 18 -16 34 -72 71 -80 53 -95 78 -84 137 14 72 105 96
199 51z m-753 -21 c24 -23 25 -31 25 -132 l0 -107 -55 -3 c-139 -9 -151 -8
-171 17 -25 31 -24 74 4 106 16 19 39 29 85 38 61 11 73 22 50 45 -19 19 -46
14 -70 -13 -24 -28 -65 -33 -75 -9 -8 23 28 67 68 81 47 18 109 7 139 -23z
m-367 -11 c24 -22 38 -82 40 -172 2 -73 1 -76 -22 -79 -13 -2 -27 0 -32 5 -5
5 -14 47 -19 92 -13 112 -38 138 -89 90 -19 -18 -21 -26 -14 -67 4 -26 8 -67
8 -92 0 -40 -3 -45 -24 -48 -13 -2 -28 1 -33 6 -10 10 -37 182 -38 234 0 21 6
29 26 34 14 4 30 2 36 -4 7 -7 23 -4 52 9 44 20 80 18 109 -8z m-769 -56 c21
-16 18 -45 -6 -61 -38 -23 -78 35 -42 61 10 7 21 13 24 13 3 0 14 -6 24 -13z
m381 -9 c61 -28 93 -146 56 -205 -55 -88 -194 -86 -236 3 -40 84 -26 155 38
194 36 22 103 26 142 8z m-304 -188 c46 -128 48 -147 13 -156 -14 -4 -29 -3
-33 2 -4 5 -27 61 -50 124 -39 108 -41 116 -24 128 39 28 54 12 94 -98z m2136
81 c94 -43 108 -158 28 -238 -28 -28 -40 -33 -79 -33 -123 0 -181 100 -123
210 23 44 74 80 112 80 11 0 39 -9 62 -19z m-2424 -22 c10 -14 23 -19 42 -17
18 2 31 -3 39 -15 9 -15 7 -22 -13 -38 -23 -19 -23 -19 -6 -61 28 -71 43 -89
69 -82 26 6 51 -18 43 -40 -3 -8 -24 -20 -46 -27 -55 -16 -80 2 -121 90 -27
57 -38 71 -59 73 -18 2 -27 10 -29 26 -2 12 1 22 7 22 6 0 11 16 11 35 0 22 6
38 18 44 24 15 29 14 45 -10z m2767 -134 c15 -8 38 -27 49 -41 24 -31 28 -92
7 -100 -24 -9 -56 15 -56 41 0 31 -40 59 -70 50 -29 -9 -60 -63 -60 -103 0
-42 34 -61 79 -43 22 10 34 10 51 1 30 -16 21 -41 -21 -64 -32 -17 -42 -18
-77 -8 -49 15 -98 59 -108 96 -10 42 14 106 56 148 31 32 44 38 79 38 23 0 55
-7 71 -15z m-2928 -38 c33 -31 111 -174 104 -192 -3 -8 -18 -17 -33 -21 -15
-4 -39 -17 -53 -29 -59 -53 -99 -58 -141 -16 -40 41 -38 74 9 121 20 20 46 41
56 47 25 14 14 43 -17 43 -30 0 -47 -18 -47 -50 0 -32 -40 -56 -59 -37 -32 32
2 102 67 137 49 26 84 25 114 -3z m3232 -33 c34 -33 4 -75 -39 -56 -27 12 -33
40 -13 60 16 16 33 15 52 -4z m-1394 -77 c322 -58 546 -130 800 -257 373 -187
706 -470 957 -810 310 -423 486 -913 511 -1428 21 -421 -44 -811 -195 -1171
-276 -662 -792 -1178 -1454 -1454 -360 -151 -750 -216 -1171 -195 -515 25
-1005 200 -1428 511 -534 392 -908 974 -1038 1612 -44 216 -47 245 -47 535 0
291 5 355 46 555 227 1099 1149 1961 2254 2104 44 6 94 13 110 15 75 10 574
-3 655 -17z m1350 -25 c0 -19 -121 -210 -138 -216 -16 -7 -52 15 -52 31 0 11
104 176 132 210 13 16 58 -4 58 -25z m-3497 -60 c31 -27 117 -148 117 -164 0
-21 -26 -42 -44 -35 -7 3 -36 35 -62 71 -55 74 -76 86 -105 60 -30 -27 -23
-61 26 -124 25 -32 45 -65 45 -72 0 -19 -20 -38 -40 -38 -19 0 -155 182 -155
208 0 10 12 20 31 26 17 5 38 22 47 38 19 33 72 60 102 51 11 -3 28 -13 38
-21z m3710 -78 c36 -27 57 -66 57 -106 0 -34 -32 -98 -50 -98 -5 0 -38 23 -72
50 -34 28 -66 50 -70 50 -4 0 -11 -12 -14 -27 -9 -36 33 -75 74 -67 16 3 35
-1 46 -9 46 -34 -23 -74 -88 -52 -72 25 -115 91 -101 156 8 34 67 106 100 120
29 13 90 4 118 -17z m-4002 -110 c10 -13 10 -20 -4 -44 -9 -15 -17 -35 -17
-44 0 -8 25 -43 55 -77 30 -34 55 -67 55 -73 0 -17 -21 -36 -40 -36 -14 0
-152 142 -174 178 -9 15 20 52 41 52 7 0 16 8 20 18 15 43 41 54 64 26z m4283
-66 c8 -13 7 -23 -2 -39 -10 -15 -11 -24 -3 -32 15 -15 14 -42 -2 -55 -10 -9
-19 -7 -36 5 -22 15 -25 14 -73 -34 -46 -46 -48 -51 -37 -76 26 -56 -24 -80
-60 -28 -34 47 -27 76 31 137 43 46 52 62 53 92 0 35 1 37 32 35 17 -2 35 2
38 8 10 15 46 7 59 -13z m-4438 -174 c40 -27 37 -42 -21 -103 -30 -32 -55 -63
-55 -69 0 -6 11 -15 26 -18 37 -10 78 31 70 70 -7 33 8 56 35 56 25 0 42 -44
33 -83 -8 -39 -73 -102 -114 -110 -65 -13 -157 52 -175 124 -12 47 35 126 90
150 25 11 81 2 111 -17z m4543 -18 c12 -21 9 -31 -29 -96 -23 -39 -39 -74 -36
-77 3 -4 36 6 74 20 75 30 93 32 110 15 31 -31 13 -43 -145 -101 -87 -32 -164
-57 -171 -57 -24 0 -71 30 -83 51 -9 17 -8 25 5 37 13 14 20 14 36 4 11 -6 31
-12 44 -12 21 0 33 17 88 120 65 125 83 141 107 96z m-4826 -238 c-2 -34 2
-41 44 -73 50 -38 63 -41 92 -23 23 14 51 4 51 -17 0 -25 -55 -75 -83 -75 -22
0 -54 18 -126 71 -24 18 -31 19 -49 8 -27 -17 -56 5 -48 37 4 13 0 27 -9 34
-34 28 -2 85 35 62 20 -12 50 -7 50 10 0 5 10 8 23 6 19 -3 22 -8 20 -40z
m5165 -223 c58 -49 72 -124 34 -183 -21 -33 -93 -72 -132 -72 -97 0 -170 132
-114 207 56 75 154 97 212 48z m-5218 -34 c88 -50 106 -75 74 -101 -14 -12
-27 -8 -100 30 -95 51 -119 49 -119 -11 0 -31 6 -37 67 -74 36 -22 70 -43 73
-47 13 -13 -5 -58 -23 -58 -9 0 -63 27 -119 60 -111 65 -121 80 -78 118 15 13
25 33 25 48 0 35 50 84 87 84 15 0 66 -22 113 -49z m5418 -235 c38 8 68 -9 88
-47 12 -24 13 -34 3 -45 -15 -18 -33 -18 -49 1 -19 23 -42 19 -39 -7 6 -47
-35 -66 -58 -28 -12 19 -15 18 -99 -20 -96 -44 -109 -47 -118 -24 -13 35 -3
46 82 87 70 35 87 47 88 66 2 32 24 43 51 26 13 -9 33 -12 51 -9z m-5666 -62
c79 -36 149 -72 156 -78 10 -10 11 -18 1 -39 -7 -15 -17 -27 -23 -27 -15 0
-299 132 -315 146 -12 11 -12 18 -3 39 6 14 18 25 26 25 8 0 79 -30 158 -66z
m-205 -799 c12 -8 27 -31 33 -49 23 -70 -46 -139 -116 -116 -43 14 -64 44 -64
91 0 72 87 116 147 74z m6087 -11 c49 -50 29 -131 -38 -154 -46 -15 -92 8
-112 56 -12 29 -12 39 0 68 17 41 39 55 87 56 26 0 44 -7 63 -26z m-5899 -786
c6 -28 25 -174 25 -193 0 -8 -10 -19 -21 -26 -32 -17 -46 5 -56 86 l-8 70 -35
-3 c-19 -1 -38 -6 -41 -10 -4 -4 -3 -34 1 -67 10 -66 1 -88 -34 -83 -18 3 -22
14 -31 70 -5 37 -12 69 -15 72 -3 3 -35 1 -70 -4 -72 -10 -90 -3 -90 37 0 30
3 31 162 53 191 25 207 25 213 -2z m5783 -20 c3 -22 -2 -30 -22 -40 -19 -8
-26 -19 -26 -40 0 -39 30 -34 43 7 5 17 20 45 34 63 45 60 133 35 149 -44 14
-70 -38 -159 -87 -152 -36 5 -36 36 0 69 33 29 40 59 18 77 -18 15 -34 2 -53
-43 -24 -59 -52 -85 -90 -85 -64 0 -94 83 -60 164 25 60 88 76 94 24z m-74
-308 l11 -45 82 -20 c93 -23 105 -31 92 -62 -10 -28 -32 -29 -126 -7 -140 31
-143 33 -143 59 0 13 5 27 10 30 6 3 10 23 10 44 0 44 7 53 34 49 14 -2 22
-16 30 -48z m-5798 -16 c37 -18 74 -82 74 -130 0 -72 -68 -128 -157 -128 -42
0 -57 5 -79 24 -80 75 -66 187 29 230 52 24 89 25 133 4z m5798 -224 c31 -12
33 -33 7 -93 -28 -64 -30 -91 -8 -95 41 -8 76 65 46 95 -7 7 -9 23 -5 37 12
49 66 24 81 -37 10 -38 -19 -110 -56 -142 -52 -43 -149 -28 -204 31 -37 39
-36 120 2 164 40 48 84 61 137 40z m-5666 -112 c7 -7 12 -23 12 -35 0 -13 10
-37 22 -53 17 -24 19 -32 8 -45 -19 -23 -41 -18 -70 16 l-26 32 -88 -29 c-86
-28 -88 -28 -102 -9 -27 37 -17 46 111 93 130 48 118 45 133 30z m5582 -261
c88 -43 101 -59 76 -92 -13 -19 -16 -18 -94 19 -45 20 -91 36 -104 34 -20 -3
-23 -9 -23 -43 l0 -40 78 -38 c72 -35 78 -40 75 -65 -5 -41 -32 -38 -151 18
-113 53 -127 69 -88 104 10 9 21 35 25 57 8 53 45 89 88 88 18 0 71 -19 118
-42z m-5475 -10 c58 -58 59 -137 3 -189 -47 -44 -61 -38 -101 47 -37 77 -44
84 -65 63 -30 -30 -4 -91 42 -99 48 -10 46 -69 -3 -69 -67 0 -134 104 -112
173 22 65 82 105 160 106 36 1 48 -4 76 -32z m5103 -206 c8 -5 12 -21 10 -37
-3 -25 -7 -29 -33 -29 -24 0 -31 5 -33 24 -3 15 3 30 14 38 21 15 24 16 42 4z
m-4943 -87 c6 -17 25 -45 43 -63 43 -43 45 -96 5 -132 -36 -32 -156 -109 -171
-109 -12 0 -32 31 -32 49 0 6 34 32 75 58 82 52 96 74 69 104 -26 29 -56 23
-129 -23 -72 -45 -100 -44 -100 2 0 18 21 36 100 86 55 35 107 63 115 61 8 -1
20 -16 25 -33z m5122 -25 c57 -34 103 -65 103 -71 0 -19 -21 -48 -35 -48 -16
0 -211 116 -220 130 -9 15 14 50 32 50 9 0 63 -27 120 -61z m-150 -146 c130
-89 156 -122 118 -153 -16 -14 -19 -12 -103 52 -68 52 -82 56 -106 32 -30 -30
-19 -59 38 -103 79 -61 90 -75 76 -100 -16 -32 -35 -26 -113 34 -73 57 -88 63
-104 43 -27 -34 -22 -61 15 -95 20 -18 51 -43 69 -56 18 -12 33 -30 33 -39 0
-18 -28 -51 -40 -46 -18 6 -200 154 -200 161 0 18 21 47 34 47 8 0 19 14 25
32 14 41 49 78 73 78 19 0 22 4 33 54 8 38 57 86 88 86 13 0 42 -12 64 -27z
m-4735 -153 c32 -35 38 -48 38 -84 0 -56 -21 -77 -51 -50 -14 12 -18 25 -14
44 7 32 -16 66 -39 57 -15 -6 -15 -9 0 -44 31 -72 34 -94 19 -123 -16 -32 -33
-40 -79 -40 -64 0 -143 110 -115 162 18 34 31 39 51 21 13 -12 17 -25 13 -47
-7 -36 25 -79 50 -70 20 8 19 23 -5 79 -25 59 -25 76 1 109 33 42 82 36 131
-14z m256 -132 c28 -28 1 -75 -37 -63 -11 3 -23 15 -26 26 -12 38 35 65 63 37z
m-74 -74 c9 -8 16 -19 16 -22 0 -4 -40 -47 -89 -96 -90 -89 -112 -100 -135
-64 -9 15 3 32 79 108 49 49 95 90 102 90 6 0 19 -7 27 -16z m4248 -102 c43
-43 78 -84 78 -91 0 -6 -15 -21 -33 -31 -19 -11 -39 -31 -45 -45 -13 -28 -67
-65 -95 -65 -10 0 -32 14 -49 30 -26 26 -30 36 -25 66 3 19 22 54 42 79 37 45
39 65 6 65 -27 0 -55 -36 -48 -62 7 -24 -16 -58 -38 -58 -7 0 -18 14 -25 30
-15 37 -2 75 38 112 74 69 98 65 194 -30z m-4075 -58 c39 -19 83 -78 83 -112
0 -28 -17 -62 -30 -62 -20 0 -51 41 -45 60 7 23 -26 60 -54 60 -23 0 -77 -51
-86 -81 -4 -12 0 -30 10 -46 15 -22 22 -24 52 -20 69 12 102 -38 43 -63 -84
-35 -193 55 -176 146 12 59 92 134 144 134 13 0 40 -7 59 -16z m3743 -97 c0
-18 3 -49 6 -69 6 -36 9 -38 75 -60 73 -23 84 -38 45 -63 -22 -15 -27 -15 -62
0 -52 21 -67 14 -59 -29 9 -43 -1 -73 -27 -87 -29 -16 -38 2 -38 78 0 68 0 68
-75 99 -27 11 -51 27 -53 35 -4 23 42 41 74 29 47 -18 54 -13 54 34 0 35 5 48
22 60 28 20 38 12 38 -27z m-302 -97 c2 -21 -7 -30 -60 -60 -35 -20 -64 -42
-65 -50 -2 -8 6 -26 16 -39 l19 -24 56 31 c64 37 81 39 95 13 12 -22 0 -34
-71 -76 -27 -15 -48 -28 -48 -30 0 -8 42 -75 47 -75 2 0 32 16 64 35 33 19 68
35 78 35 17 0 31 -18 31 -40 0 -12 -183 -120 -202 -120 -20 0 -193 301 -182
317 15 22 178 112 199 110 13 -1 21 -11 23 -27z m-2920 -45 c69 -29 112 -86
112 -148 0 -45 -18 -60 -50 -44 -19 9 -26 22 -28 49 -2 27 -12 44 -33 63 -58
48 -129 23 -168 -58 -28 -57 -26 -89 4 -125 33 -39 75 -49 113 -26 40 23 85
12 80 -19 -4 -30 -63 -67 -106 -67 -78 0 -160 63 -183 141 -23 75 36 194 116
234 39 19 96 19 143 0z m2510 -268 c2 -11 -8 -32 -23 -47 -31 -32 -31 -40 6
-138 23 -63 23 -64 4 -78 -11 -8 -26 -13 -34 -12 -9 2 -33 51 -59 118 -47 123
-47 145 2 145 14 1 34 9 44 18 21 22 56 18 60 -6z m-2156 -12 c48 -32 65 -83
49 -142 -33 -121 -152 -154 -238 -68 -28 28 -33 40 -33 82 0 51 25 104 63 135
34 27 114 24 159 -7z m247 -89 c8 -9 25 -12 54 -9 33 4 50 0 78 -20 30 -20 45
-24 81 -20 57 7 105 -17 114 -54 7 -27 -20 -183 -37 -215 -12 -22 -42 -23 -58
-4 -9 11 -8 31 4 85 23 98 18 125 -21 129 -41 4 -50 -10 -72 -104 -16 -72 -20
-79 -43 -82 -45 -5 -49 14 -27 111 22 95 17 117 -26 117 -39 0 -55 -22 -72
-105 -16 -80 -27 -99 -52 -90 -8 3 -18 5 -23 5 -5 0 -9 11 -9 25 0 23 32 183
46 228 6 20 47 23 63 3z m1630 -1 c34 -17 68 -82 55 -103 -6 -8 -40 -22 -77
-32 -81 -20 -95 -31 -71 -54 26 -26 76 -17 92 16 14 31 59 48 72 28 10 -16 1
-50 -19 -74 -26 -29 -67 -46 -115 -46 -36 0 -52 6 -79 30 -54 47 -71 152 -33
199 38 48 120 65 175 36z m-369 -19 c6 -17 18 -26 37 -28 39 -4 45 -44 8 -58
-25 -9 -25 -12 -19 -62 8 -66 19 -88 43 -88 24 0 45 -25 38 -44 -8 -20 -70
-31 -97 -16 -27 14 -47 60 -56 129 -5 43 -11 54 -30 62 -27 10 -33 53 -9 63 8
3 15 16 15 29 0 30 7 37 37 37 16 0 27 -8 33 -24z m-685 -67 c28 0 62 -4 77
-10 77 -32 90 -169 21 -238 -32 -32 -36 -33 -92 -28 l-58 5 -9 -47 c-8 -40
-12 -46 -37 -49 -18 -2 -29 2 -34 14 -10 27 17 348 31 357 6 4 20 4 31 1 11
-4 43 -6 70 -5z m484 -3 c7 -9 15 -67 18 -141 l6 -126 -49 1 c-27 0 -72 -2
-99 -6 -74 -8 -93 10 -106 104 -6 40 -9 92 -7 115 3 39 5 42 34 45 30 3 31 1
38 -44 3 -26 6 -64 6 -86 0 -72 30 -96 78 -62 20 14 22 23 22 109 0 96 0 96
41 104 4 0 12 -5 18 -13z"/>
<path d="M3458 6498 c-20 -7 -28 -17 -28 -34 0 -20 5 -24 28 -24 37 0 65 21
60 46 -4 22 -23 26 -60 12z"/>
<path d="M2706 6494 c-37 -37 -3 -144 45 -144 42 0 59 18 59 64 0 76 -62 123
-104 80z"/>
<path d="M4557 6382 c-41 -45 -44 -112 -6 -133 47 -25 99 23 101 93 2 52 -61
78 -95 40z"/>
<path d="M2007 6102 c-30 -31 -28 -62 4 -62 25 0 60 40 57 65 -4 30 -30 29
-61 -3z"/>
<path d="M3290 6110 c-489 -38 -959 -217 -1355 -515 -427 -321 -742 -752 -911
-1247 -117 -341 -167 -842 -119 -1193 18 -133 62 -323 102 -442 30 -89 88
-228 109 -260 l14 -22 25 23 c21 20 23 27 15 55 -13 46 -4 60 54 88 28 13 44
22 35 19 -10 -2 -36 -10 -59 -17 -39 -12 -44 -11 -57 7 -7 10 -13 30 -11 44 3
22 16 29 130 69 138 47 158 46 158 -6 0 -20 -10 -29 -56 -50 -64 -29 -67 -40
-4 -18 75 27 100 18 100 -36 0 -13 -18 -29 -57 -49 -58 -31 -54 -32 24 -2 34
13 44 13 57 3 27 -22 20 -66 -11 -81 -16 -7 -23 -15 -16 -17 7 -2 21 1 32 7
17 8 24 7 41 -10 33 -33 27 -42 -54 -94 -32 -20 -56 -39 -53 -42 3 -3 32 8 66
25 73 37 85 38 99 6 13 -29 4 -37 -137 -125 -73 -45 -87 -50 -107 -41 -13 6
-24 15 -24 21 0 5 -18 10 -40 10 -22 0 -40 -2 -40 -5 0 -13 72 -149 101 -192
64 -94 153 -207 216 -274 49 -52 72 -69 96 -71 26 -3 32 -8 38 -36 9 -42 19
-53 145 -153 345 -275 622 -418 981 -508 307 -78 455 -95 742 -88 428 10 753
88 1102 263 143 71 187 101 191 127 2 17 10 22 36 23 65 2 312 192 487 376
379 397 617 861 705 1373 60 344 42 759 -46 1103 -157 613 -537 1150 -1069
1511 -324 220 -683 360 -1075 420 -155 24 -442 34 -600 21z m173 -240 c10
-136 6 -160 -27 -160 -13 0 -27 7 -30 16 -8 22 -8 249 1 258 4 4 16 6 28 4 18
-3 21 -13 28 -118z m102 -20 l0 -135 -25 0 -25 0 -3 124 c-3 127 4 155 37 149
14 -3 16 -23 16 -138z m-222 116 c3 -8 9 -69 13 -135 l7 -121 -27 0 c-15 0
-29 6 -31 13 -8 21 -23 231 -18 245 7 17 50 15 56 -2z m340 0 c4 -10 -7 -228
-12 -253 -2 -7 -51 -2 -55 6 -7 11 10 237 19 251 9 15 42 12 48 -4z m-454 -18
c4 -13 11 -52 15 -88 4 -36 9 -84 12 -107 5 -34 3 -43 -13 -51 -11 -6 -24 -7
-31 -3 -13 8 -46 235 -38 257 9 22 46 16 55 -8z m566 12 c6 -9 -10 -190 -20
-237 -6 -27 -42 -32 -52 -7 -6 15 13 213 24 239 6 17 39 20 48 5z m-679 -23
c2 -7 13 -62 23 -122 17 -96 17 -112 5 -125 -29 -30 -48 0 -66 106 -24 142
-24 154 7 154 14 0 28 -6 31 -13z m793 -19 c0 -18 -8 -76 -17 -128 -14 -77
-21 -96 -36 -98 -34 -7 -37 11 -21 114 23 142 24 144 51 144 21 0 24 -5 23
-32z m-900 -25 c22 -78 43 -203 38 -217 -4 -9 -15 -16 -26 -16 -22 0 -26 12
-57 156 -18 89 -15 114 15 114 15 0 23 -10 30 -37z m1011 13 c0 -28 -37 -213
-46 -227 -8 -13 -42 -11 -47 4 -4 13 37 220 48 237 3 5 15 10 26 10 13 0 19
-7 19 -24z m-1133 -8 c16 -21 66 -226 59 -243 -3 -10 -15 -15 -28 -13 -20 3
-27 17 -50 103 -30 111 -34 151 -15 158 20 8 24 8 34 -5z m1240 -18 c3 -33
-49 -233 -62 -237 -5 -1 -17 1 -25 7 -12 7 -12 18 -2 70 25 120 52 192 70 188
10 -2 18 -14 19 -28z m110 -16 c5 -15 -39 -187 -59 -226 -13 -27 -48 -23 -48
5 0 23 28 119 57 195 16 43 39 55 50 26z m-1421 -107 c39 -120 40 -151 2 -145
-19 3 -28 20 -59 118 -20 63 -34 121 -31 128 2 6 15 12 27 12 21 0 28 -12 61
-113z m-128 31 c70 -188 75 -223 31 -216 -18 2 -29 24 -62 119 -41 118 -43
149 -8 149 14 0 25 -14 39 -52z m1658 41 c9 -15 -66 -237 -82 -243 -7 -3 -19
1 -28 7 -15 11 -13 22 23 120 22 59 43 112 46 117 8 13 32 13 41 -1z m-1733
-151 c36 -88 54 -118 67 -118 23 0 44 -26 36 -45 -7 -19 -40 -19 -56 0 -7 8
-21 15 -31 15 -20 0 -66 89 -107 202 -15 43 -15 50 -2 58 30 20 44 3 93 -112z
m1842 112 c10 -17 -80 -235 -100 -238 -40 -8 -39 16 5 120 24 57 48 109 53
116 11 14 33 16 42 2z m105 -56 c0 -20 -90 -218 -103 -226 -16 -10 -37 2 -37
23 0 18 81 190 102 216 12 15 38 6 38 -13z m-2051 -94 c28 -60 51 -114 51
-119 0 -6 -9 -15 -19 -20 -25 -14 -28 -9 -90 118 -39 80 -48 107 -40 118 27
32 46 14 98 -97z m2151 42 c0 -9 -23 -63 -52 -119 -37 -74 -57 -103 -70 -103
-35 0 -30 30 22 127 29 54 56 103 62 110 13 16 38 5 38 -15z m-2248 -94 c59
-109 64 -142 24 -136 -15 2 -37 32 -80 111 -49 90 -56 110 -46 123 24 28 45 9
102 -98z m-95 -54 c62 -107 68 -134 29 -134 -16 0 -35 24 -84 104 -34 57 -62
109 -62 115 0 13 31 30 44 25 6 -3 39 -52 73 -110z m2441 95 c1 -8 -23 -61
-54 -117 -41 -72 -63 -102 -76 -102 -37 0 -29 31 34 135 60 100 88 125 96 84z
m98 -54 c4 -9 -21 -58 -57 -115 -50 -81 -67 -100 -83 -98 -32 5 -24 30 44 133
61 92 84 112 96 80z m-2632 -100 c56 -87 66 -108 56 -120 -7 -8 -19 -15 -26
-15 -8 0 -46 48 -84 106 -55 84 -68 109 -59 120 25 31 46 14 113 -91z m1445
69 c65 -9 110 -21 117 -30 6 -7 18 -14 25 -14 8 0 23 -6 34 -14 11 -7 43 -18
70 -24 28 -6 68 -20 90 -32 21 -11 45 -20 52 -20 7 0 64 -16 126 -36 123 -39
356 -149 454 -212 40 -27 72 -40 90 -39 23 2 29 -2 31 -23 3 -17 26 -43 73
-80 168 -132 363 -360 467 -547 47 -83 151 -312 173 -378 7 -22 21 -49 30 -60
9 -11 20 -45 23 -75 4 -30 18 -110 32 -178 38 -195 33 -432 -16 -687 -11 -55
-26 -122 -35 -149 -8 -27 -15 -60 -15 -74 0 -13 -7 -36 -15 -50 -8 -15 -35
-79 -61 -142 -25 -63 -65 -152 -90 -197 -37 -68 -43 -86 -34 -103 15 -27 -4
-60 -34 -60 -16 0 -47 -27 -108 -98 -126 -143 -290 -298 -400 -380 -53 -40
-99 -76 -103 -81 -3 -5 3 -12 14 -16 25 -8 34 -31 21 -56 -19 -34 -70 -14 -70
27 0 31 -12 28 -111 -22 -85 -43 -193 -84 -223 -84 -17 0 -27 9 -36 30 -7 17
-11 32 -9 34 2 2 45 32 96 65 51 34 95 66 98 71 10 16 -19 11 -69 -11 -53 -23
-68 -21 -89 13 -37 58 -36 61 77 128 57 34 144 92 193 128 99 74 310 281 333
327 8 17 47 80 86 140 39 61 84 135 101 165 36 64 103 230 103 254 0 14 -15
16 -105 16 -94 0 -107 -2 -126 -21 -26 -26 -74 -38 -151 -39 -52 0 -61 3 -105
41 -67 57 -73 67 -73 118 l0 44 -25 -23 c-20 -19 -25 -33 -25 -75 0 -49 2 -52
69 -119 l70 -69 112 10 c61 6 118 9 126 6 21 -8 12 -56 -13 -68 -20 -10 -20
-11 -2 -40 45 -75 -3 -170 -77 -151 -20 5 -24 2 -27 -21 -3 -25 -6 -28 -38
-25 -19 2 -82 6 -140 8 l-105 5 -112 107 -113 107 -2 90 -3 90 -30 0 -30 0 -3
-91 c-3 -105 -10 -93 150 -264 l97 -104 93 1 c51 0 104 2 118 4 21 3 26 0 28
-22 4 -31 -19 -44 -48 -29 -10 6 -60 10 -111 10 l-92 0 -145 137 -145 138 6
97 c5 78 3 99 -9 109 -31 26 -36 -3 -23 -144 l13 -136 129 -136 c71 -75 143
-143 159 -151 39 -20 36 -57 -4 -62 -22 -3 -30 2 -37 21 -5 13 -77 89 -160
168 l-151 144 0 55 c0 30 5 84 10 120 11 74 2 92 -30 60 -16 -16 -21 -29 -16
-50 6 -34 -15 -58 -33 -36 -6 7 -9 21 -5 30 4 11 1 16 -11 16 -12 0 -16 -6
-12 -19 2 -10 1 -24 -3 -31 -12 -19 -40 -4 -40 22 -1 19 -3 17 -16 -11 -8 -19
-13 -38 -12 -42 2 -5 28 -21 58 -36 30 -15 56 -34 58 -41 2 -7 -10 -25 -27
-41 l-30 -28 67 -75 c37 -41 129 -136 205 -211 125 -122 138 -137 127 -156 -6
-13 -21 -21 -35 -21 -14 0 -33 -8 -44 -19 -19 -19 -122 -38 -141 -26 -5 3 -10
-3 -10 -13 0 -49 -59 -52 -79 -4 -12 28 -244 252 -282 272 -25 14 -24 -2 1
-25 11 -10 20 -25 20 -34 0 -9 10 -21 23 -26 32 -14 31 -65 -3 -82 -25 -13
-25 -13 10 -14 19 0 51 -8 71 -17 49 -23 163 -128 156 -144 -2 -7 -25 -23 -50
-36 -25 -12 -48 -29 -51 -37 -8 -22 -47 -19 -53 5 -4 17 -11 19 -48 14 -37 -6
-45 -3 -69 22 -29 32 -41 79 -32 125 l6 31 -28 -17 c-62 -40 -132 -127 -112
-140 11 -7 56 2 87 17 30 15 53 3 53 -26 0 -29 -29 -42 -59 -27 -11 7 -84 11
-171 11 -178 0 -197 8 -224 87 -19 56 -19 48 0 68 11 11 25 14 44 10 23 -5 28
-2 34 17 3 13 6 33 6 45 0 11 14 33 30 47 44 36 182 197 176 204 -3 3 -32 -19
-63 -49 -32 -30 -111 -103 -175 -163 -112 -103 -118 -111 -118 -148 0 -22 4
-47 10 -57 14 -27 -13 -60 -37 -45 -10 6 -18 19 -17 28 0 9 1 40 2 70 l2 54
122 129 c67 70 136 144 152 163 31 34 31 34 -14 -5 -25 -21 -103 -94 -174
-161 l-129 -123 5 -71 c5 -61 3 -72 -12 -80 -31 -17 -39 8 -32 91 l8 76 141
149 c165 175 207 223 201 229 -5 6 -156 -129 -307 -273 l-104 -100 6 -87 c6
-85 6 -86 -16 -83 -21 3 -22 6 -18 98 l3 94 138 146 c76 80 149 159 162 175
l23 30 -40 -32 c-22 -17 -109 -98 -194 -180 l-153 -149 3 -89 c4 -81 2 -90
-15 -93 -25 -5 -36 16 -25 45 5 14 9 55 9 92 l0 67 151 159 c151 160 198 215
182 215 -12 0 -138 -114 -289 -262 l-121 -118 -106 0 c-60 0 -117 -5 -132 -12
-21 -10 -29 -9 -43 5 -23 23 -4 53 29 48 75 -11 204 -11 228 -1 26 12 313 308
333 345 10 17 8 16 -18 -4 -16 -12 -91 -80 -166 -152 l-136 -129 -166 0 c-105
0 -174 -4 -191 -12 -21 -10 -29 -9 -43 5 -23 23 -4 54 29 48 13 -2 95 -5 182
-8 l157 -4 62 58 c33 32 98 100 144 151 140 157 99 142 -79 -28 -57 -55 -117
-104 -132 -110 -18 -7 -90 -8 -209 -4 -129 5 -188 4 -203 -4 -29 -16 -53 -5
-53 23 0 28 30 41 59 26 13 -8 83 -9 211 -4 l192 6 83 86 c46 47 97 104 114
126 17 22 56 63 86 90 48 45 53 53 48 80 -7 30 -7 30 -13 5 -8 -33 -37 -38
-49 -8 -8 18 -10 19 -10 5 -1 -23 -27 -33 -46 -17 -12 10 -16 9 -21 -3 -3 -8
-18 -20 -34 -27 -56 -23 -112 31 -96 93 4 18 -1 29 -25 46 -16 12 -35 21 -40
19 -14 -5 -302 -271 -423 -391 -93 -92 -126 -111 -126 -73 0 8 8 17 19 21 16
5 164 157 341 350 96 104 -5 16 -200 -174 -96 -94 -179 -170 -185 -170 -11 0
-55 64 -55 79 0 5 10 15 23 21 34 19 437 441 458 482 9 16 8 17 -9 8 -52 -28
-418 -385 -426 -415 -6 -23 -54 -56 -80 -56 -9 0 -21 11 -25 24 -5 13 -17 26
-25 29 -24 9 -20 52 7 70 21 15 21 15 -17 10 -44 -7 -58 6 -49 48 4 20 -2 32
-22 52 -18 16 -26 31 -22 41 8 21 36 20 59 -1 24 -22 36 -8 14 16 -10 11 -16
28 -14 38 5 25 37 29 53 6 7 -10 16 -15 20 -12 9 10 -38 57 -70 69 -23 9 -31
7 -47 -7 -23 -21 -51 -8 -56 26 -2 11 -22 34 -45 50 -56 39 -87 69 -87 84 0 7
25 48 56 90 53 74 58 78 86 72 24 -6 35 -2 56 19 25 23 36 25 160 32 73 4 129
10 125 14 -16 14 -93 30 -169 36 -79 7 -79 7 -149 66 -38 33 -80 65 -93 71
-12 6 -25 22 -28 36 -3 14 -9 42 -14 62 -23 84 -2 185 51 259 18 24 33 53 34
64 1 12 3 24 4 28 0 4 20 8 44 10 46 3 61 30 19 36 -30 4 -46 36 -32 62 6 11
15 20 19 20 5 0 12 15 15 34 10 50 69 100 109 92 40 -8 57 -23 57 -51 0 -37
61 -109 94 -113 16 -2 32 0 37 5 14 14 -9 77 -36 103 -29 27 -31 54 -8 111 21
55 19 207 -5 231 -28 28 2 104 46 115 15 3 33 12 40 20 20 20 58 16 68 -7 5
-11 42 -53 83 -95 l74 -75 183 0 183 0 62 -52 c102 -87 119 -100 119 -91 0 5
-27 38 -60 75 l-60 66 0 119 0 120 -105 108 c-99 102 -119 135 -80 135 8 0 20
-10 24 -22 5 -13 51 -63 101 -113 50 -49 96 -100 101 -113 12 -31 33 -23 37
13 3 24 -9 41 -88 118 -60 58 -90 94 -86 104 8 21 38 12 52 -15 6 -12 46 -58
88 -101 l76 -79 0 -95 c0 -105 10 -127 57 -127 25 0 25 1 9 25 -12 18 -16 49
-16 127 l0 102 -80 79 c-80 79 -93 100 -65 111 16 6 45 -18 45 -38 0 -7 32
-43 70 -80 62 -61 70 -73 70 -106 0 -20 3 -65 6 -99 6 -53 11 -65 37 -83 l30
-21 -18 26 c-13 20 -16 44 -14 104 2 43 0 87 -4 99 -9 24 14 49 37 41 10 -4
14 -24 14 -75 -1 -38 2 -74 6 -80 4 -7 23 1 51 22 24 19 58 37 74 41 16 3 37
17 45 31 10 14 26 24 39 24 13 0 30 6 39 13 25 19 9 95 -30 144 -26 34 -39 41
-78 47 -80 10 -283 7 -303 -6 -24 -15 -54 -3 -49 19 3 12 11 17 23 14 11 -2
103 -7 205 -10 173 -6 188 -8 214 -28 30 -24 56 -30 56 -13 0 24 39 30 97 15
56 -14 181 -22 233 -14 20 3 25 0 25 -16 0 -16 -5 -19 -25 -16 -41 6 -146 4
-176 -3 -27 -7 -28 -8 -9 -19 13 -7 98 -13 231 -15 209 -4 212 -4 219 17 7 22
39 29 51 10 3 -6 -1 -18 -10 -27 -14 -15 -51 -18 -251 -22 -160 -4 -238 -9
-246 -17 -9 -9 -6 -13 12 -17 65 -13 140 -15 164 -4 21 10 29 9 43 -5 15 -16
15 -18 0 -33 -14 -14 -21 -15 -46 -5 -18 8 -49 10 -76 7 -25 -3 -66 -9 -91
-12 -41 -5 -45 -8 -45 -32 0 -15 11 -51 25 -80 14 -30 25 -65 25 -78 0 -13 6
-24 13 -24 7 0 68 50 135 110 l122 110 104 0 c103 0 106 1 140 31 19 16 38 40
42 52 8 26 22 37 41 30 21 -8 15 -31 -12 -49 -14 -9 -41 -32 -59 -50 l-34 -34
-106 0 -106 0 -69 -72 c-137 -146 -213 -238 -194 -238 4 0 64 51 133 113 l126
114 114 7 c62 3 119 11 126 17 19 16 55 7 68 -16 6 -11 23 -35 39 -53 15 -18
27 -42 27 -52 0 -37 33 -20 108 56 59 60 79 75 91 67 27 -17 23 -32 -16 -56
-21 -13 -74 -66 -118 -116 -44 -50 -90 -94 -103 -98 -13 -3 -77 -2 -142 2
-120 7 -140 2 -117 -28 10 -13 38 -16 161 -18 l149 -3 99 105 c54 57 106 114
114 127 20 30 58 26 62 -6 2 -13 -4 -32 -14 -43 -16 -18 -15 -20 15 -48 35
-33 37 -45 15 -101 -18 -46 -38 -60 -84 -60 -25 0 -45 -13 -95 -60 l-62 -61
-154 -6 c-90 -4 -144 -10 -129 -14 39 -11 239 -10 261 1 43 23 82 -38 44 -70
-12 -10 -21 -10 -44 0 -19 8 -72 11 -153 8 -112 -3 -125 -5 -146 -25 -12 -13
-29 -23 -37 -23 -20 0 -19 -15 1 -35 12 -11 20 -13 27 -6 15 15 94 14 100 -2
7 -18 140 -41 222 -38 l70 3 117 -124 117 -123 1 42 c0 39 -4 45 -84 117 -46
42 -90 76 -98 76 -25 0 -41 27 -34 57 4 16 8 40 10 55 6 55 43 71 110 47 21
-7 39 -8 57 -1 21 9 25 15 21 40 -6 41 28 61 62 38 16 -10 27 -11 33 -5 6 6
21 9 34 7 21 -3 24 -8 24 -48 0 -36 6 -51 28 -72 30 -31 35 -69 10 -89 -15
-13 -13 -15 13 -20 38 -9 209 -11 217 -3 3 3 -6 30 -21 60 -19 40 -29 51 -38
43 -21 -18 -59 -6 -62 18 -3 17 3 26 22 33 32 12 32 24 5 86 -142 319 -473
643 -832 814 -204 96 -423 157 -523 144 -38 -4 -67 -1 -105 11 -99 33 -404 8
-604 -50 -318 -93 -556 -236 -788 -474 -64 -66 -123 -121 -130 -121 -6 1 -55
41 -107 90 -91 86 -94 90 -75 104 11 9 22 16 26 16 3 0 18 20 33 44 26 42 150
165 252 251 26 22 79 70 119 107 52 48 85 70 116 78 39 10 199 78 269 114 14
8 81 32 150 54 279 92 558 122 799 86z m1289 -35 c4 -20 -136 -209 -154 -209
-29 0 -27 31 5 73 18 23 41 62 53 87 12 25 28 51 37 57 21 17 55 12 59 -8z
m-2829 -88 c39 -54 71 -105 71 -114 0 -20 -29 -30 -46 -16 -20 17 -144 185
-144 196 0 13 22 33 36 33 7 0 44 -44 83 -99z m2917 24 c6 -14 -140 -215 -156
-215 -15 0 -32 29 -24 42 4 7 39 52 77 101 69 85 92 102 103 72z m-3002 -92
c77 -98 88 -126 50 -131 -16 -2 -39 20 -97 91 -76 93 -89 120 -64 130 27 11
36 4 111 -90z m3086 22 c13 -15 12 -16 -125 -181 -23 -27 -53 -32 -61 -9 -6
14 149 205 166 205 4 0 13 -7 20 -15z m-3170 -91 c67 -78 81 -100 73 -113 -6
-9 -17 -16 -26 -16 -17 0 -177 172 -177 191 0 13 21 34 35 34 6 0 48 -43 95
-96z m3258 4 c4 -18 -154 -188 -174 -188 -8 0 -17 7 -21 16 -4 11 21 43 83
105 87 87 106 98 112 67z m-3340 -77 c82 -90 96 -116 66 -128 -11 -4 -43 21
-105 83 -82 82 -100 110 -82 127 18 18 45 0 121 -82z m3420 -2 c1 -8 -38 -54
-88 -104 -86 -86 -91 -89 -107 -71 -17 17 -14 21 76 107 90 86 113 99 119 68z
m-3495 -78 c64 -63 88 -93 84 -105 -12 -31 -45 -15 -131 65 -94 89 -109 123
-52 128 5 1 49 -39 99 -88z m-65 -86 c39 -33 73 -66 76 -72 8 -19 -4 -43 -21
-43 -17 0 -192 146 -200 168 -4 8 2 21 12 28 21 15 20 16 133 -81z m3642 82
c0 -19 -177 -190 -191 -185 -7 2 -17 12 -23 22 -12 19 -9 22 115 124 62 51 99
65 99 39z m67 -93 c2 -13 -25 -41 -88 -92 -88 -71 -124 -86 -124 -49 0 18 183
169 200 164 6 -2 11 -12 12 -23z m-3792 -63 c74 -57 95 -79 93 -95 -2 -11 -10
-22 -19 -24 -17 -3 -197 132 -206 154 -6 16 15 46 28 42 5 -2 52 -36 104 -77z
m3862 -27 c2 -14 -23 -38 -89 -86 -93 -69 -121 -80 -132 -53 -5 14 13 29 169
143 34 25 49 24 52 -4z m-3926 -62 c62 -46 94 -75 94 -88 0 -37 -39 -25 -125
36 -105 75 -114 84 -107 104 11 29 43 17 138 -52z m1150 9 c10 -28 143 -156
183 -176 30 -15 28 -59 -2 -63 -17 -3 -26 4 -36 30 -8 19 -56 73 -106 122 -56
54 -89 93 -86 102 9 24 37 15 47 -15z m2847 -41 c3 -16 -186 -150 -211 -150
-17 0 -31 30 -20 41 4 4 51 35 103 68 94 61 122 70 128 41z m-4061 -57 c83
-53 103 -71 101 -87 -2 -14 -10 -21 -24 -20 -24 0 -204 112 -211 131 -7 18 4
43 18 43 6 0 58 -30 116 -67z m1093 33 c10 -28 55 -62 93 -71 65 -17 76 -88
22 -142 -30 -30 -41 -35 -70 -31 -24 3 -32 1 -24 -7 6 -6 70 -10 161 -11 126
-1 152 -3 159 -17 12 -21 -17 -51 -40 -40 -9 4 -81 10 -160 13 l-144 5 -64 69
c-35 39 -74 75 -86 81 -29 14 -29 49 0 53 14 2 23 -3 28 -17 6 -21 81 -91 97
-91 30 0 -36 103 -78 122 -17 8 -24 18 -22 32 5 35 34 30 56 -9 23 -38 61 -61
86 -52 26 10 19 28 -30 73 -46 43 -50 64 -13 64 11 0 23 -10 29 -24z m3028
-74 c-4 -20 -197 -143 -218 -139 -8 1 -15 11 -15 22 0 15 28 36 104 82 100 59
135 69 129 35z m-4184 -47 c110 -65 124 -78 106 -100 -7 -8 -16 -15 -20 -15
-5 0 -56 27 -114 61 -71 41 -106 66 -106 78 0 45 21 41 134 -24z m4238 -67
c-6 -7 -58 -38 -116 -68 -81 -42 -108 -52 -117 -43 -22 22 0 43 108 97 92 46
110 52 122 41 11 -11 11 -17 3 -27z m-4304 -22 c48 -24 98 -53 112 -64 24 -20
24 -21 7 -39 -17 -17 -22 -16 -122 36 -114 59 -129 70 -119 95 9 24 26 20 122
-28z m4357 -66 c0 -18 -189 -119 -222 -120 -17 0 -23 6 -23 21 0 16 21 31 103
69 103 49 142 58 142 30z m-4387 -42 c95 -43 112 -55 110 -72 -2 -12 -10 -22
-19 -24 -16 -3 -215 81 -232 98 -12 11 1 50 16 50 7 0 63 -23 125 -52z m4430
-51 c17 -20 2 -32 -90 -72 -98 -42 -116 -56 -93 -75 12 -10 32 -6 109 20 93
32 126 34 126 6 0 -14 -24 -26 -164 -77 -89 -33 -106 -29 -106 26 0 18 -7 38
-15 45 -36 30 -18 47 98 93 129 53 121 51 135 34z m-4468 -49 c110 -46 114
-49 105 -77 -8 -27 -15 -26 -100 5 -162 60 -174 69 -155 104 13 25 16 24 150
-32z m-28 -105 c86 -32 98 -39 98 -60 0 -34 -17 -36 -84 -13 -33 11 -67 20
-76 20 -21 0 -110 49 -110 60 0 5 3 16 6 25 9 22 36 16 166 -32z m4582 -66 c8
-13 8 -20 -3 -26 -27 -17 -242 -82 -251 -76 -13 8 -13 42 1 51 18 11 223 73
233 70 5 -1 14 -10 20 -19z m-4624 -33 c87 -28 110 -39 110 -53 0 -41 -22 -41
-148 -4 -108 32 -122 38 -122 58 0 46 18 46 160 -1z m4655 -84 c0 -23 -7 -27
-120 -58 -66 -18 -126 -30 -132 -27 -7 2 -13 15 -13 28 0 22 9 27 113 55 133
36 152 37 152 2z m-4700 -14 c105 -29 120 -36 123 -56 6 -39 -10 -42 -109 -20
-148 32 -169 39 -169 56 0 19 18 54 28 54 4 0 61 -15 127 -34z m4731 -88 c10
-31 -11 -42 -135 -68 -116 -24 -141 -23 -141 9 0 27 8 31 124 56 131 30 143
30 152 3z m-4771 -13 c130 -27 145 -33 145 -61 0 -14 -6 -27 -14 -30 -18 -7
-247 35 -264 48 -24 21 6 72 38 63 8 -2 51 -11 95 -20z m549 9 c3 -9 6 -247 6
-529 0 -458 -2 -514 -16 -519 -9 -3 -60 -6 -114 -6 -78 0 -100 3 -111 17 -11
12 -15 70 -17 257 -2 252 -6 291 -23 280 -12 -7 -12 -7 16 306 9 102 18 191
20 198 3 9 36 12 119 12 95 0 115 -3 120 -16z m191 -9 c0 -23 -34 -33 -45 -14
-13 20 1 40 24 37 13 -2 21 -10 21 -23z m4053 -107 c3 -22 -2 -30 -22 -37 -36
-14 -235 -43 -247 -36 -5 4 -9 19 -9 35 0 25 5 30 33 35 17 3 66 12 107 20
109 20 134 16 138 -17z m-4810 1 c130 -23 156 -33 148 -56 -3 -8 -6 -19 -6
-24 0 -12 -82 -12 -151 1 -30 5 -71 12 -92 15 -21 3 -41 13 -44 21 -6 15 11
64 22 64 3 0 59 -9 123 -21z m4830 -120 c3 -33 0 -37 -30 -46 l-33 -11 31 -1
c37 -1 54 -17 54 -51 0 -30 -17 -50 -42 -50 -29 0 -21 -18 10 -22 24 -3 27 -7
27 -38 0 -43 -14 -48 -160 -49 -118 -1 -135 5 -135 45 0 26 10 34 54 45 l31 7
-38 1 c-29 1 -40 6 -48 25 -15 33 4 66 39 67 29 1 24 3 -20 13 -23 5 -28 12
-28 36 0 16 6 32 13 37 21 13 150 31 212 30 l60 -2 3 -36z m-4818 11 c47 -6
93 -13 103 -16 21 -7 24 -62 3 -70 -15 -6 -225 13 -258 22 -13 4 -18 16 -18
39 0 36 13 45 60 39 14 -2 63 -8 110 -14z m96 -117 c17 -6 26 -35 18 -57 -5
-14 -23 -16 -118 -15 -143 2 -170 7 -174 37 -8 53 -2 55 135 47 69 -3 132 -9
139 -12z m-36 -101 c42 -7 45 -9 48 -39 3 -28 0 -33 -25 -39 -48 -10 -49 -11
-13 -21 31 -8 35 -13 35 -43 0 -31 -3 -35 -37 -42 -21 -4 -84 -4 -140 0 l-103
7 0 30 c0 30 1 30 65 37 36 4 76 10 90 14 23 7 22 8 -15 15 -22 4 -61 8 -86 8
-57 1 -77 20 -61 56 11 24 15 25 104 24 51 0 113 -4 138 -7z m4715 -90 c48 -7
50 -9 53 -40 l3 -33 -138 3 -138 3 -3 32 c-2 23 1 32 15 36 27 7 151 6 208 -1z
m5 -121 c40 -6 45 -9 45 -31 0 -24 -3 -25 -65 -28 -36 -2 -97 -1 -137 3 -60 5
-73 10 -78 26 -13 40 10 49 104 43 47 -4 106 -10 131 -13z m-4675 -36 c0 -29
-1 -30 -60 -36 -33 -4 -95 -7 -137 -8 l-78 -1 0 29 c0 29 2 30 58 36 31 3 64
8 72 10 8 2 44 2 80 2 l65 -2 0 -30z m4579 -66 c103 -12 136 -22 136 -43 0
-28 -24 -33 -110 -25 -162 16 -170 18 -170 43 0 41 5 42 144 25z m-4566 -33
c2 -10 0 -22 -5 -27 -13 -13 -256 -40 -266 -30 -5 5 -7 19 -5 32 3 22 10 25
83 35 44 7 105 11 135 10 45 -1 55 -4 58 -20z m4572 -81 c52 -9 98 -19 102
-21 11 -7 10 -42 -2 -49 -12 -8 -227 24 -252 37 -37 18 -10 62 32 54 14 -3 68
-13 120 -21z m-4555 -16 c4 -12 3 -25 -3 -31 -10 -10 -207 -48 -249 -48 -24 0
-41 36 -25 52 10 10 186 45 239 47 24 1 33 -4 38 -20z m4502 -85 c134 -30 143
-34 143 -55 0 -11 -6 -22 -14 -25 -20 -8 -238 36 -254 51 -20 18 -4 45 28 45
16 0 59 -7 97 -16z m-4486 -10 c25 -30 -2 -48 -107 -71 -127 -28 -160 -29
-167 -4 -2 10 -2 24 2 30 6 9 201 58 242 60 9 1 22 -6 30 -15z m4435 -88 c27
-8 75 -21 107 -30 50 -14 57 -20 57 -41 0 -31 -9 -31 -120 -5 -128 31 -150 39
-150 59 0 35 26 40 106 17z m-4408 -28 c4 -34 -5 -39 -146 -74 -120 -29 -131
-27 -132 18 0 23 6 26 123 58 126 35 151 35 155 -2z m271 -12 c15 -14 32 -26
38 -26 5 0 29 -13 51 -30 23 -16 49 -30 58 -30 8 0 25 -5 36 -11 15 -8 22 -8
28 0 8 14 22 -1 80 -88 43 -64 100 -180 100 -203 0 -11 -39 -31 -102 -52 -20
-6 -22 -23 -8 -62 15 -38 4 -42 -28 -11 -32 31 -42 33 -82 12 -29 -15 -31 -14
-68 19 -40 37 -134 214 -151 284 -5 21 -21 77 -35 127 -15 49 -24 95 -22 101
7 19 74 0 105 -30z m4161 -79 c99 -31 105 -35 108 -62 4 -27 3 -28 -35 -22
-21 4 -82 20 -135 37 -76 24 -98 35 -98 49 0 41 23 40 160 -2z m-4400 2 c7
-11 9 -26 7 -33 -6 -16 -229 -88 -259 -84 -18 2 -24 11 -26 35 l-3 32 108 35
c127 41 158 44 173 15z m1464 -35 c18 -7 56 -86 56 -116 0 -33 -20 -59 -56
-74 -28 -12 -34 -20 -34 -44 0 -19 -11 -42 -31 -65 -27 -30 -37 -35 -75 -35
-83 0 -114 64 -84 172 11 37 69 98 95 98 7 0 23 16 35 35 22 35 53 45 94 29z
m2896 -68 c103 -38 115 -45 115 -67 0 -36 -28 -35 -151 9 -111 40 -130 56
-104 87 7 8 15 15 19 15 3 -1 58 -20 121 -44z m-36 -100 c101 -43 124 -61 113
-90 -10 -25 -42 -19 -157 28 -104 42 -120 56 -106 92 9 22 44 16 150 -30z
m-50 -92 c121 -55 131 -63 122 -99 -6 -24 -11 -27 -39 -22 -53 8 -232 100
-235 120 -4 22 15 47 36 47 8 0 60 -21 116 -46z m-72 -80 c125 -63 150 -82
146 -111 -6 -51 -28 -50 -130 1 -52 26 -107 57 -123 70 -27 21 -28 26 -17 50
16 35 38 33 124 -10z m-39 -101 c143 -81 159 -100 118 -137 -19 -17 -23 -16
-114 34 -52 28 -107 62 -123 75 -26 20 -27 25 -16 49 16 37 40 33 135 -21z
m-29 -113 c58 -38 106 -75 106 -80 0 -24 -22 -50 -41 -50 -10 0 -67 30 -124
66 -82 51 -105 70 -105 88 0 26 18 46 41 46 9 0 65 -31 123 -70z m-3874 30 c6
-11 8 -25 5 -30 -6 -10 -192 -139 -211 -147 -14 -5 -44 24 -44 43 0 15 205
154 227 154 7 0 17 -9 23 -20z m745 -55 c0 -22 -31 -33 -47 -17 -17 17 -1 44
24 40 15 -2 23 -10 23 -23z m3063 -61 c89 -66 103 -80 100 -102 -6 -46 -30
-49 -93 -11 -85 51 -165 117 -165 136 0 19 28 53 44 53 6 0 57 -34 114 -76z
m-3748 27 c5 -11 10 -22 10 -24 0 -2 -48 -39 -106 -82 -85 -62 -110 -76 -123
-68 -37 23 -18 50 83 122 55 39 105 71 112 71 8 0 18 -9 24 -19z m3627 -66
c28 -19 78 -59 110 -89 54 -51 57 -55 45 -80 -16 -36 -38 -42 -76 -21 l-31 18
23 -25 c12 -13 22 -32 22 -41 0 -28 -39 -60 -64 -53 -20 5 -22 2 -18 -22 4
-33 -27 -67 -55 -58 -10 4 -61 47 -113 96 l-95 89 15 28 c9 15 26 29 38 31 15
2 22 10 22 25 0 12 13 36 29 52 16 17 41 42 55 58 14 15 29 27 33 27 5 0 32
-16 60 -35z m-3567 -10 c7 -8 10 -21 7 -28 -10 -25 -197 -169 -213 -163 -21 8
-28 34 -13 52 17 21 189 154 199 154 4 0 13 -7 20 -15z m746 -57 c175 -117
359 -201 547 -249 183 -46 235 -52 472 -54 l230 -1 8 -39 c5 -22 9 -71 11
-110 1 -38 6 -83 9 -100 4 -16 3 -35 -1 -42 -18 -29 -346 -43 -527 -23 -297
33 -591 133 -825 280 -129 81 -230 158 -230 176 0 20 39 86 56 97 7 4 34 36
60 72 26 36 55 65 65 65 9 0 66 -33 125 -72z m1794 -8 c20 -37 -14 -69 -51
-50 -24 13 -25 56 -2 68 21 12 41 5 53 -18z m-2476 -15 c8 -9 13 -21 10 -28
-3 -8 -48 -51 -100 -96 -92 -80 -96 -83 -115 -66 -10 10 -19 22 -19 26 0 9
192 179 202 179 4 0 13 -7 22 -15z m75 -79 c18 -21 6 -38 -91 -126 -73 -68
-93 -82 -107 -73 -9 6 -17 17 -19 25 -3 17 172 188 192 188 8 0 19 -6 25 -14z
m3270 -125 c50 -54 91 -106 91 -115 0 -8 -11 -23 -25 -32 -25 -16 -26 -16 -92
47 -67 62 -133 135 -133 147 0 11 44 52 56 52 6 0 53 -44 103 -99z m-3201 57
c21 -21 13 -36 -70 -125 -83 -88 -111 -103 -131 -72 -9 14 6 35 78 113 48 53
93 96 100 96 6 0 16 -5 23 -12z m3121 -134 c45 -52 81 -103 81 -113 0 -22 -19
-41 -41 -41 -22 0 -178 167 -186 199 -6 26 17 51 48 51 9 0 53 -43 98 -96z
m-3039 61 c6 -8 10 -19 8 -24 -9 -28 -163 -201 -178 -201 -20 0 -44 24 -38 39
7 21 171 201 183 201 7 0 18 -7 25 -15z m2947 -122 c95 -120 99 -127 71 -153
-29 -27 -36 -26 -82 18 -27 25 -34 29 -23 12 46 -67 46 -92 2 -112 -22 -10
-29 -8 -57 18 -24 23 -29 25 -23 9 18 -46 18 -68 0 -82 -35 -25 -52 -14 -107
70 -88 132 -94 145 -82 165 6 9 24 18 40 20 24 2 34 -5 59 -42 16 -25 31 -43
33 -41 2 2 -10 24 -27 49 -36 52 -36 54 -14 78 20 23 50 23 77 1 12 -10 15
-11 9 -3 -16 18 -17 52 -1 68 28 28 54 13 125 -75z m-2873 61 c9 -3 16 -13 16
-21 0 -18 -139 -209 -158 -217 -20 -9 -52 12 -52 33 0 21 149 209 167 210 6 1
18 -2 27 -5z m1896 -39 c0 -10 -10 -15 -26 -15 -22 0 -25 2 -14 15 7 8 19 15
26 15 8 0 14 -7 14 -15z m-1801 -34 c8 -15 -3 -38 -65 -125 -75 -107 -97 -123
-124 -91 -17 20 -12 30 71 140 73 97 98 113 118 76z m1676 -5 c-41 -18 -95
-27 -95 -17 0 10 64 29 100 29 24 0 24 0 -5 -12z m-1587 -63 c2 -14 -22 -60
-68 -127 -39 -58 -73 -106 -76 -106 -18 0 -44 24 -44 40 0 11 30 65 67 121 58
88 70 100 92 97 18 -2 27 -10 29 -25z m2430 -119 c34 -58 62 -114 62 -124 0
-21 -34 -44 -54 -37 -16 6 -136 210 -136 231 0 18 38 46 54 40 6 -2 39 -52 74
-110z m-2339 77 c8 -14 -2 -40 -52 -126 -71 -124 -86 -138 -116 -111 -12 11
-21 22 -21 25 0 7 87 163 116 209 18 27 59 29 73 3z m2183 -38 c8 -10 40 -64
69 -121 53 -100 54 -103 34 -118 -11 -8 -26 -13 -33 -12 -8 2 -42 56 -76 121
-59 114 -60 118 -42 132 25 19 30 19 48 -2z m-2089 -14 c8 -13 -4 -43 -51
-130 -54 -103 -63 -114 -88 -114 -53 0 -52 24 5 137 30 56 58 109 64 116 14
17 57 11 70 -9z m81 -32 c24 -18 17 -46 -42 -167 -40 -80 -51 -95 -73 -98 -45
-5 -55 20 -30 79 89 207 99 219 145 186z m1963 -103 c45 -90 55 -119 46 -132
-24 -39 -41 -25 -91 75 -61 121 -67 140 -52 158 25 30 42 13 97 -101z m-1867
58 l22 -17 -25 -65 c-43 -112 -77 -180 -91 -186 -21 -8 -56 14 -56 34 0 10 16
58 36 108 63 155 69 162 114 126z m1775 -118 c45 -113 45 -139 2 -132 -15 2
-32 32 -68 115 -49 111 -52 138 -21 146 27 6 41 -15 87 -129z m-1677 84 c7 -7
12 -19 12 -28 0 -22 -76 -230 -89 -243 -17 -17 -61 8 -61 34 0 27 57 196 76
227 16 24 43 29 62 10z m1572 -120 c42 -116 43 -121 25 -134 -25 -18 -32 -18
-44 5 -19 34 -81 213 -81 231 0 18 24 30 46 23 5 -2 30 -58 54 -125z m-1466
56 c-1 -16 -5 -44 -9 -61 -12 -51 10 -40 25 12 16 57 32 72 65 57 14 -7 25
-20 25 -29 -1 -33 -57 -244 -69 -256 -8 -8 -19 -8 -38 -1 -26 9 -28 14 -25 57
4 58 -10 61 -31 7 -17 -44 -33 -49 -66 -22 l-22 17 36 120 c20 66 43 125 51
132 26 19 59 0 58 -33z m1360 -86 c21 -65 36 -124 32 -133 -3 -8 -16 -15 -30
-15 -22 0 -27 9 -55 98 -50 163 -51 176 -8 170 18 -2 28 -22 61 -120z m-105
-29 c18 -66 30 -127 27 -135 -3 -8 -17 -14 -30 -14 -20 0 -27 7 -34 33 -60
218 -61 237 -19 237 23 0 27 -9 56 -121z m-1060 92 c23 -15 -27 -274 -56 -285
-19 -8 -63 11 -63 27 0 18 39 195 51 235 11 33 37 42 68 23z m925 1 c12 -19
57 -244 52 -258 -3 -8 -17 -14 -30 -14 -21 0 -27 7 -35 38 -24 94 -44 210 -38
225 7 18 42 23 51 9z m-818 -26 c5 -14 -22 -233 -32 -261 -8 -21 -61 -19 -72
3 -10 18 19 209 37 250 12 25 58 31 67 8z m741 -106 c11 -63 23 -137 25 -165
3 -44 1 -50 -17 -50 -12 0 -21 8 -24 20 -2 11 -9 24 -16 30 -8 5 -22 66 -33
135 -21 133 -18 154 22 148 18 -3 24 -18 43 -118z m-648 101 c12 -8 13 -29 3
-137 -12 -143 -23 -166 -67 -146 -16 8 -25 20 -25 35 0 34 29 238 36 248 7 12
35 11 53 0z m518 -3 c12 -16 43 -246 36 -265 -3 -7 -18 -13 -34 -13 -33 0 -32
-3 -49 153 -10 84 -9 111 0 122 15 18 34 19 47 3z m-409 -111 c2 -80 6 -107
15 -104 8 2 14 36 17 95 5 97 14 116 51 110 24 -3 24 -5 27 -123 3 -147 0
-165 -34 -165 -14 0 -34 5 -45 10 -13 8 -25 7 -40 0 -24 -13 -65 -6 -72 12 -8
22 14 252 26 266 5 7 20 12 31 10 20 -3 21 -10 24 -111z m312 87 c6 -14 11
-78 13 -142 l2 -117 -30 0 c-29 0 -30 1 -36 60 -12 108 -10 213 4 218 26 11
38 6 47 -19z m-97 -74 c4 -47 6 -110 5 -140 -3 -49 -6 -55 -26 -58 -46 -7 -52
11 -52 148 0 69 3 130 7 134 4 4 19 6 33 4 24 -3 25 -7 33 -88z m705 -118 c2
-7 -3 -12 -12 -12 -9 0 -16 7 -16 16 0 17 22 14 28 -4z"/>
<path d="M3300 5405 c0 -12 16 -15 80 -15 64 0 80 3 80 15 0 12 -16 15 -80 15
-64 0 -80 -3 -80 -15z"/>
<path d="M4010 4614 c-68 -63 -174 -183 -168 -189 3 -3 43 30 89 73 46 43 94
84 106 90 12 7 59 12 105 12 57 0 90 5 104 14 31 23 7 34 -93 41 l-91 7 -52
-48z"/>
<path d="M3057 4603 c-4 -3 -7 -27 -7 -52 0 -41 4 -49 53 -94 65 -61 95 -82
105 -72 4 4 -1 12 -12 19 -42 25 -66 48 -66 63 0 8 -9 26 -20 40 -11 14 -23
43 -26 65 -6 37 -13 45 -27 31z"/>
<path d="M2400 4567 c0 -7 17 -33 37 -57 36 -42 38 -47 43 -135 3 -56 10 -98
19 -108 11 -14 34 -17 137 -17 67 0 135 5 150 10 43 17 66 4 62 -35 -2 -26 3
-38 24 -54 14 -12 28 -21 30 -21 1 0 4 19 5 43 2 23 7 43 13 45 19 7 10 32
-12 37 -39 10 -292 12 -310 4 -34 -18 -46 -1 -45 61 0 64 10 76 50 61 12 -4
89 -6 171 -4 161 3 166 2 230 -56 40 -36 29 -12 -19 40 l-39 44 -101 6 c-55 4
-140 7 -189 8 l-89 1 -73 70 c-74 70 -94 82 -94 57z"/>
<path d="M3985 4478 c-36 -40 -71 -80 -76 -90 -17 -31 9 -21 59 25 93 84 87
81 180 87 69 4 87 8 90 21 4 21 -25 29 -115 29 l-71 0 -67 -72z"/>
<path d="M3250 4468 c0 -18 27 -44 37 -34 4 4 -3 16 -15 29 -18 17 -22 18 -22
5z"/>
<path d="M4485 4409 l-68 -64 -148 -3 c-148 -4 -149 -4 -168 -30 l-19 -27 184
0 183 0 50 49 c57 56 78 96 63 121 -8 15 -19 8 -77 -46z"/>
<path d="M2412 4436 c-10 -22 -9 -45 4 -86 9 -27 24 11 24 63 0 51 -11 60 -28
23z"/>
<path d="M2337 4417 c-7 -19 4 -68 14 -61 12 7 12 74 0 74 -5 0 -11 -6 -14
-13z"/>
<path d="M2718 4354 c-19 -19 -1 -23 112 -26 102 -3 117 -1 105 11 -15 16
-204 29 -217 15z"/>
<path d="M2600 4340 c0 -5 5 -10 10 -10 6 0 10 5 10 10 0 6 -4 10 -10 10 -5 0
-10 -4 -10 -10z"/>
<path d="M3996 4343 c-11 -11 -6 -23 9 -23 8 0 15 4 15 9 0 13 -16 22 -24 14z"/>
<path d="M2433 4224 c-3 -8 -1 -26 6 -40 8 -19 15 -23 28 -16 10 6 87 13 170
17 85 4 150 11 147 16 -3 5 -67 9 -142 9 -100 1 -144 5 -162 15 -32 18 -39 18
-47 -1z"/>
<path d="M2495 4130 c-10 -11 -16 -22 -14 -23 2 -2 76 0 164 3 89 4 171 3 185
-2 25 -9 25 -9 5 10 -17 17 -40 20 -171 26 -142 5 -152 5 -169 -14z"/>
<path d="M2150 4098 c1 -19 24 -46 40 -48 49 -7 51 7 7 38 -38 25 -47 27 -47
10z"/>
<path d="M2070 4074 c0 -20 24 -44 45 -44 32 0 32 13 0 34 -24 16 -45 21 -45
10z"/>
<path d="M2490 4052 c-43 -35 -18 -41 129 -31 74 5 135 10 137 12 2 1 0 8 -4
14 -4 7 -55 14 -122 18 -107 7 -117 6 -140 -13z"/>
<path d="M4720 3991 c0 -5 9 -19 20 -32 15 -19 19 -21 20 -7 0 27 -11 48 -26
48 -8 0 -14 -4 -14 -9z"/>
<path d="M4515 3965 c16 -13 32 -22 34 -19 7 6 -40 44 -54 43 -5 0 3 -11 20
-24z"/>
<path d="M2610 3964 c0 -14 59 -44 86 -44 17 0 24 6 24 20 0 16 -7 20 -32 20
-18 0 -43 3 -55 6 -13 4 -23 2 -23 -2z"/>
<path d="M4580 3914 c8 -12 30 -43 48 -68 25 -35 32 -54 28 -74 -5 -22 3 -36
45 -81 27 -29 52 -51 55 -49 11 12 6 110 -7 122 -8 7 -52 48 -99 92 -46 43
-78 69 -70 58z"/>
<path d="M2657 3833 c-10 -9 -9 -23 2 -23 5 0 11 7 15 15 5 15 -5 20 -17 8z"/>
<path d="M2212 3822 c-51 -15 -24 -27 66 -30 52 -2 92 1 92 7 0 7 -115 34
-131 30 -2 -1 -14 -4 -27 -7z"/>
<path d="M5027 3803 c-4 -3 -7 -18 -7 -31 0 -24 1 -24 19 -8 41 37 81 -12 81
-100 0 -37 13 -44 77 -44 l45 0 -7 78 c-10 113 -10 112 -114 112 -48 0 -91 -3
-94 -7z"/>
<path d="M4107 3789 c-16 -9 -17 -12 -3 -22 13 -11 13 -26 0 -132 -8 -66 -15
-190 -16 -275 l-3 -154 27 -10 c15 -5 30 -7 34 -4 3 4 6 106 6 227 0 132 3
223 9 227 6 4 6 11 -1 19 -6 8 -11 24 -10 37 8 90 -3 110 -43 87z"/>
<path d="M2124 3766 c-13 -34 2 -61 46 -86 42 -23 55 -25 177 -25 132 0 133 0
160 28 l28 29 -25 19 c-22 17 -45 20 -178 22 -100 2 -156 7 -164 15 -16 16
-37 15 -44 -2z"/>
<path d="M4577 3724 c-7 -7 161 -194 175 -194 4 0 8 13 8 29 0 23 -15 43 -76
100 -72 67 -92 79 -107 65z"/>
<path d="M2565 3654 c-22 -19 -51 -40 -65 -45 -20 -8 -22 -12 -10 -19 27 -18
46 -10 81 33 64 77 62 90 -6 31z"/>
<path d="M4506 3681 c-6 -10 145 -179 180 -201 19 -12 26 -12 36 -2 11 11 -7
32 -91 112 -102 99 -115 108 -125 91z"/>
<path d="M4510 3536 c0 -7 32 -50 71 -95 l71 -82 0 -164 -1 -163 44 -41 c44
-40 46 -41 120 -41 43 0 75 4 75 10 0 6 -23 10 -51 10 -39 0 -58 6 -83 25 -58
46 -66 55 -66 80 0 14 -5 34 -12 44 -23 37 19 78 50 48 13 -13 13 -21 4 -42
-16 -36 -15 -61 5 -80 29 -29 36 5 28 134 l-7 117 -26 -1 c-25 0 -27 3 -26 39
1 36 -5 45 -87 127 -87 87 -109 103 -109 75z"/>
<path d="M4010 3379 c-8 -19 -20 -38 -27 -42 -10 -6 -11 -13 -2 -30 14 -27 50
-67 60 -67 9 0 0 124 -11 154 -5 16 -9 14 -20 -15z"/>
<path d="M4519 3391 c6 -11 16 -23 21 -26 6 -3 10 -19 10 -35 0 -19 8 -35 23
-45 21 -15 22 -15 25 16 4 32 -29 78 -71 101 -16 8 -17 7 -8 -11z"/>
<path d="M5060 3391 c-37 -10 -50 -46 -48 -126 l3 -70 87 -3 86 -3 -1 33 c-2
27 2 34 20 36 25 4 31 19 35 92 l3 45 -80 2 c-44 1 -91 -2 -105 -6z"/>
<path d="M2043 3303 c-30 -20 -29 -41 2 -55 20 -9 28 -8 43 5 14 13 38 17 103
17 138 0 249 11 249 25 0 21 -37 25 -210 24 -133 0 -169 -3 -187 -16z"/>
<path d="M2101 3242 c-22 -15 -4 -31 57 -48 76 -22 181 -21 229 3 69 34 55 43
-70 43 -63 0 -134 2 -158 5 -24 3 -50 2 -58 -3z"/>
<path d="M3780 3101 c0 -4 -36 -25 -80 -45 -82 -37 -244 -75 -335 -77 -92 -3
95 -16 330 -24 191 -6 225 -5 259 9 32 13 37 18 26 31 -7 8 -18 15 -24 15 -7
0 -46 23 -88 50 -79 52 -88 56 -88 41z"/>
<path d="M4462 2998 c-7 -7 -12 -36 -12 -65 l0 -54 87 -90 88 -91 73 4 c60 3
77 7 88 23 7 11 20 27 29 36 14 15 14 17 -7 23 -13 3 -49 6 -81 6 -55 0 -59 2
-120 56 -94 85 -117 112 -117 139 0 27 -9 32 -28 13z"/>
<path d="M2331 2836 c-80 -80 -143 -147 -140 -150 9 -10 62 36 189 167 68 70
118 127 111 127 -8 0 -79 -65 -160 -144z"/>
<path d="M3987 2958 c-38 -28 -177 -37 -583 -38 -318 0 -369 4 -360 26 4 11
-11 14 -75 14 -51 0 -78 -4 -74 -10 3 -5 18 -11 33 -11 18 -1 21 -3 9 -6 -27
-7 -16 -26 30 -49 39 -20 60 -21 538 -27 482 -6 498 -6 539 14 24 11 52 33 64
49 21 27 21 30 5 38 -10 6 -36 12 -58 16 -32 5 -46 1 -68 -16z"/>
<path d="M4360 2868 l1 -93 89 -94 89 -95 62 -4 c61 -5 199 15 199 28 0 3 -6
14 -13 24 -10 14 -33 20 -99 25 l-87 6 -73 69 c-136 128 -138 131 -138 181 0
33 -4 45 -15 45 -12 0 -15 -17 -15 -92z"/>
<path d="M2566 2853 c-187 -178 -316 -308 -316 -320 0 -30 31 -7 128 95 180
188 284 302 277 302 -4 0 -44 -35 -89 -77z"/>
<path d="M3943 2539 c36 -50 196 -215 227 -233 l33 -19 -19 33 c-18 31 -183
191 -233 227 l-25 17 17 -25z"/>
<path d="M3947 2424 c112 -129 256 -249 173 -144 -35 45 -193 193 -213 199 -6
2 11 -22 40 -55z"/>
<path d="M3830 2421 c0 -12 192 -223 244 -268 35 -31 76 -44 76 -24 0 33 -269
301 -302 301 -10 0 -18 -4 -18 -9z"/>
<path d="M3687 2162 c-73 -74 -91 -102 -65 -102 12 0 167 159 168 173 1 22
-34 -2 -103 -71z"/>
<path d="M3970 2058 c16 -17 33 -29 37 -24 4 4 -6 18 -22 31 -42 34 -49 31
-15 -7z"/>
<path d="M3380 2037 c0 -8 10 -23 23 -35 20 -19 35 -22 106 -22 81 0 82 0 75
23 -3 12 -7 22 -8 22 0 1 -18 6 -38 13 -27 9 -43 10 -57 3 -25 -14 -68 -14
-76 -1 -9 14 -25 12 -25 -3z"/>
<path d="M3938 2008 c12 -12 24 -19 28 -15 10 10 -16 37 -34 37 -13 0 -12 -4
6 -22z"/>
<path d="M5375 5931 c-7 -13 61 -65 75 -56 15 10 12 30 -8 48 -20 18 -57 23
-67 8z"/>
<path d="M1187 5572 c-21 -23 -22 -62 -3 -62 15 0 56 50 56 69 0 18 -35 13
-53 -7z"/>
<path d="M6063 5090 c-18 -11 -35 -30 -39 -44 -13 -52 39 -91 88 -66 65 34 86
81 50 113 -25 22 -60 21 -99 -3z"/>
<path d="M501 2807 c-55 -28 -42 -100 20 -105 78 -7 128 42 95 93 -13 19 -25
25 -54 25 -20 0 -48 -6 -61 -13z"/>
<path d="M6326 2584 c-18 -18 -19 -79 -1 -79 11 0 31 39 37 69 4 25 -16 31
-36 10z"/>
<path d="M777 2234 c-10 -10 33 -86 46 -81 17 5 21 42 7 66 -10 20 -40 28 -53
15z"/>
<path d="M5596 1265 c-19 -30 -20 -49 -3 -63 23 -19 57 13 57 54 0 27 -4 34
-19 34 -10 0 -26 -11 -35 -25z"/>
<path d="M2367 722 c-41 -45 -44 -112 -6 -133 47 -25 99 22 99 90 0 54 -58 82
-93 43z"/>
<path d="M4252 628 c-25 -25 -14 -41 25 -35 41 7 59 20 49 36 -9 15 -59 14
-74 -1z"/>
<path d="M3278 523 c-9 -10 -19 -37 -23 -60 -5 -34 -3 -45 14 -62 25 -25 63
-27 81 -6 18 21 24 98 11 124 -14 26 -61 28 -83 4z"/>
</g>
</svg>
