<svg id="Layer_1" data-name="Layer 1" xmlns="http://www.w3.org/2000/svg" viewBox="0 0 111.81 122.88"><defs><style>.cls-1{fill-rule:evenodd;}</style></defs><title>job-security</title><path class="cls-1" d="M55.71,0C76.56,13.21,95.4,19.47,111.56,18c2.82,57.1-18.26,90.82-55.63,104.89C19.84,109.71-1.5,77.44.08,17.12c19,1,37.59-3.11,55.63-17.12ZM33.14,40.24H46.22V36.48a2.07,2.07,0,0,1,2.06-2h15a2,2,0,0,1,2.05,2v3.76H78.39a2.84,2.84,0,0,1,2,.85,2.92,2.92,0,0,1,.85,2v4.38a65.54,65.54,0,0,1-10,5.59,57.52,57.52,0,0,1-11.67,3.81v-2.7a2,2,0,0,0-2-2H53.88a2,2,0,0,0-1.42.58,2,2,0,0,0-.59,1.43v2.64A57.14,57.14,0,0,1,40.48,53.1a64.68,64.68,0,0,1-10.24-5.78V43.13a2.9,2.9,0,0,1,2.9-2.89Zm28.56-3H49.84a.24.24,0,0,0-.18.08.27.27,0,0,0-.07.18v2.66H62V37.49a.25.25,0,0,0-.08-.18.23.23,0,0,0-.18-.08ZM57.65,54H53.88a.25.25,0,0,0-.15.06.19.19,0,0,0-.06.16v7.95a.2.2,0,0,0,.06.15.17.17,0,0,0,.15.06h3.77a.25.25,0,0,0,.16-.06.2.2,0,0,0,.06-.15V54.21a.28.28,0,0,0-.06-.16.25.25,0,0,0-.16-.06Zm2,5.46a1.42,1.42,0,0,0,.58,0,60.21,60.21,0,0,0,12.3-4,66.88,66.88,0,0,0,8.75-4.74V71.38a2.9,2.9,0,0,1-2.9,2.9H33.14a2.9,2.9,0,0,1-2.05-.85,2.94,2.94,0,0,1-.85-2.05V50.51a66.6,66.6,0,0,0,9,4.92,61.13,61.13,0,0,0,12.31,4l.3,0v2.68a2,2,0,0,0,2,2h3.77a2,2,0,0,0,1.42-.59,2,2,0,0,0,.59-1.42V59.45ZM55.75,9.51C73,20.47,89.63,26.63,103,25.4c2.34,47.36-16.12,76.3-47.11,88C26,102.44,7.32,74.71,8.64,24.69,26,25.6,41.92,20.26,55.75,9.51Z"/></svg>