<?xml version="1.0" standalone="no"?>
<!DOCTYPE svg PUBLIC "-//W3C//DTD SVG 20010904//EN"
 "http://www.w3.org/TR/2001/REC-SVG-20010904/DTD/svg10.dtd">
<svg version="1.0" xmlns="http://www.w3.org/2000/svg"
 width="512.000000pt" height="512.000000pt" viewBox="0 0 512.000000 512.000000"
 preserveAspectRatio="xMidYMid meet">
<metadata>
Created by potrace 1.16, written by Peter Selinger 2001-2019
</metadata>
<g transform="translate(0.000000,512.000000) scale(0.100000,-0.100000)"
fill="#000000" stroke="none">
<path d="M1 3913 c1 -735 5 -1173 10 -1120 49 504 244 985 556 1372 105 130
321 340 448 436 383 287 833 462 1312 508 53 5 -385 9 -1119 10 l-1208 1 1
-1207z"/>
<path d="M2793 5109 c481 -46 926 -219 1315 -511 119 -89 339 -302 437 -423
234 -288 411 -643 500 -1005 29 -118 58 -297 68 -425 2 -22 4 503 5 1168 l2
1207 -1207 -1 c-735 -1 -1173 -5 -1120 -10z"/>
<path d="M1375 3826 c-41 -18 -83 -69 -90 -109 -3 -18 -4 -550 -3 -1184 3
-1145 3 -1152 24 -1179 11 -15 33 -37 48 -48 27 -21 31 -21 1206 -21 1175 0
1179 0 1206 21 15 11 37 33 48 48 21 27 21 31 21 1206 0 1175 0 1179 -21 1206
-11 15 -33 37 -48 48 -27 21 -33 21 -1194 23 -955 2 -1173 0 -1197 -11z m579
-318 c86 -26 166 -136 166 -228 0 -124 -116 -240 -240 -240 -124 0 -240 116
-240 240 0 63 23 114 75 165 70 71 145 90 239 63z m126 -1228 l0 -600 -200 0
-200 0 0 600 0 600 200 0 200 0 0 -600z m561 483 c0 -71 4 -108 8 -93 33 108
124 175 275 201 216 37 393 -48 479 -229 l32 -67 3 -447 3 -448 -201 0 -200 0
0 413 c0 358 -2 415 -16 435 -37 53 -164 87 -237 63 -52 -17 -104 -82 -127
-159 -18 -59 -20 -94 -20 -408 l0 -344 -200 0 -200 0 0 600 0 600 200 0 200 0
1 -117z"/>
<path d="M1 1208 l-1 -1208 1208 2 c664 1 1189 3 1167 5 -344 29 -653 114
-954 264 -421 208 -781 535 -1032 934 -206 328 -339 724 -378 1122 -5 53 -9
-385 -10 -1119z"/>
<path d="M5110 2363 c0 -76 -36 -297 -69 -430 -83 -328 -234 -642 -443 -921
-89 -119 -302 -339 -423 -437 -288 -234 -643 -411 -1005 -500 -118 -29 -297
-58 -425 -68 -22 -2 503 -4 1168 -5 l1207 -2 0 1205 c0 663 -2 1205 -5 1205
-3 0 -5 -21 -5 -47z"/>
</g>
</svg>
