<svg version="1.1" id="Layer_1" xmlns="http://www.w3.org/2000/svg" xmlns:xlink="http://www.w3.org/1999/xlink" x="0px" y="0px"
	 width="100%" viewBox="0 0 225 225" enable-background="new 0 0 225 225" xml:space="preserve">
<path fill="#FEFFFF" opacity="1.000000" stroke="none" 
	d="
M127.000000,226.000000 
	C84.666672,226.000000 42.833340,226.000000 1.000006,226.000000 
	C1.000004,151.000000 1.000004,76.000015 1.000002,1.000016 
	C75.999992,1.000010 150.999985,1.000010 225.999969,1.000005 
	C225.999985,75.999985 225.999985,150.999969 226.000000,225.999969 
	C193.166672,226.000000 160.333328,226.000000 127.000000,226.000000 
M115.844780,206.217148 
	C136.073105,194.372971 156.308884,182.541443 176.509109,170.649536 
	C177.589722,170.013382 178.370850,168.868515 179.765045,168.263504 
	C182.616180,166.317444 186.405930,164.978882 188.135345,162.306808 
	C192.600906,155.407272 190.267960,146.978912 191.933685,139.351807 
	C192.292099,137.710648 191.138733,135.781204 191.322769,134.052780 
	C192.095825,126.791939 193.201675,119.566505 193.973862,112.305588 
	C194.157379,110.580040 193.268311,108.760071 193.319336,106.996452 
	C193.409210,103.889282 193.853470,100.792976 194.128082,97.690239 
	C194.243607,96.384857 194.277481,95.072174 194.396393,93.767181 
	C194.680908,90.644485 195.006393,87.525520 195.289352,84.402695 
	C195.405701,83.118782 195.368576,81.816193 195.553879,80.544334 
	C195.895737,78.197685 196.350281,75.867447 196.635773,72.699738 
	C196.841049,69.561386 197.199692,66.422050 197.179672,63.285130 
	C197.171082,61.943020 196.373672,60.605946 195.316681,59.053715 
	C194.882294,59.039150 194.447906,59.024586 193.685974,58.469955 
	C187.851837,56.958069 182.026459,55.411449 176.181793,53.941391 
	C163.290573,50.698959 150.441208,47.266205 137.476929,44.345367 
	C126.390800,41.847679 115.676888,37.110603 103.638985,41.048859 
	C92.430634,44.715733 80.731705,46.874767 69.266136,49.766602 
	C61.344864,51.764500 53.438400,53.825256 45.554279,55.964653 
	C41.336147,57.109268 37.179325,58.479805 32.301079,59.645187 
	C27.824442,59.727543 31.142885,63.060703 30.055338,65.532753 
	C30.378670,71.284340 30.685926,77.036949 31.048275,82.786072 
	C31.087896,83.414703 31.546352,84.009026 31.635630,84.643860 
	C31.938271,86.795906 32.281433,88.952835 32.393795,91.119072 
	C32.716545,97.341156 32.918888,103.569443 33.225544,109.792488 
	C33.246235,110.212410 33.886776,110.575714 33.988579,111.022423 
	C34.342426,112.575096 34.800499,114.148346 34.834019,115.721970 
	C34.976772,122.423996 34.950726,129.129562 35.080204,135.832031 
	C35.094433,136.568817 35.836693,137.264023 36.020321,138.031403 
	C36.308388,139.235214 36.497143,140.478638 36.572750,141.714783 
	C36.959362,148.035706 37.294319,154.359802 37.665367,160.681732 
	C37.672180,160.797867 37.901604,160.900925 37.989120,161.718094 
	C38.622620,162.433411 39.126751,163.364975 39.908413,163.832626 
	C63.476643,177.933060 87.058113,192.011703 110.705673,205.978333 
	C111.876923,206.670105 113.660812,206.324585 115.844780,206.217148 
z"/>
<path fill="#B0B2B1" opacity="1.000000" stroke="none" 
	d="
M32.994835,59.748383 
	C37.179325,58.479805 41.336147,57.109268 45.554279,55.964653 
	C53.438400,53.825256 61.344864,51.764500 69.266136,49.766602 
	C80.731705,46.874767 92.430634,44.715733 103.638985,41.048859 
	C115.676888,37.110603 126.390800,41.847679 137.476929,44.345367 
	C150.441208,47.266205 163.290573,50.698959 176.181793,53.941391 
	C182.026459,55.411449 187.851837,56.958069 193.852432,58.982109 
	C194.018890,59.494267 193.906738,59.965298 193.550079,59.964592 
	C187.784729,62.015068 182.376053,64.066246 176.570541,66.045113 
	C174.257294,66.424957 172.288712,66.723450 170.432739,67.353638 
	C155.999115,72.254486 141.384583,76.710243 127.238869,82.340858 
	C117.600388,86.177414 108.657867,87.350754 99.363770,82.145523 
	C98.109940,81.443298 96.517334,81.345955 94.796425,80.747276 
	C82.681824,76.423454 70.852409,72.320877 58.668068,68.115311 
	C54.255096,66.987961 50.197037,65.963615 46.020477,64.610977 
	C44.932865,63.836987 43.963764,63.391270 42.625889,62.901886 
	C40.473583,62.239765 38.690048,61.621311 36.709946,60.700550 
	C35.341038,60.317223 34.168705,60.236202 32.963470,60.053604 
	C32.930573,59.952026 32.994835,59.748386 32.994835,59.748383 
M145.103775,71.326141 
	C145.206100,71.372673 145.308441,71.419212 145.410767,71.465744 
	C145.284042,71.302116 145.157303,71.138496 145.026367,70.274117 
	C144.692154,69.648170 144.357941,69.022224 144.023712,68.396271 
	C143.729492,68.695282 143.435272,68.994293 143.141068,69.293304 
	C143.753906,69.870720 144.366760,70.448135 145.103775,71.326141 
M137.432831,55.463497 
	C138.290100,55.180061 139.147369,54.896626 140.004639,54.613190 
	C122.653725,53.987213 105.378052,53.950863 88.103302,54.060757 
	C86.813095,54.068966 85.529541,55.123970 84.242897,55.692348 
	C84.384232,55.908340 84.525566,56.124332 84.666901,56.340324 
	C86.457161,56.250168 88.247429,56.160011 90.006866,56.525288 
	C90.006866,56.525288 90.104866,56.971107 89.924477,57.761242 
	C89.267570,61.547867 88.610672,65.334488 88.015266,69.931526 
	C89.111862,70.620605 90.185760,71.865417 91.308624,71.911285 
	C100.723961,72.295868 110.148964,72.636017 119.569550,72.599777 
	C123.053551,72.586380 126.533554,71.531860 130.881653,71.017120 
	C137.324265,71.403229 139.333771,70.251137 138.827713,66.160355 
	C138.446686,63.080265 137.632660,60.053734 137.093979,56.493523 
	C137.065048,56.323814 137.036118,56.154106 137.432831,55.463497 
M143.874603,64.470604 
	C143.480621,64.118980 143.086655,63.767365 142.692688,63.415749 
	C142.547989,63.968498 142.403290,64.521248 142.258591,65.073997 
	C142.755035,65.075905 143.251495,65.077820 143.874603,64.470604 
M142.321243,58.405106 
	C141.956558,58.899342 141.591858,59.393581 141.227158,59.887814 
	C141.581436,60.093159 141.935730,60.298504 142.290009,60.503849 
	C142.443298,59.954929 142.596573,59.406006 142.321243,58.405106 
z"/>
<path fill="#EBF0EC" opacity="1.000000" stroke="none" 
	d="
M196.757874,73.530373 
	C196.350281,75.867447 195.895737,78.197685 195.553879,80.544334 
	C195.368576,81.816193 195.405701,83.118782 195.289352,84.402695 
	C195.006393,87.525520 194.680908,90.644485 194.396393,93.767181 
	C194.277481,95.072174 194.243607,96.384857 194.128082,97.690239 
	C193.853470,100.792976 193.409210,103.889282 193.319336,106.996452 
	C193.268311,108.760071 194.157379,110.580040 193.973862,112.305588 
	C193.201675,119.566505 192.095825,126.791939 191.322769,134.052780 
	C191.138733,135.781204 192.292099,137.710648 191.933685,139.351807 
	C190.267960,146.978912 192.600906,155.407272 188.135345,162.306808 
	C186.405930,164.978882 182.616180,166.317444 179.135925,168.029205 
	C177.145538,168.344955 175.696152,168.742294 174.436874,169.469070 
	C163.942444,175.525650 153.490494,181.655731 143.010788,187.737930 
	C134.166290,192.871094 125.301865,197.969971 115.689995,203.520752 
	C115.689995,200.784042 115.690758,199.006073 115.689888,197.228104 
	C115.675331,167.487015 115.660561,137.745911 115.729584,107.544632 
	C115.839165,105.295952 115.756897,103.497940 115.913216,101.720917 
	C116.244583,97.953941 116.700317,94.197906 117.439629,90.359741 
	C118.573784,89.912468 119.373375,89.542839 120.120285,89.158936 
	C120.067596,89.144669 120.086662,89.252159 120.439468,89.229126 
	C121.638359,88.841835 122.484444,88.477585 123.701233,88.094086 
	C147.598221,79.829979 171.124512,71.585098 194.227127,63.488705 
	C195.200363,67.350410 195.979126,70.440392 196.757874,73.530373 
M123.705772,191.915176 
	C128.194580,189.381363 132.583054,186.641708 137.207993,184.387207 
	C140.215805,182.920990 141.018387,180.943436 141.071930,177.734100 
	C141.380066,159.259750 141.901932,140.788696 142.408691,122.318100 
	C142.563049,116.692429 142.783600,116.537796 148.208008,115.977036 
	C147.522781,136.841980 146.838760,157.670410 146.129593,179.264893 
	C151.351242,176.290619 155.981979,174.012451 160.166702,171.094604 
	C161.871460,169.905960 163.465393,167.401703 163.637833,165.371017 
	C164.411804,156.256607 164.655960,147.097229 165.092087,137.954102 
	C165.528244,128.810257 165.940170,119.665115 166.418152,110.523445 
	C166.552979,107.944878 166.869339,105.363113 171.440430,106.450607 
	C170.455383,126.194229 169.467789,145.988998 168.445435,166.480576 
	C172.897614,164.023087 176.591537,161.840118 180.418137,159.921799 
	C183.036453,158.609222 184.179947,156.925262 184.383652,153.823029 
	C185.735519,133.235504 187.370148,112.666702 188.864365,92.088287 
	C189.325775,85.733879 189.636490,79.368523 190.018539,72.969032 
	C189.024811,72.969032 188.663223,72.876060 188.375107,72.982300 
	C167.173050,80.799942 145.959503,88.587700 124.824699,96.583519 
	C123.608383,97.043678 122.363747,99.170799 122.284019,100.586975 
	C121.966179,106.232162 122.091187,111.902992 122.076469,117.564400 
	C122.012856,142.033752 121.957764,166.503143 121.771111,191.471344 
	C122.184998,191.657913 122.598892,191.844482 123.705772,191.915176 
z"/>
<path fill="#ECF0ED" opacity="1.000000" stroke="none" 
	d="
M38.027161,161.010086 
	C37.901604,160.900925 37.672180,160.797867 37.665367,160.681732 
	C37.294319,154.359802 36.959362,148.035706 36.572750,141.714783 
	C36.497143,140.478638 36.308388,139.235214 36.020321,138.031403 
	C35.836693,137.264023 35.094433,136.568817 35.080204,135.832031 
	C34.950726,129.129562 34.976772,122.423996 34.834019,115.721970 
	C34.800499,114.148346 34.342426,112.575096 33.988579,111.022423 
	C33.886776,110.575714 33.246235,110.212410 33.225544,109.792488 
	C32.918888,103.569443 32.716545,97.341156 32.393795,91.119072 
	C32.281433,88.952835 31.938271,86.795906 31.635630,84.643860 
	C31.546352,84.009026 31.087896,83.414703 31.048275,82.786072 
	C30.685926,77.036949 30.378670,71.284340 30.470963,65.197739 
	C32.679253,64.642365 34.704472,63.762554 36.229755,64.300430 
	C59.591148,72.538589 82.862381,81.032471 106.225609,89.265297 
	C109.730713,90.500443 111.003746,92.100143 110.987640,95.948784 
	C110.849663,128.935883 110.960297,161.923996 110.995934,194.911819 
	C110.998726,197.493118 110.996300,200.074417 110.996300,203.257751 
	C109.078682,202.219528 107.776268,201.568115 106.525543,200.829224 
	C85.176414,188.216782 63.839191,175.584152 42.476860,162.994125 
	C41.086712,162.174835 39.514618,161.664261 38.027161,161.010086 
M83.195641,89.230522 
	C67.983551,83.555786 52.771465,77.881042 37.103672,72.036301 
	C37.368290,74.951202 37.618107,77.252159 37.780319,79.559280 
	C39.532097,104.474426 41.248585,129.392120 43.071922,154.302017 
	C43.168594,155.622742 43.777527,157.438812 44.760704,158.070175 
	C49.180634,160.908646 53.822037,163.402222 58.901646,166.317505 
	C57.749084,145.439133 56.643032,125.403183 55.528545,105.214516 
	C59.519711,105.474892 60.678463,107.315041 60.813370,110.748039 
	C61.486954,127.888542 62.310551,145.024338 63.271450,162.151123 
	C63.420113,164.800858 63.703621,168.492249 65.395805,169.803406 
	C69.916595,173.306244 75.237923,175.775909 80.857826,179.011200 
	C80.143532,157.292694 79.454689,136.348007 78.760742,115.248276 
	C82.820793,115.829140 84.238785,117.399506 84.315041,120.964584 
	C84.721062,139.947067 85.373863,158.924530 86.015953,177.901199 
	C86.068420,179.451950 86.168030,181.787582 87.116669,182.392303 
	C92.756584,185.987595 98.653053,189.180405 104.315483,192.423752 
	C104.315483,161.077454 104.352509,130.430923 104.182243,99.785545 
	C104.175323,98.539352 102.457603,96.730118 101.121269,96.163391 
	C95.464577,93.764458 89.650589,91.736443 83.195641,89.230522 
z"/>
<path fill="#3AB85F" opacity="1.000000" stroke="none" 
	d="
M38.008141,161.364090 
	C39.514618,161.664261 41.086712,162.174835 42.476860,162.994125 
	C63.839191,175.584152 85.176414,188.216782 106.525543,200.829224 
	C107.776268,201.568115 109.078682,202.219528 110.996300,203.257751 
	C110.996300,200.074417 110.998726,197.493118 110.995934,194.911819 
	C110.960297,161.923996 110.849663,128.935883 110.987640,95.948784 
	C111.003746,92.100143 109.730713,90.500443 106.225609,89.265297 
	C82.862381,81.032471 59.591148,72.538589 36.229755,64.300430 
	C34.704472,63.762554 32.679253,64.642365 30.555122,64.744675 
	C31.142885,63.060703 27.824442,59.727543 32.647957,59.696785 
	C32.994835,59.748386 32.930573,59.952026 33.214111,60.289265 
	C34.633938,60.751953 35.770229,60.877407 36.906517,61.002857 
	C38.690048,61.621311 40.473583,62.239765 42.681541,63.260284 
	C44.116970,64.087990 45.127975,64.513626 46.138981,64.939262 
	C50.197037,65.963615 54.255096,66.987961 58.724857,68.455566 
	C60.205860,69.595322 61.190506,70.524025 62.358486,70.949844 
	C68.893257,73.332230 75.436943,75.701836 82.049675,77.854362 
	C85.957664,79.126457 89.998825,79.989464 94.137802,81.358902 
	C98.916107,83.434555 103.624992,84.989746 108.131210,86.999397 
	C112.230331,88.827492 116.001724,88.376671 120.055992,86.901566 
	C132.214798,82.477654 144.475296,78.333733 156.645416,73.940147 
	C163.471161,71.475960 170.196686,68.734154 176.967361,66.117424 
	C182.376053,64.066246 187.784729,62.015068 193.833466,59.966888 
	C194.960587,59.735451 195.447632,59.501019 195.934692,59.266582 
	C196.373672,60.605946 197.171082,61.943020 197.179672,63.285130 
	C197.199692,66.422050 196.841049,69.561386 196.696823,73.115051 
	C195.979126,70.440392 195.200363,67.350410 194.227127,63.488705 
	C171.124512,71.585098 147.598221,79.829979 123.319229,88.064430 
	C121.739906,88.453392 120.913284,88.852776 120.086662,89.252151 
	C120.086662,89.252159 120.067596,89.144669 119.741028,89.108353 
	C118.644661,89.527145 117.874863,89.982262 117.105057,90.437386 
	C116.700317,94.197906 116.244583,97.953941 115.913216,101.720917 
	C115.756897,103.497940 115.839165,105.295952 115.365746,107.673080 
	C114.612213,109.982529 114.043037,111.702827 114.039612,113.424255 
	C113.984077,141.334396 113.964081,169.244781 114.051216,197.154770 
	C114.060905,200.258316 114.773064,203.359680 115.159439,206.462067 
	C113.660812,206.324585 111.876923,206.670105 110.705673,205.978333 
	C87.058113,192.011703 63.476643,177.933060 39.908413,163.832626 
	C39.126751,163.364975 38.622620,162.433411 38.008141,161.364090 
z"/>
<path fill="#3BB85F" opacity="1.000000" stroke="none" 
	d="
M115.502106,206.339600 
	C114.773064,203.359680 114.060905,200.258316 114.051216,197.154770 
	C113.964081,169.244781 113.984077,141.334396 114.039612,113.424255 
	C114.043037,111.702827 114.612213,109.982529 115.281998,108.133263 
	C115.660561,137.745911 115.675331,167.487015 115.689888,197.228104 
	C115.690758,199.006073 115.689995,200.784042 115.689995,203.520752 
	C125.301865,197.969971 134.166290,192.871094 143.010788,187.737930 
	C153.490494,181.655731 163.942444,175.525650 174.436874,169.469070 
	C175.696152,168.742294 177.145538,168.344955 178.899109,167.877686 
	C178.370850,168.868515 177.589722,170.013382 176.509109,170.649536 
	C156.308884,182.541443 136.073105,194.372971 115.502106,206.339600 
z"/>
<path fill="#3BB75E" opacity="1.000000" stroke="none" 
	d="
M195.625687,59.160149 
	C195.447632,59.501019 194.960587,59.735451 194.190125,59.967590 
	C193.906738,59.965298 194.018890,59.494267 194.016205,59.252144 
	C194.447906,59.024586 194.882294,59.039150 195.625687,59.160149 
z"/>
<path fill="#288743" opacity="1.000000" stroke="none" 
	d="
M87.953773,69.121117 
	C88.610672,65.334488 89.267570,61.547867 90.209686,57.266636 
	C90.735420,56.587456 90.897514,56.349453 91.448029,56.000061 
	C101.277802,55.974865 110.640717,56.007622 120.001740,56.431450 
	C119.995338,57.865826 119.990814,58.909134 119.985764,60.400043 
	C119.984451,63.234318 119.983665,65.620987 119.741959,68.168320 
	C119.335220,68.869293 119.169411,69.409615 118.546936,70.001740 
	C114.717339,70.003059 111.344398,69.952576 107.801010,69.652466 
	C107.278694,69.205765 106.926819,69.008675 106.581696,68.370956 
	C106.588448,65.160728 106.588448,62.391125 106.588448,58.907330 
	C99.511589,60.366669 104.008057,66.980354 100.548256,70.347366 
	C96.703255,69.973000 92.328514,69.547058 87.953773,69.121117 
z"/>
<path fill="#288743" opacity="1.000000" stroke="none" 
	d="
M137.011383,57.003357 
	C137.632660,60.053734 138.446686,63.080265 138.827713,66.160355 
	C139.333771,70.251137 137.324265,71.403229 130.227386,70.670563 
	C127.783401,69.543175 125.993660,68.762344 124.566078,67.886467 
	C126.294067,65.019287 127.466057,62.266048 124.119576,59.972771 
	C124.075523,59.996494 124.036003,59.904560 124.021378,59.520012 
	C124.003250,58.104073 123.999756,57.072681 124.454819,55.990013 
	C128.609207,55.960274 132.305038,55.981804 136.105774,56.226967 
	C136.412979,56.728436 136.679871,56.912685 137.011383,57.003357 
z"/>
<path fill="#A6AEA8" opacity="1.000000" stroke="none" 
	d="
M124.203918,67.981514 
	C125.993660,68.762344 127.783401,69.543175 129.794250,70.638092 
	C126.533554,71.531860 123.053551,72.586380 119.569550,72.599777 
	C110.148964,72.636017 100.723961,72.295868 91.308624,71.911285 
	C90.185760,71.865417 89.111862,70.620605 87.984520,69.526321 
	C92.328514,69.547058 96.703255,69.973000 100.548256,70.347366 
	C104.008057,66.980354 99.511589,60.366669 106.588448,58.907330 
	C106.588448,62.391125 106.588448,65.160728 106.487366,68.595764 
	C106.914673,69.474831 107.443069,69.688461 107.971466,69.902092 
	C111.344398,69.952576 114.717339,70.003059 118.832657,70.022942 
	C119.710991,69.330780 119.846931,68.669220 119.982880,68.007660 
	C119.983665,65.620987 119.984451,63.234318 120.389908,60.364067 
	C121.875046,59.888512 122.955528,59.896538 124.036003,59.904560 
	C124.036003,59.904560 124.075523,59.996494 124.160484,60.420734 
	C124.231606,63.223820 124.217766,65.602669 124.203918,67.981514 
z"/>
<path fill="#2D8D48" opacity="1.000000" stroke="none" 
	d="
M176.570541,66.045113 
	C170.196686,68.734154 163.471161,71.475960 156.645416,73.940147 
	C144.475296,78.333733 132.214798,82.477654 120.055992,86.901566 
	C116.001724,88.376671 112.230331,88.827492 108.131210,86.999397 
	C103.624992,84.989746 98.916107,83.434555 94.413338,81.341599 
	C94.714638,80.990730 94.898125,80.979622 95.081604,80.968521 
	C96.517334,81.345955 98.109940,81.443298 99.363770,82.145523 
	C108.657867,87.350754 117.600388,86.177414 127.238869,82.340858 
	C141.384583,76.710243 155.999115,72.254486 170.432739,67.353638 
	C172.288712,66.723450 174.257294,66.424957 176.570541,66.045113 
z"/>
<path fill="#95A89A" opacity="1.000000" stroke="none" 
	d="
M136.000870,56.003334 
	C132.305038,55.981804 128.609207,55.960274 124.056824,55.949856 
	C122.134720,55.987438 121.069176,56.013908 120.003624,56.040379 
	C110.640717,56.007622 101.277802,55.974865 91.211777,55.969139 
	C90.508659,55.996166 90.037689,56.069859 90.037689,56.069859 
	C88.247429,56.160011 86.457161,56.250168 84.666901,56.340324 
	C84.525566,56.124332 84.384232,55.908340 84.242897,55.692348 
	C85.529541,55.123970 86.813095,54.068966 88.103302,54.060757 
	C105.378052,53.950863 122.653725,53.987213 140.004639,54.613190 
	C139.147369,54.896626 138.290100,55.180061 136.967773,55.693199 
	C136.335419,55.949707 136.168152,55.976521 136.000870,56.003334 
z"/>
<path fill="#308D4A" opacity="1.000000" stroke="none" 
	d="
M94.796425,80.747276 
	C94.898125,80.979622 94.714638,80.990730 94.255630,81.019135 
	C89.998825,79.989464 85.957664,79.126457 82.049675,77.854362 
	C75.436943,75.701836 68.893257,73.332230 62.358486,70.949844 
	C61.190506,70.524025 60.205860,69.595322 59.079773,68.558563 
	C70.852409,72.320877 82.681824,76.423454 94.796425,80.747276 
z"/>
<path fill="#95A89A" opacity="1.000000" stroke="none" 
	d="
M143.811279,64.775162 
	C143.251495,65.077820 142.755035,65.075905 142.258606,65.073997 
	C142.403290,64.521248 142.547989,63.968498 142.692688,63.415749 
	C143.086655,63.767365 143.480621,64.118980 143.811279,64.775162 
z"/>
<path fill="#95A89A" opacity="1.000000" stroke="none" 
	d="
M144.979599,71.025543 
	C144.366760,70.448135 143.753906,69.870720 143.141068,69.293304 
	C143.435272,68.994293 143.729492,68.695282 144.023712,68.396271 
	C144.357941,69.022224 144.692154,69.648170 145.014587,70.636131 
	C145.002808,70.998146 144.979599,71.025543 144.979599,71.025543 
z"/>
<path fill="#3BB75E" opacity="1.000000" stroke="none" 
	d="
M46.020477,64.610977 
	C45.127975,64.513626 44.116970,64.087990 43.050316,63.303955 
	C43.963764,63.391270 44.932865,63.836987 46.020477,64.610977 
z"/>
<path fill="#95A89A" opacity="1.000000" stroke="none" 
	d="
M142.535553,58.631096 
	C142.596573,59.406006 142.443298,59.954929 142.290009,60.503849 
	C141.935730,60.298504 141.581436,60.093159 141.227158,59.887817 
	C141.591858,59.393581 141.956558,58.899342 142.535553,58.631096 
z"/>
<path fill="#3BB75E" opacity="1.000000" stroke="none" 
	d="
M36.709946,60.700550 
	C35.770229,60.877407 34.633938,60.751953 33.247009,60.390842 
	C34.168705,60.236202 35.341038,60.317223 36.709946,60.700550 
z"/>
<path fill="#95A89A" opacity="1.000000" stroke="none" 
	d="
M145.016693,70.986511 
	C145.157303,71.138496 145.284042,71.302116 145.410767,71.465744 
	C145.308441,71.419212 145.206100,71.372673 145.041687,71.175842 
	C144.979599,71.025543 145.002808,70.998146 145.016693,70.986511 
z"/>
<path fill="#1C853B" opacity="1.000000" stroke="none" 
	d="
M136.105774,56.226971 
	C136.168152,55.976521 136.335419,55.949707 136.754944,55.953651 
	C137.036118,56.154106 137.065048,56.323814 137.052673,56.748440 
	C136.679871,56.912685 136.412979,56.728436 136.105774,56.226971 
z"/>
<path fill="#1C853B" opacity="1.000000" stroke="none" 
	d="
M90.022278,56.297573 
	C90.037689,56.069859 90.508659,55.996166 90.744919,56.027092 
	C90.897514,56.349453 90.735420,56.587456 90.299881,56.871567 
	C90.104866,56.971107 90.006866,56.525288 90.022278,56.297573 
z"/>
<path fill="#34B658" opacity="1.000000" stroke="none" 
	d="
M121.899574,190.972519 
	C121.957764,166.503143 122.012856,142.033752 122.076469,117.564400 
	C122.091187,111.902992 121.966179,106.232162 122.284019,100.586975 
	C122.363747,99.170799 123.608383,97.043678 124.824699,96.583519 
	C145.959503,88.587700 167.173050,80.799942 188.375107,72.982300 
	C188.663223,72.876060 189.024811,72.969032 190.018539,72.969032 
	C189.636490,79.368523 189.325775,85.733879 188.864365,92.088287 
	C187.370148,112.666702 185.735519,133.235504 184.383652,153.823029 
	C184.179947,156.925262 183.036453,158.609222 180.418137,159.921799 
	C176.591537,161.840118 172.897614,164.023087 168.445435,166.480576 
	C169.467789,145.988998 170.455383,126.194229 171.440430,106.450607 
	C166.869339,105.363113 166.552979,107.944878 166.418152,110.523445 
	C165.940170,119.665115 165.528244,128.810257 165.092087,137.954102 
	C164.655960,147.097229 164.411804,156.256607 163.637833,165.371017 
	C163.465393,167.401703 161.871460,169.905960 160.166702,171.094604 
	C155.981979,174.012451 151.351242,176.290619 146.129593,179.264893 
	C146.838760,157.670410 147.522781,136.841980 148.208008,115.977036 
	C142.783600,116.537796 142.563049,116.692429 142.408691,122.318100 
	C141.901932,140.788696 141.380066,159.259750 141.071930,177.734100 
	C141.018387,180.943436 140.215805,182.920990 137.207993,184.387207 
	C132.583054,186.641708 128.194580,189.381363 123.236885,191.737564 
	C122.478523,191.364151 122.189049,191.168335 121.899574,190.972519 
z"/>
<path fill="#3BB85F" opacity="1.000000" stroke="none" 
	d="
M120.439468,89.229118 
	C120.913284,88.852776 121.739906,88.453392 122.948532,88.083664 
	C122.484444,88.477585 121.638359,88.841835 120.439468,89.229118 
z"/>
<path fill="#3BB85F" opacity="1.000000" stroke="none" 
	d="
M117.439629,90.359741 
	C117.874863,89.982262 118.644661,89.527145 119.793716,89.122620 
	C119.373375,89.542839 118.573784,89.912468 117.439629,90.359741 
z"/>
<path fill="#23B34F" opacity="1.000000" stroke="none" 
	d="
M121.835342,191.221924 
	C122.189049,191.168335 122.478523,191.364151 122.890388,191.795502 
	C122.598892,191.844482 122.184998,191.657913 121.835342,191.221924 
z"/>
<path fill="#34B659" opacity="1.000000" stroke="none" 
	d="
M83.544861,89.401688 
	C89.650589,91.736443 95.464577,93.764458 101.121269,96.163391 
	C102.457603,96.730118 104.175323,98.539352 104.182243,99.785545 
	C104.352509,130.430923 104.315483,161.077454 104.315483,192.423752 
	C98.653053,189.180405 92.756584,185.987595 87.116669,182.392303 
	C86.168030,181.787582 86.068420,179.451950 86.015953,177.901199 
	C85.373863,158.924530 84.721062,139.947067 84.315041,120.964584 
	C84.238785,117.399506 82.820793,115.829140 78.760742,115.248276 
	C79.454689,136.348007 80.143532,157.292694 80.857826,179.011200 
	C75.237923,175.775909 69.916595,173.306244 65.395805,169.803406 
	C63.703621,168.492249 63.420113,164.800858 63.271450,162.151123 
	C62.310551,145.024338 61.486954,127.888542 60.813370,110.748039 
	C60.678463,107.315041 59.519711,105.474892 55.528545,105.214516 
	C56.643032,125.403183 57.749084,145.439133 58.901646,166.317505 
	C53.822037,163.402222 49.180634,160.908646 44.760704,158.070175 
	C43.777527,157.438812 43.168594,155.622742 43.071922,154.302017 
	C41.248585,129.392120 39.532097,104.474426 37.780319,79.559280 
	C37.618107,77.252159 37.368290,74.951202 37.103672,72.036301 
	C52.771465,77.881042 67.983551,83.555786 83.544861,89.401688 
z"/>
<path fill="#20863E" opacity="1.000000" stroke="none" 
	d="
M120.001740,56.431450 
	C121.069176,56.013908 122.134720,55.987438 123.598267,56.001129 
	C123.999756,57.072681 124.003250,58.104073 124.021378,59.520012 
	C122.955528,59.896538 121.875046,59.888512 120.390427,59.916462 
	C119.990814,58.909134 119.995338,57.865826 120.001740,56.431450 
z"/>
<path fill="#20863E" opacity="1.000000" stroke="none" 
	d="
M119.741959,68.168320 
	C119.846931,68.669220 119.710991,69.330780 119.289322,69.971138 
	C119.169411,69.409615 119.335220,68.869293 119.741959,68.168320 
z"/>
<path fill="#20863E" opacity="1.000000" stroke="none" 
	d="
M107.801010,69.652481 
	C107.443069,69.688461 106.914673,69.474831 106.480621,69.036392 
	C106.926819,69.008675 107.278694,69.205765 107.801010,69.652481 
z"/>
<path fill="#20863E" opacity="1.000000" stroke="none" 
	d="
M124.566071,67.886467 
	C124.217766,65.602669 124.231606,63.223820 124.204536,60.397011 
	C127.466057,62.266048 126.294067,65.019287 124.566071,67.886467 
z"/>
</svg>