<svg width="11846" height="5344" viewBox="0 0 11846 5344" fill="none" xmlns="http://www.w3.org/2000/svg">
<rect width="11846" height="5344" fill="white"/>
<path d="M2546 2663.5L2715 2546L3108 2663.5V2882.5H2546V2663.5Z" fill="#D9182F"/>
<circle cx="3284.5" cy="3647.5" r="1101.5" fill="#D9182F"/>
<circle cx="3284.5" cy="3647.5" r="941.5" fill="#E9727A"/>
<circle cx="3284.5" cy="3647.5" r="719.5" fill="#F7F7F7"/>
<circle cx="1704.5" cy="2453.49" r="984.5" fill="#D9182F"/>
<circle cx="1704.5" cy="2453.49" r="841.5" fill="#E9727A"/>
<circle cx="1704.5" cy="2453.49" r="643.5" fill="#F7F7F7"/>
<path d="M2646.27 2644.81C2811.47 2680.47 2983.53 2666.34 3140.7 2604.21C3297.87 2542.07 3433.08 2434.73 3529.24 2295.75C3625.4 2156.77 3678.19 1992.4 3680.94 1823.42C3683.68 1654.43 3636.25 1488.43 3544.65 1346.41C3453.05 1204.38 3321.39 1092.7 3166.32 1025.5C3011.25 958.304 2839.74 938.596 2673.47 968.872C2507.2 999.149 2353.64 1078.05 2232.21 1195.6C2110.78 1313.15 2026.94 1464.07 1991.28 1629.27L2826.55 1809.55L2646.27 2644.81Z" fill="#D9182F"/>
<path d="M3556.93 1809.54C3556.93 2212.92 3229.93 2539.92 2826.55 2539.92C2423.18 2539.92 2222.5 2063.5 2096.17 1809.54C2096.17 1406.17 2423.18 1079.16 2826.55 1079.16C3229.93 1079.16 3556.93 1406.17 3556.93 1809.54Z" fill="#E9727A"/>
<circle cx="2826.55" cy="1809.54" r="558.16" fill="#F7F7F7"/>
<g filter="url(#filter0_d_16_51)">
<mask id="path-11-outside-1_16_51" maskUnits="userSpaceOnUse" x="4464" y="1632" width="4875" height="883" fill="black">
<rect fill="white" x="4464" y="1632" width="4875" height="883"/>
<path d="M4489.71 2431.3C4465.49 2412.95 4459.63 2394.39 4472.13 2375.64L4517.25 2307.67C4532.09 2285.41 4553.77 2284.23 4582.29 2304.16C4604.16 2319.39 4632.68 2335.21 4667.84 2351.62C4703.38 2367.63 4740.69 2375.64 4779.75 2375.64C4807.09 2375.64 4833.46 2372.52 4858.85 2366.27C4884.24 2360.02 4903.58 2347.91 4916.86 2329.94C4930.14 2311.97 4936.78 2290.68 4936.78 2266.07C4936.78 2248.49 4933.85 2233.06 4927.99 2219.78C4922.13 2206.5 4912.56 2195.56 4899.28 2186.97C4886 2178.38 4872.33 2171.15 4858.27 2165.29C4833.66 2155.13 4802.6 2145.17 4765.1 2135.41C4727.99 2125.25 4691.27 2113.14 4654.95 2099.08C4622.52 2086.58 4592.84 2069.39 4565.88 2047.52C4538.93 2025.64 4518.03 2001.03 4503.19 1973.69C4488.34 1946.34 4480.92 1909.82 4480.92 1864.12C4480.92 1809.82 4498.5 1763.34 4533.66 1724.66C4568.81 1685.99 4609.24 1661.19 4654.95 1650.25C4700.65 1639.31 4746.74 1633.84 4793.23 1633.84C4839.32 1633.84 4886.78 1640.88 4935.61 1654.94C4984.83 1669 5021.94 1686.58 5046.94 1707.67C5071.55 1728.38 5077.6 1747.12 5065.1 1763.92L5017.64 1827.79C5001.62 1849.66 4980.14 1851.42 4953.19 1833.06C4936 1821.34 4912.37 1808.26 4882.29 1793.8C4852.6 1779.35 4821.55 1772.12 4789.12 1772.12C4766.08 1772.12 4744.79 1774.08 4725.26 1777.98C4706.12 1781.89 4689.12 1791.27 4674.28 1806.11C4659.44 1820.95 4652.02 1839.31 4652.02 1861.19C4652.02 1882.28 4657.48 1899.47 4668.42 1912.75C4679.36 1925.64 4691.47 1935.41 4704.75 1942.05C4718.03 1948.3 4731.51 1953.57 4745.18 1957.87C4787.37 1971.54 4825.06 1983.65 4858.27 1994.2C4891.47 2004.35 4922.13 2015.68 4950.26 2028.18C4989.32 2045.76 5019.2 2063.34 5039.91 2080.91C5060.61 2098.49 5077.6 2122.52 5090.88 2152.98C5104.55 2183.45 5111.39 2219.78 5111.39 2261.97C5111.39 2324.47 5091.47 2376.23 5051.62 2417.24C5011.78 2457.87 4967.45 2484.04 4918.62 2495.76C4870.18 2507.87 4822.91 2513.92 4776.82 2513.92C4708.85 2513.92 4653.58 2507.28 4611 2494C4568.42 2481.11 4527.99 2460.21 4489.71 2431.3ZM5287.17 2494C5259.83 2494 5246.16 2479.35 5246.16 2450.05V1697.71C5246.16 1668.41 5259.83 1653.77 5287.17 1653.77H5376.23C5403.58 1653.77 5417.25 1668.41 5417.25 1697.71V1984.23H5732.48V1697.71C5732.48 1668.41 5746.16 1653.77 5773.5 1653.77H5862.56C5889.91 1653.77 5903.58 1668.41 5903.58 1697.71V2450.05C5903.58 2479.35 5889.91 2494 5862.56 2494H5773.5C5746.16 2494 5732.48 2479.35 5732.48 2450.05V2129.55H5417.25V2450.05C5417.25 2479.35 5403.58 2494 5376.23 2494H5287.17ZM6047.72 2073.88C6047.72 1939.12 6082.48 1832.09 6152.02 1752.79C6221.55 1673.49 6320.77 1633.84 6449.67 1633.84C6578.58 1633.84 6677.8 1673.49 6747.33 1752.79C6816.86 1832.09 6851.62 1939.12 6851.62 2073.88C6851.62 2208.65 6816.86 2315.68 6747.33 2394.98C6677.8 2474.27 6578.58 2513.92 6449.67 2513.92C6320.77 2513.92 6221.55 2474.27 6152.02 2394.98C6082.48 2315.68 6047.72 2208.65 6047.72 2073.88ZM6230.53 2073.88C6230.53 2171.54 6247.91 2246.34 6282.68 2298.3C6317.84 2349.86 6373.5 2375.64 6449.67 2375.64C6525.84 2375.64 6581.31 2349.86 6616.08 2298.3C6651.23 2246.34 6668.81 2171.54 6668.81 2073.88C6668.81 1976.23 6651.23 1901.62 6616.08 1850.05C6581.31 1798.1 6525.84 1772.12 6449.67 1772.12C6373.5 1772.12 6317.84 1798.1 6282.68 1850.05C6247.91 1901.62 6230.53 1976.23 6230.53 2073.88ZM7036.78 2494C7009.44 2494 6995.77 2479.35 6995.77 2450.05V1697.71C6995.77 1668.41 7009.44 1653.77 7036.78 1653.77H7241.27C7420.96 1653.77 7542.45 1690.09 7605.73 1762.75C7669.4 1835.41 7701.23 1938.73 7701.23 2072.71C7701.23 2206.7 7669.4 2310.41 7605.73 2383.84C7542.45 2457.28 7420.96 2494 7241.27 2494H7036.78ZM7166.86 2348.69H7230.14C7351.23 2348.69 7429.55 2326.23 7465.1 2281.3C7500.65 2235.99 7518.42 2166.46 7518.42 2072.71C7518.42 1978.96 7500.65 1909.82 7465.1 1865.29C7429.55 1820.37 7351.23 1797.91 7230.14 1797.91H7166.86V2348.69ZM7819.01 2494C7790.88 2494 7781.7 2481.11 7791.47 2455.33L8078.58 1701.23C8090.69 1669.59 8109.05 1653.77 8133.66 1653.77H8215.69C8240.3 1653.77 8258.66 1669.59 8270.77 1701.23L8557.88 2455.33C8567.64 2481.11 8558.46 2494 8530.34 2494H8437.17C8411.39 2494 8393.42 2480.52 8383.27 2453.57L8323.5 2295.95H8025.84L7966.08 2453.57C7955.92 2480.52 7937.95 2494 7912.17 2494H7819.01ZM8080.34 2150.64H8269.01L8196.94 1964.31C8188.34 1942.44 8183.07 1926.62 8181.12 1916.85C8179.55 1906.7 8177.8 1891.85 8175.84 1872.32H8173.5C8171.55 1891.85 8169.59 1906.7 8167.64 1916.85C8166.08 1926.62 8161 1942.44 8152.41 1964.31L8080.34 2150.64ZM8703.19 2494C8675.84 2494 8662.17 2479.35 8662.17 2450.05V1697.71C8662.17 1668.41 8675.84 1653.77 8703.19 1653.77H8789.91C8823.5 1653.77 8848.89 1667.44 8866.08 1694.78L9164.91 2174.66H9169.01C9167.05 2151.23 9166.08 2127.79 9166.08 2104.35V1697.71C9166.08 1668.41 9179.75 1653.77 9207.09 1653.77H9296.16C9323.5 1653.77 9337.17 1668.41 9337.17 1697.71V2450.05C9337.17 2479.35 9323.5 2494 9296.16 2494H9215.3C9181.7 2494 9156.31 2480.33 9139.12 2452.98L8834.44 1964.31H8830.34C8832.29 1987.75 8833.27 2011.19 8833.27 2034.62V2450.05C8833.27 2479.35 8819.59 2494 8792.25 2494H8703.19Z"/>
</mask>
<path d="M4489.71 2431.3C4465.49 2412.95 4459.63 2394.39 4472.13 2375.64L4517.25 2307.67C4532.09 2285.41 4553.77 2284.23 4582.29 2304.16C4604.16 2319.39 4632.68 2335.21 4667.84 2351.62C4703.38 2367.63 4740.69 2375.64 4779.75 2375.64C4807.09 2375.64 4833.46 2372.52 4858.85 2366.27C4884.24 2360.02 4903.58 2347.91 4916.86 2329.94C4930.14 2311.97 4936.78 2290.68 4936.78 2266.07C4936.78 2248.49 4933.85 2233.06 4927.99 2219.78C4922.13 2206.5 4912.56 2195.56 4899.28 2186.97C4886 2178.38 4872.33 2171.15 4858.27 2165.29C4833.66 2155.13 4802.6 2145.17 4765.1 2135.41C4727.99 2125.25 4691.27 2113.14 4654.95 2099.08C4622.52 2086.58 4592.84 2069.39 4565.88 2047.52C4538.93 2025.64 4518.03 2001.03 4503.19 1973.69C4488.34 1946.34 4480.92 1909.82 4480.92 1864.12C4480.92 1809.82 4498.5 1763.34 4533.66 1724.66C4568.81 1685.99 4609.24 1661.19 4654.95 1650.25C4700.65 1639.31 4746.74 1633.84 4793.23 1633.84C4839.32 1633.84 4886.78 1640.88 4935.61 1654.94C4984.83 1669 5021.94 1686.58 5046.94 1707.67C5071.55 1728.38 5077.6 1747.12 5065.1 1763.92L5017.64 1827.79C5001.62 1849.66 4980.14 1851.42 4953.19 1833.06C4936 1821.34 4912.37 1808.26 4882.29 1793.8C4852.6 1779.35 4821.55 1772.12 4789.12 1772.12C4766.08 1772.12 4744.79 1774.08 4725.26 1777.98C4706.12 1781.89 4689.12 1791.27 4674.28 1806.11C4659.44 1820.95 4652.02 1839.31 4652.02 1861.19C4652.02 1882.28 4657.48 1899.47 4668.42 1912.75C4679.36 1925.64 4691.47 1935.41 4704.75 1942.05C4718.03 1948.3 4731.51 1953.57 4745.18 1957.87C4787.37 1971.54 4825.06 1983.65 4858.27 1994.2C4891.47 2004.35 4922.13 2015.68 4950.26 2028.18C4989.32 2045.76 5019.2 2063.34 5039.91 2080.91C5060.61 2098.49 5077.6 2122.52 5090.88 2152.98C5104.55 2183.45 5111.39 2219.78 5111.39 2261.97C5111.39 2324.47 5091.47 2376.23 5051.62 2417.24C5011.78 2457.87 4967.45 2484.04 4918.62 2495.76C4870.18 2507.87 4822.91 2513.92 4776.82 2513.92C4708.85 2513.92 4653.58 2507.28 4611 2494C4568.42 2481.11 4527.99 2460.21 4489.71 2431.3ZM5287.17 2494C5259.83 2494 5246.16 2479.35 5246.16 2450.05V1697.71C5246.16 1668.41 5259.83 1653.77 5287.17 1653.77H5376.23C5403.58 1653.77 5417.25 1668.41 5417.25 1697.71V1984.23H5732.48V1697.71C5732.48 1668.41 5746.16 1653.77 5773.5 1653.77H5862.56C5889.91 1653.77 5903.58 1668.41 5903.58 1697.71V2450.05C5903.58 2479.35 5889.91 2494 5862.56 2494H5773.5C5746.16 2494 5732.48 2479.35 5732.48 2450.05V2129.55H5417.25V2450.05C5417.25 2479.35 5403.58 2494 5376.23 2494H5287.17ZM6047.72 2073.88C6047.72 1939.12 6082.48 1832.09 6152.02 1752.79C6221.55 1673.49 6320.77 1633.84 6449.67 1633.84C6578.58 1633.84 6677.8 1673.49 6747.33 1752.79C6816.86 1832.09 6851.62 1939.12 6851.62 2073.88C6851.62 2208.65 6816.86 2315.68 6747.33 2394.98C6677.8 2474.27 6578.58 2513.92 6449.67 2513.92C6320.77 2513.92 6221.55 2474.27 6152.02 2394.98C6082.48 2315.68 6047.72 2208.65 6047.72 2073.88ZM6230.53 2073.88C6230.53 2171.54 6247.91 2246.34 6282.68 2298.3C6317.84 2349.86 6373.5 2375.64 6449.67 2375.64C6525.84 2375.64 6581.31 2349.86 6616.08 2298.3C6651.23 2246.34 6668.81 2171.54 6668.81 2073.88C6668.81 1976.23 6651.23 1901.62 6616.08 1850.05C6581.31 1798.1 6525.84 1772.12 6449.67 1772.12C6373.5 1772.12 6317.84 1798.1 6282.68 1850.05C6247.91 1901.62 6230.53 1976.23 6230.53 2073.88ZM7036.78 2494C7009.44 2494 6995.77 2479.35 6995.77 2450.05V1697.71C6995.77 1668.41 7009.44 1653.77 7036.78 1653.77H7241.27C7420.96 1653.77 7542.45 1690.09 7605.73 1762.75C7669.4 1835.41 7701.23 1938.73 7701.23 2072.71C7701.23 2206.7 7669.4 2310.41 7605.73 2383.84C7542.45 2457.28 7420.96 2494 7241.27 2494H7036.78ZM7166.86 2348.69H7230.14C7351.23 2348.69 7429.55 2326.23 7465.1 2281.3C7500.65 2235.99 7518.42 2166.46 7518.42 2072.71C7518.42 1978.96 7500.65 1909.82 7465.1 1865.29C7429.55 1820.37 7351.23 1797.91 7230.14 1797.91H7166.86V2348.69ZM7819.01 2494C7790.88 2494 7781.7 2481.11 7791.47 2455.33L8078.58 1701.23C8090.69 1669.59 8109.05 1653.77 8133.66 1653.77H8215.69C8240.3 1653.77 8258.66 1669.59 8270.77 1701.23L8557.88 2455.33C8567.64 2481.11 8558.46 2494 8530.34 2494H8437.17C8411.39 2494 8393.42 2480.52 8383.27 2453.57L8323.5 2295.95H8025.84L7966.08 2453.57C7955.92 2480.52 7937.95 2494 7912.17 2494H7819.01ZM8080.34 2150.64H8269.01L8196.94 1964.31C8188.34 1942.44 8183.07 1926.62 8181.12 1916.85C8179.55 1906.7 8177.8 1891.85 8175.84 1872.32H8173.5C8171.55 1891.85 8169.59 1906.7 8167.64 1916.85C8166.08 1926.62 8161 1942.44 8152.41 1964.31L8080.34 2150.64ZM8703.19 2494C8675.84 2494 8662.17 2479.35 8662.17 2450.05V1697.71C8662.17 1668.41 8675.84 1653.77 8703.19 1653.77H8789.91C8823.5 1653.77 8848.89 1667.44 8866.08 1694.78L9164.91 2174.66H9169.01C9167.05 2151.23 9166.08 2127.79 9166.08 2104.35V1697.71C9166.08 1668.41 9179.75 1653.77 9207.09 1653.77H9296.16C9323.5 1653.77 9337.17 1668.41 9337.17 1697.71V2450.05C9337.17 2479.35 9323.5 2494 9296.16 2494H9215.3C9181.7 2494 9156.31 2480.33 9139.12 2452.98L8834.44 1964.31H8830.34C8832.29 1987.75 8833.27 2011.19 8833.27 2034.62V2450.05C8833.27 2479.35 8819.59 2494 8792.25 2494H8703.19Z" fill="black"/>
<path d="M4489.71 2431.3C4465.49 2412.95 4459.63 2394.39 4472.13 2375.64L4517.25 2307.67C4532.09 2285.41 4553.77 2284.23 4582.29 2304.16C4604.16 2319.39 4632.68 2335.21 4667.84 2351.62C4703.38 2367.63 4740.69 2375.64 4779.75 2375.64C4807.09 2375.64 4833.46 2372.52 4858.85 2366.27C4884.24 2360.02 4903.58 2347.91 4916.86 2329.94C4930.14 2311.97 4936.78 2290.68 4936.78 2266.07C4936.78 2248.49 4933.85 2233.06 4927.99 2219.78C4922.13 2206.5 4912.56 2195.56 4899.28 2186.97C4886 2178.38 4872.33 2171.15 4858.27 2165.29C4833.66 2155.13 4802.6 2145.17 4765.1 2135.41C4727.99 2125.25 4691.27 2113.14 4654.95 2099.08C4622.52 2086.58 4592.84 2069.39 4565.88 2047.52C4538.93 2025.64 4518.03 2001.03 4503.19 1973.69C4488.34 1946.34 4480.92 1909.82 4480.92 1864.12C4480.92 1809.82 4498.5 1763.34 4533.66 1724.66C4568.81 1685.99 4609.24 1661.19 4654.95 1650.25C4700.65 1639.31 4746.74 1633.84 4793.23 1633.84C4839.32 1633.84 4886.78 1640.88 4935.61 1654.94C4984.83 1669 5021.94 1686.58 5046.94 1707.67C5071.55 1728.38 5077.6 1747.12 5065.1 1763.92L5017.64 1827.79C5001.62 1849.66 4980.14 1851.42 4953.19 1833.06C4936 1821.34 4912.37 1808.26 4882.29 1793.8C4852.6 1779.35 4821.55 1772.12 4789.12 1772.12C4766.08 1772.12 4744.79 1774.08 4725.26 1777.98C4706.12 1781.89 4689.12 1791.27 4674.28 1806.11C4659.44 1820.95 4652.02 1839.31 4652.02 1861.19C4652.02 1882.28 4657.48 1899.47 4668.42 1912.75C4679.36 1925.64 4691.47 1935.41 4704.75 1942.05C4718.03 1948.3 4731.51 1953.57 4745.18 1957.87C4787.37 1971.54 4825.06 1983.65 4858.27 1994.2C4891.47 2004.35 4922.13 2015.68 4950.26 2028.18C4989.32 2045.76 5019.2 2063.34 5039.91 2080.91C5060.61 2098.49 5077.6 2122.52 5090.88 2152.98C5104.55 2183.45 5111.39 2219.78 5111.39 2261.97C5111.39 2324.47 5091.47 2376.23 5051.62 2417.24C5011.78 2457.87 4967.45 2484.04 4918.62 2495.76C4870.18 2507.87 4822.91 2513.92 4776.82 2513.92C4708.85 2513.92 4653.58 2507.28 4611 2494C4568.42 2481.11 4527.99 2460.21 4489.71 2431.3ZM5287.17 2494C5259.83 2494 5246.16 2479.35 5246.16 2450.05V1697.71C5246.16 1668.41 5259.83 1653.77 5287.17 1653.77H5376.23C5403.58 1653.77 5417.25 1668.41 5417.25 1697.71V1984.23H5732.48V1697.71C5732.48 1668.41 5746.16 1653.77 5773.5 1653.77H5862.56C5889.91 1653.77 5903.58 1668.41 5903.58 1697.71V2450.05C5903.58 2479.35 5889.91 2494 5862.56 2494H5773.5C5746.16 2494 5732.48 2479.35 5732.48 2450.05V2129.55H5417.25V2450.05C5417.25 2479.35 5403.58 2494 5376.23 2494H5287.17ZM6047.72 2073.88C6047.72 1939.12 6082.48 1832.09 6152.02 1752.79C6221.55 1673.49 6320.77 1633.84 6449.67 1633.84C6578.58 1633.84 6677.8 1673.49 6747.33 1752.79C6816.86 1832.09 6851.62 1939.12 6851.62 2073.88C6851.62 2208.65 6816.86 2315.68 6747.33 2394.98C6677.8 2474.27 6578.58 2513.92 6449.67 2513.92C6320.77 2513.92 6221.55 2474.27 6152.02 2394.98C6082.48 2315.68 6047.72 2208.65 6047.72 2073.88ZM6230.53 2073.88C6230.53 2171.54 6247.91 2246.34 6282.68 2298.3C6317.84 2349.86 6373.5 2375.64 6449.67 2375.64C6525.84 2375.64 6581.31 2349.86 6616.08 2298.3C6651.23 2246.34 6668.81 2171.54 6668.81 2073.88C6668.81 1976.23 6651.23 1901.62 6616.08 1850.05C6581.31 1798.1 6525.84 1772.12 6449.67 1772.12C6373.5 1772.12 6317.84 1798.1 6282.68 1850.05C6247.91 1901.62 6230.53 1976.23 6230.53 2073.88ZM7036.78 2494C7009.44 2494 6995.77 2479.35 6995.77 2450.05V1697.71C6995.77 1668.41 7009.44 1653.77 7036.78 1653.77H7241.27C7420.96 1653.77 7542.45 1690.09 7605.73 1762.75C7669.4 1835.41 7701.23 1938.73 7701.23 2072.71C7701.23 2206.7 7669.4 2310.41 7605.73 2383.84C7542.45 2457.28 7420.96 2494 7241.27 2494H7036.78ZM7166.86 2348.69H7230.14C7351.23 2348.69 7429.55 2326.23 7465.1 2281.3C7500.65 2235.99 7518.42 2166.46 7518.42 2072.71C7518.42 1978.96 7500.65 1909.82 7465.1 1865.29C7429.55 1820.37 7351.23 1797.91 7230.14 1797.91H7166.86V2348.69ZM7819.01 2494C7790.88 2494 7781.7 2481.11 7791.47 2455.33L8078.58 1701.23C8090.69 1669.59 8109.05 1653.77 8133.66 1653.77H8215.69C8240.3 1653.77 8258.66 1669.59 8270.77 1701.23L8557.88 2455.33C8567.64 2481.11 8558.46 2494 8530.34 2494H8437.17C8411.39 2494 8393.42 2480.52 8383.27 2453.57L8323.5 2295.95H8025.84L7966.08 2453.57C7955.92 2480.52 7937.95 2494 7912.17 2494H7819.01ZM8080.34 2150.64H8269.01L8196.94 1964.31C8188.34 1942.44 8183.07 1926.62 8181.12 1916.85C8179.55 1906.7 8177.8 1891.85 8175.84 1872.32H8173.5C8171.55 1891.85 8169.59 1906.7 8167.64 1916.85C8166.08 1926.62 8161 1942.44 8152.41 1964.31L8080.34 2150.64ZM8703.19 2494C8675.84 2494 8662.17 2479.35 8662.17 2450.05V1697.71C8662.17 1668.41 8675.84 1653.77 8703.19 1653.77H8789.91C8823.5 1653.77 8848.89 1667.44 8866.08 1694.78L9164.91 2174.66H9169.01C9167.05 2151.23 9166.08 2127.79 9166.08 2104.35V1697.71C9166.08 1668.41 9179.75 1653.77 9207.09 1653.77H9296.16C9323.5 1653.77 9337.17 1668.41 9337.17 1697.71V2450.05C9337.17 2479.35 9323.5 2494 9296.16 2494H9215.3C9181.7 2494 9156.31 2480.33 9139.12 2452.98L8834.44 1964.31H8830.34C8832.29 1987.75 8833.27 2011.19 8833.27 2034.62V2450.05C8833.27 2479.35 8819.59 2494 8792.25 2494H8703.19Z" fill="black" fill-opacity="0.2"/>
<path d="M4489.71 2431.3C4465.49 2412.95 4459.63 2394.39 4472.13 2375.64L4517.25 2307.67C4532.09 2285.41 4553.77 2284.23 4582.29 2304.16C4604.16 2319.39 4632.68 2335.21 4667.84 2351.62C4703.38 2367.63 4740.69 2375.64 4779.75 2375.64C4807.09 2375.64 4833.46 2372.52 4858.85 2366.27C4884.24 2360.02 4903.58 2347.91 4916.86 2329.94C4930.14 2311.97 4936.78 2290.68 4936.78 2266.07C4936.78 2248.49 4933.85 2233.06 4927.99 2219.78C4922.13 2206.5 4912.56 2195.56 4899.28 2186.97C4886 2178.38 4872.33 2171.15 4858.27 2165.29C4833.66 2155.13 4802.6 2145.17 4765.1 2135.41C4727.99 2125.25 4691.27 2113.14 4654.95 2099.08C4622.52 2086.58 4592.84 2069.39 4565.88 2047.52C4538.93 2025.64 4518.03 2001.03 4503.19 1973.69C4488.34 1946.34 4480.92 1909.82 4480.92 1864.12C4480.92 1809.82 4498.5 1763.34 4533.66 1724.66C4568.81 1685.99 4609.24 1661.19 4654.95 1650.25C4700.65 1639.31 4746.74 1633.84 4793.23 1633.84C4839.32 1633.84 4886.78 1640.88 4935.61 1654.94C4984.83 1669 5021.94 1686.58 5046.94 1707.67C5071.55 1728.38 5077.6 1747.12 5065.1 1763.92L5017.64 1827.79C5001.62 1849.66 4980.14 1851.42 4953.19 1833.06C4936 1821.34 4912.37 1808.26 4882.29 1793.8C4852.6 1779.35 4821.55 1772.12 4789.12 1772.12C4766.08 1772.12 4744.79 1774.08 4725.26 1777.98C4706.12 1781.89 4689.12 1791.27 4674.28 1806.11C4659.44 1820.95 4652.02 1839.31 4652.02 1861.19C4652.02 1882.28 4657.48 1899.47 4668.42 1912.75C4679.36 1925.64 4691.47 1935.41 4704.75 1942.05C4718.03 1948.3 4731.51 1953.57 4745.18 1957.87C4787.37 1971.54 4825.06 1983.65 4858.27 1994.2C4891.47 2004.35 4922.13 2015.68 4950.26 2028.18C4989.32 2045.76 5019.2 2063.34 5039.91 2080.91C5060.61 2098.49 5077.6 2122.52 5090.88 2152.98C5104.55 2183.45 5111.39 2219.78 5111.39 2261.97C5111.39 2324.47 5091.47 2376.23 5051.62 2417.24C5011.78 2457.87 4967.45 2484.04 4918.62 2495.76C4870.18 2507.87 4822.91 2513.92 4776.82 2513.92C4708.85 2513.92 4653.58 2507.28 4611 2494C4568.42 2481.11 4527.99 2460.21 4489.71 2431.3ZM5287.17 2494C5259.83 2494 5246.16 2479.35 5246.16 2450.05V1697.71C5246.16 1668.41 5259.83 1653.77 5287.17 1653.77H5376.23C5403.58 1653.77 5417.25 1668.41 5417.25 1697.71V1984.23H5732.48V1697.71C5732.48 1668.41 5746.16 1653.77 5773.5 1653.77H5862.56C5889.91 1653.77 5903.58 1668.41 5903.58 1697.71V2450.05C5903.58 2479.35 5889.91 2494 5862.56 2494H5773.5C5746.16 2494 5732.48 2479.35 5732.48 2450.05V2129.55H5417.25V2450.05C5417.25 2479.35 5403.58 2494 5376.23 2494H5287.17ZM6047.72 2073.88C6047.72 1939.12 6082.48 1832.09 6152.02 1752.79C6221.55 1673.49 6320.77 1633.84 6449.67 1633.84C6578.58 1633.84 6677.8 1673.49 6747.33 1752.79C6816.86 1832.09 6851.62 1939.12 6851.62 2073.88C6851.62 2208.65 6816.86 2315.68 6747.33 2394.98C6677.8 2474.27 6578.58 2513.92 6449.67 2513.92C6320.77 2513.92 6221.55 2474.27 6152.02 2394.98C6082.48 2315.68 6047.72 2208.65 6047.72 2073.88ZM6230.53 2073.88C6230.53 2171.54 6247.91 2246.34 6282.68 2298.3C6317.84 2349.86 6373.5 2375.64 6449.67 2375.64C6525.84 2375.64 6581.31 2349.86 6616.08 2298.3C6651.23 2246.34 6668.81 2171.54 6668.81 2073.88C6668.81 1976.23 6651.23 1901.62 6616.08 1850.05C6581.31 1798.1 6525.84 1772.12 6449.67 1772.12C6373.5 1772.12 6317.84 1798.1 6282.68 1850.05C6247.91 1901.62 6230.53 1976.23 6230.53 2073.88ZM7036.78 2494C7009.44 2494 6995.77 2479.35 6995.77 2450.05V1697.71C6995.77 1668.41 7009.44 1653.77 7036.78 1653.77H7241.27C7420.96 1653.77 7542.45 1690.09 7605.73 1762.75C7669.4 1835.41 7701.23 1938.73 7701.23 2072.71C7701.23 2206.7 7669.4 2310.41 7605.73 2383.84C7542.45 2457.28 7420.96 2494 7241.27 2494H7036.78ZM7166.86 2348.69H7230.14C7351.23 2348.69 7429.55 2326.23 7465.1 2281.3C7500.65 2235.99 7518.42 2166.46 7518.42 2072.71C7518.42 1978.96 7500.65 1909.82 7465.1 1865.29C7429.55 1820.37 7351.23 1797.91 7230.14 1797.91H7166.86V2348.69ZM7819.01 2494C7790.88 2494 7781.7 2481.11 7791.47 2455.33L8078.58 1701.23C8090.69 1669.59 8109.05 1653.77 8133.66 1653.77H8215.69C8240.3 1653.77 8258.66 1669.59 8270.77 1701.23L8557.88 2455.33C8567.64 2481.11 8558.46 2494 8530.34 2494H8437.17C8411.39 2494 8393.42 2480.52 8383.27 2453.57L8323.5 2295.95H8025.84L7966.08 2453.57C7955.92 2480.52 7937.95 2494 7912.17 2494H7819.01ZM8080.34 2150.64H8269.01L8196.94 1964.31C8188.34 1942.44 8183.07 1926.62 8181.12 1916.85C8179.55 1906.7 8177.8 1891.85 8175.84 1872.32H8173.5C8171.55 1891.85 8169.59 1906.7 8167.64 1916.85C8166.08 1926.62 8161 1942.44 8152.41 1964.31L8080.34 2150.64ZM8703.19 2494C8675.84 2494 8662.17 2479.35 8662.17 2450.05V1697.71C8662.17 1668.41 8675.84 1653.77 8703.19 1653.77H8789.91C8823.5 1653.77 8848.89 1667.44 8866.08 1694.78L9164.91 2174.66H9169.01C9167.05 2151.23 9166.08 2127.79 9166.08 2104.35V1697.71C9166.08 1668.41 9179.75 1653.77 9207.09 1653.77H9296.16C9323.5 1653.77 9337.17 1668.41 9337.17 1697.71V2450.05C9337.17 2479.35 9323.5 2494 9296.16 2494H9215.3C9181.7 2494 9156.31 2480.33 9139.12 2452.98L8834.44 1964.31H8830.34C8832.29 1987.75 8833.27 2011.19 8833.27 2034.62V2450.05C8833.27 2479.35 8819.59 2494 8792.25 2494H8703.19Z" fill="black" fill-opacity="0.2"/>
<path d="M4489.71 2431.3L4489.11 2432.1L4489.11 2432.1L4489.71 2431.3ZM4472.13 2375.64L4472.96 2376.2L4472.97 2376.19L4472.13 2375.64ZM4517.25 2307.67L4516.42 2307.12L4516.42 2307.12L4517.25 2307.67ZM4582.29 2304.16L4581.72 2304.98L4581.72 2304.98L4582.29 2304.16ZM4667.84 2351.62L4667.41 2352.52L4667.43 2352.53L4667.84 2351.62ZM4858.27 2165.29L4858.65 2164.37L4858.65 2164.36L4858.27 2165.29ZM4765.1 2135.41L4764.84 2136.37L4764.85 2136.37L4765.1 2135.41ZM4654.95 2099.08L4655.31 2098.15L4655.31 2098.15L4654.95 2099.08ZM4935.61 1654.94L4935.33 1655.9L4935.33 1655.9L4935.61 1654.94ZM5046.94 1707.67L5046.29 1708.44L5046.29 1708.44L5046.94 1707.67ZM5065.1 1763.92L5064.3 1763.32L5064.3 1763.33L5065.1 1763.92ZM5017.64 1827.79L5016.84 1827.19L5016.83 1827.2L5017.64 1827.79ZM4953.19 1833.06L4952.62 1833.89L4952.62 1833.89L4953.19 1833.06ZM4882.29 1793.8L4881.85 1794.7L4881.86 1794.71L4882.29 1793.8ZM4725.26 1777.98L4725.06 1777L4725.06 1777L4725.26 1777.98ZM4668.42 1912.75L4667.65 1913.39L4667.65 1913.39L4667.66 1913.4L4668.42 1912.75ZM4704.75 1942.05L4704.3 1942.94L4704.31 1942.95L4704.32 1942.95L4704.75 1942.05ZM4745.18 1957.87L4745.49 1956.92L4745.48 1956.91L4745.18 1957.87ZM4858.27 1994.2L4857.96 1995.15L4857.97 1995.15L4858.27 1994.2ZM4950.26 2028.18L4950.67 2027.27L4950.66 2027.27L4950.26 2028.18ZM5090.88 2152.98L5089.97 2153.38L5089.97 2153.39L5090.88 2152.98ZM5051.62 2417.24L5052.34 2417.94L5052.34 2417.94L5051.62 2417.24ZM4918.62 2495.76L4918.38 2494.79L4918.37 2494.79L4918.62 2495.76ZM4611 2494L4611.3 2493.05L4611.29 2493.04L4611 2494ZM4490.32 2430.51C4478.28 2421.39 4470.95 2412.32 4468.11 2403.32C4465.28 2394.38 4466.85 2385.36 4472.96 2376.2L4471.3 2375.09C4464.91 2384.67 4463.16 2394.31 4466.2 2403.92C4469.22 2413.48 4476.92 2422.86 4489.11 2432.1L4490.32 2430.51ZM4472.97 2376.19L4518.08 2308.22L4516.42 2307.12L4471.3 2375.09L4472.97 2376.19ZM4518.08 2308.23C4525.37 2297.29 4534.25 2291.66 4544.7 2291.09C4555.21 2290.52 4567.54 2295.07 4581.72 2304.98L4582.86 2303.34C4568.52 2293.32 4555.75 2288.49 4544.59 2289.1C4533.36 2289.7 4523.97 2295.79 4516.42 2307.12L4518.08 2308.23ZM4581.72 2304.98C4603.66 2320.26 4632.23 2336.1 4667.41 2352.52L4668.26 2350.71C4633.13 2334.32 4604.67 2318.53 4582.86 2303.34L4581.72 2304.98ZM4667.43 2352.53C4703.1 2368.6 4740.55 2376.64 4779.75 2376.64V2374.64C4740.83 2374.64 4703.66 2366.66 4668.25 2350.71L4667.43 2352.53ZM4779.75 2376.64C4807.17 2376.64 4833.62 2373.51 4859.09 2367.24L4858.61 2365.29C4833.3 2371.52 4807.02 2374.64 4779.75 2374.64V2376.64ZM4859.09 2367.24C4884.67 2360.94 4904.22 2348.72 4917.66 2330.53L4916.06 2329.34C4902.94 2347.09 4883.82 2359.09 4858.61 2365.29L4859.09 2367.24ZM4917.66 2330.53C4931.08 2312.37 4937.78 2290.87 4937.78 2266.07H4935.78C4935.78 2290.49 4929.2 2311.56 4916.06 2329.34L4917.66 2330.53ZM4937.78 2266.07C4937.78 2248.38 4934.83 2232.81 4928.91 2219.38L4927.08 2220.18C4932.87 2233.32 4935.78 2248.6 4935.78 2266.07H4937.78ZM4928.91 2219.38C4922.96 2205.9 4913.25 2194.82 4899.82 2186.13L4898.74 2187.81C4911.87 2196.31 4921.3 2207.1 4927.08 2220.18L4928.91 2219.38ZM4899.82 2186.13C4886.49 2177.5 4872.77 2170.25 4858.65 2164.37L4857.88 2166.21C4871.89 2172.05 4885.51 2179.25 4898.74 2187.81L4899.82 2186.13ZM4858.65 2164.36C4833.98 2154.19 4802.88 2144.21 4765.35 2134.44L4764.85 2136.37C4802.32 2146.13 4833.33 2156.08 4857.88 2166.21L4858.65 2164.36ZM4765.37 2134.44C4728.29 2124.29 4691.6 2112.2 4655.31 2098.15L4654.58 2100.01C4690.94 2114.09 4727.69 2126.21 4764.84 2136.37L4765.37 2134.44ZM4655.31 2098.15C4622.98 2085.68 4593.38 2068.55 4566.51 2046.74L4565.25 2048.29C4592.29 2070.23 4622.07 2087.47 4654.59 2100.01L4655.31 2098.15ZM4566.51 2046.74C4539.65 2024.94 4518.84 2000.43 4504.07 1973.21L4502.31 1974.16C4517.22 2001.64 4538.21 2026.34 4565.25 2048.29L4566.51 2046.74ZM4504.07 1973.21C4489.33 1946.07 4481.92 1909.73 4481.92 1864.12H4479.92C4479.92 1909.91 4487.36 1946.62 4502.31 1974.16L4504.07 1973.21ZM4481.92 1864.12C4481.92 1810.06 4499.41 1763.82 4534.4 1725.34L4532.92 1723.99C4497.59 1762.86 4479.92 1809.58 4479.92 1864.12H4481.92ZM4534.4 1725.34C4569.43 1686.8 4609.69 1662.11 4655.18 1651.22L4654.71 1649.28C4608.79 1660.27 4568.19 1685.19 4532.92 1723.99L4534.4 1725.34ZM4655.18 1651.22C4700.81 1640.3 4746.82 1634.84 4793.23 1634.84V1632.84C4746.66 1632.84 4700.49 1638.32 4654.71 1649.28L4655.18 1651.22ZM4793.23 1634.84C4839.22 1634.84 4886.59 1641.86 4935.33 1655.9L4935.89 1653.98C4886.98 1639.89 4839.42 1632.84 4793.23 1632.84V1634.84ZM4935.33 1655.9C4984.49 1669.94 5021.44 1687.47 5046.29 1708.44L5047.58 1706.91C5022.43 1685.69 4985.17 1668.06 4935.88 1653.98L4935.33 1655.9ZM5046.29 1708.44C5058.54 1718.74 5066.04 1728.45 5068.98 1737.57C5071.9 1746.61 5070.37 1755.17 5064.3 1763.32L5065.9 1764.52C5072.33 1755.88 5074.02 1746.66 5070.89 1736.95C5067.78 1727.32 5059.95 1717.31 5047.58 1706.91L5046.29 1708.44ZM5064.3 1763.33L5016.84 1827.19L5018.44 1828.39L5065.9 1764.52L5064.3 1763.33ZM5016.83 1827.2C5008.95 1837.97 4999.82 1843.67 4989.43 1844.52C4979.01 1845.37 4967.13 1841.35 4953.75 1832.24L4952.62 1833.89C4966.2 1843.13 4978.54 1847.42 4989.6 1846.51C5000.7 1845.6 5010.32 1839.49 5018.45 1828.38L5016.83 1827.2ZM4953.75 1832.24C4936.5 1820.48 4912.82 1807.37 4882.72 1792.9L4881.86 1794.71C4911.91 1809.15 4935.5 1822.21 4952.62 1833.89L4953.75 1832.24ZM4882.73 1792.91C4852.91 1778.39 4821.7 1771.12 4789.12 1771.12V1773.12C4821.39 1773.12 4852.3 1780.32 4881.85 1794.7L4882.73 1792.91ZM4789.12 1771.12C4766.02 1771.12 4744.67 1773.08 4725.06 1777L4725.45 1778.96C4744.91 1775.07 4766.13 1773.12 4789.12 1773.12V1771.12ZM4725.06 1777C4705.71 1780.95 4688.55 1790.43 4673.57 1805.4L4674.99 1806.82C4689.7 1792.1 4706.52 1782.83 4725.46 1778.96L4725.06 1777ZM4673.57 1805.4C4658.53 1820.44 4651.02 1839.06 4651.02 1861.19H4653.02C4653.02 1839.57 4660.34 1821.46 4674.99 1806.82L4673.57 1805.4ZM4651.02 1861.19C4651.02 1882.46 4656.53 1899.89 4667.65 1913.39L4669.19 1912.11C4658.43 1899.05 4653.02 1882.1 4653.02 1861.19H4651.02ZM4667.66 1913.4C4678.67 1926.38 4690.89 1936.23 4704.3 1942.94L4705.2 1941.15C4692.05 1934.58 4680.05 1924.9 4669.18 1912.1L4667.66 1913.4ZM4704.32 1942.95C4717.65 1949.22 4731.16 1954.51 4744.88 1958.82L4745.48 1956.91C4731.85 1952.63 4718.42 1947.37 4705.18 1941.14L4704.32 1942.95ZM4744.87 1958.82C4787.06 1972.49 4824.76 1984.6 4857.96 1995.15L4858.57 1993.24C4825.37 1982.7 4787.67 1970.59 4745.49 1956.92L4744.87 1958.82ZM4857.97 1995.15C4891.14 2005.3 4921.77 2016.61 4949.85 2029.09L4950.66 2027.27C4922.5 2014.75 4891.8 2003.41 4858.56 1993.24L4857.97 1995.15ZM4949.85 2029.09C4988.87 2046.65 5018.66 2064.18 5039.26 2081.68L5040.55 2080.15C5019.75 2062.49 4989.77 2044.86 4950.67 2027.27L4949.85 2029.09ZM5039.26 2081.68C5059.82 2099.14 5076.73 2123.02 5089.97 2153.38L5091.8 2152.58C5078.47 2122.01 5061.4 2097.85 5040.55 2080.15L5039.26 2081.68ZM5089.97 2153.39C5103.57 2183.7 5110.39 2219.89 5110.39 2261.97H5112.39C5112.39 2219.68 5105.54 2183.2 5091.8 2152.57L5089.97 2153.39ZM5110.39 2261.97C5110.39 2324.24 5090.55 2375.73 5050.91 2416.55L5052.34 2417.94C5092.39 2376.72 5112.39 2324.7 5112.39 2261.97H5110.39ZM5050.91 2416.54C5011.18 2457.05 4967.01 2483.12 4918.38 2494.79L4918.85 2496.73C4967.88 2484.96 5012.38 2458.68 5052.34 2417.94L5050.91 2416.54ZM4918.37 2494.79C4870.01 2506.88 4822.83 2512.92 4776.82 2512.92V2514.92C4823 2514.92 4870.35 2508.86 4918.86 2496.73L4918.37 2494.79ZM4776.82 2512.92C4708.91 2512.92 4653.74 2506.29 4611.3 2493.05L4610.7 2494.95C4653.41 2508.28 4708.8 2514.92 4776.82 2514.92V2512.92ZM4611.29 2493.04C4568.83 2480.19 4528.51 2459.35 4490.31 2430.51L4489.11 2432.1C4527.48 2461.07 4568.01 2482.03 4610.71 2494.96L4611.29 2493.04ZM5417.25 1984.23H5416.25V1985.23H5417.25V1984.23ZM5732.48 1984.23V1985.23H5733.48V1984.23H5732.48ZM5732.48 2129.55H5733.48V2128.55H5732.48V2129.55ZM5417.25 2129.55V2128.55H5416.25V2129.55H5417.25ZM5287.17 2493C5273.67 2493 5263.73 2489.39 5257.14 2482.33C5250.54 2475.26 5247.16 2464.57 5247.16 2450.05H5245.16C5245.16 2464.84 5248.6 2476.12 5255.68 2483.7C5262.77 2491.29 5273.33 2495 5287.17 2495V2493ZM5247.16 2450.05V1697.71H5245.16V2450.05H5247.16ZM5247.16 1697.71C5247.16 1683.2 5250.54 1672.5 5257.14 1665.43C5263.73 1658.38 5273.67 1654.77 5287.17 1654.77V1652.77C5273.33 1652.77 5262.77 1656.48 5255.68 1664.07C5248.6 1671.65 5245.16 1682.92 5245.16 1697.71H5247.16ZM5287.17 1654.77H5376.23V1652.77H5287.17V1654.77ZM5376.23 1654.77C5389.73 1654.77 5399.68 1658.38 5406.27 1665.43C5412.86 1672.5 5416.25 1683.2 5416.25 1697.71H5418.25C5418.25 1682.92 5414.8 1671.65 5407.73 1664.07C5400.64 1656.48 5390.08 1652.77 5376.23 1652.77V1654.77ZM5416.25 1697.71V1984.23H5418.25V1697.71H5416.25ZM5417.25 1985.23H5732.48V1983.23H5417.25V1985.23ZM5733.48 1984.23V1697.71H5731.48V1984.23H5733.48ZM5733.48 1697.71C5733.48 1683.2 5736.87 1672.5 5743.47 1665.43C5750.05 1658.38 5760 1654.77 5773.5 1654.77V1652.77C5759.66 1652.77 5749.09 1656.48 5742.01 1664.07C5734.93 1671.65 5731.48 1682.92 5731.48 1697.71H5733.48ZM5773.5 1654.77H5862.56V1652.77H5773.5V1654.77ZM5862.56 1654.77C5876.06 1654.77 5886.01 1658.38 5892.59 1665.43C5899.19 1672.5 5902.58 1683.2 5902.58 1697.71H5904.58C5904.58 1682.92 5901.13 1671.65 5894.06 1664.07C5886.97 1656.48 5876.41 1652.77 5862.56 1652.77V1654.77ZM5902.58 1697.71V2450.05H5904.58V1697.71H5902.58ZM5902.58 2450.05C5902.58 2464.57 5899.19 2475.26 5892.59 2482.33C5886.01 2489.39 5876.06 2493 5862.56 2493V2495C5876.41 2495 5886.97 2491.29 5894.06 2483.7C5901.13 2476.12 5904.58 2464.84 5904.58 2450.05H5902.58ZM5862.56 2493H5773.5V2495H5862.56V2493ZM5773.5 2493C5760 2493 5750.05 2489.39 5743.47 2482.33C5736.87 2475.26 5733.48 2464.57 5733.48 2450.05H5731.48C5731.48 2464.84 5734.93 2476.12 5742.01 2483.7C5749.09 2491.29 5759.66 2495 5773.5 2495V2493ZM5733.48 2450.05V2129.55H5731.48V2450.05H5733.48ZM5732.48 2128.55H5417.25V2130.55H5732.48V2128.55ZM5416.25 2129.55V2450.05H5418.25V2129.55H5416.25ZM5416.25 2450.05C5416.25 2464.57 5412.86 2475.26 5406.27 2482.33C5399.68 2489.39 5389.73 2493 5376.23 2493V2495C5390.08 2495 5400.64 2491.29 5407.73 2483.7C5414.8 2476.12 5418.25 2464.84 5418.25 2450.05H5416.25ZM5376.23 2493H5287.17V2495H5376.23V2493ZM6152.02 2394.98L6151.26 2395.64L6152.02 2394.98ZM6282.68 2298.3L6281.85 2298.85L6281.85 2298.86L6282.68 2298.3ZM6616.08 2298.3L6615.25 2297.74L6615.25 2297.74L6616.08 2298.3ZM6616.08 1850.05L6615.25 1850.61L6615.25 1850.62L6616.08 1850.05ZM6282.68 1850.05L6281.85 1849.49L6281.85 1849.5L6282.68 1850.05ZM6048.72 2073.88C6048.72 1939.29 6083.44 1832.52 6152.77 1753.45L6151.26 1752.13C6081.53 1831.66 6046.72 1938.94 6046.72 2073.88H6048.72ZM6152.77 1753.45C6222.07 1674.42 6320.98 1634.84 6449.67 1634.84V1632.84C6320.55 1632.84 6221.03 1672.57 6151.26 1752.13L6152.77 1753.45ZM6449.67 1634.84C6578.36 1634.84 6677.28 1674.42 6746.58 1753.45L6748.08 1752.13C6678.32 1672.57 6578.8 1632.84 6449.67 1632.84V1634.84ZM6746.58 1753.45C6815.91 1832.52 6850.62 1939.29 6850.62 2073.88H6852.62C6852.62 1938.94 6817.81 1831.66 6748.08 1752.13L6746.58 1753.45ZM6850.62 2073.88C6850.62 2208.48 6815.91 2315.25 6746.58 2394.32L6748.08 2395.64C6817.81 2316.11 6852.62 2208.82 6852.62 2073.88H6850.62ZM6746.58 2394.32C6677.28 2473.35 6578.36 2512.92 6449.67 2512.92V2514.92C6578.8 2514.92 6678.32 2475.2 6748.08 2395.64L6746.58 2394.32ZM6449.67 2512.92C6320.98 2512.92 6222.07 2473.35 6152.77 2394.32L6151.26 2395.64C6221.03 2475.2 6320.55 2514.92 6449.67 2514.92V2512.92ZM6152.77 2394.32C6083.44 2315.25 6048.72 2208.48 6048.72 2073.88H6046.72C6046.72 2208.82 6081.53 2316.11 6151.26 2395.64L6152.77 2394.32ZM6229.53 2073.88C6229.53 2171.63 6246.93 2246.67 6281.85 2298.85L6283.51 2297.74C6248.9 2246.02 6231.53 2171.44 6231.53 2073.88H6229.53ZM6281.85 2298.86C6317.24 2350.76 6373.25 2376.64 6449.67 2376.64V2374.64C6373.75 2374.64 6318.43 2348.96 6283.51 2297.73L6281.85 2298.86ZM6449.67 2376.64C6526.09 2376.64 6581.91 2350.76 6616.91 2298.86L6615.25 2297.74C6580.71 2348.96 6525.6 2374.64 6449.67 2374.64V2376.64ZM6616.91 2298.86C6652.22 2246.67 6669.81 2171.64 6669.81 2073.88H6667.81C6667.81 2171.44 6650.25 2246.02 6615.25 2297.74L6616.91 2298.86ZM6669.81 2073.88C6669.81 1976.13 6652.22 1901.29 6616.9 1849.49L6615.25 1850.62C6650.25 1901.94 6667.81 1976.32 6667.81 2073.88H6669.81ZM6616.91 1849.5C6581.92 1797.21 6526.09 1771.12 6449.67 1771.12V1773.12C6525.59 1773.12 6580.71 1799 6615.25 1850.61L6616.91 1849.5ZM6449.67 1771.12C6373.25 1771.12 6317.24 1797.21 6281.85 1849.49L6283.51 1850.62C6318.44 1799 6373.75 1773.12 6449.67 1773.12V1771.12ZM6281.85 1849.5C6246.93 1901.29 6229.53 1976.13 6229.53 2073.88H6231.53C6231.53 1976.32 6248.9 1901.94 6283.51 1850.61L6281.85 1849.5ZM7605.73 1762.75L7604.97 1763.41L7604.97 1763.41L7605.73 1762.75ZM7605.73 2383.84L7604.97 2383.19L7604.97 2383.19L7605.73 2383.84ZM7166.86 2348.69H7165.86V2349.69H7166.86V2348.69ZM7465.1 2281.3L7465.89 2281.93L7465.89 2281.92L7465.1 2281.3ZM7465.1 1865.29L7464.32 1865.91L7464.32 1865.91L7465.1 1865.29ZM7166.86 1797.91V1796.91H7165.86V1797.91H7166.86ZM7036.78 2493C7023.28 2493 7013.34 2489.39 7006.75 2482.33C7000.15 2475.26 6996.77 2464.57 6996.77 2450.05H6994.77C6994.77 2464.84 6998.21 2476.12 7005.29 2483.7C7012.37 2491.29 7022.94 2495 7036.78 2495V2493ZM6996.77 2450.05V1697.71H6994.77V2450.05H6996.77ZM6996.77 1697.71C6996.77 1683.2 7000.15 1672.5 7006.75 1665.43C7013.34 1658.38 7023.28 1654.77 7036.78 1654.77V1652.77C7022.94 1652.77 7012.37 1656.48 7005.29 1664.07C6998.21 1671.65 6994.77 1682.92 6994.77 1697.71H6996.77ZM7036.78 1654.77H7241.27V1652.77H7036.78V1654.77ZM7241.27 1654.77C7420.9 1654.77 7541.99 1691.1 7604.97 1763.41L7606.48 1762.09C7542.9 1689.09 7421.02 1652.77 7241.27 1652.77V1654.77ZM7604.97 1763.41C7668.43 1835.82 7700.23 1938.88 7700.23 2072.71H7702.23C7702.23 1938.58 7670.36 1834.99 7606.48 1762.09L7604.97 1763.41ZM7700.23 2072.71C7700.23 2206.55 7668.43 2309.99 7604.97 2383.19L7606.48 2384.5C7670.36 2310.82 7702.23 2206.84 7702.23 2072.71H7700.23ZM7604.97 2383.19C7541.99 2456.28 7420.9 2493 7241.27 2493V2495C7421.02 2495 7542.9 2458.28 7606.48 2384.5L7604.97 2383.19ZM7241.27 2493H7036.78V2495H7241.27V2493ZM7166.86 2349.69H7230.14V2347.69H7166.86V2349.69ZM7230.14 2349.69C7290.74 2349.69 7340.69 2344.07 7379.98 2332.8C7419.26 2321.54 7447.94 2304.61 7465.89 2281.93L7464.32 2280.68C7446.72 2302.93 7418.47 2319.68 7379.43 2330.88C7340.39 2342.08 7290.63 2347.69 7230.14 2347.69V2349.69ZM7465.89 2281.92C7501.64 2236.35 7519.42 2166.55 7519.42 2072.71H7517.42C7517.42 2166.37 7499.66 2235.63 7464.31 2280.69L7465.89 2281.92ZM7519.42 2072.71C7519.42 1978.87 7501.64 1909.46 7465.88 1864.67L7464.32 1865.91C7499.66 1910.18 7517.42 1979.05 7517.42 2072.71H7519.42ZM7465.89 1864.67C7447.94 1841.99 7419.26 1825.06 7379.98 1813.79C7340.69 1802.53 7290.74 1796.91 7230.14 1796.91V1798.91C7290.63 1798.91 7340.39 1804.52 7379.43 1815.71C7418.47 1826.91 7446.72 1843.67 7464.32 1865.91L7465.89 1864.67ZM7230.14 1796.91H7166.86V1798.91H7230.14V1796.91ZM7165.86 1797.91V2348.69H7167.86V1797.91H7165.86ZM7791.47 2455.33L7790.53 2454.97L7790.53 2454.97L7791.47 2455.33ZM8078.58 1701.23L8077.64 1700.87L8077.64 1700.87L8078.58 1701.23ZM8270.77 1701.23L8271.7 1700.87L8271.7 1700.87L8270.77 1701.23ZM8557.88 2455.33L8558.81 2454.97L8558.81 2454.97L8557.88 2455.33ZM8383.27 2453.57L8384.2 2453.22L8384.2 2453.22L8383.27 2453.57ZM8323.5 2295.95L8324.44 2295.6L8324.19 2294.95H8323.5V2295.95ZM8025.84 2295.95V2294.95H8025.15L8024.91 2295.6L8025.84 2295.95ZM7966.08 2453.57L7965.14 2453.22L7965.14 2453.22L7966.08 2453.57ZM8080.34 2150.64L8079.4 2150.28L8078.88 2151.64H8080.34V2150.64ZM8269.01 2150.64V2151.64H8270.47L8269.94 2150.28L8269.01 2150.64ZM8196.94 1964.31L8197.87 1963.95L8197.87 1963.95L8196.94 1964.31ZM8181.12 1916.85L8180.13 1917L8180.13 1917.03L8180.14 1917.05L8181.12 1916.85ZM8175.84 1872.32L8176.84 1872.22L8176.75 1871.32H8175.84V1872.32ZM8173.5 1872.32V1871.32H8172.6L8172.5 1872.22L8173.5 1872.32ZM8167.64 1916.85L8166.66 1916.66L8166.66 1916.68L8166.65 1916.69L8167.64 1916.85ZM8152.41 1964.31L8151.48 1963.95L8151.47 1963.95L8152.41 1964.31ZM7819.01 2493C7805.02 2493 7796.14 2489.78 7791.84 2483.75C7787.56 2477.73 7787.55 2468.49 7792.4 2455.68L7790.53 2454.97C7785.62 2467.95 7785.32 2478.04 7790.21 2484.91C7795.1 2491.77 7804.87 2495 7819.01 2495V2493ZM7792.4 2455.68L8079.51 1701.58L8077.64 1700.87L7790.53 2454.97L7792.4 2455.68ZM8079.51 1701.58C8085.53 1685.86 8093.07 1674.16 8102.08 1666.39C8111.08 1658.64 8121.59 1654.77 8133.66 1654.77V1652.77C8121.12 1652.77 8110.14 1656.8 8100.78 1664.87C8091.43 1672.93 8083.74 1684.95 8077.64 1700.87L8079.51 1701.58ZM8133.66 1654.77H8215.69V1652.77H8133.66V1654.77ZM8215.69 1654.77C8227.76 1654.77 8238.27 1658.64 8247.26 1666.39C8256.28 1674.16 8263.81 1685.86 8269.83 1701.58L8271.7 1700.87C8265.61 1684.95 8257.91 1672.93 8248.57 1664.87C8239.2 1656.8 8228.23 1652.77 8215.69 1652.77V1654.77ZM8269.83 1701.58L8556.94 2455.68L8558.81 2454.97L8271.7 1700.87L8269.83 1701.58ZM8556.94 2455.68C8561.79 2468.49 8561.79 2477.73 8557.5 2483.75C8553.2 2489.78 8544.32 2493 8530.34 2493V2495C8544.48 2495 8554.24 2491.77 8559.13 2484.91C8564.02 2478.04 8563.72 2467.95 8558.81 2454.97L8556.94 2455.68ZM8530.34 2493H8437.17V2495H8530.34V2493ZM8437.17 2493C8424.46 2493 8413.75 2489.68 8404.96 2483.09C8396.16 2476.5 8389.23 2466.57 8384.2 2453.22L8382.33 2453.92C8387.46 2467.53 8394.59 2477.81 8403.76 2484.69C8412.94 2491.58 8424.1 2495 8437.17 2495V2493ZM8384.2 2453.22L8324.44 2295.6L8322.56 2296.31L8382.33 2453.92L8384.2 2453.22ZM8323.5 2294.95H8025.84V2296.95H8323.5V2294.95ZM8024.91 2295.6L7965.14 2453.22L7967.01 2453.92L8026.78 2296.31L8024.91 2295.6ZM7965.14 2453.22C7960.11 2466.57 7953.18 2476.5 7944.38 2483.09C7935.6 2489.68 7924.88 2493 7912.17 2493V2495C7925.25 2495 7936.4 2491.58 7945.58 2484.69C7954.76 2477.81 7961.89 2467.53 7967.01 2453.92L7965.14 2453.22ZM7912.17 2493H7819.01V2495H7912.17V2493ZM8080.34 2151.64H8269.01V2149.64H8080.34V2151.64ZM8269.94 2150.28L8197.87 1963.95L8196 1964.67L8268.08 2151L8269.94 2150.28ZM8197.87 1963.95C8189.27 1942.07 8184.03 1926.33 8182.1 1916.66L8180.14 1917.05C8182.11 1926.91 8187.41 1942.8 8196.01 1964.68L8197.87 1963.95ZM8182.11 1916.7C8180.55 1906.57 8178.79 1891.75 8176.84 1872.22L8174.85 1872.42C8176.8 1891.96 8178.56 1906.82 8180.13 1917L8182.11 1916.7ZM8175.84 1871.32H8173.5V1873.32H8175.84V1871.32ZM8172.5 1872.22C8170.55 1891.74 8168.6 1906.55 8166.66 1916.66L8168.62 1917.04C8170.58 1906.84 8172.54 1891.96 8174.5 1872.42L8172.5 1872.22ZM8166.65 1916.69C8165.11 1926.34 8160.07 1942.07 8151.48 1963.95L8153.34 1964.68C8161.93 1942.8 8167.05 1926.89 8168.63 1917.01L8166.65 1916.69ZM8151.47 1963.95L8079.4 2150.28L8081.27 2151L8153.34 1964.67L8151.47 1963.95ZM8866.08 1694.78L8866.93 1694.25L8866.92 1694.25L8866.08 1694.78ZM9164.91 2174.66L9164.06 2175.19L9164.35 2175.66H9164.91V2174.66ZM9169.01 2174.66V2175.66H9170.09L9170 2174.58L9169.01 2174.66ZM9139.12 2452.98L9138.28 2453.51L9138.28 2453.52L9139.12 2452.98ZM8834.44 1964.31L8835.29 1963.78L8834.99 1963.31H8834.44V1964.31ZM8830.34 1964.31V1963.31H8829.25L8829.34 1964.4L8830.34 1964.31ZM8703.19 2493C8689.69 2493 8679.74 2489.39 8673.16 2482.33C8666.56 2475.26 8663.17 2464.57 8663.17 2450.05H8661.17C8661.17 2464.84 8664.62 2476.12 8671.69 2483.7C8678.78 2491.29 8689.34 2495 8703.19 2495V2493ZM8663.17 2450.05V1697.71H8661.17V2450.05H8663.17ZM8663.17 1697.71C8663.17 1683.2 8666.56 1672.5 8673.16 1665.43C8679.74 1658.38 8689.69 1654.77 8703.19 1654.77V1652.77C8689.34 1652.77 8678.78 1656.48 8671.69 1664.07C8664.62 1671.65 8661.17 1682.92 8661.17 1697.71H8663.17ZM8703.19 1654.77H8789.91V1652.77H8703.19V1654.77ZM8789.91 1654.77C8823.17 1654.77 8848.24 1668.27 8865.23 1695.31L8866.92 1694.25C8849.55 1666.6 8823.83 1652.77 8789.91 1652.77V1654.77ZM8865.23 1695.31L9164.06 2175.19L9165.76 2174.14L8866.93 1694.25L8865.23 1695.31ZM9164.91 2175.66H9169.01V2173.66H9164.91V2175.66ZM9170 2174.58C9168.05 2151.17 9167.08 2127.76 9167.08 2104.35H9165.08C9165.08 2127.82 9166.06 2151.28 9168.01 2174.75L9170 2174.58ZM9167.08 2104.35V1697.71H9165.08V2104.35H9167.08ZM9167.08 1697.71C9167.08 1683.2 9170.47 1672.5 9177.06 1665.43C9183.65 1658.38 9193.59 1654.77 9207.09 1654.77V1652.77C9193.25 1652.77 9182.69 1656.48 9175.6 1664.07C9168.53 1671.65 9165.08 1682.92 9165.08 1697.71H9167.08ZM9207.09 1654.77H9296.16V1652.77H9207.09V1654.77ZM9296.16 1654.77C9309.66 1654.77 9319.6 1658.38 9326.19 1665.43C9332.78 1672.5 9336.17 1683.2 9336.17 1697.71H9338.17C9338.17 1682.92 9334.72 1671.65 9327.65 1664.07C9320.56 1656.48 9310 1652.77 9296.16 1652.77V1654.77ZM9336.17 1697.71V2450.05H9338.17V1697.71H9336.17ZM9336.17 2450.05C9336.17 2464.57 9332.78 2475.26 9326.19 2482.33C9319.6 2489.39 9309.66 2493 9296.16 2493V2495C9310 2495 9320.56 2491.29 9327.65 2483.7C9334.72 2476.12 9338.17 2464.84 9338.17 2450.05H9336.17ZM9296.16 2493H9215.3V2495H9296.16V2493ZM9215.3 2493C9182.03 2493 9156.97 2479.49 9139.97 2452.45L9138.28 2453.52C9155.66 2481.17 9181.38 2495 9215.3 2495V2493ZM9139.97 2452.46L8835.29 1963.78L8833.59 1964.84L9138.28 2453.51L9139.97 2452.46ZM8834.44 1963.31H8830.34V1965.31H8834.44V1963.31ZM8829.34 1964.4C8831.29 1987.81 8832.27 2011.22 8832.27 2034.62H8834.27C8834.27 2011.16 8833.29 1987.69 8831.33 1964.23L8829.34 1964.4ZM8832.27 2034.62V2450.05H8834.27V2034.62H8832.27ZM8832.27 2450.05C8832.27 2464.57 8828.88 2475.26 8822.28 2482.33C8815.7 2489.39 8805.75 2493 8792.25 2493V2495C8806.09 2495 8816.66 2491.29 8823.74 2483.7C8830.82 2476.12 8834.27 2464.84 8834.27 2450.05H8832.27ZM8792.25 2493H8703.19V2495H8792.25V2493Z" fill="black" mask="url(#path-11-outside-1_16_51)"/>
</g>
<path d="M4410.26 2847.95C4410.26 2786.42 4425.46 2738.26 4455.87 2703.46C4486.46 2668.47 4530.32 2650.98 4587.45 2650.98C4620.84 2650.98 4648.44 2656.7 4670.24 2668.12C4692.04 2679.37 4707.68 2694.84 4717.17 2714.53C4722.09 2724.72 4721.3 2731.76 4714.8 2735.62L4693.97 2747.75C4686.94 2751.79 4680.7 2748.46 4675.25 2737.73C4669.45 2726.66 4659.96 2716.29 4646.77 2706.62C4633.59 2696.95 4614.69 2692.12 4590.08 2692.12C4546.14 2692.12 4514.14 2705.83 4494.11 2733.25C4474.24 2760.5 4464.31 2798.73 4464.31 2847.95C4464.31 2897.17 4474.24 2935.49 4494.11 2962.91C4514.14 2990.15 4546.14 3003.78 4590.08 3003.78C4615.39 3003.78 4635.61 2997.98 4650.73 2986.38C4666.02 2974.77 4677.09 2962.64 4683.95 2949.99C4689.4 2939.79 4695.73 2936.72 4702.93 2940.76L4724.82 2953.15C4731.15 2956.84 4731.67 2963.88 4726.4 2974.25C4716.03 2994.46 4699.15 3011.34 4675.78 3024.87C4652.4 3038.23 4622.95 3044.91 4587.45 3044.91C4530.32 3044.91 4486.46 3027.51 4455.87 2992.7C4425.46 2957.72 4410.26 2909.47 4410.26 2847.95ZM4778.08 2898.57C4778.08 2857.26 4788.98 2823.16 4810.78 2796.27C4832.75 2769.2 4864.83 2755.66 4907.02 2755.66C4949.2 2755.66 4981.2 2769.2 5002.99 2796.27C5024.96 2823.16 5035.95 2857.26 5035.95 2898.57C5035.95 2939.88 5024.96 2974.07 5002.99 3001.14C4981.2 3028.04 4949.2 3041.48 4907.02 3041.48C4864.83 3041.48 4832.75 3028.04 4810.78 3001.14C4788.98 2974.07 4778.08 2939.88 4778.08 2898.57ZM4827.12 2898.57C4827.12 2935.49 4834.42 2962.82 4849.01 2980.57C4863.6 2998.33 4882.93 3007.21 4907.02 3007.21C4931.1 3007.21 4950.43 2998.33 4965.02 2980.57C4979.61 2962.82 4986.91 2935.49 4986.91 2898.57C4986.91 2861.66 4979.61 2834.32 4965.02 2816.57C4950.43 2798.82 4931.1 2789.94 4907.02 2789.94C4882.93 2789.94 4863.6 2798.82 4849.01 2816.57C4834.42 2834.32 4827.12 2861.66 4827.12 2898.57ZM5107.67 3037C5099.76 3037 5095.8 3033.04 5095.8 3025.13V2772.01C5095.8 2764.1 5099.76 2760.14 5107.67 2760.14H5129.82C5137.73 2760.14 5141.68 2764.1 5141.68 2772.01V2793.1H5142.74C5154.16 2780.45 5166.56 2771.04 5179.92 2764.89C5193.28 2758.74 5206.11 2755.66 5218.41 2755.66C5241.09 2755.66 5258.49 2761.38 5270.62 2772.8C5282.92 2784.05 5290.83 2795.39 5294.35 2806.81H5295.4C5305.07 2792.4 5317.29 2780.27 5332.05 2770.43C5346.82 2760.58 5362.55 2755.66 5379.25 2755.66C5407.2 2755.66 5428.29 2764.71 5442.53 2782.82C5456.77 2800.75 5463.89 2825.36 5463.89 2856.65V3025.13C5463.89 3033.04 5459.94 3037 5452.03 3037H5429.35C5421.44 3037 5417.48 3033.04 5417.48 3025.13V2871.94C5417.48 2837.49 5413.18 2815.25 5404.56 2805.23C5395.95 2795.04 5382.68 2789.94 5364.75 2789.94C5347.17 2789.94 5332.49 2797.5 5320.72 2812.62C5308.94 2827.56 5303.05 2850.14 5303.05 2880.38V3025.13C5303.05 3033.04 5299.1 3037 5291.19 3037H5268.51C5260.6 3037 5256.64 3033.04 5256.64 3025.13V2871.94C5256.64 2837.49 5252.34 2815.25 5243.72 2805.23C5235.11 2795.04 5221.84 2789.94 5203.91 2789.94C5186.33 2789.94 5171.65 2796.79 5159.88 2810.51C5148.1 2824.04 5142.21 2847.33 5142.21 2880.38V3025.13C5142.21 3033.04 5138.26 3037 5130.35 3037H5107.67ZM5550.11 3142.47C5542.2 3142.47 5538.25 3138.51 5538.25 3130.6V2772.01C5538.25 2764.1 5542.2 2760.14 5550.11 2760.14H5572.26C5578.59 2760.14 5582.02 2764.1 5582.54 2772.01L5584.12 2793.1H5584.65C5594.32 2781.5 5605.22 2772.36 5617.35 2765.68C5629.48 2759 5645.65 2755.66 5665.86 2755.66C5701.02 2755.66 5727.74 2770.08 5746.02 2798.9C5764.3 2827.56 5773.44 2860.78 5773.44 2898.57C5773.44 2936.37 5764.3 2969.68 5746.02 2998.5C5727.74 3027.16 5701.02 3041.48 5665.86 3041.48C5645.65 3041.48 5629.48 3038.14 5617.35 3031.46C5605.22 3024.78 5594.32 3015.64 5584.65 3004.04H5584.12C5584.48 3009.31 5584.65 3014.68 5584.65 3020.12V3130.6C5584.65 3138.51 5580.7 3142.47 5572.79 3142.47H5550.11ZM5584.65 2928.89C5584.65 2955.26 5590.89 2974.95 5603.37 2987.96C5616.03 3000.79 5631.85 3007.21 5650.83 3007.21C5677.55 3007.21 5696.45 2997.19 5707.52 2977.15C5718.77 2957.11 5724.4 2930.92 5724.4 2898.57C5724.4 2866.23 5718.77 2840.04 5707.52 2820C5696.45 2799.96 5677.55 2789.94 5650.83 2789.94C5631.85 2789.94 5616.03 2796.44 5603.37 2809.45C5590.89 2822.28 5584.65 2841.88 5584.65 2868.25V2928.89ZM5833.03 2940.5V2772.01C5833.03 2764.1 5836.99 2760.14 5844.9 2760.14H5867.57C5875.48 2760.14 5879.44 2764.1 5879.44 2772.01V2927.84C5879.44 2962.29 5885.15 2984.18 5896.58 2993.49C5908 3002.63 5922.15 3007.21 5939.03 3007.21C5961.18 3007.21 5978.14 3000.44 5989.92 2986.9C6001.69 2973.19 6007.58 2949.81 6007.58 2916.77V2772.01C6007.58 2764.1 6011.54 2760.14 6019.45 2760.14H6042.12C6050.03 2760.14 6053.99 2764.1 6053.99 2772.01V3025.13C6053.99 3033.04 6050.03 3037 6042.12 3037H6019.97C6012.06 3037 6008.11 3033.04 6008.11 3025.13V3004.04H6007.05C5995.63 3016.7 5983.32 3026.1 5970.14 3032.25C5956.96 3038.41 5940.87 3041.48 5921.89 3041.48C5891.13 3041.48 5868.63 3032.52 5854.39 3014.59C5840.15 2996.48 5833.03 2971.79 5833.03 2940.5ZM6115.42 2794.95C6107.51 2794.95 6103.56 2791.87 6103.56 2785.72V2769.37C6103.56 2763.22 6107.51 2760.14 6115.42 2760.14H6146.54V2736.41C6146.54 2732.9 6147.42 2729.56 6149.17 2726.39L6167.63 2692.91C6170.97 2686.76 6173.7 2683.68 6175.8 2683.68H6185.03C6190.31 2683.68 6192.94 2686.76 6192.94 2692.91V2760.14H6249.11C6257.02 2760.14 6260.97 2763.22 6260.97 2769.37V2785.72C6260.97 2791.87 6257.02 2794.95 6249.11 2794.95H6192.94V2962.91C6192.94 2981.37 6195.67 2993.41 6201.12 2999.03C6206.74 3004.48 6213.42 3007.21 6221.16 3007.21C6227.13 3007.21 6234.25 3005.45 6242.51 3001.93C6250.95 2998.42 6256.75 2995.43 6259.92 2992.97C6263.08 2990.51 6265.54 2991.3 6267.3 2995.34L6276 3015.64C6277.41 3019.16 6276.35 3021.97 6272.84 3024.08C6265.98 3028.12 6255.96 3032.08 6242.78 3035.95C6229.59 3039.64 6216.41 3041.48 6203.23 3041.48C6184.95 3041.48 6170.88 3034.89 6161.04 3021.71C6151.37 3008.52 6146.54 2989.89 6146.54 2965.81V2794.95H6115.42ZM6313.71 2898.57C6313.71 2854.98 6324.6 2820.26 6346.4 2794.42C6368.2 2768.58 6399.4 2755.66 6440 2755.66C6473.75 2755.66 6501.7 2767.53 6523.85 2791.26C6546.18 2814.81 6557.34 2852.52 6557.34 2904.37C6557.34 2912.28 6553.73 2916.24 6546.53 2916.24H6362.75C6365.74 2950.16 6374.88 2973.81 6390.17 2987.17C6405.46 3000.35 6422.78 3006.94 6442.11 3006.94C6462.5 3006.94 6478.15 3003.51 6489.05 2996.66C6499.95 2989.8 6507.94 2983.04 6513.04 2976.36C6518.67 2968.97 6524.12 2967.57 6529.39 2972.14L6544.95 2985.58C6548.99 2989.1 6548.99 2993.93 6544.95 3000.09C6541.61 3005.18 6532.03 3013.36 6516.21 3024.61C6500.56 3035.86 6475.86 3041.48 6442.11 3041.48C6398.17 3041.48 6365.74 3028.56 6344.82 3002.72C6324.08 2976.88 6313.71 2942.17 6313.71 2898.57ZM6361.69 2881.96H6510.67C6509.96 2857.35 6503.64 2835.82 6491.68 2817.36C6479.73 2798.73 6462.15 2789.41 6438.95 2789.41C6418.56 2789.41 6401.24 2796.27 6387.01 2809.98C6372.77 2823.51 6364.33 2847.51 6361.69 2881.96ZM6630.11 3037C6622.2 3037 6618.25 3033.04 6618.25 3025.13V2772.01C6618.25 2764.1 6622.2 2760.14 6630.11 2760.14H6652.26C6660.17 2760.14 6664.12 2764.1 6664.12 2772.01V2803.65H6665.18C6673.62 2787.83 6683.55 2775.88 6694.97 2767.79C6706.4 2759.71 6720.64 2755.66 6737.69 2755.66C6748.94 2755.66 6756.85 2756.63 6761.42 2758.56C6765.46 2760.14 6766.96 2762.78 6765.9 2766.47L6759.84 2788.09C6758.96 2791.26 6756.67 2792.49 6752.98 2791.79C6746.83 2790.55 6741.03 2789.94 6735.58 2789.94C6715.01 2789.94 6698.05 2799.26 6684.69 2817.89C6671.33 2836.35 6664.65 2861.57 6664.65 2893.56V3025.13C6664.65 3033.04 6660.7 3037 6652.79 3037H6630.11ZM6994.77 3008.52C6985.45 3000.09 6982.99 2992.7 6987.39 2986.38L7001.1 2966.6C7005.84 2959.74 7013.49 2960.27 7024.04 2968.18C7037.92 2978.55 7052.34 2987.08 7067.28 2993.76C7082.4 3000.44 7100.68 3003.78 7122.12 3003.78C7137.94 3003.78 7151.3 3001.4 7162.2 2996.66C7173.1 2991.91 7181.8 2985.14 7188.3 2976.36C7194.98 2967.39 7198.32 2956.58 7198.32 2943.92C7198.32 2934.78 7196.92 2926.35 7194.11 2918.61C7191.47 2910.7 7187.16 2904.11 7181.19 2898.84C7175.21 2893.56 7168.97 2889.43 7162.46 2886.44C7151.74 2881.52 7135.66 2875.81 7114.21 2869.3C7092.94 2862.8 7074.31 2855.77 7058.31 2848.21C7042.49 2840.65 7029.84 2831.51 7020.35 2820.79C7011.03 2810.07 7004.79 2799.08 7001.62 2787.83C6998.64 2776.4 6997.14 2763.4 6997.14 2748.81C6997.14 2726.48 7003.65 2707.23 7016.65 2691.06C7029.66 2674.89 7045.57 2664.17 7064.38 2658.89C7083.36 2653.62 7102.61 2650.98 7122.12 2650.98C7144.45 2650.98 7163.87 2653.88 7180.39 2659.69C7196.92 2665.49 7211.68 2673.04 7224.69 2682.36C7233.83 2688.87 7235.94 2695.72 7231.02 2702.93L7217.57 2722.18C7213.53 2727.98 7205.62 2726.75 7193.84 2718.48C7184.88 2712.16 7173.89 2706.27 7160.88 2700.82C7148.05 2695.19 7135.31 2692.38 7122.65 2692.38C7106.48 2692.38 7093.03 2694.31 7082.31 2698.18C7071.59 2701.87 7063.15 2708.2 7057 2717.17C7050.84 2726.13 7047.77 2736.5 7047.77 2748.28C7047.77 2755.66 7048.47 2762.52 7049.88 2768.85C7051.28 2775 7054.89 2781.33 7060.69 2787.83C7066.49 2794.33 7073.52 2799.34 7081.78 2802.86C7092.86 2807.61 7109.99 2813.23 7133.2 2819.73C7156.58 2826.06 7176.97 2833.88 7194.37 2843.2C7210.54 2851.81 7222.14 2860.87 7229.17 2870.36C7236.38 2879.68 7241.92 2889.87 7245.79 2900.95C7249.83 2911.84 7251.85 2924.15 7251.85 2937.86C7251.85 2962.82 7245.43 2983.65 7232.6 3000.35C7219.77 3017.05 7204.56 3028.65 7186.99 3035.15C7169.41 3041.66 7147.35 3044.91 7120.8 3044.91C7088.99 3044.91 7062.62 3041.22 7041.7 3033.84C7020.79 3026.45 7005.14 3018.02 6994.77 3008.52ZM7296.15 2898.57C7296.15 2854.98 7307.04 2820.26 7328.84 2794.42C7350.64 2768.58 7381.84 2755.66 7422.45 2755.66C7456.2 2755.66 7484.14 2767.53 7506.29 2791.26C7528.62 2814.81 7539.78 2852.52 7539.78 2904.37C7539.78 2912.28 7536.18 2916.24 7528.97 2916.24H7345.19C7348.18 2950.16 7357.32 2973.81 7372.61 2987.17C7387.9 3000.35 7405.22 3006.94 7424.55 3006.94C7444.95 3006.94 7460.59 3003.51 7471.49 2996.66C7482.39 2989.8 7490.38 2983.04 7495.48 2976.36C7501.11 2968.97 7506.56 2967.57 7511.83 2972.14L7527.39 2985.58C7531.43 2989.1 7531.43 2993.93 7527.39 3000.09C7524.05 3005.18 7514.47 3013.36 7498.65 3024.61C7483 3035.86 7458.3 3041.48 7424.55 3041.48C7380.61 3041.48 7348.18 3028.56 7327.26 3002.72C7306.52 2976.88 7296.15 2942.17 7296.15 2898.57ZM7344.13 2881.96H7493.11C7492.41 2857.35 7486.08 2835.82 7474.12 2817.36C7462.17 2798.73 7444.59 2789.41 7421.39 2789.41C7401 2789.41 7383.69 2796.27 7369.45 2809.98C7355.21 2823.51 7346.77 2847.51 7344.13 2881.96ZM7585.66 2963.17C7585.66 2931.88 7600.25 2908.94 7629.43 2894.35C7658.78 2879.76 7702.55 2871.24 7760.74 2868.78V2850.85C7760.74 2834.32 7756.96 2820.09 7749.4 2808.13C7742.02 2796 7727.25 2789.94 7705.1 2789.94C7691.04 2789.94 7679.79 2791.35 7671.35 2794.16C7662.91 2796.79 7655.18 2800.4 7648.15 2804.97C7641.29 2809.36 7634.7 2815.08 7628.37 2822.11C7623.63 2827.38 7619.14 2827.64 7614.93 2822.9L7601.21 2807.08C7597.35 2802.68 7598.67 2797.41 7605.17 2791.26C7614.49 2782.47 7623.54 2775.88 7632.33 2771.48C7641.12 2767.09 7652.02 2763.4 7665.02 2760.41C7678.21 2757.24 7691.57 2755.66 7705.1 2755.66C7741.84 2755.66 7768.03 2765.15 7783.68 2784.14C7799.32 2802.95 7807.14 2828.79 7807.14 2861.66V3025.13C7807.14 3033.04 7803.19 3037 7795.28 3037H7771.55C7764.69 3037 7761.26 3033.04 7761.26 3025.13V3012.21H7760.74C7746.85 3023.11 7733.23 3030.76 7719.87 3035.15C7706.68 3039.37 7691.92 3041.48 7675.57 3041.48C7646.74 3041.48 7624.51 3034.63 7608.86 3020.92C7593.39 3007.03 7585.66 2987.78 7585.66 2963.17ZM7633.65 2964.23C7633.65 2975.12 7635.93 2983.91 7640.5 2990.59C7645.07 2997.1 7651.4 3001.32 7659.49 3003.25C7667.57 3005.01 7676.01 3005.89 7684.8 3005.89C7698.33 3005.89 7711.17 3004.57 7723.29 3001.93C7735.42 2999.29 7747.9 2992.35 7760.74 2981.1V2903.32C7725.23 2905.96 7699.92 2909.21 7684.8 2913.07C7669.68 2916.77 7657.38 2923.27 7647.88 2932.59C7638.39 2941.73 7633.65 2952.27 7633.65 2964.23ZM7894.15 3037C7886.24 3037 7882.29 3033.04 7882.29 3025.13V2772.01C7882.29 2764.1 7886.24 2760.14 7894.15 2760.14H7916.3C7924.21 2760.14 7928.17 2764.1 7928.17 2772.01V2803.65H7929.22C7937.66 2787.83 7947.59 2775.88 7959.02 2767.79C7970.44 2759.71 7984.68 2755.66 8001.73 2755.66C8012.98 2755.66 8020.89 2756.63 8025.46 2758.56C8029.51 2760.14 8031 2762.78 8029.95 2766.47L8023.88 2788.09C8023 2791.26 8020.72 2792.49 8017.03 2791.79C8010.87 2790.55 8005.07 2789.94 7999.62 2789.94C7979.06 2789.94 7962.09 2799.26 7948.73 2817.89C7935.38 2836.35 7928.7 2861.57 7928.7 2893.56V3025.13C7928.7 3033.04 7924.74 3037 7916.83 3037H7894.15ZM8057.63 2898.57C8057.63 2857.26 8067.83 2823.16 8088.22 2796.27C8108.78 2769.2 8140.16 2755.66 8182.35 2755.66C8210.82 2755.66 8232.53 2760.76 8247.47 2770.96C8262.59 2780.97 8273.49 2791.26 8280.17 2801.8C8283.86 2807.61 8283.07 2812.26 8277.8 2815.78L8261.19 2826.59C8255.91 2830.28 8250.64 2827.91 8245.37 2819.47C8240.27 2811.38 8233.06 2804.44 8223.74 2798.64C8214.6 2792.84 8200.8 2789.94 8182.35 2789.94C8158.27 2789.94 8139.63 2798.82 8126.45 2816.57C8113.27 2834.32 8106.67 2861.66 8106.67 2898.57C8106.67 2935.49 8113.27 2962.82 8126.45 2980.57C8139.63 2998.33 8158.27 3007.21 8182.35 3007.21C8201.86 3007.21 8216.8 3003.51 8227.17 2996.13C8237.54 2988.57 8245.1 2980.4 8249.85 2971.61C8254.42 2963.35 8259.6 2960.97 8265.4 2964.49L8283.07 2975.04C8288.34 2978.2 8289.13 2982.95 8285.44 2989.28C8281.05 2996.83 8271.03 3007.47 8255.38 3021.18C8239.92 3034.71 8215.57 3041.48 8182.35 3041.48C8140.16 3041.48 8108.78 3028.04 8088.22 3001.14C8067.83 2974.07 8057.63 2939.88 8057.63 2898.57ZM8355.05 3037C8347.14 3037 8343.19 3033.04 8343.19 3025.13V2659.69C8343.19 2651.78 8347.14 2647.82 8355.05 2647.82H8377.73C8385.64 2647.82 8389.59 2651.78 8389.59 2659.69V2777.28C8389.59 2782.56 8389.42 2787.83 8389.07 2793.1H8390.12C8401.55 2780.45 8413.85 2771.04 8427.04 2764.89C8440.22 2758.74 8456.65 2755.66 8476.34 2755.66C8508.33 2755.66 8531.27 2764.71 8545.16 2782.82C8559.22 2800.75 8566.25 2825.36 8566.25 2856.65V3025.13C8566.25 3033.04 8562.3 3037 8554.39 3037H8531.71C8523.8 3037 8519.85 3033.04 8519.85 3025.13V2869.3C8519.85 2834.85 8514.13 2813.05 8502.71 2803.91C8491.28 2794.6 8476.78 2789.94 8459.2 2789.94C8436.35 2789.94 8419.04 2796.79 8407.26 2810.51C8395.48 2824.04 8389.59 2847.33 8389.59 2880.38V3025.13C8389.59 3033.04 8385.64 3037 8377.73 3037H8355.05ZM8841 3037C8832.21 3037 8827.82 3032.17 8827.82 3022.5V2673.4C8827.82 2663.73 8832.21 2658.89 8841 2658.89H9071.71C9081.38 2658.89 9086.21 2662.85 9086.21 2670.76V2690.27C9086.21 2698.18 9081.38 2702.14 9071.71 2702.14H8878.44V2819.21H9055.89C9065.56 2819.21 9070.39 2823.16 9070.39 2831.07V2850.58C9070.39 2858.49 9065.56 2862.45 9055.89 2862.45H8878.44V2993.76H9079.62C9089.29 2993.76 9094.12 2997.71 9094.12 3005.62V3025.13C9094.12 3033.04 9089.29 3037 9079.62 3037H8841ZM9167.16 3037C9159.25 3037 9155.3 3033.04 9155.3 3025.13V2772.01C9155.3 2764.1 9159.25 2760.14 9167.16 2760.14H9189.31C9197.22 2760.14 9201.18 2764.1 9201.18 2772.01V2793.1H9202.23C9213.66 2780.45 9225.96 2771.04 9239.14 2764.89C9252.33 2758.74 9268.76 2755.66 9288.45 2755.66C9320.44 2755.66 9343.38 2764.71 9357.27 2782.82C9371.33 2800.75 9378.36 2825.36 9378.36 2856.65V3025.13C9378.36 3033.04 9374.41 3037 9366.5 3037H9343.82C9335.91 3037 9331.96 3033.04 9331.96 3025.13V2869.3C9331.96 2834.85 9326.24 2813.05 9314.82 2803.91C9303.39 2794.6 9288.89 2789.94 9271.31 2789.94C9248.46 2789.94 9231.15 2796.79 9219.37 2810.51C9207.59 2824.04 9201.7 2847.33 9201.7 2880.38V3025.13C9201.7 3033.04 9197.75 3037 9189.84 3037H9167.16ZM9437.69 2898.57C9437.69 2860.78 9446.83 2827.56 9465.11 2798.9C9483.39 2770.08 9510.11 2755.66 9545.27 2755.66C9565.48 2755.66 9581.65 2759 9593.78 2765.68C9605.91 2772.36 9616.81 2781.5 9626.48 2793.1H9627.01L9628.59 2772.01C9629.12 2764.1 9632.54 2760.14 9638.87 2760.14H9661.02C9668.93 2760.14 9672.88 2764.1 9672.88 2772.01V3039.11C9672.88 3072.86 9665.06 3099.23 9649.42 3118.21C9633.95 3137.37 9603.28 3146.95 9557.4 3146.95C9526.63 3146.95 9503.61 3143.44 9488.31 3136.4C9473.02 3129.55 9462.12 3122.25 9455.62 3114.52C9450.87 3108.72 9450.61 3103.8 9454.83 3099.75L9469.33 3085.52C9473.37 3081.65 9479 3082.88 9486.21 3089.21C9495.52 3097.64 9504.49 3103.62 9513.1 3107.14C9521.71 3110.83 9536.57 3112.67 9557.66 3112.67C9581.57 3112.67 9598.97 3107.58 9609.87 3097.38C9620.94 3087.19 9626.48 3066.09 9626.48 3034.1V3018.28C9626.48 3012.83 9626.65 3007.47 9627.01 3002.2H9626.48C9617.34 3014.32 9606.53 3023.9 9594.05 3030.94C9581.74 3037.97 9565.48 3041.48 9545.27 3041.48C9510.11 3041.48 9483.39 3027.16 9465.11 2998.5C9446.83 2969.68 9437.69 2936.37 9437.69 2898.57ZM9486.73 2898.57C9486.73 2930.92 9492.27 2957.11 9503.34 2977.15C9514.59 2997.19 9533.58 3007.21 9560.3 3007.21C9579.28 3007.21 9595.01 3000.79 9607.49 2987.96C9620.15 2974.95 9626.48 2955.26 9626.48 2928.89V2868.25C9626.48 2841.88 9620.15 2822.28 9607.49 2809.45C9595.01 2796.44 9579.28 2789.94 9560.3 2789.94C9533.58 2789.94 9514.59 2799.96 9503.34 2820C9492.27 2840.04 9486.73 2866.23 9486.73 2898.57ZM9759.9 3037C9751.99 3037 9748.03 3033.04 9748.03 3025.13V2772.01C9748.03 2764.1 9751.99 2760.14 9759.9 2760.14H9782.57C9790.48 2760.14 9794.44 2764.1 9794.44 2772.01V3025.13C9794.44 3033.04 9790.48 3037 9782.57 3037H9759.9ZM9759.9 2710.05C9751.99 2710.05 9748.03 2706.09 9748.03 2698.18V2675.51C9748.03 2667.6 9751.99 2663.64 9759.9 2663.64H9782.57C9790.48 2663.64 9794.44 2667.6 9794.44 2675.51V2698.18C9794.44 2706.09 9790.48 2710.05 9782.57 2710.05H9759.9ZM9881.19 3037C9873.28 3037 9869.32 3033.04 9869.32 3025.13V2772.01C9869.32 2764.1 9873.28 2760.14 9881.19 2760.14H9903.33C9911.24 2760.14 9915.2 2764.1 9915.2 2772.01V2793.1H9916.25C9927.68 2780.45 9939.98 2771.04 9953.17 2764.89C9966.35 2758.74 9982.79 2755.66 10002.5 2755.66C10034.5 2755.66 10057.4 2764.71 10071.3 2782.82C10085.4 2800.75 10092.4 2825.36 10092.4 2856.65V3025.13C10092.4 3033.04 10088.4 3037 10080.5 3037H10057.8C10049.9 3037 10046 3033.04 10046 3025.13V2869.3C10046 2834.85 10040.3 2813.05 10028.8 2803.91C10017.4 2794.6 10002.9 2789.94 9985.34 2789.94C9962.48 2789.94 9945.17 2796.79 9933.39 2810.51C9921.62 2824.04 9915.73 2847.33 9915.73 2880.38V3025.13C9915.73 3033.04 9911.77 3037 9903.86 3037H9881.19ZM10151.7 2898.57C10151.7 2854.98 10162.6 2820.26 10184.4 2794.42C10206.2 2768.58 10237.4 2755.66 10278 2755.66C10311.8 2755.66 10339.7 2767.53 10361.9 2791.26C10384.2 2814.81 10395.3 2852.52 10395.3 2904.37C10395.3 2912.28 10391.7 2916.24 10384.5 2916.24H10200.8C10203.7 2950.16 10212.9 2973.81 10228.2 2987.17C10243.5 3000.35 10260.8 3006.94 10280.1 3006.94C10300.5 3006.94 10316.2 3003.51 10327.1 2996.66C10338 2989.8 10346 2983.04 10351 2976.36C10356.7 2968.97 10362.1 2967.57 10367.4 2972.14L10383 2985.58C10387 2989.1 10387 2993.93 10383 3000.09C10379.6 3005.18 10370 3013.36 10354.2 3024.61C10338.6 3035.86 10313.9 3041.48 10280.1 3041.48C10236.2 3041.48 10203.7 3028.56 10182.8 3002.72C10162.1 2976.88 10151.7 2942.17 10151.7 2898.57ZM10199.7 2881.96H10348.7C10348 2857.35 10341.6 2835.82 10329.7 2817.36C10317.7 2798.73 10300.2 2789.41 10277 2789.41C10256.6 2789.41 10239.3 2796.27 10225 2809.98C10210.8 2823.51 10202.3 2847.51 10199.7 2881.96Z" fill="black"/>
<defs>
<filter id="filter0_d_16_51" x="4449.38" y="1633.84" width="4891.79" height="888.078" filterUnits="userSpaceOnUse" color-interpolation-filters="sRGB">
<feFlood flood-opacity="0" result="BackgroundImageFix"/>
<feColorMatrix in="SourceAlpha" type="matrix" values="0 0 0 0 0 0 0 0 0 0 0 0 0 0 0 0 0 0 127 0" result="hardAlpha"/>
<feOffset dy="4"/>
<feGaussianBlur stdDeviation="2"/>
<feComposite in2="hardAlpha" operator="out"/>
<feColorMatrix type="matrix" values="0 0 0 0 0 0 0 0 0 0 0 0 0 0 0 0 0 0 0.25 0"/>
<feBlend mode="normal" in2="BackgroundImageFix" result="effect1_dropShadow_16_51"/>
<feBlend mode="normal" in="SourceGraphic" in2="effect1_dropShadow_16_51" result="shape"/>
</filter>
</defs>
</svg>
