<svg version="1.1" id="Layer_1" xmlns="http://www.w3.org/2000/svg" xmlns:xlink="http://www.w3.org/1999/xlink" x="0px" y="0px"
	 width="100%" viewBox="0 0 225 225" enable-background="new 0 0 225 225" xml:space="preserve">
<path fill="#000000" opacity="1.000000" stroke="none" 
	d="
M156.000000,226.000000 
	C104.000000,226.000000 52.500008,226.000000 1.000007,226.000000 
	C1.000005,151.000000 1.000005,76.000015 1.000002,1.000017 
	C75.999992,1.000011 150.999985,1.000011 225.999969,1.000006 
	C225.999985,75.999985 225.999985,150.999969 226.000000,225.999969 
	C202.833328,226.000000 179.666672,226.000000 156.000000,226.000000 
M191.842667,58.429951 
	C191.373383,58.604538 190.904114,58.779125 190.454620,58.676888 
	C190.454620,58.676888 190.240097,58.500816 189.628372,58.080994 
	C188.555801,57.723228 187.500427,57.298618 186.408096,57.017651 
	C167.650909,52.192932 148.868912,47.463032 130.136627,42.543728 
	C120.229759,39.942070 110.593262,37.556065 100.153954,40.902287 
	C86.026398,45.430748 71.592552,49.009285 57.269783,52.920921 
	C49.518734,55.037785 41.725452,57.000027 33.299465,59.088268 
	C32.867355,59.136036 32.435242,59.183804 31.313389,59.043903 
	C26.652122,60.724220 29.979258,63.690903 30.079832,66.958565 
	C30.446024,69.620956 30.812216,72.283348 31.066652,75.759323 
	C31.093554,76.847900 31.120453,77.936470 31.024721,79.742050 
	C31.368023,80.487167 31.711325,81.232277 32.126678,82.781059 
	C32.414440,85.574677 32.702202,88.368294 33.004658,91.991188 
	C33.056332,93.641426 33.108006,95.291664 32.998142,97.787468 
	C33.060215,99.502510 33.122288,101.217560 33.053204,103.637505 
	C33.334633,104.420860 33.616062,105.204208 34.023640,106.813293 
	C34.066078,108.196274 34.108517,109.579254 33.992687,111.750443 
	C34.049679,112.816544 34.106674,113.882652 34.045624,115.662285 
	C34.343548,116.450592 34.641468,117.238907 35.028400,118.762718 
	C35.098648,119.499245 35.168896,120.235764 35.063423,121.711815 
	C35.091805,122.465034 35.120190,123.218262 34.994568,124.627373 
	C35.050163,125.069557 35.105755,125.511742 35.056728,126.709518 
	C35.333050,127.834000 35.609371,128.958481 36.024647,130.980881 
	C36.687531,138.392838 37.350414,145.804779 37.984188,153.990952 
	C38.044323,155.022552 38.104454,156.054169 38.046913,157.867508 
	C38.088131,159.182892 38.129349,160.498260 38.223057,162.519867 
	C39.397579,163.654449 40.416466,165.040024 41.772957,165.881165 
	C48.441132,170.015991 55.198963,174.006241 62.152859,178.716156 
	C65.414276,180.507355 68.675697,182.298553 72.000710,184.005615 
	C72.000710,184.005615 71.923790,184.077393 72.136192,184.699188 
	C73.065323,185.160339 73.994461,185.621475 74.995735,186.011200 
	C74.995735,186.011200 74.938301,186.095169 75.146271,186.696838 
	C75.757042,186.834488 76.367821,186.972137 76.990555,187.027710 
	C76.990555,187.027710 76.925751,187.079483 77.137863,187.701218 
	C78.067635,188.162415 78.997414,188.623611 79.998985,189.006317 
	C79.998985,189.006317 79.937325,189.093491 80.145294,189.695679 
	C80.756310,189.833618 81.367332,189.971542 81.996689,190.010620 
	C81.996689,190.010620 81.947815,190.098480 82.144234,190.694824 
	C82.743118,190.749176 83.342003,190.803528 84.604507,191.130402 
	C90.879395,195.031784 96.930313,199.380005 103.508080,202.677139 
	C107.876305,204.866714 111.994720,210.427368 118.610672,205.878387 
	C119.110680,205.265274 119.610695,204.652176 120.746704,203.960510 
	C121.496742,203.595734 122.246780,203.230957 123.602524,202.872269 
	C124.101570,202.261749 124.600616,201.651230 125.738770,200.961243 
	C126.492546,200.593628 127.246330,200.226013 128.603317,199.861404 
	C129.100098,199.252853 129.596878,198.644302 130.734619,197.965149 
	C131.488525,197.598709 132.242447,197.232269 133.656387,196.822037 
	C134.817764,195.898499 135.979141,194.974945 137.578888,193.966400 
	C137.578888,193.966400 138.004715,193.832001 138.658936,193.774216 
	C139.808945,192.862427 140.958954,191.950653 142.746704,190.964462 
	C143.496613,190.598267 144.246536,190.232071 145.658386,189.820969 
	C146.823074,188.900131 147.987762,187.979294 149.582642,186.968674 
	C149.582642,186.968674 150.001129,186.834473 150.656586,186.780014 
	C151.807510,185.866623 152.958420,184.953232 154.748840,183.964401 
	C155.499512,183.593994 156.250198,183.223587 157.595444,182.843262 
	C158.075714,182.240814 158.555984,181.638367 159.689789,180.950882 
	C160.462372,180.572754 161.234955,180.194611 162.662186,179.773514 
	C163.821548,178.866394 164.980911,177.959259 166.577042,176.966705 
	C166.577042,176.966705 167.000839,176.830795 167.691345,176.747375 
	C173.500107,172.830200 179.308868,168.913025 185.897690,164.934357 
	C190.227264,164.159607 188.554291,160.531769 189.750137,157.650711 
	C189.775421,156.780869 189.800690,155.911026 189.981964,154.534393 
	C190.019287,154.361618 190.056610,154.188858 190.748383,153.778000 
	C190.779694,152.861099 190.811005,151.944214 190.994370,150.333252 
	C190.692169,149.522079 190.389969,148.710892 190.017517,147.116806 
	C190.043945,144.429489 190.070358,141.742172 190.680725,138.784546 
	C190.851257,137.863083 191.021774,136.941635 191.016434,135.180984 
	C191.099167,133.761871 191.181900,132.342743 191.810638,130.552475 
	C191.882812,129.453186 191.955002,128.353897 192.721542,126.941040 
	C192.804993,125.744873 192.888428,124.548698 193.009338,122.466469 
	C192.934738,120.419144 192.860138,118.371811 192.940338,115.506775 
	C192.991486,114.687149 193.042633,113.867523 193.753479,112.768555 
	C193.522537,111.482727 193.291595,110.196907 193.007736,108.089775 
	C193.060699,106.721725 193.113678,105.353676 193.738297,103.647064 
	C193.863586,102.771339 193.988861,101.895622 194.791962,100.708412 
	C194.815674,99.453232 194.839401,98.198044 194.936020,96.446228 
	C194.660431,96.293503 194.384842,96.140778 194.009506,95.192947 
	C194.068665,94.129730 194.127823,93.066521 194.741913,91.645393 
	C194.771133,90.773811 194.800354,89.902229 194.969315,88.566559 
	C194.969315,88.566559 195.049210,88.088516 195.762115,87.799789 
	C195.525742,86.186005 195.289368,84.572212 194.999496,82.458626 
	C194.949692,82.298920 194.899887,82.139221 194.985168,81.285553 
	C195.260132,80.201942 195.535080,79.118332 196.083099,77.338150 
	C197.294266,75.701706 198.097092,74.198448 195.071472,73.359604 
	C195.466446,72.891914 195.861420,72.424225 196.952225,71.619957 
	C198.209213,67.337700 199.582886,63.046051 195.322800,59.062950 
	C194.904892,59.110092 194.486969,59.157234 193.385666,59.053761 
	C192.922272,59.014351 192.458862,58.974941 191.998566,58.999626 
	C191.998566,58.999626 192.060669,58.983521 191.842667,58.429951 
z"/>
<path fill="#B0B2B1" opacity="1.000000" stroke="none" 
	d="
M33.951221,59.032021 
	C41.725452,57.000027 49.518734,55.037785 57.269783,52.920921 
	C71.592552,49.009285 86.026398,45.430748 100.153954,40.902287 
	C110.593262,37.556065 120.229759,39.942070 130.136627,42.543728 
	C148.868912,47.463032 167.650909,52.192932 186.408096,57.017651 
	C187.500427,57.298618 188.555801,57.723228 190.028900,58.677589 
	C189.667923,60.108326 189.062714,61.298836 188.117233,61.713516 
	C184.460663,63.317261 180.695602,64.673637 176.574249,66.048157 
	C174.261368,66.426430 172.292404,66.723701 170.437469,67.355690 
	C156.480118,72.110977 142.321594,76.380325 128.675308,81.910400 
	C118.090370,86.199875 108.173454,87.302162 97.947746,81.694443 
	C97.111809,81.236023 96.044250,81.199966 94.792641,80.755119 
	C82.673531,76.437042 70.846100,72.331512 58.666512,68.120575 
	C54.256340,66.989021 50.198322,65.962875 46.014786,64.613373 
	C44.924625,63.841854 43.959980,63.393681 42.627373,62.899124 
	C40.471882,62.236488 38.684353,61.620232 36.751884,60.732613 
	C35.721706,59.984840 34.836464,59.508430 33.951221,59.032021 
M145.099930,71.301613 
	C145.194061,71.344093 145.288177,71.386566 145.382309,71.429039 
	C145.266693,71.276405 145.151077,71.123772 145.028336,70.283707 
	C144.697159,69.670326 144.365997,69.056938 144.034821,68.443565 
	C143.746017,68.733330 143.457214,69.023087 143.168411,69.312843 
	C143.771317,69.884872 144.374222,70.456909 145.099930,71.301613 
M137.439636,55.490265 
	C138.269424,55.176003 139.099213,54.861736 139.929016,54.547474 
	C122.826714,53.974403 105.825584,53.931625 88.825569,54.049088 
	C87.336555,54.059376 85.854797,55.121044 84.369675,55.694366 
	C84.562019,55.905544 84.754356,56.116722 84.946701,56.327904 
	C86.643936,56.242348 88.341179,56.156792 90.008591,56.525635 
	C90.008591,56.525635 90.106247,56.970417 89.919586,57.758976 
	C89.263763,61.547939 88.607948,65.336899 88.023186,69.928490 
	C89.128693,70.618050 90.211685,71.863731 91.343262,71.909554 
	C100.740677,72.290100 110.147781,72.623489 119.550354,72.584457 
	C123.041100,72.569969 126.527557,71.525360 130.882050,71.017815 
	C137.311234,71.428444 139.325256,70.271553 138.817581,66.164009 
	C138.436798,63.083076 137.628815,60.054935 137.094589,56.493694 
	C137.065384,56.324059 137.036179,56.154427 137.439636,55.490265 
M142.155304,64.447945 
	C142.576263,64.740555 142.997238,65.033165 143.418213,65.325768 
	C143.529892,64.887062 143.641571,64.448357 143.753235,64.009651 
	C143.260773,63.960411 142.768326,63.911167 142.155304,64.447945 
M142.276169,60.464378 
	C142.386932,59.901173 142.497696,59.337971 142.608459,58.774765 
	C142.209564,58.768337 141.810654,58.761909 141.411758,58.755478 
	C141.506317,59.321930 141.600861,59.888386 142.276169,60.464378 
z"/>
<path fill="#EBF0EC" opacity="1.000000" stroke="none" 
	d="
M31.178410,74.945740 
	C30.812216,72.283348 30.446024,69.620956 30.498383,66.531174 
	C31.577711,65.135139 32.238491,64.166496 32.965210,63.101200 
	C57.391296,71.850700 81.785301,80.667450 106.255836,89.266403 
	C109.790665,90.508545 111.000450,92.149147 110.987572,95.977600 
	C110.870377,130.806656 110.992569,165.636490 111.034355,200.466125 
	C111.035248,201.208206 110.912292,201.950455 110.801003,203.217545 
	C108.731766,202.045746 107.164223,201.188736 105.625847,200.282227 
	C84.973175,188.112411 64.337395,175.913773 43.650524,163.802414 
	C42.001114,162.836746 40.005367,162.462646 38.170567,161.813644 
	C38.129349,160.498260 38.088131,159.182892 38.398048,157.297379 
	C38.503891,155.557083 38.258595,154.386902 38.013298,153.216736 
	C37.350414,145.804779 36.687531,138.392838 35.975349,130.162659 
	C35.671150,128.214279 35.416252,127.084099 35.161350,125.953926 
	C35.105755,125.511742 35.050163,125.069557 35.395020,124.163162 
	C35.876835,122.798401 35.958199,121.897850 36.104237,120.604431 
	C35.819912,118.523926 35.470909,116.836296 34.886978,115.076492 
	C34.652046,115.004326 34.163666,114.948753 34.163666,114.948753 
	C34.106674,113.882652 34.049679,112.816544 34.390079,111.148148 
	C34.841919,109.030014 34.896366,107.514160 34.995667,105.658638 
	C34.724602,104.573074 34.408695,103.827187 33.869766,103.019165 
	C33.646744,102.957031 33.184361,102.932602 33.184361,102.932602 
	C33.122288,101.217560 33.060215,99.502510 33.393433,97.161804 
	C33.522469,94.744736 33.256214,92.953323 32.989964,91.161911 
	C32.702202,88.368294 32.414440,85.574677 32.056446,82.388809 
	C31.986212,81.996552 31.986376,82.068481 32.361359,81.973312 
	C32.495968,80.293304 32.255592,78.708458 32.015427,76.807594 
	C31.736561,75.976295 31.457485,75.461021 31.178410,74.945740 
M85.102295,150.427917 
	C85.393982,159.911911 85.652489,169.397202 86.018257,178.878342 
	C86.065361,180.099457 86.284538,181.920197 87.075584,182.409256 
	C92.774628,185.932678 98.641762,189.184235 104.761902,192.697830 
	C104.965256,191.270599 105.099960,190.779205 105.095894,190.288956 
	C104.847557,160.319153 104.638168,130.348694 104.180000,100.382019 
	C104.157181,98.889412 102.261742,96.681770 100.734245,96.074211 
	C89.156387,91.469170 77.452400,87.181267 65.788223,82.793221 
	C56.384865,79.255684 46.982151,75.716431 37.124577,72.006874 
	C37.394493,75.203476 37.633312,77.675346 37.807667,80.151764 
	C39.549221,104.887520 41.257961,129.625671 43.076023,154.355789 
	C43.172539,155.668655 43.815357,157.463821 44.804470,158.098633 
	C49.219059,160.931854 53.851921,163.424973 58.905857,166.328094 
	C57.751518,145.432465 56.645000,125.402428 55.530170,105.221992 
	C59.610184,105.484016 60.668468,107.428345 60.805023,110.808952 
	C61.503677,128.105453 62.342644,145.397324 63.315205,162.680527 
	C63.454609,165.157837 63.803715,168.616882 65.409225,169.829300 
	C69.975021,173.277222 75.240829,175.798187 80.855713,179.045227 
	C80.141846,157.269577 79.455627,136.337250 78.764740,115.262573 
	C82.881454,115.822189 84.306488,117.449196 84.322212,120.993530 
	C84.364288,130.478516 84.796333,139.961761 85.102295,150.427917 
z"/>
<path fill="#EBF0EC" opacity="1.000000" stroke="none" 
	d="
M193.166641,103.985626 
	C193.113678,105.353676 193.060699,106.721725 192.977356,108.894867 
	C192.962021,110.496559 192.977081,111.293175 192.609726,112.195747 
	C192.082474,113.614838 191.937653,114.927956 191.606232,116.572372 
	C191.313644,118.952217 191.207642,121.000778 191.049591,123.421478 
	C191.033356,124.539841 191.069153,125.286064 191.014145,126.435608 
	C191.037109,128.200500 191.150864,129.562057 191.264618,130.923630 
	C191.181900,132.342743 191.099167,133.761871 190.735168,135.677795 
	C190.334854,137.134705 190.215820,138.094772 190.096771,139.054855 
	C190.070358,141.742172 190.043945,144.429489 189.999435,147.774521 
	C189.987564,148.613297 189.993790,148.794357 189.675095,149.116669 
	C189.260147,150.178268 189.170105,151.098602 189.004578,152.386230 
	C188.959793,153.499908 188.990540,154.246277 188.970154,155.369476 
	C189.010208,156.498337 189.101364,157.250412 189.192505,158.002472 
	C188.554291,160.531769 190.227264,164.159607 185.110031,164.871246 
	C178.111099,168.154404 171.899826,171.500641 165.359695,174.923492 
	C159.730957,178.108505 154.431076,181.216919 148.860062,184.451111 
	C147.212753,185.426514 145.836594,186.276169 144.127930,187.231689 
	C142.185669,188.291779 140.575928,189.245987 138.740585,190.247681 
	C138.243500,190.459564 138.039108,190.684891 137.576279,191.055817 
	C135.526535,192.182709 133.802322,193.224869 131.776581,194.371826 
	C128.566818,196.543808 125.658600,198.610962 122.716278,200.699326 
	C122.682175,200.720535 122.604858,200.742264 122.274551,200.509506 
	C120.031090,201.149521 118.117935,202.022293 116.009552,202.984131 
	C115.862640,201.943039 115.690170,201.294815 115.691353,200.646912 
	C115.756065,165.229538 115.876740,129.812149 115.839935,94.394913 
	C115.836754,91.333221 117.302132,90.570267 119.729164,89.724197 
	C138.535278,83.168297 157.293259,76.474434 176.071533,69.838493 
	C182.257919,67.652313 188.460144,65.510887 194.494232,63.405151 
	C195.162201,66.646652 195.709305,69.301598 196.256409,71.956543 
	C195.861420,72.424225 195.466446,72.891914 194.759552,73.878906 
	C194.901749,75.610390 195.355896,76.822556 195.810043,78.034721 
	C195.535080,79.118332 195.260132,80.201942 194.625015,81.807053 
	C194.216721,83.227531 194.168579,84.126526 194.042542,85.417618 
	C193.987854,86.870071 194.011047,87.930412 193.980972,89.367432 
	C194.014114,90.497169 194.100540,91.250237 194.186981,92.003304 
	C194.127823,93.066521 194.068665,94.129730 193.715149,95.706390 
	C193.318039,97.154114 193.215256,98.088379 193.021347,99.433121 
	C193.009018,101.224266 193.087830,102.604950 193.166641,103.985626 
M123.706573,191.918900 
	C128.198563,189.382568 132.587128,186.633102 137.219315,184.385742 
	C140.248154,182.916260 141.015381,180.916473 141.070709,177.719315 
	C141.390747,159.230850 141.982605,140.747253 142.382217,122.259850 
	C142.462982,118.523323 143.235184,115.681358 148.195297,115.674286 
	C147.519135,136.636414 146.843246,157.590118 146.145630,179.217407 
	C150.010513,177.041473 152.885361,174.916077 156.105164,173.716766 
	C162.602264,171.296753 164.059509,166.787613 164.167984,160.225754 
	C164.437668,143.912674 165.547958,127.612534 166.391891,111.310883 
	C166.523209,108.774132 166.182709,105.580460 171.455765,106.260841 
	C170.461655,126.066689 169.466400,145.895447 168.431992,166.504272 
	C172.901596,164.025543 176.722321,161.761246 180.678619,159.765686 
	C183.158157,158.514984 184.175903,156.893600 184.368149,154.013184 
	C185.754486,133.242401 187.376373,112.487450 188.883072,91.724548 
	C189.334961,85.497528 189.658218,79.261192 190.056946,72.759315 
	C188.805634,72.965942 188.125778,72.970985 187.526062,73.192757 
	C166.780106,80.864441 146.017654,88.493561 125.354118,96.381729 
	C123.912209,96.932175 122.428040,99.368950 122.309265,101.025055 
	C121.904861,106.663879 122.089218,112.345917 122.074333,118.011520 
	C122.010429,142.331680 121.955627,166.651871 121.764160,191.466187 
	C122.180489,191.654800 122.596825,191.843430 123.706573,191.918900 
z"/>
<path fill="#3AB85E" opacity="1.000000" stroke="none" 
	d="
M196.604309,71.788254 
	C195.709305,69.301598 195.162201,66.646652 194.494232,63.405151 
	C188.460144,65.510887 182.257919,67.652313 176.071533,69.838493 
	C157.293259,76.474434 138.535278,83.168297 119.729164,89.724197 
	C117.302132,90.570267 115.836754,91.333221 115.839935,94.394913 
	C115.876740,129.812149 115.756065,165.229538 115.691353,200.646912 
	C115.690170,201.294815 115.862640,201.943039 116.009552,202.984131 
	C118.117935,202.022293 120.031090,201.149521 122.434303,200.840240 
	C122.948524,201.891205 122.972672,202.378708 122.996819,202.866196 
	C122.246780,203.230957 121.496742,203.595734 120.114319,204.023987 
	C118.989365,204.669830 118.496803,205.252182 118.004242,205.834534 
	C111.994720,210.427368 107.876305,204.866714 103.508080,202.677139 
	C96.930313,199.380005 90.879395,195.031784 84.139450,190.637726 
	C83.098869,190.129517 82.523346,190.113998 81.947815,190.098480 
	C81.947815,190.098480 81.996689,190.010620 82.025940,189.613556 
	C81.349236,189.175491 80.643280,189.134491 79.937325,189.093506 
	C79.937325,189.093491 79.998985,189.006317 80.227440,188.693283 
	C79.279175,187.946671 78.102463,187.513077 76.925751,187.079483 
	C76.925751,187.079483 76.990555,187.027710 77.021072,186.621063 
	C76.347153,186.174652 75.642731,186.134918 74.938301,186.095169 
	C74.938301,186.095169 74.995735,186.011200 75.239182,185.703339 
	C74.296341,184.956100 73.110069,184.516739 71.923798,184.077393 
	C71.923790,184.077393 72.000710,184.005615 72.173363,183.714691 
	C68.872391,181.631699 65.398758,179.839630 61.925133,178.047562 
	C55.198963,174.006241 48.441132,170.015991 41.772957,165.881165 
	C40.416466,165.040024 39.397579,163.654449 38.196812,162.166748 
	C40.005367,162.462646 42.001114,162.836746 43.650524,163.802414 
	C64.337395,175.913773 84.973175,188.112411 105.625847,200.282227 
	C107.164223,201.188736 108.731766,202.045746 110.801003,203.217545 
	C110.912292,201.950455 111.035248,201.208206 111.034355,200.466125 
	C110.992569,165.636490 110.870377,130.806656 110.987572,95.977600 
	C111.000450,92.149147 109.790665,90.508545 106.255836,89.266403 
	C81.785301,80.667450 57.391296,71.850700 32.965210,63.101200 
	C32.238491,64.166496 31.577711,65.135139 30.542828,66.128052 
	C29.979258,63.690903 26.652122,60.724220 31.758480,59.477238 
	C33.767990,60.275036 35.332405,60.639503 36.896824,61.003975 
	C38.684353,61.620232 40.471882,62.236488 42.692711,63.251865 
	C44.130768,64.079559 45.135536,64.508141 46.140301,64.936722 
	C50.198322,65.962875 54.256340,66.989021 58.734138,68.457275 
	C66.162445,71.664200 73.111588,74.594826 80.201050,77.133659 
	C84.684105,78.739098 89.376503,79.759949 94.140198,81.360107 
	C100.504715,83.937820 106.682320,86.262222 112.926933,88.389915 
	C113.859024,88.707504 115.158684,88.254799 116.199280,87.898483 
	C128.751114,83.600502 141.316010,79.337349 153.814713,74.888680 
	C161.588699,72.121689 169.255859,69.054573 176.970963,66.122162 
	C180.695602,64.673637 184.460663,63.317261 188.117233,61.713516 
	C189.062714,61.298836 189.667923,60.108326 190.334778,58.887501 
	C190.240097,58.500816 190.454620,58.676888 190.849915,58.893303 
	C191.517029,59.067654 191.788849,59.025589 192.060669,58.983521 
	C192.060669,58.983521 191.998566,58.999626 192.063538,59.260635 
	C192.704376,59.658630 193.280258,59.795624 194.150970,59.933834 
	C194.946899,59.675858 195.447968,59.416668 195.949051,59.157482 
	C199.582886,63.046051 198.209213,67.337700 196.604309,71.788254 
z"/>
<path fill="#3DB961" opacity="1.000000" stroke="none" 
	d="
M165.688553,174.846893 
	C171.899826,171.500641 178.111099,168.154404 184.720001,164.901993 
	C179.308868,168.913025 173.500107,172.830200 167.294662,176.477509 
	C166.494843,175.754044 166.091690,175.300476 165.688553,174.846893 
z"/>
<path fill="#3AB85E" opacity="1.000000" stroke="none" 
	d="
M165.359695,174.923492 
	C166.091690,175.300476 166.494843,175.754044 166.949402,176.519211 
	C167.000839,176.830795 166.577042,176.966705 166.012253,177.023743 
	C164.300827,177.992676 163.154190,178.904572 162.007538,179.816467 
	C161.234955,180.194611 160.462372,180.572754 159.055176,181.023666 
	C157.947342,181.682037 157.474106,182.267609 157.000870,182.853180 
	C156.250198,183.223587 155.499512,183.593994 154.076263,184.022430 
	C152.277664,184.395142 151.151672,184.709824 149.813354,184.835266 
	C149.444427,184.539124 149.287811,184.432236 149.131195,184.325348 
	C154.431076,181.216919 159.730957,178.108505 165.359695,174.923492 
z"/>
<path fill="#3AB85E" opacity="1.000000" stroke="none" 
	d="
M132.078125,194.267029 
	C133.802322,193.224869 135.526535,192.182709 137.790817,190.984009 
	C138.608078,190.684631 138.819839,190.475540 138.966171,190.200211 
	C140.575928,189.245987 142.185669,188.291779 144.243164,187.465912 
	C144.796844,187.732315 144.902817,187.870346 145.004974,188.317917 
	C144.999573,189.040268 144.998001,189.453064 144.996429,189.865875 
	C144.246536,190.232071 143.496613,190.598267 142.082916,191.021301 
	C140.281006,191.996109 139.142853,192.914062 138.004715,193.832001 
	C138.004715,193.832001 137.578888,193.966400 137.003525,194.024719 
	C135.289719,194.392761 134.151276,194.702499 132.791748,194.810150 
	C132.406479,194.494385 132.242294,194.380707 132.078125,194.267029 
z"/>
<path fill="#3AB85E" opacity="1.000000" stroke="none" 
	d="
M122.750381,200.678131 
	C125.658600,198.610962 128.566818,196.543808 131.776581,194.371826 
	C132.242294,194.380707 132.406479,194.494385 132.786407,195.118942 
	C133.000214,196.041824 132.998291,196.453827 132.996368,196.865845 
	C132.242447,197.232269 131.488525,197.598709 130.099731,198.028152 
	C128.976578,198.680237 128.488342,199.269318 128.000107,199.858398 
	C127.246330,200.226013 126.492546,200.593628 124.832184,200.908447 
	C123.533859,200.796494 123.142120,200.737320 122.750381,200.678131 
z"/>
<path fill="#F1F8F3" opacity="1.000000" stroke="none" 
	d="
M62.038994,178.381866 
	C65.398758,179.839630 68.872391,181.631699 72.141563,183.756760 
	C68.675697,182.298553 65.414276,180.507355 62.038994,178.381866 
z"/>
<path fill="#66C37E" opacity="1.000000" stroke="none" 
	d="
M191.101624,123.049339 
	C191.207642,121.000778 191.313644,118.952217 191.857971,116.553719 
	C192.459381,116.244011 192.622467,116.284248 192.785553,116.324486 
	C192.860138,118.371811 192.934738,120.419144 192.675400,122.869354 
	C191.928177,123.197945 191.514908,123.123642 191.101624,123.049339 
z"/>
<path fill="#CAE4D0" opacity="1.000000" stroke="none" 
	d="
M195.946564,77.686432 
	C195.355896,76.822556 194.901749,75.610390 194.716400,74.185158 
	C198.097092,74.198448 197.294266,75.701706 195.946564,77.686432 
z"/>
<path fill="#3AB85E" opacity="1.000000" stroke="none" 
	d="
M144.575653,187.360046 
	C145.836594,186.276169 147.212753,185.426514 148.860077,184.451111 
	C149.287811,184.432236 149.444427,184.539124 149.804932,185.136597 
	C150.006271,186.029602 150.003693,186.432037 150.001129,186.834473 
	C150.001129,186.834473 149.582642,186.968674 149.010101,187.026184 
	C147.294647,187.391907 146.151718,187.700150 145.008804,188.008377 
	C144.902817,187.870346 144.796844,187.732315 144.575653,187.360046 
z"/>
<path fill="#23B34F" opacity="1.000000" stroke="none" 
	d="
M191.049591,123.421478 
	C191.514908,123.123642 191.928177,123.197945 192.656677,123.312393 
	C192.888428,124.548698 192.804993,125.744873 192.263397,126.861961 
	C191.571808,126.532684 191.338379,126.282486 191.104950,126.032288 
	C191.069153,125.286064 191.033356,124.539841 191.049591,123.421478 
z"/>
<path fill="#3BB75E" opacity="1.000000" stroke="none" 
	d="
M36.751884,60.732613 
	C35.332405,60.639503 33.767990,60.275036 32.103352,59.571072 
	C32.435242,59.183804 32.867355,59.136036 33.625343,59.060143 
	C34.836464,59.508430 35.721706,59.984840 36.751884,60.732613 
z"/>
<path fill="#3DB961" opacity="1.000000" stroke="none" 
	d="
M145.004974,188.317917 
	C146.151718,187.700150 147.294647,187.391907 148.795013,187.071075 
	C147.987762,187.979294 146.823074,188.900131 145.327408,189.843414 
	C144.998001,189.453064 144.999573,189.040268 145.004974,188.317917 
z"/>
<path fill="#3DB961" opacity="1.000000" stroke="none" 
	d="
M150.328857,186.807251 
	C150.003693,186.432037 150.006271,186.029602 150.017242,185.325836 
	C151.151672,184.709824 152.277664,184.395142 153.756500,184.060150 
	C152.958420,184.953232 151.807510,185.866623 150.328857,186.807251 
z"/>
<path fill="#34B658" opacity="1.000000" stroke="none" 
	d="
M35.121910,115.148666 
	C35.470909,116.836296 35.819912,118.523926 35.904060,120.600266 
	C35.639214,120.988968 35.239143,120.972290 35.239143,120.972290 
	C35.168896,120.235764 35.098648,119.499245 35.016216,118.035118 
	C35.043327,116.587898 35.082619,115.868286 35.121910,115.148666 
z"/>
<path fill="#3DB961" opacity="1.000000" stroke="none" 
	d="
M162.334869,179.794983 
	C163.154190,178.904572 164.300827,177.992676 165.793869,177.066437 
	C164.980911,177.959259 163.821548,178.866394 162.334869,179.794983 
z"/>
<path fill="#3DB961" opacity="1.000000" stroke="none" 
	d="
M138.331818,193.803101 
	C139.142853,192.914062 140.281006,191.996109 141.764053,191.058517 
	C140.958954,191.950653 139.808945,192.862427 138.331818,193.803101 
z"/>
<path fill="#3DB961" opacity="1.000000" stroke="none" 
	d="
M133.326385,196.843933 
	C132.998291,196.453827 133.000214,196.041824 133.007492,195.321014 
	C134.151276,194.702499 135.289719,194.392761 136.784332,194.067215 
	C135.979141,194.974945 134.817764,195.898499 133.326385,196.843933 
z"/>
<path fill="#17B148" opacity="1.000000" stroke="none" 
	d="
M32.997311,91.576553 
	C33.256214,92.953323 33.522469,94.744736 33.474201,96.739029 
	C33.108006,95.291664 33.056332,93.641426 32.997311,91.576553 
z"/>
<path fill="#2CB454" opacity="1.000000" stroke="none" 
	d="
M34.950817,105.998314 
	C34.896366,107.514160 34.841919,109.030014 34.469215,110.754044 
	C34.108517,109.579254 34.066078,108.196274 33.950787,106.368301 
	C33.877934,105.923309 33.917450,105.868629 34.174057,105.914871 
	C34.604046,105.973511 34.777431,105.985909 34.950817,105.998314 
z"/>
<path fill="#00AD3C" opacity="1.000000" stroke="none" 
	d="
M191.014145,126.435608 
	C191.338379,126.282486 191.571808,126.532684 191.916199,127.018738 
	C191.955002,128.353897 191.882812,129.453186 191.537628,130.738052 
	C191.150864,129.562057 191.037109,128.200500 191.014145,126.435608 
z"/>
<path fill="#28B351" opacity="1.000000" stroke="none" 
	d="
M190.388748,138.919708 
	C190.215820,138.094772 190.334854,137.134705 190.823090,136.097397 
	C191.021774,136.941635 190.851257,137.863083 190.388748,138.919708 
z"/>
<path fill="#F1F8F3" opacity="1.000000" stroke="none" 
	d="
M72.029999,184.388275 
	C73.110069,184.516739 74.296341,184.956100 75.203110,185.739044 
	C73.994461,185.621475 73.065323,185.160339 72.029999,184.388275 
z"/>
<path fill="#F1F8F3" opacity="1.000000" stroke="none" 
	d="
M77.031807,187.390350 
	C78.102463,187.513077 79.279175,187.946671 80.191544,188.732529 
	C78.997414,188.623611 78.067635,188.162415 77.031807,187.390350 
z"/>
<path fill="#86CD98" opacity="1.000000" stroke="none" 
	d="
M195.052994,82.958427 
	C195.289368,84.572212 195.525742,86.186005 195.340881,87.567772 
	C194.908005,86.573662 194.896378,85.811577 194.938019,84.703171 
	C195.011887,83.890717 195.032440,83.424576 195.052994,82.958427 
z"/>
<path fill="#00AD3C" opacity="1.000000" stroke="none" 
	d="
M193.452469,103.816345 
	C193.087830,102.604950 193.009018,101.224266 193.210724,99.430573 
	C193.491241,99.017555 193.869720,99.033485 193.921783,99.363617 
	C194.020630,100.135796 194.067383,100.577850 194.114151,101.019897 
	C193.988861,101.895622 193.863586,102.771339 193.452469,103.816345 
z"/>
<path fill="#28B351" opacity="1.000000" stroke="none" 
	d="
M193.869720,99.033485 
	C193.869720,99.033485 193.491241,99.017555 193.301865,99.020103 
	C193.215256,98.088379 193.318039,97.154114 193.765030,96.103943 
	C194.384842,96.140778 194.660431,96.293503 194.677078,96.894485 
	C194.235336,97.906326 194.052521,98.469902 193.869720,99.033485 
z"/>
<path fill="#00AD3C" opacity="1.000000" stroke="none" 
	d="
M194.884735,85.049484 
	C194.896378,85.811577 194.908005,86.573662 194.984421,87.712135 
	C195.049210,88.088516 194.969315,88.566559 194.701004,88.782562 
	C194.432693,88.998558 194.034256,88.990753 194.034256,88.990753 
	C194.011047,87.930412 193.987854,86.870071 194.233948,85.413063 
	C194.503250,85.016396 194.884750,85.049484 194.884735,85.049484 
z"/>
<path fill="#3DB961" opacity="1.000000" stroke="none" 
	d="
M37.998741,153.603851 
	C38.258595,154.386902 38.503891,155.557083 38.456886,156.906509 
	C38.104454,156.054169 38.044323,155.022552 37.998741,153.603851 
z"/>
<path fill="#90CFA1" opacity="1.000000" stroke="none" 
	d="
M31.122532,75.352531 
	C31.457485,75.461021 31.736561,75.976295 32.062241,77.130470 
	C32.038174,78.194084 31.967505,78.618813 31.709724,79.028389 
	C31.522614,79.013245 31.147354,79.025047 31.147354,79.025047 
	C31.120453,77.936470 31.093554,76.847900 31.122532,75.352531 
z"/>
<path fill="#86CD98" opacity="1.000000" stroke="none" 
	d="
M35.109039,126.331726 
	C35.416252,127.084099 35.671150,128.214279 35.905869,129.713715 
	C35.609371,128.958481 35.333050,127.834000 35.109039,126.331726 
z"/>
<path fill="#AEDBBA" opacity="1.000000" stroke="none" 
	d="
M193.921783,99.363617 
	C194.052521,98.469902 194.235336,97.906326 194.640625,97.142807 
	C194.839401,98.198044 194.815674,99.453232 194.453064,100.864151 
	C194.067383,100.577850 194.020630,100.135796 193.921783,99.363617 
z"/>
<path fill="#90CFA1" opacity="1.000000" stroke="none" 
	d="
M192.992126,112.089783 
	C192.977081,111.293175 192.962021,110.496559 193.003815,109.305511 
	C193.291595,110.196907 193.522537,111.482727 193.375320,112.671066 
	C192.997162,112.573586 192.992126,112.089783 192.992126,112.089783 
z"/>
<path fill="#00AD3C" opacity="1.000000" stroke="none" 
	d="
M192.609711,112.195747 
	C192.992126,112.089783 192.997162,112.573586 193.045471,112.810745 
	C193.042633,113.867523 192.991486,114.687149 192.862946,115.915634 
	C192.622467,116.284248 192.459381,116.244011 192.044556,116.222427 
	C191.937653,114.927956 192.082474,113.614838 192.609711,112.195747 
z"/>
<path fill="#3DB961" opacity="1.000000" stroke="none" 
	d="
M118.307457,205.856461 
	C118.496803,205.252182 118.989365,204.669830 119.796310,204.063278 
	C119.610695,204.652176 119.110680,205.265274 118.307457,205.856461 
z"/>
<path fill="#3DB961" opacity="1.000000" stroke="none" 
	d="
M128.301712,199.859894 
	C128.488342,199.269318 128.976578,198.680237 129.779236,198.063446 
	C129.596878,198.644302 129.100098,199.252853 128.301712,199.859894 
z"/>
<path fill="#3DB961" opacity="1.000000" stroke="none" 
	d="
M157.298157,182.848221 
	C157.474106,182.267609 157.947342,181.682037 158.728409,181.066177 
	C158.555984,181.638367 158.075714,182.240814 157.298157,182.848221 
z"/>
<path fill="#CAE4D0" opacity="1.000000" stroke="none" 
	d="
M31.086037,79.383545 
	C31.147354,79.025047 31.522614,79.013245 31.747463,79.405197 
	C31.976999,80.554253 31.981688,81.311371 31.986376,82.068481 
	C31.986376,82.068481 31.986212,81.996552 32.020420,81.986969 
	C31.711325,81.232277 31.368023,80.487167 31.086037,79.383545 
z"/>
<path fill="#2CB454" opacity="1.000000" stroke="none" 
	d="
M194.938034,84.703171 
	C194.884750,85.049484 194.503250,85.016396 194.311859,85.020950 
	C194.168579,84.126526 194.216721,83.227531 194.557465,82.154030 
	C194.899887,82.139221 194.949692,82.298920 195.026245,82.708527 
	C195.032440,83.424576 195.011887,83.890717 194.938034,84.703171 
z"/>
<path fill="#3DB961" opacity="1.000000" stroke="none" 
	d="
M122.716278,200.699341 
	C123.142120,200.737320 123.533859,200.796494 124.512634,200.948181 
	C124.600616,201.651230 124.101570,202.261749 123.299667,202.869232 
	C122.972672,202.378708 122.948524,201.891205 122.764618,201.072998 
	C122.604858,200.742264 122.682175,200.720535 122.716278,200.699341 
z"/>
<path fill="#00AD3C" opacity="1.000000" stroke="none" 
	d="
M189.021271,154.992661 
	C188.990540,154.246277 188.959793,153.499908 189.202423,152.383224 
	C189.475784,152.012924 189.871048,152.034058 189.921692,152.363129 
	C190.012863,153.133484 190.053406,153.574799 190.093933,154.016098 
	C190.056610,154.188858 190.019287,154.361618 189.703308,154.768250 
	C189.424652,155.002090 189.021271,154.992661 189.021271,154.992661 
z"/>
<path fill="#96D3A6" opacity="1.000000" stroke="none" 
	d="
M34.886978,115.076492 
	C35.082619,115.868286 35.043327,116.587898 34.971710,117.667366 
	C34.641468,117.238907 34.343548,116.450592 34.104645,115.305519 
	C34.163666,114.948753 34.652046,115.004326 34.886978,115.076492 
z"/>
<path fill="#A6D8B3" opacity="1.000000" stroke="none" 
	d="
M33.118782,103.285049 
	C33.184361,102.932602 33.646744,102.957031 33.823669,103.366753 
	C33.972881,104.473862 33.945164,105.171242 33.917450,105.868629 
	C33.917450,105.868629 33.877934,105.923309 33.887714,105.955437 
	C33.616062,105.204208 33.334633,104.420860 33.118782,103.285049 
z"/>
<path fill="#2CB454" opacity="1.000000" stroke="none" 
	d="
M35.151283,121.342056 
	C35.239143,120.972290 35.639214,120.988968 35.839386,120.993134 
	C35.958199,121.897850 35.876835,122.798401 35.472023,123.835213 
	C35.120190,123.218262 35.091805,122.465034 35.151283,121.342056 
z"/>
<path fill="#2CB454" opacity="1.000000" stroke="none" 
	d="
M188.970154,155.369476 
	C189.021271,154.992661 189.424652,155.002090 189.625305,155.021637 
	C189.800690,155.911026 189.775421,156.780869 189.471329,157.826599 
	C189.101364,157.250412 189.010208,156.498337 188.970154,155.369476 
z"/>
<path fill="#BCDFC5" opacity="1.000000" stroke="none" 
	d="
M190.421158,153.897049 
	C190.053406,153.574799 190.012863,153.133484 190.002960,152.123077 
	C190.073166,151.389786 190.112762,151.225601 190.324402,151.043610 
	C190.496429,151.025803 190.842331,151.027313 190.842331,151.027313 
	C190.811005,151.944214 190.779694,152.861099 190.421158,153.897049 
z"/>
<path fill="#90CFA1" opacity="1.000000" stroke="none" 
	d="
M190.918350,150.680283 
	C190.842331,151.027313 190.496429,151.025803 190.257965,150.699677 
	C190.013000,149.907501 190.006500,149.441467 190.000000,148.975418 
	C189.993790,148.794357 189.987564,148.613297 190.034561,148.165985 
	C190.389969,148.710892 190.692169,149.522079 190.918350,150.680283 
z"/>
<path fill="#28B351" opacity="1.000000" stroke="none" 
	d="
M193.980972,89.367432 
	C194.034256,88.990753 194.432693,88.998558 194.631134,89.014603 
	C194.800354,89.902229 194.771133,90.773811 194.464447,91.824348 
	C194.100540,91.250237 194.014114,90.497169 193.980972,89.367432 
z"/>
<path fill="#F1F8F3" opacity="1.000000" stroke="none" 
	d="
M75.042282,186.395996 
	C75.642731,186.134918 76.347153,186.174652 77.015091,186.662094 
	C76.367821,186.972137 75.757042,186.834488 75.042282,186.395996 
z"/>
<path fill="#3BB75E" opacity="1.000000" stroke="none" 
	d="
M195.635925,59.110214 
	C195.447968,59.416668 194.946899,59.675858 194.205658,59.752266 
	C193.965500,59.569485 194.069061,59.204380 194.069061,59.204380 
	C194.486969,59.157234 194.904892,59.110092 195.635925,59.110214 
z"/>
<path fill="#F1F8F3" opacity="1.000000" stroke="none" 
	d="
M80.041306,189.394592 
	C80.643280,189.134491 81.349236,189.175491 82.016769,189.662979 
	C81.367332,189.971542 80.756310,189.833618 80.041306,189.394592 
z"/>
<path fill="#F1F8F3" opacity="1.000000" stroke="none" 
	d="
M82.046021,190.396652 
	C82.523346,190.113998 83.098869,190.129517 83.807648,190.501450 
	C83.342003,190.803528 82.743118,190.749176 82.046021,190.396652 
z"/>
<path fill="#B0B2B1" opacity="1.000000" stroke="none" 
	d="
M193.727356,59.129070 
	C194.069061,59.204380 193.965500,59.569485 193.910812,59.751053 
	C193.280258,59.795624 192.704376,59.658630 192.061981,59.228588 
	C192.458862,58.974941 192.922272,59.014351 193.727356,59.129070 
z"/>
<path fill="#B0B2B1" opacity="1.000000" stroke="none" 
	d="
M191.951660,58.706734 
	C191.788849,59.025589 191.517029,59.067654 190.840027,59.031715 
	C190.904114,58.779125 191.373383,58.604538 191.951660,58.706734 
z"/>
<path fill="#288743" opacity="1.000000" stroke="none" 
	d="
M87.952133,69.125862 
	C88.607948,65.336899 89.263763,61.547939 90.201797,57.258804 
	C90.716904,56.573734 90.882256,56.340874 91.446747,55.999722 
	C101.276894,55.973698 110.640343,56.007999 120.001877,56.433163 
	C119.995224,57.866238 119.990494,58.908451 119.985184,60.398392 
	C119.983994,63.233318 119.983376,65.620522 119.751068,68.177139 
	C119.347458,68.880814 119.175537,69.415077 118.547150,70.002472 
	C114.718842,70.003860 111.346992,69.952126 107.893784,69.762619 
	C107.512146,69.408333 107.257675,69.470268 106.728882,69.641472 
	C106.553780,67.015205 106.880386,64.548813 106.755112,62.105579 
	C106.704483,61.118042 105.666679,60.181118 105.078102,59.221161 
	C104.233162,60.028278 102.856682,60.716595 102.644684,61.665173 
	C102.050095,64.325592 101.935951,67.093399 101.563690,70.434471 
	C96.707848,69.967636 92.329987,69.546745 87.952133,69.125862 
z"/>
<path fill="#288743" opacity="1.000000" stroke="none" 
	d="
M137.011032,57.003288 
	C137.628815,60.054935 138.436798,63.083076 138.817581,66.164009 
	C139.325256,70.271553 137.311234,71.428444 130.205231,70.662872 
	C127.793198,70.077057 126.057976,69.846176 124.027611,69.576035 
	C124.027611,66.126938 124.027611,63.011555 124.016754,59.511921 
	C124.002640,58.099529 123.999382,57.071388 124.454460,55.989517 
	C128.608826,55.958340 132.304871,55.980892 136.113113,56.221085 
	C136.428467,56.708691 136.690369,56.896877 137.011032,57.003288 
z"/>
<path fill="#A6AEA8" opacity="1.000000" stroke="none" 
	d="
M124.027611,59.896168 
	C124.027611,63.011555 124.027611,66.126938 124.027611,69.576035 
	C126.057976,69.846176 127.793198,70.077057 129.772202,70.629227 
	C126.527557,71.525360 123.041100,72.569969 119.550354,72.584457 
	C110.147781,72.623489 100.740677,72.290100 91.343262,71.909554 
	C90.211685,71.863731 89.128693,70.618050 87.987656,69.527176 
	C92.329987,69.546745 96.707848,69.967636 101.563690,70.434471 
	C101.935951,67.093399 102.050095,64.325592 102.644684,61.665173 
	C102.856682,60.716595 104.233162,60.028278 105.078102,59.221161 
	C105.666679,60.181118 106.704483,61.118042 106.755112,62.105579 
	C106.880386,64.548813 106.553780,67.015205 106.956055,69.708664 
	C107.503365,69.945038 107.975151,69.900391 107.975151,69.900391 
	C111.346992,69.952126 114.718842,70.003860 118.829018,70.023392 
	C119.705818,69.330025 119.844284,68.668869 119.982758,68.007721 
	C119.983376,65.620522 119.983994,63.233318 120.388885,60.360577 
	C121.871307,59.882080 122.949463,59.889126 124.027611,59.896168 
z"/>
<path fill="#2D8D48" opacity="1.000000" stroke="none" 
	d="
M176.574249,66.048157 
	C169.255859,69.054573 161.588699,72.121689 153.814713,74.888680 
	C141.316010,79.337349 128.751114,83.600502 116.199280,87.898483 
	C115.158684,88.254799 113.859024,88.707504 112.926933,88.389915 
	C106.682320,86.262222 100.504715,83.937820 94.417679,81.340347 
	C94.714760,80.991531 94.899544,80.979591 95.084320,80.967659 
	C96.044250,81.199966 97.111809,81.236023 97.947746,81.694443 
	C108.173454,87.302162 118.090370,86.199875 128.675308,81.910400 
	C142.321594,76.380325 156.480118,72.110977 170.437469,67.355690 
	C172.292404,66.723701 174.261368,66.426430 176.574249,66.048157 
z"/>
<path fill="#95A89A" opacity="1.000000" stroke="none" 
	d="
M136.000900,56.003441 
	C132.304871,55.980892 128.608826,55.958340 124.056427,55.947506 
	C122.134636,55.986916 121.069214,56.014610 120.003799,56.042301 
	C110.640343,56.007999 101.276894,55.973698 91.210976,55.968758 
	C90.508514,55.998119 90.038422,56.071236 90.038422,56.071236 
	C88.341179,56.156792 86.643936,56.242348 84.946701,56.327904 
	C84.754356,56.116722 84.562019,55.905544 84.369675,55.694366 
	C85.854797,55.121044 87.336555,54.059376 88.825569,54.049088 
	C105.825584,53.931625 122.826714,53.974403 139.929016,54.547474 
	C139.099213,54.861736 138.269424,55.176003 136.971115,55.705894 
	C136.335358,55.948830 136.168121,55.976135 136.000900,56.003441 
z"/>
<path fill="#308D4A" opacity="1.000000" stroke="none" 
	d="
M94.792641,80.755119 
	C94.899544,80.979591 94.714760,80.991531 94.252495,81.023239 
	C89.376503,79.759949 84.684105,78.739098 80.201050,77.133659 
	C73.111588,74.594826 66.162445,71.664200 59.086288,68.562683 
	C70.846100,72.331512 82.673531,76.437042 94.792641,80.755119 
z"/>
<path fill="#95A89A" opacity="1.000000" stroke="none" 
	d="
M144.977127,71.028938 
	C144.374222,70.456909 143.771317,69.884872 143.168411,69.312851 
	C143.457214,69.023087 143.746017,68.733330 144.034821,68.443558 
	C144.365997,69.056938 144.697159,69.670326 145.016098,70.640732 
	C145.003860,70.997749 144.977127,71.028938 144.977127,71.028938 
z"/>
<path fill="#95A89A" opacity="1.000000" stroke="none" 
	d="
M142.215576,64.154938 
	C142.768326,63.911167 143.260773,63.960411 143.753235,64.009651 
	C143.641571,64.448357 143.529892,64.887062 143.418213,65.325768 
	C142.997238,65.033165 142.576263,64.740555 142.215576,64.154938 
z"/>
<path fill="#3BB75E" opacity="1.000000" stroke="none" 
	d="
M46.014786,64.613373 
	C45.135536,64.508141 44.130768,64.079559 43.060669,63.298241 
	C43.959980,63.393681 44.924625,63.841854 46.014786,64.613373 
z"/>
<path fill="#95A89A" opacity="1.000000" stroke="none" 
	d="
M141.985794,60.459610 
	C141.600861,59.888386 141.506317,59.321930 141.411758,58.755478 
	C141.810654,58.761909 142.209564,58.768337 142.608459,58.774765 
	C142.497696,59.337971 142.386932,59.901173 141.985794,60.459610 
z"/>
<path fill="#1C853B" opacity="1.000000" stroke="none" 
	d="
M90.023506,56.298435 
	C90.038422,56.071236 90.508514,55.998119 90.744293,56.029083 
	C90.882256,56.340874 90.716904,56.573734 90.295128,56.864525 
	C90.106247,56.970417 90.008591,56.525635 90.023506,56.298435 
z"/>
<path fill="#1C853B" opacity="1.000000" stroke="none" 
	d="
M136.113113,56.221085 
	C136.168121,55.976135 136.335358,55.948830 136.754791,55.953159 
	C137.036179,56.154427 137.065384,56.324059 137.052811,56.748489 
	C136.690369,56.896877 136.428467,56.708691 136.113113,56.221085 
z"/>
<path fill="#95A89A" opacity="1.000000" stroke="none" 
	d="
M145.019653,70.984451 
	C145.151077,71.123772 145.266693,71.276405 145.382309,71.429039 
	C145.288177,71.386566 145.194061,71.344093 145.038528,71.165276 
	C144.977127,71.028938 145.003860,70.997749 145.019653,70.984451 
z"/>
<path fill="#34B659" opacity="1.000000" stroke="none" 
	d="
M85.087868,149.936798 
	C84.796333,139.961761 84.364288,130.478516 84.322212,120.993530 
	C84.306488,117.449196 82.881454,115.822189 78.764740,115.262573 
	C79.455627,136.337250 80.141846,157.269577 80.855713,179.045227 
	C75.240829,175.798187 69.975021,173.277222 65.409225,169.829300 
	C63.803715,168.616882 63.454609,165.157837 63.315205,162.680527 
	C62.342644,145.397324 61.503677,128.105453 60.805023,110.808952 
	C60.668468,107.428345 59.610184,105.484016 55.530170,105.221992 
	C56.645000,125.402428 57.751518,145.432465 58.905857,166.328094 
	C53.851921,163.424973 49.219059,160.931854 44.804470,158.098633 
	C43.815357,157.463821 43.172539,155.668655 43.076023,154.355789 
	C41.257961,129.625671 39.549221,104.887520 37.807667,80.151764 
	C37.633312,77.675346 37.394493,75.203476 37.124577,72.006874 
	C46.982151,75.716431 56.384865,79.255684 65.788223,82.793221 
	C77.452400,87.181267 89.156387,91.469170 100.734245,96.074211 
	C102.261742,96.681770 104.157181,98.889412 104.180000,100.382019 
	C104.638168,130.348694 104.847557,160.319153 105.095894,190.288956 
	C105.099960,190.779205 104.965256,191.270599 104.761902,192.697830 
	C98.641762,189.184235 92.774628,185.932678 87.075584,182.409256 
	C86.284538,181.920197 86.065361,180.099457 86.018257,178.878342 
	C85.652489,169.397202 85.393982,159.911911 85.087868,149.936798 
z"/>
<path fill="#00AD3C" opacity="1.000000" stroke="none" 
	d="
M32.361359,81.973312 
	C31.981688,81.311371 31.976999,80.554253 31.934574,79.420334 
	C31.967505,78.618813 32.038174,78.194084 32.062027,77.446487 
	C32.255592,78.708458 32.495968,80.293304 32.361359,81.973312 
z"/>
<path fill="#28B351" opacity="1.000000" stroke="none" 
	d="
M34.174057,105.914871 
	C33.945164,105.171242 33.972881,104.473862 34.046692,103.428886 
	C34.408695,103.827187 34.724602,104.573074 34.995667,105.658638 
	C34.777431,105.985909 34.604046,105.973511 34.174057,105.914871 
z"/>
<path fill="#34B658" opacity="1.000000" stroke="none" 
	d="
M121.897522,190.972046 
	C121.955627,166.651871 122.010429,142.331680 122.074333,118.011520 
	C122.089218,112.345917 121.904861,106.663879 122.309265,101.025055 
	C122.428040,99.368950 123.912209,96.932175 125.354118,96.381729 
	C146.017654,88.493561 166.780106,80.864441 187.526062,73.192757 
	C188.125778,72.970985 188.805634,72.965942 190.056946,72.759315 
	C189.658218,79.261192 189.334961,85.497528 188.883072,91.724548 
	C187.376373,112.487450 185.754486,133.242401 184.368149,154.013184 
	C184.175903,156.893600 183.158157,158.514984 180.678619,159.765686 
	C176.722321,161.761246 172.901596,164.025543 168.431992,166.504272 
	C169.466400,145.895447 170.461655,126.066689 171.455765,106.260841 
	C166.182709,105.580460 166.523209,108.774132 166.391891,111.310883 
	C165.547958,127.612534 164.437668,143.912674 164.167984,160.225754 
	C164.059509,166.787613 162.602264,171.296753 156.105164,173.716766 
	C152.885361,174.916077 150.010513,177.041473 146.145630,179.217407 
	C146.843246,157.590118 147.519135,136.636414 148.195297,115.674286 
	C143.235184,115.681358 142.462982,118.523323 142.382217,122.259850 
	C141.982605,140.747253 141.390747,159.230850 141.070709,177.719315 
	C141.015381,180.916473 140.248154,182.916260 137.219315,184.385742 
	C132.587128,186.633102 128.198563,189.382568 123.228821,191.746613 
	C122.466553,191.373566 122.182037,191.172806 121.897522,190.972046 
z"/>
<path fill="#2CB454" opacity="1.000000" stroke="none" 
	d="
M189.675095,149.116669 
	C190.006500,149.441467 190.013000,149.907501 190.085938,150.717484 
	C190.112762,151.225601 190.073166,151.389786 189.952316,151.794006 
	C189.871048,152.034058 189.475784,152.012924 189.277924,152.015930 
	C189.170105,151.098602 189.260147,150.178268 189.675095,149.116669 
z"/>
<path fill="#23B34F" opacity="1.000000" stroke="none" 
	d="
M121.830841,191.219116 
	C122.182037,191.172806 122.466553,191.373566 122.882111,191.803177 
	C122.596825,191.843430 122.180489,191.654800 121.830841,191.219116 
z"/>
<path fill="#3DB961" opacity="1.000000" stroke="none" 
	d="
M138.740585,190.247681 
	C138.819839,190.475540 138.608078,190.684631 138.116364,190.899261 
	C138.039108,190.684891 138.243500,190.459564 138.740585,190.247681 
z"/>
<path fill="#20863E" opacity="1.000000" stroke="none" 
	d="
M120.001877,56.433163 
	C121.069214,56.014610 122.134636,55.986916 123.598083,56.001236 
	C123.999382,57.071388 124.002640,58.099529 124.016754,59.511921 
	C122.949463,59.889126 121.871307,59.882080 120.389465,59.912849 
	C119.990494,58.908451 119.995224,57.866238 120.001877,56.433163 
z"/>
<path fill="#20863E" opacity="1.000000" stroke="none" 
	d="
M119.751068,68.177139 
	C119.844284,68.668869 119.705818,69.330025 119.285477,69.970261 
	C119.175537,69.415077 119.347458,68.880814 119.751068,68.177139 
z"/>
<path fill="#20863E" opacity="1.000000" stroke="none" 
	d="
M107.893784,69.762619 
	C107.975151,69.900391 107.503365,69.945038 107.276184,69.877846 
	C107.257675,69.470268 107.512146,69.408333 107.893784,69.762619 
z"/>
</svg>