<svg width="2554" height="863" viewBox="0 0 2554 863" fill="none" xmlns="http://www.w3.org/2000/svg">
<rect width="2554" height="863" fill="white"/>
<circle cx="373.5" cy="431.5" r="264.5" fill="#303849"/>
<path d="M597.308 431.5C597.308 476.293 584.201 520.08 559.646 557.323C535.09 594.567 500.188 623.595 459.353 640.737C418.519 657.878 373.586 662.363 330.236 653.624C286.886 644.886 247.067 623.316 215.813 591.643C184.56 559.969 163.276 519.615 154.653 475.683C146.031 431.751 150.456 386.214 167.37 344.831C184.285 303.448 212.928 268.078 249.678 243.192C286.428 218.307 329.635 205.024 373.834 205.024L373.834 243.858C337.213 243.858 301.416 254.863 270.967 275.481C240.519 296.1 216.787 325.405 202.773 359.693C188.759 393.98 185.092 431.708 192.236 468.107C199.381 504.506 217.015 537.941 242.909 564.183C268.804 590.425 301.795 608.296 337.712 615.536C373.628 622.777 410.857 619.061 444.689 604.859C478.522 590.656 507.439 566.606 527.784 535.748C548.129 504.891 558.988 468.612 558.988 431.5H597.308Z" fill="#F2B807"/>
<path d="M300.956 280.013C328.358 266.83 358.741 261.118 388.952 263.469C419.162 265.82 448.101 276.149 472.767 293.384C497.433 310.619 516.928 334.133 529.229 361.487C541.53 388.841 546.19 419.039 542.725 448.948C539.26 478.857 527.797 507.389 509.524 531.585C491.252 555.78 466.835 574.758 438.806 586.549C410.778 598.34 380.158 602.516 350.124 598.644C320.089 594.771 291.733 582.991 267.997 564.525L290.659 536.041C309.313 550.553 331.597 559.811 355.201 562.855C378.804 565.898 402.867 562.616 424.894 553.35C446.921 544.083 466.11 529.169 480.47 510.155C494.83 491.14 503.839 468.717 506.562 445.212C509.285 421.707 505.623 397.975 495.956 376.478C486.288 354.981 470.968 336.502 451.584 322.957C432.199 309.413 409.457 301.295 385.714 299.448C361.972 297.6 338.096 302.089 316.56 312.449L300.956 280.013Z" fill="#F2B807"/>
<path d="M377.564 547.247C354.336 548.271 331.397 542.445 311.648 530.506C291.9 518.568 276.229 501.053 266.618 480.177C257.006 459.301 253.886 436.001 257.651 413.224C261.415 390.447 271.897 369.215 287.769 352.214C303.642 335.213 324.192 323.206 346.822 317.712C369.452 312.217 393.145 313.482 414.904 321.346C436.664 329.21 455.513 343.32 469.068 361.892C482.624 380.464 490.276 402.663 491.058 425.683L455.727 427.239C455.18 411.145 449.83 395.623 440.352 382.638C430.875 369.653 417.696 359.788 402.482 354.29C387.268 348.791 370.703 347.907 354.881 351.749C339.059 355.59 324.69 363.985 313.593 375.872C302.495 387.759 295.167 402.603 292.535 418.528C289.902 434.454 292.084 450.744 298.804 465.34C305.524 479.936 316.481 492.182 330.288 500.529C344.096 508.876 360.134 512.949 376.375 512.234L377.564 547.247Z" fill="#F2B807"/>
<circle cx="373.834" cy="431.167" r="42.0265" fill="#F2B807"/>
<path d="M1003.6 309.8V587H945.6V490.6C945.6 462.867 948.133 435.533 953.2 408.6L914.8 516.6H868.4L830 408.6C835.067 433.4 837.6 460.733 837.6 490.6V587H780V309.8H841.6L891.6 451.4L941.6 309.8H1003.6ZM1214.17 587L1202.57 523H1147.77L1136.97 587H1079.77L1134.17 309.8H1217.77L1271.37 587H1214.17ZM1156.17 472.2H1193.77L1174.57 365L1156.17 472.2ZM1347.47 309.8H1408.27V536.6H1482.27V587H1347.47V309.8ZM1702.96 309.8V361.8H1652.96V587H1592.16V361.8H1542.16V309.8H1702.96ZM1779 309.8H1919.4V361.8H1839V420.6H1908.6V472.6H1839V535H1919.4V587H1779V309.8ZM1999.36 376.6C1999.36 355.533 2007.36 338.867 2023.36 326.6C2039.63 314.067 2062.69 307.8 2092.56 307.8C2114.96 307.8 2133.76 310.333 2148.96 315.4V372.2C2132.96 366.067 2116.96 363 2100.96 363C2084.96 363 2074.16 364.867 2068.56 368.6C2062.96 372.333 2060.16 377.4 2060.16 383.8V515.4C2060.16 521.8 2062.16 526.733 2066.16 530.2C2070.16 533.4 2076.03 535 2083.76 535C2091.76 535 2097.89 533.933 2102.16 531.8V438.2H2160.56V572.2C2139.76 583.4 2115.09 589 2086.56 589C2058.03 589 2036.29 583.133 2021.36 571.4C2006.69 559.667 1999.36 543.133 1999.36 521.8V376.6ZM2350.07 380.6C2350.07 367.267 2342.07 360.6 2326.07 360.6C2310.34 360.6 2302.47 367.267 2302.47 380.6V516.2C2302.47 529.533 2310.34 536.2 2326.07 536.2C2342.07 536.2 2350.07 529.533 2350.07 516.2V380.6ZM2242.47 377.4C2242.47 355.533 2249.54 338.2 2263.67 325.4C2277.8 312.333 2298.6 305.8 2326.07 305.8C2353.54 305.8 2374.34 312.333 2388.47 325.4C2402.87 338.2 2410.07 355.533 2410.07 377.4V519.4C2410.07 541.267 2402.87 558.733 2388.47 571.8C2374.34 584.6 2353.54 591 2326.07 591C2298.6 591 2277.8 584.6 2263.67 571.8C2249.54 558.733 2242.47 541.267 2242.47 519.4V377.4Z" fill="black"/>
</svg>
