<?xml version="1.0" standalone="no"?>
<!DOCTYPE svg PUBLIC "-//W3C//DTD SVG 20010904//EN"
 "http://www.w3.org/TR/2001/REC-SVG-20010904/DTD/svg10.dtd">
<svg version="1.0" xmlns="http://www.w3.org/2000/svg"
 width="512.000000pt" height="307.000000pt" viewBox="0 0 512.000000 307.000000"
 preserveAspectRatio="xMidYMid meet">
<metadata>
Created by potrace 1.16, written by Peter Selinger 2001-2019
</metadata>
<g transform="translate(0.000000,307.000000) scale(0.100000,-0.100000)"
fill="#000000" stroke="none">
<path d="M0 1535 l0 -1535 2560 0 2560 0 0 1535 0 1535 -2560 0 -2560 0 0
-1535z m790 973 c0 -5 -4 -8 -10 -8 -5 0 -10 10 -10 23 0 18 2 19 10 7 5 -8
10 -18 10 -22z m284 -51 c19 -42 32 -77 30 -77 -3 0 2 -10 11 -23 15 -23 12
-37 -8 -37 -5 0 -6 7 -3 16 3 8 2 12 -4 9 -9 -6 -14 10 -13 43 1 6 -3 12 -9
12 -5 0 -6 5 -3 10 3 6 1 10 -5 10 -7 0 -10 7 -6 15 3 8 1 15 -5 15 -6 0 -7 5
-4 10 3 6 1 10 -5 10 -7 0 -10 7 -6 15 3 8 1 15 -5 15 -6 0 -7 5 -4 10 3 6 1
10 -4 10 -6 0 -11 5 -11 11 0 29 24 -4 54 -74z m466 68 c0 -8 -5 -15 -11 -15
-5 0 -7 -4 -4 -10 3 -5 2 -10 -4 -10 -6 0 -8 -7 -5 -15 4 -8 1 -15 -6 -15 -6
0 -8 -4 -5 -10 3 -5 2 -10 -4 -10 -6 0 -8 -6 -5 -14 3 -7 -1 -20 -9 -27 -7 -8
-12 -20 -9 -27 2 -6 -1 -12 -8 -12 -6 0 -8 -4 -5 -10 3 -5 2 -10 -4 -10 -6 0
-8 -6 -5 -14 3 -7 -1 -20 -9 -27 -7 -8 -12 -20 -9 -28 3 -9 0 -11 -8 -6 -10 6
-12 4 -7 -8 8 -22 -2 -49 -16 -40 -5 3 -7 1 -4 -4 8 -13 -12 -73 -24 -73 -4 0
-6 -6 -3 -14 3 -7 -2 -21 -11 -30 -9 -9 -14 -16 -11 -16 2 0 -2 -20 -11 -45
-8 -25 -21 -45 -29 -45 -12 0 -12 6 2 38 8 20 27 66 41 102 14 36 40 101 59
145 41 99 82 201 96 238 11 29 28 37 28 12z m715 -520 l0 -535 -261 0 c-230 0
-263 2 -268 16 -9 24 -7 44 5 44 6 0 8 -9 4 -20 -6 -19 -2 -20 114 -20 95 0
123 3 135 16 15 14 16 14 16 0 0 -14 18 -16 120 -16 l120 0 0 525 c0 289 3
525 8 525 4 0 7 -241 7 -535z m44 453 c-1 -93 -6 -87 -11 15 -2 37 0 67 4 67
4 0 7 -37 7 -82z m1365 61 c-8 -13 -21 -11 -27 5 -4 10 0 12 14 9 10 -3 16 -9
13 -14z m202 -1 c-3 -13 -6 -74 -6 -136 0 -76 -3 -111 -10 -107 -6 4 -8 15 -5
26 4 11 2 19 -5 19 -7 0 -10 6 -7 14 3 7 1 18 -5 24 -8 8 -7 13 5 18 14 5 17
21 17 85 0 52 4 79 11 79 7 0 9 -9 5 -22z m-2076 -2 c0 -3 -4 -8 -10 -11 -5
-3 -10 -1 -10 4 0 6 5 11 10 11 6 0 10 -2 10 -4z m-1016 -91 c-8 -44 -23 -46
-19 -2 2 17 3 41 4 52 1 18 2 19 12 3 5 -10 7 -34 3 -53z m1021 56 c3 -5 1
-12 -5 -16 -5 -3 -10 1 -10 9 0 18 6 21 15 7z m1965 -11 c8 -5 11 -10 6 -10
-5 0 -2 -8 5 -17 12 -14 10 -14 -13 1 -16 10 -28 22 -28 27 0 12 11 11 30 -1z
m-1947 -86 c-3 -8 0 -14 6 -14 6 0 11 -13 11 -30 0 -16 -5 -30 -11 -30 -7 0
-9 10 -7 25 3 15 1 22 -5 18 -6 -4 -8 5 -4 25 4 19 2 32 -5 34 -7 3 -9 11 -4
24 8 17 9 16 17 -9 4 -16 5 -35 2 -43z m2005 25 c17 -27 5 -40 -14 -15 -8 11
-14 23 -14 28 0 15 15 8 28 -13z m-3058 -44 c0 -8 -5 -15 -10 -15 -7 0 -8 -13
-4 -35 4 -21 2 -35 -4 -35 -5 0 -7 -12 -4 -26 4 -20 2 -25 -8 -19 -10 6 -11 2
-6 -19 5 -19 3 -26 -4 -21 -8 5 -9 20 -5 44 4 20 8 41 8 48 0 7 5 10 10 6 5
-3 6 3 3 15 -8 24 2 72 15 72 5 0 9 -7 9 -15z m1540 -10 c0 -8 -4 -15 -10 -15
-5 0 -10 7 -10 15 0 8 5 15 10 15 6 0 10 -7 10 -15z m720 -5 c0 -5 -6 -10 -14
-10 -8 0 -18 5 -21 10 -3 6 3 10 14 10 12 0 21 -4 21 -10z m1510 0 c0 -5 -4
-10 -10 -10 -5 0 -10 5 -10 10 0 6 5 10 10 10 6 0 10 -4 10 -10z m-1245 -234
c6 -174 10 -214 24 -230 15 -18 15 -19 -6 -14 l-23 6 0 -204 0 -204 -125 0
c-77 0 -125 4 -125 10 0 6 45 10 115 10 l115 0 0 433 c0 458 13 555 25 193z
m249 219 c3 -8 1 -15 -4 -15 -6 0 -10 7 -10 15 0 8 2 15 4 15 2 0 6 -7 10 -15z
m61 -27 c6 -1 9 -6 8 -10 -2 -5 1 -8 7 -8 5 0 6 -7 3 -17 -4 -9 -2 -14 3 -10
6 3 9 -14 9 -40 0 -28 -5 -48 -13 -51 -6 -2 -10 -8 -6 -13 3 -5 1 -9 -4 -9
-18 0 -21 13 -7 34 22 31 18 71 -10 104 -13 16 -22 32 -18 36 4 3 9 2 12 -3 3
-5 11 -11 16 -13z m-2437 -53 c18 -47 78 -195 89 -222 3 -7 0 -13 -6 -13 -14
0 -53 88 -45 101 3 5 0 9 -7 9 -7 0 -10 3 -6 6 3 4 -1 13 -9 21 -8 9 -13 22
-10 29 3 8 1 14 -5 14 -6 0 -8 7 -5 16 4 10 2 13 -6 8 -8 -5 -9 -2 -5 9 4 10
2 17 -4 17 -6 0 -8 7 -5 16 4 10 2 13 -6 8 -8 -5 -9 -2 -5 9 3 10 2 17 -4 17
-6 0 -7 5 -3 11 9 15 19 2 42 -56z m686 19 c4 -16 2 -31 -5 -38 -8 -8 -10 -5
-4 12 4 13 2 22 -4 22 -6 0 -11 7 -11 15 0 25 17 17 24 -11z m6 -58 c0 -3 -4
-8 -10 -11 -5 -3 -10 -1 -10 4 0 6 5 11 10 11 6 0 10 -2 10 -4z m6 -53 c-11
-11 -19 6 -11 24 8 17 8 17 12 0 3 -10 2 -21 -1 -24z m2004 -292 c0 -294 -1
-319 -17 -317 -22 3 -107 102 -95 110 6 3 26 -14 47 -39 20 -25 41 -45 46 -45
5 0 9 100 9 245 0 135 -3 245 -8 245 -4 0 -16 -9 -25 -21 -10 -11 -21 -18 -25
-14 -4 4 2 13 12 21 11 8 17 14 13 14 -4 0 3 18 14 40 11 21 18 44 14 50 -6 9
1 30 11 30 2 0 4 -144 4 -319z m-3146 293 c3 -8 2 -12 -4 -9 -6 3 -10 10 -10
16 0 14 7 11 14 -7z m1147 -37 c-10 -9 -11 -8 -5 6 3 10 9 15 12 12 3 -3 0
-11 -7 -18z m1699 3 c0 -5 -2 -10 -4 -10 -3 0 -8 5 -11 10 -3 6 -1 10 4 10 6
0 11 -4 11 -10z m-30 -10 c0 -13 -120 -13 -140 0 -10 7 9 10 63 10 45 0 77 -4
77 -10z m-2820 -25 c0 -8 -5 -15 -11 -15 -6 0 -8 -9 -4 -22 6 -17 4 -20 -4
-12 -7 7 -9 22 -5 38 7 28 24 36 24 11z m263 -68 c-3 -6 -1 -7 5 -3 11 7 16
-7 15 -41 -1 -7 3 -13 9 -13 5 0 6 -4 3 -10 -3 -5 -1 -10 5 -10 7 0 10 -6 8
-12 -3 -7 2 -19 9 -27 8 -7 12 -20 9 -27 -3 -8 -1 -14 5 -14 6 0 8 -9 4 -21
-5 -16 -4 -19 5 -14 9 5 11 4 6 -3 -4 -7 -2 -12 4 -12 7 0 10 -6 8 -12 -3 -7
2 -19 9 -27 8 -7 12 -20 9 -27 -3 -8 -1 -14 5 -14 6 0 9 -6 7 -12 -3 -7 2 -19
9 -27 8 -7 12 -20 9 -27 -3 -8 -1 -14 5 -14 6 0 9 -7 5 -15 -3 -8 -1 -15 4
-15 5 0 6 -7 3 -17 -5 -12 -3 -14 7 -8 10 6 12 4 7 -8 -3 -10 -2 -17 4 -17 6
0 7 -4 4 -10 -3 -5 -1 -10 5 -10 7 0 10 -7 6 -15 -3 -8 -1 -15 5 -15 6 0 8 -7
5 -16 -3 -8 -2 -12 4 -9 6 3 10 1 10 -5 0 -8 30 -11 93 -10 120 2 119 2 112
-10 -4 -6 -53 -10 -114 -10 l-107 0 -49 128 c-26 70 -68 179 -92 242 -24 63
-50 130 -58 148 -8 18 -15 39 -15 47 0 7 -5 15 -11 17 -6 2 -8 15 -3 33 l7 29
13 -38 c8 -21 11 -43 7 -49z m639 45 c-12 -4 -4 -42 9 -42 5 0 5 -8 2 -17 -6
-15 -7 -14 -14 3 -6 17 -8 16 -14 -9 -4 -15 -15 -32 -24 -37 -9 -5 -11 -10 -4
-10 7 0 -1 -33 -23 -87 -19 -49 -44 -113 -54 -143 -51 -150 -110 -269 -110
-221 0 6 4 11 10 11 5 0 7 7 4 15 -4 8 -1 15 5 15 6 0 8 7 4 17 -4 11 -3 14 5
9 8 -5 10 -2 6 8 -3 9 -1 16 5 16 6 0 8 6 5 14 -3 7 1 20 9 27 7 8 12 20 9 28
-3 9 0 11 8 6 9 -5 11 -4 6 4 -10 16 3 53 16 45 6 -4 8 1 3 15 -4 13 -2 21 5
21 6 0 8 5 5 10 -3 6 -2 10 4 10 6 0 8 7 5 15 -4 8 -1 15 6 15 6 0 9 4 6 9 -9
14 5 42 16 35 6 -4 8 1 4 14 -4 11 -1 26 7 34 7 7 12 19 9 26 -2 6 1 12 7 12
6 0 8 6 5 14 -3 7 1 20 9 27 7 8 12 19 10 25 -2 7 3 18 11 27 8 8 13 17 10 19
-2 3 1 18 7 34 11 25 13 26 17 9 2 -10 0 -21 -6 -23z m259 15 c-10 -9 -11 -8
-5 6 3 10 9 15 12 12 3 -3 0 -11 -7 -18z m2654 -82 c0 -63 -4 -105 -10 -105
-6 0 -9 36 -7 95 3 64 0 95 -7 95 -6 0 -11 5 -11 10 0 6 8 10 18 10 16 0 18
-11 17 -105z m-137 88 c-53 -2 -143 -2 -200 0 -57 1 -13 3 97 3 110 0 156 -2
103 -3z m-2500 -48 c0 -14 -4 -28 -9 -31 -10 -6 -12 17 -3 40 9 22 12 20 12
-9z m-943 -14 c3 -5 1 -12 -5 -16 -5 -3 -10 1 -10 9 0 18 6 21 15 7z m-255
-43 c0 -10 -7 -18 -16 -18 -11 0 -14 5 -10 16 3 9 6 23 6 32 0 15 2 15 10 2 5
-8 10 -23 10 -32z m3104 21 c-3 -5 -13 -8 -22 -7 -9 2 -17 -3 -17 -11 0 -8 -6
-16 -12 -18 -19 -7 -16 8 8 33 20 21 56 23 43 3z m-2517 -48 c1 -2 9 2 18 9 9
7 18 10 22 6 3 -3 1 -6 -6 -6 -7 0 -10 -4 -6 -9 3 -5 0 -21 -6 -35 -11 -24
-13 -24 -25 -8 -7 9 -10 20 -8 24 3 5 1 8 -4 8 -12 0 -23 40 -15 54 4 5 11 -1
17 -15 5 -13 11 -26 13 -28z m623 34 c0 -8 -4 -15 -10 -15 -5 0 -7 7 -4 15 4
8 8 15 10 15 2 0 4 -7 4 -15z m-958 -18 c-7 -8 -9 -17 -5 -20 3 -4 1 -7 -5 -7
-16 0 -15 37 1 43 18 6 22 -1 9 -16z m698 -3 c0 -8 -4 -12 -10 -9 -5 3 -10 10
-10 16 0 5 5 9 10 9 6 0 10 -7 10 -16z m2068 -14 c-13 -20 -38 -28 -38 -12 0
7 31 27 48 31 1 1 -3 -8 -10 -19z m-1794 -22 c5 -21 3 -28 -9 -28 -16 0 -19
17 -9 45 8 19 9 18 18 -17z m-1234 7 c0 -8 -4 -15 -10 -15 -5 0 -10 7 -10 15
0 8 5 15 10 15 6 0 10 -7 10 -15z m970 -5 c0 -5 -4 -10 -10 -10 -5 0 -10 5
-10 10 0 6 5 10 10 10 6 0 10 -4 10 -10z m1990 -4 c0 -3 -4 -8 -10 -11 -5 -3
-10 -1 -10 4 0 6 5 11 10 11 6 0 10 -2 10 -4z m-35 -16 c3 -5 2 -10 -4 -10 -5
0 -13 5 -16 10 -3 6 -2 10 4 10 5 0 13 -4 16 -10z m-2675 -15 c0 -8 -2 -15 -4
-15 -2 0 -6 7 -10 15 -3 8 -1 15 4 15 6 0 10 -7 10 -15z m725 -1 c1 -5 0 -6
-3 -1 -2 4 -8 5 -13 1 -5 -3 -9 0 -9 6 0 14 23 8 25 -6z m1916 -4 c19 -16 20
-19 5 -13 -13 4 -17 3 -12 -5 4 -7 13 -12 20 -12 19 0 63 -50 45 -51 -8 0 -4
-4 9 -9 21 -9 32 -40 13 -40 -10 0 -99 112 -97 124 0 5 -8 12 -19 17 -15 6
-16 8 -4 8 9 1 27 -8 40 -19z m-2901 -6 c0 -8 -4 -12 -10 -9 -5 3 -10 10 -10
16 0 5 5 9 10 9 6 0 10 -7 10 -16z m1260 -45 c0 -10 -5 -21 -10 -24 -7 -4 -8
3 -4 21 5 19 4 25 -5 20 -7 -5 -11 1 -11 16 1 22 1 22 15 4 8 -11 15 -28 15
-37z m-1270 -11 c0 -33 -17 -19 -18 14 -1 23 2 28 8 18 6 -8 10 -23 10 -32z
m260 32 c0 -5 -4 -10 -10 -10 -5 0 -10 5 -10 10 0 6 5 10 10 10 6 0 10 -4 10
-10z m740 6 c0 -3 -4 -8 -10 -11 -5 -3 -10 -1 -10 4 0 6 5 11 10 11 6 0 10 -2
10 -4z m1703 -56 c19 -22 33 -40 30 -40 -3 0 5 -9 18 -19 19 -15 21 -22 12
-32 -17 -17 -40 3 -48 41 -4 16 -10 28 -14 27 -4 -1 -20 13 -35 31 -41 48 -7
41 37 -8z m-2453 10 c-8 -5 -17 -7 -19 -4 -3 3 1 9 9 14 8 5 17 7 19 4 3 -3
-1 -9 -9 -14z m760 1 c0 -6 -4 -13 -10 -16 -5 -3 -10 1 -10 9 0 9 5 16 10 16
6 0 10 -4 10 -9z m267 -41 c-1 -16 -5 -30 -9 -30 -9 0 -10 8 -2 38 9 31 14 28
11 -8z m-1027 10 c0 -5 -4 -10 -10 -10 -5 0 -10 5 -10 10 0 6 5 10 10 10 6 0
10 -4 10 -10z m-260 -16 c0 -8 -4 -12 -10 -9 -5 3 -10 10 -10 16 0 5 5 9 10 9
6 0 10 -7 10 -16z m1033 -11 c3 -16 0 -31 -6 -35 -9 -6 -8 -8 2 -8 8 0 11 -7
8 -19 -3 -12 1 -22 10 -25 14 -6 9 -26 -7 -26 -12 0 -20 30 -25 90 -4 53 9 69
18 23z m2013 -50 c-8 -8 -27 8 -21 18 4 5 2 9 -4 9 -6 0 -8 7 -4 16 5 13 9 11
20 -11 8 -15 12 -29 9 -32z m-3056 2 c0 -17 -2 -17 -10 -5 -5 8 -10 24 -10 35
0 17 2 17 10 5 5 -8 10 -24 10 -35z m256 23 c-3 -13 -6 -26 -6 -30 0 -5 -4 -8
-8 -8 -5 0 -9 14 -9 30 0 20 5 30 15 30 10 0 13 -7 8 -22z m1054 -18 c0 -5 -4
-10 -10 -10 -5 0 -10 5 -10 10 0 6 5 10 10 10 6 0 10 -4 10 -10z m-1326 -75
c-3 -19 -10 -35 -15 -35 -5 0 -6 12 -2 28 4 15 7 38 6 52 -1 20 0 21 8 7 6 -9
7 -33 3 -52z m2833 50 c3 -9 3 -19 -1 -22 -7 -7 -36 16 -36 28 0 15 30 10 37
-6z m283 -21 c0 -8 -5 -14 -11 -14 -5 0 -8 4 -5 9 3 5 -1 12 -10 15 -8 3 -12
11 -9 16 9 14 35 -6 35 -26z m-1780 11 c0 -8 -4 -15 -10 -15 -5 0 -7 7 -4 15
4 8 8 15 10 15 2 0 4 -7 4 -15z m-1075 -23 c-6 -4 -11 -22 -12 -40 -1 -39 -7
-47 -24 -36 -9 5 -8 10 5 19 13 10 14 18 7 37 -11 29 5 56 23 38 7 -7 7 -13 1
-18z m2622 -39 c-2 -1 16 -24 40 -49 24 -26 41 -49 38 -52 -2 -2 6 -13 19 -23
23 -18 50 -19 475 -19 294 0 451 -3 451 -10 0 -7 -161 -10 -464 -10 -299 0
-467 4 -471 10 -3 6 0 10 7 10 7 1 0 8 -16 16 -22 13 -26 18 -15 25 12 8 6 13
-12 11 -4 -1 -15 8 -25 20 -18 20 -18 21 -1 15 11 -4 16 -3 12 3 -3 6 -12 10
-19 10 -16 0 -68 65 -59 74 4 3 15 -1 25 -11 10 -9 17 -18 15 -20z m-1539 2
c0 -14 -4 -25 -9 -25 -10 0 -12 34 -2 43 10 10 11 9 11 -18z m-253 5 c3 -5 -1
-10 -10 -10 -9 0 -13 5 -10 10 3 6 8 10 10 10 2 0 7 -4 10 -10z m-1110 -89
c-8 -47 -24 -55 -23 -11 1 17 4 30 9 30 4 0 5 10 2 23 -5 17 -3 19 7 10 8 -7
10 -24 5 -52z m1110 49 c3 -5 -1 -10 -9 -10 -9 0 -16 5 -16 10 0 6 4 10 9 10
6 0 13 -4 16 -10z m265 -15 c0 -8 -4 -15 -10 -15 -5 0 -10 7 -10 15 0 8 5 15
10 15 6 0 10 -7 10 -15z m-1116 -20 c-7 -17 -20 -20 -28 -6 -4 5 0 12 6 14 23
9 28 7 22 -8z m861 -5 c-3 -5 -10 -10 -16 -10 -5 0 -9 5 -9 10 0 6 7 10 16 10
8 0 12 -4 9 -10z m265 -20 c0 -5 -4 -10 -10 -10 -5 0 -10 5 -10 10 0 6 5 10
10 10 6 0 10 -4 10 -10z m-1130 -10 c0 -5 -4 -10 -9 -10 -6 0 -13 5 -16 10 -3
6 1 10 9 10 9 0 16 -4 16 -10z m-22 -42 c-6 -16 -258 -24 -258 -9 0 6 50 12
123 14 67 1 126 4 130 5 5 1 7 -4 5 -10z m1932 -8 c0 -6 -50 -10 -130 -10 -80
0 -130 4 -130 10 0 6 50 10 130 10 80 0 130 -4 130 -10z m-340 -150 c0 -5 -4
-10 -10 -10 -5 0 -10 5 -10 10 0 6 5 10 10 10 6 0 10 -4 10 -10z m87 -12 c-3
-8 -6 -5 -6 6 -1 11 2 17 5 13 3 -3 4 -12 1 -19z m703 6 c0 -8 -4 -12 -10 -9
-5 3 -10 10 -10 16 0 5 5 9 10 9 6 0 10 -7 10 -16z m130 6 c0 -5 -4 -10 -10
-10 -5 0 -10 5 -10 10 0 6 5 10 10 10 6 0 10 -4 10 -10z m-2440 -14 c0 -8 -6
-21 -13 -28 -8 -7 -12 -18 -10 -23 4 -14 -14 -41 -23 -33 -8 9 26 98 37 98 5
0 9 -6 9 -14z m1329 -66 l-2 -80 -91 2 -91 2 85 5 c47 3 84 9 83 14 -8 23 -2
137 8 137 6 0 9 -29 8 -80z m156 70 c3 -5 1 -10 -6 -10 -6 0 -18 -8 -25 -17
-9 -14 -16 -15 -24 -6 -9 8 -7 13 9 18 12 3 21 11 21 16 0 12 17 12 25 -1z
m175 1 c0 -5 9 -13 21 -16 11 -4 18 -9 15 -12 -7 -8 -66 17 -66 28 0 5 7 9 15
9 8 0 15 -4 15 -9z m590 -7 c0 -8 -4 -13 -9 -9 -5 3 -17 -2 -25 -11 -9 -8 -16
-13 -16 -10 0 3 -9 -3 -20 -14 -11 -11 -27 -20 -35 -20 -8 0 -15 -3 -15 -7 0
-5 -23 -32 -50 -61 -28 -29 -50 -59 -50 -67 0 -8 -7 -15 -15 -15 -8 0 -14 -3
-13 -7 4 -18 -15 -93 -23 -93 -6 0 -7 -4 -4 -10 3 -5 1 -10 -5 -10 -27 0 33
170 62 178 13 3 16 7 8 12 -8 5 5 21 37 46 26 22 51 43 54 48 4 5 12 5 19 1 9
-5 11 -4 6 3 -4 7 8 18 33 28 23 9 41 20 41 25 0 5 5 9 10 9 6 0 10 -7 10 -16z
m260 8 c0 -4 16 -14 35 -21 19 -7 35 -19 35 -27 0 -20 -8 -18 -46 11 -18 14
-37 25 -43 25 -6 0 -11 5 -11 10 0 6 7 10 15 10 8 0 15 -4 15 -8z m660 -11 c0
-11 -9 -26 -20 -34 -11 -8 -18 -16 -15 -19 3 -3 -9 -20 -27 -39 -18 -19 -32
-38 -33 -42 0 -4 -7 -12 -15 -17 -8 -5 -10 -10 -5 -10 6 0 3 -6 -6 -13 -9 -7
-17 -16 -19 -22 -6 -21 -39 -55 -45 -46 -7 12 154 233 165 226 5 -3 6 4 3 15
-3 11 0 20 6 20 6 0 11 -9 11 -19z m-2950 -256 c23 -55 52 -127 64 -160 13
-33 36 -90 51 -127 16 -38 25 -71 21 -75 -9 -10 -27 19 -21 35 2 6 1 12 -4 12
-11 0 -52 100 -45 111 3 5 0 9 -6 9 -7 0 -9 7 -6 16 3 8 2 13 -3 10 -11 -7
-33 52 -25 65 3 5 0 9 -6 9 -6 0 -8 5 -5 10 3 6 1 10 -5 10 -7 0 -10 7 -6 15
3 8 1 15 -5 15 -6 0 -7 5 -4 10 3 6 2 10 -3 10 -14 0 -35 57 -26 71 5 8 3 9
-6 4 -10 -6 -12 -4 -7 8 3 10 3 17 -2 17 -13 0 -31 49 -24 67 4 10 2 14 -4 10
-12 -8 -26 20 -17 34 3 5 1 9 -4 9 -14 0 -23 27 -15 46 4 11 17 -10 38 -62 18
-44 51 -124 75 -179z m3100 229 c0 -9 -13 -30 -30 -46 -16 -15 -30 -31 -30
-33 0 -16 -115 -155 -129 -156 -10 0 -11 -2 -4 -6 9 -3 2 -19 -22 -47 -19 -24
-35 -46 -35 -50 0 -5 9 -21 21 -37 11 -16 18 -37 15 -45 -3 -8 -2 -13 3 -10 5
3 27 -19 50 -49 26 -34 36 -55 28 -55 -8 0 -20 7 -27 15 -7 8 -9 15 -5 15 4 0
-3 9 -16 20 -13 10 -21 19 -17 20 3 0 -7 14 -22 31 -18 19 -27 36 -23 46 4 10
2 14 -4 10 -6 -4 -17 1 -24 10 -12 14 -12 16 1 8 13 -7 13 -6 2 7 -10 13 -10
17 3 22 9 3 14 10 10 15 -3 6 4 15 15 21 11 6 18 15 15 19 -3 5 8 23 24 40 15
16 26 33 22 37 -3 4 0 4 7 0 7 -4 12 -1 12 8 0 8 8 19 18 25 9 5 15 12 12 16
-6 7 111 165 122 165 5 0 8 -7 8 -16z m-1909 -24 c-6 -5 -11 -11 -11 -14 1
-22 -1 -27 -7 -23 -5 3 -9 -9 -10 -26 -2 -18 -7 -33 -13 -35 -5 -2 -10 -15
-10 -28 0 -16 4 -23 11 -18 8 5 10 -1 7 -19 -3 -15 -2 -25 1 -23 3 2 18 -16
33 -40 26 -43 27 -44 8 -54 -17 -9 -20 -7 -20 13 0 14 -7 30 -15 37 -13 11
-13 15 -3 21 10 7 9 9 -4 9 -24 0 -34 79 -18 133 15 51 39 89 52 81 7 -4 6 -9
-1 -14z m349 -67 c0 -13 -5 -23 -11 -23 -7 0 -9 9 -6 21 3 12 3 18 0 15 -9 -8
-34 44 -27 56 9 14 44 -42 44 -69z m858 58 c3 -8 -1 -12 -9 -9 -7 2 -15 10
-17 17 -3 8 1 12 9 9 7 -2 15 -10 17 -17z m83 -78 c16 -23 29 -51 29 -62 0
-20 -6 -21 -92 -21 -64 0 -88 3 -78 10 8 5 43 10 78 10 60 0 63 1 60 23 -2 12
-11 28 -21 35 -9 7 -14 19 -11 25 4 7 3 9 -1 4 -12 -11 -45 22 -38 39 7 19 33
-3 74 -63z m-2746 47 c4 -6 1 -18 -6 -26 -7 -9 -14 -25 -16 -36 -5 -30 -23
-59 -33 -53 -6 3 -7 -1 -4 -9 3 -9 1 -16 -6 -16 -6 0 -9 -4 -6 -9 8 -12 -19
-73 -28 -64 -4 4 -4 0 0 -10 3 -9 1 -17 -5 -17 -6 0 -8 -6 -5 -14 3 -7 -1 -20
-9 -27 -7 -8 -12 -20 -9 -28 3 -8 0 -11 -7 -7 -7 5 -9 1 -5 -8 3 -9 1 -16 -5
-16 -6 0 -8 -6 -5 -14 3 -7 -2 -20 -10 -29 -8 -8 -12 -17 -9 -21 4 -3 1 -6 -5
-6 -6 0 -9 -6 -6 -14 3 -7 -1 -20 -9 -27 -7 -8 -12 -20 -9 -27 2 -6 -1 -12 -8
-12 -6 0 -8 -4 -5 -10 3 -5 2 -10 -4 -10 -6 0 -8 -6 -5 -14 3 -7 -1 -20 -9
-27 -7 -8 -12 -20 -9 -28 3 -8 0 -11 -7 -7 -7 5 -9 1 -5 -8 3 -9 1 -16 -6 -16
-6 0 -8 -5 -4 -12 5 -7 3 -8 -6 -3 -10 6 -12 4 -6 -11 5 -13 4 -16 -3 -8 -11
10 19 90 220 577 31 75 41 88 54 67z m895 -20 c0 -5 -4 -10 -10 -10 -5 0 -10
5 -10 10 0 6 5 10 10 10 6 0 10 -4 10 -10z m700 1 c0 -6 -4 -12 -8 -15 -5 -3
-9 1 -9 9 0 8 4 15 9 15 4 0 8 -4 8 -9z m57 -11 c14 -11 22 -20 18 -20 -4 0
-3 -6 4 -13 6 -8 9 -23 6 -35 -5 -30 -53 -72 -72 -65 -11 4 -14 2 -9 -5 14
-23 -11 -12 -38 17 -23 24 -26 33 -17 48 10 17 10 17 11 -2 0 -26 31 -45 61
-38 25 7 57 33 41 33 -6 0 -8 8 -5 18 6 24 -14 75 -27 67 -5 -3 -10 -1 -10 4
0 16 9 14 37 -9z m783 10 c0 -5 -11 -10 -25 -10 -14 0 -25 5 -25 10 0 6 11 10
25 10 14 0 25 -4 25 -10z m-1583 -6 c-3 -3 -12 -4 -19 -1 -8 3 -5 6 6 6 11 1
17 -2 13 -5z m713 -7 c0 -8 -9 -24 -20 -37 -16 -18 -20 -20 -20 -7 0 10 5 17
12 17 6 0 8 3 5 7 -4 3 -2 12 4 20 14 17 19 17 19 0z m920 2 c0 -5 5 -7 10 -4
6 3 10 1 10 -5 0 -15 -32 -9 -38 8 -2 6 1 12 7 12 6 0 11 -5 11 -11z m-2027
-9 l67 0 0 -304 c0 -345 -8 -316 91 -316 33 0 59 -4 59 -10 0 -6 -31 -10 -74
-10 -58 0 -75 3 -80 16 -3 9 -6 150 -6 315 l0 299 -85 0 c-56 0 -85 4 -85 11
0 7 9 9 23 5 12 -3 52 -6 90 -6z m1867 2 c0 -12 -58 -53 -82 -57 -11 -3 -17
-1 -14 3 4 4 13 7 19 7 7 1 11 7 9 15 -2 8 -1 12 3 8 4 -3 15 2 26 13 20 20
39 25 39 11z m-1512 -9 c-27 -2 -69 -2 -95 0 -27 2 -5 3 47 3 52 0 74 -1 48
-3z m185 0 c-24 -2 -62 -2 -85 0 -24 2 -5 4 42 4 47 0 66 -2 43 -4z m1612 -53
c7 -11 -6 -13 -30 -4 -13 5 -14 8 -3 15 9 6 3 9 -17 10 -16 0 -24 3 -17 6 6 2
9 10 5 16 -4 6 8 1 25 -11 17 -13 34 -27 37 -32z m-2501 -51 c-3 -5 0 -9 6 -9
7 0 10 -6 8 -12 -3 -7 2 -19 9 -27 8 -7 12 -20 9 -27 -3 -8 -1 -14 5 -14 6 0
8 -7 5 -16 -4 -10 -2 -13 6 -8 7 5 9 1 6 -12 -3 -11 1 -25 9 -32 7 -7 13 -20
13 -29 0 -28 -26 3 -41 49 -31 97 -56 149 -62 131 -32 -105 -66 -178 -83 -180
-19 -2 -19 -2 0 4 15 4 16 7 6 13 -11 7 -11 12 -2 23 7 7 9 17 5 20 -3 4 1 7
9 7 12 0 14 6 10 22 -3 14 -1 19 6 14 8 -5 10 -2 6 8 -3 9 -2 16 4 16 5 0 10
6 9 13 -1 34 4 48 15 41 7 -4 8 -3 4 5 -4 6 -2 28 5 49 l12 37 13 -39 c8 -21
11 -42 8 -47z m2876 10 c0 -36 2 -40 15 -29 26 21 29 3 5 -29 -25 -36 -35 -40
-27 -11 3 11 1 20 -4 20 -5 0 -9 20 -9 45 0 25 5 45 10 45 6 0 10 -19 10 -41z
m-1180 11 c0 -31 -25 -73 -63 -107 l-34 -30 21 -26 22 -27 18 35 c11 19 26 35
35 36 11 0 12 2 3 6 -6 2 -10 9 -6 14 7 13 24 11 24 -2 0 -17 -70 -129 -80
-129 -5 0 -14 16 -21 34 -7 19 -17 33 -21 30 -11 -7 -38 14 -38 28 0 6 6 6 14
-1 12 -10 13 -8 9 8 -3 12 -1 21 4 21 23 0 99 90 95 113 -2 9 1 17 7 17 6 0
11 -9 11 -20z m396 -46 c-14 -27 -26 -55 -26 -61 0 -15 -16 -17 -25 -3 -3 6 0
13 9 16 8 3 12 12 9 20 -3 8 0 14 7 14 6 0 8 4 5 10 -9 15 25 74 37 62 6 -6 1
-26 -16 -58z m-226 -49 c0 -25 -40 -96 -50 -90 -5 3 -7 -1 -4 -9 3 -8 -8 -40
-26 -71 -34 -59 -33 -64 17 -108 18 -16 31 -32 29 -36 -3 -4 4 -14 15 -21 10
-8 19 -24 19 -35 0 -23 -42 -69 -53 -58 -4 3 -7 -1 -7 -10 0 -33 -53 -20 -95
22 -34 36 -36 40 -16 38 13 -1 32 -14 43 -29 10 -15 27 -28 37 -28 17 0 71 49
71 64 0 5 -27 39 -61 77 l-60 68 16 30 c8 17 20 31 26 31 6 0 7 5 4 10 -3 6
-1 10 6 10 7 0 10 3 6 6 -8 9 21 64 34 64 6 0 7 5 4 10 -3 6 -1 10 5 10 6 0 9
4 5 9 -3 5 1 15 8 23 8 7 12 19 9 26 -2 6 1 12 7 12 6 0 11 -7 11 -15z m-540
-25 c0 -12 -53 -65 -62 -62 -5 1 -7 -1 -7 -5 3 -20 -2 -34 -11 -28 -6 3 -7 -1
-4 -9 3 -9 1 -16 -5 -16 -6 0 -8 -7 -5 -15 4 -8 1 -15 -6 -15 -8 0 -10 8 -6
23 3 12 6 28 6 35 0 14 78 102 91 102 5 0 9 -4 9 -10z m740 -35 c0 -8 -4 -15
-10 -15 -5 0 -10 7 -10 15 0 8 5 15 10 15 6 0 10 -7 10 -15z m-606 -56 c-3 -5
0 -8 8 -7 7 2 13 -5 13 -14 0 -9 4 -20 9 -25 5 -5 6 -2 1 6 -5 10 -4 12 4 7 6
-4 9 -12 6 -17 -4 -5 -2 -9 4 -9 6 0 26 -14 45 -31 31 -26 34 -33 22 -45 -18
-18 -37 -18 -30 -1 3 8 -2 20 -11 27 -8 7 -15 19 -15 26 0 8 -6 14 -14 14 -8
0 -23 11 -34 25 -11 14 -23 25 -28 25 -13 0 -64 -53 -64 -67 0 -7 -7 -13 -15
-13 -8 0 -15 5 -15 10 0 6 5 10 11 10 5 0 7 5 4 10 -8 13 14 42 25 35 5 -3 11
4 15 15 4 11 11 18 16 15 5 -4 9 -1 9 5 0 6 5 8 10 5 6 -3 10 -1 10 5 0 6 5 8
10 5 6 -4 8 -11 4 -16z m636 -64 c23 -47 45 -83 50 -80 10 6 32 -20 23 -29 -4
-4 0 -4 9 -1 9 4 25 2 35 -4 11 -6 13 -11 5 -11 -7 0 -10 -5 -6 -11 3 -6 -8
-3 -25 6 -32 16 -87 71 -84 83 1 4 -5 10 -12 15 -23 12 -44 64 -32 76 8 8 8
11 -1 11 -7 0 -12 7 -12 15 0 27 8 16 50 -70z m780 74 c0 -6 6 -16 13 -23 25
-25 192 -267 187 -271 -3 -2 4 -11 15 -19 13 -10 43 -15 83 -16 57 0 62 2 62
22 0 12 -3 19 -6 15 -6 -5 -38 33 -92 111 -19 26 -21 32 -7 32 8 0 19 -8 22
-17 4 -10 15 -24 26 -32 15 -11 16 -15 6 -22 -11 -7 -11 -9 1 -9 22 0 70 -65
70 -94 0 -26 -1 -26 -79 -26 l-79 0 -32 40 c-20 25 -27 40 -18 41 7 0 2 5 -12
11 -16 7 -20 12 -12 15 10 4 6 9 -10 17 -12 6 -22 16 -21 21 1 6 -5 14 -14 19
-13 7 -13 10 -2 17 11 7 11 9 -2 9 -19 0 -62 57 -54 70 4 6 1 9 -6 8 -6 -2
-24 18 -40 45 -21 35 -25 47 -14 47 8 0 15 -5 15 -11z m-967 -19 c-3 -11 0
-20 6 -20 5 0 8 -7 5 -15 -4 -8 -1 -15 6 -15 6 0 8 -4 5 -10 -3 -5 -1 -10 5
-10 7 0 10 -6 8 -12 -3 -7 4 -22 14 -32 10 -11 16 -26 13 -34 -2 -7 -1 -11 4
-8 5 3 14 -1 20 -8 14 -16 -2 -32 -20 -20 -30 18 -95 204 -71 204 6 0 8 -9 5
-20z m-533 -134 c7 -23 20 -38 38 -45 15 -5 21 -10 14 -10 -7 -1 -10 -6 -6
-12 10 -17 -28 6 -50 29 -10 12 -15 26 -11 31 3 6 1 11 -4 11 -6 0 -11 7 -11
15 0 27 18 16 30 -19z m1130 26 c0 -14 -56 -63 -63 -55 -4 3 -7 1 -7 -5 0 -6
-10 -16 -21 -23 -15 -8 -19 -8 -15 0 4 6 1 11 -6 11 -20 1 34 29 56 30 11 0
16 3 13 7 -4 3 0 15 10 25 17 19 33 24 33 10z m150 -21 c0 -22 -13 -44 -47
-80 -48 -50 -64 -61 -73 -50 -3 3 18 25 45 49 28 24 49 45 48 47 -7 8 -2 24 6
19 4 -3 6 6 3 19 -2 15 0 25 7 25 6 0 11 -13 11 -29z m-2535 9 c-3 -5 -1 -10
5 -10 7 0 9 -7 6 -16 -3 -8 -2 -13 2 -10 12 7 35 -61 26 -75 -4 -8 -3 -9 4 -5
7 4 12 2 12 -3 0 -6 -6 -11 -13 -11 -6 0 -21 26 -33 58 l-20 57 -136 5 c-88 3
-134 1 -132 -5 2 -5 -14 -50 -35 -100 l-38 -90 -81 -3 c-52 -2 -82 1 -82 8 0
6 30 10 75 10 58 0 75 3 75 14 0 8 6 21 13 28 6 7 13 22 15 32 2 10 14 43 27
72 l24 54 146 0 c95 0 144 -4 140 -10z m1115 -20 c0 -6 7 -27 16 -48 8 -20 15
-39 16 -42 0 -3 16 -16 34 -29 19 -13 34 -29 34 -35 0 -8 -3 -7 -8 0 -4 7 -16
13 -27 15 -38 8 -111 149 -76 149 6 0 11 -5 11 -10z m320 -19 c0 -5 -8 -15
-17 -22 -14 -12 -16 -12 -9 1 4 8 -2 4 -14 -10 -12 -14 -19 -19 -15 -12 3 6 1
12 -6 12 -15 0 32 39 49 40 6 0 12 -4 12 -9z m1777 -31 c0 -18 -6 -30 -14 -30
-8 0 -13 12 -13 30 0 18 5 30 13 30 8 0 14 -12 14 -30z m88 20 c3 -5 2 -10 -4
-10 -5 0 -12 -8 -14 -17 -3 -11 -5 -7 -6 10 -1 27 12 36 24 17z m55 -2 c0 -9
3 -9 9 1 5 8 16 11 25 8 14 -6 15 -9 4 -21 -7 -8 -16 -12 -20 -9 -4 2 -5 -2
-2 -10 3 -8 -2 -17 -10 -20 -11 -4 -18 1 -22 18 -3 14 -10 25 -15 25 -5 0 -9
5 -9 10 0 6 9 10 20 10 11 0 20 -6 20 -12z m90 -73 l0 -86 -115 2 c-63 0 -115
5 -115 9 0 5 10 10 23 12 18 2 23 10 25 46 2 23 7 42 12 42 5 0 10 -19 12 -42
l3 -43 48 -2 c26 -1 45 2 42 7 -3 4 -1 19 4 32 9 21 10 21 10 -9 1 -23 6 -33
17 -33 12 0 15 12 14 68 -2 84 -2 82 10 82 6 0 10 -35 10 -85z m-3231 16 c11
-27 21 -61 21 -76 l0 -26 -86 3 -86 3 -13 33 c-12 28 -12 32 1 32 8 0 12 -4 9
-10 -3 -5 -1 -10 5 -10 7 0 10 -6 7 -14 -4 -10 11 -14 69 -15 l73 -2 -2 30
c-1 16 -6 29 -12 28 -5 -1 -9 6 -9 16 1 9 -2 17 -8 17 -5 0 -6 5 -3 10 3 6 1
10 -5 10 -6 0 -8 5 -5 10 12 19 23 10 44 -39z m2046 40 c3 -5 0 -13 -6 -17 -7
-4 -9 -3 -5 4 3 5 0 13 -6 15 -9 4 -10 6 -1 6 6 1 14 -3 18 -8z m-905 -11 c0
-5 -9 -10 -21 -10 -11 0 -17 5 -14 10 3 6 13 10 21 10 8 0 14 -4 14 -10z m870
3 c0 -5 -20 -8 -44 -8 -25 0 -42 3 -40 7 7 10 84 10 84 1z m-309 -17 c15 -6
23 -36 10 -36 -3 0 -19 11 -36 25 -24 20 -26 24 -10 21 11 -1 27 -6 36 -10z
m-352 -10 c10 -12 6 -15 -18 -21 -17 -4 -33 -11 -36 -16 -4 -5 2 -6 12 -2 11
4 14 2 8 -3 -48 -44 -65 -55 -75 -49 -8 5 5 24 37 55 55 54 56 55 72 36z m412
-49 c-12 -12 -31 0 -31 19 0 12 3 12 20 2 11 -7 16 -16 11 -21z m429 -12 c0
-9 -41 -11 -47 -3 -3 7 -1 8 5 4 7 -4 12 -3 12 3 0 6 7 8 15 5 8 -4 15 -7 15
-9z m-385 -23 c-8 -8 -25 10 -19 20 4 6 9 5 15 -3 4 -7 6 -15 4 -17z m-770 0
c-3 -3 -11 0 -18 7 -9 10 -8 11 6 5 10 -3 15 -9 12 -12z m-287 -11 c2 -7 -23
-11 -77 -11 -71 0 -92 6 -77 21 10 9 151 0 154 -10z m1122 -3 c0 -6 -6 -5 -15
2 -8 7 -15 14 -15 16 0 2 7 1 15 -2 8 -4 15 -11 15 -16z m250 12 c12 -8 11
-10 -7 -10 -13 0 -23 5 -23 10 0 13 11 13 30 0z m-923 -15 c0 -8 -4 -15 -9
-15 -10 0 -11 14 -1 23 9 10 10 9 10 -8z m852 -14 c-15 -5 -22 6 -14 19 6 9
10 9 16 -1 5 -8 4 -15 -2 -18z m491 19 c0 -6 -33 -10 -80 -10 -47 0 -80 4 -80
10 0 6 33 10 80 10 47 0 80 -4 80 -10z m-1450 -10 c0 -5 -7 -10 -16 -10 -8 0
-12 5 -9 10 3 6 10 10 16 10 5 0 9 -4 9 -10z m70 0 c0 -5 -11 -10 -25 -10 -14
0 -25 5 -25 10 0 6 11 10 25 10 14 0 25 -4 25 -10z m750 0 c0 -5 -7 -10 -16
-10 -8 0 -12 5 -9 10 3 6 10 10 16 10 5 0 9 -4 9 -10z m90 0 c0 -5 -11 -10
-25 -10 -14 0 -25 5 -25 10 0 6 11 10 25 10 14 0 25 -4 25 -10z"/>
<path d="M3590 1846 c0 -2 8 -10 18 -17 15 -13 16 -12 3 4 -13 16 -21 21 -21
13z"/>
</g>
</svg>
