<?xml version="1.0" standalone="no"?>
<!DOCTYPE svg PUBLIC "-//W3C//DTD SVG 20010904//EN"
 "http://www.w3.org/TR/2001/REC-SVG-20010904/DTD/svg10.dtd">
<svg version="1.0" xmlns="http://www.w3.org/2000/svg"
 width="225.000000pt" height="225.000000pt" viewBox="0 0 225.000000 225.000000"
 preserveAspectRatio="xMidYMid meet">
<metadata>
Created by potrace 1.16, written by Peter Selinger 2001-2019
</metadata>
<g transform="translate(0.000000,225.000000) scale(0.100000,-0.100000)"
fill="#000000" stroke="none">
<path d="M1010 2110 c-215 -21 -432 -124 -589 -281 -168 -167 -280 -413 -284
-626 l-2 -68 79 1 79 0 4 50 c20 289 193 550 448 675 55 27 127 56 160 65 84
22 256 29 340 15 317 -55 573 -292 656 -606 25 -95 30 -268 10 -360 -69 -321
-319 -571 -637 -637 -148 -30 -287 -19 -459 36 -17 6 -24 -3 -49 -64 -17 -42
-25 -75 -20 -80 5 -5 50 -21 99 -36 83 -26 104 -28 260 -28 199 -1 277 15 430
89 110 53 169 95 258 182 305 300 382 740 198 1127 -89 186 -239 339 -428 438
-174 90 -361 127 -553 108z"/>
<path d="M1110 1705 l0 -85 45 0 c139 0 309 -113 387 -257 97 -178 66 -412
-75 -562 -88 -93 -225 -151 -357 -151 -328 0 -562 316 -467 631 l14 46 -68 26
c-38 15 -72 27 -77 27 -17 0 -45 -118 -50 -211 -9 -195 54 -357 192 -494 131
-130 273 -188 456 -189 118 0 181 14 290 67 69 33 101 56 170 126 134 134 190
269 190 456 0 260 -139 480 -375 591 -66 31 -194 64 -250 64 -25 0 -25 -1 -25
-85z"/>
<path d="M1020 1451 c-97 -32 -187 -116 -216 -204 -48 -143 6 -306 128 -384
22 -13 44 -23 49 -21 15 5 71 142 60 146 -25 8 -65 49 -77 78 -31 73 -10 153
51 200 32 24 48 29 96 29 65 0 98 -18 137 -75 44 -65 23 -173 -43 -216 -14 -9
-25 -22 -25 -29 0 -23 52 -135 63 -135 20 0 78 43 116 86 52 59 76 130 75 219
-1 86 -25 145 -85 210 -64 70 -127 98 -224 101 -44 2 -91 0 -105 -5z"/>
</g>
</svg>
