<svg xmlns="http://www.w3.org/2000/svg" viewBox="0 0 24 24" id="Vegetable-Onion--Streamline-Ultimate" height="24" width="24">
  <desc>
    Vegetable Onion Streamline Icon: https://streamlinehq.com
  </desc>
  <path d="M9.179 0.94s1.114 4.355 0.667 4.538C4.823 7.533 0.572 9.515 0.572 14.961c0 4.97 5.255 8.5 11.428 8.5" fill="none" stroke="#000000" stroke-linecap="round" stroke-linejoin="round" stroke-width="1"></path>
  <path d="M12 23.461c6.173 0 11.428 -3.53 11.428 -8.5 0 -5.446 -4.251 -7.428 -9.274 -9.483 -0.447 -0.178 0.667 -4.538 0.667 -4.538" fill="none" stroke="#000000" stroke-linecap="round" stroke-linejoin="round" stroke-width="1"></path>
  <path d="M14.154 5.478c3.12 2.055 4.944 4.037 4.944 9.483 0 4.97 -3.264 8.5 -7.1 8.5s-7.1 -3.53 -7.1 -8.5c0 -5.446 1.824 -7.428 4.944 -9.483" fill="none" stroke="#000000" stroke-linecap="round" stroke-linejoin="round" stroke-width="1"></path>
  <path d="M12 5.478a15.15 15.15 0 0 1 2.74 9.483c0 4.97 -1.26 8.5 -2.74 8.5s-2.74 -3.53 -2.74 -8.5A15.15 15.15 0 0 1 12 5.478" fill="none" stroke="#000000" stroke-linecap="round" stroke-linejoin="round" stroke-width="1"></path>
  <path d="m12 5.478 0 -4.939" fill="none" stroke="#000000" stroke-linecap="round" stroke-linejoin="round" stroke-width="1"></path>
</svg>