<svg xmlns="http://www.w3.org/2000/svg" viewBox="0 0 16 16" id="Orcid--Streamline-Font-Awesome" height="16" width="16">
  <desc>
    Orcid Streamline Icon: https://streamlinehq.com
  </desc>
<!--! Font Awesome Free 6.5.2 by @fontawesome - https://fontawesome.com License - https://fontawesome.com/license/free (Icons: CC BY 4.0, Fonts: SIL OFL 1.1, Code: MIT License) Copyright 2024 Fonticons, Inc.-->
  <path d="M9.2109375 5.8809375h-1.435V10.6875h1.4834375c2.113125 0 2.5975 -1.604375 2.5975 -2.4034375 0 -1.30125 -0.829375 -2.403125 -2.6459375 -2.403125zM8 0.25C3.71875 0.25 0.25 3.71875 0.25 8s3.46875 7.75 7.75 7.75 7.75 -3.46875 7.75 -7.75S12.28125 0.25 8 0.25zm-2.5246875 11.27375h-0.9325v-6.484375h0.9325zm-0.46625 -7.223125a0.6115625 0.6115625 0 1 1 0.6115625 -0.6115625 0.61375 0.61375 0 0 1 -0.6115625 0.6115625zM9.375 11.53125h-2.53125V5.039375h2.51875c2.3978125 0 3.45125 1.7134375 3.45125 3.2453125C12.8125 9.9496875 11.511875 11.53125 9.375 11.53125z" fill="#000000" stroke-width="0.0313"></path>
</svg>