<?xml version="1.0" encoding="UTF-8" standalone="no"?>
<!-- Created with Inkscape (http://www.inkscape.org/) -->
<svg
   xmlns:svg="http://www.w3.org/2000/svg"
   xmlns="http://www.w3.org/2000/svg"
   version="1.0"
   width="308"
   height="193"
   id="svg2440">
  <defs
     id="defs2443" />
  <g
     id="g2451">
    <path
       d="M 0,96.5 L 0,0 L 154,0 L 308,0 L 308,96.5 L 308,193 L 154,193 L 0,193 L 0,96.5 z"
       id="path2455"
       style="fill:#f6d317" />
    <path
       d="M 0,96.5 L 0,0 L 154,0 L 308,0 L 308,96.5 L 308,193 L 154,193 L 0,193 L 0,96.5 z M 72,147 L 72,135 L 69,135 L 66,135 L 66,124.60478 L 66,114.20956 L 81.75,113.85478 C 96.580427,113.52071 97.830494,113.3377 103.16054,110.72022 C 114.81475,104.99706 119.86705,95.588168 120.73035,78 C 121.81373,55.927737 117.49359,44.348571 106,38.518641 C 96.988749,33.947834 88.296935,33 55.393036,33 L 25,33 L 25,44.5 L 25,56 L 28,56 L 31,56 L 31,95.5 L 31,135 L 28,135 L 25,135 L 25,147 L 25,159 L 48.5,159 L 72,159 L 72,147 z M 65,73 L 65,56 L 72.5,56 C 76.625,56 80,56.419676 80,56.932612 C 80,57.445549 80.870826,58.141614 81.93517,58.479424 C 85.31069,59.550772 87.32191,66.878217 86.785205,76.149479 C 86.341742,83.810037 86.109011,84.513407 83.139972,87.166242 C 80.25609,89.742991 79.289662,90 72.484223,90 L 65,90 L 65,73 z M 202.44942,156.10354 C 209.94337,153.08493 217.08966,146.46503 220.14244,139.71376 C 222.4914,134.51902 222.5,134.3559 222.5,95 C 222.5,55.881779 222.47769,55.450718 220.19189,50.401179 C 216.88018,43.085311 210.81248,37.585665 203.28155,35.073964 C 197.46918,33.135439 194.80803,33 162.53155,33 L 128,33 L 128,44.5 L 128,56 L 131.5,56 L 135,56 L 135,95.5 L 135,135 L 131.5,135 L 128,135 L 128,147.03738 L 128,159.07475 L 162.25,158.78738 C 195.73328,158.50643 196.63318,158.44635 202.44942,156.10354 z M 169,96 L 169,56 L 174.59887,56 C 181.22721,56 186.28413,58.133427 187.86144,61.595245 C 188.63719,63.29782 189,74.306711 189,96.142761 C 189,123.91689 188.78349,128.55793 187.37673,130.93939 C 185.38143,134.31717 180.99272,136 174.179,136 L 169,136 L 169,96 z M 280,147.5 L 280,136 L 277,136 L 274,136 L 274,96 L 274,56 L 277,56 L 280,56 L 280,44.5 L 280,33 L 256.5,33 L 233,33 L 233,44.5 L 233,56 L 236.5,56 L 240,56 L 240,96 L 240,136 L 236.5,136 L 233,136 L 233,147.5 L 233,159 L 256.5,159 L 280,159 L 280,147.5 z"
       id="path2453"
       style="fill:#003684" />
  </g>
</svg>
