<?xml version="1.0" standalone="no"?>
<!DOCTYPE svg PUBLIC "-//W3C//DTD SVG 20010904//EN"
 "http://www.w3.org/TR/2001/REC-SVG-20010904/DTD/svg10.dtd">
<svg version="1.0" xmlns="http://www.w3.org/2000/svg"
 width="512.000000pt" height="512.000000pt" viewBox="0 0 512.000000 512.000000"
 preserveAspectRatio="xMidYMid meet">
<metadata>
Created by potrace 1.16, written by Peter Selinger 2001-2019
</metadata>
<g transform="translate(0.000000,512.000000) scale(0.100000,-0.100000)"
fill="#000000" stroke="none">
<path d="M0 2560 l0 -2560 2560 0 2560 0 0 2560 0 2560 -2560 0 -2560 0 0
-2560z m1387 860 c159 -12 214 -23 300 -57 169 -68 243 -218 243 -495 0 -272
-70 -422 -233 -503 -87 -43 -165 -54 -369 -55 -175 0 -160 15 -156 -165 l3
-120 35 -3 c19 -2 39 -7 43 -11 4 -4 8 -74 8 -156 1 -113 -2 -150 -13 -156 -7
-5 -150 -8 -318 -6 l-305 2 -3 163 -2 162 40 0 c22 0 40 3 40 8 0 95 0 1034 0
1050 0 19 -5 22 -40 22 l-40 0 0 158 c0 87 3 161 6 165 11 10 616 8 761 -3z
m1558 -5 c117 -21 134 -26 178 -51 87 -49 151 -133 189 -249 19 -59 19 -1045
0 -1095 -62 -159 -146 -241 -307 -299 -65 -23 -215 -31 -576 -31 -309 0 -379
2 -388 14 -8 9 -11 61 -9 162 l3 149 40 5 40 5 3 537 2 537 -42 3 -43 3 -3
154 c-2 117 1 156 10 163 7 4 195 8 418 8 308 0 424 -4 485 -15z m1143 9 c22
-6 22 -8 20 -163 l-3 -156 -40 -5 -40 -5 0 -535 0 -535 43 -3 42 -3 0 -159 c0
-135 -2 -159 -16 -164 -9 -3 -150 -6 -314 -6 -241 0 -300 3 -309 14 -8 9 -11
61 -9 162 l3 149 43 3 42 3 2 525 c0 288 1 530 2 537 1 7 -17 14 -44 17 l-45
5 -3 149 c-2 101 1 153 9 162 9 11 67 14 303 14 160 0 301 -3 314 -6z m317
-1484 c3 -5 15 -10 25 -10 31 0 70 -61 70 -109 0 -68 -27 -103 -93 -119 -146
-38 -209 182 -66 233 44 16 56 17 64 5z"/>
<path d="M1183 3088 c-7 -9 -10 -84 -9 -228 l1 -215 87 -3 c67 -2 95 1 125 15
56 27 68 58 71 198 3 109 1 124 -20 165 -14 27 -35 51 -53 60 -41 20 -187 26
-202 8z"/>
<path d="M2595 3099 c-3 -8 -4 -255 -3 -549 l3 -535 81 0 c71 1 86 4 122 28
31 20 44 37 52 67 7 27 10 185 8 473 -3 480 -2 468 -70 503 -43 22 -186 32
-193 13z"/>
<path d="M4345 1916 c-48 -21 -69 -52 -68 -98 3 -71 79 -126 135 -97 52 26 68
50 68 100 0 40 -4 51 -31 73 -17 14 -34 26 -39 26 -5 0 -14 2 -22 5 -7 2 -26
-2 -43 -9z m72 -98 c2 -57 -13 -80 -24 -38 -3 11 -10 20 -15 20 -5 0 -12 -9
-15 -20 -13 -51 -38 14 -26 71 5 28 9 30 42 27 l36 -3 2 -57z"/>
<path d="M4370 1850 c0 -11 5 -20 10 -20 6 0 10 9 10 20 0 11 -4 20 -10 20 -5
0 -10 -9 -10 -20z"/>
</g>
</svg>
