<?xml version="1.0" encoding="UTF-8" standalone="no"?>
<!-- Generator: Adobe Illustrator 15.1.0, SVG Export Plug-In . SVG Version: 6.00 Build 0)  -->

<svg
   xmlns:dc="http://purl.org/dc/elements/1.1/"
   xmlns:cc="http://creativecommons.org/ns#"
   xmlns:rdf="http://www.w3.org/1999/02/22-rdf-syntax-ns#"
   xmlns:svg="http://www.w3.org/2000/svg"
   xmlns="http://www.w3.org/2000/svg"
   xmlns:sodipodi="http://sodipodi.sourceforge.net/DTD/sodipodi-0.dtd"
   xmlns:inkscape="http://www.inkscape.org/namespaces/inkscape"
   version="1.1"
   id="Layer_1"
   x="0px"
   y="0px"
   width="990.60895"
   height="990.60895"
   viewBox="0 0 990.60895 990.60895"
   enable-background="new 0 0 858 1061"
   xml:space="preserve"
   sodipodi:docname="Mossad_seal.svg"
   inkscape:version="0.92.3 (2405546, 2018-03-11)"
   style="image-rendering:optimizeQuality;shape-rendering:geometricPrecision;text-rendering:geometricPrecision"><metadata
   id="metadata49"><rdf:RDF><cc:Work
       rdf:about=""><dc:format>image/svg+xml</dc:format><dc:type
         rdf:resource="http://purl.org/dc/dcmitype/StillImage" /><dc:title /></cc:Work></rdf:RDF></metadata><defs
   id="defs47">
	
	
	

	
	
	
</defs><sodipodi:namedview
   pagecolor="#ffffff"
   bordercolor="#666666"
   borderopacity="1"
   objecttolerance="10"
   gridtolerance="10"
   guidetolerance="10"
   inkscape:pageopacity="0"
   inkscape:pageshadow="2"
   inkscape:window-width="1920"
   inkscape:window-height="1005"
   id="namedview45"
   showgrid="false"
   inkscape:zoom="0.5382129"
   inkscape:cx="-27.778156"
   inkscape:cy="401.34052"
   inkscape:window-x="-9"
   inkscape:window-y="-9"
   inkscape:window-maximized="1"
   inkscape:current-layer="Layer_1"
   fit-margin-top="0"
   fit-margin-left="0"
   fit-margin-right="0"
   fit-margin-bottom="0" />

<desc
   id="desc4">Emblem of Israel</desc>















<circle
   style="display:inline;opacity:1;fill:#ffffff;fill-opacity:1;stroke:#015498;stroke-width:10.71403885;stroke-opacity:1"
   id="path5359"
   cx="495.30444"
   cy="495.30444"
   r="489.94745" /><path
   style="display:inline;fill:#015498;fill-opacity:1;stroke:none;stroke-width:2.8347559px;stroke-linecap:butt;stroke-linejoin:miter;stroke-opacity:1"
   d="m 216.3974,189.16754 13.05452,-6.16645 12.13752,31.21888 13.96691,-8.42404 -5.89206,-15.26828 -8.93906,4.48601 -3.59414,-10.20342 c -0.90317,-3.35522 0.9075,-5.68709 3.44886,-7.22069 l 11.23946,-5.6029 c 7.27611,-3.53807 11.33546,-3.11166 14.85501,0.86233 l 7.02809,8.28174 c 3.34417,4.5821 4.17879,8.94281 -1.03821,16.85461 l -13.51562,23.99053 c -9.93334,17.5222 -5.23887,19.32256 0.49817,27.68451 l 36.66805,-64.90796 c -8.14019,-11.19446 -14.24419,-19.67378 -24.20192,-26.76379 -19.85291,-13.32987 -35.67198,8.19839 -56.12613,13.87499 z"
   id="path5211"
   inkscape:connector-curvature="0"
   sodipodi:nodetypes="cccccccccccccccccc" /><path
   style="display:inline;fill:#015498;fill-opacity:1;stroke:none;stroke-width:2.8347559px;stroke-linecap:butt;stroke-linejoin:miter;stroke-opacity:1"
   d="m 613.65294,856.50369 1.59029,-0.8476 c 7.95453,-4.11437 4.06459,1.5475 7.52489,7.49453 l 31.53111,30.63719 c -6.83233,8.81383 -14.18935,13.93623 -26.98728,18.69607 l 1.71886,19.18108 c 50.98201,-17.86745 59.64013,-57.85424 42.67372,-109.75975 0.22396,0.5882 -16.55408,2.78458 -20.99546,0.15591 l -0.25285,21.87183 16.6332,-1.31078 c 2.80228,15.70822 2.59077,32.64277 -7.38828,44.32339 L 624.7916,827.62007 c -2.34843,10.48633 -6.57285,15.17558 -11.13619,28.8839 z"
   id="path4885"
   inkscape:connector-curvature="0"
   sodipodi:nodetypes="cccccccccccccc" /><path
   sodipodi:nodetypes="cccccccccccccc"
   inkscape:connector-curvature="0"
   id="path4889"
   d="m 138.53955,634.39857 0.91499,1.55258 c 4.45157,7.77065 -1.37099,4.12742 -7.16888,7.83555 l -29.5582,32.65017 C 93.628972,669.98893 88.19568,662.85809 82.891481,650.27632 l -19.089726,2.53938 c 20.036957,50.16951 60.358165,57.10529 111.488575,37.92874 -0.58073,0.24381 -3.49225,-16.41948 -1.05643,-20.96925 l -21.86252,0.68573 2.02279,16.56178 c -15.57357,3.47313 -32.50154,3.98793 -44.59941,-5.481 l 58.07588,-37.25551 c -10.57725,-1.89701 -15.44399,-5.91642 -29.33493,-9.88762 z"
   style="display:inline;fill:#015498;fill-opacity:1;stroke:none;stroke-width:2.8347559px;stroke-linecap:butt;stroke-linejoin:miter;stroke-opacity:1" /><path
   sodipodi:nodetypes="cccccccccccccc"
   inkscape:connector-curvature="0"
   id="path4887"
   d="m 92.524885,395.52019 0.267885,-1.78249 c 1.439121,-8.83905 3.665401,-2.34123 10.50406,-1.56846 l 42.98053,-7.87439 c 3.00294,10.73976 2.7293,19.70042 -1.07899,32.81287 l 16.4243,10.05544 c 16.04907,-51.5832 -10.89265,-82.37347 -62.680461,-99.69638 0.606408,0.17292 -7.633314,14.9505 -12.394543,16.94701 l 17.409564,13.24172 8.86383,-14.13523 c 14.28193,7.11495 27.75195,17.38046 31.18034,32.3562 L 75.974,369.35965 c 7.01877,8.13689 8.265441,14.32431 16.550604,26.16027 z"
   style="display:inline;fill:#015498;fill-opacity:1;stroke:none;stroke-width:2.8347559px;stroke-linecap:butt;stroke-linejoin:miter;stroke-opacity:1" /><path
   style="color:#000000;font-style:normal;font-variant:normal;font-weight:normal;font-stretch:normal;font-size:medium;line-height:100%;font-family:DiplomaFb-Regular;-inkscape-font-specification:DiplomaFb-Regular;font-variant-ligatures:normal;font-variant-position:normal;font-variant-caps:normal;font-variant-numeric:normal;font-variant-alternates:normal;font-feature-settings:normal;text-indent:0;text-align:start;text-decoration:none;text-decoration-line:none;text-decoration-style:solid;text-decoration-color:#000000;letter-spacing:0px;word-spacing:0px;text-transform:none;writing-mode:lr-tb;direction:ltr;text-orientation:mixed;dominant-baseline:auto;baseline-shift:baseline;text-anchor:start;white-space:normal;shape-padding:0;clip-rule:nonzero;display:inline;overflow:visible;visibility:visible;opacity:1;isolation:auto;mix-blend-mode:normal;color-interpolation:sRGB;color-interpolation-filters:linearRGB;solid-color:#000000;solid-opacity:1;vector-effect:none;fill:#015498;fill-opacity:1;fill-rule:nonzero;stroke:none;stroke-width:2.5867753;stroke-linecap:butt;stroke-linejoin:miter;stroke-miterlimit:4;stroke-dasharray:none;stroke-dashoffset:0;stroke-opacity:1;color-rendering:auto;image-rendering:auto;shape-rendering:auto;text-rendering:auto;enable-background:accumulate"
   d="m 109.29258,238.15496 0.46071,44.01525 2.26807,-2.76899 7.19885,-8.82205 22.66832,21.15778 c 2.66674,2.48835 5.03198,3.8564 7.35155,3.26592 1.98158,-0.48645 3.64331,-2.28906 5.94298,-5.23693 l 16.37075,-20.98825 c 1.60044,-2.05208 3.1167,-3.38866 4.41748,-4.06448 1.2891,-0.67069 2.31285,-0.75233 3.38478,-0.35915 0.99535,0.43825 1.87282,1.00719 2.64262,1.71616 0.80569,0.7994 2.29249,3.13212 4.08332,6.74104 1.79032,3.61006 3.95832,8.53149 6.50622,14.76143 4.92428,12.24643 8.87562,22.9139 11.85573,31.99135 l 1.38607,4.21217 1.09522,-4.29465 c 1.03496,-4.02905 1.54966,-7.25358 1.52007,-9.77509 -0.11368,-6.22484 -1.09592,-12.60049 -2.94505,-19.12242 -4.27532,-15.45083 -8.3681,-27.17765 -12.34699,-35.24056 -0.97175,-1.95342 -2.03694,-3.80678 -3.18944,-5.53967 -0.585,-0.86347 -1.05535,-1.55685 -1.41738,-2.06116 -0.36642,-0.5026 -0.52926,-0.76509 -0.87962,-1.08457 -0.26789,-0.25513 -0.55498,-0.49495 -0.82389,-0.74781 -1.44244,-1.3363 -2.97777,-2.52576 -4.62654,-3.52728 l -0.16074,-0.0964 -0.18652,-0.0312 c -2.36824,-0.65682 -4.04347,-1.04999 -5.28235,-1.12143 -4.38224,-0.35463 -8.29696,1.58633 -11.31316,5.45293 L 145.492,271.9475 Z"
   id="path5416"
   inkscape:connector-curvature="0" /><path
   inkscape:connector-curvature="0"
   id="path5418"
   d="m 503.14825,32.385687 -34.42323,27.433634 3.57849,0.08504 11.38378,0.249459 -2.74122,30.886648 c -0.32248,3.633306 0.0536,6.339647 1.94612,7.805505 1.60345,1.260907 4.04552,1.464727 7.78417,1.464727 l 26.61786,0 c 2.60254,2.7e-4 4.58891,0.37389 5.92195,0.98337 1.32117,0.60437 2.01544,1.36154 2.3689,2.44413 0.27099,1.05311 0.35998,2.0963 0.27214,3.13863 -0.13494,1.12568 -1.05641,3.73509 -2.80441,7.36612 -1.74521,3.63104 -4.29216,8.36849 -7.63804,14.20837 -6.62727,11.41471 -12.60871,21.09143 -17.93358,29.02421 l -2.46908,3.68319 4.05957,-1.7788 c 3.81162,-1.6657 6.67259,-3.23871 8.6427,-4.81285 4.83898,-3.91791 9.2612,-8.61425 13.26654,-14.08335 9.55372,-12.87376 16.2834,-23.31275 20.19338,-31.40994 0.94284,-1.96704 1.74919,-3.94683 2.40586,-5.92182 0.32033,-0.99215 0.57854,-1.78872 0.75424,-2.38572 0.17264,-0.59785 0.27328,-0.889267 0.30965,-1.361253 0.032,-0.367389 0.0536,-0.743559 0.0856,-1.108391 0.17152,-1.959387 0.16074,-3.901761 -0.0643,-5.817206 l -0.0227,-0.184263 -0.0856,-0.164425 c -0.93428,-2.273758 -1.66262,-3.832873 -2.36459,-4.854803 -2.41527,-3.674413 -6.35407,-5.566333 -11.25832,-5.566331 l -32.16291,2e-6 z"
   style="color:#000000;font-style:normal;font-variant:normal;font-weight:normal;font-stretch:normal;font-size:medium;line-height:100%;font-family:DiplomaFb-Regular;-inkscape-font-specification:DiplomaFb-Regular;font-variant-ligatures:normal;font-variant-position:normal;font-variant-caps:normal;font-variant-numeric:normal;font-variant-alternates:normal;font-feature-settings:normal;text-indent:0;text-align:start;text-decoration:none;text-decoration-line:none;text-decoration-style:solid;text-decoration-color:#000000;letter-spacing:0px;word-spacing:0px;text-transform:none;writing-mode:lr-tb;direction:ltr;text-orientation:mixed;dominant-baseline:auto;baseline-shift:baseline;text-anchor:start;white-space:normal;shape-padding:0;clip-rule:nonzero;display:inline;overflow:visible;visibility:visible;opacity:1;isolation:auto;mix-blend-mode:normal;color-interpolation:sRGB;color-interpolation-filters:linearRGB;solid-color:#000000;solid-opacity:1;vector-effect:none;fill:#015498;fill-opacity:1;fill-rule:nonzero;stroke:none;stroke-width:2.5867753;stroke-linecap:butt;stroke-linejoin:miter;stroke-miterlimit:4;stroke-dasharray:none;stroke-dashoffset:0;stroke-opacity:1;color-rendering:auto;image-rendering:auto;shape-rendering:auto;text-rendering:auto;enable-background:accumulate" /><path
   sodipodi:nodetypes="cscscccccccccccccccc"
   inkscape:connector-curvature="0"
   d="m 120.95556,445.36457 c -1.44007,-7.77092 -3.48226,-9.6841 -8.34205,-10.62779 -2.81501,-0.54655 -10.92017,-2.89288 -16.163195,-3.74074 -5.711433,-1.53049 -7.513861,-0.11623 -8.53363,2.92547 l -5.364947,19.21539 42.148292,9.20389 z m -71.231854,24.04241 6.341857,-9.34505 c 3.488163,-5.13971 9.248366,-18.38425 12.800821,-29.43186 4.510724,-14.02836 7.005586,-20.34504 7.005586,-20.34504 0,0 36.7438,7.49566 50.37173,11.49436 4.36424,0.73903 5.74347,3.00286 7.342,6.15993 4.82538,10.7647 11.89743,36.47934 11.89784,45.04087 l 1e-5,10.31113 -56.738666,-10.20539 c -4.391575,-0.78636 -5.023071,-1.57784 -6.769568,-5.33643 -2.721252,-4.75559 -3.267256,-4.5427 -5.507338,-0.65455 -3.207783,5.72763 -5.491489,10.75875 -10.146181,17.14716 z"
   style="display:inline;fill:#015498;fill-opacity:1;stroke-width:2.8347559"
   id="path5215" /><path
   sodipodi:nodetypes="cscczcc"
   inkscape:connector-curvature="0"
   id="path5217"
   d="m 771.88944,312.90436 c 17.48928,-12.04885 49.08669,-29.57019 58.53615,-41.0776 3.98252,-4.84915 4.07327,-9.41508 0.79926,-14.33962 l 23.23029,-1.11973 c -1.93923,3.06523 -3.52244,6.74842 -0.83997,10.91551 2.68279,4.16738 5.52191,9.24415 -1.67922,13.1544 -39.68727,24.41888 -57.59042,27.34746 -80.04715,32.46704 z"
   style="display:inline;fill:#015498;fill-opacity:1;stroke:none;stroke-width:2.8347559px;stroke-linecap:butt;stroke-linejoin:miter;stroke-opacity:1" /><path
   sodipodi:nodetypes="ccccccccscc"
   inkscape:connector-curvature="0"
   id="path5219"
   d="m 369.43167,923.89685 20.37369,-44.1547 c 3.43696,-5.87669 6.16658,-11.53255 -1.11413,-14.3128 l -17.63774,-6.70382 c -6.21522,-2.22979 -5.08425,-5.37999 -2.71638,-9.48126 0,0 3.40702,-4.0054 4.55615,-11.5438 3.78389,6.55389 17.08429,11.65273 17.08429,11.65273 l 21.76868,8.67677 c 6.58628,2.53913 8.70127,4.78297 4.68327,13.59656 -16.60589,36.425 -34.385,48.39619 -46.99895,52.27084 z"
   style="display:inline;fill:#015498;fill-opacity:1;stroke:none;stroke-width:3.11100841px;stroke-linecap:butt;stroke-linejoin:miter;stroke-opacity:1" /><path
   sodipodi:nodetypes="ccscccccc"
   inkscape:connector-curvature="0"
   id="path5221"
   d="m 539.19491,884.82827 12.10479,-24.21022 c 0,0 1.08727,2.03252 2.51815,2.13656 18.20505,1.29888 34.83764,0.63527 50.86981,-10.113 1.20781,7.08633 0.63535,15.42278 -4.61827,22.25085 10.18657,20.42981 1.94235,41.78629 -2.37874,55.55696 L 586.15763,891.3984 c -1.3472,-4.15435 -4.5105,-7.40127 -11.72941,-6.80909 z"
   style="display:inline;fill:#015498;fill-opacity:1;stroke:none;stroke-width:2.8347559px;stroke-linecap:butt;stroke-linejoin:miter;stroke-opacity:1" /><path
   sodipodi:nodetypes="ccccc"
   inkscape:connector-curvature="0"
   id="path5223"
   d="m 546.44658,910.17582 c 0,0 1.59821,-3.49043 15.01152,-14.04169 3.71652,14.55705 1.09962,32.39986 -8.16601,41.50934 l -6.84498,6.4315 z"
   style="display:inline;fill:#015498;fill-opacity:1;stroke-width:2.73655701" /><path
   sodipodi:nodetypes="cccc"
   inkscape:connector-curvature="0"
   id="path5231"
   d="m 101.67416,742.77562 c 6.99203,5.44799 54.72015,13.99222 100.30474,-17.91198 l -34.49635,-17.89075 c -2.30939,18.70854 -16.74445,21.5004 -65.80798,35.80286 z"
   style="display:inline;fill:#015498;fill-opacity:1;stroke:none;stroke-width:2.8347559px;stroke-linecap:butt;stroke-linejoin:miter;stroke-opacity:1" /><path
   sodipodi:nodetypes="cccc"
   inkscape:connector-curvature="0"
   id="path5233"
   d="m 729.29621,886.07501 c 3.76933,-7.22722 3.58867,-51.8134 -32.82267,-87.75838 l -10.46578,34.16703 c 17.30424,-1.01145 22.22165,11.58253 43.28845,53.59135 z"
   style="display:inline;fill:#015498;fill-opacity:1;stroke:none;stroke-width:2.60674191px;stroke-linecap:butt;stroke-linejoin:miter;stroke-opacity:1" /><path
   style="display:inline;fill:#015498;fill-opacity:1;stroke:none;stroke-width:2.8347559px;stroke-linecap:butt;stroke-linejoin:miter;stroke-opacity:1"
   d="m 928.81779,597.56687 c -2.61227,-8.47025 -36.85044,-42.80312 -92.49056,-42.74699 11.98267,10.81885 14.81151,22.64091 18.03825,34.41931 4.09427,-4.55261 5.75527,-12.29205 11.00361,-10.71679 z"
   id="path5235"
   inkscape:connector-curvature="0"
   sodipodi:nodetypes="cccsc" /><path
   sodipodi:nodetypes="cccc"
   inkscape:connector-curvature="0"
   id="path5237"
   d="m 236.13898,269.52748 c 2.05772,-7.55604 -7.22406,-49.37294 -48.75359,-75.67182 l -2.83953,34.2138 c 16.03764,-4.48713 23.22685,6.33455 51.59312,41.45802 z"
   style="display:inline;fill:#015498;fill-opacity:1;stroke:none;stroke-width:2.50440598px;stroke-linecap:butt;stroke-linejoin:miter;stroke-opacity:1" /><path
   style="display:inline;fill:#015498;fill-opacity:1;stroke:none;stroke-width:2.59843087px;stroke-linecap:butt;stroke-linejoin:miter;stroke-opacity:1"
   d="m 157.86688,774.43536 c 18.79094,3.23389 40.14453,1.79367 63.21035,-11.33249 l -30.21534,-16.46162 c 5.06032,7.11721 -18.19433,18.43731 -32.99501,27.79411 z"
   id="path5241"
   inkscape:connector-curvature="0"
   sodipodi:nodetypes="cccc" /><path
   sodipodi:nodetypes="cccc"
   inkscape:connector-curvature="0"
   id="path5243"
   d="m 834.00342,317.22055 c 15.4111,2.01722 31.69655,1.14298 51.03993,-9.8451 l -28.63333,-17.29853 c 5.01848,6.26962 -11.92321,17.81984 -22.40702,27.14449 z"
   style="display:inline;fill:#015498;fill-opacity:1;stroke:none;stroke-width:2.23064184px;stroke-linecap:butt;stroke-linejoin:miter;stroke-opacity:1" /><path
   style="display:inline;fill:#015498;fill-opacity:1;stroke:none;stroke-width:2.23064184px;stroke-linecap:butt;stroke-linejoin:miter;stroke-opacity:1"
   d="m 312.63978,161.60322 c -1.80006,-15.43808 -6.61751,-31.01932 -21.98948,-47.10089 l -9.79757,31.98626 c 4.85668,-6.3955 20.18848,7.22011 31.78705,15.11463 z"
   id="path5245"
   inkscape:connector-curvature="0"
   sodipodi:nodetypes="cccc" /><path
   style="display:inline;fill:#015498;fill-opacity:1;stroke:none;stroke-width:2.64789796px;stroke-linecap:butt;stroke-linejoin:miter;stroke-opacity:1"
   d="m 303.69142,906.97286 c 8.19158,-1.20321 44.77042,-27.90964 52.65816,-79.28018 l -34.34708,11.74025 c 11.1395,13.63588 3.70609,25.18335 -18.31057,67.5402 z"
   id="path5247"
   inkscape:connector-curvature="0"
   sodipodi:nodetypes="cccc" /><path
   style="display:inline;fill:#015498;fill-opacity:1;stroke:none;stroke-width:2.8347559px;stroke-linecap:butt;stroke-linejoin:miter;stroke-opacity:1"
   d="m 550.14978,154.27368 c 8.43109,-2.73612 42.26121,-37.47067 41.39402,-93.103878 l -34.15271,18.537886 c 14.19789,12.399218 8.41822,25.917892 -7.2413,74.565702 z"
   id="path5249"
   inkscape:connector-curvature="0"
   sodipodi:nodetypes="cccc" /><path
   sodipodi:nodetypes="cccc"
   inkscape:connector-curvature="0"
   id="path5251"
   d="m 449.37931,149.24114 c 6.29943,-4.27992 25.8712,-41.05549 11.80313,-86.743824 l -23.72572,23.491056 c 14.68917,6.821557 13.16586,19.361388 11.92314,63.253328 z"
   style="display:inline;fill:#015498;fill-opacity:1;stroke:none;stroke-width:2.43558264px;stroke-linecap:butt;stroke-linejoin:miter;stroke-opacity:1" /><path
   style="display:inline;fill:#015498;fill-opacity:1;stroke:none;stroke-width:2.8347559px;stroke-linecap:butt;stroke-linejoin:miter;stroke-opacity:1"
   d="m 426.17859,875.72617 c 7.38808,-8.16553 13.4289,-16.16265 14.58706,-23.54917 6.32944,14.40424 25.9074,11.97571 40.78514,14.98196 l 1.58493,39.53975 c 0.21318,5.43309 0.98783,9.95112 9.37844,10.9895 l -6.07347,15.33036 -70.85322,8.42745 c 0,0 4.46752,-16.12325 4.16184,-18.10361 l 47.54472,-6.83714 -1.97373,-33.53177 z"
   id="path5257"
   inkscape:connector-curvature="0"
   sodipodi:nodetypes="ccccccccccc" /><path
   style="display:inline;fill:#015498;fill-opacity:1;stroke:none;stroke-width:2.8347559px;stroke-linecap:butt;stroke-linejoin:miter;stroke-opacity:1"
   d="m 258.3823,805.32585 c 10.355,-3.74613 19.44092,-7.97616 23.92841,-13.9572 -1.16635,15.69009 17.26351,22.72794 28.99283,32.36157 L 294.15861,859.394 c -2.36052,4.89846 -3.79501,9.25236 3.12807,14.10461 l -12.55396,10.69071 -66.52934,-25.78947 c 0,0 11.50803,-12.14438 12.16674,-14.03657 l 45.19737,16.26129 13.98408,-30.54024 z"
   id="path5259"
   inkscape:connector-curvature="0"
   sodipodi:nodetypes="ccccccccccc" /><path
   style="display:inline;fill:#015498;fill-opacity:1;stroke:none;stroke-width:2.63533115px;stroke-linecap:butt;stroke-linejoin:miter;stroke-opacity:1"
   d="m 904.64056,426.95062 c 8.76536,5.28792 17.13741,9.37681 24.08409,9.11865 -12.01665,8.33912 -6.31706,25.77057 -6.41296,39.88093 l -35.79601,8.48256 c -4.91958,1.1616 -8.90452,2.67239 -8.35832,10.51301 l -15.06872,-2.81331 -20.29901,-63.151 c 0,0 15.50677,1.20764 17.25963,0.57577 l 14.69946,42.16594 30.24494,-7.76837 z"
   id="path5261"
   inkscape:connector-curvature="0"
   sodipodi:nodetypes="ccccccccccc" /><path
   sodipodi:nodetypes="ccccccccccc"
   inkscape:connector-curvature="0"
   id="path5263"
   d="m 596.11373,100.24465 c 9.44114,-5.667532 17.54437,-11.565242 20.79801,-18.297223 1.87239,15.621489 21.31174,18.984643 34.67468,26.182943 l -9.96833,38.29528 c -1.37599,5.25989 -0.48856,5.02291 7.23872,8.45381 l -10.26426,12.90494 -72.53565,-3.5681 c 0,0 8.95854,-14.13012 9.24162,-16.11417 l 48.31291,3.10633 7.85146,-32.65923 z"
   style="display:inline;fill:#015498;fill-opacity:1;stroke:none;stroke-width:2.8347559px;stroke-linecap:butt;stroke-linejoin:miter;stroke-opacity:1" /><circle
   r="17.068136"
   cy="522.02216"
   cx="98.367348"
   id="circle5265"
   style="display:inline;opacity:1;fill:#015498;fill-opacity:1;stroke:none;stroke-width:2.67850971;stroke-opacity:1" /><circle
   style="display:inline;opacity:1;fill:#015498;fill-opacity:1;stroke:none;stroke-width:2.67850971;stroke-opacity:1"
   id="circle5267"
   cx="899.68604"
   cy="522.02216"
   r="17.068136" /><path
   inkscape:connector-curvature="0"
   id="path5269"
   d="m 855.2724,737.77787 2.57793,-6.46637 c 4.58612,-12.06216 -0.39001,-18.84092 -15.68192,-26.00236 -9.89637,-4.63483 -14.62919,-8.68598 -15.85486,-13.56856 -1.29704,-7.24649 -3.76963,-4.43498 -7.77893,0.60437 l -6.03125,7.56398 -9.78513,-26.12313 c 11.08505,-12.53812 21.20275,-27.16263 27.20421,-39.887 l 12.17909,-26.06275 10.87978,3.83826 c 19.78362,6.98002 27.9046,12.55399 36.50543,25.05443 4.67865,6.79888 8.50559,12.95795 8.50508,13.68535 4.8e-4,0.7274 -5.96678,-0.9247 -13.25911,-3.67016 -7.29255,-2.74604 -18.39227,-5.84101 -24.66566,-6.87883 l -11.40704,-1.88595 -8.56081,17.07827 c -8.10636,16.17058 -7.24848,17.83714 -2.50099,20.58855 23.35755,13.53483 35.27062,34.11402 35.27144,61.83084 3e-5,9.65519 -0.31607,19.11874 -0.31607,19.11874 l -3.79603,0.46291 c -2.18043,-8.26191 -7.86404,-13.20061 -13.48611,-19.28059 z"
   style="display:inline;opacity:1;fill:#015498;fill-opacity:1;stroke-width:2.79139471"
   sodipodi:nodetypes="cccccccccccccscscccccc" /><path
   inkscape:connector-curvature="0"
   id="path5271"
   d="m 691.93356,195.52023 5.57903,4.16368 c 10.46439,7.55151 18.29937,4.49962 29.1752,-8.41752 7.03847,-8.35969 12.17572,-11.88329 17.20952,-11.80307 l 7.1755,0.11338 -5.7454,-7.78366 -5.74516,-7.78368 27.76572,-2.69047 c 9.24108,13.95268 14.02019,22.36481 24.7578,31.45503 l 22.02247,18.50982 -6.52323,9.5157 c -11.86248,17.30279 -19.34816,23.70452 -33.64883,28.77675 -7.77829,2.75963 -14.71777,4.86189 -15.42051,4.67338 -0.70176,-0.18711 2.43735,-5.52437 6.97699,-11.8575 4.53975,-6.33313 10.40226,-16.25364 13.02828,-22.04477 l 4.77416,-10.52998 -14.86209,-12.10809 c -6.01815,-4.90301 -8.36561,-6.73085 -12.25255,-2.85715 -19.11878,19.05834 -41.75636,24.91722 -68.52958,17.74357 -9.32623,-2.49912 -18.38549,-5.25392 -18.38549,-5.25392 l 0.53569,-3.7861 c 8.5449,0.0312 14.78622,-4.17985 22.1141,-8.03654 z"
   style="display:inline;opacity:1;fill:#015498;fill-opacity:1;stroke-width:2.79139471"
   sodipodi:nodetypes="ccccccccccccccscscccccc" /><path
   inkscape:connector-curvature="0"
   id="path4933"
   d="m 338.02896,163.73354 6.84532,-1.26742 c 12.64949,-2.55298 15.73034,-10.3772 13.63435,-27.13201 -1.35618,-10.8438 -0.4532,-17.00769 3.0233,-20.64808 l 2.43829,-5.74889 -9.61533,-1.06813 -9.61499,-1.06814 16.88061,-22.208616 c 16.51752,2.692452 21.73974,5.176265 35.70423,3.468041 l 28.54228,-3.595605 2.55423,11.25058 c 4.64551,20.45815 4.26098,30.30043 -1.72741,44.24232 -3.25642,7.58383 -6.42574,14.10546 -7.04117,14.49325 -0.61176,0.39092 -2.39982,-5.54052 -3.96591,-13.17367 -1.56617,-7.63343 -2.34766,-17.8343 -4.8155,-23.69459 l -4.48738,-10.65556 -17.30114,1.56733 c -7.73113,0.70075 -8.10357,2.1272 -7.89881,7.61416 1.00282,26.97667 -10.0667,47.57202 -33.51459,62.35301 -8.16783,5.14876 -16.3418,9.92845 -16.3418,9.92845 l -2.41581,-2.96431 c 5.8265,-6.25092 6.97452,-13.69159 9.11882,-21.69013 z"
   style="display:inline;opacity:1;fill:#015498;fill-opacity:1;stroke-width:2.79139471"
   sodipodi:nodetypes="ccccccccccccccscscccccc" /><path
   sodipodi:nodetypes="cccccccccccccccscccc"
   inkscape:connector-curvature="0"
   id="path5277"
   d="m 864.09326,346.99151 c -0.58906,-0.5593 -16.94271,6.60442 -22.26086,9.39523 -6.93903,3.6401 -3.87493,6.81873 -3.82306,11.68884 l -10.48808,4.1308 c -4.91273,-3.28775 -15.20997,-14.20241 -15.20997,-14.20241 l 64.79143,-30.15698 18.68209,4.52794 -9.56733,20.9911 -11.75519,23.21409 c 13.61275,-0.24946 26.14047,-1.8973 38.28499,-4.8531 -3.31065,8.99412 -2.52693,19.21597 -1.23473,29.39246 l -10.94502,0.7308 c -7.81585,0.15874 -6.41559,-1.4307 -7.229,-8.10003 -1.00381,-5.75824 -2.77474,-8.08728 -5.77579,-8.34042 l -15.24786,-3.04878 c 0,0 -4.20744,12.3703 -4.46394,13.41491 -3.20686,13.07333 -5.76653,17.1945 -18.29433,21.06196 l -7.67992,2.14562 c 3.11909,-20.88081 15.22936,-49.86618 22.21678,-71.99117 z"
   style="display:inline;fill:#015498;fill-opacity:1;stroke-width:2.8347559" /><path
   sodipodi:nodetypes="cccccccccccc"
   inkscape:connector-curvature="0"
   id="path5279"
   d="m 154.9465,597.11529 -26.92587,-2.62101 -0.11878,10.27485 c -11.42448,-1.23595 -20.85745,-5.05522 -23.32745,-17.92104 18.83204,-2.32847 33.43366,-11.63017 39.39292,-26.12908 l -21.98756,-5.58419 c -3.49514,17.62113 -33.42855,18.65666 -67.484938,23.4131 13.341871,5.71402 26.402182,8.51958 38.317567,8.82658 l 0.351425,0.89352 c 11.124186,20.11373 28.648266,32.49706 57.835776,30.80557 0.38678,-8.36848 0.36857,-17.19564 3.95241,-21.95803 z"
   style="display:inline;fill:#015498;fill-opacity:1;stroke:none;stroke-width:2.8347559px;stroke-linecap:butt;stroke-linejoin:miter;stroke-opacity:1" /><path
   sodipodi:nodetypes="cccccccccscc"
   inkscape:connector-curvature="0"
   id="path5281"
   d="m 653.72893,165.4429 c 8.4251,-18.45001 21.09638,-38.66976 9.7877,-48.89671 l 16.9872,-6.73141 c 12.87024,20.63391 31.98236,21.70771 49.01094,25.52017 4.11933,0.705 8.23545,0.0737 7.71935,7.31623 l -0.46175,5.81578 c -0.74463,6.11939 -2.55939,5.45067 -6.55378,4.8772 l -7.60441,-1.85733 c -16.35378,34.92589 -27.36074,28.96242 -40.13841,36.54341 11.23249,-16.88608 28.53738,-40.95004 20.0483,-44.68909 -5.63578,-2.48239 -15.96101,-7.20765 -15.96101,-7.20765 -8.33467,13.74574 -20.15064,22.18991 -32.83651,29.30968 z"
   style="display:inline;fill:#015498;fill-opacity:1;stroke:none;stroke-width:2.8347559px;stroke-linecap:butt;stroke-linejoin:miter;stroke-opacity:1" /><path
   sodipodi:nodetypes="cccscccscsccsccccccc"
   inkscape:connector-curvature="0"
   id="path5283"
   d="m 724.32328,805.10843 11.95924,-10.24113 c 25.28566,20.5432 46.9337,34.43435 70.06725,38.81462 10.87913,-24.42228 13.90381,-44.36337 13.86697,-61.05357 -0.0644,-31.0675 -11.44293,-58.98475 -25.10013,-68.65835 -9.43701,8.4779 -14.40234,10.13029 -20.01156,12.7649 l 10.61988,20.02898 8.31376,-4.79556 c 3.7932,-2.18788 10.97491,-1.11349 11.16616,5.98048 0.032,4.66289 0.70822,11.77813 0.96532,16.64314 1.0125,19.23097 -4.72423,46.37179 -15.00617,58.29336 0,0 -12.36048,-5.23296 -17.51006,-9.6481 5.91157,-7.71678 8.29214,-15.00294 8.9383,-21.05402 2.27619,-21.32501 -5.62883,-32.05769 -13.75083,-43.9424 -4.24287,4.44887 -9.77623,7.85935 -16.81493,10.058 l 5.27807,22.75345 c 27.37403,-22.7183 20.34937,28.90543 12.57236,29.39954 -9.81107,-6.81504 -17.83469,-9.96785 -32.94041,-27.62668 -7.43113,3.30816 -14.4649,7.26123 -21.39305,7.68077 z"
   style="display:inline;fill:#015498;fill-opacity:1;stroke:none;stroke-width:2.8347559px;stroke-linecap:butt;stroke-linejoin:miter;stroke-opacity:1" /><path
   style="fill:#ffffff;stroke-width:0.79542321"
   inkscape:connector-curvature="0"
   id="path19"
   d="m 513.57864,572.41868 c -0.0938,-0.0621 -0.18935,-0.12728 -0.28149,-0.19559 -0.16469,-0.11764 -0.32772,-0.2435 -0.49157,-0.37543 7.9e-4,-10e-6 7.9e-4,-10e-6 7.9e-4,7.9e-4 l 0.051,0.0692 c 0.0493,0.0678 0.0947,0.14005 0.14083,0.21149 l 0.006,0.002 z" /><path
   style="fill:#ffffff;stroke-width:0.79542321"
   inkscape:connector-curvature="0"
   id="path21"
   d="m 512.14369,571.28521 c 0.21885,0.19646 0.43988,0.3842 0.66101,0.56238 -0.1854,-0.24009 -0.39772,-0.44307 -0.66101,-0.56238 z" /><path
   style="fill:#015498;fill-opacity:1;stroke-width:0.79542321"
   inkscape:connector-curvature="0"
   id="path23"
   d="m 667.92334,270.52778 c -8.15945,-2.88977 -17.16762,-0.6793 -21.92743,1.69981 -4.75902,2.37912 -8.32968,13.25812 -3.56907,18.01793 4.75902,4.75981 2.20968,16.99899 3.22943,21.758 1.01972,4.24996 -0.84952,11.55908 -0.84952,11.55908 -1.69901,2.37914 1.01975,11.21867 -0.50985,13.0887 -3.06001,3.39964 -1.52961,8.83954 -1.52961,8.83954 0,0 -0.84952,2.37992 -1.5304,5.77955 -0.50986,3.56984 -0.50986,9.51883 -0.50986,9.51883 0.50987,5.26967 -1.18995,11.21863 -1.18995,11.21863 0,0 -2.55014,10.02872 -5.2697,16.48833 -1.87003,4.07893 0.84952,5.94899 -3.90949,12.4086 0,0 -2.03947,8.32889 -3.23021,12.06894 0,0 -6.45885,6.28942 -10.02871,11.55913 0,0 -5.94895,7.98922 -8.49988,12.40858 0,0 -2.20889,2.88976 -6.2894,9.68905 0,0 -12.91768,5.10026 -14.95874,10.36914 -1.01974,2.37992 -12.23837,5.94976 -20.05819,12.74906 -1.18915,0.85028 -13.08789,5.6093 -15.12895,5.77952 0,0 -10.02868,0.85032 -12.91766,3.9103 0,0 -14.27865,2.88977 -16.65853,4.07892 0,0 -3.68126,1.01176 -7.09362,1.71733 -0.30545,-5.08912 -1.06587,-11.06592 -1.06587,-11.06592 0.55919,-0.7827 0.75169,-2.90648 0.77556,-5.63637 l 0.58461,0.0283 c 4.75902,0.17037 19.54756,-5.94897 19.54756,-5.94897 14.61826,-1.52959 21.75799,-8.83873 21.75799,-8.83873 7.98923,-1.18994 8.32968,-4.75981 8.32968,-4.75981 3.2302,-0.50986 10.87978,-4.07893 10.87978,-4.07893 4.4194,-0.6801 8.66853,-9.34861 8.66853,-9.34861 1.18917,-1.02053 5.77955,-5.77955 5.77955,-5.77955 6.28942,-2.88979 11.55829,-14.10842 13.08869,-16.14867 3.90949,-5.43911 5.09944,-9.51882 6.1192,-11.04843 2.72033,-3.39964 7.64878,-20.05819 8.83874,-24.64778 1.18993,-4.58958 2.72033,-6.45964 4.24995,-17.16842 1.6998,-12.40939 2.55011,-28.04741 2.55011,-28.04741 -0.17008,-8.32968 0.67929,-12.91926 0.67929,-12.91926 0,0 -1.53045,-5.60932 -1.5304,-10.36914 0,-4.75981 1.18995,-17.67827 5.94897,-24.81801 4.75983,-7.1397 -3.05919,-15.46858 -11.89873,-15.97846 -10.53936,-0.50986 -14.61828,3.56986 -19.37731,5.94899 -4.7598,2.37989 -10.70957,13.25889 -5.94976,18.01869 4.75982,4.75985 4.59038,14.6191 5.61013,19.37812 0.84952,4.24995 1.52961,12.74906 1.52961,12.74906 -1.86927,2.37909 -1.86927,7.13889 -1.86927,9.51882 0,2.37989 -1.36018,6.96948 -1.36018,6.96948 0,0 -1.0197,4.75901 -0.34041,8.32967 0.67928,4.24995 1.18993,8.83953 1.18993,8.83953 -4.7598,1.18998 -2.37992,13.59859 -2.37992,13.59859 0,0 -7.13969,10.53934 -8.83874,17.16837 -1.18994,4.42019 -4.07972,7.6496 -7.47936,14.10845 0,0 -4.07893,1.5296 -4.9292,2.71955 0,0 -10.7096,5.60933 -14.10844,13.76878 0,0 -9.51963,3.91029 -12.23918,8.32968 0,0 -9.34861,1.6998 -12.57804,4.93001 0,0 -15.12893,7.81901 -17.50885,8.66854 -0.94497,0.34834 -1.85967,0.53774 -2.79352,0.6212 0.13039,-6.82632 -0.27612,-13.63673 -0.98713,-20.06216 17.74271,-2.68295 32.76189,-10.38981 37.26798,-14.89508 4.58957,-4.75981 2.20969,-5.94976 5.77954,-6.9695 3.56985,-1.18996 7.64877,-11.89875 11.21864,-15.46859 3.23023,-3.23023 4.24995,-9.34943 7.64958,-16.99818 5.43911,-11.72932 5.43911,-23.1182 5.43911,-23.1182 4.58959,-5.94976 -1.18995,-15.29837 -1.18995,-15.29837 0,0 1.18996,-10.70801 1.18996,-15.29758 0,-4.75981 0.51065,-17.8485 2.20968,-25.49809 2.03868,-8.15945 2.3791,-12.91847 -5.78035,-15.80826 -7.98921,-2.88974 -20.73745,-3.05918 -25.49727,-0.67928 -4.5896,2.37913 -15.29838,13.59858 -10.53937,18.35838 4.75981,4.58959 10.53937,15.29836 11.72932,20.05818 1.18996,4.759 2.37909,18.18816 2.37909,18.18816 -1.6998,2.37988 0.67929,3.56987 0.67929,5.94895 0,2.37911 10e-6,4.07894 10e-6,4.07894 0,0 -1.86924,15.46859 -5.26888,17.84851 -3.56906,2.20968 -2.37992,8.15865 -2.37992,8.15865 -4.75901,1.18997 -7.1397,12.4094 -7.1397,12.4094 0,0 -7.47936,7.98922 -10.70877,10.02869 -6.96951,4.75981 -9.34943,4.24915 -16.48833,5.26969 -1.09132,0.18228 -2.69331,0.52338 -4.54505,0.91472 -0.32535,-5.30468 -0.21487,-9.0742 -0.21487,-9.0742 0,0 0.68008,-4.7598 0.68009,-9.51882 -10e-6,-4.75902 -2.37993,-5.26967 -2.37993,-5.26967 l 2.37913,-5.26967 c 0,0 2.37989,-1.18997 2.37989,-3.56987 0,-2.37991 -2.37989,-4.07973 -2.37989,-4.07973 1.18994,-1.87002 -1e-5,-11.21865 0,-14.78851 -1e-5,-3.56984 -1.18918,-8.32886 -1.18918,-8.32886 1.18917,-4.75981 0.50988,-13.59855 -0.51066,-16.48833 -1.18993,-2.88898 -2.37992,-9.51882 -0.67929,-12.91846 1.69983,-3.56987 8.32968,-14.27864 10.70878,-17.8485 2.20969,-3.39964 4.5904,-10.53937 -13.08866,-16.48833 -17.67832,-5.94976 -26.00716,1.86923 -31.78751,4.75901 -5.94897,2.88978 -3.56908,11.72932 -3.56908,15.29835 0,3.56908 11.21866,11.89876 11.21867,15.46862 0,3.39964 -1.18916,6.45962 -1.18915,10.02948 -10e-6,3.39964 -0.6801,6.45964 0.50985,8.15945 0,0 -4.07973,2.37912 -4.07973,4.07892 0,1.87007 2.37989,3.56986 3.56987,5.94979 1.18915,2.37989 -0.68008,2.37989 -0.68008,2.37989 0,0 -3.39965,4.07893 -2.88979,6.45885 0.50986,2.3799 1.18996,6.46041 3.56988,7.13971 2.37909,0.51068 -1.87086,2.88977 -10e-6,5.26969 0,0 -2.37992,2.37989 -2.37991,5.94896 -1e-5,3.56908 4.07892,7.6488 4.07892,7.6488 0,0 -3.56907,1.18995 -2.88899,3.56986 0,0 -1.87081,4.07973 -1.87082,7.13971 1e-5,2.28923 0.42952,7.56766 0.85985,14.64772 l -0.17973,-0.0295 c -7.13973,-1.01975 -16.48833,-3.06 -21.24814,-10.02871 -4.07972,-5.77953 -7.64959,-6.96947 -7.64959,-6.96947 0,0 -2.37989,-11.21866 -7.13891,-12.40861 0,0 1.18995,-5.94899 -2.37991,-8.32888 -3.56908,-2.37992 -5.77953,-14.78932 -5.77953,-14.78932 0,0 1.6998,-2.37989 1.6998,-4.58958 -1e-5,-2.37989 0.51065,-3.05919 -1.18994,-5.4391 0,0 0,-15.80825 1.18993,-20.56727 1.18996,-4.75981 7.13974,-15.46858 11.72853,-20.05817 4.7598,-4.7598 3.56987,-13.08868 -1.18994,-15.46861 -4.58962,-2.20968 -26.68726,-5.10023 -34.6765,-2.20968 -8.32967,2.88978 -14.27863,8.83874 -9.51962,15.80824 4.75981,7.13973 7.6488,18.35918 7.6488,23.1182 -1e-5,4.58957 1.18994,15.29836 1.18994,15.29836 0,0 -3.56907,8.32888 1.18995,14.10844 0,0 1.18997,14.95872 6.45963,26.68802 3.56988,7.64878 2.71956,14.44806 5.94897,17.67828 3.56986,3.56986 7.6488,12.40941 11.21866,13.59935 3.56908,1.18995 1.18995,2.2097 5.94897,6.96951 4.52359,4.69061 17.30204,15.15996 35.73042,16.439 -0.12898,1.8724 -0.12643,3.18091 0.13606,3.61916 1.18996,1.87005 2.3799,4.24916 2.3799,5.94899 0,1.15255 -1.63779,4.25788 -2.48252,8.52056 -2.13649,-0.55441 -4.62696,-1.36576 -6.01656,-2.06094 -3.90952,-1.69981 -15.63801,-7.30914 -15.63801,-7.30914 -3.23024,-3.22941 -12.74827,-4.41938 -12.74827,-4.41938 -2.55012,-4.41937 -11.38886,-7.64877 -11.38886,-7.64877 -3.56907,-5.4399 -7.13973,-8.66933 -7.13973,-8.66933 -0.84949,-1.18996 -7.98922,-8.49989 -7.98922,-8.49989 -4.75902,-6.45884 -8.49911,-10.70879 -10.36914,-14.78851 -2.71955,-6.45962 -8.83874,-14.10841 -8.83874,-14.10841 0,0 1.18994,-14.78851 -3.56907,-15.97847 0,0 -1.87003,-3.39964 -1.18995,-7.64959 0.67928,-3.56984 -0.17037,-8.32966 -0.17037,-8.32966 0,0 -1.52959,-4.58961 -1.52958,-6.96949 0,-2.37992 0.6793,-3.06001 -1.18997,-5.43912 0,0 0,-12.57882 0.84952,-16.82877 1.01975,-4.75903 -2.54932,-18.18814 2.03947,-22.94795 4.75901,-4.75981 2.37912,-14.44887 -2.2097,-16.82799 -4.75901,-2.37989 -15.63881,-4.59037 -23.62803,-1.6998 -8.32888,2.88898 -14.27865,8.83873 -9.51882,15.80824 4.75901,7.1397 7.64958,18.35836 7.64958,23.11818 0,4.7598 0.33964,12.57882 0.33964,12.57882 0,0 0.84952,4.75982 0.51064,13.0887 0,0 1.52961,13.25809 3.39885,25.6675 1.5304,10.70877 2.89058,12.57883 4.07973,17.16841 1.18992,4.5896 6.11919,15.29838 8.83874,18.86821 1.18997,1.52962 2.37992,5.43912 6.11918,10.87903 1.53041,2.04027 7.47857,16.82876 13.59859,19.71854 0,0 5.61009,3.9095 6.80007,4.75902 0,0 5.09943,9.17995 9.51882,9.68906 0,0 6.9695,5.43989 10.36913,5.94974 0,0 3.23022,5.26967 11.21865,6.45963 0,0 3.39963,5.43913 15.29838,6.45885 0,0 12.4094,5.60932 16.99819,5.4391 0,0 2.34253,0.59895 6.88995,1.147 0.31101,1.81832 0.67291,3.18567 1.09927,3.78223 0,0 -1.43015,9.02009 -1.6664,14.57612 -4.24595,-0.58383 -11.25205,-2.1675 -11.25205,-2.1675 -2.3799,-1.18919 -16.48833,-4.07894 -16.48833,-4.07894 -3.05998,-3.0592 -10.70878,-5.09947 -10.70878,-5.09947 -2.03946,-0.17036 -12.06894,-5.4391 -13.25892,-6.45961 -7.98922,-6.7993 -19.71774,-11.55911 -20.56726,-13.76877 -2.21045,-5.43991 -11.55988,-7.98925 -11.55988,-7.98925 -4.07893,-6.80008 -12.06815,-13.25889 -12.06815,-13.25889 -2.71955,-4.58963 -7.47937,-9.00897 -7.47937,-9.00897 -3.56906,-5.26967 -7.64879,-12.57884 -7.64879,-12.57884 -0.84951,-1.18995 -2.54932,-12.06815 -2.54932,-12.06815 -4.75982,-6.62985 -3.39964,-7.81981 -5.10026,-11.89875 -2.71876,-6.45962 -7.13971,-16.48832 -7.13971,-16.48832 0,0 -1.18918,-6.45962 -0.50988,-11.89872 0,0 -2.88975,-4.07894 -3.56905,-7.6488 -0.51068,-3.39964 0.34042,-8.15945 0.34042,-8.15945 0,0 2.03868,-3.06 -0.8503,-6.45965 -1.52958,-1.87003 -0.67931,-4.75981 -2.37989,-7.1397 0,0 -2.37914,-13.25812 -1.52961,-17.50808 1.01975,-4.75901 -2.71955,-18.18812 2.03947,-22.94794 4.75901,-4.7598 2.37991,-14.44887 -2.3799,-16.82796 -4.58961,-2.37991 -13.76877,-2.88978 -21.75803,0 -8.32885,2.88975 -10.70877,10.70878 -5.94896,17.67828 4.75981,7.1397 2.37992,14.78928 2.37992,19.5483 0,4.75981 -0.34045,10.879 -0.34045,10.879 0,0 0.34045,8.83953 0,17.16842 0,0 0.84951,9.68906 2.72034,22.09765 1.52882,10.70879 1.18916,9.68906 2.37913,14.10921 1.18997,4.75902 0.84949,17.16763 3.56984,20.73749 1.01973,1.5296 2.2089,5.43911 6.11839,10.8782 1.5304,2.04026 3.90953,15.63882 10.7096,20.90848 0,0 3.22942,12.40861 10.879,18.35839 0,0 5.26887,8.83874 7.64879,8.49908 0,0 5.26966,10.02872 8.49988,10.7088 0,0 2.71959,10.02948 10.7088,11.21865 0,0 4.93003,8.49909 12.91846,10.02867 0,0 6.79928,9.1792 15.29836,9.34863 0,0 -2.54933,6.79929 12.40939,6.79929 l 1.52961,0.68008 c 0,0 4.75981,3.56906 8.83874,3.56907 0,0 14.10844,5.78032 17.67907,5.26967 0,0 5.98159,0.78349 14.27864,1.61708 l 0,16.0604 c 0,0 7.6488,1.70062 7.6488,5.94976 0,4.07892 0,5.77955 2.88977,6.45885 0,0 2.37992,1.7006 0.6793,5.94896 0,0 -1.86924,2.37992 -1.86924,5.77956 0,0 -5.94979,2.37988 -5.94979,10.70957 l -4.07972,0 0,12.4094 7.64959,0 c 0,0 0.67929,1.18994 0.67927,2.88976 1e-5,1.86924 1.70064,8.83876 0.51069,10.70879 -1.18998,1.69983 -3.56986,4.07971 -4.75984,5.77955 -1.01971,1.87003 -14.61906,7.30914 -16.99818,34.33763 -0.6793,6.45882 -8.83874,8.15945 -16.48833,10.53855 l 122.72743,0 c -8.83794,-2.37911 -12.4086,-4.07973 -13.08789,-10.53856 -2.37989,-27.02769 -15.80904,-32.46758 -16.99898,-34.33762 -1.18915,-1.69983 -3.56907,-4.07972 -4.75902,-5.77955 -1.18994,-1.87003 0.51065,-8.83955 0.51065,-10.70878 0,-1.69983 0.67929,-2.88977 0.67929,-2.88977 l 7.6496,0 0,-12.4094 -4.07973,0 c -10e-6,-8.32969 -5.94975,-10.70957 -5.94975,-10.70957 0,-3.39884 -1.69984,-5.77956 -1.69984,-5.77956 -1.87003,-4.24915 0.50986,-5.94896 0.50986,-5.94896 2.89057,-0.67928 2.89057,-2.37992 2.89057,-6.45886 0,-4.24991 7.81903,-5.94975 7.81903,-5.94975 l 0,-16.3774 c 5.85273,-1.46833 14.34229,-3.85543 16.99819,-4.36133 3.56906,-0.51066 8.32967,-1.6998 12.4094,-2.88975 4.07893,-1.18995 3.56907,-3.56987 7.98922,-3.56987 14.44886,0 14.78852,-4.92845 14.78852,-4.92845 8.49988,-0.34046 12.4094,-9.51963 12.4094,-9.51963 10.19891,-1.87002 17.67906,-11.21944 17.67906,-11.21944 6.62906,-1.01972 10.0279,-10.53934 10.0279,-10.53934 3.23021,-0.67929 10.36914,-10.70802 10.36914,-10.70802 2.37989,0.33967 5.77953,-8.49986 5.77953,-8.49986 7.81903,-5.94899 11.05002,-21.92743 11.05002,-21.92743 6.79928,-5.2697 6.1184,-12.23919 7.6488,-14.44888 4.24995,-5.94895 4.58958,-13.76878 5.60933,-14.95872 2.55012,-3.56987 4.07972,-16.48832 5.26967,-21.24813 1.18997,-4.41939 0.84952,-3.56987 2.37992,-14.27864 1.6998,-12.23838 2.71955,-22.09766 2.71955,-22.09766 -0.33966,-8.15946 -1.87004,-16.48834 -1.87004,-16.48834 0,0 -0.34045,-6.11839 -0.34046,-10.87821 10e-6,-4.7598 -2.37991,-12.4094 2.37993,-19.5483 4.76218,-6.9727 2.38227,-16.49153 -5.77717,-19.38129 z m -60.17377,130.54724 c -1.5304,2.71955 -4.08051,6.11998 -6.46043,3.39963 -1.69901,-1.86924 -4.58959,-1.69904 -5.4391,-3.39963 -1.01972,-2.20971 2.55015,-2.03948 3.23023,-4.41939 0.6793,-3.22941 3.73927,1.53039 5.94897,1.69983 1.36016,0 3.39964,1.36017 2.72033,2.71956 z m 9.3486,-41.47577 c -1.01971,1.01974 -3.90949,0.84952 -5.43989,0 -5.32376,-2.99475 0.58782,-7.45708 2.11584,-11.31091 -0.144,-2.10628 -0.32532,-4.2555 0.4343,-6.02772 0.17009,-0.51067 0.1701,-1.52959 0.84951,-1.69982 1.18996,-0.6793 2.71954,0 3.23023,0.67929 4.58958,5.61091 3.56981,13.60014 -1.18999,18.35916 z m -13.93818,-72.24271 c 3.56987,-0.68009 6.9695,-0.6801 9.85925,-1.69981 0.85032,-0.34045 2.37913,-0.34045 3.23024,-1.36017 1.35938,-1.69983 1.87004,-4.07894 3.56904,-5.09948 1.70064,-1.02054 3.73931,0 4.42018,1.69982 0.84952,2.03946 0.50986,4.75982 0,6.9695 -0.68008,2.55015 -2.88978,4.58961 -3.73926,7.13973 -0.84953,2.20969 -0.1701,4.58958 -0.34047,7.13973 -1.01971,8.15945 0.34046,16.31889 1.36019,24.81798 0.17007,1.18997 -0.34044,4.07893 -2.3799,5.09946 -3.39964,1.7006 -6.96951,2.2097 -10.53937,2.2097 -0.86859,0 -1.28459,-0.81692 -1.31405,-1.72051 -0.0113,-0.33328 0.0335,-0.6785 0.12502,-0.99904 l -0.6793,1.6998 c -0.34046,-2.20969 2.20888,-2.03946 2.88895,-3.56987 0.51068,-1.18995 0.84953,-2.71955 1.01975,-4.07892 1.18995,-5.26967 -0.17008,-10.02948 -2.03946,-14.61907 2.20969,0.51066 3.74009,-1.18997 4.42017,-3.06001 1.7006,-5.26966 2.03947,-12.4086 -3.06,-15.46858 -2.03947,-1.18997 -5.26967,-1.01975 -7.81901,-1.87006 -2.04185,-0.51065 -1.02211,-2.89054 1.01814,-3.2302 z m -2.20968,79.04279 c 0.17036,-0.17035 0.67929,10e-6 1.01974,0 l 0.67931,2.3799 c 0.0541,-0.27044 0.14145,-0.52497 0.23216,-0.77236 0.19163,-0.52976 0.39372,-1.02847 0.27839,-1.60754 4.759,-0.34045 9.85924,0.50986 13.59854,3.56984 -1.69982,4.58961 -1.18915,10.19892 -4.58957,13.76878 -1.53041,1.5304 -5.09949,0.34046 -6.96952,-1.18995 -1.18993,-1.01971 -2.03946,-3.22941 -0.51065,-3.90949 3.39964,-1.69984 5.77954,-4.07972 4.07972,-7.47936 -1.52959,-3.06001 -5.60932,0.8495 -7.64878,-1.52961 -0.50987,-0.51144 -1.18915,-2.21128 -0.16953,-3.23021 z m -5.26968,22.60671 c 4.92924,-2.54932 10.19892,1.35938 15.12895,2.88978 0.51065,0.17009 1.36017,1.18997 1.01973,1.5296 -1.36018,1.52961 -4.07894,1.18995 -5.4391,0.33964 -3.05999,-1.87003 -6.62985,-1.52958 -9.51964,-3.39964 -0.34045,-0.33884 -2.04025,-0.8487 -1.18994,-1.35938 z m -11.7293,26.00798 c 1.18993,-0.6793 3.05997,-0.17038 4.58958,-1.3602 l -3.05999,0 c 0.99906,0 2.07846,-0.12416 3.05998,-0.36747 1.02452,-0.25454 1.94243,-0.64111 2.55012,-1.16131 1.36017,-1.18995 -1.36013,-4.92926 1.5304,-5.2697 3.56907,-0.50986 6.45885,2.03946 8.66773,4.58961 1.3602,1.52961 1.36019,4.07972 0.34044,5.43989 -1.01971,1.69902 -3.73927,1.52961 -5.26886,2.88899 -1.02055,0.84949 -1.02055,2.88975 -2.2105,3.74005 -0.67928,0.34047 -2.2089,1.18996 -2.3783,0.6793 -0.51069,-1.18995 -1.87086,-1.18995 -2.37992,-2.20969 -0.85032,-1.18995 -3.23021,-1.69981 -4.07973,-2.71956 -1.19074,-1.52957 -3.74088,-2.71956 -1.36096,-4.24992 z m -11.21866,11.72849 c 0.67928,-0.84949 2.03945,-1.18995 3.23022,-1.52958 1.69981,-0.67929 -0.17037,-2.03946 0.17009,-3.39963 0.50988,0.17007 0.84952,-0.17038 1.18997,-0.5099 -0.68007,0.17043 -1.01974,-0.34043 -0.68009,-0.51065 3.05998,-1.18994 4.42016,2.88978 5.78033,5.26968 0.33965,0.67929 -0.17037,1.69983 0.33965,2.20969 1.01972,1.35938 2.03947,2.55012 1.5304,4.24916 -0.17008,0.34042 -0.67929,0.84951 -1.18997,1.01971 -3.39964,1.01975 -5.09944,-2.88895 -7.64878,-4.58958 -0.51067,-0.17037 -1.18996,0.17036 -1.7006,-0.17037 -0.68089,-0.50827 -1.70223,-1.35779 -1.02134,-2.03867 z m -9.17918,13.25971 c 1.01973,-1.36017 3.73928,1.35937 5.94976,0.67929 l -1.70063,-1.18994 c 4.75901,-0.34045 1.5304,-3.90952 2.37992,-6.96951 2.71955,2.88979 5.94896,6.62906 4.41935,10.36915 -1.0197,2.37988 -4.58958,2.37988 -6.96947,3.2302 -3.39964,1.35938 -6.11919,-3.74007 -4.07893,-6.11919 z m 0.50986,-51.33502 c -1.01894,1.35938 -3.39885,1.35938 -4.24915,0 -0.34043,-0.34042 -0.84952,-1.01972 -0.84952,-1.70062 -0.17006,-0.8495 -1.18995,-1.86925 -1.01972,-2.03947 2.54932,-2.20966 5.77955,-2.3799 8.15944,-4.93001 2.03867,3.39964 -0.17092,6.11998 -2.04105,8.6701 z m 2.88978,-16.65935 c -1.36018,-0.50986 -4.42018,-1.86924 -6.45965,-2.88975 -1.0197,-0.33966 0.1701,-2.2097 0.6801,-2.54935 2.20889,-2.04026 4.75901,-1.52958 6.1184,-4.07972 0.85031,-1.87005 0.51064,-4.41936 2.21048,-4.93004 1.86923,1.36017 5.43909,0.51068 5.43909,2.37992 0.17094,4.7598 -3.9087,13.59934 -7.98842,12.06894 z m 10.36915,-19.20788 c -0.68009,-0.16953 -1.01976,0.50989 -1.18999,0.50989 -3.56986,0 -6.4596,-2.55015 -10.02867,-3.05921 -0.51067,-0.17037 -2.55013,-0.17037 -1.70063,-1.52962 1.36016,-2.03945 3.91032,-2.37989 5.61011,-3.74005 1.52961,-1.5304 5.4399,0.84952 5.77956,4.24995 -2e-5,0.16952 1.01972,0.84948 1.36017,1.35937 0.33885,0.50987 0.16952,1.36017 0.16952,2.20967 z m 2.55012,-16.99819 c 1.0197,2.20969 -0.34047,7.47935 -1.52961,7.30917 -5.43991,-2.03948 -12.91927,-3.22944 -11.05002,-5.60933 3.56985,-0.33967 5.26967,0.84952 8.83952,0.50984 1.02055,-1.69979 2.21049,-5.09946 3.74011,-2.20968 z m -26.17818,-43.34577 c -1.01973,-1.18997 -0.84954,-3.39964 1.18993,-3.90952 7.47937,-1.53038 14.44887,-0.17009 21.75804,-1.18995 2.71954,-0.34043 1.87003,1.69983 1.87003,2.03945 -0.34046,4.4194 -5.09948,9.00898 -2.71955,13.59856 3.73926,7.30913 1.5304,14.44887 3.2294,22.09767 0.51066,2.55011 -0.84952,4.93003 -2.03867,6.11919 -3.74005,3.56985 -9.68985,1.70059 -13.59934,-1.18995 -1.87004,-1.36017 -0.50985,-3.56987 2.03947,-4.07972 1.70062,-0.33967 3.39964,0 4.59037,-0.50989 3.7393,-2.03947 4.07973,-6.96948 3.22945,-10.19892 -0.84958,-2.88976 -4.58962,-2.88977 -7.81904,-2.55011 2.72035,-1.01975 6.62905,-4.75981 3.91031,-6.62905 -2.04027,-1.36018 -5.10025,-1.69984 -7.13972,-3.23023 -1.36017,-0.6793 -1.18997,-3.22942 -2.37991,-4.75982 -1.5312,-2.20807 -4.25075,-3.39884 -6.12077,-5.60771 z m -12.91848,100.63058 c 1.52961,-0.51069 3.73927,0.33963 4.92925,-0.34046 1.87003,-1.18994 3.2302,-3.23021 4.75901,-4.75981 2.03947,-1.87004 5.26967,0.51066 6.62905,3.23021 0.6801,1.35938 0,3.05921 -0.67929,3.90952 -1.18995,1.35938 -1.87003,3.39964 -3.39884,4.24993 -1.5304,0.67929 -2.89057,1.5296 -4.25075,2.20968 -4.24916,1.69984 -7.81898,-2.88977 -8.83795,-6.79928 -0.17038,-0.8503 0.50907,-1.53039 0.84952,-1.69979 z M 411.58789,290.75618 c -1.70062,-2.04026 -0.34045,-4.75981 1.6998,-5.43991 5.2697,-2.03945 11.21868,-1.69979 16.999,-0.50985 1.69903,0.16952 3.56906,0.33963 5.26889,0.84949 2.88975,0.84952 5.09944,3.39967 3.9095,6.2902 -1.69983,3.90954 -4.92924,6.96951 -6.62905,10.87821 -2.20968,5.09947 0.6793,10.7088 -0.17037,16.31893 -0.84951,5.26966 -4.41937,8.83954 -9.51882,10.02948 -1.70063,0.33964 -3.56987,0.33963 -4.42018,-1.18994 -3.39885,-5.60933 4.59041,-6.28942 6.62907,-10.02952 0.51066,-1.01971 0.6801,-2.71954 0,-3.22941 -2.88898,-3.05917 -4.24915,-6.45963 -6.28862,-9.68905 -1.87085,-3.2302 0.84953,-6.9695 -1.36017,-9.85926 -1.52961,-2.03946 -4.58879,-2.54935 -6.11918,-4.41937 z m 2.88979,47.25529 c -0.33967,-0.33963 -0.33967,-1.5296 0,-1.5296 2.51749,-1.0587 5.3452,-0.98475 8.15944,-0.89882 0.79699,0.0227 1.59242,0.0493 2.3791,0.0493 l -2.3791,0 c 3.73927,0.51065 7.64957,-1.18998 11.04921,0.84948 0.34045,0.17008 0.34048,1.18997 0,1.5296 -2.72036,2.89059 -6.45883,0.68009 -10.0287,1.53041 -3.06076,0.6793 -6.63064,1.5296 -9.17996,-1.5304 z m 16.48829,14.27864 c 0.16952,2.55011 -5.09943,2.88977 -7.81899,3.39964 -10e-6,-0.34043 0,-1.87003 0,-2.20969 3.05919,0.17037 7.30913,-4.75981 7.81899,-1.18995 z m -6.79927,13.93901 c -0.12815,0.12865 -1.03403,0.54804 -1.68867,0.15591 -0.017,0.16215 -0.0493,0.32373 -0.10828,0.48758 -0.0828,0.23613 -0.21572,0.47567 -0.41283,0.71589 l 0,-1.87004 c 0.12334,0.33166 0.3102,0.53929 0.52021,0.66575 0.13294,-1.40947 -1.147,-2.73704 -0.35001,-4.06541 0.50988,-1.01973 1.86926,-1.36017 2.88898,-1.69981 3.9103,-1.35938 8.15945,-1.18994 12.23997,-0.51065 1.5296,0.34043 3.56907,1.53037 2.2089,2.37989 -4.75902,3.06079 -10.879,-1.01892 -15.29839,3.74089 z m 10.19891,16.48833 c -1.18996,0.34038 -1.69981,1.87002 -2.20966,1.69979 -1.86927,-0.67928 0.17008,-2.03945 -0.33966,-3.56986 1.01974,0.17038 0.84951,-2.37988 2.03947,-2.03946 -0.34043,-4.58958 3.7393,-7.98922 7.47857,-6.62905 1.36016,0.34046 3.06079,2.20969 2.37992,4.07893 -1.69904,3.7393 -5.26892,5.60933 -9.34864,6.45965 z m 6.28941,8.83874 c -1.36016,-1.69983 0.51069,-4.24916 2.55015,-5.77957 2.3791,-2.03945 4.24913,-4.07971 6.96948,-2.03945 0.50988,0.34045 0.34046,1.70062 0.17036,2.71955 -0.8503,3.05921 -4.25074,2.54932 -6.11919,4.58961 -0.8503,1.02051 -3.05997,1.18993 -3.57064,0.50985 z m 37.39684,24.30812 c -8.15945,0.33965 -16.1487,-2.3799 -23.45783,-6.11919 -5.60932,-2.71955 -11.89874,-7.30915 -8.32968,-13.42912 1.5304,-2.71955 3.39964,1.87003 4.93004,4.07972 v 0 c 6.45883,9.68826 18.01794,9.00897 27.36734,13.93819 0.33962,0.17093 0.33967,1.53038 -0.50987,1.5304 z M 367.562,289.56623 c -1.0197,-1.87003 0.16952,-3.56986 1.18996,-4.92925 0.16952,-0.34042 0.84952,-0.17006 1.18996,-0.17008 -0.17037,0.17008 -0.17037,0.17008 -0.34045,0.34046 5.60934,0.33963 8.15946,-0.85033 13.59855,-1.01975 0.68009,0 3.56987,1.52961 4.08052,1.52961 -1.18995,3.39963 -1.36017,8.15944 -1.7006,11.55907 -0.67929,6.1192 -0.50989,12.06899 0.51066,18.35836 0.6793,4.92926 -0.68008,9.68907 -0.51066,14.61831 -0.17036,-10e-6 -0.50988,0 -0.50988,0.16954 -0.68008,3.74007 0,0 -2.04026,3.39965 -0.50986,1.01972 -2.03946,1.18994 -3.05917,0.84952 -1.5304,-0.67926 -2.89057,-2.54933 -2.37992,-4.24993 2.03947,-7.30916 3.39884,-6.79927 2.55015,-14.27864 -0.34046,-2.71876 -2.03947,-5.43913 -4.24995,-7.13973 -0.68009,-0.50985 -1.5304,-1.18995 -1.87083,-2.03946 -1.69904,-3.74009 0,-8.15944 -1.52961,-11.89874 -1.01895,-2.20887 -3.73771,-3.05919 -4.92845,-5.09866 z m 2.55012,49.63519 c -0.16949,-0.34044 -0.16951,-1.52958 0,-1.52958 2.64321,-1.05713 5.39061,-0.98474 8.15946,-0.89964 0.79304,0.0227 1.58448,0.0502 2.37991,0.0502 l -2.37992,0 c 3.73931,0.50986 7.64959,-1.18995 11.21867,0.84951 0.17008,0.17009 0.34048,1.18994 -10e-6,1.52958 -2.71954,2.88979 -6.62905,0.68009 -10.02869,1.53041 -3.05999,0.67929 -6.79927,1.5296 -9.34942,-1.5304 z m 11.89876,19.71774 c 3.06081,-0.84944 2.55011,-4.24913 3.91028,-5.6093 2.54935,-2.55016 4.41939,1.87003 4.92925,4.24913 1.01974,4.75981 -4.42019,5.77956 -8.32967,4.42017 -1.01973,-0.33964 -2.03948,-2.55012 -0.50986,-3.06 z m 7.30915,27.36815 c -0.67929,0.67926 -2.71956,0.33962 -3.22942,-1.01975 -0.34043,-1.01972 0.50986,-2.2097 1.01973,-2.04026 1.69903,-8e-4 3.56986,1.35938 2.20969,3.06001 z m -2.20887,10.02868 c -1.18998,0.50986 -2.37993,-0.50986 -3.39963,-1.18994 -0.34047,-0.17038 -0.17038,-1.18998 0,-1.5296 2.20965,-1.35939 4.58958,-2.21049 6.96946,-3.06002 0.50989,0 1.01975,1e-5 1.18998,0.17037 2.03784,2.88978 -2.38071,4.75981 -4.75982,5.60933 z m 3.56904,11.04923 c -0.68008,0 -2.37989,-1.18998 -1.5304,-2.55015 0.84952,-1.18995 2.55015,-1.18995 3.91032,-1.86924 v 0 c 0.16951,-0.16951 0,-1.02051 0,-1.02051 1.52882,-0.50986 3.22941,0 4.75901,0.51065 -1.01974,2.889 -4.24916,5.09865 -7.13893,4.92925 z m 131.56697,49.80462 c 2.89058,-1.01975 5.60933,-1.35938 8.32969,-2.55012 17.50883,-6.79928 20.05819,-10.87821 23.79825,-11.89874 1.18915,-0.33965 6.79927,6.11918 5.26887,6.9695 -7.81898,3.74007 -13.59854,6.45961 -26.17735,11.21942 -11.72851,4.41939 -16.65778,4.41934 -29.06716,3.74009 -1.18995,0 -3.90949,-1.6998 -8.32889,-2.20969 -1.70059,-0.16952 -4.7598,-1.0205 -3.56983,-1.6998 9.17916,-5.4399 20.05816,-0.17094 29.74642,-3.57066 z m -12.4078,28.38784 c -2.89058,1.69983 -6.45962,1.18997 -9.17917,0.17037 -4.07973,-1.52961 -3.39964,-7.30914 -5.09947,-11.21943 -0.34039,-1.18998 -1.87004,-1.69903 -2.89058,-2.20969 -2.88978,-1.36017 -6.62904,-1.36017 -8.66851,-4.41938 0.84952,1e-5 1.53041,0.50989 2.37989,0.50988 8.83878,0.85029 17.6783,1.7006 26.51704,1.36019 -0.85031,5.09863 2.71957,12.57879 -3.05921,15.8082 z m 14.10843,-78.19245 c 2.03948,-1.01976 4.24913,-2.89058 6.28861,-3.91032 1.53038,-0.84949 3.06,-3.0592 5.09946,-2.20968 3.05997,1.36018 3.91029,5.77953 2.03947,7.1397 -6.79928,5.43912 -14.78853,7.30918 -23.28761,9.34943 -8.83874,2.03946 -27.36654,3.22941 -26.51702,-4.07972 1.5797,-10e-6 3.94289,0.39134 6.11919,0.68882 0.70714,0.0978 1.39436,0.18369 2.02992,0.24491 l 0.81133,-0.0493 c 9.80917,-0.63714 18.25975,-2.98363 27.41666,-7.17392 z m -22.26789,-45.04644 c 2.54933,-2.54933 -1.53039,-4.24913 -0.17036,-5.4391 3.56907,-2.88975 6.79927,5.77955 4.92925,8.4999 -2.88979,4.24916 -9.17917,2.37994 -14.10842,1.86924 -1.53039,-0.16952 -2.71954,-2.88895 -1.18998,-3.39964 3.23025,-1.18995 6.96952,-0.16952 10.53937,-0.50986 10e-6,-7.9e-4 -0.17038,-0.8503 10e-6,-1.02053 z m -4.7606,18.86826 0,2.37989 c 0.12898,-0.47089 0.21317,-0.94815 0.26873,-1.42621 0.3842,-3.32803 -0.66973,-6.79847 1.26077,-9.62221 0.85031,-1.18997 3.40042,-1.36017 4.93004,-1.18997 0.84949,0.16953 1.52957,1.87006 1.52958,2.71956 0.51067,5.77956 3.23025,12.40938 -0.33964,16.48833 -3.56987,4.24994 -12.06897,2.37991 -18.18817,0.84951 -2.03946,-0.50985 -2.55012,-4.41938 -1.01971,-5.09947 3.73927,-1.52957 7.81899,-3.05998 11.55829,-5.09944 z m -14.6183,-92.47114 c -0.50985,-0.16951 -1.87003,-1.35938 -1.18994,-2.54932 0.17009,-0.17009 0.68008,0 1.18995,-10e-6 l -0.6793,1.69981 c 0.22111,-0.15025 0.44466,-0.28555 0.67216,-0.40723 3.60804,-1.93289 7.89853,-0.36353 11.73644,-1.80244 1.53041,-0.67929 2.2097,-2.55013 4.07973,-2.55014 -0.34039,-1.52959 1.52961,-1.699 1.69983,-2.88896 0.51066,-2.04029 -0.33966,-3.91032 -0.50986,-5.94898 7.47858,0.17008 14.27864,8.32887 11.89951,15.12894 -0.85031,2.37992 -2.37989,4.41939 -4.59036,6.45886 -2.54853,2.37988 -3.22941,6.28942 -4.07894,9.85924 -2.03947,8.15945 4.24915,15.2984 3.05918,23.45784 -0.50986,2.88898 -1.01891,5.60933 -3.39884,7.64879 -1.52957,1.18995 -3.56983,1.18995 -5.09944,0.34043 -3.39885,-1.53037 -8.15865,0.84952 -10.19892,-3.91029 4.75903,-1.01971 9.34939,-2.88978 11.04924,-7.6488 1.87003,-4.75981 1.53036,-9.85924 0.34041,-14.61906 -1.5296,-6.11919 0.84952,-12.74906 -2.54932,-17.33864 -2.72273,-3.39964 -8.84192,-3.06001 -13.43153,-4.93004 z M 480.602,423.85355 c 0.50986,-0.51069 1.87003,0 2.71877,-0.34046 9.34939,-2.55009 18.69881,3.39964 27.19788,-0.50986 1.18995,5.09945 1.35938,10.36915 0.17037,15.29836 -1.01973,4.41939 -7.81902,7.13973 -11.55907,4.24996 -5.26968,-4.07974 -5.77956,-11.89872 -11.72853,-15.63882 -1.36017,-0.84952 -3.39964,-0.84951 -5.09947,-1.18995 -0.85028,8e-4 -2.71955,-0.84952 -1.69981,-1.86922 z m -73.7731,1e-5 c -0.34046,-0.17009 -1.70063,-0.34047 -1.87007,-1.35939 -0.34042,-2.55015 1.18998,-5.43989 4.07893,-5.2697 -0.33963,-0.33963 -0.84949,-0.50986 -1.18914,-0.67929 2.37913,-0.51066 4.92924,-2.20967 6.45964,-1.52958 2.03868,1.18836 -4.93004,10.02789 -7.47936,8.83796 z m 17.33781,7.30912 c -0.17008,0.34043 -1.18915,1.01972 -1.35937,1.36017 -0.8495,2.88978 -2.3799,4.41936 -4.42015,5.4399 -2.03947,1.01975 -4.07893,-2.04026 -3.39885,-4.24995 0.33964,-0.68009 1.01972,-1.18995 1.69981,-1.87003 3.06,-2.37992 5.78036,-8.4999 9.17919,-4.93004 0.50908,0.68009 -1.19074,2.72034 -1.70063,4.24995 z m 2.20971,11.21866 c -0.67931,-1.87006 0.8503,-3.06001 2.72033,-3.39967 l -1.70059,10e-6 c 3.2302,-2.88976 5.77953,-8.66931 10.53933,-8.32965 -2.37989,5.09944 -3.39963,10.70877 -6.80007,15.12895 -1.86844,2.37989 -4.07893,-1.18998 -4.759,-3.39964 z m 52.86541,18.86901 c -20.90772,-1.87003 -27.70699,-5.43989 -40.45602,-11.38965 -1.18995,-0.50989 -3.23021,-2.20968 -2.88978,-3.73929 0.34045,-1.18994 2.71956,-1.87004 4.07972,-1.18996 3.90953,2.37989 15.12895,10.53934 34.84669,13.42832 1.52961,0.1701 6.45965,0.34046 6.62987,1.35939 0.16955,0.8503 -1.53119,1.53118 -2.21048,1.53118 z M 325.23675,329.85202 c 6.45882,-3.91028 4.92924,-12.57883 7.13972,-18.86821 0.093,-0.093 0.29101,-0.0831 0.53131,-0.0564 0.51625,-1.49221 1.51688,-2.34091 2.18741,-3.6828 2.37913,-3.90949 0.17037,-7.64959 -1.87003,-10.879 -1.36016,-2.20969 -4.58957,-2.37992 -6.11918,-4.41938 -1.52961,-2.20967 1.01974,-3.74007 2.37991,-4.07973 3.9095,-1.36017 6.28942,-3.22941 9.00897,-6.11919 1.18994,-1.01971 2.37989,1.52961 2.03946,3.23024 v 0 c 2e-5,-0.16952 0,-0.50989 0,-0.68009 -1.18997,4.07972 -2.3799,7.98922 -1.70062,12.40937 2.3799,12.57883 -0.33966,24.47758 -1.18995,36.54653 -4.07813,0.84872 -12.23758,3.22781 -12.40702,-3.40123 z m 10.20687,31.35479 c -1.7563,-1.7364 -6.52089,-0.42077 -4.938,-2.79752 1.5304,-2.20969 4.93004,-3.39963 7.47937,-5.4399 2.89056,-2.20968 1.36016,-7.13969 3.91032,-10.02867 0.50986,-0.84952 1.35938,0.50986 2.20887,0.34042 -0.17008,4.92925 1.5296,10.36914 -0.50987,14.6183 -1.2822,2.42207 -4.83296,3.29067 -8.15069,3.30737 v 0 c 0.12811,0.12728 0.23955,0.26958 0.3325,0.4319 l -2.20969,-0.51065 c 0.27354,0.0255 0.55519,0.0436 0.83917,0.0564 0.34121,0.017 0.68722,0.0255 1.03802,0.0227 10e-6,7.9e-4 0,0 0,0 z m 0.3325,31.19969 c 1.18915,0.33962 1.01893,-2.04026 2.37909,-1.18998 -0.34042,-4.42014 3.39964,-2.88974 4.07973,-5.4399 0.68008,-2.37988 -1.69981,-3.74005 -3.39964,-4.7598 -0.33964,-0.17037 0.17036,-0.84952 0.51065,-1.01973 1.69983,-0.34044 3.56987,10e-6 4.58961,1.18995 0.51065,0.68009 1.6998,1.18995 1.36017,2.3799 2.20967,-10e-6 2.03947,2.37992 2.55012,3.56986 1.87003,4.41939 1e-5,10.879 -5.61011,11.55909 0,0 -0.17009,-1.18995 -0.50986,-1.52959 -2.55092,-1.69982 -6.46044,-0.85031 -5.94976,-4.7598 z m 4.75901,21.758 c 0.50986,-0.51068 -0.34044,-1.36018 0.17008,-1.70063 4.92845,-2.88898 10.19812,-4.41935 15.2984,-7.47856 0.84951,-0.51066 2.54931,-1.01972 3.39883,0.33966 0.50986,1.02051 10e-6,2.21045 -0.68007,2.88974 -4.41939,4.75984 -12.06816,10.02872 -18.18735,5.94979 z m 12.57802,21.24814 c -0.6793,-0.17008 -2.71956,-1.18997 -3.56907,-2.37992 -0.84949,-1.35938 0.34045,-2.3799 1.69983,-2.71955 1.69981,-0.50982 3.56986,0.17037 5.26966,-0.33964 1.52961,-0.67928 2.2089,-1.69982 3.7393,-2.54935 1.36017,-0.68009 2.72035,-1.87003 4.59038,-2.04025 0,0.68008 1.01895,1.01974 0.50982,1.69984 -3.56983,4.07892 -6.80006,10.02789 -12.23996,8.32888 z m 4.42018,7.98922 c -1.18999,-1.70063 2.37908,-2.88978 4.07971,-3.74007 2.55012,-1.01974 5.09865,-2.88977 7.819,-4.24915 0.34045,1.87003 -0.51065,3.73927 -1.36017,5.26967 -1.18995,2.20968 -3.22941,3.06001 -5.26888,4.58958 -2.2097,1.5296 -4.24995,-0.51065 -5.26966,-1.87003 z m 22.09763,12.40861 c -1.87004,1.01971 -1.87004,4.41935 -4.24993,5.43989 -2.2097,0.84952 -2.54936,-1.70063 -3.90953,-2.88977 -0.33963,-0.17037 0.17009,-1.01973 0.34045,-1.7006 -2.20968,0.68008 -3.56986,-0.67929 -4.59036,-2.37913 -0.6793,-1.36017 0.34041,-2.21048 1.18994,-2.72034 1.53039,-0.68009 4.07972,0.34044 5.09945,-1.52961 0.33965,-0.6793 -0.17009,-2.20966 0.33966,-2.55012 1.01971,-1.18994 3.39963,-1.6998 4.25073,-0.16952 1.18995,2.2097 3.22942,2.71956 4.75902,4.24996 0.50987,0.50985 0.50983,2.03947 0,2.55011 -0.68008,0.84873 -2.20889,1.35937 -3.22944,1.69903 z m 11.04922,19.54751 c -3.05997,0.17009 -6.11919,-2.20966 -7.47937,-5.09944 -0.67928,-1.52961 0.17037,-2.55015 1.5304,-3.7393 0.50986,-0.51066 1e-5,-1.6998 0.1701,-2.72034 0.17036,-1.01972 1.36017,-0.33961 1.6998,-1.18995 0.34045,-0.84952 0.34045,-1.69983 1.01974,-2.54932 1.87003,-1.69984 3.73927,-1.02057 4.75902,0.33962 0.84952,1.18995 -1.18995,3.56987 0.34042,4.24996 4.4194,1.6998 6.62908,-4.07973 10.02793,-6.45964 1.02051,-0.6793 3.06077,1.5296 1.87082,3.06 -4.24916,5.4399 -6.11998,13.59854 -13.93901,14.10841 z m 17.33864,11.38967 c 0.17038,1.52959 -2.55015,0.67918 -3.56986,0.33964 -3.05998,-1.01971 -7.30914,-3.22941 -7.1397,-6.79927 1.18994,0 1.87082,-1.18995 2.03946,-1.87003 0.68008,-3.56987 2.03946,-6.96952 4.92922,-6.96951 4.5904,0 12.91846,-6.79927 12.4094,-1e-5 -0.50987,5.78037 -9.17916,8.15946 -8.66852,15.29918 z m 59.49448,21.58779 c -14.6191,-2.3799 -29.06797,-3.39885 -42.32686,-10.02869 -4.07893,-2.03947 -7.64879,-4.92925 -11.38805,-7.30914 l 1.69979,1.01972 c -0.12103,-0.24266 -0.34759,-0.43907 -0.61248,-0.60689 -0.24804,-0.15591 -0.52734,-0.28796 -0.78429,-0.41365 -0.62041,-0.30146 -1.10164,-0.56156 -0.64349,-1.01972 2.54933,-3.22941 2.54934,-7.47937 5.77956,-10.02869 0.34043,-0.34045 1.53038,-1.36017 2.04026,-0.68008 2.54932,2.88975 2.71876,6.62904 4.92842,9.85925 1.18997,1.36018 2.55015,2.54936 4.08053,3.39964 9.51884,5.60933 19.54753,7.98924 30.25631,10.36914 6.11999,1.36017 12.40939,-0.34042 18.69881,1.36017 2.3799,0.50986 5.09944,0 6.9695,2.03868 0.67929,0.67929 -0.84952,1.01973 -0.51068,1.70062 -6.11839,-0.34046 -12.06814,1.18915 -18.18733,0.33964 z m 21.0779,112.35909 c 0,0.51065 -0.84949,1.18995 -1.01972,1.01972 -1.70062,-0.50986 -3.74008,-0.50986 -5.26968,-0.84949 -2.71956,-0.84953 -1.01973,-5.77956 -1.18995,-9.00897 0,-0.68009 0.51065,-1.36018 1.18995,-1.70063 2.03945,-1.18994 4.42016,-1.01971 5.61011,0.6793 1.55745,2.33776 1.1319,4.97377 0.61647,7.52789 0.0876,0.24181 0.1321,1.01337 0.0629,2.33218 z m 12.57804,8.32968 c -3.90949,0 -4.07972,-4.08052 -5.94896,-6.45965 -0.50988,-0.50986 -1.52961,0.84951 -1.87006,-0.67929 -0.68008,-4.24996 -1.18994,-8.32967 0.34045,-12.23917 1.01972,-2.2097 4.5896,-2.88978 5.94896,-0.51065 3.56988,5.95055 0.85032,13.25971 1.52961,19.88876 z m 11.89872,4.58958 c -1.87002,-2.54932 -4.58958,-3.73927 -6.62904,-5.77953 l 0,1.87003 c -0.34044,-7.47857 -1.01973,-12.23918 -0.34044,-18.35837 0.17009,-1.53039 1.01972,-2.88977 2.72035,-3.39884 2.37991,-0.68003 5.26889,0.17009 5.6093,2.37911 1.69983,9.00896 2.2097,15.97847 3.7401,23.96769 -1.36019,0.33961 -4.24995,0.16952 -5.10027,-0.68009 z m 13.42915,-31.61728 c 1.69981,0.34045 2.54932,2.03947 3.39963,3.56986 5.60933,9.51963 7.98923,19.71775 11.38887,29.91666 -4.93004,1.18996 -9.86005,1.18997 -14.7893,1.01975 -1.01975,-0.16952 -2.03946,-1.52961 -2.20968,-2.71956 -1.52962,-6.11919 -3.39964,-15.12896 -5.77957,-24.818 -0.33964,-1.18915 1.52961,-5.4391 3.06002,-6.11919 1.69982,-0.84952 3.05999,-1.18915 4.93003,-0.84952 z m -4.07973,-6.62905 c -4.07972,-0.68008 -9.51962,1.87003 -12.23917,-1.35938 -1.01975,-1.18995 2.03946,-2.89057 0.85029,-4.42018 -1.01972,-1.02052 -3.06078,-2.20966 -3.56984,-1.02052 -1.18998,1.87084 0.33964,5.4407 -0.85032,7.13973 -1.5296,1.87084 -6.96956,1.8706 -7.81902,-1.52959 2.72035,-0.67933 6.11919,-1.35938 4.93004,-4.58962 -0.84951,-2.03946 -3.74006,-3.39884 -6.79927,-3.05997 0.33966,3.05997 0.33965,6.28941 -0.84952,8.66851 -1.18995,2.20968 -4.08052,-1e-5 -6.11998,0.17036 0,-1.01974 0,-1.87003 0,-2.88977 2.03947,0.51065 4.24994,-0.34043 3.39964,-3.05998 -1.01973,-3.39963 -3.56987,-7.13973 -6.62906,-4.75902 -3.231,2.37909 0,8.32965 -3.56986,11.04841 -1.5296,1.02054 -4.07973,0.85031 -5.61012,-1.01972 -0.16949,-0.33967 -0.16953,-1.18916 -10e-6,-1.52881 1.18998,-1.5304 3.23103,-0.85033 4.59041,-1.53041 2.54933,-1.36017 1.52958,-5.09943 1.52958,-7.47935 -1e-5,-1.36017 -2.88895,-2.37989 -4.24912,-1.52958 -0.6801,0.50986 -2.20971,0.67926 -1.87087,2.20967 -2.3791,-3.06078 -1.52958,-7.98923 0.51068,-9.3494 4.41936,-3.06 10.70957,-1.18994 16.14868,0.33966 8.32967,2.21046 17.16842,0 25.83692,1.18995 -0.17037,6.29021 -0.34042,12.74903 2.37992,18.35914 z m -39.6065,-53.03482 c 0.17011,1.01891 2.88976,0.84868 1.53037,2.03864 -0.85028,0.85031 -2.71955,1.87084 -3.73927,0.17036 -0.8503,-1.5296 1.18995,-1.87002 2.2089,-2.20887 z m 39.43628,21.07791 c 4.24995,0.67929 9.17919,5.09944 6.62904,9.17836 -0.67928,1.18998 -3.39884,-0.50985 -5.26886,-0.67928 -3.06002,0 -5.94897,1.69904 -9.00897,1.86927 -0.75964,0.0955 -1.09769,-0.86784 -1.60119,-1.64972 l -1.79845,-0.89964 c 0.37876,-0.0942 0.68488,-0.0604 0.94496,0.0556 -2.98204,-2.6734 -5.70399,-6.72449 -8.93419,-4.81628 -2.20969,1.18995 -4.59037,1.87082 -6.79928,1.02055 -0.50985,-0.17037 -1.18994,-1.5304 -0.50983,-2.04027 1.69901,-1.18918 1.86923,-3.73851 4.07893,-4.24916 5.09944,-1.36018 9.86004,0.51065 14.27864,3.05998 2.37988,1.5296 5.4391,-1.36019 7.98921,-0.84948 z m -1.86924,-32.97745 c -0.51069,1.87082 -1.18995,4.59037 -3.39885,4.75981 -3.56986,0.33963 -1.70062,6.45964 -3.74009,7.81899 -4.58957,2.71955 -10.36835,1.52961 -15.63881,1.69982 1e-5,-0.67928 -0.17037,-1.53039 0,-1.69983 3.2302,-1.87002 3.2302,-4.59037 2.03946,-7.1397 -0.50985,-1.18994 -2.88976,-1.01975 -3.56907,10e-6 -1.87003,2.71955 0.1701,6.79926 -1.87002,9.00897 -0.6793,1.01971 -3.06001,0.67929 -4.92925,0.17007 -1.52958,-0.34041 -2.71954,-2.03946 -1.52958,-3.05998 0.67927,-0.84951 2.71874,0.17038 3.73848,-0.50985 0.51065,-0.34046 0.17008,-1.70063 0.17008,-2.72034 1e-5,0.34043 -0.17007,0.84948 -0.17008,0.51065 -0.33965,-2.37993 -1.87004,-4.59037 -4.41938,-3.91029 -1.36017,0.34044 -2.20966,2.20966 -3.74007,2.72035 -0.16952,-2.55015 -2.37912,-4.07973 -4.58958,-4.58961 -0.33967,2.03867 -2.71956,1.35937 -3.39963,0.84953 -2.03867,-1.18994 0.51065,-3.23019 -0.17037,-5.10025 10.53935,-1.6998 21.07871,1.18997 31.78748,-1.35935 0.51068,-0.17038 0.84952,-1.52961 1.36018,-2.03948 1.18997,-1.01973 2.20968,-2.37991 4.07971,-2.37991 -0.34042,-1.87003 1.35938,-2.20969 2.37992,-2.88977 1.18916,-0.84953 3.23021,0 3.7393,0.67929 1.87003,2.55173 2.71955,5.95137 1.87003,9.18078 z m 57.96486,-41.30556 c -0.84952,6.1192 -8.32968,7.47938 -13.59935,9.00898 -13.08869,4.07972 -26.00714,6.80007 -39.6057,10.19892 -7.06098,1.60597 -14.27309,2.75376 -21.49312,2.16274 -0.42796,-0.0349 -0.8567,-0.0748 -1.28463,-0.12247 l 4.07973,0.6801 c -2.88978,0.17008 -5.61013,-1.01972 -8.15944,-2.03947 -0.17038,0 -0.17038,-0.85031 -10e-6,-0.85031 6.1192,-2.54932 12.74903,-1.35938 19.37811,-2.3791 9.00896,-1.5296 17.33782,-4.24995 25.83692,-7.13973 4.42019,-1.36017 8.15946,-4.75901 12.57805,-6.96947 1.01971,-0.50989 2.55011,-0.16952 3.39963,-0.84954 3.90949,-3.74009 9.00894,-4.24916 13.76874,-6.11919 3.0608,-1.36097 5.43994,2.71796 5.10107,4.41856 z m 14.10841,-5.43988 c -0.84949,2.55012 -2.89054,5.61012 -5.6101,4.58958 -5.43989,-1.87003 -6.79926,-7.81899 -10.19891,-12.23839 -0.33966,-0.34041 0.1701,-0.84948 0.6801,-1.01971 0.50985,-0.17037 1.18914,-0.17037 1.69901,0 1.36017,0.84952 1.18994,3.22941 3.56985,3.56987 3.23022,0.50986 1.36019,-2.88978 2.55013,-3.91033 0.84872,-0.67928 1.69983,1.36018 3.2294,1.87007 2.72035,0.84949 5.09947,4.24913 4.08052,7.13891 z m 15.1059,-11.77147 c -0.0227,0.23216 -0.0709,0.47329 -0.14796,0.72224 l -0.6793,-1.87003 c -0.17037,3.05999 -2.20969,5.26967 -2.72035,8.32888 -0.34044,1.5304 -3.23023,0.85032 -4.07893,0.34042 -4.5904,-3.74006 -6.63066,-9.34859 -10.36992,-13.93818 1.18993,0 2.72034,-0.34045 3.39963,0.17009 3.90949,3.74006 8.66852,1.01972 12.4094,2.71873 1.05473,0.45259 2.37671,1.70779 2.18741,3.52771 z m 22.45958,-20.35488 c -1.18918,1.35938 -2.03947,5.26887 -4.24995,4.24916 -3.22944,-1.69984 -4.75902,-4.93004 -7.6488,-7.47937 -0.67928,-0.68009 0.6793,-1.35937 1.01973,-1.5296 2.2097,-0.51061 4.75902,1.87003 6.28941,-0.34043 1.18994,-1.69983 -1.36017,-4.41939 0.33967,-6.11919 0.68008,-0.67929 1.87081,0.17008 2.89056,0.34043 0,-0.17038 -10e-6,-0.34042 10e-6,-0.50987 2.54931,1.5288 6.11919,3.73927 5.94895,6.45883 -0.16951,1.86927 -2.88978,3.39964 -4.58958,4.93004 z m 11.38965,-16.3189 c -0.34044,0.17011 -0.51065,1.87004 -1.53039,0.84952 -1.01973,2.03947 -0.17009,4.75981 -2.37911,6.45962 -0.51068,-1.18995 -1.5296,-1.69981 -2.03945,-2.88975 -0.6793,-1.18999 -2.03948,-2.20969 -3.91032,-2.71959 -2.03868,-0.50985 -2.20888,-3.22941 -4.07893,-4.41936 2.88978,-3.56986 9.17918,-1.87002 13.42834,-1.01973 1.87003,0.16951 1.69981,3.0584 0.50986,3.73929 z m 6.45882,-18.18892 c -2.20965,3.40043 -6.28859,4.24992 -9.68902,2.21045 -1.01974,-0.68008 -3.06,-0.85028 -3.06001,-2.71956 0,-0.84948 -0.33963,-1.87002 0.1701,-2.20965 2.20968,-2.20969 5.60932,0.67928 7.98922,-1.36017 0.34044,-0.34047 0.34045,-1.36021 0,-1.69984 -1.52961,-1.69983 -6.28943,-4.07894 -3.73928,-5.09947 4.75981,-1.87004 11.55908,5.4391 8.32886,10.87823 z m 10.70961,-15.46782 c -1.18996,3.05921 -5.61014,4.07893 -10.0287,2.88898 -2.55015,-0.84953 -4.58961,-3.22941 -3.0608,-4.75901 1.7006,-1.36018 5.10027,-2.88978 3.56988,-5.43912 -0.5099,-0.84951 -0.33966,-2.20968 -1.52962,-2.5501 -1.18995,-0.17009 -2.72035,0.84949 -3.56907,-0.6793 -0.17011,-0.34044 -0.17008,-1.36018 10e-6,-1.5304 5.4391,-1.35936 10.36834,0.84952 13.93821,4.7598 1.87002,2.03948 1.35937,5.60934 0.68009,7.30915 z m 5.09943,-25.83773 c -1.70059,3.22941 -4.42014,5.26966 -5.26967,9.51963 -0.16951,0.67929 -1.87003,1.86923 -3.05998,1.01974 -3.05999,-2.20969 -7.13973,-1.5296 -9.51965,-4.07975 -0.34042,-0.50986 -1.18914,-1.86924 -0.67929,-2.03947 3.56988,-0.67927 7.6488,0.84952 10.19894,-1.18995 2.03947,-1.5296 1.87003,-5.26966 4.07973,-7.1397 0.50987,-0.33965 1.35938,-0.16952 2.20966,-0.16952 0.67929,10e-6 1.35938,-0.17008 1.69984,0.16953 1.5304,1.01972 0.8503,2.88975 0.34042,3.90949 z m 1.01976,-13.76878 c -4.42018,-0.17036 -8.32969,-2.88977 -13.08871,-3.06 -1.01971,-10e-6 -3.23019,-0.67927 -2.88977,-2.55012 0.17037,-0.33963 0.50985,-1.01972 0.6793,-1.01972 3.56906,-1.87007 7.13973,0.51066 11.04922,-0.17037 2.71955,-0.50985 4.07972,1.69981 5.09948,3.56987 0.68087,1.18994 0.17007,3.2302 -0.84952,3.2302 z m 1.5304,-10.53858 c -0.6801,1.18998 -2.2097,-0.51064 -2.55015,-0.68007 -2.89055,-2.55013 -6.96949,-1.69982 -10.19892,-3.9095 -1.36018,-0.85031 -2.88975,-3.40044 -1.18994,-3.56987 3.73929,-0.34042 6.11918,-2.55012 10.02868,-2.88975 -0.34043,0.34043 -0.50985,0.84949 -0.6793,1.18995 2.2097,-1.01975 2.71957,-3.2302 3.7393,-5.26967 0.68009,-1.3602 2.3791,-0.51068 2.37911,0 0.8503,5.09944 0.8503,10.53934 -1.52878,15.12891 z m 1.86922,-18.69799 c -2.88898,0.67927 -6.79927,2.2097 -8.15944,0.17038 -2.2089,-3.23024 4.08052,-1.18996 6.45961,-1.18998 0.84953,-0.17007 1.52961,-1.6998 2.20969,-0.68008 0.50987,0.50988 0.33971,1.35936 -0.50986,1.69983 z m 2.2097,-46.06614 c -2.55015,7.81903 -8.49911,15.80904 -5.43911,24.13792 1.87003,4.75981 4.92922,10.70877 2.03947,14.95952 -2.03947,3.0592 -6.45965,4.07893 -10.53936,1.52961 -1.01972,-0.50986 -0.84953,-1.87006 -0.50986,-2.71957 1.87002,-3.56985 6.79928,-5.94899 4.75902,-10.70879 -2.20969,-5.10023 -1.01976,-10.70878 -2.71956,-15.12895 -1.70063,-4.58958 -8.49991,-6.96947 -9.86007,-12.23917 -2.03946,-8.83874 10.87978,-7.47857 17.16921,-6.45882 2.72035,0.33884 6.46043,2.88816 5.10026,6.62825 z" /><path
   inkscape:connector-curvature="0"
   id="path35"
   d="m 598.15517,732.35365 0.017,0.01 0.002,-2e-5 c 0.10658,0.052 0.21798,0.1162 0.32769,0.1814 0.0986,0.058 0.20835,0.1296 0.32296,0.2061 0.63552,0.4256 1.19074,1.0253 1.19075,1.326 l -8e-4,0 0.002,0.092 v 0 c 0.0343,1.51769 -0.35078,3.1189 -0.73418,4.70969 -0.75724,3.14831 -1.50812,6.26791 1.47153,8.1181 l 0.017,0.011 c 1.74355,1.1629 3.9461,1.00779 6.09771,0.8543 0.75804,-0.053 1.51129,-0.10661 2.24149,-0.10661 l 0.009,-3.9e-4 v 0 c 1.67992,-8e-4 3.49826,-0.4184 5.20284,-1.1907 0.4176,-0.18851 0.82883,-0.3993 1.22259,-0.6268 2.03548,-1.1765 3.78699,-2.8779 4.75583,-4.9786 l 1.07859,0.4988 c -1.07779,2.33529 -3.00511,4.2165 -5.23864,5.50669 -0.43511,0.24971 -0.88057,0.47961 -1.32996,0.68241 -1.85017,0.8384 -3.84031,1.2926 -5.69126,1.2934 v 0 l -0.009,4e-4 c -0.70395,0 -1.42857,0.051 -2.15639,0.1034 -2.34409,0.1656 -4.7415,0.3357 -6.82632,-1.0443 v 0 c -3.70588,-2.3004 -2.85557,-5.8353 -1.99649,-9.4012 0.3635,-1.5129 0.73017,-3.0353 0.70075,-4.4074 l -0.003,-0.10881 -0.002,-0.0168 c 0,-0.058 -0.30862,-0.1048 -0.66101,-0.3412 -0.0797,-0.052 -0.16952,-0.11051 -0.26816,-0.1686 l -0.002,10e-6 c -0.0842,-0.05 -0.17264,-0.1001 -0.25457,-0.14149 l 7.9e-4,-8e-4 -0.0142,-0.01 z m -43.21693,4.0201 c 0.65463,0.059 1.21543,0.1185 1.76825,0.17829 3.03133,0.32291 5.99511,0.6403 9.74392,-0.32849 l 10e-6,-8e-4 0.0197,-0.0104 c 0.31584,-0.0908 0.63397,-0.19948 0.94419,-0.32525 0.31262,-0.12559 0.62521,-0.2713 0.93066,-0.4311 1.51208,-0.79941 2.80784,-1.99181 3.12999,-3.38851 l 0.0113,-0.035 c 0.20212,-0.6888 0.34919,-1.4541 0.49555,-2.2177 0.47646,-2.48331 0.95369,-4.96821 3.41792,-5.9823 l 0.003,-3e-5 c 2.22241,-0.91 3.96599,0.24661 5.79625,1.4604 1.49063,0.9895 3.04967,2.0227 4.87199,1.7324 l 0.18538,1.1717 c -2.28047,0.3643 -4.03598,-0.7994 -5.71433,-1.913 -1.56219,-1.0365 -3.05204,-2.0244 -4.6922,-1.3546 l 8e-4,8e-4 c -1.86923,0.7699 -2.28603,2.9398 -2.70207,5.1098 -0.14881,0.7795 -0.29985,1.563 -0.5194,2.3131 -0.41442,1.7642 -1.94957,3.2143 -3.72893,4.1544 -0.33886,0.1789 -0.68884,0.3413 -1.04202,0.4821 -0.35633,0.14404 -0.71271,0.26727 -1.06028,0.36755 l -0.0171,0.01 -0.0143,-3.1e-4 c -3.96677,1.02769 -7.03949,0.69999 -10.1806,0.36509 -0.60931,-0.065 -1.22099,-0.1304 -1.74996,-0.17879 z m 25.74786,-3.64391 c -0.47964,0.63871 -0.95769,1.35311 -1.18677,2.03951 -0.19559,0.5878 -0.20437,1.16769 0.16073,1.6608 l 0.002,-2e-5 0.0139,0.0171 -7.8e-4,0 c 0.34679,0.4422 0.75724,0.8598 1.16051,1.2687 0.96646,0.9783 1.89391,1.92011 2.16595,3.36701 l 8.1e-4,-1e-5 c 0.0259,0.11219 0.0485,0.22279 0.0677,0.33171 v 0 c 0.34679,1.9058 -0.0802,3.643 -1.06746,5.0127 -0.9776,1.357 -2.50401,2.3465 -4.36212,2.7681 l 0,8e-4 -0.003,3e-5 c -0.11043,0.0254 -0.23556,0.05 -0.37465,0.076 v 0 c -2.79751,0.5234 -5.45897,0.4383 -8.05206,-0.02 -2.56844,-0.4518 -5.06923,-1.2726 -7.56447,-2.2184 l -3.03296,-1.1502 3.24213,0 0.6793,0 -2e-5,0.21551 c 2.27572,0.8471 4.5554,1.57249 6.87962,1.98139 2.46581,0.4351 4.98809,0.5178 7.63051,0.023 l 0.003,-2e-5 c 0.0947,-0.0171 0.20525,-0.04 0.32533,-0.067 l 0.002,-2e-5 c 1.57256,-0.35707 2.85397,-1.17881 3.66369,-2.3035 0.80181,-1.112 1.1462,-2.5374 0.86225,-4.1092 l -7.9e-4,0 c -0.0169,-0.094 -0.0366,-0.1907 -0.0581,-0.28471 l -0.006,-0.025 c -0.19898,-1.09691 -1.00858,-1.9162 -1.85014,-2.7689 -0.42079,-0.42711 -0.85189,-0.86381 -1.24882,-1.37211 l -0.002,3e-5 -0.0139,-0.0171 -0.006,-0.01 c -0.64747,-0.8639 -0.65543,-1.8136 -0.34361,-2.7506 0.28007,-0.8424 0.82324,-1.6593 1.36335,-2.3791 z m 17.28694,-6.3832 c 1.41029,0.20121 2.80862,-0.36589 4.16482,-0.91639 1.95516,-0.7938 3.84269,-1.559 5.90126,-0.3722 l 0,-8e-4 c 2.38148,1.3339 3.00351,3.42029 2.74342,5.6427 -0.19078,1.633 -0.87577,3.332 -1.66641,4.833 0.49951,-0.10662 1.00221,-0.19504 1.50094,-0.28231 1.83743,-0.32619 3.65497,-0.64909 4.89107,-1.7826 l 0.009,-0.01 c 0.48757,-0.4263 0.98473,-0.7827 1.47311,-1.1327 l 0,-7.9e-4 c 0.87417,-0.62681 1.72607,-1.23691 2.33456,-2.15001 l 0.98474,0.6602 c -0.7318,1.0977 -1.66642,1.7682 -2.62809,2.4563 l -0.002,2e-5 c -0.46611,0.3333 -0.94179,0.6745 -1.38245,1.0595 v 0 c -1.4946,1.3625 -3.47439,1.7149 -5.47646,2.0713 -0.91315,0.16154 -1.83426,0.3245 -2.66308,0.5782 l 0.002,-2e-5 -0.0642,0.0203 -1.48824,0.46451 0.80181,-1.33629 c 0.98471,-1.64171 1.97186,-3.68921 2.19296,-5.58471 0.20752,-1.7706 -0.27837,-3.4274 -2.14287,-4.471 l -0.009,-0.01 c -1.55665,-0.90119 -3.18249,-0.2418 -4.86719,0.4431 -1.50177,0.61 -3.05045,1.23851 -4.77811,0.99191 z"
   style="fill:#015498;fill-opacity:1;stroke-width:0.79542321" /><path
   inkscape:connector-curvature="0"
   id="path39"
   d="m 570.60251,683.32455 c -2.64557,-0.41282 -5.2609,-0.28714 -7.8381,0.17037 -2.59624,0.45977 -5.1567,1.25835 -7.67502,2.18106 l -0.40964,-1.1144 c 2.57957,-0.94496 5.20763,-1.76344 7.87945,-2.23753 2.68934,-0.47646 5.43034,-0.60609 8.22388,-0.17037 z m -15.66983,-3.55872 0.0493,0.006 c 0.2506,0.017 0.50906,0.017 0.76598,-0.006 0.26023,-0.0198 0.51704,-0.0604 0.76438,-0.11682 1.25363,-0.28632 2.35527,-0.99509 2.76094,-1.90904 l 0.0113,-0.0255 c 0.2194,-0.44067 0.27922,-0.81769 0.21629,-1.13029 -0.0683,-0.33727 -0.28876,-0.62441 -0.60614,-0.84872 -0.3619,-0.25683 -0.84631,-0.4359 -1.38163,-0.53134 -1.0094,-0.17887 -2.16119,-0.055 -3.02979,0.40886 l -0.55838,-1.04521 c 1.10964,-0.591 2.55015,-0.75402 3.7926,-0.53373 0.70077,0.12332 1.35379,0.37226 1.86606,0.73579 0.55758,0.39531 0.95369,0.92665 1.08415,1.58288 0.10971,0.55045 0.0255,1.17804 -0.31339,1.86765 l 7.9e-4,-1e-5 -0.003,0.009 -0.009,0.017 v 0 c -0.57111,1.25279 -1.98537,2.20094 -3.56669,2.56205 -0.30941,0.0717 -0.6252,0.12021 -0.93779,0.14628 -0.315,0.0255 -0.63555,0.0283 -0.95052,0.003 l -0.006,-3.8e-4 -0.0485,-0.003 z m 26.8185,7.11427 -0.0335,-0.0113 v 0 c -0.6793,-0.18936 -1.40074,-0.36826 -2.1206,-0.54725 -3.7194,-0.92189 -7.45708,-1.85095 -9.56574,-5.29036 -0.13916,-0.20524 -0.27611,-0.41996 -0.40648,-0.64587 l -7.9e-4,7.9e-4 c -1.12154,-1.92412 -1.76345,-4.34301 -1.66407,-6.59326 0.017,-0.40089 0.0604,-0.79382 0.12558,-1.18119 -0.2951,-0.0717 -0.60134,-0.15364 -0.90919,-0.24576 l -0.002,1e-5 c -0.55201,-0.1647 -1.11516,-0.36271 -1.66959,-0.59496 l -0.002,10e-6 c -2.62174,-1.10007 -5.02787,-2.96375 -5.3914,-5.75726 -0.51382,0.25456 -1.04358,0.49713 -1.57969,0.74131 -2.51752,1.14223 -5.20286,2.36081 -6.14942,4.96664 l -1.1144,-0.40487 c 1.11917,-3.07749 4.03838,-4.40268 6.7762,-5.64593 0.8193,-0.37067 1.62348,-0.73575 2.32025,-1.12233 l 0.0113,-0.008 0.9235,-0.51383 -0.0422,1.05473 c -0.10885,2.71238 2.18266,4.53153 4.70655,5.59022 l -8.2e-4,8e-4 c 0.51147,0.21544 1.03644,0.3993 1.55189,0.55283 l -10e-6,7.9e-4 c 0.28396,0.0842 0.57032,0.16215 0.85112,0.22905 0.43986,-1.37845 1.24641,-2.5883 2.49841,-3.44179 0.11934,-0.0819 0.24803,-0.16161 0.38101,-0.23953 l 0.0294,-0.0172 0.0228,-0.0113 0.0227,-0.009 c 0.28318,-0.12733 0.59339,-0.24493 0.91793,-0.34679 l 0.003,-3e-5 c 0.32614,-0.10033 0.66816,-0.18628 1.01178,-0.25143 1.84061,-0.34363 3.96041,-0.14089 5.33969,1.23847 l 0.009,0.009 -0.002,0.001 c 0.42239,0.40168 0.82406,0.85507 1.19078,1.34665 0.36745,0.49396 0.70313,1.03006 0.99504,1.59321 1.51451,2.91922 1.88994,6.60601 -0.0899,9.37486 l -0.96644,-0.68803 c 1.68868,-2.36319 1.33551,-5.57353 0.002,-8.14275 -0.26165,-0.5051 -0.56315,-0.98633 -0.89326,-1.43016 -0.32611,-0.43907 -0.68485,-0.84476 -1.06508,-1.20267 l -0.0142,-0.0113 -0.009,-0.006 c -1.05634,-1.05551 -2.76887,-1.1947 -4.27936,-0.91232 -0.30704,0.0573 -0.60377,0.13206 -0.87976,0.21709 l 0,8e-4 c -0.27696,0.0859 -0.54169,0.18542 -0.7827,0.29431 l -0.007,0.003 c -0.0899,0.0541 -0.18057,0.11309 -0.26957,0.17349 -1.57811,1.07701 -2.30115,2.88501 -2.38787,4.84732 -0.0882,2.02514 0.49078,4.20458 1.50577,5.94339 l 2e-5,0.002 c 0.11365,0.19503 0.23472,0.38816 0.36272,0.57587 l 0.0172,0.0254 c 1.85255,3.04488 5.36115,3.91588 8.85068,4.7813 0.71347,0.17746 1.42856,0.35474 2.15558,0.55678 l 0.003,-2e-5 0.0335,0.009 z m -7.00531,-12.81426 c 0.45339,0.63472 0.81931,1.23131 1.05156,1.85809 l 1e-5,0.002 c 0.24347,0.65942 0.34209,1.34585 0.24578,2.12539 l -1.18122,-0.14487 c 0.0731,-0.57908 0,-1.08497 -0.1783,-1.57016 l -8e-4,0 c -0.19332,-0.51863 -0.50909,-1.03087 -0.9036,-1.5837 z"
   style="fill:#015498;fill-opacity:1;stroke-width:0.79542321" /><path
   style="fill:#015498;fill-opacity:1;stroke-width:0.79542321"
   inkscape:connector-curvature="0"
   id="path29"
   d="m 520.42086,736.85574 c -0.82485,-0.71589 -1.83345,-1.2424 -2.91444,-1.5129 -1.20426,-0.29989 -2.50078,-0.28229 -3.73529,0.14401 l -0.0143,-3.2e-4 c -1.71495,0.54162 -2.01481,2.4013 -2.30911,4.2284 -0.19021,1.1836 -0.38023,2.36001 -0.91792,3.3074 v 0 l -0.006,0.01 c -0.64431,1.1271 -2.05462,0.7707 -3.62237,0.373 l 0,-8e-4 c -0.56077,-0.1423 -1.14858,-0.2927 -1.69107,-0.3683 -0.0669,0.416 -0.14968,0.8122 -0.23302,1.1884 l -0.006,0.0231 -0.0113,0.034 c -0.2943,0.8829 -0.69202,1.6791 -1.17086,2.39819 3.3042,2.4053 6.83428,2.75531 10.02554,1.77541 0.63155,-0.19252 1.25994,-0.4447 1.8748,-0.74461 0.61885,-0.3022 1.21461,-0.64739 1.77858,-1.02999 l 0.009,-0.01 0.0254,-0.0172 0.0414,-0.025 c 0.40089,-0.21721 0.78508,-0.40251 1.17404,-0.58621 1.52164,-0.72469 3.15625,-1.5058 3.6343,-3.2891 0.29272,-1.1749 0.21941,-2.28839 -0.12161,-3.2796 -0.35243,-1.02129 -0.99032,-1.9209 -1.8088,-2.6304 z" /><path
   style="fill:#015498;fill-opacity:1;stroke-width:0.79542321"
   inkscape:connector-curvature="0"
   id="path31"
   d="m 476.08874,733.68355 c -0.32691,0.049 -0.65861,0.11146 -0.99267,0.18865 0.16864,0.248 0.37386,0.5162 0.65702,0.80089 0.43749,0.43751 0.58385,0.85271 0.70634,1.19881 v 0 c 0.0661,0.18768 0.11451,0.3246 0.40248,0.3246 l 0.0493,4e-5 c 1.58449,0.1321 2.49924,0.9457 3.39409,1.7443 0.22026,0.1948 0.44066,0.3874 0.66497,0.5656 0.48599,-0.6125 1.08573,-1.0548 1.75866,-1.3618 l 0.002,-2e-5 c 0.62601,-0.284 1.31244,-0.44701 2.02434,-0.51136 -1.70698,-1.8605 -4.05585,-3.0338 -6.85177,-3.0775 -0.57905,-0.01 -1.18597,0.033 -1.81435,0.12639 z" /><path
   style="fill:#015498;fill-opacity:1;stroke-width:0.79542321"
   inkscape:connector-curvature="0"
   id="path33"
   d="m 604.6896,703.13695 0,-63.23374 -218.42878,0 0,63.23374 -39.4371,0 0,70.2033 296.7923,0 -1e-5,-70.2033 z m -92.99533,-20.13295 -0.002,10e-6 c -0.22337,0.42874 -0.44462,0.8519 -0.66017,1.22178 l -1.0261,-0.59499 c 0.21884,-0.37702 0.42554,-0.77314 0.63552,-1.17562 l -0.002,-4.5e-4 c 1.0452,-2.01004 2.19537,-4.21891 4.63891,-4.21891 l -2e-5,-0.002 c 1.29018,0 2.39661,0.57269 3.54758,1.17007 0.80817,0.41837 1.64178,0.84952 2.53421,1.05632 l -0.26476,1.15814 c -1.03565,-0.23954 -1.93926,-0.70713 -2.81262,-1.16053 -1.01816,-0.52735 -1.99652,-1.03403 -3.00354,-1.03404 l -10e-6,-0.002 c -1.72209,8.3e-4 -2.69728,1.87642 -3.58497,3.5826 z m 7.92084,-8.45058 c -1.33791,-0.3961 -2.38709,-1.11675 -2.70205,-2.3783 l -0.11318,-0.39533 c -0.59097,-2.09117 -1.13273,-4.00175 -2.9876,-5.0032 -0.65463,-0.28149 -1.39916,-0.34998 -2.189,-0.29429 -0.84793,0.0595 -1.74041,0.26333 -2.63285,0.50509 -1.43812,0.48204 -2.62809,1.40153 -3.8435,2.33774 -0.83837,0.64669 -1.69187,1.30528 -2.66546,1.86129 l -0.0113,0.006 c -3.46167,1.86367 -7.08958,1.95679 -10.64355,1.07384 -3.48874,-0.86701 -6.89872,-2.6774 -10.00005,-4.65643 l 0,7.9e-4 c -1.14462,-0.68723 -2.53184,-1.21061 -3.85703,-1.27346 l 0,-7.9e-4 c -0.25371,-0.0113 -0.50348,-0.006 -0.74529,0.017 -0.23385,0.0227 -0.47011,0.0652 -0.70555,0.12808 l -7.5e-4,-0.002 -0.006,8e-4 7.6e-4,0.002 c -1.17643,0.33561 -2.0315,1.36493 -2.88102,2.38706 -0.72542,0.87418 -1.45324,1.74834 -2.42286,2.3139 l -0.017,0.009 -0.0428,0.0198 c -0.78826,0.34998 -1.72924,0.38498 -2.6925,0.42155 -1.04359,0.0383 -2.12059,0.0788 -2.82693,0.54884 l -0.0171,0.0139 c -0.94892,0.58385 -1.02768,1.78573 -1.10164,2.93355 -0.0779,1.19471 -0.15194,2.3465 -1.0253,3.12283 l -0.0256,0.0198 c -0.45419,0.3627 -1.0094,0.74769 -1.5622,1.1295 -0.54964,0.38181 -1.10326,0.76439 -1.49781,1.08018 l -0.0255,0.0198 c -0.42956,0.30704 -0.62046,0.87974 -0.68885,1.53196 -0.078,0.7469 0.003,1.60439 0.0842,2.33936 l -1.17959,0.12955 c -0.0876,-0.79306 -0.17662,-1.72291 -0.0845,-2.58992 0.10091,-0.96167 0.42157,-1.83582 1.18041,-2.37751 0.44942,-0.35795 0.99347,-0.73338 1.53676,-1.10961 0.53851,-0.37306 1.08018,-0.74849 1.47314,-1.06031 l 0,-8e-4 c 0.50826,-0.4518 0.5679,-1.36414 0.62917,-2.3099 0.0924,-1.44927 0.19162,-2.96615 1.66403,-3.87213 l 7.6e-4,0.002 c 0.98553,-0.6467 2.2248,-0.69366 3.42588,-0.73896 0.83121,-0.0295 1.64572,-0.0621 2.21922,-0.30308 0.78112,-0.46449 1.43336,-1.2472 2.08482,-2.03149 0.96881,-1.16528 1.94161,-2.33694 3.46725,-2.77284 l 0.006,3.8e-4 0.0142,-0.003 0.002,-0.001 c 0.28712,-0.0771 0.58939,-0.13039 0.90119,-0.15989 0.30305,-0.0286 0.60851,-0.0349 0.90996,-0.0227 l 0.003,-3e-5 c 1.53436,0.0731 3.11564,0.66418 4.409,1.44051 l 0.0142,0.009 c 3.01307,1.9249 6.31405,3.68201 9.66119,4.51322 3.28512,0.81608 6.62589,0.73895 9.79009,-0.96167 0.90358,-0.51544 1.71891,-1.14461 2.52148,-1.76503 1.29892,-1.00064 2.56923,-1.98141 4.21098,-2.52866 l 0.0303,-0.009 c 0.97116,-0.26437 1.94479,-0.48601 2.87545,-0.55281 0.97836,-0.07 1.92412,0.0284 2.78954,0.41362 l 0.0414,0.017 c 2.30355,1.24006 2.90965,3.38373 3.57304,5.73023 l 0.11639,0.4112 0.006,0.0171 c 0.19331,0.77554 0.93144,1.24644 1.88517,1.52882 1.0778,0.31896 2.42683,0.40009 3.65812,0.4001 l 10e-6,1.18915 c -1.31882,7.9e-4 -2.77681,-0.0899 -3.99301,-0.45023 z m -14.97703,9.2468 -1.15812,0.25545 c -0.38018,-1.71015 0.0876,-3.22386 0.98075,-4.53946 0.0638,-0.0938 0.12899,-0.18681 0.1956,-0.28007 -4.92365,2.03309 -10.56797,2.57715 -15.63722,0.68088 -1.25994,-0.47171 -2.4841,-1.09372 -3.64938,-1.87722 -1.16849,-0.78587 -2.27808,-1.73481 -3.30819,-2.85797 l -0.002,-0.003 -0.0284,-0.0309 -0.009,-0.009 c -0.47012,-0.53849 -1.256,-1.01733 -2.00925,-1.19074 -0.26335,-0.0612 -0.52021,-0.0811 -0.74532,-0.0493 -0.19079,0.0283 -0.35947,0.0932 -0.48761,0.2052 -0.14316,0.1247 -0.25456,0.32055 -0.32056,0.60133 -0.41918,2.26696 1.57734,4.44482 3.96203,5.97283 0.4836,0.31021 0.98312,0.59339 1.47948,0.84316 0.49235,0.24831 0.9911,0.46849 1.47709,0.65382 l -8e-4,8e-4 0.017,0.008 -0.41362,1.1104 -0.0227,-0.009 -0.006,-3.8e-4 c -0.51386,-0.19645 -1.04838,-0.43349 -1.58769,-0.70472 -0.53612,-0.27044 -1.07222,-0.57351 -1.58687,-0.90361 -2.7458,-1.76027 -5.02787,-4.35336 -4.48538,-7.20813 l 0.006,-0.0227 c 0.12501,-0.54408 0.37148,-0.94893 0.69999,-1.23449 0.31417,-0.2761 0.69202,-0.43114 1.10005,-0.48919 0.37545,-0.0525 0.77715,-0.0227 1.17804,0.0675 0.98074,0.22764 2.00684,0.85111 2.62966,1.55905 l 0.0255,0.0283 c 0.97043,1.05712 2.00925,1.9464 3.09499,2.6774 1.08815,0.73179 2.22957,1.31323 3.40203,1.75073 6.06193,2.26775 13.03539,0.81213 18.39178,-2.52228 l 0.6578,0.98791 -0.0302,0.0227 -0.002,0.001 c -1.13109,0.81054 -2.25661,1.77695 -3.00829,2.88656 -0.71987,1.06349 -1.10164,2.27413 -0.80258,3.61919 z m -36.50116,-1.30052 c -0.69921,1.0619 -1.39996,2.12618 -2.8524,2.51275 l -0.30262,-1.14871 c 1.01584,-0.27012 1.59167,-1.14383 2.16517,-2.01481 0.74849,-1.13667 1.49857,-2.27491 3.1467,-2.58353 l 0.008,-0.002 0.0227,-0.003 0.002,-2e-5 c 0.43031,-0.074 0.87177,-0.11453 1.31243,-0.11765 0.44546,-0.006 0.88136,0.0255 1.29895,0.0899 l 2e-5,0.003 c 2.21524,0.34204 4.20859,1.62505 5.14956,3.77748 l -1.08812,0.47406 c -0.76521,-1.74913 -2.40775,-2.79748 -4.24121,-3.08068 l -4.5e-4,0.002 c -0.37147,-0.0564 -0.74453,-0.0836 -1.10881,-0.0811 -0.36669,0.003 -0.74295,0.0391 -1.11917,0.10347 l 1e-5,7.9e-4 -0.0227,0.003 10e-6,-7.9e-4 c -1.15099,0.21886 -1.76109,1.14303 -2.36878,2.06572 z m -14.22298,-26.78825 10e-6,36.71672 -3.06001,-10e-6 10e-6,-38.24712 7.8e-4,-1.5296 1.52961,0 64.93357,-10e-6 10e-6,3.06002 z m -10.02868,-9.34942 10e-6,-1.52403 1.53036,1e-5 77.85207,0 0,3.04807 -76.32247,0 1e-5,49.30107 -3.05998,0 z m -50.31531,0 10e-6,-1.52958 1.52961,-10e-6 42.49627,10e-6 0,3.05997 -40.96588,0 0,49.29553 -3.06,0 z m 38.24633,6.2894 0,3.06002 -28.0474,-10e-6 -1e-5,36.71673 -3.05997,0 0,-38.24712 -1e-5,-1.52961 1.52958,-10e-6 z m -74.62261,115.92822 -3.06078,0 0,-55.414 0,-1.524 1.53037,0 66.12354,0 0,3.0472 -64.59314,0 z m 67.37471,-27.4167 c 0.87499,-0.62681 1.72608,-1.2369 2.33538,-2.15001 l 0.98474,0.66021 c -0.73179,1.0985 -1.66641,1.7682 -2.6281,2.4563 l -0.002,2e-5 c -0.46611,0.334 -0.94175,0.67449 -1.38163,1.0595 l -7.8e-4,-1e-5 c -1.49464,1.3617 -3.47522,1.71491 -5.4765,2.07121 -0.91315,0.16165 -1.83425,0.3254 -2.66308,0.5791 l 7.9e-4,7.9e-4 -0.0635,0.0201 -1.48821,0.46461 0.80178,-1.3355 c 0.98474,-1.6426 1.97185,-3.69 2.19297,-5.5847 0.20693,-1.7706 -0.27754,-3.4267 -2.14367,-4.4727 l -0.009,4e-4 c -1.58369,-0.91631 -3.2342,-0.21801 -4.94991,0.50669 -1.46996,0.6204 -2.98284,1.2608 -4.66674,1.1001 l 0.1114,-1.1796 c 1.38722,0.1312 2.76171,-0.44789 4.09484,-1.0118 1.99014,-0.8416 3.90711,-1.6505 5.99828,-0.4455 2.38152,1.3332 3.00272,3.4196 2.74342,5.642 -0.19105,1.6338 -0.87259,3.3312 -1.66402,4.8338 0.50034,-0.10746 0.99983,-0.19513 1.49856,-0.2832 1.83664,-0.3262 3.65579,-0.64909 4.89106,-1.7826 l 0.009,-0.01 c 0.48761,-0.4263 0.98475,-0.7826 1.47394,-1.1327 z m -60.40522,22.6576 -3.06079,0 0,-43.0053 0,-1.5296 1.53039,0 55.58419,0 0,3.0592 -54.05379,0 z m 31.97999,-9.7678 c -0.92745,1.3022 -2.35842,2.26779 -4.03995,2.7252 -0.22027,0.06 -0.43195,0.10953 -0.63154,0.14883 l -0.002,10e-6 c -2.79826,0.5234 -5.46056,0.43751 -8.05207,-0.02 -2.56919,-0.4526 -5.07002,-1.2727 -7.56524,-2.21849 l -3.03218,-1.15011 3.24138,0 0.51066,0 -3e-5,0.14941 c 2.33296,0.8749 4.66595,1.6266 7.04984,2.0474 2.46422,0.4351 4.98728,0.5178 7.62651,0.023 l -1e-5,-8e-4 c 0.19815,-0.037 0.38099,-0.08 0.54407,-0.12331 1.41591,-0.38561 2.61695,-1.1899 3.38533,-2.2701 0.75722,-1.0619 1.09768,-2.4038 0.81609,-3.8857 -0.0283,-0.1462 -0.0643,-0.30061 -0.10882,-0.46291 l -0.008,-0.049 c -0.18935,-1.04281 -0.92986,-1.8383 -1.67994,-2.6448 -0.45339,-0.4884 -0.91554,-0.9848 -1.29177,-1.5487 -0.87336,-1.0746 -0.62125,-2.48969 0.0326,-3.7759 l 0.002,-2e-5 c 0.12105,-0.23779 0.25286,-0.46769 0.39134,-0.6841 0.14627,-0.2316 0.29431,-0.4454 0.43828,-0.6379 l 0.26562,0.19821 0.70075,0.48919 -0.006,0.01 -0.009,0.017 c -0.14089,0.18759 -0.27271,0.377 -0.38738,0.5591 -0.12415,0.1965 -0.24011,0.3953 -0.33962,0.5902 l 0.002,-1e-5 c -0.46929,0.92109 -0.68325,1.89389 -0.14628,2.5207 l 0.0318,0.037 0.0118,0.0168 c 0.3341,0.50189 0.75486,0.9545 1.16928,1.4008 0.86066,0.925 1.70777,1.8358 1.97106,3.1984 0.0485,0.17829 0.0903,0.36019 0.12499,0.548 0.3468,1.8183 -0.078,3.4728 -1.01734,4.79161 z M 394.534,733.96834 c -1.54551,-1.0054 -3.02418,-1.96549 -4.65481,-1.3824 -1.91219,0.79301 -2.29718,3.15141 -2.65195,5.3476 -0.11139,0.6896 -0.22111,1.3665 -0.37463,1.99651 v 0 l -0.017,0.064 -0.008,0.03 c -0.53691,1.74429 -2.10549,3.2843 -3.89359,4.20939 -0.34761,0.17969 -0.70317,0.33721 -1.05633,0.4661 -0.35951,0.13216 -0.72381,0.24012 -1.08176,0.3174 l -0.002,2e-5 c -0.54248,0.1448 -1.06269,0.22419 -1.55904,0.2435 -1.52004,0.057 -2.77283,-0.4542 -3.74805,-1.3586 -0.94655,-0.8782 -1.61946,-2.12461 -2.00763,-3.5683 -0.22281,-0.8296 -0.35477,-1.7332 -0.38975,-2.6718 l 1.18519,-0.041 c 0.0317,0.8431 0.15024,1.65529 0.35236,2.40609 0.33169,1.23531 0.89167,2.28611 1.66799,3.00602 0.7477,0.69439 1.71732,1.08729 2.89854,1.04279 0.40408,-0.017 0.83915,-0.084 1.30447,-0.2092 l 0.0308,-0.0103 0.0169,-3.8e-4 0,-8e-4 c 0.30861,-0.0671 0.61799,-0.15834 0.92426,-0.27043 0.31419,-0.11545 0.62362,-0.2523 0.92189,-0.4065 1.52006,-0.78661 2.84604,-2.0593 3.29467,-3.472 l 0.017,-0.064 7.9e-4,10e-6 c 0.14175,-0.58221 0.24664,-1.2337 0.35395,-1.89941 0.40728,-2.5152 0.84634,-5.2188 3.37818,-6.2608 l 0.0226,-0.0102 c 2.19138,-0.7963 3.91744,0.3229 5.72227,1.497 1.50574,0.97751 3.07829,2.0004 4.92603,1.7045 l 0.18541,1.1717 c -2.29797,0.3667 -4.06462,-0.78189 -5.75728,-1.882 z m 29.19682,21.9076 c -0.43431,0.24351 -0.88215,0.46691 -1.34029,0.66731 -1.86131,0.81369 -3.84826,1.24089 -5.69523,1.2425 v 0 l -0.009,3.9e-4 c -0.64745,10e-6 -1.33868,0.049 -2.04342,0.10091 -2.3314,0.1661 -4.84654,0.34679 -6.93929,-1.0412 -3.70588,-2.3004 -2.85557,-5.83531 -1.99649,-9.40121 0.3635,-1.5128 0.73017,-3.0353 0.70075,-4.40739 l -0.003,-0.10882 -0.002,-0.0168 c -1e-5,-0.058 -0.30943,-0.10339 -0.66102,-0.34039 -0.0797,-0.0521 -0.16952,-0.10971 -0.26817,-0.1678 l -0.002,10e-6 c -0.0842,-0.0511 -0.17265,-0.1 -0.25456,-0.14139 l 7.9e-4,-9.1e-4 -0.0142,-0.01 0.52972,-1.0603 0.017,0.01 0.002,-2e-5 c 0.10573,0.053 0.21714,0.11459 0.32769,0.1806 0.0978,0.058 0.20836,0.129 0.32297,0.2061 0.63473,0.4263 1.19153,1.0253 1.19153,1.3252 l -0.002,10e-6 0.002,0.0929 -3.1e-4,0.0104 c 0.0343,1.5169 -0.35078,3.11731 -0.73418,4.7089 -0.75725,3.14831 -1.50812,6.26791 1.47152,8.1181 l 0.0142,0.01 c 1.75948,1.17319 4.07096,1.00779 6.21304,0.85429 0.73418,-0.053 1.45165,-0.1043 2.12854,-0.1043 l 0.009,-4e-4 v 0 c 1.68549,-7e-4 3.50703,-0.3945 5.22117,-1.1438 0.41522,-0.18228 0.82883,-0.38729 1.2329,-0.6148 2.05775,-1.155 3.84984,-2.8596 4.9022,-5.0446 l 1.06904,0.51461 c -1.16607,2.4205 -3.13634,4.2993 -5.39057,5.56559 z m 12.73552,-76.69393 c -0.89803,-0.47885 -2.09993,-0.59658 -3.13079,-0.40171 l -1e-5,7.9e-4 c -0.51861,0.0995 -0.98554,0.27608 -1.33074,0.52103 -0.29668,0.21091 -0.50189,0.47485 -0.56077,0.7787 -0.0541,0.2815 0.006,0.62124 0.2163,1.02133 l 0.006,0.0113 c 0.73973,1.47869 2.57082,2.21925 4.56972,2.21925 l 0,1.18994 c -2.41573,0 -4.6604,-0.9569 -5.62365,-2.86829 l -0.002,7.5e-4 c -0.34759,-0.6562 -0.4375,-1.26072 -0.33328,-1.79766 0.12076,-0.62758 0.5019,-1.13903 1.04042,-1.52242 0.48995,-0.34919 1.11757,-0.59259 1.79524,-0.72145 l 0.002,-3e-5 c 1.27028,-0.24098 2.76726,-0.0867 3.9095,0.5226 z m -4.60549,-9.20704 c -0.34442,-0.14797 -0.68488,-0.2943 -1.01736,-0.44146 -0.34122,2.82215 -2.76489,4.69856 -5.40888,5.74774 -0.56237,0.22336 -1.1279,0.40806 -1.67833,0.55359 -0.28093,0.0757 -0.55916,0.14155 -0.83361,0.19904 0.0829,0.43669 0.13347,0.88296 0.15281,1.33792 0.0986,2.27889 -0.56395,4.72718 -1.64413,6.65767 -0.10092,0.17889 -0.21318,0.36592 -0.33488,0.5576 l -0.002,0.006 c -0.26476,0.40648 -0.55204,0.77715 -0.85665,1.11757 2.76725,-0.50509 5.4868,-0.37384 8.17932,0.12162 2.69808,0.49554 5.35956,1.35381 8.01547,2.2972 l -0.39452,1.11995 c -2.61138,-0.92747 -5.22195,-1.77062 -7.83572,-2.25026 -2.58909,-0.47646 -5.19571,-0.60133 -7.8365,-0.10658 l -0.20612,-1.09688 c -2.27333,2.47614 -5.5449,3.28906 -8.78785,4.09245 -0.727,0.18145 -1.45562,0.36115 -2.14047,0.55201 l 0,7.8e-4 -0.0335,0.009 -0.32057,-1.14303 0.0336,-0.0111 0.002,-10e-6 c 0.73255,-0.20457 1.45483,-0.38258 2.17548,-0.56159 3.49429,-0.86621 7.022,-1.74037 9.01055,-4.78924 l 8e-4,7.9e-4 c 0.0947,-0.14967 0.19333,-0.31657 0.2943,-0.49791 0.98157,-1.75314 1.5829,-3.96996 1.49542,-6.02615 -0.0867,-1.98456 -0.82727,-3.81564 -2.51196,-4.88707 l -0.002,-0.003 c -0.0828,-0.0524 -0.17093,-0.10574 -0.26023,-0.15421 l -0.0142,-0.009 -0.0343,-0.0198 -0.006,-0.006 c -0.21233,-0.12161 -0.44781,-0.23076 -0.69837,-0.31976 -0.25456,-0.0907 -0.53849,-0.16783 -0.84076,-0.22508 -1.49222,-0.28637 -3.26839,-0.0652 -4.32553,0.99109 l -0.006,0.006 -0.002,-4.4e-4 c -0.35953,0.36033 -0.70396,0.7676 -1.01974,1.20826 -0.31736,0.44225 -0.61407,0.92668 -0.87734,1.43654 -1.32122,2.57161 -1.75867,5.78512 -0.0731,8.14435 l -0.96641,0.68802 c -1.98221,-2.77364 -1.51371,-6.45883 -0.0142,-9.37565 0.28637,-0.55759 0.61326,-1.09211 0.96963,-1.58528 0.35636,-0.49714 0.74055,-0.9529 1.14143,-1.35379 l -2e-5,-0.003 0.006,-0.006 c 1.36496,-1.36414 3.56828,-1.66721 5.3906,-1.31644 0.3476,0.0669 0.69119,0.16073 1.01733,0.27838 0.32774,0.11679 0.63315,0.25625 0.90041,0.41283 l 0.006,0.006 0.0255,0.0142 c 0.10828,0.0595 0.21544,0.12331 0.31738,0.18937 1.3005,0.82724 2.13808,2.00524 2.605,3.3519 0.27355,-0.055 0.55443,-0.12102 0.83361,-0.19562 0.51777,-0.1377 1.0412,-0.30704 1.54392,-0.50748 2.5159,-0.99744 4.80354,-2.81341 4.69458,-5.52579 l -0.0388,-1.00302 0.89564,0.44779 8e-4,-7.8e-4 c 0.56474,0.26732 1.16369,0.52338 1.77458,0.78429 3.0083,1.28381 6.30294,2.69172 7.36484,6.02771 l -1.13031,0.35711 c -0.89088,-2.8142 -3.92543,-4.11073 -6.69587,-5.29353 z m -16.95765,11.5742 c -1e-5,-0.73655 0.0947,-1.43495 0.30623,-2.09434 0.21318,-0.66419 0.54725,-1.2846 1.02213,-1.85413 l 0.91154,0.75725 c -0.37383,0.44701 -0.6371,0.9362 -0.80494,1.46038 -0.16953,0.52896 -0.24664,1.10723 -0.24663,1.73084 z m 26.60134,85.84048 -3.05999,-10e-6 -10e-6,-60.17369 0,-1.5297 1.5304,0 78.02306,0 10e-6,3.06 -76.49346,0 z m 7.13974,-4.759 -3.06001,0 10e-6,-47.766 -10e-6,-1.5296 1.52961,0 64.93436,0 0,3.06 -63.40397,0 z m 24.90627,-9.2683 c -0.53452,-0.5345 -1.16769,-0.7779 -1.80559,-1.0221 v 0 c -0.9036,-0.3476 -1.81915,-0.70001 -2.65594,-1.746 -0.26165,-0.3269 -1.24166,-10e-6 -1.98296,0.3477 -0.16782,0.079 -0.32376,0.15901 -0.45423,0.23379 -0.11622,0.068 -0.21941,0.1353 -0.30302,0.19651 l 7.8e-4,0 c -0.62441,0.4908 -1.16848,0.9537 -1.70696,1.41109 -1.76186,1.50091 -3.49989,2.97881 -5.77319,3.78141 l -0.39452,-1.12 c 2.07446,-0.7325 3.72656,-2.13801 5.4009,-3.56271 0.59102,-0.5035 1.18678,-1.01009 1.73882,-1.44359 l 0.0112,-0.0103 0.006,-0.01 0.002,-1e-5 c 0.10887,-0.08 0.25541,-0.1757 0.42794,-0.27521 0.16215,-0.094 0.3484,-0.19077 0.54249,-0.2815 1.12233,-0.5242 2.69726,-0.9036 3.40998,-0.011 0.63633,0.79621 1.39915,1.0897 2.1524,1.3776 l 7.9e-4,1e-5 c 0.76044,0.29119 1.5145,0.58229 2.22481,1.2918 z m 2.22719,-7.9184 c -0.44181,-1.67591 -2.22719,-2.6345 -4.06462,-3.6232 -1.35857,-0.7302 -2.7442,-1.4755 -3.76871,-2.5668 l 7.9e-4,-8.1e-4 -0.002,-4.4e-4 -7.8e-4,8e-4 c -0.54646,-0.5457 -0.89882,-0.8972 -1.23769,-1.0436 l 8e-4,-8e-4 c -0.21941,-0.093 -0.48044,-0.12101 -0.85587,-0.081 0.121,0.47474 0.27691,0.94651 0.42953,1.4079 0.38106,1.15089 0.7509,2.2614 0.63396,3.4338 l -1.1796,-0.11621 c 0.0916,-0.92669 -0.23783,-1.9178 -0.57828,-2.94549 -0.23132,-0.69601 -0.46929,-1.40871 -0.60536,-2.16109 l -0.10429,-0.57431 0.57112,-0.11369 c 0.97598,-0.19473 1.58369,-0.1862 2.15478,0.059 l 0.003,-2e-5 c 0.55121,0.237 0.96722,0.6498 1.60912,1.2933 l 0.008,0.011 0.0142,0.014 0.002,-10e-6 c 0.89405,0.9505 2.19379,1.6497 3.46645,2.33459 2.06892,1.1112 4.07814,2.193 4.65084,4.3661 z m 47.72539,-2.38711 -0.003,0.01 c -0.61883,2.32259 -2.51115,3.2255 -4.27221,4.0646 -0.38658,0.18371 -0.76918,0.36509 -1.08656,0.5361 l -0.009,0.01 -0.002,7.7e-4 -0.006,-3.8e-4 c -0.62361,0.4208 -1.26472,0.79541 -1.91538,1.11201 -0.65703,0.3198 -1.34266,0.5926 -2.04821,0.8098 -3.53487,1.0841 -7.44041,0.69749 -11.08661,-1.96631 -1.39118,1.63301 -3.26284,2.79591 -5.34684,3.612 -3.2183,1.26071 -6.94404,1.69581 -10.14562,1.78251 l -0.0286,-1.18671 c 3.08701,-0.083 6.67279,-0.49869 9.74231,-1.7014 2.98206,-1.16849 5.47809,-3.08709 6.52487,-6.1821 0.16158,-0.7302 0.32373,-1.5399 0.34442,-2.39179 0.017,-0.8392 -0.0987,-1.7388 -0.4876,-2.67181 l 7.9e-4,10e-6 -0.002,10e-6 0,9e-4 c -0.0638,-0.148 -0.13749,-0.2983 -0.21941,-0.4487 v 0 c -0.0836,-0.1577 -0.17403,-0.30871 -0.26561,-0.45189 l -0.002,10e-6 c -0.49396,-0.7787 -1.12713,-1.49529 -1.59325,-1.9607 l 7.9e-4,-7.9e-4 c -0.28395,-0.26081 -0.5894,-0.49471 -0.90837,-0.69441 -0.31976,-0.2021 -0.66021,-0.377 -1.01098,-0.51779 -1.80005,-0.72621 -3.93734,-0.61881 -5.83603,0.61009 l -0.0254,0.0172 c -0.85825,0.5011 -1.32119,1.0929 -1.45721,1.7714 -0.14145,0.7103 0.0493,1.5606 0.49714,2.5382 l 0.014,0.0331 -1.08099,0.49311 -0.002,-0.01 0,-8e-4 -0.0109,-0.0251 c -0.14709,-0.29201 -0.57187,-0.6523 -1.17642,-1.0142 -0.93302,-0.55921 -2.23433,-1.0651 -3.59052,-1.2989 -1.32599,-0.2291 -2.69568,-0.1973 -3.79418,0.3006 l -7.9e-4,0 c -0.64111,0.292 -1.19634,0.7509 -1.59644,1.4183 l -0.31258,0.5194 -0.51144,-0.3189 c -0.47568,-0.2968 -0.87816,-0.6555 -1.28225,-1.01581 -0.7445,-0.66339 -1.50494,-1.3411 -2.68613,-1.44449 -1.09609,-0.01 -1.26235,-0.4725 -1.48905,-1.12 l -0.002,2e-5 c -0.0802,-0.2282 -0.17745,-0.5019 -0.42714,-0.7524 -0.4884,-0.4884 -0.77634,-0.9378 -1.0261,-1.3316 -0.38261,-0.5997 -0.66102,-1.0356 -1.87163,-1.2209 l -0.13209,-0.02 -0.10973,-0.073 -0.011,-0.0101 7.9e-4,-9e-4 -0.42,-0.2752 -7.9e-4,8e-4 -0.44305,-0.2767 c -0.72703,-0.4462 -1.4246,-0.8423 -1.88913,-1.077 -1.57018,-0.494 -3.29861,-0.9871 -4.93085,-1.0277 -1.57016,-0.039 -3.0767,0.3444 -4.30323,1.5702 -1.80639,1.8064 -2.23591,4.1943 -2.0156,6.711 0.22734,2.6082 1.14938,5.3739 1.98773,7.80391 l -1.1247,0.38584 c -0.86067,-2.49931 -1.81039,-5.34531 -2.04903,-8.08791 -0.24803,-2.8373 0.25854,-5.5513 2.36082,-7.6544 1.49301,-1.493 3.30102,-1.9599 5.17343,-1.91379 1.80004,0.044 3.63192,0.5672 5.28559,1.0882 l 0.0349,0.011 0.051,0.025 c 0.51148,0.25459 1.28063,0.6833 2.04189,1.15179 l 0.003,-3e-5 0.44544,0.2784 0.009,0.01 0.33805,0.2202 c 1.12871,0.1911 1.66482,0.5473 2.0665,1.0253 0.52261,-0.14 1.03803,-0.24801 1.53598,-0.32211 0.67927,-0.10085 1.34744,-0.1457 1.99808,-0.1352 3.35034,0.051 6.13034,1.5439 8.07117,3.87211 l -0.43031,0.3571 c 0.54963,0.01 1.10802,0.06 1.65527,0.1551 1.4771,0.2554 2.9033,0.8041 3.94371,1.41659 -0.0485,-0.41759 -0.0374,-0.8169 0.0391,-1.19949 0.20353,-1.01651 0.84633,-1.87321 2.02274,-2.56121 2.24391,-1.44129 4.77174,-1.5638 6.90507,-0.704 0.41682,0.16781 0.81931,0.37471 1.20108,0.61571 0.3842,0.24179 0.7477,0.51779 1.08181,0.82479 l 0.017,0.017 0.017,0.017 c 0.50907,0.50831 1.2043,1.29661 1.75552,2.16601 l -8.1e-4,7.9e-4 c 0.11141,0.1766 0.21545,0.35151 0.30862,0.52421 l 0.002,-8.6e-4 c 0.0964,0.1789 0.18684,0.36119 0.26647,0.54649 v 0 l 0.003,0.01 0.003,0.01 c 0.45974,1.10411 0.59813,2.16271 0.57509,3.14991 -0.002,0.094 -0.009,0.18451 -0.0113,0.27749 0.61803,0.082 1.24961,0.24349 1.85173,0.39529 l 0.002,-1e-5 c 1.10722,0.2815 2.10231,0.533 2.29795,0.1894 l 0.006,-0.01 7.8e-4,8e-4 c 0.43351,-0.7652 0.60532,-1.8319 0.77872,-2.9065 0.35078,-2.1866 0.7103,-4.4098 3.11489,-5.1742 1.45799,-0.5012 2.9868,-0.521 4.40265,-0.16779 1.25996,0.31499 2.43719,0.92979 3.40203,1.76819 0.97438,0.8447 1.73563,1.9178 2.15718,3.1419 0.41207,1.1963 0.50192,2.5398 0.14798,3.9533 z m 6.22418,-96.69481 69.69338,-10e-6 10e-6,51.50523 -69.69339,0 z m 109.12889,121.02762 -103.86,0 -1e-5,-58.983 103.86002,0 z" /><path
   inkscape:connector-curvature="0"
   id="_46914736"
   d="m 536.4407,692.42816 -10e-6,-38.24712 10e-6,-0.93461 0.93541,-1e-5 53.20585,1e-5 0.93461,0 0,0.93462 0,38.24712 0,0.93462 -0.93462,0 -53.20583,-10e-6 -0.93542,10e-6 z m 1.87082,-37.3117 0,36.37629 51.33502,10e-6 0,-36.3763 z"
   style="fill:#015498;fill-opacity:1;stroke-width:0.79542321" /><path
   inkscape:connector-curvature="0"
   id="_25245768"
   d="m 544.43388,758.89295 10e-6,-42.8367 -7.9e-4,-0.9363 0.93223,0 84.4827,0 0.93065,0 7.9e-4,0.9363 1e-5,42.8367 -8e-4,0.9346 -0.93064,0 -84.48271,0 -0.93224,0 z m 1.86289,-41.9013 10e-6,40.9659 82.61901,0 10e-6,-40.9659 z"
   style="fill:#015498;fill-opacity:1;stroke-width:0.79542321" /></svg>