<?xml version="1.0" encoding="UTF-8" standalone="no"?>
<!-- Created with Inkscape (http://www.inkscape.org/) -->

<svg
   xmlns:dc="http://purl.org/dc/elements/1.1/"
   xmlns:cc="http://creativecommons.org/ns#"
   xmlns:rdf="http://www.w3.org/1999/02/22-rdf-syntax-ns#"
   xmlns:svg="http://www.w3.org/2000/svg"
   xmlns="http://www.w3.org/2000/svg"
   xmlns:sodipodi="http://sodipodi.sourceforge.net/DTD/sodipodi-0.dtd"
   xmlns:inkscape="http://www.inkscape.org/namespaces/inkscape"
   id="svg2"
   version="1.1"
   inkscape:version="0.48.5 r10040"
   width="140.97888"
   height="128.84462"
   xml:space="preserve"
   sodipodi:docname="01. F STATUT.pdf"><metadata
     id="metadata8"><rdf:RDF><cc:Work
         rdf:about=""><dc:format>image/svg+xml</dc:format><dc:type
           rdf:resource="http://purl.org/dc/dcmitype/StillImage" /><dc:title></dc:title></cc:Work></rdf:RDF></metadata><defs
     id="defs6"><clipPath
       clipPathUnits="userSpaceOnUse"
       id="clipPath58"><path
         d="m 28.0965,91.3336 463.8075,0 0,722.4594 -463.8075,0 0,-722.4594 z"
         id="path60"
         inkscape:connector-curvature="0" /></clipPath><linearGradient
       x1="0"
       y1="0"
       x2="1"
       y2="0"
       gradientUnits="userSpaceOnUse"
       gradientTransform="matrix(232.44095,0,0,-232.44095,181.41658,92.333618)"
       spreadMethod="pad"
       id="linearGradient72"><stop
         style="stop-opacity:0;stop-color:#ffffff"
         offset="0"
         id="stop74" /><stop
         style="stop-opacity:1;stop-color:#ffffff"
         offset="0.5"
         id="stop76" /><stop
         style="stop-opacity:0;stop-color:#ffffff"
         offset="1"
         id="stop78" /></linearGradient><linearGradient
       x1="0"
       y1="0"
       x2="1"
       y2="0"
       gradientUnits="userSpaceOnUse"
       gradientTransform="matrix(-386.53265,0,0,-386.53265,490.90381,679.23514)"
       spreadMethod="pad"
       id="linearGradient126"><stop
         style="stop-opacity:0;stop-color:#ffffff"
         offset="0"
         id="stop128" /><stop
         style="stop-opacity:1;stop-color:#ffffff"
         offset="0.5"
         id="stop130" /><stop
         style="stop-opacity:0;stop-color:#ffffff"
         offset="1"
         id="stop132" /></linearGradient></defs><sodipodi:namedview
     pagecolor="#ffffff"
     bordercolor="#666666"
     borderopacity="1"
     objecttolerance="10"
     gridtolerance="10"
     guidetolerance="10"
     inkscape:pageopacity="0"
     inkscape:pageshadow="2"
     inkscape:window-width="1280"
     inkscape:window-height="672"
     id="namedview4"
     showgrid="false"
     fit-margin-top="0"
     fit-margin-left="0"
     fit-margin-right="0"
     fit-margin-bottom="0"
     inkscape:zoom="2.5371819"
     inkscape:cx="182.36379"
     inkscape:cy="83.351643"
     inkscape:window-x="0"
     inkscape:window-y="1"
     inkscape:window-maximized="1"
     inkscape:current-layer="g62" /><g
     id="g10"
     inkscape:groupmode="layer"
     inkscape:label="01. F STATUT"
     transform="matrix(1.25,0,0,-1.25,-301.55762,987.12663)"><g
       id="g52"><g
         id="g54"><g
           id="g56"
           clip-path="url(#clipPath58)"><g
             id="g62"><g
               id="g3209"
               style="fill:#00457d;fill-opacity:1"><path
                 transform="translate(283.2783,726.4183)"
                 d="M 0,0 C 0.304,0.593 0.503,1.005 0.711,1.487 0.822,1.417 0.956,1.328 1.131,1.238 1.305,1.148 1.456,1.09 1.578,1.042 1.307,0.592 1.087,0.19 0.783,-0.402 l -0.37,-0.72 c -0.304,-0.592 -0.503,-1.005 -0.71,-1.487 -0.111,0.071 -0.246,0.16 -0.421,0.25 -0.174,0.089 -0.325,0.147 -0.447,0.196 0.271,0.449 0.491,0.851 0.795,1.444 L 0,0 z M 2.735,0.452 C 2.813,0.405 2.893,0.364 2.977,0.333 3.061,0.303 3.149,0.284 3.239,0.271 c 0.486,-1.18 0.969,-2.351 1.472,-3.537 0.32,0.89 0.867,2.413 0.918,2.679 0.078,-0.047 0.158,-0.089 0.242,-0.119 0.084,-0.03 0.172,-0.049 0.262,-0.062 C 5.458,-2.365 5.191,-3.109 4.656,-4.599 4.584,-4.554 4.515,-4.516 4.437,-4.488 4.359,-4.46 4.282,-4.445 4.208,-4.438 3.767,-3.255 3.275,-2.055 2.739,-0.839 2.577,-1.255 2.41,-1.719 2.26,-2.139 1.938,-3.035 1.842,-3.354 1.785,-3.568 c -0.084,0.049 -0.169,0.093 -0.253,0.123 -0.084,0.03 -0.178,0.051 -0.268,0.064 0.086,0.153 0.689,1.567 1.099,2.709 0.181,0.504 0.281,0.853 0.372,1.124 m 5.068,-2.581 c 0.045,0.222 0.087,0.431 0.086,0.517 -0.227,0.046 -0.724,0.11 -1.082,0.14 0.035,0.084 0.063,0.163 0.081,0.251 C 6.906,-1.134 6.91,-1.05 6.91,-0.959 7.437,-1.083 7.697,-1.148 8.42,-1.294 9.144,-1.44 9.408,-1.481 9.907,-1.564 9.872,-1.648 9.844,-1.727 9.826,-1.815 9.809,-1.902 9.804,-1.986 9.804,-2.078 9.497,-1.973 9.014,-1.839 8.781,-1.792 8.753,-1.872 8.711,-2.081 8.666,-2.303 L 8.371,-3.76 C 8.24,-4.413 8.161,-4.865 8.092,-5.385 7.966,-5.347 7.812,-5.298 7.62,-5.259 7.427,-5.22 7.266,-5.206 7.136,-5.192 c 0.138,0.506 0.241,0.953 0.373,1.606 l 0.294,1.457 z m 2.841,-1.172 c 0.056,0.664 0.083,1.121 0.092,1.646 0.349,-0.036 0.702,-0.09 1.052,-0.119 0.581,-0.049 1.079,-0.08 1.241,-0.075 -0.018,-0.071 -0.036,-0.141 -0.045,-0.248 -0.01,-0.124 -0.003,-0.178 10e-4,-0.269 -0.448,0.068 -1.155,0.17 -1.333,0.185 -0.066,-0.43 -0.102,-0.856 -0.139,-1.289 0.516,-0.032 0.897,-0.052 1.349,-0.067 -0.035,-0.134 -0.046,-0.187 -0.052,-0.264 -0.006,-0.065 0.002,-0.119 0.009,-0.245 -0.448,0.074 -0.89,0.129 -1.341,0.167 -0.021,-0.249 -0.048,-0.503 -0.07,-0.758 -0.021,-0.248 -0.037,-0.504 -0.045,-0.742 0.444,-0.038 0.903,-0.053 1.364,-0.038 -0.02,-0.082 -0.036,-0.14 -0.047,-0.265 -0.011,-0.124 -0.004,-0.184 0.002,-0.256 -0.213,0.024 -0.489,0.071 -1.034,0.117 -0.966,0.082 -1.128,0.078 -1.259,0.077 0.08,0.518 0.13,0.974 0.187,1.637 l 0.068,0.806 z m 4.438,-0.759 -0.054,-0.001 0.008,-0.244 c 0.021,-0.666 0.048,-1.123 0.1,-1.645 -0.131,0.008 -0.292,0.02 -0.488,0.014 -0.196,-0.006 -0.356,-0.029 -0.487,-0.046 0.019,0.525 0.016,0.983 -0.005,1.649 l -0.026,0.808 c -0.021,0.666 -0.048,1.124 -0.1,1.645 0.131,-0.007 0.292,-0.02 0.488,-0.014 0.214,0.007 0.469,0.045 0.873,0.058 0.601,0.02 0.823,-0.027 1.036,-0.169 0.243,-0.165 0.4,-0.422 0.411,-0.772 0.019,-0.577 -0.303,-0.956 -0.887,-1.124 0.402,-0.659 0.876,-1.323 1.332,-1.981 -0.179,0.007 -0.358,0.019 -0.536,0.013 -0.179,-0.006 -0.363,-0.029 -0.541,-0.047 l -1.124,1.856 z m -0.096,1.872 c 0.006,-0.541 0.017,-1.076 0.034,-1.618 0.048,-0.004 0.09,-0.008 0.131,-0.007 0.523,0.016 0.799,0.317 0.782,0.875 -0.023,0.703 -0.299,0.771 -0.947,0.75 m 3.18,-1.111 c -0.103,0.658 -0.186,1.109 -0.302,1.621 0.131,0.009 0.293,0.016 0.487,0.046 0.27,0.042 0.571,0.12 0.853,0.164 0.552,0.086 0.854,0.043 1.06,-0.081 0.279,-0.167 0.435,-0.39 0.489,-0.736 0.141,-0.9 -0.438,-1.358 -1.313,-1.495 l -0.3,-0.047 c 0.092,-0.587 0.19,-1.174 0.323,-1.755 -0.131,-0.009 -0.292,-0.016 -0.486,-0.046 -0.194,-0.031 -0.35,-0.073 -0.478,-0.105 -0.046,0.522 -0.105,0.977 -0.207,1.635 l -0.126,0.799 z m 0.926,1.47 c -0.094,-0.015 -0.182,-0.029 -0.246,-0.045 0.081,-0.553 0.161,-1.106 0.247,-1.653 0.394,0.062 0.865,0.244 0.746,1.002 -0.094,0.599 -0.412,0.748 -0.747,0.696 m 4.18,1.401 c 1.203,0.378 2.357,0.018 2.787,-1.349 0.354,-1.123 -0.261,-2.321 -1.526,-2.718 -1.197,-0.377 -2.355,-0.067 -2.8,1.351 -0.352,1.118 0.223,2.302 1.539,2.716 m 0.085,-0.329 c -0.777,-0.244 -0.985,-1.17 -0.678,-2.146 0.38,-1.208 1.068,-1.453 1.703,-1.253 0.681,0.214 1.098,0.969 0.709,2.205 -0.308,0.982 -1.002,1.424 -1.734,1.194 m 3.651,-0.112 c -0.293,0.599 -0.505,1.005 -0.767,1.459 0.122,0.047 0.274,0.101 0.451,0.188 0.176,0.086 0.312,0.173 0.424,0.241 0.198,-0.486 0.389,-0.902 0.682,-1.5 l 0.355,-0.727 c 0.194,-0.395 0.398,-0.798 0.539,-1.073 0.401,0.196 0.802,0.418 1.189,0.668 0.026,-0.081 0.042,-0.139 0.096,-0.251 0.055,-0.113 0.092,-0.161 0.134,-0.219 -0.195,-0.089 -0.456,-0.191 -0.948,-0.431 -0.87,-0.426 -1.006,-0.513 -1.119,-0.581 -0.198,0.486 -0.388,0.902 -0.681,1.501 l -0.355,0.725 z M -1.234,39.743 c 1.015,0.597 2.143,0.512 2.822,-0.643 0.558,-0.949 0.249,-2.169 -0.819,-2.797 -1.012,-0.595 -2.13,-0.556 -2.835,0.642 -0.555,0.944 -0.28,2.144 0.832,2.798 m 0.146,-0.282 c -0.657,-0.386 -0.651,-1.273 -0.167,-2.097 0.6,-1.021 1.279,-1.099 1.815,-0.784 0.575,0.339 0.797,1.113 0.183,2.158 -0.488,0.829 -1.213,1.087 -1.831,0.723 m 3.433,0.313 c -0.245,0.573 -0.424,0.962 -0.646,1.398 0.116,0.038 0.261,0.082 0.43,0.154 0.168,0.072 0.3,0.146 0.408,0.205 0.161,-0.463 0.319,-0.861 0.564,-1.433 L 3.398,39.402 C 3.643,38.83 3.821,38.441 4.044,38.004 3.927,37.966 3.783,37.923 3.614,37.851 3.446,37.778 3.314,37.704 3.206,37.646 c -0.162,0.463 -0.32,0.86 -0.564,1.433 l -0.297,0.695 z m 1.842,0.763 c -0.191,0.593 -0.332,0.997 -0.513,1.453 0.12,0.027 0.269,0.057 0.443,0.113 0.244,0.078 0.511,0.192 0.765,0.273 0.497,0.159 0.782,0.163 0.99,0.078 C 6.154,42.34 6.33,42.157 6.43,41.844 6.689,41.034 6.221,40.528 5.432,40.276 L 5.162,40.189 C 5.331,39.66 5.506,39.132 5.713,38.614 5.593,38.588 5.445,38.557 5.27,38.502 5.095,38.446 4.957,38.384 4.844,38.336 4.727,38.812 4.607,39.224 4.417,39.816 l -0.23,0.721 z m 0.643,1.49 C 4.745,42 4.666,41.974 4.609,41.95 c 0.155,-0.499 0.308,-0.998 0.466,-1.491 0.355,0.114 0.764,0.35 0.545,1.033 -0.173,0.54 -0.488,0.631 -0.79,0.535 m 5.895,-1.576 c -0.032,-0.164 -0.046,-0.331 -0.034,-0.487 -0.26,-0.207 -0.621,-0.365 -1.07,-0.449 -1.267,-0.237 -2.164,0.416 -2.357,1.449 -0.282,1.508 0.632,2.279 1.78,2.493 0.383,0.071 0.885,0.046 1.165,-0.06 -0.038,-0.194 -0.04,-0.392 -0.022,-0.581 l -0.076,-0.014 c -0.337,0.288 -0.643,0.383 -1.031,0.311 -0.585,-0.11 -1.151,-0.741 -0.935,-1.9 0.21,-1.126 0.96,-1.444 1.588,-1.326 0.35,0.065 0.724,0.304 0.913,0.594 l 0.079,-0.03 z m 7.689,1.567 c 0.091,0.616 0.142,1.041 0.18,1.53 0.12,-0.029 0.265,-0.068 0.447,-0.094 0.181,-0.027 0.332,-0.032 0.455,-0.039 -0.104,-0.479 -0.178,-0.901 -0.269,-1.517 l -0.109,-0.747 c -0.091,-0.616 -0.143,-1.041 -0.181,-1.53 -0.119,0.029 -0.265,0.067 -0.447,0.094 -0.181,0.027 -0.332,0.032 -0.455,0.039 0.104,0.479 0.178,0.901 0.269,1.517 l 0.11,0.747 z m 4.546,-2.65 c -0.098,-0.136 -0.18,-0.282 -0.235,-0.428 -0.323,-0.079 -0.717,-0.071 -1.159,0.04 -1.251,0.316 -1.792,1.284 -1.534,2.303 0.376,1.487 1.528,1.804 2.66,1.518 0.377,-0.095 0.822,-0.328 1.032,-0.542 -0.115,-0.16 -0.2,-0.339 -0.263,-0.518 l -0.075,0.019 c -0.185,0.402 -0.423,0.617 -0.806,0.714 -0.576,0.146 -1.355,-0.191 -1.644,-1.334 -0.28,-1.11 0.267,-1.713 0.887,-1.869 0.345,-0.087 0.784,-0.026 1.077,0.158 l 0.06,-0.061 z m 1.289,1.28 c 0.228,0.58 0.375,0.982 0.523,1.45 0.11,-0.055 0.243,-0.126 0.414,-0.193 0.238,-0.094 0.517,-0.174 0.765,-0.272 0.487,-0.191 0.709,-0.369 0.817,-0.566 0.146,-0.267 0.166,-0.52 0.046,-0.825 -0.312,-0.791 -0.995,-0.887 -1.765,-0.583 l -0.264,0.104 c -0.204,-0.518 -0.402,-1.037 -0.57,-1.569 -0.11,0.056 -0.243,0.126 -0.414,0.193 -0.17,0.067 -0.316,0.107 -0.434,0.141 0.21,0.443 0.377,0.838 0.605,1.417 l 0.277,0.703 z m 1.441,0.748 c -0.082,0.032 -0.16,0.063 -0.219,0.08 -0.196,-0.484 -0.393,-0.969 -0.582,-1.45 0.346,-0.136 0.812,-0.212 1.075,0.455 0.208,0.528 0.021,0.798 -0.274,0.915 m 4.183,-1.589 c 1.019,-0.591 1.499,-1.615 0.826,-2.774 -0.553,-0.952 -1.767,-1.282 -2.839,-0.659 -1.014,0.589 -1.53,1.582 -0.832,2.784 0.55,0.947 1.73,1.297 2.845,0.649 M 29.7,39.542 c -0.659,0.382 -1.429,-0.058 -1.909,-0.885 -0.594,-1.024 -0.33,-1.653 0.209,-1.966 0.576,-0.335 1.361,-0.147 1.969,0.901 0.483,0.832 0.351,1.59 -0.269,1.95 M 9.029,35.393 c 0.441,0.581 1.527,0.517 1.9,1.165 C 9.932,36.411 9.228,35.972 8.6,35.455 8.679,35.371 8.866,35.394 9.029,35.393 m 1.716,0.552 C 10.081,35.792 9.227,35.828 9.213,35.026 9.395,35.022 9.524,35.207 9.642,35.087 9.396,34.536 8.846,34.289 8.478,33.862 c -0.059,-0.741 -0.85,-1.066 -0.613,-1.9 0.522,0.132 0.661,0.646 1.286,0.674 0.19,1.057 1.802,0.691 2.268,1.471 0.024,0.147 -0.279,-0.034 -0.184,0.184 0.201,0.003 0.234,0.174 0.49,0.123 0.22,0.637 0.829,0.886 0.981,1.592 l -0.429,0 c 0.011,0.174 0.291,0.077 0.245,0.307 -0.589,0.182 -1.45,0.057 -1.777,-0.368 M 7.497,36.19 C 7.278,36.164 7.162,36.036 7.068,35.884 7.156,35.869 7.172,35.783 7.252,35.761 7.292,35.942 7.648,36.01 7.497,36.19 M 7.252,35.087 c 0.232,-0.026 0.287,0.121 0.429,0.184 0.044,0.167 -0.122,0.124 -0.122,0.245 0.359,0.09 0.427,0.472 0.673,0.674 -0.45,-0.06 -0.608,-0.412 -0.919,-0.612 0.2,-0.146 -0.056,-0.347 -0.061,-0.491 m 1.47,1.042 c -0.187,0.084 -0.482,-0.25 -0.489,-0.551 0.321,0.025 0.468,0.224 0.489,0.551 M 6.824,35.761 C 6.826,35.867 6.776,35.918 6.7,35.945 6.684,35.82 6.472,35.887 6.455,35.761 c 0.079,-0.084 0.29,-0.084 0.369,0 M 7.068,35.639 C 6.854,35.589 6.781,35.395 6.7,35.21 c 0.204,0.062 0.362,0.17 0.368,0.429 m 13.659,-0.552 c 0.412,-0.044 0.647,0.089 0.735,0.368 -0.249,0.101 -0.569,-0.085 -0.797,-0.062 -0.05,-0.173 0.087,-0.158 0.062,-0.306 M 8.294,35.332 C 8.032,35.53 7.751,35.39 7.803,34.965 8.129,34.926 8.134,35.207 8.294,35.332 M 21.34,34.72 c 0.231,-0.047 0.293,0.074 0.49,0.061 l 0,0.245 C 21.685,35.007 21.6,34.929 21.401,34.965 21.414,34.849 21.332,34.829 21.34,34.72 m -3.922,-0.246 c 0.016,0.201 -0.073,0.295 -0.246,0.307 0.035,-0.15 0.053,-0.316 0.246,-0.307 m -6.489,-1.103 c -0.124,-0.1 -0.199,-0.25 -0.184,-0.49 0.393,-0.083 0.846,-0.033 0.858,0.429 -0.302,0.193 -0.445,-0.167 -0.674,0.061 m 1.402,-2.266 c -0.037,0.151 0.224,0.477 -0.061,0.49 -0.725,-0.423 0.269,-1.048 -0.122,-1.655 0.266,0.061 0.49,0.165 0.735,0.246 0,0.488 -0.484,0.495 -0.552,0.919 m -0.673,-0.43 -0.306,0 c -0.031,-0.139 -0.122,-0.313 0,-0.429 l 0.245,0 c -0.088,0.267 0.208,0.283 0.061,0.429 m 18.689,-2.573 c -0.268,0.175 0.079,0.591 -0.184,0.735 -0.008,-0.175 -0.421,0.054 -0.429,-0.123 0.267,-0.102 0.313,-0.747 0.613,-0.612 m 0.735,-2.758 c 0.08,0.366 -0.193,0.379 -0.184,0.674 0.474,0.408 0.117,1.139 -0.244,1.41 0.455,-0.716 -0.716,-1.887 0.428,-2.084 m -13.603,1.348 c -0.229,-0.081 -0.423,0.183 -0.552,0 0.107,-0.084 0.49,-0.24 0.552,0 m 0.858,-0.245 c 0.044,0.212 -0.215,0.22 -0.306,0.123 0.021,-0.216 0.16,-0.159 0.306,-0.123 m 12.439,-3.37 c 0.099,0.308 -0.042,0.471 0.122,0.858 -0.167,-0.044 -0.123,0.122 -0.244,0.122 -0.069,-0.197 -0.105,-0.426 -0.185,-0.613 0.105,-0.12 0.144,-0.306 0.307,-0.367 M 0.757,22.587 c 0.308,-0.122 0.365,0.097 0.674,0.122 -0.005,0.316 -0.335,0.445 -0.612,0.307 -0.321,0.17 -0.447,0.533 -0.675,0.796 -0.254,0.01 -0.473,-0.016 -0.613,-0.122 0.358,-0.06 0.618,-0.238 0.735,-0.674 0.158,0.056 0.348,0.1 0.43,-0.061 -0.009,-0.151 -0.01,-0.296 0.061,-0.368 M 0.206,22.832 C 0.162,22.605 0.302,22.561 0.512,22.587 0.5,22.759 0.405,22.848 0.206,22.832 m 29.161,-0.43 0.367,0 c 0.054,0.321 -0.096,0.436 -0.367,0.43 -0.122,-0.115 -0.03,-0.29 0,-0.43 m 1.531,-0.306 c 0.066,-0.552 0.281,-1.144 0.613,-1.592 0.055,0.474 0.078,1.671 -0.613,1.592 m 0.613,-2.757 c 0.402,-0.024 0.506,0.8 0.245,1.042 -0.154,-0.292 -0.455,-0.563 -0.245,-1.042 m -4.964,0.919 c 0.03,-0.255 -0.286,-0.603 0,-0.734 0.149,0.116 0.241,0.29 0.307,0.489 -0.176,0.008 -0.107,0.261 -0.307,0.245 m 4.107,-3.369 c 0.115,-0.015 0.135,0.068 0.244,0.061 -0.167,0.712 0.538,1.303 0.245,2.145 l -0.183,0 c -0.039,-0.414 -0.578,-0.389 -0.675,-0.859 -0.086,-0.425 0.118,-1.03 0.369,-1.347 m 0.919,1.286 c -0.524,-0.314 -0.529,-1.146 -0.613,-1.899 0.289,-0.046 0.402,0.087 0.551,0.183 -0.134,0.777 0.036,0.976 0.184,1.655 -0.013,0.048 -0.051,0.071 -0.122,0.061 m 0.796,-1.042 c -0.061,0.391 0.152,0.684 -0.184,0.981 -0.147,-0.335 -0.038,-0.587 -0.122,-0.92 0.147,0.026 0.133,-0.111 0.306,-0.061 m 1.532,0.246 c -0.053,0.253 -0.145,0.467 -0.367,0.551 0.038,-0.28 0.036,-0.462 0.367,-0.551 m -1.042,-2.268 c 0.343,0.005 0.227,0.467 0.613,0.429 0.239,-0.109 0.096,-0.599 0.368,-0.674 0.183,0.635 -0.324,1.223 -0.245,2.145 -0.416,0.072 -0.67,0.104 -0.981,0.368 0.112,-0.769 0.509,-1.474 0.245,-2.268 m 0.981,0.981 c 0.115,-0.05 0.224,-0.103 0.367,-0.123 -0.09,0.29 0.075,0.589 0.062,1.103 -0.117,0.027 -0.154,0.132 -0.306,0.122 -0.127,-0.528 0.11,-0.687 -0.123,-1.102 m -1.471,0.245 c -0.04,0.082 -0.131,0.114 -0.245,0.122 -0.251,-0.204 0.273,-0.484 0.245,-0.122 M 30.96,15.479 c -0.352,0.294 -0.662,1.03 -1.226,0.736 0.084,-0.594 0.653,-0.807 1.226,-0.736 m 0.551,0 c 0.193,-0.03 0.24,0.087 0.368,0.123 -0.013,0.169 -0.195,0.173 -0.246,0.306 -0.08,-0.102 -0.161,-0.206 -0.122,-0.429 m -0.367,-0.123 0,-0.245 c 0.154,-0.06 0.984,-0.134 0.796,0.245 -0.194,-0.096 -0.574,0.042 -0.796,0 m 3.799,0 c -0.148,0.026 -0.134,-0.111 -0.306,-0.061 0.087,-0.271 0.034,-0.446 0,-0.736 0.302,0.198 0.129,0.49 0.306,0.797 m -12.807,-0.98 c -0.145,0.263 0.069,0.887 -0.307,0.919 -0.193,-0.624 -0.728,-0.906 -1.224,-1.226 -0.076,-0.801 -0.267,-1.441 0,-2.144 0.612,0.511 0.956,1.29 1.102,2.267 0.131,0.073 0.342,0.066 0.429,0.184 m 7.467,-2.105 c -0.229,-0.412 -0.576,-1.125 -0.629,-1.462 -0.101,-0.634 -0.155,-0.262 -0.155,-0.979 0.644,-0.266 0.629,0.229 1.344,0.093 0.6,-0.412 0.435,-1.139 0.306,-1.777 0.767,0.091 1.087,0.67 1.533,1.041 0.618,0.646 1.696,2.167 1.245,3.49 0.404,0.677 0.382,1.882 0.185,1.882 0,0 -0.335,-1.038 -0.565,-1.29 0,0 -0.222,0.36 -0.498,0.33 0.103,0.412 0.451,0.507 0.245,1.042 C 32.471,14.64 32.328,14.604 32.142,14.559 31.69,13.71 31.591,14.01 31.021,13.782 30.938,13.01 30.093,12.68 29.603,12.271 m -7.467,1.247 c 0.014,-0.116 -0.069,-0.136 -0.061,-0.245 0.16,-0.018 0.263,0.022 0.245,0.184 -0.078,0.003 -0.085,0.078 -0.184,0.061 m -27.568,-0.981 0,0.246 c -0.193,-0.031 -0.25,0.144 -0.307,-0.062 0.109,-0.054 0.079,-0.248 0.307,-0.184 M 30.531,7.697 C 30.343,7.652 30.308,7.76 30.163,7.758 30.096,7.479 29.778,7.448 29.795,7.084 c 0.449,0.001 0.471,0.428 0.736,0.613 M 11.903,29.45 c -0.004,-0.309 0.432,-0.18 0.552,-0.367 0.08,-0.449 -0.189,-0.547 -0.368,-0.736 -0.245,0.061 -0.477,0.137 -0.674,0.245 -0.451,-0.374 -0.525,-1.228 -0.061,-1.655 0.31,0.096 0.878,0.244 1.103,0.062 0.092,0.152 0.117,0.372 0.123,0.613 0.623,0.163 0.994,0.973 1.715,0.919 0.5,-0.037 0.838,-0.581 1.164,-0.981 0.043,-0.227 -0.105,-0.263 -0.061,-0.49 0.233,0.052 0.318,0.254 0.428,0.429 -0.129,0.503 -0.534,0.731 -0.673,1.226 0.349,-0.096 0.531,-0.344 0.858,-0.307 -0.175,-0.888 0.717,-0.9 0.674,-1.471 0.336,0.134 0.168,0.772 0.735,0.675 -0.023,-0.473 0.19,-0.708 0.428,-0.92 0.318,0.01 0.349,0.306 0.736,0.245 0.231,-0.218 0.08,-0.818 0.123,-1.225 -0.21,-0.33 -0.616,-0.083 -0.859,-0.368 -0.339,0.009 -0.403,0.292 -0.673,0.368 -0.91,-0.562 -1.369,0.341 -2.329,0.368 -0.143,0.204 -0.116,0.578 -0.367,0.675 -0.43,-0.077 -0.892,-0.202 -1.226,0.06 C 12.825,26.527 12.008,26.441 11.413,26.509 10.632,26.126 10.489,25.104 9.575,24.855 9.389,23.884 8.032,22.35 8.777,21.361 8.953,21.13 9.17,21.073 9.267,20.81 9.371,20.533 9.194,20.218 9.452,19.952 c 0.756,-0.522 2.311,-0.668 3.186,-0.122 0.693,-0.245 1.21,-0.124 1.961,-0.246 -0.038,-0.303 0.138,-0.392 0.183,-0.612 -0.129,-0.251 -0.278,-0.384 -0.305,-0.614 -0.1,-0.876 0.826,-1.129 0.919,-2.143 0.075,-0.824 -0.486,-1.737 -0.49,-2.329 -0.003,-0.234 0.216,-0.482 0.245,-0.735 0.07,-0.631 -0.29,-1.478 0.306,-1.839 0.031,-0.5 0.189,-0.874 0.428,-1.164 0.485,0.331 1.007,0.236 1.472,0.429 0.83,0.344 1.016,1.377 1.654,1.899 -0.194,1.556 1.406,1.962 1.287,3.309 -0.026,0.291 -0.234,0.436 -0.306,0.796 0.631,1.453 1.685,2.483 2.267,3.984 -0.255,0.292 -0.815,-0.053 -1.287,0.061 -1.079,0.924 -1.515,2.489 -2.084,3.922 0.504,-0.017 0.668,-0.669 0.613,-1.041 0.408,-0.758 0.973,-1.357 1.226,-2.268 0.727,0.191 2.073,0.625 2.206,1.348 0.022,0.116 -0.021,0.601 -0.061,0.735 -0.075,0.242 -0.204,0.362 -0.429,0.552 -0.089,-0.158 -0.166,-0.326 -0.368,-0.367 -0.379,0.32 -0.837,0.872 -0.735,1.47 0.559,0.088 0.452,-0.488 0.674,-0.735 0.308,-0.042 0.284,0.245 0.613,0.184 0.102,-0.207 0.204,-0.409 0.306,-0.613 0.729,0.455 1.482,0.136 1.47,-0.797 0.066,-0.14 0.186,-0.223 0.368,-0.245 0.326,-1.063 0.914,-1.865 1.41,-2.758 0.207,0.16 0.151,0.585 0.366,0.736 -0.532,0.841 0.267,1.654 0.736,2.206 0.355,-0.177 0.407,-0.655 0.858,-0.736 0.02,-0.142 -0.01,-0.235 -0.061,-0.306 0.103,-0.121 0.285,-0.164 0.49,-0.184 0.107,-0.629 0.136,-1.334 0.552,-1.654 -0.082,-0.491 0.034,-0.845 0.122,-1.348 -0.179,-0.016 -0.188,0.138 -0.367,0.122 0.28,-0.883 0.386,-1.943 0.98,-2.513 0.205,0.968 -0.344,1.444 -0.551,2.268 0.33,-0.122 0.268,0.491 0.244,0.674 -0.063,0.495 -0.707,1.182 -0.49,1.655 0.359,0.011 0.155,-0.539 0.368,-0.675 1.262,0.484 0.013,1.712 -0.429,2.268 0.108,0.627 1.038,0.431 1.226,0.981 -0.042,0.573 -0.166,0.605 0,1.102 -0.043,0.244 -0.291,0.281 -0.368,0.491 0.174,1.093 -0.536,1.629 -0.797,2.083 0.567,0.306 0.496,-0.685 0.981,-0.858 0.268,0.215 0.012,0.836 -0.307,0.858 -0.05,0.814 -0.614,1.937 -0.796,3.003 -0.5,0.113 -0.85,0.374 -1.042,0.796 -0.742,-0.089 -0.792,0.516 -1.164,0.797 -0.07,0.201 0.081,0.705 -0.061,0.98 0.496,-0.197 0.713,-0.675 0.918,-1.164 0.584,-0.419 1.288,-0.715 1.839,-1.164 -0.034,0.253 -0.405,0.697 -0.551,1.041 -0.638,0.078 -0.605,0.826 -1.348,0.796 -0.194,0.257 0.215,0.877 -0.097,1.282 -0.362,0.472 0.036,0.924 0.018,1.159 -0.029,0.389 -0.704,0.361 -1.178,0.715 -0.186,0.138 -1.286,0.107 -1.23,0.079 -0.256,0.052 -0.377,-0.412 -0.578,-0.416 -0.111,0.133 -0.181,0.31 -0.367,0.368 -0.372,-0.139 -0.578,-0.444 -0.797,-0.735 -0.552,0.415 -1.172,0.3 -1.409,-0.306 -0.651,0.02 -1.26,0.639 -1.838,0.183 -0.219,0.406 -0.757,0.782 -1.165,0.49 0.005,-0.261 0.103,-0.429 0.062,-0.735 -0.099,-0.105 -0.257,-0.152 -0.491,-0.123 -0.072,-0.255 -0.059,-0.593 -0.306,-0.674 -0.113,0.118 -0.112,0.049 -0.062,0.245 -0.104,0.081 -0.341,-0.048 -0.489,0.062 -0.091,0.232 0.274,0.012 0.184,0.245 -0.083,0.087 -0.273,0.162 -0.368,0.061 0.2,-0.662 -0.509,-1.059 -0.735,-1.654 -0.169,0.315 0.136,0.622 0.244,0.857 -0.303,0.388 -1.085,0.05 -1.348,0.552 -1.4,0.094 -1.064,-1.55 -1.96,-1.961 0.115,-0.089 0.007,-0.401 0.123,-0.49 0.365,-0.019 0.464,0.228 0.796,0.246 0.171,-0.156 0.088,-0.566 0.306,-0.675 0.135,0.07 0.25,0.159 0.491,0.123 -0.111,0.297 -0.222,0.594 -0.368,0.857 0.201,0.187 0.2,0.577 0.49,0.674 0.52,-0.581 0.613,-2.229 -0.551,-2.328 -0.172,0.257 -0.358,0.292 -0.613,0.551 -0.079,-0.186 -0.127,-0.404 -0.246,-0.551 -0.454,-0.137 -0.916,-0.268 -1.103,-0.674 -0.442,0.295 -0.611,-0.192 -1.041,-0.245 m 8.824,-0.735 c 0.121,-0.186 -0.008,-0.621 0.122,-0.797 0.005,-0.22 0.401,-0.049 0.491,-0.184 -0.008,-0.318 0.056,-0.757 0.061,-1.225 -0.577,-0.105 -0.848,0.232 -1.042,0.735 -0.319,0.827 -0.65,1.824 0.368,1.471 m -3.125,0.122 c 0.287,-0.019 0.247,-0.365 0.489,-0.429 0.247,0.019 0.243,0.289 0.553,0.245 0.121,-0.307 0.223,-0.634 0.613,-0.674 0.026,-0.231 -0.122,-0.287 -0.185,-0.429 -0.538,0.35 -1.061,-0.08 -1.592,0.062 0.327,0.253 0.016,0.888 0.122,1.225 M 29.918,5.736 c 0.035,-0.045 0.287,-0.143 0.425,-0.114 0.312,0.065 0.484,0.332 0.76,0.575 0.079,0.074 0.297,0.038 0.362,0.111 0.057,0.059 -0.022,0.038 0.082,0.129 0.1,0.118 0.157,0.07 0.086,0.341 C 31.006,6.486 30.426,6.147 29.918,5.736 M -3.165,24.548 c -0.392,-0.953 0.529,-1.463 0.552,-2.389 0.232,-0.089 0.117,0.168 0.306,0.122 0.062,-0.223 0.214,-0.358 0.245,-0.613 0.141,-0.103 0.47,-0.02 0.552,-0.184 -0.01,-0.324 -0.105,-0.506 0,-0.797 0.156,-0.129 0.469,-0.102 0.674,-0.183 0.016,-0.189 0.132,-0.275 0.184,-0.43 -0.192,-0.318 -0.305,-0.716 -0.49,-1.041 0.202,-0.525 -0.049,-1.261 0.06,-1.838 0.125,-0.657 0.857,-1.27 0.858,-2.206 0.984,-0.304 0.955,-1.62 1.471,-2.39 C 1.187,11.391 1.893,10.775 1.676,9.597 1.991,9.011 2.05,8.253 2.595,7.82 3.157,7.373 4.27,6.012 4.066,6.533 3.939,6.686 3.29,8.268 3.331,9.29 c 0.025,0.627 0.421,1.303 0.674,1.961 0.452,1.182 0.09,1.853 1.059,2.205 0.012,0.005 0.145,0.024 0.166,0.063 0.021,0.038 -0.034,0.071 -0.048,0.106 -0.526,1.284 0.745,2.259 0.538,3.203 -0.121,0.548 -0.559,1.208 -0.681,1.318 -0.121,0.111 -0.463,-0.012 -0.973,0.029 -0.332,0.628 -1.11,0.81 -1.104,1.777 -0.308,0.202 -0.741,0.279 -0.735,0.797 -0.505,-0.097 -0.627,0.5 -1.041,0.674 -0.259,-0.068 -0.427,-0.227 -0.613,-0.368 -0.417,0.217 -0.801,0.066 -1.164,-0.184 -0.222,0.043 -0.334,0.198 -0.491,0.307 0.007,0.561 0.153,0.998 -0.183,1.348 0.087,0.44 0.324,0.824 0,1.103 -0.332,0.045 -0.201,-0.372 -0.613,-0.246 -0.262,0.704 0.691,1.202 0.613,1.961 0.382,0.087 0.876,0.065 1.225,0.185 0.25,-0.138 0.25,-0.722 0,-0.859 0.054,-0.089 0.092,-0.194 0.246,-0.183 0.404,0.297 0.215,0.76 0.367,1.164 0.153,0.407 0.755,0.716 1.041,1.164 0.085,0.132 0.048,0.332 0.123,0.429 0.046,0.058 0.253,0.053 0.368,0.184 0.067,0.075 0.072,0.263 0.122,0.306 0.289,0.25 0.854,0.414 1.226,0.613 0.25,0.133 0.405,0.302 0.797,0.367 0.243,0.37 0.1,1.125 0.673,1.165 -0.068,-0.289 0.019,-0.374 -0.06,-0.674 0.79,0.221 0.402,1.261 1.041,1.655 -0.172,0.717 0.355,0.954 0.613,1.408 -0.198,0.165 -0.829,0.172 -0.551,0.613 0.341,0.117 0.216,-0.232 0.428,-0.245 0.41,0.041 0.41,0.49 0.674,0.674 0.217,0.033 0.151,-0.217 0.368,-0.184 0.109,0.362 0.081,0.859 0.245,1.165 C 6.939,34.395 6.975,33.203 6.088,33.249 5.003,32.557 4.745,31.037 3.759,30.246 c -0.076,0.428 -0.343,0.957 -0.306,1.287 0.024,0.205 0.348,0.805 0.552,0.981 0.165,0.143 0.485,0.127 0.674,0.245 0.353,0.22 0.445,0.557 0.735,0.674 1.115,-0.083 1.485,0.692 2.022,1.409 -0.374,0.301 -0.772,-0.048 -1.103,-0.245 0.042,0.166 -0.126,0.119 -0.184,0.184 -0.203,0.187 0.244,0.322 0.061,0.49 C 5.944,34.843 5.239,34.854 4.863,34.536 4.757,34.32 4.997,33.855 4.556,33.862 4.377,34.058 4.696,34.13 4.74,34.291 4.3,34.709 3.783,34.676 3.269,34.352 3.252,34.593 3.531,34.539 3.515,34.781 3.367,34.858 3.189,34.905 3.085,35.026 2.751,34.883 2.458,34.465 2.044,34.597 2.05,34.643 1.777,34.769 1.57,34.856 1.455,34.793 1.341,34.729 1.228,34.663 1.174,34.383 1.086,33.966 1.124,33.739 c -1.056,0.036 -1.192,-0.85 -2.083,-0.98 0.283,-0.483 1.09,0.455 1.532,0 -0.7,-0.934 -1.115,-2.153 -2.145,-2.758 -0.222,-0.922 -0.951,-1.336 -1.47,-1.961 -0.108,-1.024 -0.27,-1.67 -0.613,-2.389 0.152,-0.379 0.18,-0.882 0.49,-1.103 m 8.641,9.498 c 0.305,-0.065 0.775,0.046 0.885,0.176 -0.11,-0.13 -0.58,-0.242 -0.886,-0.177 0.001,0 0.001,10e-4 0.001,10e-4 M 32.728,7.814 c -0.077,0.008 -0.152,-0.061 -0.339,0 -0.12,0.039 -0.156,0.215 -0.178,0.188 C 32.19,7.975 32.25,7.711 32.229,7.645 32.163,7.433 32.091,7.313 31.817,7.249 c 0.115,-0.2 0.112,-0.387 0.06,-0.511 0.479,0.454 0.851,0.908 0.851,1.076 m 9.678,-16.037 -3.36,9.085 c 1.794,1.416 3.019,3.039 3.633,3.963 l 0.316,0.476 -0.565,0.084 c -0.074,0.011 -1.172,0.165 -2.862,-0.014 1.981,2.172 3.112,4.592 3.283,7.051 l 0.054,0.799 -0.637,-0.486 c -0.007,-0.005 -0.619,-0.464 -1.849,-0.877 2.114,3.179 2.943,6.454 2.531,9.977 l -0.108,0.924 -0.545,-0.753 c -0.013,-0.017 -0.662,-0.907 -1.669,-2.058 0.877,2.538 2.005,7.682 -1.463,11.382 l -0.244,0.26 -0.264,-0.24 c -0.023,-0.021 -0.48,-0.443 -1.045,-1.417 -0.46,0.765 -0.99,1.383 -1.336,1.787 -0.099,0.115 -0.184,0.214 -0.248,0.295 -0.122,0.152 -0.248,0.303 -0.372,0.45 -0.397,0.475 -0.772,0.924 -0.897,1.3 l -0.216,0.647 -0.416,-0.541 c -0.031,-0.041 -0.601,-0.806 -0.869,-2.778 -0.819,0.95 -1.732,1.836 -2.728,2.648 l 3.657,5.263 -0.292,0.208 c -4.786,3.416 -10.57,5.46 -16.75,5.926 0.156,1.394 0.35,1.919 0.44,2.097 1.684,0.043 2.843,0.112 3.386,0.149 0.032,-0.5 0.071,-0.961 0.074,-0.994 l 0.028,-0.332 1.836,0 0.032,0.328 c 0.002,0.024 0.032,0.332 0.059,0.747 0.144,-0.076 0.304,-0.119 0.472,-0.119 0.635,0 1.151,0.604 1.151,1.346 0,0.742 -0.516,1.345 -1.151,1.345 -0.168,0 -0.328,-0.042 -0.472,-0.118 -0.027,0.415 -0.057,0.724 -0.059,0.747 l -0.032,0.328 -1.836,0 -0.028,-0.332 c -0.003,-0.032 -0.042,-0.494 -0.074,-0.995 -0.615,0.041 -2.016,0.123 -4.018,0.165 -0.09,0.25 -0.296,1.115 -0.296,3.759 l 0,6.311 c 0.224,0.018 0.373,0.03 0.394,0.032 l 0.332,0.028 0,1.783 -0.328,0.032 c -0.039,0.004 -0.672,0.065 -1.437,0.107 0.086,0.158 0.135,0.335 0.135,0.522 0,0.666 -0.618,1.209 -1.378,1.209 -0.76,0 -1.379,-0.543 -1.379,-1.209 0,-0.187 0.049,-0.364 0.136,-0.522 -0.765,-0.042 -1.398,-0.103 -1.438,-0.107 l -0.327,-0.032 0,-1.783 0.331,-0.028 c 0.021,-0.002 0.171,-0.014 0.394,-0.032 l 0,-6.311 C 12.092,50.615 11.886,49.75 11.796,49.5 9.795,49.458 8.394,49.376 7.778,49.335 7.746,49.836 7.707,50.298 7.704,50.33 l -0.028,0.332 -1.836,0 -0.032,-0.328 C 5.806,50.311 5.776,50.002 5.749,49.587 c -0.144,0.076 -0.304,0.118 -0.472,0.118 -0.634,0 -1.151,-0.603 -1.151,-1.345 0,-0.742 0.517,-1.346 1.151,-1.346 0.168,0 0.328,0.043 0.472,0.119 0.027,-0.415 0.057,-0.723 0.059,-0.747 l 0.032,-0.328 1.836,0 0.028,0.332 c 0.003,0.033 0.042,0.494 0.074,0.994 0.543,-0.037 1.702,-0.106 3.387,-0.149 0.09,-0.178 0.284,-0.706 0.44,-2.108 C 5.399,44.634 -0.398,42.55 -5.178,39.087 l -0.289,-0.209 3.611,-5.173 c -0.979,-0.802 -1.877,-1.677 -2.683,-2.612 -0.269,1.971 -0.838,2.737 -0.869,2.778 l -0.416,0.541 -0.216,-0.647 c -0.125,-0.376 -0.5,-0.825 -0.897,-1.3 -0.124,-0.147 -0.25,-0.298 -0.372,-0.45 -0.064,-0.081 -0.149,-0.18 -0.248,-0.295 -0.346,-0.404 -0.876,-1.022 -1.336,-1.787 -0.565,0.974 -1.022,1.396 -1.045,1.417 l -0.264,0.24 -0.244,-0.26 c -3.468,-3.7 -2.34,-8.844 -1.463,-11.382 -1.007,1.151 -1.656,2.041 -1.669,2.058 l -0.545,0.753 -0.108,-0.924 c -0.412,-3.523 0.417,-6.798 2.531,-9.977 -1.23,0.413 -1.842,0.872 -1.849,0.877 l -0.637,0.486 0.054,-0.799 c 0.171,-2.459 1.302,-4.879 3.283,-7.051 -1.69,0.179 -2.788,0.025 -2.862,0.014 l -0.565,-0.084 0.316,-0.476 c 0.614,-0.924 1.839,-2.547 3.633,-3.963 l -3.36,-9.085 -2.926,0 0,-1.979 1.185,0 c 2.132,-1.431 6.415,-3.761 11.709,-3.761 l 0.002,0 c 5.292,0 9.57,2.326 11.705,3.761 l 1.2,0 0,1.979 -2.894,0 -0.694,1.871 c 2.078,-0.526 4.224,-0.864 6.414,-1.004 l 0.23,-6.755 2.115,-3.134 2.116,3.134 0.23,6.755 c 2.19,0.14 4.336,0.478 6.414,1.004 l -0.694,-1.871 -2.894,0 0,-1.979 1.199,0 c 2.136,-1.435 6.414,-3.761 11.706,-3.761 l 0.002,0 c 5.294,0 9.577,2.33 11.708,3.761 l 1.186,0 0,1.979 -2.926,0 z M 23.472,48.98 c 0.231,0 0.426,-0.284 0.426,-0.62 0,-0.336 -0.195,-0.62 -0.426,-0.62 -0.23,0 -0.425,0.284 -0.425,0.62 0,0.336 0.195,0.62 0.425,0.62 m -1.731,0.957 0.506,0 c 0.031,-0.381 0.075,-1.027 0.075,-1.577 0,-0.55 -0.044,-1.196 -0.075,-1.576 l -0.506,0 c -0.033,0.43 -0.085,1.172 -0.085,1.576 0,0.403 0.052,1.146 0.085,1.577 M 5.277,47.74 c -0.231,0 -0.426,0.284 -0.426,0.62 0,0.336 0.195,0.62 0.426,0.62 0.23,0 0.425,-0.284 0.425,-0.62 0,-0.336 -0.195,-0.62 -0.425,-0.62 m 1.731,-0.956 -0.506,0 c -0.031,0.38 -0.075,1.026 -0.075,1.576 0,0.55 0.044,1.196 0.075,1.577 l 0.506,0 c 0.033,-0.43 0.086,-1.173 0.086,-1.577 0,-0.404 -0.053,-1.146 -0.086,-1.576 m 34.624,-55.007 -8.838,0 0,3.407 c 1.407,0.147 3.06,0.703 4.851,2.09 l 0.627,0.485 -0.777,0.157 c -0.008,10e-4 -0.725,0.149 -1.429,0.501 -0.147,0.073 -0.361,0.215 -0.609,0.379 -0.094,0.062 -0.196,0.129 -0.302,0.198 1.177,0.271 2.154,0.655 2.905,1.152 0.13,0.085 0.256,0.173 0.381,0.261 l 3.191,-8.63 z m -11.951,2.602 c 0.512,0 0.935,0.377 1.008,0.869 0.394,-0.065 0.827,-0.107 1.295,-0.107 0.028,0 0.057,0.001 0.085,0.001 l 0,-3.365 -8.871,0 0.779,2.099 c 1.617,0.454 3.188,1.026 4.703,1.71 -0.012,-0.061 -0.019,-0.123 -0.019,-0.187 0,-0.563 0.457,-1.02 1.02,-1.02 m -0.471,1.02 c 0,0.228 0.184,0.412 0.412,0.412 0.227,0 0.411,-0.184 0.411,-0.412 0,-0.227 -0.184,-0.411 -0.411,-0.411 -0.228,0 -0.412,0.184 -0.412,0.411 m 1.28,0.62 c -0.088,0.116 -0.202,0.211 -0.331,0.28 0.475,0.244 0.944,0.497 1.406,0.763 0.043,-0.022 0.094,-0.037 0.154,-0.041 0.485,-0.034 0.97,-0.006 1.445,0.073 0.473,0.082 0.941,0.212 1.381,0.429 -0.486,0.08 -0.951,0.108 -1.412,0.138 l -0.521,0.032 0.189,0.118 -1.048,1.783 c 1.301,-0.083 2.487,-0.862 3.304,-1.403 0.278,-0.184 0.499,-0.33 0.684,-0.423 0.303,-0.151 0.605,-0.268 0.863,-0.355 C 34.091,-4.3 31.962,-4.294 30.49,-3.981 m 0.198,7.529 c -0.405,0 -0.755,-0.237 -0.919,-0.579 l -0.359,0.61 c 2.416,1.734 4.423,3.876 5.874,6.302 C 35.366,9.209 35.302,8.554 35.129,7.925 35.128,7.922 35.127,7.92 35.126,7.918 L 35.128,7.917 C 34.584,5.946 32.99,4.231 31.574,3.033 31.398,3.341 31.068,3.548 30.688,3.548 M 31.1,2.481 c 0,-0.227 -0.184,-0.412 -0.412,-0.412 -0.227,0 -0.411,0.185 -0.411,0.412 0,0.227 0.184,0.411 0.411,0.411 0.228,0 0.412,-0.184 0.412,-0.411 m 0.648,-0.794 c 0.228,0 0.412,-0.184 0.412,-0.412 0,-0.228 -0.184,-0.411 -0.412,-0.411 -0.227,0 -0.411,0.183 -0.411,0.411 0,0.228 0.184,0.412 0.411,0.412 M 41.72,4.715 C 40.931,3.624 39.565,2.01 37.66,0.75 36.829,0.201 35.676,-0.204 34.234,-0.454 33.766,-0.202 33.24,0.03 32.677,0.176 l 0.509,0.272 1.864,1.012 1.882,1.03 C 36.204,2.422 35.498,2.223 34.817,1.979 34.135,1.731 33.477,1.429 32.841,1.086 32.782,1.055 32.725,1.021 32.667,0.988 c 0,0.396 -0.226,0.738 -0.555,0.907 0.934,0.63 2.196,1.332 3.799,1.901 2.594,0.921 4.792,0.965 5.809,0.919 m 0.328,7.042 C 41.618,8.902 39.877,6.651 38.402,5.205 37.572,5.057 36.65,4.828 35.668,4.48 35.426,4.394 35.192,4.304 34.964,4.213 c 0.613,0.545 1.199,1.121 1.747,1.733 0.605,0.686 1.191,1.406 1.629,2.22 C 37.666,7.541 36.989,6.946 36.311,6.349 L 34.275,4.569 C 34.108,4.425 33.94,4.281 33.773,4.138 c 0.928,1.045 1.711,2.251 2.071,3.575 0.099,0.173 0.198,0.339 0.303,0.498 0.233,0.31 0.458,0.581 0.678,0.824 0.456,0.047 0.821,0.394 0.898,0.839 0.113,0.089 0.228,0.172 0.343,0.248 0.028,-0.002 0.056,-0.004 0.084,-0.004 0.382,0 0.713,0.21 0.889,0.519 0.34,0.142 0.699,0.261 1.092,0.372 0.854,0.243 1.49,0.524 1.917,0.748 M 36.055,9.276 C 36.058,9.273 36.061,9.27 36.064,9.267 36.061,9.264 36.058,9.26 36.055,9.257 c 0,0.006 0,0.012 0,0.019 m 0.336,0.842 c 0,0.227 0.185,0.411 0.412,0.411 0.227,0 0.412,-0.184 0.412,-0.411 0,-0.228 -0.185,-0.412 -0.412,-0.412 -0.227,0 -0.412,0.184 -0.412,0.412 m 1.423,1.02 c 0,0.228 0.184,0.412 0.412,0.412 0.227,0 0.411,-0.184 0.411,-0.412 0,-0.227 -0.184,-0.411 -0.411,-0.411 -0.228,0 -0.412,0.184 -0.412,0.411 m 2.854,7.762 c 0.686,0.75 1.252,1.436 1.64,1.928 0.171,-3.273 -0.825,-6.333 -3.024,-9.323 -0.054,-0.019 -0.108,-0.039 -0.161,-0.058 -0.071,0.223 -0.218,0.411 -0.409,0.538 0.37,0.532 0.705,1.088 0.993,1.67 0.2,0.409 0.379,0.829 0.519,1.264 0.136,0.434 0.248,0.881 0.271,1.334 -0.354,-0.83 -0.806,-1.58 -1.284,-2.317 -0.403,-0.616 -0.832,-1.215 -1.277,-1.8 -0.46,-0.099 -0.806,-0.508 -0.806,-0.998 0,-0.007 10e-4,-0.014 10e-4,-0.022 -0.028,-0.034 -0.056,-0.068 -0.084,-0.101 -0.103,0.035 -0.213,0.055 -0.328,0.055 -0.346,0 -0.651,-0.172 -0.835,-0.435 -0.018,0.071 -0.038,0.143 -0.059,0.215 0.846,1.62 1.45,3.352 1.774,5.163 0.692,0.539 1.356,1.136 1.965,1.738 0.031,-0.003 0.062,-0.004 0.093,-0.004 0.564,0 1.021,0.456 1.021,1.02 0,0.045 -0.004,0.089 -0.01,0.133 m -1.234,0.05 c 0,0.228 0.184,0.412 0.411,0.412 0.228,0 0.412,-0.184 0.412,-0.412 0,-0.227 -0.184,-0.411 -0.412,-0.411 -0.227,0 -0.411,0.184 -0.411,0.411 m -0.535,11.589 c 3.06,-3.609 1.705,-8.609 0.897,-10.762 -0.046,0.006 -0.092,0.01 -0.139,0.01 -0.563,0 -1.02,-0.456 -1.02,-1.02 0,-0.254 0.093,-0.485 0.246,-0.664 -0.361,-0.351 -0.74,-0.697 -1.129,-1.028 0.077,0.663 0.116,1.334 0.116,2.013 0,0.113 -0.002,0.225 -0.005,0.337 0.307,0.441 0.556,0.921 0.751,1.415 0.286,0.722 0.467,1.477 0.565,2.235 0.095,0.759 0.114,1.524 0.023,2.283 -0.208,-0.735 -0.38,-1.46 -0.58,-2.171 -0.197,-0.711 -0.415,-1.408 -0.682,-2.08 -0.048,-0.121 -0.1,-0.241 -0.151,-0.36 -0.066,0.69 -0.172,1.37 -0.317,2.039 0.806,1.329 1.124,2.665 1.066,4.323 -0.026,0.737 -0.234,1.432 -0.522,2.059 0.35,0.668 0.671,1.115 0.881,1.371 m -4.474,2.321 c 0.192,-0.282 0.43,-0.566 0.675,-0.86 0.121,-0.144 0.243,-0.29 0.361,-0.438 0.069,-0.087 0.159,-0.191 0.264,-0.314 0.708,-0.826 2.027,-2.365 2.09,-4.165 0.043,-1.22 -0.14,-2.251 -0.603,-3.244 -0.302,1.075 -0.704,2.117 -1.198,3.118 0.04,0.343 0.037,0.685 -0.004,1.022 -0.042,0.343 -0.121,0.682 -0.245,1.01 -0.126,0.325 -0.292,0.646 -0.552,0.909 -0.023,-0.366 -0.018,-0.696 -0.004,-1.027 0.008,-0.17 0.019,-0.339 0.034,-0.508 -0.406,0.671 -0.853,1.32 -1.34,1.945 0.104,1.249 0.335,2.068 0.522,2.552 m -1.244,5.968 -3.223,-4.637 c -3.553,2.714 -8.068,4.517 -13.044,4.982 l 0,0.482 c 0,2.111 0.068,3.645 0.161,4.761 5.927,-0.445 11.482,-2.37 16.106,-5.588 M 14.375,62.557 c 0.354,0 0.652,-0.221 0.652,-0.483 0,-0.262 -0.298,-0.484 -0.652,-0.484 -0.354,0 -0.653,0.222 -0.653,0.484 0,0.262 0.299,0.483 0.653,0.483 m -2.283,-2.259 0,0.454 c 0.496,0.042 1.465,0.113 2.283,0.113 0.817,0 1.787,-0.071 2.282,-0.113 l 0,-0.454 c -0.559,-0.044 -1.687,-0.127 -2.282,-0.127 -0.596,0 -1.724,0.083 -2.283,0.127 m 4.102,-10.777 -0.714,0 c -0.71,0.007 -1.501,0.007 -2.21,0 l -0.714,0 c 0.142,0.583 0.262,1.672 0.262,3.738 l 0,6.258 c 0.539,-0.037 1.154,-0.071 1.557,-0.071 0.402,0 1.017,0.034 1.557,0.071 l 0,-6.258 c 0,-2.065 0.119,-3.155 0.262,-3.738 m -8.375,-1.412 0,0.502 c 0.738,0.049 2.67,0.161 5.453,0.185 l 2.205,0 c 2.783,-0.024 4.715,-0.136 5.453,-0.185 l 0,-0.502 c -0.816,-0.057 -3.11,-0.189 -6.555,-0.189 -3.446,0 -5.74,0.132 -6.556,0.189 m 8.985,-0.892 c -0.4,-1.189 -0.615,-3.785 -0.615,-7.562 l 0,-0.423 c -0.485,0.032 -0.974,0.05 -1.467,0.056 l 0,7.907 c 0.753,0.002 1.448,0.01 2.082,0.022 m -4.859,0 c 0.626,-0.012 1.311,-0.02 2.052,-0.022 l 0,-7.907 C 13.515,39.282 13.035,39.265 12.56,39.234 l 0,0.421 c 0,3.777 -0.215,6.373 -0.615,7.562 m -16.408,-8.51 c 4.619,3.263 10.185,5.227 16.138,5.698 0.093,-1.115 0.16,-2.646 0.16,-4.75 l 0,-0.479 C 6.825,38.714 2.282,36.894 -1.286,34.155 l -3.177,4.552 z m 18.822,-0.14 c 12.564,0 22.786,-8.738 22.786,-19.479 0,-0.673 -0.04,-1.34 -0.119,-1.996 -0.112,-0.28 -0.671,-0.417 -0.484,-0.786 0.097,0.208 0.374,0.433 0.464,0.636 C 36.14,10.218 31.254,4.514 24.454,1.629 c -0.001,0 -0.001,0 -0.002,0 10e-4,0 10e-4,0 10e-4,0 C 24.42,1.614 24.387,1.6 24.353,1.586 24.198,1.57 23.961,1.588 23.971,1.758 L 23.685,1.917 C 23.583,2.162 23.146,2.117 23.113,2.432 22.547,2.619 22.59,2.645 22.081,2.733 21.659,2.807 21.33,2.944 20.9,2.985 20.455,3.027 19.428,2.425 18.897,2.337 18.702,2.304 18.732,2.402 18.592,2.546 17.975,3.182 16.786,2.799 15.501,2.26 15.154,2.114 14.671,1.819 14.26,1.827 c -0.907,0.017 -1.507,0.605 -2.719,0.661 -0.369,0.017 -0.066,-0.9 -0.2,-1.277 -0.187,0.074 -0.731,0.311 -0.731,0.311 0,0 -0.545,0.051 -0.757,0.096 C 9.61,1.67 9.436,1.738 9.397,1.692 9.054,1.282 8.747,2.39 8.11,2.427 7.818,2.839 7.272,3.27 6.833,3.749 6.584,4.019 6.036,5.332 6.019,4.956 5.971,3.958 6.927,3.504 6.877,2.733 6.883,2.828 6.663,2.797 6.679,2.773 6.674,2.673 6.407,2.595 6.455,2.366 6.158,2.313 5.504,2.305 5.408,2.14 5.225,1.823 4.675,1.684 4.275,1.625 -3.244,4.811 -8.426,11.441 -8.426,19.088 c 0,10.741 10.221,19.479 22.785,19.479 M -1.969,3.548 c -0.38,0 -0.71,-0.207 -0.886,-0.515 -1.416,1.198 -3.01,2.913 -3.554,4.884 l 0.002,0.001 C -6.408,7.92 -6.409,7.922 -6.41,7.925 -6.583,8.554 -6.647,9.209 -6.565,9.881 -5.114,7.455 -3.107,5.313 -0.691,3.579 L -1.05,2.969 c -0.164,0.342 -0.514,0.579 -0.919,0.579 m 0.411,-1.067 c 0,-0.227 -0.184,-0.412 -0.411,-0.412 -0.228,0 -0.412,0.185 -0.412,0.412 0,0.227 0.184,0.411 0.412,0.411 0.227,0 0.411,-0.184 0.411,-0.411 m -2.335,-4.788 -0.52,-0.032 c -0.462,-0.03 -0.927,-0.058 -1.413,-0.138 0.44,-0.217 0.908,-0.347 1.381,-0.429 0.475,-0.079 0.96,-0.107 1.445,-0.073 0.06,0.004 0.111,0.019 0.154,0.041 0.462,-0.266 0.931,-0.519 1.406,-0.763 -0.13,-0.069 -0.243,-0.164 -0.331,-0.28 -1.472,-0.313 -3.601,-0.319 -6.114,1.394 0.258,0.087 0.56,0.204 0.863,0.355 0.185,0.093 0.405,0.239 0.684,0.423 0.817,0.541 2.003,1.32 3.304,1.403 l -1.048,-1.783 0.189,-0.118 z m 2.931,-3.314 c 0.563,0 1.02,0.457 1.02,1.02 0,0.064 -0.007,0.126 -0.019,0.186 1.515,-0.683 3.086,-1.255 4.703,-1.709 l 0.779,-2.099 -8.871,0 0,3.365 c 0.028,0 0.057,-0.001 0.085,-0.001 0.468,0 0.901,0.042 1.295,0.107 0.073,-0.492 0.496,-0.869 1.008,-0.869 m -0.352,1.02 c 0,0.228 0.184,0.412 0.411,0.412 0.228,0 0.412,-0.184 0.412,-0.412 0,-0.227 -0.184,-0.411 -0.412,-0.411 -0.227,0 -0.411,0.184 -0.411,0.411 m -2.127,5.876 c 0,0.228 0.184,0.412 0.412,0.412 0.227,0 0.411,-0.184 0.411,-0.412 0,-0.228 -0.184,-0.411 -0.411,-0.411 -0.228,0 -0.412,0.183 -0.412,0.411 m -5.655,25.808 c 0.063,1.8 1.382,3.339 2.09,4.165 0.105,0.123 0.195,0.227 0.264,0.314 0.118,0.148 0.241,0.294 0.361,0.438 0.246,0.294 0.484,0.578 0.675,0.86 0.187,-0.484 0.418,-1.303 0.522,-2.552 -0.487,-0.625 -0.934,-1.274 -1.34,-1.945 0.015,0.169 0.026,0.338 0.034,0.508 0.013,0.331 0.019,0.661 -0.004,1.027 -0.26,-0.263 -0.426,-0.584 -0.552,-0.909 -0.124,-0.328 -0.203,-0.667 -0.245,-1.01 -0.041,-0.337 -0.044,-0.679 -0.004,-1.022 -0.494,-1.001 -0.896,-2.044 -1.199,-3.119 -0.462,0.993 -0.645,2.024 -0.602,3.245 m -1.084,3.456 c 0.209,-0.256 0.531,-0.703 0.881,-1.371 -0.288,-0.627 -0.496,-1.322 -0.522,-2.059 -0.058,-1.657 0.261,-2.993 1.066,-4.321 -0.145,-0.67 -0.251,-1.35 -0.317,-2.041 -0.051,0.119 -0.103,0.239 -0.151,0.36 -0.267,0.672 -0.485,1.369 -0.682,2.08 -0.2,0.711 -0.372,1.436 -0.581,2.171 -0.09,-0.759 -0.071,-1.524 0.024,-2.283 0.098,-0.758 0.279,-1.513 0.565,-2.235 0.195,-0.494 0.444,-0.974 0.75,-1.415 -0.002,-0.112 -0.005,-0.224 -0.005,-0.337 0,-0.679 0.04,-1.35 0.117,-2.013 -0.389,0.331 -0.768,0.677 -1.129,1.028 0.153,0.179 0.246,0.41 0.246,0.664 0,0.564 -0.457,1.02 -1.02,1.02 -0.047,0 -0.093,-0.004 -0.139,-0.01 -0.808,2.153 -2.163,7.153 0.897,10.762 M -10.715,18.95 c 0,-0.227 -0.184,-0.411 -0.411,-0.411 -0.228,0 -0.412,0.184 -0.412,0.411 0,0.228 0.184,0.412 0.412,0.412 0.227,0 0.411,-0.184 0.411,-0.412 m -2.874,1.878 c 0.388,-0.492 0.955,-1.178 1.64,-1.928 -0.006,-0.044 -0.01,-0.088 -0.01,-0.133 0,-0.564 0.457,-1.02 1.021,-1.02 0.031,0 0.062,0.001 0.093,0.004 0.609,-0.602 1.273,-1.199 1.965,-1.738 0.324,-1.811 0.928,-3.543 1.773,-5.163 -0.02,-0.072 -0.04,-0.144 -0.058,-0.215 -0.185,0.263 -0.489,0.435 -0.835,0.435 -0.115,0 -0.225,-0.02 -0.328,-0.055 -0.028,0.033 -0.056,0.067 -0.084,0.101 0,0.008 0.001,0.015 0.001,0.022 0,0.49 -0.345,0.899 -0.806,0.998 -0.445,0.585 -0.874,1.184 -1.277,1.8 -0.478,0.737 -0.93,1.487 -1.284,2.317 0.023,-0.453 0.135,-0.9 0.271,-1.334 0.14,-0.435 0.318,-0.855 0.519,-1.264 0.288,-0.582 0.623,-1.138 0.992,-1.67 -0.19,-0.127 -0.337,-0.315 -0.408,-0.538 -0.054,0.019 -0.107,0.039 -0.161,0.058 -2.198,2.99 -3.194,6.05 -3.024,9.323 M -7.336,9.276 c 0,-0.007 0,-0.013 0,-0.019 -0.003,0.003 -0.006,0.007 -0.009,0.01 0.003,0.003 0.006,0.006 0.009,0.009 m -0.336,0.842 c 0,-0.228 -0.185,-0.412 -0.412,-0.412 -0.227,0 -0.411,0.184 -0.411,0.412 0,0.227 0.184,0.411 0.411,0.411 0.227,0 0.412,-0.184 0.412,-0.411 m -1.423,1.02 c 0,-0.227 -0.184,-0.411 -0.412,-0.411 -0.227,0 -0.411,0.184 -0.411,0.411 0,0.228 0.184,0.412 0.411,0.412 0.228,0 0.412,-0.184 0.412,-0.412 m -4.234,0.619 c 0.427,-0.224 1.063,-0.505 1.917,-0.748 0.393,-0.111 0.752,-0.23 1.092,-0.372 0.176,-0.309 0.507,-0.519 0.889,-0.519 0.028,0 0.056,0.002 0.084,0.004 0.115,-0.076 0.23,-0.159 0.343,-0.248 0.077,-0.445 0.443,-0.792 0.898,-0.839 0.22,-0.243 0.445,-0.514 0.678,-0.824 0.105,-0.159 0.205,-0.325 0.303,-0.498 0.36,-1.324 1.143,-2.53 2.071,-3.575 -0.167,0.143 -0.335,0.287 -0.502,0.431 l -2.036,1.78 c -0.678,0.597 -1.355,1.192 -2.029,1.817 0.439,-0.814 1.024,-1.534 1.629,-2.22 0.548,-0.612 1.134,-1.188 1.747,-1.733 -0.228,0.091 -0.462,0.181 -0.704,0.267 -0.982,0.348 -1.904,0.577 -2.734,0.725 -1.475,1.446 -3.216,3.697 -3.646,6.552 m 0.328,-7.042 c 1.017,0.046 3.215,0.002 5.809,-0.919 C -5.589,3.227 -4.327,2.525 -3.393,1.895 -3.722,1.726 -3.948,1.384 -3.948,0.988 -4.006,1.021 -4.063,1.055 -4.122,1.086 -4.758,1.429 -5.417,1.731 -6.098,1.979 -6.779,2.223 -7.485,2.422 -8.213,2.49 l 1.882,-1.03 1.864,-1.012 0.508,-0.272 c -0.562,-0.146 -1.088,-0.378 -1.556,-0.63 -1.442,0.25 -2.595,0.655 -3.426,1.204 -1.905,1.26 -3.271,2.874 -4.06,3.965 m 3.279,-4.308 c 0.125,-0.088 0.251,-0.176 0.381,-0.261 0.751,-0.497 1.728,-0.881 2.905,-1.152 -0.106,-0.069 -0.208,-0.136 -0.302,-0.198 -0.248,-0.164 -0.462,-0.306 -0.609,-0.379 -0.704,-0.352 -1.422,-0.5 -1.429,-0.501 l -0.777,-0.157 0.627,-0.485 c 1.791,-1.387 3.444,-1.943 4.851,-2.09 l 0,-3.407 -8.838,0 3.191,8.63 z m 6.005,-13.645 -0.002,0 c -4.412,0 -8.104,1.685 -10.356,3.036 l 20.711,0 c -2.253,-1.353 -5.942,-3.035 -10.353,-3.036 m 12.179,3.761 -24.35,0 0,0.528 24.35,0 0,-0.528 z m 5.535,-5.977 -1.036,1.572 -0.219,6.487 c 0.417,-0.019 0.835,-0.03 1.255,-0.034 l 0,-8.025 z m 1.761,1.572 -1.036,-1.572 0,8.025 c 0.42,0.004 0.838,0.015 1.255,0.034 l -0.219,-6.487 z m -1.399,7.175 c -6.311,0 -12.339,1.645 -17.457,4.761 l 3.004,5.11 c 3.99,-2.681 9.008,-4.28 14.453,-4.28 5.445,0 10.464,1.599 14.454,4.28 l 3.004,-5.11 C 26.699,-5.062 20.671,-6.707 14.359,-6.707 m 18.079,-6.531 -0.002,0 c -4.411,10e-4 -8.1,1.683 -10.353,3.036 l 20.711,0 c -2.252,-1.351 -5.944,-3.036 -10.356,-3.036 m 12.168,3.761 -24.35,0 0,0.528 24.35,0 0,-0.528 z"
                 style="fill:#00457d;fill-opacity:1;fill-rule:nonzero;stroke:none"
                 id="path166"
                 inkscape:connector-curvature="0" /><g
                 transform="translate(241.4441,697.6117)"
                 id="g168"
                 style="fill:#00457d;fill-opacity:1"><path
                   inkscape:connector-curvature="0"
                   id="path170"
                   style="fill:#00457d;fill-opacity:1;fill-rule:nonzero;stroke:none"
                   d="M 0,0 C 0,2.128 -0.099,4.281 -0.198,6.408 0.223,6.334 0.619,6.285 1.014,6.285 1.41,6.285 1.806,6.334 2.227,6.408 2.128,4.281 2.029,2.128 2.029,0 l 0,-4.256 c 0,-2.128 0.099,-4.28 0.198,-6.408 -0.421,0.074 -0.817,0.123 -1.213,0.123 -0.395,0 -0.791,-0.049 -1.212,-0.123 C -0.099,-8.536 0,-6.384 0,-4.256 L 0,0 z" /></g><g
                 transform="translate(262.5255,686.6257)"
                 id="g172"
                 style="fill:#00457d;fill-opacity:1"><path
                   inkscape:connector-curvature="0"
                   id="path174"
                   style="fill:#00457d;fill-opacity:1;fill-rule:nonzero;stroke:none"
                   d="m 0,0 c -3.761,4.429 -8.264,9.18 -12.495,13.683 -0.025,-0.916 -0.075,-2.401 -0.075,-5.023 0,-2.128 0.099,-7.349 0.223,-8.338 -0.272,0.074 -0.569,0.123 -0.866,0.123 -0.297,0 -0.594,-0.049 -0.915,-0.123 0.198,1.162 0.519,7.497 0.519,10.763 0,3.118 0,5.518 -0.074,6.631 l 0.396,0 c 4.033,-4.38 9.501,-10.343 12.52,-13.386 0,4.429 0,9.254 -0.198,13.064 0.272,-0.074 0.569,-0.123 0.841,-0.123 0.272,0 0.52,0.049 0.792,0.123 C 0.519,15.935 0.272,11.035 0.272,9.105 0.272,6.582 0.322,1.114 0.346,0 L 0,0 z" /></g><g
                 transform="translate(271.5575,697.6117)"
                 id="g176"
                 style="fill:#00457d;fill-opacity:1"><path
                   inkscape:connector-curvature="0"
                   id="path178"
                   style="fill:#00457d;fill-opacity:1;fill-rule:nonzero;stroke:none"
                   d="m 0,0 c 0,1.707 -0.025,3.415 -0.074,5.122 -1.707,0 -3.91,-0.099 -5.295,-0.273 0.074,0.248 0.123,0.52 0.123,0.792 0,0.248 -0.049,0.495 -0.123,0.767 2.128,-0.074 4.256,-0.123 6.384,-0.123 2.127,0 4.255,0.049 6.383,0.123 C 7.324,6.136 7.274,5.889 7.274,5.617 7.274,5.369 7.324,5.097 7.398,4.849 6.013,5.023 3.81,5.122 2.103,5.122 2.054,3.415 2.029,1.707 2.029,0 l 0,-4.256 c 0,-2.128 0.099,-4.28 0.198,-6.408 -0.421,0.074 -0.817,0.123 -1.212,0.123 -0.396,0 -0.792,-0.049 -1.213,-0.123 C -0.099,-8.536 0,-6.384 0,-4.256 L 0,0 z" /></g><g
                 transform="translate(282.1482,697.6364)"
                 id="g180"
                 style="fill:#00457d;fill-opacity:1"><path
                   inkscape:connector-curvature="0"
                   id="path182"
                   style="fill:#00457d;fill-opacity:1;fill-rule:nonzero;stroke:none"
                   d="M 0,0 C 0,2.128 -0.099,4.281 -0.198,6.384 1.287,6.309 2.747,6.26 4.231,6.26 5.716,6.26 7.175,6.309 8.635,6.384 8.586,6.136 8.561,5.889 8.561,5.641 8.561,5.394 8.586,5.146 8.635,4.899 6.557,5.048 5.345,5.221 2.128,5.221 2.103,4.157 2.029,3.291 2.029,2.078 c 0,-1.286 0.025,-2.647 0.025,-3.266 2.919,0 4.552,0.124 6.012,0.248 -0.049,-0.248 -0.074,-0.52 -0.074,-0.767 0,-0.248 0.025,-0.495 0.074,-0.742 -1.707,0.173 -4.825,0.222 -6.012,0.222 -0.025,-0.594 -0.025,-1.212 -0.025,-3.588 0,-1.88 0.025,-3.093 0.049,-3.711 2.203,0 5.122,0.025 6.681,0.321 -0.049,-0.222 -0.074,-0.544 -0.074,-0.766 0,-0.223 0.025,-0.495 0.074,-0.718 -1.46,0.074 -2.944,0.124 -4.454,0.124 -1.509,0 -2.994,-0.05 -4.503,-0.124 C -0.099,-8.536 0,-6.384 0,-4.256 L 0,0 z" /></g><g
                 transform="translate(294.7927,697.6117)"
                 id="g184"
                 style="fill:#00457d;fill-opacity:1"><path
                   inkscape:connector-curvature="0"
                   id="path186"
                   style="fill:#00457d;fill-opacity:1;fill-rule:nonzero;stroke:none"
                   d="m 0,0 c 0,2.128 -0.099,4.281 -0.198,6.408 0.94,-0.074 1.88,-0.123 2.821,-0.123 0.94,0 1.88,0.123 2.82,0.123 2.796,0 5.147,-0.965 5.147,-3.909 0,-3.192 -3.192,-4.478 -5.072,-4.726 1.212,-1.509 5.344,-6.829 6.779,-8.437 -0.495,0.074 -0.99,0.123 -1.484,0.123 -0.471,0 -0.965,-0.049 -1.435,-0.123 -0.99,1.509 -4.281,6.062 -6.409,8.214 l -0.94,0 0,-1.806 c 0,-2.128 0.099,-4.28 0.198,-6.408 -0.421,0.074 -0.817,0.123 -1.213,0.123 -0.395,0 -0.791,-0.049 -1.212,-0.123 C -0.099,-8.536 0,-6.384 0,-4.256 L 0,0 z m 2.029,-1.41 c 0.445,-0.099 1.014,-0.124 1.658,-0.124 2.029,0 4.726,0.841 4.726,3.786 0,2.597 -2.153,3.241 -3.836,3.241 -1.138,0 -1.88,-0.074 -2.4,-0.124 C 2.103,3.563 2.029,1.781 2.029,0 l 0,-1.41 z" /></g><g
                 transform="translate(310.1832,697.6117)"
                 id="g188"
                 style="fill:#00457d;fill-opacity:1"><path
                   inkscape:connector-curvature="0"
                   id="path190"
                   style="fill:#00457d;fill-opacity:1;fill-rule:nonzero;stroke:none"
                   d="m 0,0 c 0,2.128 -0.099,4.281 -0.198,6.408 0.792,-0.074 1.608,-0.123 2.4,-0.123 0.792,0 2.376,0.123 3.068,0.123 1.485,0 5.419,-0.049 5.419,-4.181 0,-4.355 -4.281,-5.196 -6.656,-5.196 -0.742,0 -1.361,0.024 -2.004,0.074 l 0,-1.361 c 0,-2.128 0.099,-4.28 0.198,-6.408 -0.421,0.074 -0.817,0.123 -1.213,0.123 -0.395,0 -0.791,-0.049 -1.212,-0.123 C -0.099,-8.536 0,-6.384 0,-4.256 L 0,0 z m 2.029,-1.856 c 0.52,-0.123 1.212,-0.198 1.757,-0.198 2.029,0 4.627,0.767 4.627,4.132 0,2.821 -1.609,3.415 -4.157,3.415 l -2.227,0 0,-7.349 z" /></g><g
                 transform="translate(332.0815,704.3416)"
                 id="g192"
                 style="fill:#00457d;fill-opacity:1"><path
                   inkscape:connector-curvature="0"
                   id="path194"
                   style="fill:#00457d;fill-opacity:1;fill-rule:nonzero;stroke:none"
                   d="m 0,0 c 5.468,0 9.279,-3.241 9.279,-8.858 0,-5.616 -3.811,-8.858 -9.279,-8.858 -5.444,0 -9.254,3.242 -9.254,8.858 C -9.254,-3.241 -5.444,0 0,0 m 0,-0.915 c -3.86,0 -6.829,-2.45 -6.829,-7.943 0,-5.493 2.969,-7.942 6.829,-7.942 3.885,0 6.854,2.449 6.854,7.942 0,5.493 -2.969,7.943 -6.854,7.943" /></g><g
                 transform="translate(345.0972,697.6117)"
                 id="g196"
                 style="fill:#00457d;fill-opacity:1"><path
                   inkscape:connector-curvature="0"
                   id="path198"
                   style="fill:#00457d;fill-opacity:1;fill-rule:nonzero;stroke:none"
                   d="M 0,0 C 0,2.128 -0.099,4.281 -0.198,6.408 0.223,6.334 0.619,6.285 1.014,6.285 1.41,6.285 1.806,6.334 2.227,6.408 2.128,4.281 2.029,2.128 2.029,0 c 0,-4.157 0.049,-7.077 0.074,-9.501 2.326,0 4.355,0 6.829,0.321 -0.074,-0.247 -0.123,-0.495 -0.123,-0.742 0,-0.247 0.049,-0.495 0.123,-0.742 -1.509,0.074 -3.043,0.123 -4.553,0.123 -1.534,0 -3.043,-0.049 -4.577,-0.123 C -0.099,-8.536 0,-6.384 0,-4.256 L 0,0 z" /></g></g></g></g></g></g></g></svg>