<?xml version="1.0" encoding="UTF-8" standalone="no"?>
<svg
   xmlns:dc="http://purl.org/dc/elements/1.1/"
   xmlns:cc="http://creativecommons.org/ns#"
   xmlns:rdf="http://www.w3.org/1999/02/22-rdf-syntax-ns#"
   xmlns:svg="http://www.w3.org/2000/svg"
   xmlns="http://www.w3.org/2000/svg"
   xmlns:sodipodi="http://sodipodi.sourceforge.net/DTD/sodipodi-0.dtd"
   xmlns:inkscape="http://www.inkscape.org/namespaces/inkscape"
   inkscape:version="1.0 (4035a4fb49, 2020-05-01)"
   sodipodi:docname="ANI_Chile.svg"
   viewBox="0 0 415.74797 377.49466"
   height="377.49466"
   width="415.74799"
   xml:space="preserve"
   id="svg2"
   version="1.1"><metadata
     id="metadata8"><rdf:RDF><cc:Work
         rdf:about=""><dc:format>image/svg+xml</dc:format><dc:type
           rdf:resource="http://purl.org/dc/dcmitype/StillImage" /><dc:title></dc:title></cc:Work></rdf:RDF></metadata><defs
     id="defs6"><clipPath
       id="clipPath22"
       clipPathUnits="userSpaceOnUse"><path
         id="path20"
         d="M 0,566.929 H 795.987 V 0 H 0 Z" /></clipPath></defs><sodipodi:namedview
     inkscape:current-layer="g10"
     inkscape:window-maximized="1"
     inkscape:window-y="-8"
     inkscape:window-x="-8"
     inkscape:cy="319.62024"
     inkscape:cx="117.62641"
     inkscape:zoom="1.5839383"
     showguides="false"
     inkscape:lockguides="true"
     showgrid="false"
     id="namedview4"
     inkscape:window-height="838"
     inkscape:window-width="1440"
     inkscape:pageshadow="2"
     inkscape:pageopacity="0"
     guidetolerance="10"
     gridtolerance="10"
     objecttolerance="10"
     borderopacity="1"
     bordercolor="#666666"
     pagecolor="#ffffff" /><g
     style="display:inline"
     transform="matrix(1.3333333,0,0,-1.3333333,-170.07866,566.92799)"
     inkscape:label="01_MinInterior_CMYK"
     inkscape:groupmode="layer"
     id="g10"><path
       id="path12"
       style="fill:#1969bc;fill-opacity:1;fill-rule:nonzero;stroke:none"
       d="M 255.3,142.075 H 127.559 V 425.196 H 255.3 Z" /><path
       id="path14"
       style="fill:#ef2b3e;fill-opacity:1;fill-rule:nonzero;stroke:none"
       d="M 255.3,142.075 H 439.37 V 425.196 H 255.3 Z" /><g
       id="g16"><g
         clip-path="url(#clipPath22)"
         id="g18"><g
           transform="translate(279.8463,157.1849)"
           id="g24"><path
             id="path26"
             style="fill:#ffffff;fill-opacity:1;fill-rule:nonzero;stroke:none"
             d="m 0,0 c -1.87,-0.884 -3.429,-1.276 -5.176,-1.276 -4.149,0 -6.097,2.915 -6.097,7.309 0,4.209 2.09,7.062 6.427,7.062 2.115,0 3.468,-0.513 4.555,-1.232 l -1.15,-2.034 c -0.777,0.517 -1.949,0.885 -3.385,0.885 -2.484,0 -3.613,-1.887 -3.613,-4.638 0,-3.267 1.19,-5.053 3.53,-5.053 0.903,0 1.765,0.185 2.422,0.493 V 4.061 H -4.398 L -4.542,6.058 H 0 Z" /></g><g
           transform="translate(288.3087,161.1624)"
           id="g28"><path
             id="path30"
             style="fill:#ffffff;fill-opacity:1;fill-rule:nonzero;stroke:none"
             d="m 0,0 c 0,2.423 -0.719,3.269 -1.97,3.269 -1.253,0 -1.949,-0.865 -1.949,-3.269 0,-2.34 0.634,-3.28 1.949,-3.28 C -0.656,-3.28 0,-2.401 0,0 m 2.757,0 c 0,-3.426 -1.731,-5.254 -4.727,-5.254 -3.018,0 -4.724,1.808 -4.724,5.254 0,2.959 1.645,5.218 4.724,5.218 3.039,0 4.727,-2.259 4.727,-5.218" /></g><g
           transform="translate(295.7481,158.9056)"
           id="g32"><path
             id="path34"
             style="fill:#ffffff;fill-opacity:1;fill-rule:nonzero;stroke:none"
             d="m 0,0 c 0.41,-0.555 1.108,-1.024 1.826,-1.024 1.168,0 2.034,0.859 2.034,3.282 C 3.86,4.66 3.099,5.504 1.868,5.504 1.19,5.504 0.454,5.152 0,4.703 Z m -0.185,6.245 c 0.454,0.613 1.536,1.231 2.666,1.231 2.365,0 4.066,-1.686 4.066,-5.218 0,-3.468 -2.053,-5.255 -4.395,-5.255 -1.435,0 -2.274,0.556 -2.915,1.42 L -1.255,-2.79 H -2.688 V 11.373 H 0 V 7.864 Z" /></g><path
           id="path36"
           style="fill:#ffffff;fill-opacity:1;fill-rule:nonzero;stroke:none"
           d="m 305.071,170.279 h 2.713 v -2.439 h -2.713 z m 0.081,-14.162 v 8.086 l -1.149,0.246 v 1.724 h 3.816 v -10.056 z" /><g
           transform="translate(314.4337,164.4104)"
           id="g38"><path
             id="path40"
             style="fill:#ffffff;fill-opacity:1;fill-rule:nonzero;stroke:none"
             d="M 0,0 C -1.331,0 -1.867,-1.211 -1.867,-2.401 H 1.808 C 1.808,-1.111 1.399,0 0,0 m -1.867,-3.985 c 0,-1.602 0.905,-2.485 2.589,-2.485 1.043,0 2.056,0.434 2.935,0.865 L 4.17,-7.496 C 3.329,-7.945 1.993,-8.502 0.394,-8.502 c -3.144,0 -4.97,1.931 -4.97,5.256 0,3.1 1.479,5.216 4.701,5.216 3.04,0 4.251,-2.257 4.251,-4.787 v -1.168 z" /></g><g
           transform="translate(326.5558,163.9378)"
           id="g42"><path
             id="path44"
             style="fill:#ffffff;fill-opacity:1;fill-rule:nonzero;stroke:none"
             d="m 0,0 c -0.327,0.102 -0.78,0.161 -1.255,0.161 -0.717,0 -1.352,-0.307 -1.806,-0.68 V -7.821 H -5.73 V 2.235 h 1.87 c 0.1,-0.469 0.206,-0.906 0.289,-1.352 h 0.081 c 0.303,0.717 1.211,1.539 2.397,1.539 0.539,0 0.925,-0.081 1.152,-0.146 C 0.037,1.518 0.037,0.758 0,0" /></g><g
           transform="translate(334.422,156.1165)"
           id="g46"><path
             id="path48"
             style="fill:#ffffff;fill-opacity:1;fill-rule:nonzero;stroke:none"
             d="m 0,0 v 5.974 c 0,1.518 -0.58,2.235 -1.806,2.235 -0.702,0 -1.296,-0.31 -1.768,-0.615 V 0 h -2.689 v 10.057 h 1.848 l 0.411,-1.148 c 0.573,0.678 1.683,1.355 3.184,1.355 2.545,0 3.548,-1.5 3.548,-4.047 L 2.728,0 Z" /></g><g
           transform="translate(345.6368,161.1624)"
           id="g50"><path
             id="path52"
             style="fill:#ffffff;fill-opacity:1;fill-rule:nonzero;stroke:none"
             d="m 0,0 c 0,2.423 -0.724,3.269 -1.977,3.269 -1.246,0 -1.942,-0.865 -1.942,-3.269 0,-2.34 0.634,-3.28 1.942,-3.28 C -0.661,-3.28 0,-2.401 0,0 m 2.752,0 c 0,-3.426 -1.729,-5.254 -4.729,-5.254 -3.01,0 -4.72,1.808 -4.72,5.254 0,2.959 1.646,5.218 4.72,5.218 3.046,0 4.729,-2.259 4.729,-5.218" /></g><g
           transform="translate(361.1808,163.8743)"
           id="g54"><path
             id="path56"
             style="fill:#ffffff;fill-opacity:1;fill-rule:nonzero;stroke:none"
             d="m 0,0 c -0.408,0.247 -1.042,0.494 -1.824,0.494 -1.273,0 -2.075,-0.866 -2.075,-3.206 0,-2.401 0.764,-3.303 2.037,-3.303 0.672,0 1.353,0.326 1.862,0.863 z M 0.254,1.519 C 0.083,2.096 0,2.605 0,3.367 V 6.405 H 2.675 V -7.758 H 0.495 L 0.187,-6.651 C -0.22,-7.266 -1.19,-7.966 -2.48,-7.966 c -2.282,0 -4.108,1.643 -4.108,5.236 0,3.326 1.889,5.236 4.334,5.236 1.089,0 1.951,-0.37 2.508,-0.987" /></g><g
           transform="translate(370.4669,164.4104)"
           id="g58"><path
             id="path60"
             style="fill:#ffffff;fill-opacity:1;fill-rule:nonzero;stroke:none"
             d="M 0,0 C -1.334,0 -1.866,-1.211 -1.866,-2.401 H 1.808 C 1.808,-1.111 1.398,0 0,0 m -1.866,-3.985 c 0,-1.602 0.902,-2.485 2.583,-2.485 1.049,0 2.054,0.434 2.942,0.865 L 4.17,-7.496 C 3.328,-7.945 1.992,-8.502 0.393,-8.502 c -3.142,0 -4.968,1.931 -4.968,5.256 0,3.1 1.476,5.216 4.7,5.216 3.039,0 4.25,-2.257 4.25,-4.787 v -1.168 z" /></g><g
           transform="translate(387.0655,155.9085)"
           id="g62"><path
             id="path64"
             style="fill:#ffffff;fill-opacity:1;fill-rule:nonzero;stroke:none"
             d="m 0,0 c -3.902,0 -5.974,2.625 -5.974,7.245 0,4.254 2.053,7.125 5.974,7.125 1.887,0 3.592,-0.409 4.721,-1.168 L 3.693,11.068 c -0.715,0.531 -1.971,0.944 -3.409,0.944 -2.3,0 -3.446,-1.706 -3.446,-4.743 0,-3.205 1.146,-4.908 3.402,-4.908 1.358,0 2.716,0.574 3.661,1.272 L 4.76,1.476 C 3.386,0.532 1.826,0 0,0" /></g><g
           transform="translate(393.6788,156.1165)"
           id="g66"><path
             id="path68"
             style="fill:#ffffff;fill-opacity:1;fill-rule:nonzero;stroke:none"
             d="m 0,0 v 14.162 h 2.688 v -3.716 c 0,-0.697 -0.221,-1.393 -0.261,-1.555 0.569,0.696 1.411,1.373 2.845,1.373 2.902,0 3.72,-1.5 3.72,-4.047 V 0 H 6.265 V 5.974 C 6.265,6.239 6.223,6.445 6.117,6.587 6.034,7.717 5.458,8.209 4.459,8.209 3.757,8.209 3.163,7.899 2.688,7.594 V 0 Z" /></g><path
           id="path70"
           style="fill:#ffffff;fill-opacity:1;fill-rule:nonzero;stroke:none"
           d="m 405.59,170.279 h 2.712 v -2.439 h -2.712 z m 0.084,-14.162 v 8.086 l -1.151,0.246 v 1.724 h 3.818 v -10.056 z" /><g
           transform="translate(410.7901,158.7835)"
           id="g72"><path
             id="path74"
             style="fill:#ffffff;fill-opacity:1;fill-rule:nonzero;stroke:none"
             d="M 0,0 V 11.496 H 2.646 V 0.146 c 0,-0.844 0.511,-0.969 1.621,-0.969 v -1.889 c 0,0 -0.779,-0.162 -1.477,-0.162 C 0.737,-2.874 0,-1.787 0,0" /></g><g
           transform="translate(420.9952,164.4104)"
           id="g76"><path
             id="path78"
             style="fill:#ffffff;fill-opacity:1;fill-rule:nonzero;stroke:none"
             d="M 0,0 C -1.335,0 -1.866,-1.211 -1.866,-2.401 H 1.808 C 1.808,-1.111 1.396,0 0,0 m -1.866,-3.985 c 0,-1.602 0.902,-2.485 2.583,-2.485 1.049,0 2.054,0.434 2.937,0.865 L 4.165,-7.496 C 3.323,-7.945 1.992,-8.502 0.393,-8.502 c -3.144,0 -4.971,1.931 -4.971,5.256 0,3.1 1.479,5.216 4.703,5.216 3.039,0 4.25,-2.257 4.25,-4.787 v -1.168 z" /></g><g
           transform="translate(194.0958,386.3528)"
           id="g80"><path
             id="path82"
             style="fill:#ffffff;fill-opacity:1;fill-rule:nonzero;stroke:none"
             d="M 0,0 C 0.284,0.229 0.874,0.739 0.396,1.699 0.167,2.15 -0.431,2.193 -0.171,2.248 3.032,3 4.744,7.675 4.646,9.468 c 1.645,-1.519 5.34,-1.952 8.02,0.326 1.731,1.667 2.565,6.047 -0.395,8.242 -1.514,1.118 -4.198,1.216 -5.878,-0.082 -0.531,0.894 -1.454,1.53 -2.442,1.536 -0.014,0.314 0.042,2.423 -1.21,3.79 -1.601,1.745 -6.103,1.877 -7.737,-0.033 -3.234,0.811 -7.433,-0.681 -7.199,-5.746 -2.273,0.897 -3.574,0.912 -4.775,0.803 -1.13,-0.108 -2.639,-1.117 -3.16,-1.81 -0.241,-0.308 -0.508,-0.741 -0.705,-1.117 -0.368,-0.729 -0.653,-1.685 -0.549,-2.749 0.169,-1.803 1.057,-3.319 2.365,-4.04 1.805,-0.987 4.093,-0.854 4.91,-0.724 0.625,0.138 1.298,0.365 2.01,1.11 0.209,0.214 0.362,0.554 0.667,0.559 C -11.439,9.076 -11.603,6.648 -8.895,5.495 -8.883,5.379 -8.844,5.267 -8.817,5.094 -7.96,1.753 -5.711,2.166 -5.676,1.934 -6.672,1.329 -6.25,0.454 -6.015,0.001 -4.494,0.468 -3.367,0.532 -3.008,0.532 -2.65,0.532 -1.522,0.468 0,0" /></g><g
           transform="translate(199.9435,376.3001)"
           id="g84"><path
             id="path86"
             style="fill:#ffffff;fill-opacity:1;fill-rule:nonzero;stroke:none"
             d="m 0,0 -5.839,-4.184 2.234,-6.605 -5.605,4.253 -5.6,-4.253 2.232,6.605 -5.839,4.18 -0.021,0.008 h 7.206 L -9.21,6.689 -7.187,0.004 H 0.014 Z M 1.753,-0.031 C 1.744,3.317 4.004,5.906 4.034,5.939 4.28,6.217 4.308,6.477 4.29,6.658 4.244,6.969 4.004,7.178 3.955,7.184 3.309,7.62 1.86,8.508 1.86,8.508 L 1.744,8.61 H 1.619 C 1.462,8.61 1.342,8.516 1.144,8.366 0.742,8.057 -0.004,7.48 -1.307,7.48 -1.536,7.48 -1.772,7.502 -2.024,7.535 -2.705,7.63 -3.847,8.212 -3.847,8.212 -4.22,8.407 -4.684,8.61 -4.873,8.696 l -0.083,0.033 c -1.867,0.774 -3.455,0.836 -3.9,0.836 -0.443,0 -2.032,-0.062 -3.904,-0.836 l -0.086,-0.033 c -0.097,-0.045 -0.27,-0.124 -0.468,-0.214 l -1.138,-0.539 c -0.381,-0.168 -0.87,-0.356 -1.243,-0.408 -0.244,-0.033 -0.48,-0.055 -0.717,-0.055 -1.298,0 -2.046,0.577 -2.451,0.886 -0.199,0.15 -0.323,0.244 -0.472,0.244 L -19.45,8.599 -19.517,8.553 C -19.524,8.551 -21.004,7.638 -21.618,7.214 -21.716,7.17 -21.953,6.971 -22,6.654 c -0.019,-0.177 0.004,-0.437 0.256,-0.715 0.091,-0.112 2.286,-2.657 2.281,-6.022 0.056,-0.382 0.224,-2.402 -1.496,-5.373 -0.081,-0.151 -1.973,-3.611 0.097,-6.645 0.009,-0.029 1.558,-2.853 6.084,-2.853 0.37,0 3.711,-0.062 4.861,-2.197 0.05,-0.085 0.586,-0.94 0.8,-1.36 l 0.261,-0.512 0.254,0.512 c 0.218,0.415 0.746,1.263 0.825,1.38 1.131,2.115 4.472,2.177 4.843,2.177 4.463,0 6.057,2.809 6.057,2.809 2.121,3.11 0.135,6.671 0.122,6.689 -1.716,2.971 -1.55,4.991 -1.492,5.425" /></g><g
           transform="translate(212.8497,345.2669)"
           id="g88"><path
             id="path90"
             style="fill:#ffffff;fill-opacity:1;fill-rule:nonzero;stroke:none"
             d="m 0,0 c -0.217,0.264 -0.504,1.476 -0.504,1.476 -0.169,0.68 -0.413,1.241 -0.651,1.808 0.747,0.208 1.469,0.462 2.201,0.7 C 0.967,1.731 0,0 0,0 m -9.158,-2.647 c -0.734,0.109 -1.117,2.37 -1.306,4.125 2.766,0.356 5.444,0.849 8.016,1.504 0.858,-2.132 1.082,-4.174 1.082,-4.174 -3.176,-3.267 -7.792,-1.455 -7.792,-1.455 M -8.162,7.8 C -6.671,7.775 -5.502,7.186 -4.585,6.322 -6.321,5.925 -8.357,5.557 -10.604,5.241 -10.228,7.829 -8.162,7.8 -8.162,7.8 m -3.275,3.061 C -4.416,13.529 -0.504,8.783 -0.504,8.783 -0.199,8.399 0.007,8.008 0.212,7.616 -0.766,7.308 -2.016,6.963 -3.401,6.616 -5.915,9 -8.947,9.2 -9.197,9.255 c -1.928,0.426 -2.385,1.558 -2.24,1.606 m -8.067,-6.328 c 1.085,2.22 3.46,3.683 4.343,4.904 0.498,0.684 1.23,0.708 1.23,0.708 1.017,0.009 1.224,-2.353 1.517,-5.151 -2.153,-0.249 -4.549,-0.396 -7.09,-0.461 M -30.61,4.996 c 0.295,2.797 0.501,5.158 1.517,5.149 0,0 0.731,-0.024 1.231,-0.708 0.878,-1.221 3.253,-2.684 4.339,-4.904 -2.538,0.068 -4.937,0.215 -7.087,0.463 m -3.218,4.259 C -34.079,9.2 -37.106,9 -39.619,6.623 c -1.386,0.348 -2.638,0.694 -3.615,1.003 0.204,0.388 0.407,0.777 0.71,1.157 0,0 3.915,4.746 10.936,2.078 0.138,-0.048 -0.309,-1.18 -2.24,-1.606 M -38.432,6.33 c 0.917,0.859 2.086,1.445 3.573,1.47 0,0 2.061,0.027 2.436,-2.555 -2.244,0.317 -4.275,0.686 -6.009,1.085 m 4.567,-8.977 c 0,0 -4.618,-1.812 -7.794,1.455 0,0 0.225,2.046 1.086,4.182 2.573,-0.657 5.248,-1.15 8.014,-1.507 -0.189,-1.756 -0.572,-4.021 -1.306,-4.13 m -8.659,4.123 c 0,0 -0.284,-1.212 -0.5,-1.476 0,0 -0.972,1.739 -1.051,3.998 0.734,-0.237 1.456,-0.496 2.206,-0.707 -0.24,-0.568 -0.486,-1.131 -0.655,-1.815 M -53.39,4.619 c 0,0 -0.216,-0.188 -0.452,0.095 -2.295,2.816 1.208,6.015 2.321,4.065 0,0 -1.317,-0.047 -1.172,-0.975 0,0 0.024,-0.961 1.208,-0.902 0,0 1.651,0.169 1.259,2.161 0,0 -0.212,0.897 -1.224,1.204 0,0 -2.89,0.785 -4.12,-1.73 0,0 -0.251,-0.601 -0.288,-1.515 -0.337,0.27 -0.716,0.483 -1.126,0.549 -0.541,0.569 -1.486,5.185 -0.882,7.556 4.422,0.925 5.785,4.577 5.99,5.611 0.895,-0.295 1.42,-1.326 1.463,-1.762 0.071,-0.599 -0.206,-1.22 0.144,-1.706 0.516,-0.718 1.661,-1.372 2.365,-1.848 0.238,-0.153 3.481,-2.662 3.896,-2.746 0.464,-0.097 0.747,0.247 1.151,0.177 0.144,-0.03 0.242,-0.134 0.352,-0.221 0,0 0.233,-0.235 0.563,-0.468 -0.85,-0.563 -1.959,-1.372 -3.426,-2.675 0,0 -1.121,-1.453 -8.022,-4.87 M 27.909,3.253 C 27.176,4.14 25.236,3.698 25.236,3.698 26.281,6.804 23.41,7.63 23.41,7.63 22.383,7.901 21.708,7.709 21.27,7.41 c 0,0 -0.02,-0.013 -0.032,-0.022 C 21.23,7.379 21.22,7.376 21.22,7.367 21.144,7.313 21.079,7.267 21.016,7.201 20.758,6.93 20.597,6.564 20.597,6.167 c 0,-0.821 0.673,-1.492 1.495,-1.492 0.319,0 0.614,0.102 0.858,0.269 0.295,0.211 0.511,0.526 0.591,0.886 0.402,-0.254 0.55,-0.696 0.55,-0.696 C 24.927,2.486 21.95,1.537 21.95,1.537 15.378,-0.437 11.358,2.957 11.358,2.957 l 1.15,0.614 c 0.395,0.175 0.757,0.226 1.041,0.226 -0.012,-0.053 -0.022,-0.125 -0.022,-0.194 0,-0.707 0.59,-1.289 1.305,-1.289 0.716,0 1.302,0.582 1.302,1.289 -0.008,0.537 -0.263,0.798 -0.263,0.798 -0.768,1.159 -3.422,0.392 -3.422,0.392 0.883,2.18 0.094,3.744 0.094,3.744 -1.226,2.515 -4.122,1.73 -4.122,1.73 C 7.41,9.96 7.201,9.063 7.201,9.063 6.81,7.071 8.46,6.902 8.46,6.902 9.648,6.843 9.66,7.804 9.66,7.804 9.813,8.732 8.5,8.779 8.5,8.779 9.608,10.729 13.104,7.53 10.818,4.714 10.58,4.431 10.361,4.619 10.361,4.619 6.269,6.646 4.238,7.969 3.242,8.721 3.146,9.834 2.17,10.398 2.357,10.695 c 0.161,0.066 0.739,-0.223 1.062,0.261 0.119,0.176 0.386,1.94 0.604,3.189 3.623,-1.655 6.712,-1.151 7.335,-0.951 0.317,0.131 0.573,0.359 0.579,0.833 0.058,1.379 -3.516,9.49 -3.614,12.353 1.688,-0.837 2.731,1.768 3.035,2.563 2.269,-1.035 3.05,-22.084 4.796,-22.793 0.873,-0.354 1.218,1.079 1.298,1.344 2.806,9.384 2.904,18.52 2.719,21.583 -0.281,4.801 -0.669,9.097 -1.825,13.049 -0.711,2.433 -2.086,7.398 -5.297,8.075 -1.504,0.32 -2.643,-1.082 -2.617,-2.341 0.024,-1.089 0.777,-1.618 0.443,-2.688 -0.402,-0.7 -0.805,-1.464 -1.002,-2.247 -0.193,-0.781 0.502,-1.102 0.277,-1.932 -1.015,0.153 -1.523,-0.738 -3.12,-0.33 1.041,0.483 1.054,3.45 -0.22,3.958 -0.191,0.079 -0.408,0.107 -0.443,0.279 0,0 0.413,0.437 0.617,0.865 0.733,1.501 0.729,2.823 0.146,3.822 0.528,-0.045 1.078,0.926 1.151,1.699 l 0.012,-0.007 c 0.002,0.009 0.002,0.046 0.002,0.062 v 0.005 c 0.012,0.203 -0.024,0.883 0.284,1.515 0.098,0.207 0,0.446 -0.178,0.537 -0.183,0.085 -0.422,0.007 -0.527,-0.202 -0.314,-0.665 -1.066,-0.295 -0.748,0.371 0.095,0.212 0,0.444 -0.181,0.534 C 6.768,54.184 6.526,54.119 6.426,53.906 6.123,53.268 5.393,53.625 5.694,54.265 5.791,54.471 5.698,54.709 5.521,54.794 5.348,54.877 5.102,54.81 4.997,54.596 4.687,53.938 3.927,54.302 4.242,54.957 4.34,55.178 4.242,55.411 4.064,55.5 3.887,55.577 3.65,55.51 3.545,55.302 3.211,54.604 2.978,54.313 2.628,54.034 1.918,53.908 2.106,53.092 2.191,52.539 0.863,52.826 -0.138,51.814 -0.178,50.906 h -0.149 c -1.098,-0.026 -2.149,-0.594 -2.067,-1.605 0.04,-0.575 0.713,-1.289 0.969,-1.299 0.118,0.039 -0.059,0.609 0.511,0.645 0.52,0.03 1.295,-0.416 1.39,-0.909 0.114,-0.563 -0.349,-1.921 1.444,-2.121 0,0 -0.014,-0.275 -0.039,-0.566 -0.642,0.043 -0.809,0.078 -1.448,-0.021 -1.132,-0.18 -2.684,-0.818 -3.064,-1.941 -0.073,-0.188 -0.104,-0.581 -0.073,-0.851 0.024,-0.229 0.237,-0.516 0.208,-0.799 -0.021,-0.135 -0.259,-0.419 -0.353,-0.506 -0.47,-0.497 -1.346,-0.967 -2.122,-1.006 -0.856,-0.043 -1.69,0.509 -2.025,0.969 -1.139,1.532 0.335,4.181 0.313,5.169 -0.066,2.629 -3.385,1.063 -4.7,0.378 -1.566,-0.824 -2.815,-2.149 -3.867,-3.451 -0.578,-0.714 -1.227,-1.613 -1.546,-2.373 -0.059,-0.14 -0.185,-0.164 -0.323,-0.159 0.673,-0.303 1.86,-0.746 2.798,-0.758 0,0 1.834,-0.249 3.148,0.847 0,0 0.187,0.163 0.453,0.163 0.189,0 0.356,-0.081 0.502,-0.215 0.013,-0.018 0.181,-0.153 0.378,-0.31 0.115,-0.095 0.261,-0.209 0.415,-0.332 0.079,-0.06 0.155,-0.122 0.24,-0.188 0.22,-0.172 0.454,-0.354 0.692,-0.537 0.044,-0.033 0.085,-0.067 0.13,-0.101 0.258,-0.198 0.515,-0.395 0.744,-0.566 0.269,-0.203 0.527,-0.394 0.677,-0.494 l 0.012,-0.012 c 0.027,-0.021 0.092,-0.085 0.114,-0.185 0.007,-0.098 -0.04,-0.216 -0.128,-0.327 -0.006,-0.006 -0.144,-0.159 -0.354,-0.424 -0.439,-0.557 -1.182,-1.652 -1.75,-2.992 0.62,-1.078 1.661,-2.364 3.154,-2.38 1.193,-0.01 1.682,0.584 1.858,1.349 0.022,-0.018 0.084,-0.096 0.095,-0.1 0.143,0.128 0.8,-3.429 1.668,-4.395 -0.812,-0.378 -2.07,-1.655 -1.387,-5.167 -0.671,0.535 -1.902,1.468 -2.491,2.077 -0.354,0.729 -1.047,2.444 -3.032,2.609 0.287,-0.881 0.704,-1.873 1.344,-2.974 0.012,-0.03 1.223,-2.262 0.845,-4.793 0.833,0.853 0.705,3.195 0.705,3.195 0.03,0.031 0.15,0.065 0.185,0.078 0.169,0.012 1.004,-1.615 2.444,-1.956 1.877,-3.208 3.988,-5.245 6.027,-6.534 -0.038,-0.775 0.057,-2.627 -0.443,-2.627 -1.606,-0.355 -3.085,0.727 -4.5,0.653 -0.12,0.058 -0.246,0.116 -0.246,0.116 -6.086,2.93 -14.108,-3.362 -15.446,-4.582 -0.704,-0.649 -1.519,0.236 -1.519,0.236 -0.48,0.606 -1.109,0.88 -1.728,0.81 -0.611,0.07 -1.247,-0.204 -1.723,-0.81 0,0 -0.818,-0.885 -1.523,-0.236 -1.265,1.157 -8.535,6.787 -14.479,4.866 -0.016,0.325 -0.817,0.49 -1.041,0.574 -0.473,0.134 -0.886,0.507 -1.181,0.654 -0.647,0.325 -1.7,0.124 -2.436,0.21 -0.287,0.043 -0.688,0.193 -0.944,0.347 -0.953,0.586 -2.038,1.303 -2.645,2.16 -0.096,0.14 -0.334,0.464 -0.381,0.52 -0.296,0.37 -0.442,0.645 -0.667,1.258 -0.325,1.173 0.181,2.433 0.352,3.622 0.128,0.879 0.098,0.936 0.177,1.88 3.774,1.297 5.316,4.126 6.196,5.635 0.084,0.118 0.319,0.599 0.319,0.599 0.167,-0.025 0.334,-0.037 0.515,-0.046 1.509,-0.01 2.525,0.833 4.176,0.633 0,-0.092 0.221,-0.786 1.292,-1.225 0.032,-1.082 0.11,-1.975 0.522,-2.815 0.09,-0.146 0.203,-0.27 0.285,-0.392 0.706,1.739 0.893,3.095 0.913,3.911 -0.051,0.072 -0.096,0.172 -0.126,0.327 -0.354,1.838 -1.21,2.342 -2.017,2.806 -0.397,0.216 -0.838,0.283 -1.218,0.559 -0.586,0.403 -1.208,0.835 -1.598,1.59 0,0 0.193,0.18 0.398,0.44 1.054,1.104 1.582,2.727 1.968,4.507 0.806,1.101 3.046,0.671 3.898,0.514 0.22,-0.025 0.591,-0.109 0.764,-0.244 0.24,-0.165 0.296,-0.546 0.631,-0.69 0.353,-0.145 0.753,-0.037 1.182,0 0.157,-0.179 0.242,-0.427 0.356,-0.652 0,0 0.116,-0.208 0.339,-0.442 1.046,0.022 2.453,0.575 3.043,0.874 -0.071,0.045 -0.131,0.09 -0.163,0.138 -0.472,0.599 -1.177,1.261 -1.837,1.367 -0.835,0.138 -1.01,0.884 -1.809,1.043 -0.203,0.055 -0.911,0.161 -1.151,0.075 -1.767,-0.23 -3.015,0.441 -4.667,0.558 -1.57,0.111 -1.62,-0.961 -2.192,-1.847 -0.213,-0.333 -0.464,-0.724 -0.724,-0.973 -0.433,-0.418 -0.937,-0.433 -1.462,-0.832 l -0.243,0.654 c -0.145,0.543 -0.347,1.106 -0.704,1.638 -0.854,1.34 -1.826,2.375 -3.722,2.813 -0.363,0.147 -0.417,0.169 -0.657,0.361 -0.31,0.24 -0.089,0.526 0,0.555 0.539,0.311 1.471,0.201 2.085,0.484 1.512,0.704 0.976,1.986 0.386,2.09 -0.759,0.142 -2.135,0.504 -2.404,0.663 -0.366,0.231 -1.003,1.383 -1.602,1.666 -0.663,0.18 -0.435,1.264 -1.047,1.5 -0.264,0.045 -0.653,-0.089 -1.082,-0.302 -0.026,0.225 -0.189,1.458 -0.866,1.861 -0.508,0.289 -0.693,-0.162 -0.669,-0.457 0.028,-0.262 0.744,-0.624 0.878,-1.786 -0.122,-0.079 -0.241,-0.147 -0.366,-0.235 -0.096,0.48 -0.312,1.222 -0.807,1.517 -0.508,0.292 -0.693,-0.161 -0.667,-0.452 0.023,-0.252 0.654,-0.578 0.852,-1.561 -0.151,-0.124 -0.292,-0.25 -0.433,-0.38 -1.015,0.281 -1.289,0.969 -1.543,1.016 -0.285,0.062 -0.749,-0.083 -0.513,-0.617 0.248,-0.536 1.009,-0.829 1.474,-0.967 -0.105,-0.112 -0.191,-0.223 -0.282,-0.332 -1.177,0.235 -1.465,1.003 -1.728,1.062 -0.289,0.053 -0.756,-0.09 -0.517,-0.62 0.343,-0.75 1.677,-1.037 1.802,-1.062 -0.19,-0.32 -0.314,-0.612 -0.267,-0.82 -0.917,0.105 -2.542,-0.386 -2.235,-1.468 0.303,-0.219 1.385,0.665 2.381,0.173 0.657,-1.02 1.71,-1.063 1.947,-1.251 0.367,-0.292 0.425,-0.816 0.595,-1.291 0.293,-0.882 0.911,-1.588 1.424,-2.37 0.563,-0.855 1.151,-1.754 1.742,-2.502 0.072,-0.203 0.136,-0.416 0.1,-0.733 -0.673,-1.07 -2.688,-2.321 -3.514,-3.095 -0.834,-0.785 -8.721,-6.786 -9.712,-9.403 -0.218,-0.586 -0.347,-1.338 -0.313,-2.119 -0.482,-0.256 -1.539,-0.675 -1.871,-0.202 -0.61,0.845 0.578,1.487 0.318,2.305 -0.124,0.316 -0.582,0.526 -0.873,0.316 -1.964,-1.409 -0.951,-3.904 0.291,-4.471 1.366,-0.567 1.562,0.904 2.621,0.309 0.251,-0.144 2.754,-2.379 2.333,-4.146 -0.025,-0.091 -0.122,-0.346 -0.171,-0.413 -0.549,-0.681 -1.463,-1.206 -2.087,-1.846 -1.303,-0.825 1.235,-6.014 1.025,-8.677 -0.148,-1.011 0.842,-0.894 1.446,-2.479 -0.618,-0.019 -1.224,-0.172 -1.531,-0.632 0,0 -0.26,-0.261 -0.26,-0.798 0,-0.707 0.579,-1.289 1.297,-1.289 0.718,0 1.302,0.582 1.302,1.289 0,0.069 -0.003,0.141 -0.014,0.194 0.284,0 0.65,-0.051 1.044,-0.226 l 1.147,-0.614 c 0,0 -4.022,-3.394 -10.588,-1.42 0,0 -2.979,0.949 -2.145,3.597 0,0 0.146,0.442 0.552,0.696 0.079,-0.36 0.294,-0.675 0.589,-0.886 0.245,-0.167 0.539,-0.269 0.858,-0.269 0.821,0 1.488,0.671 1.488,1.492 0,0.397 -0.153,0.763 -0.411,1.034 -0.065,0.066 -0.128,0.112 -0.207,0.166 0,0.009 -0.007,0.012 -0.007,0.012 -0.024,0.018 -0.032,0.023 -0.032,0.023 -0.449,0.307 -1.124,0.499 -2.152,0.228 0,0 -2.867,-0.826 -1.827,-3.932 0,0 -1.936,0.442 -2.668,-0.445 0,0 -0.252,-0.281 -0.23,-0.734 V 2.503 2.486 c 0.017,-0.182 0.073,-0.392 0.207,-0.632 0.202,-0.289 0.539,-0.485 0.922,-0.485 0.352,0 0.664,0.165 0.876,0.417 0,0.013 0.008,0.013 0.008,0.013 0.079,0.099 0.317,0.237 0.665,-0.127 4.356,-4.541 11.46,-2.668 15.399,0.375 0,0 2.182,2.197 4.616,3.543 0.948,-0.407 1.953,-0.71 2.931,-1.063 -0.071,-1.413 0.223,-3.435 1.799,-5.791 0,0 -1.11,-2.053 -2.987,-0.924 0,0 -1.385,1.067 -0.207,2.353 0,0 0.789,0.657 1.129,-0.165 -0.403,-0.023 -0.728,-0.353 -0.728,-0.764 0,-0.424 0.337,-0.759 0.758,-0.759 0.414,0 0.738,0.318 0.76,0.716 0.037,0.309 0.055,1.098 -0.622,1.668 0,0 -0.598,0.65 -1.727,0.469 -1.654,-0.258 -2.588,-3.715 0.676,-5.147 0,0 2.566,-1.169 3.888,0.745 0,0 -0.019,0.278 0.476,-0.199 2.716,-2.632 8.78,-1.869 11.188,-0.079 0,0 0.61,0.386 1.277,0.703 0.031,-1.013 0.858,-1.843 1.889,-1.843 1.039,0 1.885,0.854 1.885,1.895 0,0.931 -0.671,1.699 -1.559,1.859 -0.041,0.014 -1.245,0.356 -3.004,-0.71 0,0 -1.859,-1.165 -1.751,-0.987 0.625,0.983 1.013,2.311 1.282,3.732 2.643,-0.291 5.359,-0.485 8.169,-0.545 -0.034,-0.817 -0.146,-1.816 -0.463,-2.58 0,0 -0.991,-0.411 -1.015,-1.111 0,0 -0.111,-0.51 0.771,-1.219 0,0 0.643,-0.712 0.83,-1.264 0,0 0.052,-0.768 1.11,-0.768 0.078,0 0.141,0.009 0.2,0.022 0.068,-0.013 0.135,-0.022 0.205,-0.022 1.059,0 1.11,0.768 1.11,0.768 0.189,0.552 0.829,1.264 0.829,1.264 0.881,0.709 0.77,1.219 0.77,1.219 -0.017,0.7 -1.017,1.111 -1.017,1.111 -0.314,0.764 -0.426,1.763 -0.46,2.578 2.812,0.06 5.527,0.251 8.17,0.541 0.269,-1.419 0.655,-2.745 1.283,-3.726 0.112,-0.178 -1.748,0.987 -1.748,0.987 -1.76,1.066 -2.975,0.724 -3.014,0.71 -0.885,-0.16 -1.552,-0.928 -1.552,-1.859 0,-1.041 0.844,-1.895 1.884,-1.895 1.029,0 1.86,0.83 1.886,1.843 0.67,-0.317 1.28,-0.703 1.28,-0.703 2.401,-1.79 8.473,-2.553 11.19,0.079 0.494,0.477 0.472,0.199 0.472,0.199 C 1.097,-4.986 3.667,-3.817 3.667,-3.817 6.925,-2.385 5.989,1.072 4.344,1.33 3.213,1.511 2.608,0.861 2.608,0.861 1.937,0.291 1.95,-0.498 1.991,-0.807 2.01,-1.205 2.339,-1.523 2.747,-1.523 c 0.42,0 0.761,0.335 0.761,0.759 0,0.411 -0.327,0.741 -0.726,0.764 0.338,0.822 1.127,0.165 1.127,0.165 1.179,-1.286 -0.21,-2.353 -0.21,-2.353 -1.873,-1.129 -2.986,0.924 -2.986,0.924 1.573,2.348 1.87,4.367 1.801,5.78 0.984,0.352 1.994,0.658 2.944,1.068 2.43,-1.349 4.604,-3.537 4.604,-3.537 3.937,-3.043 11.038,-4.916 15.398,-0.375 0.349,0.364 0.587,0.226 0.664,0.127 0,0 0.009,0 0.009,-0.013 0.209,-0.252 0.524,-0.417 0.876,-0.417 0.384,0 0.715,0.196 0.923,0.485 0.133,0.24 0.187,0.45 0.208,0.632 v 0.009 0.024 c 0.018,0.453 -0.231,0.734 -0.231,0.734" /></g><g
           transform="translate(284.8683,393.0608)"
           id="g92"><path
             id="path94"
             style="fill:#ffffff;fill-opacity:1;fill-rule:nonzero;stroke:none"
             d="M 0,0 -0.363,14.82 H -0.468 C -0.779,12.947 -1.092,11.596 -1.326,10.582 L -3.822,0 H -8.84 l -2.392,10.582 c -0.234,1.014 -0.546,2.365 -0.885,4.238 H -12.22 L -12.455,0 h -3.12 l 0.677,17.551 h 5.85 c 0,0 1.923,-8.842 2.938,-14.51 h 0.078 c 1.17,5.643 3.458,14.51 3.458,14.51 H 3.173 L 3.849,0 Z" /></g><path
           id="path96"
           style="fill:#ffffff;fill-opacity:1;fill-rule:nonzero;stroke:none"
           d="m 292.59,411 h 3.432 v -3.094 h -3.432 z m 0.103,-17.939 v 10.295 l -1.481,0.312 v 2.133 h 4.861 v -12.74 z" /><g
           transform="translate(307.0714,393.0608)"
           id="g98"><path
             id="path100"
             style="fill:#ffffff;fill-opacity:1;fill-rule:nonzero;stroke:none"
             d="M 0,0 V 7.566 C 0,9.49 -0.728,10.4 -2.288,10.4 -3.172,10.4 -3.926,10.01 -4.524,9.619 V 0 H -7.93 v 12.74 h 2.34 l 0.52,-1.457 C -4.342,12.143 -2.938,13 -1.04,13 2.185,13 3.458,11.102 3.458,7.877 V 0 Z" /></g><path
           id="path102"
           style="fill:#ffffff;fill-opacity:1;fill-rule:nonzero;stroke:none"
           d="m 314.247,411 h 3.432 v -3.094 h -3.432 z m 0.104,-17.939 v 10.295 l -1.482,0.312 v 2.133 h 4.862 v -12.74 z" /><g
           transform="translate(323.7628,402.4475)"
           id="g104"><path
             id="path106"
             style="fill:#ffffff;fill-opacity:1;fill-rule:nonzero;stroke:none"
             d="m 0,0 c 0,-1.977 5.512,-1.379 5.512,-5.539 0,-2.315 -1.716,-4.107 -5.018,-4.107 -1.534,0 -2.965,0.441 -3.822,0.935 l 0.702,2.365 c 0.598,-0.416 1.846,-0.883 3.016,-0.883 1.118,0 1.872,0.624 1.872,1.405 0,2.287 -5.434,1.533 -5.434,5.875 0,1.873 1.43,3.562 4.861,3.562 1.327,0 2.705,-0.259 3.589,-0.625 L 4.81,0.52 C 3.952,0.908 2.86,1.17 1.742,1.17 0.572,1.17 0,0.727 0,0" /></g><g
           transform="translate(336.6583,392.8011)"
           id="g108"><path
             id="path110"
             style="fill:#ffffff;fill-opacity:1;fill-rule:nonzero;stroke:none"
             d="m 0,0 c -2.262,0 -3.744,1.064 -3.744,4.264 v 6.318 H -5.642 V 13 h 1.898 v 2.209 l 3.354,1.094 V 13 H 3.017 V 10.582 H -0.39 v -6.24 c 0,-0.885 0.443,-1.457 1.352,-1.457 0.702,0 1.431,0.209 1.95,0.469 L 3.433,0.857 C 2.679,0.416 1.353,0 0,0" /></g><g
           transform="translate(346.9288,403.5647)"
           id="g112"><path
             id="path114"
             style="fill:#ffffff;fill-opacity:1;fill-rule:nonzero;stroke:none"
             d="M 0,0 C -1.69,0 -2.393,-1.533 -2.393,-3.043 H 2.262 C 2.262,-1.404 1.768,0 0,0 m -2.393,-5.045 c 0,-2.027 1.145,-3.144 3.277,-3.144 1.3,0 2.626,0.492 3.744,1.064 l 0.65,-2.391 c -1.066,-0.572 -2.808,-1.248 -4.81,-1.248 -3.926,0 -6.267,2.444 -6.267,6.657 0,3.925 1.899,6.603 5.981,6.603 3.848,0 5.356,-2.859 5.356,-6.059 v -1.482 z" /></g><g
           transform="translate(362.2686,402.9671)"
           id="g116"><path
             id="path118"
             style="fill:#ffffff;fill-opacity:1;fill-rule:nonzero;stroke:none"
             d="m 0,0 c -0.416,0.129 -1.014,0.207 -1.586,0.207 -0.91,0 -1.716,-0.389 -2.288,-0.857 v -9.256 h -3.38 v 12.74 h 2.365 l 0.365,-1.717 h 0.078 c 0.389,0.91 1.534,1.951 3.042,1.951 0.675,0 1.196,-0.105 1.482,-0.183 z" /></g><path
           id="path120"
           style="fill:#ffffff;fill-opacity:1;fill-rule:nonzero;stroke:none"
           d="m 365.258,411 h 3.433 v -3.094 h -3.433 z m 0.104,-17.939 v 10.295 l -1.482,0.312 v 2.133 h 4.862 v -12.74 z" /><g
           transform="translate(379.7921,399.4573)"
           id="g122"><path
             id="path124"
             style="fill:#ffffff;fill-opacity:1;fill-rule:nonzero;stroke:none"
             d="m 0,0 c 0,3.066 -0.91,4.133 -2.496,4.133 -1.586,0 -2.47,-1.092 -2.47,-4.133 0,-2.965 0.806,-4.16 2.47,-4.16 C -0.832,-4.16 0,-3.043 0,0 m 3.484,0 c 0,-4.344 -2.184,-6.656 -5.98,-6.656 -3.822,0 -5.981,2.287 -5.981,6.656 0,3.744 2.081,6.604 5.981,6.604 3.848,0 5.98,-2.86 5.98,-6.604" /></g><g
           transform="translate(399.4737,402.8889)"
           id="g126"><path
             id="path128"
             style="fill:#ffffff;fill-opacity:1;fill-rule:nonzero;stroke:none;stroke-width:1.0009"
             d="m -0.00220897,0 c -0.52031058,0.312 -1.32078843,0.623 -2.31137973,0.623 -1.6109616,0 -2.6315708,-1.092 -2.6315708,-4.055 0,-3.043 0.9605734,-4.187 2.581541,-4.187 0.8505077,0 1.7110213,0.416 2.36140953,1.092 z M 0.30797618,1.924 C 0.10785673,2.652 -0.00220897,3.303 -0.00220897,4.264 V 8.111 H 3.3798098 V -9.828 H 0.62816731 l -0.39023294,1.404 c -0.52031058,-0.781 -1.75104517,-1.664 -3.38201877,-1.664 -2.8917261,0 -5.2031058,2.08 -5.2031058,6.629 0,4.213 2.3914275,6.631 5.483273,6.631 1.3808243,0 2.47147529,-0.469 3.17189338,-1.248" /></g><g
           transform="translate(411.2257,403.5647)"
           id="g130"><path
             id="path132"
             style="fill:#ffffff;fill-opacity:1;fill-rule:nonzero;stroke:none"
             d="M 0,0 C -1.69,0 -2.393,-1.533 -2.393,-3.043 H 2.262 C 2.262,-1.404 1.768,0 0,0 m -2.393,-5.045 c 0,-2.027 1.145,-3.144 3.277,-3.144 1.3,0 2.626,0.492 3.744,1.064 l 0.65,-2.391 c -1.066,-0.572 -2.808,-1.248 -4.81,-1.248 -3.926,0 -6.267,2.444 -6.267,6.657 0,3.925 1.899,6.603 5.981,6.603 3.848,0 5.356,-2.859 5.356,-6.059 v -1.482 z" /></g><g
           transform="translate(419.3634,396.4397)"
           id="g134"><path
             id="path136"
             style="fill:#ffffff;fill-opacity:1;fill-rule:nonzero;stroke:none"
             d="M 0,0 V 14.561 H 3.354 V 0.184 c 0,-1.067 0.65,-1.223 2.054,-1.223 v -2.393 c 0,0 -0.988,-0.207 -1.872,-0.207 C 0.936,-3.639 0,-2.262 0,0" /></g><path
           id="path138"
           style="fill:#ffffff;fill-opacity:1;fill-rule:nonzero;stroke:none"
           d="m 270.022,384.112 h 3.406 v -17.551 h -3.406 z" /><g
           transform="translate(284.9727,366.5608)"
           id="g140"><path
             id="path142"
             style="fill:#ffffff;fill-opacity:1;fill-rule:nonzero;stroke:none"
             d="M 0,0 V 7.566 C 0,9.49 -0.729,10.4 -2.289,10.4 -3.173,10.4 -3.927,10.01 -4.525,9.619 V 0 h -3.406 v 12.74 h 2.34 l 0.52,-1.457 C -4.343,12.143 -2.939,13 -1.04,13 2.184,13 3.458,11.102 3.458,7.877 V 0 Z" /></g><g
           transform="translate(295.9181,366.3011)"
           id="g144"><path
             id="path146"
             style="fill:#ffffff;fill-opacity:1;fill-rule:nonzero;stroke:none"
             d="m 0,0 c -2.263,0 -3.744,1.064 -3.744,4.264 v 6.318 H -5.643 V 13 h 1.899 v 2.209 l 3.353,1.094 V 13 h 3.407 v -2.418 h -3.407 v -6.24 c 0,-0.885 0.443,-1.457 1.353,-1.457 0.702,0 1.43,0.209 1.95,0.469 L 3.432,0.857 C 2.678,0.416 1.352,0 0,0" /></g><g
           transform="translate(306.1876,377.0647)"
           id="g148"><path
             id="path150"
             style="fill:#ffffff;fill-opacity:1;fill-rule:nonzero;stroke:none"
             d="M 0,0 C -1.689,0 -2.392,-1.533 -2.392,-3.043 H 2.263 C 2.263,-1.404 1.769,0 0,0 m -2.392,-5.045 c 0,-2.027 1.144,-3.144 3.276,-3.144 1.301,0 2.627,0.492 3.744,1.064 l 0.65,-2.391 c -1.066,-0.572 -2.807,-1.248 -4.81,-1.248 -3.926,0 -6.266,2.444 -6.266,6.657 0,3.925 1.898,6.603 5.981,6.603 3.847,0 5.355,-2.859 5.355,-6.059 v -1.482 z" /></g><g
           transform="translate(321.5274,376.4671)"
           id="g152"><path
             id="path154"
             style="fill:#ffffff;fill-opacity:1;fill-rule:nonzero;stroke:none"
             d="m 0,0 c -0.416,0.129 -1.014,0.207 -1.586,0.207 -0.91,0 -1.716,-0.389 -2.288,-0.857 v -9.256 h -3.38 v 12.74 h 2.365 l 0.365,-1.717 h 0.078 c 0.389,0.91 1.534,1.951 3.042,1.951 0.675,0 1.196,-0.105 1.482,-0.183 z" /></g><path
           id="path156"
           style="fill:#ffffff;fill-opacity:1;fill-rule:nonzero;stroke:none"
           d="m 324.517,384.5 h 3.433 v -3.094 h -3.433 z m 0.104,-17.939 v 10.295 l -1.482,0.312 v 2.133 h 4.862 v -12.74 z" /><g
           transform="translate(339.0509,372.9573)"
           id="g158"><path
             id="path160"
             style="fill:#ffffff;fill-opacity:1;fill-rule:nonzero;stroke:none"
             d="m 0,0 c 0,3.066 -0.91,4.133 -2.496,4.133 -1.586,0 -2.47,-1.092 -2.47,-4.133 0,-2.965 0.806,-4.16 2.47,-4.16 C -0.832,-4.16 0,-3.043 0,0 m 3.484,0 c 0,-4.344 -2.184,-6.656 -5.98,-6.656 -3.822,0 -5.981,2.287 -5.981,6.656 0,3.744 2.081,6.604 5.981,6.604 3.848,0 5.98,-2.86 5.98,-6.604" /></g><g
           transform="translate(352.3106,376.4671)"
           id="g162"><path
             id="path164"
             style="fill:#ffffff;fill-opacity:1;fill-rule:nonzero;stroke:none"
             d="m 0,0 c -0.416,0.129 -1.014,0.207 -1.586,0.207 -0.91,0 -1.716,-0.389 -2.288,-0.857 v -9.256 h -3.38 v 12.74 h 2.365 l 0.365,-1.717 h 0.078 c 0.389,0.91 1.534,1.951 3.042,1.951 0.675,0 1.196,-0.105 1.482,-0.183 z" /></g><g
           transform="translate(364.9464,366.846)"
           id="g166"><path
             id="path168"
             style="fill:#ffffff;fill-opacity:1;fill-rule:nonzero;stroke:none"
             d="m 0,0 -2.366,-0.416 -3.797,12.871 h 3.822 L 0.363,1.768 h 0.053 l 2.73,10.687 H 6.525 L 2.6,-0.598 c -1.092,-3.666 -2.939,-5.017 -5.565,-5.017 -1.43,0 -3.042,0.804 -3.588,1.273 l 1.067,2.315 h 0.311 c 0.105,-0.078 1.17,-0.911 2.366,-0.911 1.353,0 2.237,0.936 2.705,2.575 z" /></g><g
           transform="translate(274.6759,339.8011)"
           id="g170"><path
             id="path172"
             style="fill:#ffffff;fill-opacity:1;fill-rule:nonzero;stroke:none"
             d="m 0,0 c -2.34,0 -4.316,0.832 -5.72,1.871 l 1.3,2.678 c 1.014,-0.883 2.86,-1.69 4.472,-1.69 1.612,0 2.704,0.989 2.704,2.315 0,3.717 -8.112,1.871 -8.112,8.06 0,2.653 2.08,4.836 6.188,4.836 2.054,0 3.796,-0.443 5.226,-1.197 L 4.914,14.145 c -0.962,0.57 -2.522,0.96 -4.134,0.96 -1.586,0 -2.626,-0.519 -2.626,-1.82 0,-3.146 8.164,-1.924 8.164,-7.904 C 6.318,2.6 4.004,0 0,0" /></g><g
           transform="translate(288.8976,350.5647)"
           id="g174"><path
             id="path176"
             style="fill:#ffffff;fill-opacity:1;fill-rule:nonzero;stroke:none"
             d="M 0,0 C -1.689,0 -2.392,-1.533 -2.392,-3.043 H 2.263 C 2.263,-1.404 1.769,0 0,0 m -2.392,-5.045 c 0,-2.027 1.144,-3.144 3.276,-3.144 1.301,0 2.627,0.492 3.744,1.064 l 0.65,-2.391 c -1.066,-0.572 -2.807,-1.248 -4.81,-1.248 -3.926,0 -6.266,2.444 -6.266,6.657 0,3.925 1.898,6.603 5.981,6.603 3.847,0 5.355,-2.859 5.355,-6.059 v -1.482 z" /></g><g
           transform="translate(304.3683,348.7444)"
           id="g178"><path
             id="path180"
             style="fill:#ffffff;fill-opacity:1;fill-rule:nonzero;stroke:none"
             d="m 0,0 c 0,1.508 -1.274,1.898 -2.263,1.898 -0.988,0 -2.288,-0.39 -2.288,-1.898 0,-1.611 1.223,-2.002 2.288,-2.002 C -1.223,-2.002 0,-1.611 0,0 m -2.757,-7.957 c -1.195,-0.104 -1.95,-0.779 -1.95,-1.871 0,-1.117 1.015,-1.924 2.393,-1.924 1.534,0 2.547,0.779 2.547,2.106 0,1.119 -0.988,1.535 -2.99,1.689 M 4.186,4.057 4.134,1.535 C 3.536,1.561 2.6,1.689 1.741,1.977 c 0.572,-0.52 1.171,-1.17 1.275,-2.002 0,-3.121 -3.094,-4.37 -5.252,-4.37 -0.494,0 -1.092,0.106 -1.639,0.235 -0.39,-0.129 -0.624,-0.363 -0.624,-0.701 0,-1.379 8.087,0.232 8.087,-4.551 0,-2.99 -2.86,-4.629 -6.059,-4.629 -2.677,0 -5.382,1.17 -5.382,3.512 0,1.636 1.3,2.496 3.38,2.806 -1.586,0.182 -3.172,0.676 -3.172,2.159 0,1.066 0.989,1.845 2.418,1.951 -1.274,0.701 -2.288,1.767 -2.288,3.588 0,3.379 3.199,4.341 5.252,4.341 1.378,0 4.239,-0.234 6.449,-0.259" /></g><g
           transform="translate(319.6554,340.0608)"
           id="g182"><path
             id="path184"
             style="fill:#ffffff;fill-opacity:1;fill-rule:nonzero;stroke:none"
             d="m 0,0 -0.52,1.559 c -0.597,-0.78 -1.95,-1.819 -3.978,-1.819 -3.172,0 -4.628,1.768 -4.628,5.278 v 7.722 h 3.38 V 4.992 c 0,-1.951 0.702,-2.652 2.236,-2.652 0.884,0 1.691,0.338 2.288,0.754 V 12.74 H 2.236 V 0 Z" /></g><g
           transform="translate(331.9532,349.9671)"
           id="g186"><path
             id="path188"
             style="fill:#ffffff;fill-opacity:1;fill-rule:nonzero;stroke:none"
             d="m 0,0 c -0.416,0.129 -1.014,0.207 -1.586,0.207 -0.91,0 -1.716,-0.389 -2.288,-0.857 v -9.256 h -3.38 v 12.74 h 2.366 l 0.365,-1.717 h 0.078 c 0.389,0.91 1.533,1.951 3.042,1.951 0.675,0 1.195,-0.105 1.481,-0.183 z" /></g><path
           id="path190"
           style="fill:#ffffff;fill-opacity:1;fill-rule:nonzero;stroke:none"
           d="m 334.943,358 h 3.432 v -3.094 h -3.432 z m 0.104,-17.939 v 10.295 l -1.481,0.312 v 2.133 h 4.861 v -12.74 z" /><g
           transform="translate(349.4513,349.8889)"
           id="g192"><path
             id="path194"
             style="fill:#ffffff;fill-opacity:1;fill-rule:nonzero;stroke:none"
             d="m 0,0 c -0.521,0.312 -1.326,0.623 -2.314,0.623 -1.613,0 -2.626,-1.092 -2.626,-4.055 0,-3.043 0.961,-4.187 2.574,-4.187 0.858,0 1.716,0.416 2.366,1.092 z M 0.312,1.924 C 0.104,2.652 0,3.303 0,4.264 V 8.111 H 3.38 V -9.828 H 0.624 l -0.391,1.404 c -0.519,-0.781 -1.741,-1.664 -3.379,-1.664 -2.886,0 -5.201,2.08 -5.201,6.629 0,4.213 2.393,6.631 5.487,6.631 1.378,0 2.469,-0.469 3.172,-1.248" /></g><g
           transform="translate(362.7892,345.6253)"
           id="g196"><path
             id="path198"
             style="fill:#ffffff;fill-opacity:1;fill-rule:nonzero;stroke:none"
             d="m 0,0 h -2.106 c -1.405,0 -2.054,-0.678 -2.054,-1.639 0,-1.17 0.624,-1.873 1.897,-1.873 0.807,0 1.639,0.366 2.263,0.86 z m 0.962,-5.564 -0.468,1.507 c -0.65,-0.884 -1.925,-1.767 -3.719,-1.767 -2.547,0 -4.263,1.637 -4.263,4.082 0,2.365 1.742,3.769 4.809,3.769 H 0 v 0.651 c 0,1.636 -0.937,2.158 -2.236,2.158 -1.508,0 -2.783,-0.391 -3.823,-0.859 l -0.857,2.418 c 1.273,0.546 3.016,1.041 5.018,1.041 3.614,0 5.174,-1.665 5.174,-4.915 v -8.085 z" /></g><g
           transform="translate(376.9591,349.8889)"
           id="g200"><path
             id="path202"
             style="fill:#ffffff;fill-opacity:1;fill-rule:nonzero;stroke:none"
             d="m 0,0 c -0.521,0.312 -1.326,0.623 -2.314,0.623 -1.613,0 -2.626,-1.092 -2.626,-4.055 0,-3.043 0.961,-4.187 2.574,-4.187 0.858,0 1.716,0.416 2.366,1.092 z M 0.312,1.924 C 0.104,2.652 0,3.303 0,4.264 V 8.111 H 3.38 V -9.828 H 0.624 l -0.391,1.404 c -0.519,-0.781 -1.741,-1.664 -3.379,-1.664 -2.886,0 -5.201,2.08 -5.201,6.629 0,4.213 2.393,6.631 5.487,6.631 1.378,0 2.469,-0.469 3.172,-1.248" /></g><g
           transform="translate(274.7799,326.7249)"
           id="g204"><path
             id="path206"
             style="fill:#ffffff;fill-opacity:1;fill-rule:nonzero;stroke:none"
             d="M 0,0 H -1.846 V -5.877 H 0 c 2.002,0 3.146,1.223 3.146,3.147 C 3.146,-0.936 1.95,0 0,0 m 0.078,-8.555 h -1.924 v -6.109 H -5.252 V 2.887 h 5.33 C 3.666,2.887 6.76,1.17 6.76,-2.6 6.76,-5.98 4.212,-8.555 0.078,-8.555" /></g><g
           transform="translate(285.5968,326.7776)"
           id="g208"><path
             id="path210"
             style="fill:#ffffff;fill-opacity:1;fill-rule:nonzero;stroke:none"
             d="M 0,0 -0.338,1.949 6.24,3.795 6.682,1.299 Z m 6.604,-14.717 -0.52,1.559 c -0.598,-0.78 -1.95,-1.819 -3.979,-1.819 -3.171,0 -4.628,1.768 -4.628,5.278 v 7.722 h 3.38 v -7.748 c 0,-1.951 0.703,-2.652 2.237,-2.652 0.884,0 1.69,0.338 2.288,0.754 v 9.646 H 8.84 v -12.74 z" /></g><g
           transform="translate(300.6505,315.596)"
           id="g212"><path
             id="path214"
             style="fill:#ffffff;fill-opacity:1;fill-rule:nonzero;stroke:none"
             d="m 0,0 c 0.52,-0.701 1.404,-1.299 2.314,-1.299 1.482,0 2.574,1.092 2.574,4.16 0,3.041 -0.962,4.108 -2.522,4.108 C 1.508,6.969 0.572,6.527 0,5.955 Z m -0.234,7.904 c 0.572,0.782 1.95,1.561 3.38,1.561 2.99,0 5.148,-2.133 5.148,-6.604 0,-4.394 -2.6,-6.656 -5.564,-6.656 -1.82,0 -2.886,0.701 -3.692,1.793 l -0.624,-1.533 h -1.82 V 14.404 H 0 V 9.959 Z" /></g><g
           transform="translate(311.544,315.4397)"
           id="g216"><path
             id="path218"
             style="fill:#ffffff;fill-opacity:1;fill-rule:nonzero;stroke:none"
             d="M 0,0 V 14.561 H 3.354 V 0.184 c 0,-1.067 0.65,-1.223 2.054,-1.223 v -2.393 c 0,0 -0.988,-0.207 -1.872,-0.207 C 0.936,-3.639 0,-2.262 0,0" /></g><path
           id="path220"
           style="fill:#ffffff;fill-opacity:1;fill-rule:nonzero;stroke:none"
           d="m 320.098,330 h 3.432 v -3.094 h -3.432 z m 0.103,-17.939 v 10.295 l -1.481,0.312 v 2.133 h 4.861 v -12.74 z" /><g
           transform="translate(336.8155,312.9182)"
           id="g222"><path
             id="path224"
             style="fill:#ffffff;fill-opacity:1;fill-rule:nonzero;stroke:none"
             d="m 0,0 c -0.729,-0.391 -2.444,-1.117 -4.368,-1.117 -3.796,0 -6.084,2.158 -6.084,6.629 0,4.16 2.288,6.631 6.057,6.631 1.691,0 3.147,-0.338 4.369,-1.041 L -0.91,8.789 c -0.91,0.545 -2.08,0.779 -3.198,0.779 -1.768,0 -2.886,-1.195 -2.886,-4.056 0,-2.885 1.065,-4.055 2.912,-4.055 1.326,0 2.626,0.492 3.458,0.961 z" /></g><g
           transform="translate(345.9669,317.6253)"
           id="g226"><path
             id="path228"
             style="fill:#ffffff;fill-opacity:1;fill-rule:nonzero;stroke:none"
             d="M 0,0 H -2.105 C -3.51,0 -4.16,-0.678 -4.16,-1.639 c 0,-1.17 0.624,-1.873 1.898,-1.873 0.806,0 1.638,0.366 2.262,0.86 z m 0.962,-5.564 -0.468,1.507 c -0.649,-0.884 -1.924,-1.767 -3.718,-1.767 -2.547,0 -4.264,1.637 -4.264,4.082 0,2.365 1.742,3.769 4.81,3.769 H 0 v 0.651 c 0,1.636 -0.936,2.158 -2.235,2.158 -1.509,0 -2.783,-0.391 -3.823,-0.859 l -0.858,2.418 c 1.274,0.546 3.017,1.041 5.019,1.041 3.614,0 5.173,-1.665 5.173,-4.915 v -8.085 z" /></g></g></g><text
       transform="scale(1,-1)"
       id="text1055"
       y="-401.5332"
       x="272.37198"
       style="font-style:normal;font-variant:normal;font-weight:normal;font-stretch:normal;font-size:30px;line-height:1.25;font-family:gobCL;-inkscape-font-specification:gobCL;fill:#000000;fill-opacity:1;stroke:none;stroke-width:0.75"
       xml:space="preserve"><tspan
         style="font-style:normal;font-variant:normal;font-weight:normal;font-stretch:normal;font-family:gobCL;-inkscape-font-specification:gobCL;stroke-width:0.75"
         y="-401.5332"
         x="272.37198"
         id="tspan1053"
         sodipodi:role="line" /></text><rect
       transform="scale(1,-1)"
       y="-415.88144"
       x="268.94989"
       height="151.04755"
       width="165.72615"
       id="rect1114"
       style="fill:#ef2b3e;fill-opacity:1;stroke-width:0.75" /></g><g
     transform="translate(-170.07866,-188.97734)"
     style="display:inline"
     inkscape:label="01_MinInterior_CMYK 1"
     id="layer1"
     inkscape:groupmode="layer"><g
       style="font-style:normal;font-variant:normal;font-weight:bold;font-stretch:normal;font-size:34.2392px;line-height:1.03;font-family:gobCL;-inkscape-font-specification:'gobCL, Bold';font-variant-ligatures:normal;font-variant-caps:normal;font-variant-numeric:normal;font-variant-east-asian:normal;letter-spacing:0.265648px;word-spacing:0px;fill:#ffffff;fill-opacity:1;stroke:none;stroke-width:0.885495"
       id="text1064"
       transform="scale(0.99595633,1.0040601)"
       aria-label="Agencia
Nacional de
Inteligencia"><path
         id="path1116"
         d="m 364.80781,225.59802 h 7.94349 l 1.19837,5.20436 h 5.03316 l -6.06033,-23.11146 h -7.46415 l -6.26577,23.11146 h 4.38261 z m 4.75924,-13.96959 2.36251,10.34024 h -6.30001 l 2.5337,-10.34024 z" /><path
         id="path1118"
         d="m 388.408,213.68278 c -2.70489,0 -6.91631,1.26685 -6.91631,5.71795 0,2.39674 1.33532,3.80055 3.01304,4.72501 -1.88315,0.13696 -3.18424,1.16413 -3.18424,2.56794 0,1.95163 2.08859,2.60218 4.17718,2.84185 -2.73913,0.41087 -4.45109,1.54077 -4.45109,3.69784 0,3.08152 3.56087,4.62229 7.08751,4.62229 4.21142,0 7.97773,-2.15707 7.97773,-6.09458 0,-6.30001 -10.64839,-4.17718 -10.64839,-5.99186 0,-0.44511 0.30816,-0.75326 0.82174,-0.92446 0.71903,0.1712 1.50653,0.30816 2.15707,0.30816 2.84186,0 6.91632,-1.64349 6.91632,-5.75219 -0.13696,-1.09565 -0.92446,-1.95163 -1.67772,-2.63642 1.12989,0.37663 2.36251,0.54783 3.15001,0.58207 l 0.0685,-3.3212 c -2.91034,-0.0342 -6.67665,-0.3424 -8.49133,-0.3424 z m 3.28697,18.38645 c 0,1.7462 -1.33533,2.77338 -3.35544,2.77338 -1.81468,0 -3.15001,-1.06142 -3.15001,-2.5337 0,-1.43805 0.99294,-2.32827 2.56794,-2.46522 2.63642,0.20543 3.93751,0.75326 3.93751,2.22554 z M 388.408,222.00291 c -1.4038,0 -3.01305,-0.51359 -3.01305,-2.63642 0,-1.98587 1.71196,-2.49946 3.01305,-2.49946 1.30109,0 2.97881,0.51359 2.97881,2.49946 0,2.12283 -1.60924,2.63642 -2.97881,2.63642 z" /><path
         id="path1120"
         d="m 414.36322,223.61215 v -1.95163 c 0,-4.21142 -1.98588,-7.97774 -7.05328,-7.97774 -5.37555,0 -7.87501,3.52664 -7.87501,8.69676 0,5.54675 3.08152,8.76524 8.25164,8.76524 2.63642,0 4.93045,-0.89022 6.33425,-1.64349 l -0.85598,-3.15 c -1.47228,0.75326 -3.21848,1.4038 -4.93044,1.4038 -2.80761,0 -4.31414,-1.47228 -4.31414,-4.14294 z m -4.31414,-2.63642 h -6.12882 c 0,-1.98587 0.92446,-4.00598 3.15001,-4.00598 2.32826,0 2.97881,1.84891 2.97881,4.00598 z" /><path
         id="path1122"
         d="m 432.96824,230.80238 v -10.37447 c 0,-4.24567 -1.67772,-6.74513 -5.92338,-6.74513 -2.49946,0 -4.34838,1.1299 -5.30708,2.25979 l -0.68478,-1.91739 h -3.08153 v 16.7772 h 4.48533 v -12.6685 c 0.78751,-0.51359 1.78044,-1.02718 2.94458,-1.02718 2.05435,0 3.01305,1.19838 3.01305,3.73208 v 9.9636 z" /><path
         id="path1124"
         d="m 449.4606,226.48824 c -1.09566,0.61631 -2.80762,1.26685 -4.55382,1.26685 -2.43098,0 -3.83479,-1.54076 -3.83479,-5.34131 0,-3.76631 1.47229,-5.34132 3.80055,-5.34132 1.47229,0 3.01305,0.30816 4.21142,1.02718 l 1.16414,-3.04729 c -1.60925,-0.92446 -3.52664,-1.36957 -5.75219,-1.36957 -4.96468,0 -7.97773,3.25273 -7.97773,8.731 0,5.88914 3.01305,8.731 8.01197,8.731 2.5337,0 4.79349,-0.9587 5.75219,-1.47229 z" /><path
         id="path1126"
         d="m 459.33248,230.80238 v -16.7772 h -6.40273 v 2.80761 l 1.95163,0.41087 v 13.55872 z m -4.58806,-19.55058 h 4.51958 v -4.07446 h -4.51958 z" /><path
         id="path1128"
         d="m 477.06226,230.80238 v -10.64839 c 0,-4.2799 -2.05435,-6.47121 -6.8136,-6.47121 -2.63642,0 -4.93045,0.65055 -6.60817,1.36957 l 1.12989,3.18425 c 1.36957,-0.61631 3.04729,-1.1299 5.03317,-1.1299 1.71196,0 2.94457,0.68479 2.94457,2.84186 v 0.85598 h -3.52664 c -4.04023,0 -6.33425,1.84891 -6.33425,4.96468 0,3.21849 2.25979,5.37556 5.61523,5.37556 2.3625,0 4.04022,-1.16414 4.8962,-2.32827 l 0.61631,1.98587 z m -4.31414,-3.83479 c -0.82174,0.65055 -1.9174,1.1299 -2.97881,1.1299 -1.67772,0 -2.49946,-0.92446 -2.49946,-2.46523 0,-1.26685 0.85598,-2.15707 2.70489,-2.15707 h 2.77338 z" /><path
         id="path1130"
         d="M 379.18827,266.06876 V 242.9573 h -4.14294 l 0.30815,18.55765 h -0.13696 l -7.29295,-18.55765 h -6.88208 v 23.11146 h 4.04023 l -0.30815,-18.18102 h 0.13695 l 7.19024,18.18102 z" /><path
         id="path1132"
         d="m 397.15772,266.06876 v -10.64839 c 0,-4.2799 -2.05435,-6.47121 -6.8136,-6.47121 -2.63642,0 -4.93044,0.65054 -6.60816,1.36957 l 1.12989,3.18424 c 1.36957,-0.6163 3.04729,-1.12989 5.03316,-1.12989 1.71196,0 2.94457,0.68478 2.94457,2.84185 v 0.85598 h -3.52663 c -4.04023,0 -6.33425,1.84892 -6.33425,4.96469 0,3.21848 2.25978,5.37555 5.61522,5.37555 2.36251,0 4.04023,-1.16413 4.89621,-2.32826 l 0.61631,1.98587 z m -4.31414,-3.83479 c -0.82174,0.65054 -1.91739,1.12989 -2.97881,1.12989 -1.67772,0 -2.49946,-0.92446 -2.49946,-2.46522 0,-1.26685 0.85598,-2.15707 2.7049,-2.15707 h 2.77337 z" /><path
         id="path1134"
         d="m 413.88761,261.75462 c -1.09565,0.61631 -2.80761,1.26685 -4.55381,1.26685 -2.43098,0 -3.83479,-1.54076 -3.83479,-5.34132 0,-3.76631 1.47228,-5.34131 3.80055,-5.34131 1.47229,0 3.01305,0.30815 4.21142,1.02718 l 1.16413,-3.04729 c -1.60924,-0.92446 -3.52663,-1.36957 -5.75218,-1.36957 -4.96469,0 -7.97773,3.25272 -7.97773,8.73099 0,5.88915 3.01304,8.731 8.01197,8.731 2.5337,0 4.79349,-0.9587 5.75218,-1.47228 z" /><path
         id="path1136"
         d="m 423.7595,266.06876 v -16.77721 h -6.40273 v 2.80762 l 1.95163,0.41087 v 13.55872 z m -4.58806,-19.55058 h 4.51958 v -4.07447 h -4.51958 z" /><path
         id="path1138"
         d="m 435.29198,248.94916 c -5.13588,0 -7.87502,3.76631 -7.87502,8.69676 0,5.75218 2.84186,8.76523 7.87502,8.76523 4.99892,0 7.87502,-3.04729 7.87502,-8.76523 0,-4.93045 -2.80762,-8.69676 -7.87502,-8.69676 z m 0,14.17503 c -2.19131,0 -3.25272,-1.57501 -3.25272,-5.47827 0,-4.00599 1.16413,-5.44404 3.25272,-5.44404 2.08859,0 3.28696,1.40381 3.28696,5.44404 0,4.00598 -1.09565,5.47827 -3.28696,5.47827 z" /><path
         id="path1140"
         d="m 461.72012,266.06876 v -10.37448 c 0,-4.24566 -1.67772,-6.74512 -5.92338,-6.74512 -2.49946,0 -4.34838,1.12989 -5.30707,2.25979 l -0.68479,-1.9174 h -3.08153 v 16.77721 h 4.48534 v -12.66851 c 0.7875,-0.51358 1.78044,-1.02717 2.94457,-1.02717 2.05435,0 3.01305,1.19837 3.01305,3.73207 v 9.96361 z" /><path
         id="path1142"
         d="m 479.06846,266.06876 v -10.64839 c 0,-4.2799 -2.05435,-6.47121 -6.8136,-6.47121 -2.63642,0 -4.93045,0.65054 -6.60817,1.36957 l 1.1299,3.18424 c 1.36957,-0.6163 3.04729,-1.12989 5.03316,-1.12989 1.71196,0 2.94457,0.68478 2.94457,2.84185 v 0.85598 h -3.52664 c -4.04022,0 -6.33425,1.84892 -6.33425,4.96469 0,3.21848 2.25979,5.37555 5.61523,5.37555 2.3625,0 4.04023,-1.16413 4.89621,-2.32826 l 0.6163,1.98587 z m -4.31414,-3.83479 c -0.82174,0.65054 -1.91739,1.12989 -2.97881,1.12989 -1.67772,0 -2.49946,-0.92446 -2.49946,-2.46522 0,-1.26685 0.85598,-2.15707 2.7049,-2.15707 h 2.77337 z" /><path
         id="path1144"
         d="m 487.95757,266.41115 c 1.16413,0 2.46522,-0.27391 2.46522,-0.27391 v -3.15001 c -1.84891,0 -2.70489,-0.20543 -2.70489,-1.60924 v -18.93428 h -4.41686 v 19.17395 c 0,2.97881 1.23261,4.79349 4.65653,4.79349 z" /><path
         id="path1146"
         d="m 508.12933,248.94916 c -4.07447,0 -7.22447,3.18424 -7.22447,8.73099 0,5.99187 3.04729,8.731 6.84784,8.731 2.15707,0 3.76631,-1.16413 4.45109,-2.19131 l 0.51359,1.84892 h 3.62936 v -23.62505 h -4.4511 v 5.0674 c 0,1.26685 0.13696,2.12283 0.41087,3.08153 -0.92446,-1.02718 -2.3625,-1.64348 -4.17718,-1.64348 z m 3.76631,12.77122 c -0.85598,0.89022 -1.98587,1.43805 -3.11577,1.43805 -2.12283,0 -3.38968,-1.50653 -3.38968,-5.51251 0,-3.90327 1.33533,-5.34132 3.45816,-5.34132 1.30109,0 2.36251,0.41087 3.04729,0.82174 z" /><path
         id="path1148"
         d="m 534.92126,258.87853 v -1.95164 c 0,-4.21142 -1.98588,-7.97773 -7.05328,-7.97773 -5.37555,0 -7.87501,3.52664 -7.87501,8.69676 0,5.54675 3.08152,8.76523 8.25164,8.76523 2.63642,0 4.93045,-0.89022 6.33426,-1.64348 l -0.85598,-3.15001 c -1.47229,0.75327 -3.21849,1.40381 -4.93045,1.40381 -2.80761,0 -4.31414,-1.47229 -4.31414,-4.14294 z m -4.31414,-2.63642 h -6.12882 c 0,-1.98588 0.92446,-4.00599 3.15001,-4.00599 2.32826,0 2.97881,1.84892 2.97881,4.00599 z" /><path
         id="path1150"
         d="m 366.00618,301.33513 v -23.11146 h -4.48534 v 23.11146 z" /><path
         id="path1152"
         d="m 386.02677,301.33513 v -10.37447 c 0,-4.24566 -1.67772,-6.74513 -5.92338,-6.74513 -2.49946,0 -4.34838,1.1299 -5.30707,2.25979 l -0.68479,-1.91739 H 371.03 v 16.7772 h 4.48534 v -12.6685 c 0.7875,-0.51359 1.78044,-1.02718 2.94457,-1.02718 2.05435,0 3.01305,1.19838 3.01305,3.73208 v 9.9636 z" /><path
         id="path1154"
         d="m 400.70445,300.54763 -0.68478,-3.28696 c -0.68479,0.34239 -1.64348,0.61631 -2.56794,0.61631 -1.19838,0 -1.78044,-0.75327 -1.78044,-1.9174 v -8.21741 h 4.48533 v -3.18424 h -4.48533 v -4.34838 l -4.41686,1.43804 v 2.91034 h -2.49946 v 3.18424 h 2.49946 v 8.32013 c 0,4.21142 1.95164,5.61523 4.93045,5.61523 1.78043,0 3.52663,-0.54783 4.51957,-1.1299 z" /><path
         id="path1156"
         d="m 417.23693,294.1449 v -1.95163 c 0,-4.21142 -1.98587,-7.97774 -7.05327,-7.97774 -5.37556,0 -7.87502,3.52664 -7.87502,8.69676 0,5.54675 3.08153,8.76524 8.25165,8.76524 2.63642,0 4.93044,-0.89022 6.33425,-1.64348 l -0.85598,-3.15001 c -1.47229,0.75326 -3.21849,1.40381 -4.93045,1.40381 -2.80761,0 -4.31414,-1.47229 -4.31414,-4.14295 z m -4.31414,-2.63642 h -6.12882 c 0,-1.98587 0.92446,-4.00598 3.15001,-4.00598 2.32827,0 2.97881,1.84891 2.97881,4.00598 z" /><path
         id="path1158"
         d="m 425.57019,301.67753 c 1.16413,0 2.46522,-0.27392 2.46522,-0.27392 v -3.15 c -1.84891,0 -2.70489,-0.20544 -2.70489,-1.60925 v -18.93427 h -4.41686 v 19.17395 c 0,2.97881 1.23261,4.79349 4.65653,4.79349 z" /><path
         id="path1160"
         d="m 437.06362,301.33513 v -16.7772 h -6.40273 v 2.80761 l 1.95164,0.41087 v 13.55872 z m -4.58805,-19.55058 h 4.51958 v -4.07446 h -4.51958 z" /><path
         id="path1162"
         d="m 448.11675,284.21553 c -2.70489,0 -6.91631,1.26685 -6.91631,5.71795 0,2.39674 1.33532,3.80055 3.01304,4.72501 -1.88315,0.13696 -3.18424,1.16413 -3.18424,2.56794 0,1.95164 2.08859,2.60218 4.17718,2.84185 -2.73913,0.41087 -4.45109,1.54077 -4.45109,3.69784 0,3.08153 3.56087,4.62229 7.08751,4.62229 4.21142,0 7.97773,-2.15707 7.97773,-6.09458 0,-6.30001 -10.64839,-4.17718 -10.64839,-5.99186 0,-0.44511 0.30816,-0.75326 0.82174,-0.92446 0.71903,0.1712 1.50653,0.30816 2.15707,0.30816 2.84186,0 6.91632,-1.64349 6.91632,-5.75219 -0.13696,-1.09565 -0.92446,-1.95163 -1.67772,-2.63642 1.12989,0.37663 2.36251,0.54783 3.15001,0.58207 l 0.0685,-3.3212 c -2.91034,-0.0342 -6.67665,-0.3424 -8.49133,-0.3424 z m 3.28697,18.38646 c 0,1.74619 -1.33533,2.77337 -3.35544,2.77337 -1.81468,0 -3.15001,-1.06141 -3.15001,-2.5337 0,-1.43805 0.99294,-2.32827 2.56794,-2.46522 2.63642,0.20543 3.93751,0.75326 3.93751,2.22555 z m -3.28697,-10.06633 c -1.4038,0 -3.01305,-0.51359 -3.01305,-2.63642 0,-1.98587 1.71196,-2.49946 3.01305,-2.49946 1.30109,0 2.97881,0.51359 2.97881,2.49946 0,2.12283 -1.60924,2.63642 -2.97881,2.63642 z" /><path
         id="path1164"
         d="m 474.07197,294.1449 v -1.95163 c 0,-4.21142 -1.98588,-7.97774 -7.05328,-7.97774 -5.37555,0 -7.87501,3.52664 -7.87501,8.69676 0,5.54675 3.08152,8.76524 8.25164,8.76524 2.63642,0 4.93045,-0.89022 6.33426,-1.64348 l -0.85598,-3.15001 c -1.47229,0.75326 -3.21849,1.40381 -4.93045,1.40381 -2.80761,0 -4.31414,-1.47229 -4.31414,-4.14295 z m -4.31414,-2.63642 h -6.12882 c 0,-1.98587 0.92446,-4.00598 3.15001,-4.00598 2.32826,0 2.97881,1.84891 2.97881,4.00598 z" /><path
         id="path1166"
         d="m 492.67699,301.33513 v -10.37447 c 0,-4.24566 -1.67772,-6.74513 -5.92338,-6.74513 -2.49946,0 -4.34838,1.1299 -5.30707,2.25979 l -0.68479,-1.91739 h -3.08153 v 16.7772 h 4.48534 v -12.6685 c 0.7875,-0.51359 1.78044,-1.02718 2.94457,-1.02718 2.05435,0 3.01305,1.19838 3.01305,3.73208 v 9.9636 z" /><path
         id="path1168"
         d="m 509.16935,297.021 c -1.09565,0.6163 -2.80761,1.26685 -4.55381,1.26685 -2.43099,0 -3.83479,-1.54077 -3.83479,-5.34132 0,-3.76631 1.47228,-5.34131 3.80055,-5.34131 1.47228,0 3.01305,0.30815 4.21142,1.02717 l 1.16413,-3.04729 c -1.60924,-0.92446 -3.52663,-1.36957 -5.75218,-1.36957 -4.96469,0 -7.97774,3.25273 -7.97774,8.731 0,5.88914 3.01305,8.731 8.01198,8.731 2.5337,0 4.79348,-0.9587 5.75218,-1.47229 z" /><path
         id="path1170"
         d="m 519.04123,301.33513 v -16.7772 h -6.40273 v 2.80761 l 1.95164,0.41087 v 13.55872 z m -4.58805,-19.55058 h 4.51957 v -4.07446 h -4.51957 z" /><path
         id="path1172"
         d="m 536.77101,301.33513 v -10.64839 c 0,-4.2799 -2.05435,-6.47121 -6.8136,-6.47121 -2.63642,0 -4.93044,0.65055 -6.60816,1.36957 l 1.12989,3.18425 c 1.36957,-0.61631 3.04729,-1.1299 5.03316,-1.1299 1.71196,0 2.94457,0.68479 2.94457,2.84186 v 0.85598 h -3.52663 c -4.04023,0 -6.33426,1.84891 -6.33426,4.96468 0,3.21849 2.25979,5.37556 5.61523,5.37556 2.36251,0 4.04023,-1.16414 4.89621,-2.32827 l 0.6163,1.98587 z m -4.31414,-3.83479 c -0.82174,0.65055 -1.91739,1.1299 -2.97881,1.1299 -1.67772,0 -2.49946,-0.92446 -2.49946,-2.46522 0,-1.26686 0.85598,-2.15707 2.7049,-2.15707 h 2.77337 z" /></g></g></svg>
