<svg xmlns="http://www.w3.org/2000/svg" viewBox="0 0 16 16" id="Telegram--Streamline-Font-Awesome" height="16" width="16">
  <desc>
    Telegram Streamline Icon: https://streamlinehq.com
  </desc>
<!--! Font Awesome Free 6.5.2 by @fontawesome - https://fontawesome.com License - https://fontawesome.com/license/free (Icons: CC BY 4.0, Fonts: SIL OFL 1.1, Code: MIT License) Copyright 2024 Fonticons, Inc.-->
  <path d="M8 0.16C3.670074193548387 0.16 0.16 3.670074193548387 0.16 8S3.670074193548387 15.84 8 15.84 15.84 12.329925806451614 15.84 8 12.329925806451614 0.16 8 0.16Zm3.633967741935484 5.331832258064516c-0.11798064516129032 1.2397 -0.6284967741935483 4.248077419354839 -0.8883225806451612 5.63658064516129 -0.10988709677419355 0.5874935483870968 -0.32630967741935485 0.7845064516129032 -0.5357774193548387 0.803758064516129 -0.45522580645161287 0.04191935483870968 -0.8010064516129032 -0.30086129032258063 -1.241974193548387 -0.5899290322580645 -0.6900161290322581 -0.4523161290322581 -1.0798354838709676 -0.7338935483870968 -1.749648387096774 -1.1752709677419355 -0.7740419354838709 -0.5100741935483871 -0.2722516129032258 -0.7903225806451613 0.1688741935483871 -1.248709677419355 0.11545161290322581 -0.11990967741935483 2.121448387096774 -1.9445096774193549 2.160267741935484 -2.1100354838709676 0.004838709677419354 -0.020706451612903225 0.009483870967741935 -0.09799999999999999 -0.03648064516129032 -0.13859032258064513s-0.11349032258064516 -0.026841935483870965 -0.16233225806451612 -0.015806451612903224q-0.10378387096774193 0.023580645161290322 -3.3069612903225805 2.1857774193548387 -0.46929354838709675 0.32226129032258066 -0.8501967741935484 0.314041935483871c-0.2799322580645161 -0.006035483870967741 -0.8183967741935484 -0.1582516129032258 -1.2187096774193549 -0.2884032258064516 -0.4909806451612903 -0.1595806451612903 -0.8812096774193547 -0.24395806451612903 -0.8472258064516128 -0.5150064516129031q0.02655483870967742 -0.2118064516129032 0.583258064516129 -0.43309677419354836 3.4282935483870967 -1.4936451612903225 4.572109677419355 -1.969483870967742c2.1772451612903225 -0.9056129032258065 2.629658064516129 -1.0629193548387097 2.924541935483871 -1.0681677419354838 0.06487096774193549 -0.0010741935483870968 0.2098774193548387 0.014983870967741935 0.30379999999999996 0.09120322580645161 0.06247741935483871 0.054293548387096775 0.10230322580645161 0.13006129032258065 0.11159354838709677 0.21231290322580643 0.015916129032258065 0.1021258064516129 0.020338709677419353 0.20571290322580646 0.013183870967741936 0.3088258064516129Z" fill="#000000" stroke-width="0.0323"></path>
</svg>