<svg xmlns="http://www.w3.org/2000/svg" viewBox="0 0 16 16" id="Whatsapp--Streamline-Font-Awesome" height="16" width="16">
  <desc>
    Whatsapp Streamline Icon: https://streamlinehq.com
  </desc>
<!--! Font Awesome Free 6.5.2 by @fontawesome - https://fontawesome.com License - https://fontawesome.com/license/free (Icons: CC BY 4.0, Fonts: SIL OFL 1.1, Code: MIT License) Copyright 2024 Fonticons, Inc.-->
  <path d="M13.491499999999998 2.4385C12.024999999999999 0.9684999999999999 10.072000000000001 0.16 7.996499999999999 0.16c-4.284 0 -7.77 3.4859999999999998 -7.77 7.77 0 1.3684999999999998 0.357 2.7055000000000002 1.0359999999999998 3.885L0.16 15.839999999999998l4.1194999999999995 -1.0815c1.134 0.6194999999999999 2.4115 0.945 3.7135 0.945h0.0035c4.2805 0 7.8435 -3.4859999999999998 7.8435 -7.77 0 -2.0755 -0.882 -4.0249999999999995 -2.3484999999999996 -5.495Zm-5.495 11.955999999999998c-1.162 0 -2.2994999999999997 -0.31149999999999994 -3.29 -0.8995l-0.2345 -0.13999999999999999 -2.4429999999999996 0.6405 0.651 -2.3834999999999997 -0.154 -0.245c-0.6475 -1.029 -0.9869999999999999 -2.2155 -0.9869999999999999 -3.437 0 -3.5595 2.898 -6.4575 6.460999999999999 -6.4575 1.7254999999999998 0 3.346 0.6719999999999999 4.564 1.8935s1.9669999999999999 2.8419999999999996 1.9635 4.5675c0 3.5629999999999997 -2.9715 6.460999999999999 -6.531 6.460999999999999Zm3.542 -4.837c-0.19249999999999998 -0.098 -1.148 -0.567 -1.3265 -0.63 -0.1785 -0.0665 -0.308 -0.098 -0.4375 0.098 -0.12949999999999998 0.196 -0.5005 0.63 -0.616 0.763 -0.112 0.12949999999999998 -0.22749999999999998 0.147 -0.42 0.049 -1.141 -0.5705 -1.89 -1.0185 -2.6424999999999996 -2.31 -0.1995 -0.34299999999999997 0.1995 -0.31849999999999995 0.5705 -1.0605 0.063 -0.12949999999999998 0.0315 -0.24149999999999996 -0.017499999999999998 -0.33949999999999997 -0.049 -0.098 -0.4375 -1.0534999999999999 -0.5984999999999999 -1.4419999999999997 -0.1575 -0.37799999999999995 -0.31849999999999995 -0.3255 -0.4375 -0.3325 -0.112 -0.007 -0.24149999999999996 -0.007 -0.371 -0.007 -0.12949999999999998 0 -0.33949999999999997 0.049 -0.5179999999999999 0.24149999999999996 -0.1785 0.196 -0.6789999999999999 0.665 -0.6789999999999999 1.6205s0.6964999999999999 1.8794999999999997 0.7909999999999999 2.009c0.098 0.12949999999999998 1.3684999999999998 2.0894999999999997 3.3179999999999996 2.933 1.232 0.532 1.715 0.5775 2.331 0.4865 0.3745 -0.056 1.148 -0.469 1.309 -0.9239999999999999 0.161 -0.45499999999999996 0.161 -0.8434999999999999 0.112 -0.9239999999999999 -0.0455 -0.08750000000000001 -0.17500000000000002 -0.13649999999999998 -0.36749999999999994 -0.23099999999999998Z" fill="#000000" stroke-width="0.0357"></path>
</svg>