<svg xmlns="http://www.w3.org/2000/svg" viewBox="0 0 16 16" fill="#000000" id="X-Logo-Bold--Streamline-Phosphor" height="16" width="16">
  <desc>
    X Logo Bold Streamline Icon: https://streamlinehq.com
  </desc>
  <path d="m15.06565625 14.38670625 -4.77985 -7.5067125 4.67955 -5.14734375c0.48035625 -0.5414875 0.19440625 -1.3999125 -0.5147125 -1.545175 -0.32121875 -0.06579375 -0.6535125 0.04048125 -0.876925 0.280475l-4.33085625 4.76730625 -2.95331875 -4.6395875C6.11705 0.3244625 5.817975 0.16015 5.49655625 0.16H1.7353625c-0.72384375 0.0003375 -1.17588125 0.784125 -0.81366875 1.410825 0.00665 0.0115125 0.01355 0.02288125 0.0206875 0.0341l4.77984375 7.5067125 -4.68268125 5.14735c-0.4932125 0.5298 -0.22794375 1.39484375 0.4774875 1.557075 0.33525625 0.0771 0.6858625 -0.03503125 0.91415 -0.292375l4.33399375 -4.7673125 2.95331875 4.6395875c0.17249375 0.27120625 0.47156875 0.435525 0.7929875 0.43566875h3.7611875c0.72384375 -0.00033125 1.17588125 -0.784125 0.813675 -1.41081875 -0.00665625 -0.0115125 -0.01355625 -0.02288125 -0.0206875 -0.03410625Zm-4.0378 -0.43566875L3.448275 2.04059375h1.5319l7.5795875 11.91044375Z" stroke-width="0.0625"></path>
</svg>