<?xml version="1.0" encoding="UTF-8"?>
<svg version="1.1" xmlns="http://www.w3.org/2000/svg" width="225" height="225">
<path d="M0 0 C5.06936275 4.36462658 8.53339695 7.70537064 10.44921875 14.2421875 C11.99640138 17.2322861 13.56628432 20.19526093 15.234375 23.11914062 C16.89406157 26.23702918 17.59717262 27.69751417 16.65234375 31.17578125 C16.2553125 31.85769531 15.85828125 32.53960937 15.44921875 33.2421875 C16.76921875 33.2421875 18.08921875 33.2421875 19.44921875 33.2421875 C21.1819858 38.48862108 21.77145296 43.04433803 21.69921875 48.5546875 C21.69245117 49.30306885 21.68568359 50.0514502 21.67871094 50.82250977 C21.43157485 64.09745362 17.41243492 76.49283367 9.44921875 87.2421875 C6.38671875 89.6171875 6.38671875 89.6171875 3.44921875 91.2421875 C2.64484375 91.9640625 1.84046875 92.6859375 1.01171875 93.4296875 C-2.1821403 95.68875854 -4.70707476 95.76172419 -8.55078125 96.2421875 C-10.24070104 97.2023692 -11.91287413 98.19574684 -13.55078125 99.2421875 C-14.54078125 99.2421875 -15.53078125 99.2421875 -16.55078125 99.2421875 C-15.23852316 95.30541324 -13.35464185 94.4150093 -9.98828125 92.0546875 C-8.97636719 91.33925781 -7.96445313 90.62382812 -6.921875 89.88671875 C-6.13941406 89.34402344 -5.35695313 88.80132812 -4.55078125 88.2421875 C-7.62824033 89.45683967 -10.61254929 90.71865982 -13.55078125 92.2421875 C-12.07059572 88.83467707 -10.10582749 86.54434992 -7.55078125 83.8671875 C-4.37551145 80.37838119 -2.84131504 77.80869167 -1.55078125 73.2421875 C-0.74640625 72.2521875 0.05796875 71.2621875 0.88671875 70.2421875 C7.63890473 61.1327295 6.85801192 48.05249574 6.44921875 37.2421875 C7.10921875 37.2421875 7.76921875 37.2421875 8.44921875 37.2421875 C7.45921875 34.6021875 6.46921875 31.9621875 5.44921875 29.2421875 C5.11921875 30.2321875 4.78921875 31.2221875 4.44921875 32.2421875 C3.45921875 32.2421875 2.46921875 32.2421875 1.44921875 32.2421875 C1.32546875 31.3346875 1.20171875 30.4271875 1.07421875 29.4921875 C-0.02353655 23.78385994 -2.30801973 21.20209825 -6.55078125 17.2421875 C-7.03289062 16.75492188 -7.515 16.26765625 -8.01171875 15.765625 C-17.25174882 6.9763281 -29.2982506 4.72337659 -41.625 4.96484375 C-52.52391782 5.73481705 -61.09935633 10.55142653 -69.23828125 17.5546875 C-78.75951475 28.61990481 -80.46920109 38.9112245 -79.74609375 53.11425781 C-78.97937083 61.46770402 -75.28798289 67.37459491 -69.55078125 73.2421875 C-69.55078125 72.5821875 -69.55078125 71.9221875 -69.55078125 71.2421875 C-69.55078125 70.2521875 -69.55078125 69.2621875 -69.55078125 68.2421875 C-69.04289062 68.64050781 -68.535 69.03882813 -68.01171875 69.44921875 C-62.37580271 73.78697435 -57.707939 76.98914057 -50.55078125 77.9921875 C-43.29263921 79.17026282 -36.7131694 82.26807596 -30.55078125 86.2421875 C-27.75197942 90.20649604 -27.94193804 94.57438959 -28.55078125 99.2421875 C-30.02688908 102.9676025 -31.39320502 104.63700514 -34.94921875 106.49609375 C-46.95124397 111.32043722 -59.14062252 109.23007721 -70.8828125 104.25390625 C-73.50034841 102.66622053 -75.41833355 100.42540777 -77.55078125 98.2421875 C-78.94296875 97.1903125 -78.94296875 97.1903125 -80.36328125 96.1171875 C-85.01817947 92.29993163 -88.20263965 87.18404449 -91.55078125 82.2421875 C-92.1128125 81.43523437 -92.67484375 80.62828125 -93.25390625 79.796875 C-101.95068137 66.48817368 -103.45248885 51.07646248 -100.97265625 35.64453125 C-100.29238136 32.78231082 -99.48987384 30.02889016 -98.55078125 27.2421875 C-98.34582031 26.54351562 -98.14085937 25.84484375 -97.9296875 25.125 C-93.28045621 10.74414795 -82.5083206 0.32564234 -69.55078125 -6.7578125 C-46.37267442 -17.96155212 -20.44001624 -16.482226 0 0 Z M-0.55078125 8.2421875 C1.09921875 10.2221875 2.74921875 12.2021875 4.44921875 14.2421875 C4.76505523 11.26701177 4.76505523 11.26701177 3.07421875 9.5546875 C1.53804617 8.0327418 1.53804617 8.0327418 -0.55078125 8.2421875 Z M5.44921875 14.2421875 C5.72507812 14.78359375 6.0009375 15.325 6.28515625 15.8828125 C7.60662744 18.56123062 8.84322251 21.27103791 10.07421875 23.9921875 C10.52023438 24.97703125 10.96625 25.961875 11.42578125 26.9765625 C11.76351562 27.72421875 12.10125 28.471875 12.44921875 29.2421875 C13.10921875 29.2421875 13.76921875 29.2421875 14.44921875 29.2421875 C12.77428743 23.11438999 10.9095822 18.81992894 6.44921875 14.2421875 C6.11921875 14.2421875 5.78921875 14.2421875 5.44921875 14.2421875 Z M8.44921875 39.2421875 C9.44921875 42.2421875 9.44921875 42.2421875 9.44921875 42.2421875 Z M12.44921875 57.2421875 C13.44921875 59.2421875 13.44921875 59.2421875 13.44921875 59.2421875 Z " fill="#141615" transform="translate(152.55078125,64.7578125)"/>
<path d="M0 0 C0.78375 0.825 1.5675 1.65 2.375 2.5 C4.63721264 5.22988506 4.63721264 5.22988506 7 5 C7 3.35 7 1.7 7 0 C10 1 10 1 11.6875 3.875 C13 7 13 7 13 10 C13.99 10.33 14.98 10.66 16 11 C16 11.99 16 12.98 16 14 C17.32 14 18.64 14 20 14 C21.73276705 19.24643358 22.32223421 23.80215053 22.25 29.3125 C22.23984863 30.43507202 22.23984863 30.43507202 22.22949219 31.58032227 C21.9823561 44.85526612 17.96321617 57.25064617 10 68 C6.9375 70.375 6.9375 70.375 4 72 C2.7934375 73.0828125 2.7934375 73.0828125 1.5625 74.1875 C-1.63135905 76.44657104 -4.15629351 76.51953669 -8 77 C-9.68991979 77.9601817 -11.36209288 78.95355934 -13 80 C-13.99 80 -14.98 80 -16 80 C-14.68774191 76.06322574 -12.8038606 75.1728218 -9.4375 72.8125 C-8.42558594 72.09707031 -7.41367188 71.38164062 -6.37109375 70.64453125 C-5.58863281 70.10183594 -4.80617187 69.55914062 -4 69 C-7.07745908 70.21465217 -10.06176804 71.47647232 -13 73 C-11.51981447 69.59248957 -9.55504624 67.30216242 -7 64.625 C-3.8247302 61.13619369 -2.29053379 58.56650417 -1 54 C-0.195625 53.01 0.60875 52.02 1.4375 51 C8.18968598 41.890542 7.40879317 28.81030824 7 18 C7.66 18 8.32 18 9 18 C8.01 15.36 7.02 12.72 6 10 C5.67 10.99 5.34 11.98 5 13 C4.01 13 3.02 13 2 13 C1.87625 12.0925 1.7525 11.185 1.625 10.25 C1.07375879 7.38354573 0.42706403 5.49736205 -1 3 C-1.33 2.34 -1.66 1.68 -2 1 C-1.34 0.67 -0.68 0.34 0 0 Z M9 20 C10 23 10 23 10 23 Z M13 38 C14 40 14 40 14 40 Z " fill="#434343" transform="translate(152,84)"/>
<path d="M0 0 C21.17865798 -0.72566468 37.074406 4.90114021 52.70703125 19.2890625 C55.19244911 22.22752927 55.94182397 24.33532111 57 28 C58.12197571 30.50247432 59.37230403 32.93580744 60.625 35.375 C61.11226562 36.33599609 61.11226562 36.33599609 61.609375 37.31640625 C62.40257407 38.87947501 63.20077031 40.44000622 64 42 C63.01 42.99 63.01 42.99 62 44 C61.36384766 42.7315625 61.36384766 42.7315625 60.71484375 41.4375 C55.57412693 31.3254107 55.57412693 31.3254107 48 23 C46.67491033 22.63527235 45.34072277 22.30224386 44 22 C42.078125 20.80859375 42.078125 20.80859375 40.25 19.4375 C39.63640625 18.98246094 39.0228125 18.52742188 38.390625 18.05859375 C37.93171875 17.70925781 37.4728125 17.35992187 37 17 C37.33 16.34 37.66 15.68 38 15 C21.11101275 7.26124215 7.52948752 5.65273774 -11 9 C-6.29899297 4.29899297 1.1634678 4.61767006 7.4375 4.375 C8.26443359 4.33632813 9.09136719 4.29765625 9.94335938 4.2578125 C11.96191073 4.16446908 13.98092331 4.08119039 16 4 C16 3.34 16 2.68 16 2 C10.72 2 5.44 2 0 2 C0 1.34 0 0.68 0 0 Z " fill="#696969" transform="translate(106,51)"/>
<path d="M0 0 C0.78375 0.825 1.5675 1.65 2.375 2.5 C4.63721264 5.22988506 4.63721264 5.22988506 7 5 C7 3.35 7 1.7 7 0 C10 1 10 1 11.6875 3.875 C13 7 13 7 13 10 C13.99 10.33 14.98 10.66 16 11 C15.34 12.32 14.68 13.64 14 15 C12.68 15 11.36 15 10 15 C10.16371094 15.66386719 10.32742187 16.32773438 10.49609375 17.01171875 C11.10603857 20.62883337 11.10795513 24.15860708 11.0625 27.8125 C11.05798828 28.50537109 11.05347656 29.19824219 11.04882812 29.91210938 C11.03713156 31.60811068 11.01919924 33.30406703 11 35 C11.99 35.33 12.98 35.66 14 36 C14.52825007 42.86725091 12.36492195 50.58749678 8 56 C6.68 56 5.36 56 4 56 C0.78170896 57.92293518 0.78170896 57.92293518 -2 60 C-2.33 59.34 -2.66 58.68 -3 58 C-1.97780978 56.37652142 -0.87893978 54.80114491 0.25 53.25 C7.32199994 42.40908991 7.47339256 30.51860323 7 18 C7.66 18 8.32 18 9 18 C8.01 15.36 7.02 12.72 6 10 C5.67 10.99 5.34 11.98 5 13 C4.01 13 3.02 13 2 13 C1.87625 12.0925 1.7525 11.185 1.625 10.25 C1.07375879 7.38354573 0.42706403 5.49736205 -1 3 C-1.33 2.34 -1.66 1.68 -2 1 C-1.34 0.67 -0.68 0.34 0 0 Z M9 20 C10 23 10 23 10 23 Z " fill="#3F3F3F" transform="translate(152,84)"/>
<path d="M0 0 C2.07433715 10.77914482 4.1452629 22.7094742 -1 33 C-0.34 33.33 0.32 33.66 1 34 C0.360625 34.78375 -0.27875 35.5675 -0.9375 36.375 C-2.98142313 38.79539281 -2.98142313 38.79539281 -4 41 C-4.99 40.67 -5.98 40.34 -7 40 C-6.71125 39.27554688 -6.4225 38.55109375 -6.125 37.8046875 C-3.29906874 30.63111008 -3.29906874 30.63111008 -3 23 C-3.66 22.67 -4.32 22.34 -5 22 C-5.25422542 18.7097621 -5.47409878 15.41811775 -5.6875 12.125 C-5.76033203 11.18785156 -5.83316406 10.25070313 -5.90820312 9.28515625 C-5.96298828 8.38925781 -6.01777344 7.49335937 -6.07421875 6.5703125 C-6.13182373 5.74289551 -6.18942871 4.91547852 -6.2487793 4.06298828 C-6.16668213 3.38220215 -6.08458496 2.70141602 -6 2 C-3 0 -3 0 0 0 Z " fill="#0A0A0A" transform="translate(168,97)"/>
<path d="M0 0 C8.07603902 2.82661366 15.10246282 9.0486569 20 16 C20.19722656 16.85078125 20.19722656 16.85078125 20.3984375 17.71875 C21.29569687 21.12134398 22.96356933 24.13445985 24.5625 27.25 C24.89185547 27.8996875 25.22121094 28.549375 25.56054688 29.21875 C26.37007565 30.81434294 27.18455042 32.40742483 28 34 C27.34 34.66 26.68 35.32 26 36 C25.57589844 35.154375 25.15179688 34.30875 24.71484375 33.4375 C19.57412693 23.3254107 19.57412693 23.3254107 12 15 C10.67491033 14.63527235 9.34072277 14.30224386 8 14 C6.078125 12.80859375 6.078125 12.80859375 4.25 11.4375 C3.63640625 10.98246094 3.0228125 10.52742188 2.390625 10.05859375 C1.93171875 9.70925781 1.4728125 9.35992187 1 9 C1.33 8.01 1.66 7.02 2 6 C2.99 6 3.98 6 5 6 C3.02 4.68 1.04 3.36 -1 2 C-0.67 1.34 -0.34 0.68 0 0 Z " fill="#535353" transform="translate(142,59)"/>
<path d="M0 0 C1.32 0 2.64 0 4 0 C5.73291692 5.24688734 6.32102454 9.80186785 6.25 15.3125 C6.24468262 16.05798096 6.23936523 16.80346191 6.23388672 17.5715332 C6.09875452 25.44939845 4.72850317 32.59406281 2 40 C1.67 40 1.34 40 1 40 C0.855625 38.906875 0.71125 37.81375 0.5625 36.6875 C0.11711896 33.06877013 0.11711896 33.06877013 -1 30 C-0.66015625 28.08984375 -0.66015625 28.08984375 -0.0625 25.9375 C1.99425281 17.33527035 0.92716079 8.70868881 0 0 Z " fill="#444444" transform="translate(168,98)"/>
<path d="M0 0 C3.93963916 1.35033569 6.55309937 3.07756471 9.625 5.875 C10.38039062 6.55304688 11.13578125 7.23109375 11.9140625 7.9296875 C13.87398197 9.87492593 15.55863731 11.64356166 17 14 C16.375 17.1875 16.375 17.1875 15 20 C14.01 20.33 13.02 20.66 12 21 C11.1028125 19.7934375 11.1028125 19.7934375 10.1875 18.5625 C8.19052724 15.77672016 8.19052724 15.77672016 5 15 C2.94430412 12.89912399 1.33214238 10.61988002 0 8 C0.25 5.25 0.25 5.25 1 3 C0.67 2.01 0.34 1.02 0 0 Z " fill="#111111" transform="translate(144,69)"/>
<path d="M0 0 C-3.77626181 2.36636293 -7.64715522 4.25187263 -11.6875 6.125 C-24.87764534 12.54383547 -35.05315955 23.61960899 -41 37 C-41.66 37 -42.32 37 -43 37 C-42.1371602 27.74534729 -34.61749971 18.76171237 -27.92578125 12.546875 C-21.41413307 7.31642332 -8.59018561 -2.8633952 0 0 Z " fill="#B0B1B1" transform="translate(98,54)"/>
<path d="M0 0 C0.78375 0.825 1.5675 1.65 2.375 2.5 C4.63721264 5.22988506 4.63721264 5.22988506 7 5 C7 3.35 7 1.7 7 0 C10 1 10 1 11.6875 3.875 C13 7 13 7 13 10 C13.99 10.33 14.98 10.66 16 11 C15.34 12.32 14.68 13.64 14 15 C12.68 15 11.36 15 10 15 C9.67 15.66 9.34 16.32 9 17 C8.01 14.69 7.02 12.38 6 10 C5.67 10.99 5.34 11.98 5 13 C4.01 13 3.02 13 2 13 C1.814375 11.63875 1.814375 11.63875 1.625 10.25 C1.07375879 7.38354573 0.42706403 5.49736205 -1 3 C-1.33 2.34 -1.66 1.68 -2 1 C-1.34 0.67 -0.68 0.34 0 0 Z " fill="#3B3B3B" transform="translate(152,84)"/>
<path d="M0 0 C0.66 0.33 1.32 0.66 2 1 C1.67 1.66 1.34 2.32 1 3 C2.98 3 4.96 3 7 3 C7 3.66 7 4.32 7 5 C2.07817352 9.83254164 -2.04065601 12.46466585 -9 13 C-10.68991979 13.9601817 -12.36209288 14.95355934 -14 16 C-14.99 16 -15.98 16 -17 16 C-15.7138439 12.14153169 -14.07041488 11.40667547 -10.75 9.125 C-6.77100531 6.32055901 -3.26404293 3.60170254 0 0 Z " fill="#626262" transform="translate(153,148)"/>
<path d="M0 0 C0.33 0.99 0.66 1.98 1 3 C-3.44496038 10.97074685 -9.86179282 15.31985484 -18 19 C-14.35692911 10.86748821 -7.23467544 4.90649531 0 0 Z " fill="#202020" transform="translate(157,138)"/>
<path d="M0 0 C0.33 0.99 0.66 1.98 1 3 C0.01 4.485 0.01 4.485 -1 6 C-0.01 6.99 0.98 7.98 2 9 C1.34 10.65 0.68 12.3 0 14 C-1.32 14 -2.64 14 -4 14 C-7.21829104 15.92293518 -7.21829104 15.92293518 -10 18 C-10.33 17.34 -10.66 16.68 -11 16 C-9.63671875 13.5390625 -9.63671875 13.5390625 -7.6875 10.625 C-5.10593127 6.77406422 -5.10593127 6.77406422 -2.89453125 2.7109375 C-2 1 -2 1 0 0 Z " fill="#808080" transform="translate(160,126)"/>
<path d="M0 0 C8.22039068 2.87713674 14.83744964 9.11659952 20 16 C19.67 16.66 19.34 17.32 19 18 C18.39414063 17.43152344 17.78828125 16.86304687 17.1640625 16.27734375 C11.4167727 10.98099515 5.51681962 6.31219341 -1 2 C-0.67 1.34 -0.34 0.68 0 0 Z " fill="#8F8F8F" transform="translate(142,59)"/>
<path d="M0 0 C0.49230769 7.26153846 0.49230769 7.26153846 -2 11 C-2.66 11.66 -3.32 12.32 -4 13 C-4 12.34 -4 11.68 -4 11 C-4.66 11 -5.32 11 -6 11 C-6.33 10.34 -6.66 9.68 -7 9 C-7.99 9.66 -8.98 10.32 -10 11 C-9.67 9.35 -9.34 7.7 -9 6 C-7.68 6 -6.36 6 -5 6 C-4.814375 4.7934375 -4.814375 4.7934375 -4.625 3.5625 C-4.41875 2.716875 -4.2125 1.87125 -4 1 C-2 0 -2 0 0 0 Z " fill="#1E1E1E" transform="translate(169,132)"/>
<path d="M0 0 C3 2 3 2 3.75 4.9375 C4 8 4 8 3 11 C4.87197454 13.69433317 4.87197454 13.69433317 7 16 C3.0701312 14.3373632 0.04296817 11.9738098 -3 9 C-3.375 6.1875 -3.375 6.1875 -3 4 C-2.34 4 -1.68 4 -1 4 C-0.67 2.68 -0.34 1.36 0 0 Z " fill="#2E2E2E" transform="translate(142,67)"/>
<path d="M0 0 C3.33355357 1.37940148 5.36343728 2.72687457 7 6 C6.375 9.1875 6.375 9.1875 5 12 C4.01 12.33 3.02 12.66 2 13 C-1 8.25 -1 8.25 -1 6 C-0.34 6 0.32 6 1 6 C0.67 4.02 0.34 2.04 0 0 Z " fill="#1C1C1C" transform="translate(154,77)"/>
<path d="M0 0 C0.99 0 1.98 0 3 0 C0.94169479 4.36360704 -1.72363456 8.302555 -4.34375 12.34375 C-5.70425378 14.52569003 -6.90452955 16.67760265 -8 19 C-8.66 19 -9.32 19 -10 19 C-9.5401608 13.78320357 -7.60887098 10.29864232 -4.625 6.125 C-4.22539063 5.53203125 -3.82578125 4.9390625 -3.4140625 4.328125 C-2.2265625 2.6328125 -2.2265625 2.6328125 0 0 Z " fill="#B3B3B3" transform="translate(65,72)"/>
<path d="M0 0 C1.32 0 2.64 0 4 0 C5.125 5.625 5.125 5.625 4 9 C3.77439324 11.39254576 3.59151405 13.78928123 3.4375 16.1875 C3.35371094 17.45980469 3.26992187 18.73210937 3.18359375 20.04296875 C3.12300781 21.01878906 3.06242188 21.99460937 3 23 C2.67 23 2.34 23 2 23 C1.34 15.41 0.68 7.82 0 0 Z " fill="#B1B1B1" transform="translate(168,98)"/>
<path d="M0 0 C4 2.66666667 8 5.33333333 12 8 C11.01 8.99 10.02 9.98 9 11 C5.35729627 10.01548548 4.22218052 9.37294587 2.25 6.0625 C1.43543539 4.0668167 0.68163534 2.04490602 0 0 Z " fill="#484848" transform="translate(82,133)"/>
<path d="M0 0 C1.39456452 0.00667256 2.78911118 0.01863093 4.18359375 0.03515625 C4.89451172 0.03966797 5.60542969 0.04417969 6.33789062 0.04882812 C8.09899388 0.06064761 9.86005411 0.07858362 11.62109375 0.09765625 C11.62109375 0.75765625 11.62109375 1.41765625 11.62109375 2.09765625 C12.28109375 2.42765625 12.94109375 2.75765625 13.62109375 3.09765625 C11.18329745 3.1516296 8.7466969 3.19131241 6.30859375 3.22265625 C5.2731543 3.24779297 5.2731543 3.24779297 4.21679688 3.2734375 C0.44973979 3.30983419 -1.16322329 3.24144489 -4.37890625 1.09765625 C-3.37890625 0.09765625 -3.37890625 0.09765625 0 0 Z " fill="#0A0A0A" transform="translate(110.37890625,52.90234375)"/>
<path d="M0 0 C2.56695636 0.39491636 4.67123994 0.83561997 7 2 C6.67 3.65 6.34 5.3 6 7 C3.36 6.67 0.72 6.34 -2 6 C-1.125 1.125 -1.125 1.125 0 0 Z " fill="#252525" transform="translate(156,145)"/>
<path d="M0 0 C-0.99 3.63 -1.98 7.26 -3 11 C-4.32 10.67 -5.64 10.34 -7 10 C-6.93993922 8.54052295 -6.8511311 7.08220728 -6.75 5.625 C-6.70359375 4.81289062 -6.6571875 4.00078125 -6.609375 3.1640625 C-6 1 -6 1 -4.078125 -0.3515625 C-2 -1 -2 -1 0 0 Z " fill="#5D5D5D" transform="translate(166,124)"/>
<path d="M0 0 C0.66 0 1.32 0 2 0 C4.31 4.62 6.62 9.24 9 14 C8.34 14.66 7.68 15.32 7 16 C5.82558465 13.89983377 4.66035988 11.79541245 3.5 9.6875 C3.16613281 9.09259766 2.83226562 8.49769531 2.48828125 7.88476562 C0.93174886 5.04171156 0 3.29339012 0 0 Z " fill="#8B8B8B" transform="translate(161,79)"/>
<path d="M0 0 C-4.99527374 3.22275725 -10.94159175 7 -17 7 C-17 6.34 -17 5.68 -17 5 C-15.23002526 4.18563132 -13.45898848 3.3735706 -11.6875 2.5625 C-10.70136719 2.11003906 -9.71523437 1.65757813 -8.69921875 1.19140625 C-3.41843088 -1.13947696 -3.41843088 -1.13947696 0 0 Z " fill="#919292" transform="translate(98,54)"/>
<path d="M0 0 C2.6325634 2.45705917 4.84701619 4.54104856 6 8 C5.625 10.75 5.625 10.75 5 13 C4.01 13 3.02 13 2 13 C1.814375 11.63875 1.814375 11.63875 1.625 10.25 C1.07375879 7.38354573 0.42706403 5.49736205 -1 3 C-1.33 2.34 -1.66 1.68 -2 1 C-1.34 0.67 -0.68 0.34 0 0 Z " fill="#A8A8A8" transform="translate(152,84)"/>
<path d="M0 0 C0.33 1.98 0.66 3.96 1 6 C0.01 6 -0.98 6 -2 6 C-2 6.66 -2 7.32 -2 8 C-3.32 7.67 -4.64 7.34 -6 7 C-6.1875 4.625 -6.1875 4.625 -6 2 C-3 0 -3 0 0 0 Z " fill="#101010" transform="translate(168,97)"/>
<path d="M0 0 C0.66 0.33 1.32 0.66 2 1 C2.59355614 3.64860427 2.74209269 6.29197322 3 9 C-0.94139078 7.33248852 -3.7892812 4.77289351 -7 2 C-3.98968256 1.06576355 -3.13349732 0.95550089 0 2 C0 1.34 0 0.68 0 0 Z " fill="#383938" transform="translate(76,156)"/>
<path d="M0 0 C0 3 0 3 -2 6 C-1.34 6.66 -0.68 7.32 0 8 C-3.33333333 9.66666667 -6.66666667 11.33333333 -10 13 C-8.48446596 9.52224821 -6.4226544 7.0442016 -3.875 4.25 C-3.15054688 3.45078125 -2.42609375 2.6515625 -1.6796875 1.828125 C-0.84824219 0.92320312 -0.84824219 0.92320312 0 0 Z " fill="#909090" transform="translate(149,144)"/>
<path d="M0 0 C3.875 1.75 3.875 1.75 5 4 C5.99 4 6.98 4 8 4 C8.33 4.99 8.66 5.98 9 7 C7.02 7.99 7.02 7.99 5 9 C0 3.375 0 3.375 0 0 Z " fill="#222322" transform="translate(64,148)"/>
<path d="M0 0 C5.01113235 1.4317521 6.94469549 3.98445693 10 8 C9.01 8.33 8.02 8.66 7 9 C4.95703125 7.78515625 4.95703125 7.78515625 2.8125 6.0625 C2.09707031 5.49660156 1.38164062 4.93070312 0.64453125 4.34765625 C0.10183594 3.90292969 -0.44085938 3.45820312 -1 3 C-0.67 2.01 -0.34 1.02 0 0 Z " fill="#A3A3A3" transform="translate(144,65)"/>
<path d="M0 0 C0.33 0 0.66 0 1 0 C1.1799928 5.21979128 0.97094808 9.07262981 -1 14 C-1.33 14 -1.66 14 -2 14 C-3.41427618 4.63042028 -3.41427618 4.63042028 -1.5625 1.8125 C-1.046875 1.214375 -0.53125 0.61625 0 0 Z " fill="#343434" transform="translate(171,124)"/>
<path d="M0 0 C3.59905908 0.55550695 4.99909799 1.74887248 7.25 4.5625 C8.03117188 5.52349609 8.03117188 5.52349609 8.828125 6.50390625 C9.21484375 6.99761719 9.6015625 7.49132812 10 8 C9.67 8.66 9.34 9.32 9 10 C7.49410612 8.71520959 5.99542625 7.42195918 4.5 6.125 C3.6646875 5.40570313 2.829375 4.68640625 1.96875 3.9453125 C1.3190625 3.30335937 0.669375 2.66140625 0 2 C0 1.34 0 0.68 0 0 Z " fill="#A1A1A1" transform="translate(152,67)"/>
<path d="M0 0 C0.66 0.33 1.32 0.66 2 1 C1.67 1.33 1.34 1.66 1 2 C1.66 2.66 2.32 3.32 3 4 C1.73308493 4.67408308 0.46129251 5.33900497 -0.8125 6 C-1.52019531 6.37125 -2.22789062 6.7425 -2.95703125 7.125 C-5 8 -5 8 -8 8 C-6.88333826 4.65001479 -6.25305075 4.20659778 -3.4375 2.3125 C-2.79683594 1.87550781 -2.15617188 1.43851563 -1.49609375 0.98828125 C-1.00238281 0.66214844 -0.50867188 0.33601562 0 0 Z " fill="#8E8E8E" transform="translate(144,156)"/>
<path d="M0 0 C1.2062252 3.61867559 1.10816918 6.92506251 1.0625 10.6875 C1.05798828 11.38939453 1.05347656 12.09128906 1.04882812 12.81445312 C1.03706927 14.54300538 1.01913454 16.27151365 1 18 C0.67 18 0.34 18 0 18 C-0.33848652 16.10507994 -0.67056911 14.20901534 -1 12.3125 C-1.185625 11.25675781 -1.37125 10.20101562 -1.5625 9.11328125 C-1.95068074 6.35095938 -2.08259976 3.78257957 -2 1 C-1.34 0.67 -0.68 0.34 0 0 Z " fill="#C9C9C9" transform="translate(161,101)"/>
<path d="M0 0 C2.64 0.33 5.28 0.66 8 1 C8 1.66 8 2.32 8 3 C9.55855981 4.35712166 9.55855981 4.35712166 11.5 5.625 C12.1496875 6.07101563 12.799375 6.51703125 13.46875 6.9765625 C13.9740625 7.31429687 14.479375 7.65203125 15 8 C11.21286807 8 9.16645599 6.73107406 5.8125 5 C4.72582031 4.443125 3.63914063 3.88625 2.51953125 3.3125 C1.68808594 2.879375 0.85664063 2.44625 0 2 C0 1.34 0 0.68 0 0 Z " fill="#121212" transform="translate(134,58)"/>
<path d="M0 0 C0.33 1.32 0.66 2.64 1 4 C-1.25 6.0625 -1.25 6.0625 -4 8 C-6.3125 7.75 -6.3125 7.75 -8 7 C-5.78972846 3.62642766 -3.53600465 1.91135386 0 0 Z " fill="#191919" transform="translate(152,151)"/>
<path d="M0 0 C0.99 0.99 1.98 1.98 3 3 C0.66666667 5.33333333 -1.66666667 7.66666667 -4 10 C-4.33 9.34 -4.66 8.68 -5 8 C-4.00390625 6.0546875 -4.00390625 6.0546875 -2.5625 3.875 C-2.08941406 3.15054688 -1.61632812 2.42609375 -1.12890625 1.6796875 C-0.75636719 1.12539062 -0.38382813 0.57109375 0 0 Z " fill="#9F9F9F" transform="translate(154,134)"/>
<path d="M0 0 C0.66 0.33 1.32 0.66 2 1 C1.67 1.66 1.34 2.32 1 3 C1.99 3.33 2.98 3.66 4 4 C2.68 4.99 1.36 5.98 0 7 C-0.33 6.01 -0.66 5.02 -1 4 C-2.98 4.99 -2.98 4.99 -5 6 C-3.35 4.02 -1.7 2.04 0 0 Z " fill="#4D4D4D" transform="translate(153,148)"/>
<path d="M0 0 C0.33 0.99 0.66 1.98 1 3 C-0.125 5.1875 -0.125 5.1875 -2 7 C-4.6875 7.25 -4.6875 7.25 -7 7 C-4.66666667 4.66666667 -2.33333333 2.33333333 0 0 Z " fill="#090909" transform="translate(157,138)"/>
<path d="M0 0 C4.12751449 0.60698743 7.3321148 2.03810791 11 4 C8.83032311 4.95465783 7.43671207 5.14401212 5.17578125 4.3984375 C3.4315257 3.64129615 1.71372869 2.82390802 0 2 C0 1.34 0 0.68 0 0 Z " fill="#595959" transform="translate(131,54)"/>
<path d="M0 0 C2.4375 1.1875 2.4375 1.1875 5 3 C5.625 5.5 5.625 5.5 6 8 C7.4579186 9.79385992 7.4579186 9.79385992 9 11 C5.35729627 10.01548548 4.22218052 9.37294587 2.25 6.0625 C1.43543539 4.0668167 0.68163534 2.04490602 0 0 Z " fill="#B8B8B8" transform="translate(82,133)"/>
<path d="M0 0 C0.33 0.99 0.66 1.98 1 3 C-1.64 3 -4.28 3 -7 3 C-7 2.34 -7 1.68 -7 1 C-4.53721199 -0.231394 -2.7204945 -0.07159196 0 0 Z " fill="#999999" transform="translate(139,166)"/>
<path d="M0 0 C0.66 0 1.32 0 2 0 C2 2.97 2 5.94 2 9 C1.34 9 0.68 9 0 9 C-0.87890625 2.84765625 -0.87890625 2.84765625 -1 1 C-0.67 0.67 -0.34 0.34 0 0 Z " fill="#565857" transform="translate(122,155)"/>
<path d="M0 0 C3.82097239 0.53069061 6.06171403 1.49701566 9 4 C6 5 6 5 2.8125 3.5625 C1.884375 3.046875 0.95625 2.53125 0 2 C0 1.34 0 0.68 0 0 Z " fill="#4D4E4D" transform="translate(108,145)"/>
<path d="M0 0 C1.9375 0.8125 1.9375 0.8125 4 2 C4.33 2.99 4.66 3.98 5 5 C3.68 5.33 2.36 5.66 1 6 C0.67 4.02 0.34 2.04 0 0 Z M-1 6 C1 7 1 7 1 7 Z " fill="#333333" transform="translate(154,77)"/>
<path d="M0 0 C3.65316671 1.24976756 4.78065836 1.67098753 7 5 C5.35 5.33 3.7 5.66 2 6 C1.34 4.02 0.68 2.04 0 0 Z " fill="#070707" transform="translate(144,69)"/>
<path d="M0 0 C0.99 0.33 1.98 0.66 3 1 C1.37660195 2.70884005 -0.29319053 4.37446717 -2 6 C-2.66 6 -3.32 6 -4 6 C-2.84826645 3.53199953 -1.95216435 1.95216435 0 0 Z " fill="#9C9C9C" transform="translate(70,67)"/>
<path d="M0 0 C0.66 0.33 1.32 0.66 2 1 C1.67 2.32 1.34 3.64 1 5 C-1.97 4.505 -1.97 4.505 -5 4 C-3.35 2.68 -1.7 1.36 0 0 Z " fill="#0A0C0B" transform="translate(75,153)"/>
<path d="M0 0 C2.0625 1.75 2.0625 1.75 4 4 C3.67 5.32 3.34 6.64 3 8 C1.35 5.69 -0.3 3.38 -2 1 C-1.34 0.67 -0.68 0.34 0 0 Z " fill="#999999" transform="translate(152,84)"/>
<path d="M0 0 C0 0.99 0 1.98 0 3 C-0.78375 3.309375 -1.5675 3.61875 -2.375 3.9375 C-4.92330128 4.92875038 -4.92330128 4.92875038 -7 6 C-6.875 4.125 -6.875 4.125 -6 2 C-2.9375 0.75 -2.9375 0.75 0 0 Z " fill="#414141" transform="translate(104,51)"/>
<path d="M0 0 C0.99 0.33 1.98 0.66 3 1 C2.67 2.65 2.34 4.3 2 6 C-0.475 5.01 -0.475 5.01 -3 4 C-2.01 2.68 -1.02 1.36 0 0 Z " fill="#070807" transform="translate(84,162)"/>
<path d="M0 0 C2.31 0.33 4.62 0.66 7 1 C5.35 2.32 3.7 3.64 2 5 C1.01 4.01 0.02 3.02 -1 2 C-0.67 1.34 -0.34 0.68 0 0 Z " fill="#5F5F5F" transform="translate(97,142)"/>
<path d="M0 0 C0.99 0 1.98 0 3 0 C3 0.66 3 1.32 3 2 C2.34 2 1.68 2 1 2 C0.67 3.32 0.34 4.64 0 6 C-0.66 6 -1.32 6 -2 6 C-1.125 1.125 -1.125 1.125 0 0 Z " fill="#0E0E0E" transform="translate(156,145)"/>
</svg>
