<?xml version="1.0" encoding="utf-8"?>
<!-- Generator: Adobe Illustrator 25.0.0, SVG Export Plug-In . SVG Version: 6.00 Build 0)  -->
<svg version="1.1" id="Layer_1" xmlns="http://www.w3.org/2000/svg" xmlns:xlink="http://www.w3.org/1999/xlink" x="0px" y="0px"
	 width="500px" height="500px" viewBox="0 0 500 500" style="enable-background:new 0 0 500 500;" xml:space="preserve">
<style type="text/css">
	.st0{fill:#FFFFFF;}
	.st1{fill:none;stroke:#000000;stroke-width:1.5528;stroke-miterlimit:3.9814;}
	.st2{fill:#FFFFFF;stroke:#000000;stroke-width:0.8;stroke-miterlimit:3.9814;}
	.st3{fill:none;stroke:#000000;stroke-width:0.8;stroke-linecap:round;stroke-miterlimit:3.9814;}
	.st4{fill:#FFFFFF;stroke:#000000;stroke-width:0.8;stroke-linecap:round;stroke-miterlimit:3.9814;}
	.st5{fill:none;stroke:#000000;stroke-width:0.8;stroke-miterlimit:3.9814;}
	.st6{fill:none;stroke:#000000;stroke-linecap:round;stroke-miterlimit:3.9814;}
</style>
<path class="st0" d="M252.2,499.2c137.6-1.2,248.2-113.7,247-251.4C498,110.2,385.5-0.4,247.8,0.8C110.2,2-0.4,114.5,0.8,252.2
	C2,389.8,114.5,500.4,252.2,499.2L252.2,499.2z"/>
<path class="st1" d="M252.2,499.2c137.6-1.2,248.2-113.7,247-251.4C498,110.2,385.5-0.4,247.8,0.8C110.2,2-0.4,114.5,0.8,252.2
	S114.6,500.4,252.2,499.2z"/>
<path d="M252.1,490.5c132.8-1.2,239.6-109.8,238.4-242.6C489.4,115,380.8,8.3,247.9,9.5C115.1,10.6,8.3,119.3,9.5,252.1
	C10.6,384.9,119.3,491.7,252.1,490.5L252.1,490.5z"/>
<path class="st0" d="M185.6,166c6.7,8.8-11.7-12.7-12.4,0.5c-0.7,13.2,4.5,7.2,2.5,10.4c-2,3.2,16.9,4.3,10-5.7
	c-6.9-10,0.8,4.4,6.9,5.9s9.2,1.5,7.6-3.7c-1.6-5.2-1.7-13.2-5.7-11.6C190.4,163.5,180.8,159.6,185.6,166L185.6,166z"/>
<path class="st2" d="M185.6,166c6.7,8.8-11.7-12.7-12.4,0.5c-0.7,13.2,4.5,7.2,2.5,10.4c-2,3.2,16.9,4.3,10-5.7s0.8,4.4,6.9,6
	c6,1.6,9.2,1.5,7.6-3.7c-1.6-5.2-1.7-13.2-5.7-11.6C190.4,163.5,180.8,159.6,185.6,166L185.6,166z"/>
<path class="st0" d="M234.9,164.7c6.7,8.8-11.7-12.7-12.4,0.5c-0.7,13.2,4.5,7.2,2.5,10.4c-2,3.2,16.9,4.3,10-5.7
	c-6.9-10,0.9,4.4,6.9,5.9c6,1.6,9.2,1.5,7.6-3.7c-1.7-5.2-1.7-13.2-5.7-11.6C239.7,162.3,230.1,158.4,234.9,164.7L234.9,164.7z"/>
<path class="st2" d="M234.9,164.7c6.7,8.8-11.7-12.7-12.4,0.5c-0.7,13.2,4.5,7.2,2.5,10.4c-2,3.2,16.9,4.3,10-5.7
	c-6.9-10,0.8,4.4,6.9,6c6,1.5,9.2,1.5,7.6-3.7c-1.6-5.2-1.7-13.2-5.7-11.6C239.7,162.3,230.1,158.4,234.9,164.7L234.9,164.7z"/>
<path class="st0" d="M285.8,163.9c6.7,8.8-11.7-12.7-12.4,0.5c-0.7,13.2,4.5,7.2,2.5,10.4c-2,3.2,16.9,4.3,10-5.7
	c-6.9-10,0.9,4.4,6.9,6c6,1.5,9.2,1.5,7.6-3.7c-1.6-5.2-1.7-13.2-5.7-11.6C290.6,161.4,281,157.5,285.8,163.9L285.8,163.9z"/>
<path class="st2" d="M285.8,163.9c6.7,8.8-11.7-12.7-12.4,0.5c-0.7,13.2,4.5,7.2,2.5,10.4c-2,3.2,16.9,4.3,10-5.7
	c-6.9-10,0.8,4.4,6.9,6c6,1.5,9.2,1.5,7.6-3.7c-1.7-5.2-1.7-13.2-5.7-11.6C290.6,161.4,281,157.5,285.8,163.9L285.8,163.9z"/>
<path class="st0" d="M210.5,165.4c3.1,4,1.2,0.9-2.1-1.5c-4-2.9-9.9-5.2-10.3,2c-0.7,13.2,4.5,7.2,2.5,10.4c-2,3.2,16.9,4.3,10-5.7
	c-6.9-10,0.9,4.4,6.9,6c6,1.5,9.2,1.5,7.6-3.7c-1.7-5.2-1.7-13.2-5.7-11.6C215.3,162.9,205.6,159,210.5,165.4L210.5,165.4z"/>
<path class="st2" d="M210.5,165.4c3.1,4,1.2,0.9-2.1-1.5c-4-2.9-10-5.2-10.3,2c-0.7,13.2,4.5,7.2,2.5,10.4c-2,3.2,16.9,4.3,10-5.7
	c-6.9-10,0.8,4.4,6.9,6c6,1.5,9.2,1.5,7.6-3.7c-1.7-5.2-1.7-13.2-5.7-11.6C215.3,162.9,205.6,159,210.5,165.4L210.5,165.4z"/>
<path class="st0" d="M261.8,164.5c6.7,8.8-11.8-12.7-12.4,0.5c-0.7,13.2,4.5,7.2,2.5,10.4c-2,3.2,16.9,4.2,10-5.7
	c-6.9-10,0.8,4.4,6.9,5.9c6,1.6,9.2,1.5,7.6-3.7s-1.7-13.2-5.7-11.6C266.6,162.1,256.9,158.1,261.8,164.5z"/>
<path class="st2" d="M261.8,164.5c6.7,8.8-11.7-12.7-12.4,0.5c-0.7,13.2,4.5,7.2,2.5,10.4c-2,3.2,16.9,4.3,10-5.7
	c-6.9-10,0.8,4.4,6.9,6c6,1.6,9.2,1.5,7.6-3.7c-1.6-5.2-1.7-13.2-5.7-11.6C266.6,162.1,256.9,158.1,261.8,164.5L261.8,164.5z"/>
<path class="st0" d="M309.9,164.1c6.7,8.8-11.7-12.7-12.4,0.5c-0.7,13.2,4.5,7.2,2.5,10.4c-2,3.2,16.9,4.3,10-5.7
	c-6.9-10,0.9,4.4,6.9,5.9c6,1.6,9.2,1.5,7.6-3.7c-1.6-5.2-1.7-13.2-5.7-11.6C314.7,161.6,305,157.7,309.9,164.1L309.9,164.1z"/>
<path class="st2" d="M309.9,164.1c6.7,8.8-11.7-12.7-12.4,0.5c-0.7,13.2,4.5,7.2,2.5,10.4c-2,3.2,16.9,4.3,10-5.7
	c-6.9-10,0.8,4.4,6.9,5.9c6,1.6,9.2,1.5,7.6-3.7c-1.7-5.2-1.7-13.2-5.7-11.6C314.7,161.6,305,157.7,309.9,164.1L309.9,164.1z"/>
<path class="st0" d="M200.4,159.7c0,0,12.2,8.2,19.2,3.4c1.7-1.2-12.4,8.9,4.9,1.1c12.7-5.7,2.5,16.2,14.8-0.7
	c5.9-8.2,0.2,5,13.3,9.7c0,0-3.9-8.4,0.5-11.2c7.3-4.7,3.2,10.9,16.6-1.8c0,0,3.3,7.6,6,4.8c2.8-2.8,1.8-3.8,5-2.6
	c3.2,1.2,3.1-1.2,9.8,0.6c3.9,1.1,2.6,1.3,7.5,3.9c0.1-9.7-4.2-11.1-8.5-13.5c-4.3-2.4-6.8-23.5-8.2-26.9c-2.5-5.8,0.8-6.8-2-21
	c-2.7-14.2-19.8-16.1-23.8-17c-4-1-3.8-0.4-14.4-0.5c0,0-31.7,4.6-7,23.4c9.5,7.3,6.3,15.8,6.3,15.8c0,4.4-12.2,11.8-16.6,16.2
	c-5.4,5.4-8.4,15.1-23,16L200.4,159.7L200.4,159.7z"/>
<path class="st2" d="M200.4,159.7c0,0,12.2,8.2,19.2,3.4c1.7-1.2-12.4,8.9,4.9,1.1c12.7-5.7,2.5,16.2,14.8-0.7
	c5.9-8.2,0.2,5,13.3,9.7c0,0-3.9-8.4,0.5-11.2c7.3-4.7,3.2,10.9,16.6-1.8c0,0,3.3,7.6,6.1,4.8c2.8-2.8,1.8-3.8,5-2.6
	c3.2,1.2,3.1-1.2,9.8,0.6c3.9,1,2.6,1.3,7.5,3.9c0.1-9.7-4.2-11.1-8.5-13.5c-4.3-2.4-6.8-23.5-8.2-26.9c-2.4-5.8,0.7-6.8-2-21
	c-2.7-14.2-19.8-16.1-23.8-17c-4-1-3.8-0.4-14.4-0.5c0,0-31.7,4.6-7,23.4c9.5,7.3,6.3,15.8,6.3,15.8c0,4.4-12.2,11.8-16.6,16.2
	c-5.4,5.4-8.4,15.1-23,16L200.4,159.7L200.4,159.7z"/>
<path class="st3" d="M239.7,104.6c0,0,1.6,2.4,4,3.6"/>
<path class="st3" d="M236.9,99.5c1.8,2.5,3.9,4.5,5.5,5.1"/>
<path class="st3" d="M236.5,99.9c2.5,3.8,4.7,6.1,7.7,6.9"/>
<path class="st4" d="M262.3,144.2c2.7,5.1,2,3.7,4,4.4c2.1,0.7,2.3-8,1.2-10.4"/>
<path class="st4" d="M259.6,101.4c2,0.7,3.2,2.4,2.8,3.6"/>
<path class="st4" d="M262,99.8c2.2,0.5,2.8,0.8,3.2,2.8"/>
<path class="st4" d="M265.3,98.8c2.4,0,2.8,0.6,3,1.6"/>
<path class="st4" d="M253.3,113.5c0.4-3.4-1.4,2.4,1.4,3.6"/>
<path class="st3" d="M234.7,110.6c3.8,2.4,8.2,8,8.2,12"/>
<path class="st3" d="M238.2,111.4c1.8,1.7,4.9,4.7,5.4,6.3"/>
<path class="st4" d="M265.3,116.3c6.9,8.1,6.5,0,4.7-2.8"/>
<path class="st4" d="M271.3,112.5c3.3,5.2,6.1,6.8,3.9-8"/>
<path class="st4" d="M273.8,121.3c1.2,4.4,5.3,4.8,2.8-4.8"/>
<path class="st4" d="M265.4,123.2c3.6,5.1,6.5,2.5,5-2.6"/>
<path class="st4" d="M269.2,128.8c4.3,8.2,5.3,0.9,4.6-5.2"/>
<path class="st4" d="M256.5,137.7c0-4.8,2.1,7.3,3.9,4.7c0.5-0.6,0.9-2.2,1.3-5.2"/>
<path class="st4" d="M235.9,137.7c-0.5-7.2,1.7,13.2,6.4-2.5"/>
<path class="st4" d="M226.4,146.2c0.8-4.4-1.9,9.7,4.8-0.8"/>
<path class="st4" d="M245.2,147.2c-1.3-6.8-1.1,16.4,7.2-0.1"/>
<path class="st4" d="M235.2,155.3c-0.4-3.6,2.5,6.4,6.4-1.7"/>
<path class="st4" d="M269.7,140.8c2.9,6.8,7.8,7.9,4.3-4.4"/>
<path class="st4" d="M274.7,133.8c0,1.4,5.5,11.5,5-6"/>
<path class="st4" d="M258.1,153.9c-0.9-7.6,2.6,20,6.8,2"/>
<path class="st4" d="M277.8,146.8c2,4.8,7.7,7.2,5.9-6.1"/>
<path class="st4" d="M270.7,151.2c-2.5-6.8,4.5,13.6,6.8,1.5"/>
<path class="st4" d="M245.7,157.7c-1.6-4.4,0.9,10,5.6,0.3"/>
<path d="M236.4,97.9c-0.1,0.8-0.4,1.7-0.4,1.7s3.7,0,8.8,2.6c3.3,1.7,5.1-2.5,5-1.8c0.1-2.6-0.1-4.5,0.6-6c0,0-2.3,0.1-2.9,0.1
	c-2.5,0.4-1.7,0-3.3,0C244.2,94.6,237.2,93.5,236.4,97.9L236.4,97.9z"/>
<path class="st0" d="M244.7,99.6c1.5,0,2.2-0.9,2.7-1.7c0.4-0.6,0.7-1.5,0.2-1.8c-0.5-0.3-2.2,0.1-3,0.1c-0.9,0-1.8-0.2-2.3,0.3
	c-0.4,0.3-0.4,1.1-0.4,1.5C242,98.9,243.2,99.6,244.7,99.6z M236.5,110.9c1.7,1.7,12.5,2,10.9,0.5c-1.6-1.5-5.7-1.6-6.5-4
	c0,0-6.7-11.6-14.6-12.9c-7.8-1.3-0.9-0.2-1.3-0.3c-3.5-0.2-4.3,0-5.2,0.7c-6.9,1-16.1-0.7-7.4,18c0.8,1.7-0.8-2.5,1.6-2.7
	C214,110.2,236.1,110.4,236.5,110.9L236.5,110.9z"/>
<path class="st2" d="M236.5,110.9c1.7,1.7,12.5,2,10.8,0.5c-1.6-1.5-5.7-1.6-6.5-4c0,0-6.7-11.6-14.5-12.9c-7.9-1.3-0.9-0.2-1.3-0.3
	c-3.5-0.3-4.3,0-5.2,0.7c-6.9,1-16.1-0.7-7.4,18c0.8,1.7-0.8-2.5,1.6-2.7C214,110.2,236.1,110.4,236.5,110.9L236.5,110.9z"/>
<path class="st5" d="M244.9,111.8c-15.3-3.6-22.8-9.8-25.1-16.9 M212.8,113.2c0,0-0.3-4.1,1.5-4.4c1.8-0.3,4.4,0.1,19.3-0.7"/>
<path d="M245.3,98.6c0.4,0,0.8-0.4,0.8-0.8c0-0.4-0.4-0.8-0.8-0.8c0,0,0,0,0,0c-0.4,0-0.8,0.4-0.8,0.8
	C244.5,98.2,244.8,98.6,245.3,98.6z"/>
<path class="st0" d="M56.9,361.7c0,0,64.7,119.6,204,109.5c134.6-9.7,180.8-108.2,185.3-121.9c1.4-4.4,2.9-7.8-0.3-10.6
	c-6.7-6.1-26.8-8.8-30.3-8.4c-7.3,0.8-6.6,6.6-4.8,8.4c2,1.8,5,0.4,4.5,1.7C378,419.9,288.9,438.5,261.6,440
	c0,0-111.9,15.8-174.9-92.5c0,0,8.8-14.7-6-14.3c-5.6,0.1-10.5,13.4-20.4,17.4C60.4,350.6,52.7,355.4,56.9,361.7L56.9,361.7z"/>
<path class="st6" d="M58.5,352.4c0,0,10.9,0,6.5,11.6c-1.5,4.1,10.2-13.1,21.7-16.1 M447.3,340.8c0,0-1.1-1.3-2.8-1.6
	c-2.2-0.4-5.8,1.6-5.1,6c0.1,0.9,0.7,1.5,1,1.8c4.1,3.2-10.1-5.6-25.2-6.7"/>
<path class="st0" d="M280.9,161.5c5.9,5.6,8.1,5.8,2.3-8L280.9,161.5z"/>
<path class="st4" d="M280.9,161.5c5.9,5.6,8.1,5.8,2.3-8"/>
<path class="st4" d="M248.9,95.5c-0.2,0,2.9,1.1,5.4-2.1 M248.7,94.8c-3.3,0.8,2.7,0.5,2.9-2.5"/>
<path class="st3" d="M236.1,110.6c3,2.2,6.9,7.3,7.3,8.9 M260.4,131.4c0-4.1,1.6,4.2,3.2,5c0.7,0.4,1.5-0.8,2.1-5.5"/>
<path class="st0" d="M146.4,184.2c3.9,1.4,8.1,7.6,8.1,11.3l1.5,172.3c0,15.1,16.1,25.4,29.9,25.4h28.4c11,0,24.8-0.4,35.7,18.5
	c10.9-18.9,24.7-18.5,35.7-18.5H314c13.8,0,29.9-10.3,29.9-25.4l1.5-172.3c0-3.7,4.2-9.9,8.1-11.3H146.4z"/>
<path d="M308.4,265.2l-58,24.9l10,3.5L308.4,265.2L308.4,265.2z"/>
<path class="st5" d="M308.4,265.2l-58,24.9l10.1,3.5L308.4,265.2z"/>
<path d="M225.2,232.2l25.2,57.9l3.5-10.1L225.2,232.2L225.2,232.2z"/>
<path class="st5" d="M225.2,232.2l25.2,57.9l3.5-10.1L225.2,232.2L225.2,232.2z"/>
<path d="M275.6,348l-25.2-57.9l9.7,4.3L275.6,348L275.6,348z"/>
<path class="st5" d="M275.6,348l-25.2-57.9l9.7,4.3L275.6,348z"/>
<path d="M192,314.1l58.4-24l-4.5,9.6L192,314.1z"/>
<path class="st5" d="M192,314.1l58.4-24l-4.5,9.6L192,314.1L192,314.1z"/>
<path d="M275.5,232.1l-25.1,57.9l9.7-4.4L275.5,232.1L275.5,232.1z"/>
<path class="st5" d="M275.5,232.1l-25.1,57.9l9.7-4.3L275.5,232.1L275.5,232.1z"/>
<path d="M308.5,314.9l-58.1-24.8l10-3.5L308.5,314.9z"/>
<path class="st5" d="M308.5,314.9l-58.1-24.8l10-3.5C260.4,286.6,308.5,314.9,308.5,314.9z"/>
<path d="M224.4,347.6l26-57.5l3.3,10.1L224.4,347.6L224.4,347.6z"/>
<path class="st5" d="M224.4,347.6l26-57.6l3.3,10.1L224.4,347.6L224.4,347.6z"/>
<path d="M192.3,265.3l58.1,24.8l-10.1,3.5L192.3,265.3L192.3,265.3z"/>
<path class="st5" d="M192.3,265.3l58.1,24.8l-10.1,3.5L192.3,265.3z"/>
<path class="st0" d="M192.1,314.4l58.3-24.3l-10-3.6L192.1,314.4L192.1,314.4z"/>
<path class="st5" d="M192.1,314.4l58.3-24.3l-10-3.6C240.4,286.5,192.1,314.4,192.1,314.4z"/>
<path class="st0" d="M275.6,348l-25.2-57.9l-3.5,10L275.6,348z"/>
<path class="st5" d="M275.6,348l-25.2-57.9l-3.5,10.1L275.6,348L275.6,348z"/>
<path class="st0" d="M225.2,232.2l25.2,57.9l-9.7-4.4L225.2,232.2L225.2,232.2z"/>
<path class="st5" d="M225.2,232.2l25.2,57.9l-9.7-4.3L225.2,232.2L225.2,232.2z"/>
<path class="st0" d="M308.4,265.2l-58,24.9l4.4-9.7L308.4,265.2L308.4,265.2z"/>
<path class="st5" d="M308.4,265.2l-58,24.9l4.4-9.7L308.4,265.2L308.4,265.2z"/>
<path class="st0" d="M192.3,265.3l58.1,24.8l-4.4-9.7L192.3,265.3z"/>
<path class="st5" d="M192.3,265.3l58.1,24.8l-4.4-9.7L192.3,265.3z"/>
<path class="st0" d="M224.7,347.8l25.7-57.7l-9.8,4.2L224.7,347.8z"/>
<path class="st5" d="M224.7,347.8l25.7-57.7l-9.8,4.3L224.7,347.8L224.7,347.8z"/>
<path class="st0" d="M308.5,314.9l-58.1-24.8l4.4,9.7L308.5,314.9L308.5,314.9z"/>
<path class="st5" d="M308.5,314.9l-58.1-24.8l4.4,9.7C254.8,299.8,308.5,314.9,308.5,314.9z"/>
<path class="st0" d="M275.5,232.1l-25.1,57.9l-3.5-10.1L275.5,232.1z"/>
<path class="st5" d="M275.5,232.1l-25.1,57.9l-3.5-10.1L275.5,232.1L275.5,232.1z"/>
<path d="M301.7,240.2l-51.3,49.9l12-0.4L301.7,240.2L301.7,240.2z"/>
<path class="st5" d="M301.7,240.2l-51.3,49.9l12-0.4L301.7,240.2z"/>
<path d="M300.5,341.2l-50.1-51.1l12,0.6L300.5,341.2L300.5,341.2z"/>
<path class="st5" d="M300.5,341.2l-50.1-51.1l12,0.7L300.5,341.2L300.5,341.2z"/>
<path d="M198.3,339.1l52.1-49l-0.9,12L198.3,339.1z"/>
<path class="st5" d="M198.3,339.1l52.1-49l-0.9,12L198.3,339.1z"/>
<path d="M200.3,239l50.1,51.1l-12.1-0.7L200.3,239z"/>
<path class="st5" d="M200.3,239l50.1,51.1l-12-0.7L200.3,239z"/>
<path class="st0" d="M200.3,239l50.1,51.1L250,278L200.3,239L200.3,239z"/>
<path class="st5" d="M200.3,239l50.1,51.1l-0.4-12L200.3,239L200.3,239z"/>
<path class="st0" d="M198.5,339.4l51.9-49.3l-12.1,0.2L198.5,339.4L198.5,339.4z"/>
<path class="st5" d="M198.5,339.4l51.9-49.3l-12.1,0.2L198.5,339.4L198.5,339.4z"/>
<path class="st0" d="M300.5,341.2l-50.1-51.1l0.4,12L300.5,341.2L300.5,341.2z"/>
<path class="st5" d="M300.5,341.2l-50.1-51.1l0.4,12L300.5,341.2L300.5,341.2z"/>
<path class="st0" d="M301.7,240.2l-51.3,49.9l0.7-12L301.7,240.2z"/>
<path class="st5" d="M301.7,240.2l-51.3,49.9l0.7-12L301.7,240.2L301.7,240.2z"/>
<path class="st0" d="M166.2,290.8l84.2-0.8l-9.6-9.5L166.2,290.8L166.2,290.8z M251,374.3l-0.6-84.2l-9.8,9L251,374.3z"/>
<path class="st5" d="M251,374.3l-0.6-84.2l-9.8,9L251,374.3L251,374.3z"/>
<path class="st0" d="M250.1,205.9l0.4,84.2l-9.6-9.6L250.1,205.9z"/>
<path class="st5" d="M250.1,205.9l0.3,84.2l-9.6-9.6L250.1,205.9z"/>
<path class="st0" d="M334.6,289.4l-84.2,0.7l9.5-9.7L334.6,289.4L334.6,289.4z"/>
<path class="st5" d="M334.6,289.4l-84.2,0.7l9.5-9.7L334.6,289.4L334.6,289.4z"/>
<path d="M250.1,205.9l0.4,84.2l9.5-9.6L250.1,205.9L250.1,205.9z"/>
<path class="st5" d="M250.1,205.9l0.3,84.2l9.5-9.6L250.1,205.9z"/>
<path d="M251,374.3l-0.6-84.2l9.6,9.5L251,374.3L251,374.3z"/>
<path class="st5" d="M251,374.3l-0.6-84.2l9.6,9.5L251,374.3L251,374.3z"/>
<path d="M166.2,290.8l84.2-0.7l-9.8,9L166.2,290.8L166.2,290.8z"/>
<path class="st5" d="M166.2,290.8l84.2-0.7l-9.7,9L166.2,290.8L166.2,290.8z"/>
<path class="st5" d="M166.2,290.9l84.2-0.8l-9.6-9.5L166.2,290.9L166.2,290.9z"/>
<path d="M334.6,289.3l-84.2,0.8l9.5,9.5L334.6,289.3z"/>
<path class="st5" d="M334.6,289.3l-84.2,0.8l9.5,9.5L334.6,289.3L334.6,289.3z"/>
<path d="M226.9,99c0.1,0.1,0,0.2,0,0.4c0.1,0.3,0.4,0.4,0.6,0.7c0.2,0.5,0.6,0.7,0.9,1.1c0.6,0.9,1.4,1.7,2.1,2.4
	c0.2-0.7-1.4-2.6-2-3c-0.4-0.4-0.8-1.1-1.2-1.8c-0.3,0-0.7-0.5-1-0.6C226.3,98.5,226.6,98.8,226.9,99L226.9,99z"/>
<g>
	<path class="st0" d="M31.7,277.7c1.8-2.6,4.1-4.3,6.8-5.1l0.8,4.3c-2,0.8-3.5,2.1-4.5,3.8c-1,1.7-1.3,3.8-0.8,6.4
		c0.6,3.2,2.1,5.5,4.7,7.1s6.3,1.9,11,1.1c3.8-0.7,6.8-2.1,8.9-4.3c2.1-2.2,2.8-5,2.2-8.5c-0.6-3.2-2.2-5.4-5-6.7
		c-1.5-0.7-3.3-1-5.6-1.1l-0.8-4.3c3.5-0.2,6.6,0.5,9.3,2.3c3.3,2.1,5.3,5.3,6,9.7c0.7,3.8,0,7.1-1.8,10.1
		c-2.5,3.9-6.9,6.4-13.3,7.5c-4.8,0.8-9,0.3-12.6-1.7c-3.8-2.2-6.2-5.6-7-10.4C29.3,283.7,29.9,280.3,31.7,277.7z"/>
	<path class="st0" d="M28.1,266l-0.6-24.1l4.1-0.1l0.5,19.8l10.1-0.3L41.7,243l3.9-0.1l0.5,18.3l11.3-0.3l-0.5-20.1l4-0.1l0.6,24.5
		L28.1,266z"/>
	<path class="st0" d="M28,233.4l0.7-5.3l28.9-12.9l-26.7-3.6l0.6-4.3l33,4.4l-0.7,5l-28.9,13.1l26.6,3.6l-0.6,4.3L28,233.4z"/>
	<path class="st0" d="M40.2,175.2l3.8,1.1l-3.1,10.8l28.2,8.1l-1.3,4.4l-28.2-8.1l-3.1,10.8l-3.8-1.1L40.2,175.2z"/>
	<path class="st0" d="M42.5,169.1l6.3-13.8c1-2.3,2.2-4,3.6-5.1c2.6-2.2,5.6-2.5,9.1-0.9c1.8,0.8,3.1,1.9,3.9,3.2
		c0.8,1.3,1.3,2.7,1.3,4.4c1-1,2.1-1.6,3.1-1.8c1.1-0.2,2.5,0,4.3,0.7l4.1,1.7c1.2,0.5,2.1,0.8,2.7,0.9c1.1,0.2,1.9,0,2.5-0.5
		l0.7,0.3l-2.3,5c-0.3,0-0.7,0-1.2-0.1c-0.5-0.1-1.3-0.4-2.5-0.9l-5.2-2.1c-2-0.8-3.7-0.7-5,0.3c-0.7,0.6-1.5,1.7-2.2,3.3l-4.1,9.1
		l13,5.9l-1.9,4.1L42.5,169.1z M62.5,162.2c0.9-1.9,1.1-3.5,0.9-5c-0.3-1.4-1.4-2.6-3.4-3.5c-2.2-1-4-0.9-5.5,0.3
		c-0.8,0.6-1.5,1.6-2.1,3l-4.5,9.7l10.3,4.7L62.5,162.2z"/>
	<path class="st0" d="M63.1,129.6l2.8-4.3l34.4,8.2l-2.7,4.1l-10.2-2.7l-7.2,11l6.3,8.5l-2.5,3.9L63.1,129.6z M83.6,134.3l-15.1-3.9
		l9.3,12.6L83.6,134.3z"/>
	<path class="st0" d="M76.2,111.1l3-3.4l22.1,19.3l11-12.6l3,2.6l-13.9,16L76.2,111.1z"/>
	<path class="st0" d="M102.2,84l3.4-3l21.9,25l-3.4,3L102.2,84z"/>
	<path class="st0" d="M111.6,75.6l4.3-3.1L145,85l-15.5-22l3.5-2.5l19.1,27.2l-4.1,2.9l-29.2-12.3l15.4,22l-3.5,2.5L111.6,75.6z"/>
	<path class="st0" d="M162.6,45.1l1.8,3.5l-10,5l13.1,26.2l-4.1,2l-13.1-26.2l-10,5l-1.8-3.5L162.6,45.1z"/>
	<path class="st0" d="M168.4,42.9l22.9-7.7l1.3,3.9l-18.7,6.3l3.2,9.6l17.3-5.8l1.2,3.7l-17.3,5.8l3.6,10.7l19.1-6.4l1.3,3.8
		L179,74.4L168.4,42.9z"/>
	<path class="st0" d="M199,33.4l4.4-0.8l5.5,28.8l16.4-3.1l0.7,3.9l-20.8,4L199,33.4z"/>
	<path class="st0" d="M225.5,28.9l4.5-0.3l2,29.3l16.7-1.1l0.3,4l-21.2,1.4L225.5,28.9z"/>
	<path class="st0" d="M252.5,27.7l4.6,0.1l-0.6,33.3l-4.6-0.1L252.5,27.7z"/>
	<path class="st0" d="M287.2,31.7c3,2.2,4.6,5.4,4.7,9.8l-4.4-0.6c-0.2-2.5-1.1-4.4-2.6-5.7s-3.5-2.2-6-2.5c-3-0.4-5.7,0.4-8,2.4
		c-2.4,2-3.8,5.3-4.4,9.8c-0.5,3.9-0.1,7.2,1.2,9.9c1.4,2.7,3.9,4.3,7.8,4.8c2.9,0.4,5.5-0.1,7.6-1.6c2.1-1.5,3.5-4.1,4.1-8
		l-10.3-1.4l0.5-3.7l14.5,1.9l-2.4,17.7l-2.9-0.4l-0.5-4.4c-1.7,1.5-3.2,2.4-4.4,2.9c-2.1,0.8-4.6,1.1-7.6,0.7
		c-3.8-0.5-7-2.2-9.4-5.1c-2.6-3.6-3.5-8.1-2.8-13.7c0.7-5.5,2.8-9.7,6.2-12.6c3.2-2.7,7.1-3.8,11.5-3.2
		C282.6,29.2,285.1,30.2,287.2,31.7z"/>
	<path class="st0" d="M303.5,33.9l23.1,7l-1.2,3.9l-18.9-5.7l-2.9,9.7l17.5,5.3l-1.1,3.7l-17.5-5.3l-3.3,10.8l19.2,5.8l-1.2,3.8
		l-23.4-7.1L303.5,33.9z"/>
	<path class="st0" d="M334.5,43.9l4.8,2.3l3.3,31.4l11.7-24.2l3.9,1.9l-14.4,30l-4.6-2.2l-3.5-31.5l-11.7,24.2l-3.9-1.9L334.5,43.9z
		"/>
	<path class="st0" d="M384.2,75.5c0.6,3.1,0.2,5.9-1.2,8.4l-3.6-2.5c0.8-2,1-4,0.5-5.9c-0.5-1.9-1.8-3.6-4-5.1
		c-2.6-1.8-5.4-2.4-8.4-1.6c-2.9,0.8-5.8,3.1-8.5,7c-2.2,3.2-3.3,6.3-3.2,9.3c0.1,3,1.6,5.5,4.5,7.6c2.7,1.9,5.4,2.2,8.3,1.1
		c1.5-0.6,3.1-1.6,4.7-3.2l3.6,2.5c-2.3,2.7-5.1,4.3-8.2,5c-3.8,0.8-7.5,0-11.1-2.5c-3.1-2.2-5.1-5-5.9-8.4c-1-4.5,0.3-9.4,4-14.7
		c2.8-4,6.2-6.6,10.1-7.7c4.2-1.2,8.3-0.4,12.4,2.4C381.5,69.6,383.5,72.4,384.2,75.5z"/>
	<path class="st0" d="M395.2,81.3L412.6,98l-2.8,2.9l-14.3-13.6l-7,7.3l13.2,12.6l-2.7,2.8l-13.2-12.6l-7.8,8.2l14.5,13.9l-2.7,2.9
		l-17.7-16.9L395.2,81.3z"/>
	<path class="st0" d="M429.8,119.2l3,4.2l-20.1,29.2l-2.9-4l6.2-8.5l-7.6-10.7l-10.2,2.9l-2.7-3.8L429.8,119.2z M418.1,136.6l9-12.7
		l-15.1,4.2L418.1,136.6z"/>
	<path class="st0" d="M451.9,158.9c-0.1,3.7-2,6.8-5.5,9.4l-2-4c1.9-1.6,3-3.3,3.3-5.3c0.3-2-0.2-4.1-1.3-6.4
		c-1.3-2.7-3.5-4.5-6.5-5.3c-3-0.8-6.5-0.2-10.6,1.8c-3.5,1.8-6.1,3.9-7.5,6.6c-1.5,2.6-1.4,5.7,0.3,9.1c1.3,2.6,3.2,4.4,5.6,5.4
		c2.4,1,5.4,0.6,8.9-1.1l-4.6-9.3l3.4-1.7l6.5,13.1l-16,7.9l-1.3-2.6l3.4-2.9c-2.2-0.6-3.8-1.3-4.9-2c-1.9-1.2-3.5-3.2-4.8-5.9
		c-1.7-3.5-2.1-7-1-10.7c1.5-4.1,4.8-7.5,9.8-9.9c5-2.5,9.6-3.1,13.9-1.9c4.1,1.1,7.1,3.7,9.1,7.8
		C451.3,153.6,452,156.3,451.9,158.9z"/>
	<path class="st0" d="M459.1,173.7l7.1,23.1l-3.9,1.2l-5.8-18.9l-9.7,3l5.4,17.5l-3.7,1.1l-5.4-17.5l-10.8,3.3l5.9,19.2l-3.8,1.2
		l-7.2-23.4L459.1,173.7z"/>
	<path class="st0" d="M468.1,204.9l0.8,5.3l-24.2,20.3l26.6-3.8l0.6,4.3l-32.9,4.8l-0.7-5l24.2-20.5l-26.6,3.8l-0.6-4.3L468.1,204.9
		z"/>
	<path class="st0" d="M469.7,263.7c-2.3,2.3-4.8,3.5-7.6,3.7l0.1-4.4c2.2-0.5,3.9-1.4,5.1-2.8s1.9-3.5,2-6.1c0-3.2-1.1-5.8-3.3-7.9
		c-2.3-2-5.8-3.1-10.6-3.1c-3.9-0.1-7.1,0.8-9.5,2.5c-2.5,1.8-3.7,4.4-3.8,7.9c0,3.3,1.2,5.8,3.7,7.5c1.3,0.9,3.1,1.6,5.3,2.1
		l-0.1,4.4c-3.5-0.4-6.4-1.8-8.8-4c-2.8-2.7-4.2-6.2-4.1-10.6c0.1-3.8,1.3-7,3.7-9.6c3.1-3.4,8-5,14.4-4.9c4.9,0.1,8.9,1.4,12,4
		c3.4,2.8,5,6.7,4.9,11.6C473.1,258.3,471.9,261.5,469.7,263.7z"/>
	<path class="st0" d="M471.6,273.1l-0.9,5.2l-17.4,6.8l14.2,12.1l-0.9,5.2l-17.5-15.8l-13.2-2.2l0.8-4.4l13.2,2.2L471.6,273.1z"/>
</g>
<g>
	<path d="M95.1,372.3l-9.6,8.2c-1.1,1-1.9,2-2.3,3c-0.6,1.6-0.2,3.1,1,4.6c1.5,1.8,3.2,2.5,4.9,2.1c1-0.2,2-0.8,3.1-1.8l9.6-8.2
		l1.8,2.1l-8.7,7.4c-1.9,1.6-3.6,2.6-5.1,3c-2.7,0.6-5.1-0.3-7.4-3c-2.2-2.6-2.8-5.2-1.7-7.7c0.6-1.4,1.8-2.9,3.7-4.5l8.7-7.4
		L95.1,372.3z"/>
	<path d="M105.8,384.6l2.3,2.3l-4.1,18.9l11.4-11.8l1.9,1.8l-14.1,14.6l-2.2-2.2l4-19l-11.4,11.8l-1.9-1.8L105.8,384.6z"/>
	<path d="M120.6,398.3l2.1,1.8l-13.1,15.6l-2.1-1.8L120.6,398.3z"/>
	<path d="M137.3,411.3l-1.5,1.9l-5.5-4.1l-10.7,14.4l-2.2-1.7l10.7-14.4l-5.5-4.1l1.4-1.9L137.3,411.3z"/>
	<path d="M138.7,412.3l12.6,7.8l-1.3,2.1l-10.3-6.4l-3.3,5.3l9.5,5.9l-1.2,2l-9.5-5.9l-3.6,5.9l10.4,6.5l-1.3,2.1l-12.7-7.9
		L138.7,412.3z"/>
	<path d="M153.8,421.5l7.3,3.6c2.5,1.2,4,3.1,4.4,5.5c0.4,2.2,0,4.6-1.2,7.1c-1,1.9-2.2,3.5-3.7,4.7c-2.6,2.1-5.5,2.4-8.6,0.9
		l-7.3-3.6L153.8,421.5z M152.6,441c0.8,0.4,1.5,0.7,2.1,0.7c1.1,0.1,2.2-0.1,3.2-0.7c0.8-0.5,1.7-1.3,2.4-2.3
		c0.5-0.6,0.8-1.2,1.1-1.8c1.1-2.3,1.6-4.2,1.3-5.9c-0.3-1.7-1.4-3-3.3-4l-4.3-2.1l-6.9,14L152.6,441z"/>
	<path d="M175,446.1c-0.3,1.1-0.4,2.1-0.2,2.9c0.4,1.6,1.7,2.7,3.8,3.4c0.9,0.3,1.8,0.5,2.7,0.5c1.7,0,2.8-0.7,3.2-2.1
		c0.4-1,0.3-1.9-0.2-2.6c-0.5-0.7-1.4-1.4-2.6-2.2l-2.3-1.5c-1.5-0.9-2.5-1.8-3.1-2.5c-0.9-1.2-1.1-2.6-0.5-4.2
		c0.6-1.7,1.7-3,3.2-3.7s3.4-0.7,5.5,0c2,0.7,3.5,1.7,4.5,3.2c1,1.4,1.2,3.2,0.5,5.4L187,442c0.2-1.1,0.2-2,0-2.6
		c-0.4-1.3-1.5-2.2-3.4-2.8c-1.5-0.5-2.6-0.5-3.5-0.1c-0.9,0.4-1.4,1.1-1.7,1.9c-0.3,0.9-0.2,1.8,0.4,2.5c0.4,0.5,1.4,1.2,3,2.2
		l2.4,1.5c1.2,0.7,2,1.5,2.5,2.2c0.9,1.3,1,2.8,0.4,4.5c-0.7,2.1-2,3.4-3.8,3.8c-1.8,0.4-3.7,0.3-5.7-0.4c-2.3-0.8-4-2-4.9-3.7
		c-0.9-1.7-1-3.5-0.3-5.6L175,446.1z"/>
	<path d="M209.1,441.6l-0.6,2.4l-6.7-1.6l-4.3,17.4l-2.7-0.7l4.3-17.4l-6.7-1.6l0.6-2.4L209.1,441.6z"/>
	<path d="M214.4,442.5l3.1,0.5l4,21.3l-3-0.5l-1-6.4l-7.9-1.3l-3.2,5.7l-2.8-0.5L214.4,442.5z M216.9,455.1l-1.6-9.4l-4.7,8.3
		L216.9,455.1z"/>
	<path d="M238.9,445.3l-0.2,2.4l-6.8-0.6l-1.6,17.9l-2.8-0.2l1.6-17.9l-6.8-0.6l0.2-2.4L238.9,445.3z"/>
	<path d="M240.7,445.3l14.8,0.1l0,2.5l-12.1-0.1l0,6.2l11.2,0l0,2.4l-11.2,0l0,6.9l12.3,0.1l0,2.4l-15-0.1L240.7,445.3z"/>
	<path d="M261.2,458.8c0.2,1.1,0.5,2.1,1,2.7c1,1.3,2.6,1.8,4.8,1.6c1-0.1,1.9-0.3,2.7-0.7c1.5-0.7,2.2-1.8,2.1-3.3
		c-0.1-1.1-0.5-1.9-1.2-2.3c-0.7-0.4-1.8-0.7-3.3-0.9l-2.7-0.4c-1.8-0.3-3-0.6-3.8-1c-1.3-0.7-2.1-1.9-2.2-3.6
		c-0.2-1.8,0.3-3.4,1.4-4.6c1.1-1.3,2.8-2,5.1-2.2c2.1-0.2,3.9,0.2,5.4,1.1c1.5,0.9,2.4,2.5,2.6,4.7l-2.6,0.2
		c-0.2-1.1-0.6-1.9-1.1-2.4c-0.9-1-2.3-1.4-4.2-1.2c-1.6,0.1-2.6,0.6-3.3,1.3c-0.6,0.7-0.9,1.6-0.8,2.5c0.1,1,0.6,1.7,1.4,2.1
		c0.6,0.2,1.8,0.5,3.7,0.8l2.8,0.4c1.4,0.2,2.4,0.5,3.2,1c1.3,0.8,2.1,2.2,2.2,4c0.2,2.2-0.5,3.9-2,5c-1.5,1.1-3.3,1.7-5.4,1.9
		c-2.5,0.2-4.4-0.3-5.9-1.4c-1.5-1.2-2.3-2.8-2.5-5L261.2,458.8z"/>
	<path d="M300,441.6c1.7,1.5,2.9,3.6,3.5,6.3c0.7,3,0.5,5.6-0.6,7.9c-1.2,2.7-3.5,4.4-6.8,5.2c-3.1,0.7-5.7,0.2-7.9-1.4
		c-2-1.6-3.3-3.9-4-6.9c-0.6-2.7-0.5-5.1,0.4-7.3c1.2-2.8,3.4-4.6,6.8-5.4C294.9,439.2,297.8,439.8,300,441.6z M300.4,454.8
		c0.7-1.9,0.8-4,0.3-6.2c-0.5-2.3-1.6-4.1-3.1-5.2c-1.5-1.1-3.4-1.5-5.5-1c-2.1,0.5-3.6,1.5-4.6,3.2c-1,1.7-1.2,3.9-0.5,6.7
		c0.5,2.2,1.5,3.9,2.9,5.2c1.5,1.3,3.4,1.6,5.9,1C298.2,458,299.8,456.8,300.4,454.8z"/>
	<path d="M303.6,437.5l13.4-4.4l0.8,2.4l-10.8,3.5l1.9,5.9l9.5-3.1l0.8,2.3l-9.5,3.1l2.9,8.8l-2.6,0.9L303.6,437.5z"/>
	<path d="M329.4,427.9l2.8-1.3l15.2,15.4l-2.7,1.3l-4.4-4.7l-7.3,3.4l0.6,6.5l-2.6,1.2L329.4,427.9z M338.6,436.9L332,430l0.8,9.5
		L338.6,436.9z"/>
	<path d="M340,422.9l3.4-2l13.8,11.8l-3.8-17.8l3.4-2l10.4,17.5l-2.3,1.3l-6.1-10.3c-0.2-0.4-0.6-1-1-1.8c-0.5-0.8-1-1.7-1.6-2.7
		l3.8,17.7l-2.3,1.4l-13.8-11.8l0.3,0.5c0.3,0.4,0.7,1.1,1.2,1.9c0.5,0.9,0.9,1.5,1.2,1.9l6.1,10.3l-2.3,1.3L340,422.9z"/>
	<path d="M359.5,411l11.9-8.8l1.5,2l-9.7,7.2l3.7,5l9-6.6l1.4,1.9l-9,6.6l4.1,5.5l9.9-7.3l1.4,1.9l-12,8.9L359.5,411z"/>
	<path d="M373.7,400.3l6.9-6.2c1.1-1,2.2-1.7,3.3-2c2-0.6,3.7,0,5.3,1.7c0.8,0.9,1.3,1.8,1.4,2.7c0.1,0.9,0,1.8-0.3,2.8
		c0.8-0.3,1.5-0.4,2.2-0.2c0.6,0.1,1.4,0.6,2.2,1.5l1.9,2c0.5,0.6,1,0.9,1.3,1.2c0.6,0.4,1.1,0.5,1.5,0.3l0.3,0.3l-2.5,2.3
		c-0.2-0.1-0.4-0.2-0.6-0.4c-0.2-0.2-0.6-0.5-1.2-1.1l-2.4-2.4c-0.9-0.9-1.9-1.3-2.9-1c-0.5,0.2-1.2,0.6-2,1.3l-4.5,4.1l5.8,6.5
		l-2.1,1.8L373.7,400.3z M386.6,401.3c0.9-0.8,1.5-1.7,1.7-2.6c0.2-0.9-0.2-1.8-1.1-2.8c-1-1.1-2-1.5-3.1-1.2
		c-0.6,0.2-1.2,0.5-1.9,1.2l-4.9,4.4l4.6,5.2L386.6,401.3z"/>
	<path d="M388.2,386.8l1.9-2l14.6,14.2l-1.9,2L388.2,386.8z"/>
	<path d="M403.2,372.3c1.9-0.2,3.6,0.2,5,1.2l-1.7,2c-1.2-0.6-2.4-0.8-3.5-0.7c-1.2,0.2-2.3,0.9-3.3,2.1c-1.3,1.5-1.8,3.2-1.5,5
		c0.3,1.8,1.5,3.7,3.8,5.6c1.8,1.5,3.6,2.4,5.5,2.5c1.8,0.1,3.5-0.6,4.9-2.3c1.3-1.5,1.7-3.2,1.2-5c-0.3-1-0.8-2-1.7-3l1.7-2
		c1.5,1.6,2.3,3.3,2.6,5.3c0.3,2.3-0.4,4.6-2.2,6.6c-1.5,1.8-3.3,2.8-5.5,3.1c-2.8,0.4-5.7-0.7-8.7-3.3c-2.3-1.9-3.7-4.1-4.1-6.6
		c-0.5-2.6,0.2-5.1,2.2-7.4C399.5,373.6,401.3,372.5,403.2,372.3z"/>
	<path d="M408.5,362.6l1.8-2.6l20.9,5.6l-1.7,2.5l-6.2-1.8l-4.6,6.6l3.7,5.3l-1.6,2.3L408.5,362.6z M421,365.8l-9.1-2.6l5.5,7.9
		L421,365.8z"/>
</g>
</svg>
