<svg xmlns="http://www.w3.org/2000/svg" width="900" height="170" viewBox="0 0 900 170">
  <!-- rendered_utc=2026-01-26 09:35:39Z mode=PLAYING -->
  <rect x="0.5" y="0.5" width="899" height="169" rx="12" ry="12" fill="#ffffff" stroke="#e6e6e6"/>
  <image href="https://i.scdn.co/image/ab67616d00001e02dd35352a501ef562f9777405" x="14" y="26" width="118" height="118" />

  <text x="150" y="70" font-family="-apple-system,BlinkMacSystemFont,'Segoe UI',Roboto,Arial,sans-serif"
        font-size="34" font-weight="700" fill="#111111">Weichafe</text>

  <text x="150" y="108" font-family="-apple-system,BlinkMacSystemFont,'Segoe UI',Roboto,Arial,sans-serif"
        font-size="24" font-weight="400" fill="#222222">Tierra Oscura Del Sol</text>
  
  <rect x="150" y="113" width="6" height="19" fill="#53b14f" />
  <rect x="159" y="119" width="6" height="13" fill="#53b14f" />
  <rect x="168" y="124" width="6" height="8" fill="#53b14f" />
  <rect x="177" y="123" width="6" height="9" fill="#53b14f" />
  <rect x="186" y="119" width="6" height="13" fill="#53b14f" />
  <rect x="195" y="120" width="6" height="12" fill="#53b14f" />
  <rect x="204" y="120" width="6" height="12" fill="#53b14f" />
  <rect x="213" y="119" width="6" height="13" fill="#53b14f" />
  <rect x="222" y="119" width="6" height="13" fill="#53b14f" />
  <rect x="231" y="115" width="6" height="17" fill="#53b14f" />
  <rect x="240" y="122" width="6" height="10" fill="#53b14f" />
  <rect x="249" y="119" width="6" height="13" fill="#53b14f" />
  <rect x="258" y="128" width="6" height="4" fill="#53b14f" />
  <rect x="267" y="126" width="6" height="6" fill="#53b14f" />
  <rect x="276" y="124" width="6" height="8" fill="#53b14f" />
  <rect x="285" y="113" width="6" height="19" fill="#53b14f" />
  <rect x="294" y="120" width="6" height="12" fill="#53b14f" />
  <rect x="303" y="113" width="6" height="19" fill="#53b14f" />
  <rect x="312" y="113" width="6" height="19" fill="#53b14f" />
  <rect x="321" y="115" width="6" height="17" fill="#53b14f" />
  <rect x="330" y="117" width="6" height="15" fill="#53b14f" />
  <rect x="339" y="117" width="6" height="15" fill="#53b14f" />
  <rect x="348" y="128" width="6" height="4" fill="#53b14f" />
  <rect x="357" y="122" width="6" height="10" fill="#53b14f" />
  <rect x="366" y="128" width="6" height="4" fill="#53b14f" />
  <rect x="375" y="115" width="6" height="17" fill="#53b14f" />
  <rect x="384" y="113" width="6" height="19" fill="#53b14f" />
  <rect x="393" y="113" width="6" height="19" fill="#53b14f" />
  <rect x="402" y="122" width="6" height="10" fill="#53b14f" />
  <rect x="411" y="117" width="6" height="15" fill="#53b14f" />
  <rect x="420" y="119" width="6" height="13" fill="#53b14f" />
  <rect x="429" y="115" width="6" height="17" fill="#53b14f" />
  <rect x="438" y="113" width="6" height="19" fill="#53b14f" />
  <rect x="447" y="119" width="6" height="13" fill="#53b14f" />
  <rect x="456" y="124" width="6" height="8" fill="#53b14f" />
  <rect x="465" y="123" width="6" height="9" fill="#53b14f" />
  <rect x="474" y="119" width="6" height="13" fill="#53b14f" />
  <rect x="483" y="120" width="6" height="12" fill="#53b14f" />
  <rect x="492" y="120" width="6" height="12" fill="#53b14f" />
  <rect x="501" y="119" width="6" height="13" fill="#53b14f" />
  <rect x="510" y="119" width="6" height="13" fill="#53b14f" />
  <rect x="519" y="115" width="6" height="17" fill="#53b14f" />
  <rect x="528" y="122" width="6" height="10" fill="#53b14f" />
  <rect x="537" y="119" width="6" height="13" fill="#53b14f" />
  <rect x="546" y="128" width="6" height="4" fill="#53b14f" />
  <rect x="555" y="126" width="6" height="6" fill="#53b14f" />
  <rect x="564" y="124" width="6" height="8" fill="#53b14f" />
  <rect x="573" y="113" width="6" height="19" fill="#53b14f" />
</svg>